<svg xmlns="http://www.w3.org/2000/svg" viewBox="0 0 300 54" role="img" aria-labelledby="title desc">
  <title id="title">安装 VibeSkills</title>
  <desc id="desc">安装 VibeSkills。打开 VibeSkills 安装指南。</desc>
  <metadata>Lettering derived from Bona Nova Bold and Noto Serif SC, licensed under SIL Open Font License 1.1.</metadata>
  <rect x="1" y="1" width="298" height="52" rx="3" fill="#112B2E" stroke="#B49A64" stroke-width="1.4"/>
  <path d="M9 12V42 M291 12V42" fill="none" stroke="#82545C" stroke-width="1.2"/>
  <path d="M66 13V41" fill="none" stroke="#B49A64" stroke-width="1" opacity="0.7"/>
  <path data-role="download-icon" d="M40 13V31 M33 25L40 32L47 25 M31 39H49" fill="none" stroke="#D0B574" stroke-width="2" stroke-linecap="square" stroke-linejoin="miter"/>
  <defs>
    <path id="g0" d="M805.36 680.38 864.68 739.08 967.4 641.46Q961.78 635.6 952.9 633.48Q944.02 631.36 927.78 630.36Q910.2 612.36 884.07 591.98Q857.94 571.6 830.12 552.53Q802.3 533.46 777.48 519.7L767.44 526.46Q776.96 548.32 786.43 576.18Q795.9 604.04 804.18 632.09Q812.46 660.14 816.98 680.38ZM173.34 743.4Q196.02 683.82 196.1 636.69Q196.18 589.56 181.11 557.86Q166.04 526.16 142.08 510.06Q126.12 498.96 105.68 498.37Q85.24 497.78 67.92 507.53Q50.6 517.28 42.74 536.82Q34.64 564.32 47.77 585.62Q60.9 606.92 85.06 618.64Q102.96 628.78 120.96 647.44Q138.96 666.1 150.01 691.09Q161.06 716.08 159.3 743.02ZM854.4 680.38V651.62H159.72V680.38ZM412.58 847.82Q481.86 844.08 521.19 826.56Q560.52 809.04 576.12 784.7Q591.72 760.36 588.76 736.85Q585.8 713.34 569.76 697.26Q553.72 681.18 529.08 679.49Q504.44 677.8 477.18 697.34Q476.28 723.82 466.31 750.75Q456.34 777.68 440.44 801.68Q424.54 825.68 404.92 841.68ZM230.18 205.14Q391.84 186.16 507.77 161.74Q623.7 137.32 700.52 110.25Q777.34 83.18 821.65 55.77Q865.96 28.36 884 3.9Q902.04 -20.56 900.17 -39.83Q898.3 -59.1 883.07 -70.63Q867.84 -82.16 844.61 -82.78Q821.38 -83.4 798.32 -70.68Q742.28 -26.68 655.38 19.11Q568.48 64.9 454.86 108.57Q341.24 152.24 203.04 188.38ZM203.04 188.38Q222.04 220.24 244.92 265.91Q267.8 311.58 291.99 363.25Q316.18 414.92 338.56 465.85Q360.94 516.78 378.2 560.66Q395.46 604.54 404.6 633.68L550.46 596.14Q547.08 586.52 535.65 579.78Q524.22 573.04 490.78 576.42L513.22 590.28Q497.98 556.14 473.36 504.21Q448.74 452.28 419.31 393.23Q389.88 334.18 358.64 277.01Q327.4 219.84 299.16 174.6ZM755.94 413.56Q728.32 321.08 691.25 247.91Q654.18 174.74 600.37 119Q546.56 63.26 469.96 22.95Q393.36 -17.36 287.49 -44.24Q181.62 -71.12 39.12 -87.5L34.74 -72.84Q173.64 -41.64 275.92 0.46Q378.2 42.56 449.48 101.8Q520.76 161.04 566.23 241.73Q611.7 322.42 635.98 429.56H755.94ZM851.16 515.66Q851.16 515.66 862.57 506.56Q873.98 497.46 891.25 483.12Q908.52 468.78 927.91 452.63Q947.3 436.48 963.02 421.76Q959.02 405.76 935.16 405.76H49.22L40.84 434.52H789.56Z"/>
    <path id="g1" d="M399.48 224.84V151.44H295.34V191.06ZM433.44 402.68Q486.94 402.88 516.95 391.69Q546.96 380.5 558.15 364.21Q569.34 347.92 565.76 331.82Q562.18 315.72 548.81 304.55Q535.44 293.38 515.83 292.43Q496.22 291.48 475.16 305.92Q471.74 330.78 456.92 356.28Q442.1 381.78 425.3 396.16ZM273.66 20.44Q302.9 23.2 355.19 29.1Q407.48 35 473.58 43.78Q539.68 52.56 609.54 62.22L612.3 48.94Q564.12 28.74 481.91 -6.06Q399.7 -40.86 301.5 -76.64ZM373.98 185.86 399.48 170.56V23.06L289.96 -16.68L330.2 19.58Q338.96 -10.54 334.62 -32.96Q330.28 -55.38 320.01 -69.46Q309.74 -83.54 298.54 -90.02L237.6 10.78Q274.76 30.64 285.05 40.93Q295.34 51.22 295.34 64.32V185.86ZM893.04 190.5Q888.28 183.5 880.16 181.07Q872.04 178.64 855.8 183.02Q828.46 171.12 791.67 159.01Q754.88 146.9 714.71 136.72Q674.54 126.54 636.06 119.12L625.54 131.26Q653.82 149.5 684.17 173.93Q714.52 198.36 741.06 223.48Q767.6 248.6 783.88 267.6ZM531.88 290.52Q558.26 230.52 603.57 185.41Q648.88 140.3 707.19 108.17Q765.5 76.04 832.76 55.22Q900.02 34.4 971.3 21.98L970.92 10.36Q938.8 3.16 917.19 -21.72Q895.58 -46.6 885.86 -84.68Q796.06 -52.06 723.86 -4.85Q651.66 42.36 600.15 112.6Q548.64 182.84 518.22 282.62ZM550.3 278.72Q496.06 225.86 417.31 185.48Q338.56 145.1 242.04 116.89Q145.52 88.68 37.16 71.4L31.26 86.06Q151.78 121.06 250.91 175.87Q350.04 230.68 410.74 294.72H550.3ZM857.54 371.62Q857.54 371.62 868.14 362.83Q878.74 354.04 895.2 340.7Q911.66 327.36 929.93 311.71Q948.2 296.06 962.92 281.96Q958.92 265.96 936.06 265.96H50.66L42.28 294.72H798.8ZM92.42 790.98Q149.3 774.36 180.57 751.14Q211.84 727.92 222.79 703.96Q233.74 680 229.42 659.78Q225.1 639.56 210.3 627.32Q195.5 615.08 175.2 616.18Q154.9 617.28 134.46 636.2Q134.56 662.3 127.07 689.16Q119.58 716.02 107.83 741.19Q96.08 766.36 82.28 785.08ZM407.48 832.78Q406.48 822.78 398.6 815.47Q390.72 808.16 370.48 805.54V373.54Q370.48 368.92 358.04 362.25Q345.6 355.58 326.75 350.72Q307.9 345.86 288.36 345.86H270.06V845.88ZM39.5 510.92Q62.88 517.58 103.71 530.78Q144.54 543.98 195.56 561.39Q246.58 578.8 299.48 597.78L303.76 587.12Q276.3 560.12 234.01 520.55Q191.72 480.98 131.88 430.88Q127.4 410.4 111.44 404.64ZM831.9 533.76Q831.9 533.76 842.19 525.47Q852.48 517.18 867.82 504.46Q883.16 491.74 900.5 476.71Q917.84 461.68 931.56 448.58Q927.56 432.58 904.7 432.58H423.98L415.98 461.34H777.4ZM859.78 747.24Q859.78 747.24 870.38 738.76Q880.98 730.28 897.25 716.94Q913.52 703.6 931.48 688.57Q949.44 673.54 963.78 659.82Q960.16 643.82 936.3 643.82H402.88L394.88 672.58H802.04ZM740.3 832.06Q739.3 822.06 731.85 815.37Q724.4 808.68 706.4 805.68V447.24H599.16V844.54Z"/>
    <path id="g2" d=""/>
    <path id="g3" d="M327.22 -4.28 66.64 737.88H206.08L414.96 105.7H397.82L402.44 120.08L600.8 737.88H652.58L397.56 -4.28ZM5.62 705.78V737.88H329.98V707.26L179.24 692.68H150.46ZM478.04 707.26V737.88H723.66V708.26L616.9 692.68H601.14Z"/>
    <path id="g4" d="M40.04 0V29.48L147.32 39.86H202.9L310.38 29.48V0ZM113.16 0Q114.16 25.24 114.85 66.98Q115.54 108.72 116.04 153.96Q116.54 199.2 116.54 233.44V303.94Q116.54 354.32 115.85 391.43Q115.16 428.54 113.16 464.68L31.94 470.78V495.54L230.4 545.66L243.02 537.04L239.78 386.3V233.44Q239.78 199.2 240.28 153.96Q240.78 108.72 241.59 66.98Q242.4 25.24 243.4 0ZM172.26 655Q142.58 655 121.26 674.39Q99.94 693.78 99.94 725.08Q99.94 755.14 121.26 774.72Q142.58 794.3 172.26 794.3Q202.18 794.3 223.57 774.72Q244.96 755.14 244.96 725.08Q244.96 693.78 223.57 674.39Q202.18 655 172.26 655Z"/>
    <path id="g5" d="M39.04 0V29.48L113.4 35.62Q114.4 64.86 114.4 100.1Q114.4 135.34 114.9 170.58Q115.4 205.82 115.4 233.44V746.34L35.18 752.2V779.2L225.64 816.12L239.78 807.12L236.78 648.78V458.86L239.02 448.86V79.52V77.9L219.86 -12.34ZM396.06 -15.86Q345.86 -15.86 299.67 9.24Q253.48 34.34 216.96 88.72H205.96L223.16 107.42Q254.62 72.58 284.32 58.16Q314.02 43.74 347.1 43.74Q385.52 43.74 418.49 63.83Q451.46 83.92 471.48 133.68Q491.5 183.44 491.5 271.02Q491.5 385.74 451.46 437.59Q411.42 489.44 349.72 489.44Q328.44 489.44 306.4 483.92Q284.36 478.4 259.89 461.31Q235.42 444.22 204.28 409.7L191.8 438.7H209.86Q251.48 495.32 302.1 521.37Q352.72 547.42 407.3 547.42Q469.54 547.42 518.02 514.61Q566.5 481.8 594.86 419.7Q623.22 357.6 623.22 269.3Q623.22 187.68 594.36 123.2Q565.5 58.72 514.52 21.43Q463.54 -15.86 396.06 -15.86Z"/>
    <path id="g6" d="M313.5 -15.86Q234.44 -15.86 172.86 16.24Q111.28 48.34 76.37 111.56Q41.46 174.78 41.46 266.26Q41.46 355.08 78.61 418.06Q115.76 481.04 176.27 514.23Q236.78 547.42 306.36 547.42Q378.28 547.42 427.74 518.44Q477.2 489.46 502.75 440.24Q528.3 391.02 528.3 329.3Q528.3 294.16 521.68 268.68H95.64V302.4H358.48Q389.3 302.4 400.28 319.24Q411.26 336.08 411.26 374.48Q411.26 439.96 381.89 476.95Q352.52 513.94 301.64 513.94Q266.04 513.94 236.34 488.42Q206.64 462.9 189.22 411.09Q171.8 359.28 171.8 279.74Q171.8 197.88 195.25 145.57Q218.7 93.26 259.91 69.07Q301.12 44.88 353.78 44.88Q406.78 44.88 443.87 64.74Q480.96 84.6 508.62 119.98L526.1 106.6Q494.34 48.44 440.45 16.29Q386.56 -15.86 313.5 -15.86Z"/>
    <path id="g7" d="M274.5 -18.1Q213.12 -18.1 153.04 -1.84Q92.96 14.42 52.14 40.76L58.38 202.12H108.4L154.96 17.98L96.74 43.56L86.92 79.76Q136.16 45 174.04 33.24Q211.92 21.48 262.82 21.48Q340.24 21.48 384.68 56.5Q429.12 91.52 429.12 156.36Q429.12 191.5 417.29 216.83Q405.46 242.16 378.16 262.68Q350.86 283.2 303.64 303.1L258.3 322.58Q163.62 364.4 114.16 417.74Q64.7 471.08 64.7 554.62Q64.7 620.34 97.68 665.06Q130.66 709.78 187.98 733.07Q245.3 756.36 318.32 756.36Q376.56 756.36 424.19 741.74Q471.82 727.12 510.68 700.5L504.2 547.14H453.42L408.72 722.8L470.66 695.98L477.24 657.68Q435.9 690.78 404.88 703.9Q373.86 717.02 331.72 717.02Q264.44 717.02 221.78 684.57Q179.12 652.12 179.12 591.56Q179.12 537.28 209.78 504.76Q240.44 472.24 296.1 447.86L345.06 426.52Q420.44 394.28 464.68 361.42Q508.92 328.56 527.97 289.27Q547.02 249.98 547.02 195.64Q547.02 131.54 514.47 83.32Q481.92 35.1 421.03 8.5Q360.14 -18.1 274.5 -18.1Z"/>
    <path id="g8" d="M37.66 0V29.48L144.32 39.86H201.52L312.38 29.48V0ZM112.4 0Q113.4 18.52 113.9 47.45Q114.4 76.38 114.9 109.86Q115.4 143.34 115.4 175.7Q115.4 208.06 115.4 233.44V746.96L35.18 752.2V779.2L227.64 816.12L242.64 807.12L239.02 648.78V238.78Q239.02 211.54 239.02 178.06Q239.02 144.58 239.52 110.48Q240.02 76.38 240.83 47.45Q241.64 18.52 242.64 0ZM175.92 176.24V219.86H181.4L338.9 375.4L498.02 531.56H554.56ZM453.9 0 294.46 300.24 380.86 379.82 567.62 35.86 638.7 29.48V0ZM357.82 501.94V531.56H610.98V501.94L494.6 491.08L474.12 488.08Z"/>
    <path id="g9" d="M33.76 0V29.48L146.56 39.86H202.76L319.52 29.48V0ZM112.4 0Q113.4 34.34 113.9 74.27Q114.4 114.2 114.9 155.39Q115.4 196.58 115.4 233.44V746.96L35.18 752.2V779.2L227.64 816.12L242.64 807.12L239.02 648.78V233.44Q239.02 196.58 239.52 155.39Q240.02 114.2 240.83 74.27Q241.64 34.34 242.64 0Z"/>
    <path id="g10" d="M230.02 -15.86Q176.58 -15.86 132.95 -4.5Q89.32 6.86 46.84 29.2L51.04 156.84H105.16L134.22 20.1L88.58 24.82V60.82Q119.92 40.34 150.3 30.03Q180.68 19.72 221.96 19.72Q283.52 19.72 315.54 43.26Q347.56 66.8 347.56 108.56Q347.56 142.84 326.54 166.03Q305.52 189.22 244.76 207.36L189.8 226.36Q125.84 247.12 88.98 284.46Q52.12 321.8 52.12 382Q52.12 453.4 106.3 500.41Q160.48 547.42 260.98 547.42Q308.7 547.42 347.16 536.3Q385.62 525.18 426.58 502.8L421.1 385.92H372.46L337.1 516L377.12 504.08V472.94Q346.74 493.7 321.46 502.89Q296.18 512.08 263.08 512.08Q211.76 512.08 183.19 488.87Q154.62 465.66 154.62 426.9Q154.62 395.34 176.52 372.84Q198.42 350.34 254.9 332.58L309.72 314.58Q387.2 289.44 421.3 250.6Q455.4 211.76 455.4 154.32Q455.4 103.54 428.94 65.08Q402.48 26.62 352.35 5.38Q302.22 -15.86 230.02 -15.86Z"/>
  </defs>
  <g data-role="button-label" fill="#EEE8DC" transform="translate(109.87 34.5) scale(0.0195 -0.0195)"><use href="#g0" x="0"/><use href="#g1" x="1000"/><use href="#g2" x="2000"/><use href="#g3" x="2252"/><use href="#g4" x="2948"/><use href="#g5" x="3293"/><use href="#g6" x="3962"/><use href="#g7" x="4525"/><use href="#g8" x="5114"/><use href="#g4" x="5755"/><use href="#g9" x="6100"/><use href="#g9" x="6451"/><use href="#g10" x="6802"/></g>
</svg>
