<svg xmlns="http://www.w3.org/2000/svg" viewBox="0 0 300 54" role="img" aria-labelledby="title desc">
  <title id="title">Install VibeSkills</title>
  <desc id="desc">Install VibeSkills. Opens the VibeSkills installation guide.</desc>
  <metadata>Lettering derived from Bona Nova Bold and Noto Serif SC, licensed under SIL Open Font License 1.1.</metadata>
  <rect x="1" y="1" width="298" height="52" rx="3" fill="#173F42" stroke="#9A7C45" stroke-width="1.4"/>
  <path d="M9 12V42 M291 12V42" fill="none" stroke="#5A3037" stroke-width="1.2"/>
  <path d="M66 13V41" fill="none" stroke="#9A7C45" stroke-width="1" opacity="0.7"/>
  <path data-role="download-icon" d="M40 13V31 M33 25L40 32L47 25 M31 39H49" fill="none" stroke="#C2A45F" stroke-width="2" stroke-linecap="square" stroke-linejoin="miter"/>
  <defs>
    <path id="g0" d="M63 0V23Q92 25 105 38Q118 51 118 100V565Q118 614 103.5 627.5Q89 641 48 642V665H333V642Q304 641 291 627.5Q278 614 278 565V100Q278 51 293 38Q308 25 348 23V0Z"/>
    <path id="g1" d="M533 110Q533 73 538 54.5Q543 36 556 30Q569 24 593 23V0H338V23Q355 24 365 30Q375 36 379 54.5Q383 73 383 110V309Q383 338 374 356.5Q365 375 330 375Q311 375 287.5 369Q264 363 233 343V110Q233 73 238 54.5Q243 36 256 30Q269 24 293 23V0H38V23Q55 24 65 30Q75 36 79 54.5Q83 73 83 110V340Q83 355 77.5 360Q72 365 61 365Q49 365 33 361L23 384L231 481L237 475Q235 466 232.5 437Q230 408 230 378H233Q253 401 280 423Q307 445 340.5 460Q374 475 413 475Q475 475 504 445.5Q533 416 533 351Z"/>
    <path id="g2" d="M202 -15Q126 -15 79.5 12Q33 39 33 88Q33 107 41 128.5Q49 150 70 170H93Q98 131 109.5 98.5Q121 66 144.5 47Q168 28 208 28Q240 28 261.5 42.5Q283 57 283 86Q283 113 265.5 131Q248 149 221 163.5Q194 178 163 192Q132 206 105 224.5Q78 243 60.5 269Q43 295 43 334Q43 399 95.5 437Q148 475 238 475Q272 475 312.5 469Q353 463 378 448V315H356Q349 366 318 399Q287 432 238 432Q205 432 189 417.5Q173 403 173 384Q173 362 190.5 346.5Q208 331 235 317.5Q262 304 292.5 289Q323 274 350 254Q377 234 394.5 205.5Q412 177 412 136Q412 87 385 53.5Q358 20 310.5 2.5Q263 -15 202 -15Z"/>
    <path id="g3" d="M364 102 380 86Q369 61 350 38Q331 15 301.5 0Q272 -15 229 -15Q158 -15 121 27Q84 69 84 135V407H24V460H84V595L239 610Q236 572 235 535Q234 498 234 460H364V407H274Q234 407 234 367V155Q234 75 299 75Q337 75 364 102Z"/>
    <path id="g4" d="M146 -15Q91 -15 64.5 18Q38 51 38 94Q38 160 98.5 201Q159 242 286 276V329Q286 376 266.5 396.5Q247 417 212 417Q164 417 132.5 381Q101 345 89 284H66V428Q100 445 154.5 460Q209 475 273 475Q446 475 446 341V123Q446 100 452 87.5Q458 75 476 75Q486 75 498.5 79.5Q511 84 525 97L541 81Q519 35 483 12.5Q447 -10 401 -10Q352 -10 325.5 9.5Q299 29 288 66H286Q263 26 225 5.5Q187 -15 146 -15ZM224 75Q244 75 259.5 84.5Q275 94 286 106V236Q240 223 216.5 202Q193 181 185.5 160Q178 139 178 125Q178 104 190 89.5Q202 75 224 75Z"/>
    <path id="g5" d="M232 110Q232 73 237 54.5Q242 36 255 30Q268 24 292 23V0H37V23Q54 24 64 30Q74 36 78 54.5Q82 73 82 110V649Q82 664 76.5 669Q71 674 60 674Q52 674 42.5 672Q33 670 22 666L12 689L230 790L236 784Q235 769 233.5 737.5Q232 706 232 658Z"/>
    <path id="g6" d=""/>
    <path id="g7" d="M295 -8Q288 18 283.5 35.5Q279 53 268 79L75 565Q62 599 52 615Q42 631 31.5 636Q21 641 5 642V665H287V642Q247 640 241.5 618.5Q236 597 249 565L382 224H384L508 565Q521 599 506 619.5Q491 640 447 642V665H630V642Q610 640 592.5 619.5Q575 599 562 565L386 79Q376 52 372 35Q368 18 363 -8Z"/>
    <path id="g8" d="M233 110Q233 73 238 54.5Q243 36 256 30Q269 24 293 23V0H38V23Q55 24 65 30Q75 36 79 54.5Q83 73 83 110V340Q83 355 77.5 360Q72 365 61 365Q53 365 43.5 363Q34 361 23 357L13 380L231 481L237 475Q236 460 234.5 428.5Q233 397 233 349ZM163 530Q126 530 101 555.5Q76 581 76 616Q76 651 101 677Q126 703 163 703Q199 703 224 677Q249 651 249 616Q249 581 224 555.5Q199 530 163 530Z"/>
    <path id="g9" d="M384 475Q432 475 473.5 447.5Q515 420 540 369Q565 318 565 246Q565 174 540 124.5Q515 75 474.5 44Q434 13 386 -1Q338 -15 292 -15Q240 -15 209.5 -8Q179 -1 155 9L75 -10V649Q75 664 69.5 669Q64 674 53 674Q45 674 35.5 672Q26 670 15 666L5 689L223 790L229 784Q228 769 226.5 737.5Q225 706 225 658V380Q245 421 286 448Q327 475 384 475ZM301 33Q345 33 375 79.5Q405 126 405 203Q405 290 375 332.5Q345 375 301 375Q282 375 262 367.5Q242 360 225 343V77Q253 33 301 33Z"/>
    <path id="g10" d="M274 -15Q206 -15 150.5 14Q95 43 62.5 97Q30 151 30 225Q30 305 66 361Q102 417 161.5 446Q221 475 289 475Q381 475 428.5 425.5Q476 376 476 296L181 259Q187 174 231 137Q275 100 333 100Q362 100 399 110.5Q436 121 466 149L482 133Q454 66 405.5 25.5Q357 -15 274 -15ZM259 432Q225 432 204 396.5Q183 361 180 299L325 317Q323 364 308.5 398Q294 432 259 432Z"/>
    <path id="g11" d="M276 -15Q225 -15 176 -2.5Q127 10 95 40Q63 70 63 120Q63 139 70 165.5Q77 192 98 220H121Q123 172 141 128.5Q159 85 194 57.5Q229 30 281 30Q322 30 346 46.5Q370 63 381 87Q392 111 392 135Q392 174 369 201Q346 228 310.5 249Q275 270 234.5 291Q194 312 158 337.5Q122 363 99.5 399.5Q77 436 77 489Q77 579 146.5 629.5Q216 680 331 680Q382 680 428.5 671.5Q475 663 503 653V495H480Q464 550 439.5 580Q415 610 385.5 622.5Q356 635 325 635Q287 635 264.5 621.5Q242 608 232 588.5Q222 569 222 549Q222 516 244.5 491.5Q267 467 303 447Q339 427 379.5 405Q420 383 455.5 355Q491 327 514 287.5Q537 248 537 191Q537 124 503 78Q469 32 410 8.5Q351 -15 276 -15Z"/>
    <path id="g12" d="M232 110Q232 73 235.5 54.5Q239 36 249 30Q259 24 277 23V0H37V23Q54 24 64 30Q74 36 78 54.5Q82 73 82 110V649Q82 664 76.5 669Q71 674 60 674Q52 674 42.5 672Q33 670 22 666L12 689L230 790L236 784Q235 769 233.5 737.5Q232 706 232 658V231H234L360 361Q374 375 381 384.5Q388 394 388 404Q388 413 380.5 424Q373 435 343 437V460H545V437Q515 435 490 419Q465 403 446 384L388 324L501 103Q525 56 542.5 39.5Q560 23 577 23V0Q544 -15 498 -15Q447 -15 410.5 6Q374 27 356 62L279 212L232 164Z"/>
  </defs>
  <g data-role="button-label" fill="#F5EFE5" transform="translate(100.44 34.5) scale(0.0205 -0.0205)"><use href="#g0" x="0"/><use href="#g1" x="396"/><use href="#g2" x="1010"/><use href="#g3" x="1450"/><use href="#g4" x="1834"/><use href="#g5" x="2368"/><use href="#g5" x="2683"/><use href="#g6" x="2998"/><use href="#g7" x="3268"/><use href="#g8" x="3884"/><use href="#g9" x="4200"/><use href="#g10" x="4795"/><use href="#g11" x="5299"/><use href="#g12" x="5892"/><use href="#g8" x="6474"/><use href="#g5" x="6790"/><use href="#g5" x="7105"/><use href="#g2" x="7420"/></g>
</svg>
