<svg xmlns="http://www.w3.org/2000/svg" viewBox="0 0 960 132" role="img" aria-labelledby="title">
  <title id="title">VibeSkills</title>
  <metadata>Lettering derived from Bodoni Moda, licensed under SIL Open Font License 1.1.</metadata>
  <path d="M1494.8743836686317 1500V1496H1315.4749941394325L766.3146278569521 -30H701.5605189001808L171.8804883766407 1496H31.560518900180764V1500H701.1519723089682V1496H481.47194178542816L874.3932848211902 286.2359708927141L1310.1149330923524 1496H1055.5544141921716V1500Z" fill="#E7E0D3" transform="translate(194.432 108.000) scale(0.058000 -0.058000)"/>
  <path d="M308.85227006337846 1216.006104708009Q245.59908429379868 1216.006104708009 201.2999236911499 1260.442957441457Q157.00076308850115 1304.8798101749053 157.00076308850115 1367.8576116828865Q157.00076308850115 1432.4016787947025 201.2999236911499 1476.2008393973513Q245.59908429379868 1520 308.85227006337846 1520Q373.3963371751946 1520 417.19549777784334 1476.2008393973513Q460.9946583804921 1432.4016787947025 460.9946583804921 1367.8576116828865Q460.9946583804921 1304.6044259133066 417.19549777784334 1260.305265310658Q373.3963371751946 1216.006104708009 308.85227006337846 1216.006104708009ZM430.3146278569521 920V4H556.7140173861512V0H59.921343035761986V4H186.3207325649611V916H59.921343035761986V920Z" fill="#E7E0D3" transform="translate(283.882 108.000) scale(0.058000 -0.058000)"/>
  <path d="M732.9946583804921 -20Q597.3547194275721 -20 517.1746889040321 80.68003052354004Q436.9946583804921 181.36006104708008 420.3146278569521 365.36006104708014V0H49.921343035761986V4H177.00076308850115V1496H49.921343035761986V1500H420.3146278569521V554.9599084293799Q436.9946583804921 739.31996947646 516.8547194275721 838.6599847382299Q596.7147804746522 938 732.9946583804921 938Q841.9946583804921 938 938.994658380492 881.0Q1035.994658380492 824 1096.494658380492 717.0Q1156.994658380492 610 1156.994658380492 460Q1156.994658380492 310 1096.494658380492 202.5Q1035.994658380492 95 938.994658380492 37.5Q841.9946583804921 -20 732.9946583804921 -20ZM683.1164592693548 -0.24054942372080962Q751.117985446357 -0.24054942372080962 793.5990842937986 56.25983212052976Q836.0801831412402 112.76021366478032 856.3407783502712 216.1804120677906Q876.601373559302 319.60061047080086 876.601373559302 460Q876.601373559302 600.3993895291991 856.3407783502712 703.3195879322094Q836.0801831412402 806.2397863352197 793.5990842937986 862.2401678794703Q751.117985446357 918.2405494237208 683.1164592693548 918.2405494237208Q614.0756046102335 918.2405494237208 554.075223065983 867.6804120677906Q494.07484152173237 817.1202747118604 457.1947346893422 715.5601373559302Q420.3146278569521 614 420.3146278569521 460Q420.3146278569521 306 457.1947346893422 203.9398626440698Q494.07484152173237 101.87972528813958 554.075223065983 50.81958793220939Q614.0756046102335 -0.24054942372080962 683.1164592693548 -0.24054942372080962Z" fill="#E7E0D3" transform="translate(320.088 108.000) scale(0.058000 -0.058000)"/>
  <path d="M562.5998473822997 -20Q425.20045785310066 -20 316.18079361204116 36.22012209416018Q207.16112937098166 92.44024418832036 143.88125146514184 199.62027471186042Q80.60137355930203 306.80030523540046 80.60137355930203 460Q80.60137355930203 613.1996947645996 142.38125146514187 720.3797252881396Q204.16112937098168 827.5597558116797 311.68079361204116 883.7798779058398Q419.20045785310066 940 556.5998473822998 940Q705.5998473822998 940 800.5994658380491 880.5Q895.5990842937986 821 941.098702749548 725.0Q986.5983212052975 629 986.5983212052975 520H214.60137355930203V524H720.2035102071052Q720.5635712541854 587.7995421468994 715.1634186364851 658.9394810998192Q709.7632660187847 730.0794200527391 693.4228692127642 793.2995421468993Q677.0824724067436 856.5196642410596 644.2617398417826 896.2598321205298Q611.4410072768216 936 556.5998473822998 936Q496.9984738229977 936 457.77758864033643 896.4198168587598Q418.55670345767516 856.8396337175195 395.8361998192644 789.8993895291992Q373.1156961808536 722.9591453408788 363.85548251607327 640.8789621996384Q354.595268851293 558.7987790583982 354.595268851293 472.7987790583982Q354.595268851293 380.4394810998192 364.81539094545315 293.69969476459954Q375.03551303961336 206.95990842937988 401.6557877514738 138.93986264406982Q428.27606246333414 70.91981685875973 475.9765203164348 30.69969476459955Q523.6769781695355 -9.520427329560631 598.3176802109565 -9.520427329560631Q746.6384127759177 -9.520427329560631 847.1183669906076 75.75983212052975Q947.5983212052975 161.04009157062012 984.5983212052975 286H988.5983212052976Q949.5983212052976 156 844.3986264406981 68.0Q739.1989316760985 -20 562.5998473822997 -20Z" fill="#E7E0D3" transform="translate(392.776 108.000) scale(0.058000 -0.058000)"/>
  <path d="M601.0378023051168 -30Q480.1164592693548 -30 394.055940369174 8.800305235400447Q307.99542146899324 47.600610470800895 248.99542146899327 113.52119041806175L89.44024418832035 -20H85.44024418832036V428.3963371751946H90.08018314124028Q114.7594505762792 339.07636769873466 154.5589927231785 257.65693238422546Q194.35853487007782 176.2374970697163 254.0582296346774 112.55822963467739Q313.75792439927693 48.878962199638465 396.49771073449665 12.119511623359278Q479.23749706971637 -24.63993895291991 590.157313928476 -24.63993895291991Q689.7579243992769 -24.63993895291991 762.7185959171579 14.159984738229978Q835.6792674350389 52.959908429379865 875.5597558116797 123.78025945009037Q915.4402441883204 194.6006104708009 915.4402441883204 290.8018314124027Q915.4402441883204 374.64222821842327 871.4402441883204 431.8025945009038Q827.4402441883204 488.96296078338435 755.4402441883204 530.7632660187849Q683.4402441883204 572.5635712541853 596.9402441883204 609.6437543954255Q510.4402441883204 646.7239375366659 423.9402441883204 688.5639527984358Q337.4402441883204 730.4039680602059 265.4402441883204 787.9837696571956Q193.44024418832035 845.5635712541853 149.44024418832035 928.5230981393146Q105.44024418832035 1011.4826250244439 105.44024418832035 1130.8018314124026Q105.44024418832035 1250.4009157062012 166.29992369114987 1337.9005341619509Q227.1596031939794 1425.4001526177003 325.7991606026488 1472.7000763088502Q424.43871801131814 1520 538.6384127759177 1520Q633.5990842937986 1520 711.2794963615893 1489.9198168587598Q788.9599084293799 1459.8396337175195 846.9599084293799 1398.2390232467185L1002.6353604219131 1520H1006.635360421913V1084.4024418832037H1001.9954214689932Q969.196642410595 1223.7224113596637 907.0971765725458 1319.4417703653226Q844.9977107344966 1415.1611293709816 755.4780464934371 1464.2205036384107Q665.9583822523775 1513.2798779058396 552.2390232467186 1513.2798779058396Q422.63764968741657 1513.2798779058396 356.4368102900653 1442.7397863352196Q290.235970892714 1372.1996947645996 290.235970892714 1262.7987790583982Q290.235970892714 1187.9583822523775 333.555940369174 1135.3381075405173Q376.87590984563394 1082.7178328286568 447.51584879855386 1042.1376496874166Q518.1557877514738 1001.5574665461763 603.2957267043937 963.8573902373262Q688.4356656573136 926.1573139284761 773.5756046102335 881.4973291902461Q858.7155435631533 836.837344452016 929.3554825160733 775.8774360226362Q999.9954214689932 714.9175275932563 1043.3153909454531 628.4977107344966Q1086.6353604219132 542.0778938757369 1086.6353604219132 419.1981685875973Q1086.6353604219132 282.7987790583982 1024.235970892714 181.97919112618882Q961.8365813635149 81.15960319397941 851.9371918343159 25.579801596989704Q742.0378023051168 -30 601.0378023051168 -30Z" fill="#E7E0D3" transform="translate(455.314 108.000) scale(0.058000 -0.058000)"/>
  <path d="M49.921343035761986 0V4H217.00076308850115V1496H49.921343035761986V1500H460.3146278569521V4H581.1164592693548V0ZM694.1989316760985 0V4H829.7201220941602L419.3971002636957 528.3993895291991L943.6746889040321 916H705.5158487985539V920H1124.314627856952V916H948.9946583804921L606.0725522562291 657.3570086930756L1133.1928269680893 4H1212.1928269680895V0Z" fill="#E7E0D3" transform="translate(523.884 108.000) scale(0.058000 -0.058000)"/>
  <path d="M308.85227006337846 1216.006104708009Q245.59908429379868 1216.006104708009 201.2999236911499 1260.442957441457Q157.00076308850115 1304.8798101749053 157.00076308850115 1367.8576116828865Q157.00076308850115 1432.4016787947025 201.2999236911499 1476.2008393973513Q245.59908429379868 1520 308.85227006337846 1520Q373.3963371751946 1520 417.19549777784334 1476.2008393973513Q460.9946583804921 1432.4016787947025 460.9946583804921 1367.8576116828865Q460.9946583804921 1304.6044259133066 417.19549777784334 1260.305265310658Q373.3963371751946 1216.006104708009 308.85227006337846 1216.006104708009ZM430.3146278569521 920V4H556.7140173861512V0H59.921343035761986V4H186.3207325649611V916H59.921343035761986V920Z" fill="#E7E0D3" transform="translate(596.862 108.000) scale(0.058000 -0.058000)"/>
  <path d="M460.3146278569521 1500V4H626.7140173861511V0H49.921343035761986V4H217.00076308850115V1496H49.921343035761986V1500Z" fill="#E7E0D3" transform="translate(633.068 108.000) scale(0.058000 -0.058000)"/>
  <path d="M460.3146278569521 1500V4H626.7140173861511V0H49.921343035761986V4H217.00076308850115V1496H49.921343035761986V1500Z" fill="#E7E0D3" transform="translate(673.276 108.000) scale(0.058000 -0.058000)"/>
  <path d="M93.12103780036153 -20V279.1981685875973H97.12103780036153Q113.51966424105949 192.99923691149885 166.37934374388902 126.49961845574943Q219.23902324671855 59.99999999999999 297.23902324671855 22.68003052354004Q375.23902324671855 -14.63993895291991 466.7185959171579 -14.63993895291991Q529.9182906817574 -14.63993895291991 582.098702749548 3.520045785310068Q634.2791148173387 21.680030523540047 665.4996184557494 59.18041206779061Q696.7201220941602 96.68079361204117 696.7201220941602 154.882014553643Q696.7201220941602 214.08247240674365 654.7602136647804 247.84268607152399Q612.8003052354005 281.6028997363043 546.3604425913306 304.10289973630427Q479.9205799472609 326.60289973630427 405.3207325649611 349.5427623803741Q330.72088518266133 372.4826250244439 264.2810225385915 407.5423808361235Q197.84115989452172 442.60213664780315 155.88125146514184 501.8018314124027Q113.92134303576198 561.0015261770022 113.92134303576198 657.2012209416018Q113.92134303576198 730.8003052354005 149.2208851826613 794.7000763088502Q184.52042732956065 858.5998473822998 251.31996947645996 898.2999236911498Q318.1195116233593 938 413.1195116233593 938Q484.83963371751946 938 543.0798015969897 914.6399389529199Q601.31996947646 891.2798779058398 644.31996947646 853.5597558116797L755.117985446357 940H759.117985446357V660H755.117985446357Q738.1596031939794 729.1596031939795 692.7999236911498 791.8396337175195Q647.4402441883204 854.5196642410596 577.1599847382299 894.2598321205298Q506.8797252881395 934 414.4795726704394 934Q356.4795726704394 934 313.3392521732689 916.81996947646Q270.1989316760984 899.6399389529199 246.05861117892795 868.1996947645996Q221.91829068175747 836.7594505762792 221.91829068175747 794.7987790583982Q221.91829068175747 737.9984738229978 265.8982448964474 703.5983212052975Q309.8781991111373 669.1981685875973 379.0181380640572 644.6781228022872Q448.1580770169772 620.1580770169772 525.4580007081271 595.6981685875974Q602.7579243992769 571.2382601582175 671.8978633521969 534.9784280376878Q741.0378023051168 498.7185959171579 785.0177565198067 440.65884010547825Q828.9977107344965 382.5990842937986 828.9977107344965 290.39938952919914Q828.9977107344965 191.80030523540046 779.5181380640572 122.50038154425057Q730.0385653936179 53.20045785310068 649.0189011525583 16.60022892655034Q567.9992369114989 -20 474.1989316760984 -20Q396.27911481733867 -20 329.27911481733867 5.159984738229978Q262.27911481733867 30.319969476459956 210.99923691149888 74.91981685875973L97.12103780036153 -20Z" fill="#E7E0D3" transform="translate(713.484 108.000) scale(0.058000 -0.058000)"/>
</svg>
