<svg xmlns="http://www.w3.org/2000/svg" viewBox="0 0 960 172" role="img" aria-labelledby="title">
  <title id="title">VibeSkills</title>
  <metadata>Lettering derived from Cormorant Garamond SemiBold, licensed under SIL Open Font License 1.1.</metadata>
  <path d="M666.10009765625 625Q669.10009765625 625 669.10009765625 619.0Q669.10009765625 613 666.10009765625 613Q630.42021484375 613 599.900390625 585.18037109375Q569.38056640625 557.3607421875 549.82060546875 505.78095703125L357.119921875 1Q356.119921875 -3 346.619921875 -3.0Q337.119921875 -3 335.119921875 1L81.880078125 542Q64.880078125 577.880078125 46.660058593749994 595.4400390625Q28.4400390625 613 3.4598632812500005 613Q0.45986328125000053 613 0.45986328125000053 619.0Q0.45986328125000053 625 3.4598632812500005 625Q15.89990234375 625 24.16005859375 624.0Q32.42021484375 623 44.5802734375 622.5Q56.74033203125 622 79.10009765625 622Q128.05947265625 622 159.7591796875 622.5Q191.45888671875 623 212.248779296875 624.0Q233.038671875 625 248.81865234375 625Q251.81865234375 625 251.81865234375 619.0Q251.81865234375 613 248.81865234375 613Q206.91875 613 192.4787109375 591.530224609375Q178.038671875 570.06044921875 196.5986328125 530.160546875L387.839453125 118.61845703125L345.23984375 46.5193359375L523.3607421875 509.441015625Q540.4806640625 555.3607421875 525.090673828125 584.18037109375Q509.70068359375 613 459.160546875 613Q456.160546875 613 456.160546875 619.0Q456.160546875 625 459.160546875 625Q486.8404296875 625 511.850341796875 623.5Q536.86025390625 622 577.880078125 622Q606.10009765625 622 623.60009765625 623.5Q641.10009765625 625 666.10009765625 625Z" fill="#123F47" transform="translate(218.706 118.000) scale(0.132000 -0.132000)"/>
  <path d="M42.9603515625 0Q40.18037109375 0 40.18037109375 6.0Q40.18037109375 12 42.9603515625 12Q76.160546875 12 87.490576171875 26.169970703125Q98.82060546875 40.33994140625 98.82060546875 81V262.2001953125Q98.82060546875 295.86025390625 92.210595703125 311.5802734375Q85.6005859375 327.30029296875 68.160546875 327.30029296875Q60.7205078125 327.30029296875 50.78046875 324.190283203125Q40.8404296875 321.0802734375 28.74033203125 315.42021484375Q24.74033203125 314.42021484375 22.24033203125 320.310205078125Q19.74033203125 326.2001953125 22.9603515625 327.42021484375L168.01982421875 394.77998046875Q170.23984375 395.77998046875 171.23984375 395.77998046875Q175.57978515625 395.77998046875 180.029736328125 391.4400390625Q184.4796875 387.10009765625 184.4796875 383.3201171875Q184.4796875 372.42021484375 183.4796875 343.650146484375Q182.4796875 314.880078125 182.4796875 263.98017578125V81Q182.4796875 40.33994140625 193.9796875 26.169970703125Q205.4796875 12 238.89990234375 12Q241.89990234375 12 241.89990234375 6.0Q241.89990234375 0 238.89990234375 0Q219.5599609375 0 194.22001953125 1.0Q168.880078125 2 140.54013671875 2Q113.2001953125 2 87.86025390625 1.0Q62.5203125 0 42.9603515625 0ZM135.66005859375 499.62041015625Q109.640234375 499.62041015625 94.4603515625 514.30029296875Q79.28046875 528.98017578125 79.28046875 555.5599609375Q79.28046875 579.7998046875 94.4603515625 594.089697265625Q109.640234375 608.37958984375 135.66005859375 608.37958984375Q161.45986328125 608.37958984375 175.359765625 594.089697265625Q189.25966796875 579.7998046875 189.25966796875 555.5599609375Q189.25966796875 499.62041015625 135.66005859375 499.62041015625Z" fill="#123F47" transform="translate(302.130 118.000) scale(0.132000 -0.132000)"/>
  <path d="M263.81962890625 -13Q221.9197265625 -13 181.7998046875 1.7299316406250007Q141.6798828125 16.45986328125 108.01982421875 46.45986328125L167.3994140625 155.7591796875Q167.3994140625 100.2794921875 188.169482421875 67.25966796875Q208.93955078125 34.23984375 237.929638671875 20.509912109374998Q266.9197265625 6.77998046875 289.7998046875 6.77998046875Q337.76015625 6.77998046875 363.010400390625 51.0Q388.26064453125 95.22001953125 388.26064453125 175.76015625Q388.26064453125 266.42021484375 356.50048828125 308.9603515625Q324.74033203125 351.50048828125 273.2001953125 351.50048828125Q239.33994140625 351.50048828125 209.469775390625 335.090185546875Q179.599609375 318.6798828125 154.61943359375 296.71953125L145.839453125 304.49951171875Q166.839453125 326.1595703125 191.10952148437502 347.9796875Q215.37958984375 369.7998046875 246.36967773437502 384.39990234375Q277.359765625 399 316.45986328125 399Q360.01982421875 399 397.189794921875 378.5Q434.359765625 358 457.63974609375 317.0Q480.9197265625 276 480.9197265625 213.22001953125Q480.9197265625 138 449.19970703125 87.5Q417.4796875 37 368.0396484375 12.0Q318.599609375 -13 263.81962890625 -13ZM37.3201171875 -6.33994140625Q33.3201171875 -7.33994140625 31.320117187500003 -2.949951171875Q29.3201171875 1.4400390625 33.10009765625 2.880078125Q57.640234375 18.42021484375 71.0802734375 40.710107421875Q84.5203125 63 84.5203125 103V591.2001953125Q84.5203125 625.640234375 77.910302734375 641.3602539062499Q71.30029296875 657.0802734375 53.86025390625 657.0802734375Q39.98017578125 657.0802734375 14.4400390625 645.42021484375Q10.4400390625 644.2001953125 8.050048828125 650.2001953125Q5.66005859375 656.2001953125 8.10009765625 657.2001953125L148.37958984375 724Q151.37958984375 725 153.37958984375 725Q157.71953125 725 162.55947265625 721.050048828125Q167.3994140625 717.10009765625 167.3994140625 713.3201171875V53.359765625Z" fill="#123F47" transform="translate(337.242 118.000) scale(0.132000 -0.132000)"/>
  <path d="M230.599609375 -12Q166.9197265625 -12 122.73984374999999 15.110009765625001Q78.5599609375 42.22001953125 55.830029296875 86.610009765625Q33.10009765625 131 33.10009765625 181.5599609375Q33.10009765625 241 61.880078125 289.110009765625Q90.66005859375 337.22001953125 140.88999023437498 366.110009765625Q191.119921875 395 254.9197265625 395Q313.4796875 395 347.329541015625 367.119921875Q381.17939453125 339.23984375 381.17939453125 280.22001953125Q381.17939453125 267.22001953125 379.06938476562505 258.880078125Q376.959375 250.54013671875 369.959375 250.54013671875H284.74033203125Q287.400390625 308.640234375 271.870166015625 341.8201171875Q256.33994140625 375 218.23984375 375Q174.71953125 375 149.569384765625 333.669970703125Q124.41923828125 292.33994140625 124.41923828125 223.01982421875Q124.41923828125 165.45986328125 142.41923828125 122.909814453125Q160.41923828125 80.359765625 195.41923828125 56.809716796874994Q230.41923828125 33.25966796875 281.19921875 33.25966796875Q312.29931640625 33.25966796875 333.23935546875 41.4197265625Q354.17939453125 49.57978515625 378.29931640625 62.57978515625Q380.29931640625 64.57978515625 383.79931640625 60.469775390625Q387.29931640625 56.359765625 385.29931640625 53.359765625Q348.73935546875 17.89990234375 310.8994140625 2.949951171875Q273.05947265625 -12 230.599609375 -12ZM94.25966796875 249.54013671875 93.25966796875 267 314.23984375 271V250.54013671875Z" fill="#123F47" transform="translate(405.090 118.000) scale(0.132000 -0.132000)"/>
  <path d="M166.079296875 519.599609375Q166.079296875 480.71953125 185.79931640625 451.99951171875Q205.5193359375 423.2794921875 237.23935546875 400.49951171875Q268.959375 377.71953125 304.17939453125 355.1595703125Q341.959375 331.81962890625 376.349365234375 305.97968749999995Q410.73935546875 280.13974609375 433.23935546875 246.07978515624998Q455.73935546875 212.01982421875 455.73935546875 164.01982421875Q455.73935546875 112.5599609375 428.55947265625 72.889990234375Q401.37958984375 33.22001953125 353.649658203125 10.610009765625001Q305.9197265625 -12 242.599609375 -12Q214.359765625 -12 184.27998046875 -6.66005859375Q154.2001953125 -1.3201171874999993 128.5802734375 7.349853515625Q102.9603515625 16.01982421875 87.880078125 26.6798828125Q83.66005859375 29.6798828125 80.990087890625 33.39990234375Q78.3201171875 37.119921875 78.10009765625 45.6798828125L72.45986328125 198.29931640625Q71.45986328125 203.29931640625 76.95986328125 203.79931640625Q82.45986328125 204.29931640625 83.45986328125 200.29931640625Q96.0396484375 169.5193359375 112.71953125 136.009423828125Q129.3994140625 102.49951171875 151.459375 74.37958984375Q173.5193359375 46.25966796875 202.069384765625 28.419726562500003Q230.61943359375 10.57978515625 267.71953125 10.57978515625Q292.4796875 10.57978515625 315.23984375 19.349853515625Q338 28.119921875 352.60009765625 50.22001953125Q367.2001953125 72.3201171875 367.2001953125 111.0802734375Q367.2001953125 158.5203125 346.090185546875 191.80029296875Q324.98017578125 225.0802734375 291.98017578125 250.140234375Q258.98017578125 275.2001953125 222.76015625 297.76015625Q187.76015625 320.3201171875 155.54013671875 344.490087890625Q123.3201171875 368.66005859375 103.210107421875 400.16005859375Q83.10009765625 431.66005859375 83.10009765625 476.3201171875Q83.10009765625 531.4400390625 113.389990234375 566.72001953125Q143.6798828125 602 190.63974609375 619.0Q237.599609375 636 286.49951171875 636Q320.29931640625 636 354.649169921875 629.72001953125Q388.9990234375 623.4400390625 412.19921875 613.5599609375Q421.7591796875 609.77998046875 424.47919921875 604.889990234375Q427.19921875 600 427.19921875 594.22001953125L429.17939453125 456.2408203125Q429.17939453125 453.02080078125 424.459375 451.850830078125Q419.73935546875 450.680859375 417.959375 453.90087890625Q412.839453125 468.10107421875 402.389501953125 494.72099609375Q391.93955078125 521.34091796875 374.269580078125 549.14072265625Q356.599609375 576.94052734375 329.149658203125 596.4603515624999Q301.69970703125 615.98017578125 262.57978515625 615.98017578125Q233.61943359375 615.98017578125 212.0193359375 604.22001953125Q190.41923828125 592.45986328125 178.249267578125 571.309716796875Q166.079296875 550.1595703125 166.079296875 519.599609375Z" fill="#123F47" transform="translate(459.870 118.000) scale(0.132000 -0.132000)"/>
  <path d="M22.3201171875 0Q20.10009765625 0 20.10009765625 6.0Q20.10009765625 12 22.3201171875 12Q55.5203125 12 67.13032226562501 26.169970703125Q78.74033203125 40.33994140625 78.74033203125 81V591.42021484375Q78.74033203125 625.86025390625 72.5203125 641.5802734375Q66.30029296875 657.30029296875 49.0802734375 657.30029296875Q34.640234375 657.30029296875 8.880078125 645.42021484375Q5.66005859375 644.2001953125 2.7700683593749997 650.2001953125Q-0.11992187500000018 656.2001953125 2.3201171874999993 657.2001953125L142.599609375 724Q145.599609375 725 147.599609375 725Q151.93955078125 725 156.7794921875 721.050048828125Q161.61943359375 717.10009765625 161.61943359375 713.3201171875V81Q161.61943359375 40.33994140625 173.229443359375 26.169970703125Q184.839453125 12 218.25966796875 12Q221.81962890625 12 221.81962890625 6.0Q221.81962890625 0 218.25966796875 0Q198.69970703125 0 173.859765625 1.0Q149.01982421875 2 120.6798828125 2Q92.5599609375 2 67.110009765625 1.0Q41.66005859375 0 22.3201171875 0ZM274.10009765625 0Q271.3201171875 0 271.3201171875 6.0Q271.3201171875 12 274.10009765625 12Q303.5203125 12 311.400390625 23.33994140625Q319.28046875 34.6798828125 305.62041015625 53L183.0802734375 212.8404296875L245.13974609375 260L382.49951171875 81Q411.05947265625 43.5599609375 438.329541015625 27.77998046875Q465.599609375 12 493.25966796875 12Q496.0396484375 12 496.0396484375 6.0Q496.0396484375 0 493.25966796875 0Q473.69970703125 0 448.469775390625 1.0Q423.23984375 2 394.89990234375 2Q355.5599609375 2 326.72001953125005 1.0Q297.880078125 0 274.10009765625 0ZM130.6798828125 154.06044921875 125.119921875 168.74033203125 266.06044921875 297.86025390625Q296.920703125 325.18037109375 293.1005859375 349.590185546875Q289.28046875 374 250.3201171875 374Q248.10009765625 374 248.10009765625 380.0Q248.10009765625 386 250.3201171875 386Q275.880078125 386 301.830029296875 385.0Q327.77998046875 384 371.6798828125 384Q411.7998046875 384 435.749755859375 385.0Q459.69970703125 386 481.25966796875 386Q484.0396484375 386 484.0396484375 380.0Q484.0396484375 374 481.25966796875 374Q456.69970703125 374 423.95986328125 365.830029296875Q391.22001953125 357.66005859375 356.76015625 339.82011718750005Q322.30029296875 321.98017578125 290.30029296875 293.30029296875Z" fill="#123F47" transform="translate(526.926 118.000) scale(0.132000 -0.132000)"/>
  <path d="M42.9603515625 0Q40.18037109375 0 40.18037109375 6.0Q40.18037109375 12 42.9603515625 12Q76.160546875 12 87.490576171875 26.169970703125Q98.82060546875 40.33994140625 98.82060546875 81V262.2001953125Q98.82060546875 295.86025390625 92.210595703125 311.5802734375Q85.6005859375 327.30029296875 68.160546875 327.30029296875Q60.7205078125 327.30029296875 50.78046875 324.190283203125Q40.8404296875 321.0802734375 28.74033203125 315.42021484375Q24.74033203125 314.42021484375 22.24033203125 320.310205078125Q19.74033203125 326.2001953125 22.9603515625 327.42021484375L168.01982421875 394.77998046875Q170.23984375 395.77998046875 171.23984375 395.77998046875Q175.57978515625 395.77998046875 180.029736328125 391.4400390625Q184.4796875 387.10009765625 184.4796875 383.3201171875Q184.4796875 372.42021484375 183.4796875 343.650146484375Q182.4796875 314.880078125 182.4796875 263.98017578125V81Q182.4796875 40.33994140625 193.9796875 26.169970703125Q205.4796875 12 238.89990234375 12Q241.89990234375 12 241.89990234375 6.0Q241.89990234375 0 238.89990234375 0Q219.5599609375 0 194.22001953125 1.0Q168.880078125 2 140.54013671875 2Q113.2001953125 2 87.86025390625 1.0Q62.5203125 0 42.9603515625 0ZM135.66005859375 499.62041015625Q109.640234375 499.62041015625 94.4603515625 514.30029296875Q79.28046875 528.98017578125 79.28046875 555.5599609375Q79.28046875 579.7998046875 94.4603515625 594.089697265625Q109.640234375 608.37958984375 135.66005859375 608.37958984375Q161.45986328125 608.37958984375 175.359765625 594.089697265625Q189.25966796875 579.7998046875 189.25966796875 555.5599609375Q189.25966796875 499.62041015625 135.66005859375 499.62041015625Z" fill="#123F47" transform="translate(591.738 118.000) scale(0.132000 -0.132000)"/>
  <path d="M36.3201171875 0Q34.10009765625 0 34.10009765625 6.0Q34.10009765625 12 36.3201171875 12Q69.5203125 12 81.13032226562501 26.169970703125Q92.74033203125 40.33994140625 92.74033203125 81L93.5203125 591.42021484375Q93.5203125 625.86025390625 87.30029296875 641.5802734375Q81.0802734375 657.30029296875 63.86025390625 657.30029296875Q50.2001953125 657.30029296875 23.66005859375 645.42021484375Q20.4400390625 644.2001953125 17.550048828125 650.2001953125Q14.66005859375 656.2001953125 17.10009765625 657.2001953125L158.81962890625 724Q160.81962890625 725 163.0396484375 725Q167.37958984375 725 172.60952148437502 721.050048828125Q177.839453125 717.10009765625 177.839453125 713.3201171875V81Q177.839453125 40.5599609375 188.949462890625 26.27998046875Q200.05947265625 12 233.4796875 12Q237.25966796875 12 237.25966796875 6.0Q237.25966796875 0 233.4796875 0Q214.9197265625 0 189.07978515625 1.0Q163.23984375 2 134.89990234375 2Q106.77998046875 2 81.22001953125 1.0Q55.66005859375 0 36.3201171875 0Z" fill="#123F47" transform="translate(626.850 118.000) scale(0.132000 -0.132000)"/>
  <path d="M36.3201171875 0Q34.10009765625 0 34.10009765625 6.0Q34.10009765625 12 36.3201171875 12Q69.5203125 12 81.13032226562501 26.169970703125Q92.74033203125 40.33994140625 92.74033203125 81L93.5203125 591.42021484375Q93.5203125 625.86025390625 87.30029296875 641.5802734375Q81.0802734375 657.30029296875 63.86025390625 657.30029296875Q50.2001953125 657.30029296875 23.66005859375 645.42021484375Q20.4400390625 644.2001953125 17.550048828125 650.2001953125Q14.66005859375 656.2001953125 17.10009765625 657.2001953125L158.81962890625 724Q160.81962890625 725 163.0396484375 725Q167.37958984375 725 172.60952148437502 721.050048828125Q177.839453125 717.10009765625 177.839453125 713.3201171875V81Q177.839453125 40.5599609375 188.949462890625 26.27998046875Q200.05947265625 12 233.4796875 12Q237.25966796875 12 237.25966796875 6.0Q237.25966796875 0 233.4796875 0Q214.9197265625 0 189.07978515625 1.0Q163.23984375 2 134.89990234375 2Q106.77998046875 2 81.22001953125 1.0Q55.66005859375 0 36.3201171875 0Z" fill="#123F47" transform="translate(661.830 118.000) scale(0.132000 -0.132000)"/>
  <path d="M113.1595703125 334.4796875Q113.1595703125 312.1595703125 125.099609375 295.21953125000005Q137.0396484375 278.2794921875 155.80971679687502 264.99951171875Q174.57978515625 251.71953125 196.01982421875 238.93955078125Q221.23984375 225.37958984375 245.01982421875 210.099609375Q268.7998046875 194.81962890625 284.57978515625 173.25966796875Q300.359765625 151.69970703125 300.359765625 117.359765625Q300.359765625 85.359765625 283.96977539062505 55.629833984375Q267.57978515625 25.89990234375 234.90981445312502 7.449951171875Q202.23984375 -11 153.33994140625 -11Q128.5599609375 -11 104.0 -5.27998046875Q79.4400390625 0.4400390624999999 51.54013671875 16.880078125Q49.54013671875 18.880078125 47.54013671875 21.880078125Q45.54013671875 24.880078125 45.54013671875 28.880078125L43.54013671875 121.93955078125Q43.54013671875 124.93955078125 49.04013671875 125.43955078125Q54.54013671875 125.93955078125 55.54013671875 123.71953125Q66.98017578125 91.2794921875 86.430126953125 65.099609375Q105.880078125 38.9197265625 130.610009765625 23.849853515625Q155.33994140625 8.77998046875 181.5599609375 8.77998046875Q204.86025390625 8.77998046875 219.070361328125 22.16005859375Q233.28046875 35.54013671875 232.8404296875 63.0802734375Q232.62041015625 91.30029296875 219.79038085937498 109.690283203125Q206.9603515625 128.0802734375 187.5203125 141.250244140625Q168.0802734375 154.42021484375 147.42021484375 165.42021484375Q123.98017578125 178.2001953125 101.090185546875 192.090185546875Q78.2001953125 205.98017578125 63.310205078125 227.370166015625Q48.42021484375 248.76015625 48.42021484375 283.3201171875Q48.42021484375 324.4400390625 69.2001953125 349.33002929687495Q89.98017578125 374.22001953125 122.82011718749999 385.4400390625Q155.66005859375 396.66005859375 191 396.66005859375Q212.119921875 396.66005859375 230.509912109375 393.550048828125Q248.89990234375 390.4400390625 271.359765625 381.66005859375Q280.359765625 378.4400390625 280.359765625 370.66005859375Q280.359765625 351.76015625 279.359765625 331.250244140625Q278.359765625 310.74033203125 278.359765625 286.06044921875Q278.359765625 283.28046875 272.359765625 283.28046875Q266.359765625 283.28046875 266.359765625 286.06044921875Q266.359765625 305.94052734375 250.63974609375 326.8404296875Q234.9197265625 347.74033203125 210.249755859375 362.590185546875Q185.57978515625 377.4400390625 157.89990234375 377.4400390625Q141.0396484375 377.4400390625 127.099609375 368.89990234375Q113.1595703125 360.359765625 113.1595703125 334.4796875Z" fill="#123F47" transform="translate(696.810 118.000) scale(0.132000 -0.132000)"/>
  <path d="M248 146 C326 130 393 158 459 146" fill="none" stroke="#8F5667" stroke-linecap="round" stroke-width="1.5"/>
  <path d="M501 146 C567 134 634 160 712 146" fill="none" stroke="#8F5667" stroke-linecap="round" stroke-width="1.5"/>
  <path d="M480 139 L487 146 L480 153 L473 146 Z" fill="#A98342"/>
  <circle cx="459" cy="146" r="2.2" fill="#123F47"/>
  <circle cx="501" cy="146" r="2.2" fill="#123F47"/>
</svg>
