<svg xmlns="http://www.w3.org/2000/svg" viewBox="0 0 960 136" role="img" aria-labelledby="title">
  <title id="title">本地 Skills 如何参与任务</title>
  <metadata>Lettering derived from Noto Serif SC and Bodoni Moda, licensed under SIL Open Font License 1.1.</metadata>
  <path d="M42.81775333683253 0V24.65867075851346H262.75252166307246V1475.3413292414866H42.81775333683253V1500H789.0523839848793V1475.3413292414866H549.1129003189178V24.65867075851346H789.0523839848793V0Z" fill="#B49A64" transform="translate(464.788 21.000) scale(0.011000 -0.011000)"/>
  <path d="M42.81775333683253 0V24.65867075851346H262.75252166307246V1475.3413292414866H42.81775333683253V1500H789.0523839848793V1475.3413292414866H549.1129003189178V24.65867075851346H789.0523839848793V0Z" fill="#B49A64" transform="translate(475.430 21.000) scale(0.011000 -0.011000)"/>
  <path d="M42.81775333683253 0V24.65867075851346H262.75252166307246V1475.3413292414866H42.81775333683253V1500H789.0523839848793V1475.3413292414866H549.1129003189178V24.65867075851346H789.0523839848793V0Z" fill="#B49A64" transform="translate(486.070 21.000) scale(0.011000 -0.011000)"/>
  <path d="M135 34 H420" fill="none" stroke="#8B8A83" stroke-width="0.75"/>
  <path d="M135.00 34.00 L137.97 35.19 L140.94 36.19 L143.91 36.86 L146.88 37.10 L149.84 36.86 L152.81 36.19 L155.78 35.19 L158.75 34.00 L161.72 32.81 L164.69 31.81 L167.66 31.14 L170.62 30.90 L173.59 31.14 L176.56 31.81 L179.53 32.81 L182.50 34.00 L185.47 35.19 L188.44 36.19 L191.41 36.86 L194.38 37.10 L197.34 36.86 L200.31 36.19 L203.28 35.19 L206.25 34.00 L209.22 32.81 L212.19 31.81 L215.16 31.14 L218.12 30.90 L221.09 31.14 L224.06 31.81 L227.03 32.81 L230.00 34.00 L232.97 35.19 L235.94 36.19 L238.91 36.86 L241.88 37.10 L244.84 36.86 L247.81 36.19 L250.78 35.19 L253.75 34.00 L256.72 32.81 L259.69 31.81 L262.66 31.14 L265.62 30.90 L268.59 31.14 L271.56 31.81 L274.53 32.81 L277.50 34.00 L280.47 35.19 L283.44 36.19 L286.41 36.86 L289.38 37.10 L292.34 36.86 L295.31 36.19 L298.28 35.19 L301.25 34.00 L304.22 32.81 L307.19 31.81 L310.16 31.14 L313.12 30.90 L316.09 31.14 L319.06 31.81 L322.03 32.81 L325.00 34.00 L327.97 35.19 L330.94 36.19 L333.91 36.86 L336.88 37.10 L339.84 36.86 L342.81 36.19 L345.78 35.19 L348.75 34.00 L351.72 32.81 L354.69 31.81 L357.66 31.14 L360.62 30.90 L363.59 31.14 L366.56 31.81 L369.53 32.81 L372.50 34.00 L375.47 35.19 L378.44 36.19 L381.41 36.86 L384.38 37.10 L387.34 36.86 L390.31 36.19 L393.28 35.19 L396.25 34.00 L399.22 32.81 L402.19 31.81 L405.16 31.14 L408.12 30.90 L411.09 31.14 L414.06 31.81 L417.03 32.81 L420.00 34.00" fill="none" stroke="#B49A64" stroke-opacity="0.86" stroke-width="0.72"/>
  <path d="M135.00 34.00 L137.97 32.81 L140.94 31.81 L143.91 31.14 L146.88 30.90 L149.84 31.14 L152.81 31.81 L155.78 32.81 L158.75 34.00 L161.72 35.19 L164.69 36.19 L167.66 36.86 L170.62 37.10 L173.59 36.86 L176.56 36.19 L179.53 35.19 L182.50 34.00 L185.47 32.81 L188.44 31.81 L191.41 31.14 L194.38 30.90 L197.34 31.14 L200.31 31.81 L203.28 32.81 L206.25 34.00 L209.22 35.19 L212.19 36.19 L215.16 36.86 L218.12 37.10 L221.09 36.86 L224.06 36.19 L227.03 35.19 L230.00 34.00 L232.97 32.81 L235.94 31.81 L238.91 31.14 L241.88 30.90 L244.84 31.14 L247.81 31.81 L250.78 32.81 L253.75 34.00 L256.72 35.19 L259.69 36.19 L262.66 36.86 L265.62 37.10 L268.59 36.86 L271.56 36.19 L274.53 35.19 L277.50 34.00 L280.47 32.81 L283.44 31.81 L286.41 31.14 L289.38 30.90 L292.34 31.14 L295.31 31.81 L298.28 32.81 L301.25 34.00 L304.22 35.19 L307.19 36.19 L310.16 36.86 L313.12 37.10 L316.09 36.86 L319.06 36.19 L322.03 35.19 L325.00 34.00 L327.97 32.81 L330.94 31.81 L333.91 31.14 L336.88 30.90 L339.84 31.14 L342.81 31.81 L345.78 32.81 L348.75 34.00 L351.72 35.19 L354.69 36.19 L357.66 36.86 L360.62 37.10 L363.59 36.86 L366.56 36.19 L369.53 35.19 L372.50 34.00 L375.47 32.81 L378.44 31.81 L381.41 31.14 L384.38 30.90 L387.34 31.14 L390.31 31.81 L393.28 32.81 L396.25 34.00 L399.22 35.19 L402.19 36.19 L405.16 36.86 L408.12 37.10 L411.09 36.86 L414.06 36.19 L417.03 35.19 L420.00 34.00" fill="none" stroke="#82545C" stroke-opacity="0.72" stroke-width="0.62"/>
  <path d="M163 40 H392" fill="none" stroke="#8B8A83" stroke-opacity="0.58" stroke-width="0.55"/>
  <path d="M540 34 H825" fill="none" stroke="#8B8A83" stroke-width="0.75"/>
  <path d="M540.00 34.00 L542.97 35.19 L545.94 36.19 L548.91 36.86 L551.88 37.10 L554.84 36.86 L557.81 36.19 L560.78 35.19 L563.75 34.00 L566.72 32.81 L569.69 31.81 L572.66 31.14 L575.62 30.90 L578.59 31.14 L581.56 31.81 L584.53 32.81 L587.50 34.00 L590.47 35.19 L593.44 36.19 L596.41 36.86 L599.38 37.10 L602.34 36.86 L605.31 36.19 L608.28 35.19 L611.25 34.00 L614.22 32.81 L617.19 31.81 L620.16 31.14 L623.12 30.90 L626.09 31.14 L629.06 31.81 L632.03 32.81 L635.00 34.00 L637.97 35.19 L640.94 36.19 L643.91 36.86 L646.88 37.10 L649.84 36.86 L652.81 36.19 L655.78 35.19 L658.75 34.00 L661.72 32.81 L664.69 31.81 L667.66 31.14 L670.62 30.90 L673.59 31.14 L676.56 31.81 L679.53 32.81 L682.50 34.00 L685.47 35.19 L688.44 36.19 L691.41 36.86 L694.38 37.10 L697.34 36.86 L700.31 36.19 L703.28 35.19 L706.25 34.00 L709.22 32.81 L712.19 31.81 L715.16 31.14 L718.12 30.90 L721.09 31.14 L724.06 31.81 L727.03 32.81 L730.00 34.00 L732.97 35.19 L735.94 36.19 L738.91 36.86 L741.88 37.10 L744.84 36.86 L747.81 36.19 L750.78 35.19 L753.75 34.00 L756.72 32.81 L759.69 31.81 L762.66 31.14 L765.62 30.90 L768.59 31.14 L771.56 31.81 L774.53 32.81 L777.50 34.00 L780.47 35.19 L783.44 36.19 L786.41 36.86 L789.38 37.10 L792.34 36.86 L795.31 36.19 L798.28 35.19 L801.25 34.00 L804.22 32.81 L807.19 31.81 L810.16 31.14 L813.12 30.90 L816.09 31.14 L819.06 31.81 L822.03 32.81 L825.00 34.00" fill="none" stroke="#B49A64" stroke-opacity="0.86" stroke-width="0.72"/>
  <path d="M540.00 34.00 L542.97 32.81 L545.94 31.81 L548.91 31.14 L551.88 30.90 L554.84 31.14 L557.81 31.81 L560.78 32.81 L563.75 34.00 L566.72 35.19 L569.69 36.19 L572.66 36.86 L575.62 37.10 L578.59 36.86 L581.56 36.19 L584.53 35.19 L587.50 34.00 L590.47 32.81 L593.44 31.81 L596.41 31.14 L599.38 30.90 L602.34 31.14 L605.31 31.81 L608.28 32.81 L611.25 34.00 L614.22 35.19 L617.19 36.19 L620.16 36.86 L623.12 37.10 L626.09 36.86 L629.06 36.19 L632.03 35.19 L635.00 34.00 L637.97 32.81 L640.94 31.81 L643.91 31.14 L646.88 30.90 L649.84 31.14 L652.81 31.81 L655.78 32.81 L658.75 34.00 L661.72 35.19 L664.69 36.19 L667.66 36.86 L670.62 37.10 L673.59 36.86 L676.56 36.19 L679.53 35.19 L682.50 34.00 L685.47 32.81 L688.44 31.81 L691.41 31.14 L694.38 30.90 L697.34 31.14 L700.31 31.81 L703.28 32.81 L706.25 34.00 L709.22 35.19 L712.19 36.19 L715.16 36.86 L718.12 37.10 L721.09 36.86 L724.06 36.19 L727.03 35.19 L730.00 34.00 L732.97 32.81 L735.94 31.81 L738.91 31.14 L741.88 30.90 L744.84 31.14 L747.81 31.81 L750.78 32.81 L753.75 34.00 L756.72 35.19 L759.69 36.19 L762.66 36.86 L765.62 37.10 L768.59 36.86 L771.56 36.19 L774.53 35.19 L777.50 34.00 L780.47 32.81 L783.44 31.81 L786.41 31.14 L789.38 30.90 L792.34 31.14 L795.31 31.81 L798.28 32.81 L801.25 34.00 L804.22 35.19 L807.19 36.19 L810.16 36.86 L813.12 37.10 L816.09 36.86 L819.06 36.19 L822.03 35.19 L825.00 34.00" fill="none" stroke="#82545C" stroke-opacity="0.72" stroke-width="0.62"/>
  <path d="M568 40 H797" fill="none" stroke="#8B8A83" stroke-opacity="0.58" stroke-width="0.55"/>
  <path d="M543.1996778720365 617.7999560734595Q574.9997071563969 544.0999487523694 621.099729119667 476.34989384419384Q667.1997510829373 408.5998389360183 722.7497620645725 349.74976206457245Q778.2997730462075 290.89968519312663 838.9997803672976 244.89961198222582Q899.6997876883877 198.899538771325 960.6997876883877 168.69949484478454L958.3997950094778 158.39950216587462Q934.2999926789099 155.69956805568535 914.3001391007115 138.84974742239228Q894.300285522513 121.9999267890992 884.3003587334139 94.90019766943213Q808.3003587334139 147.0001464218016 740.5002196327024 223.7501281190764Q672.7000805319909 300.5001098163512 618.249908486374 398.50007321090084Q563.7997364407571 496.5000366054504 527.5996193033159 610.2999194680091ZM502.0997291196671 601.7999560734595Q442.19967787203655 436.10009517417103 325.8997584040274 296.5001098163512Q209.59983893601827 156.90012445853134 44.300139100711505 61.00007321090079L32.500109816351184 73.90012445853134Q122.50018302725198 141.5001098163512 196.600278201423 230.15006955035577Q270.70037337559404 318.80002928436033 326.5504868524903 418.4499890183649Q382.40060032938646 518.0999487523694 414.90071014573766 617.7999560734595H502.0997291196671ZM574.3995753767754 828.899904825829Q572.6995680556853 817.9999267890992 564.7495790373205 810.5499377707342Q556.7995900189555 803.0999487523694 535.6996412665861 799.7999560734595V-52.70000732109008Q535.6996412665861 -57.29999267890992 526.9497327802121 -63.64995973400457Q518.1998242938381 -69.9999267890992 504.3499670550947 -74.34989384419384Q490.5001098163512 -78.6998608992885 474.9002708803329 -78.6998608992885H460.2004099810444V841.5998389360183ZM666.9003440912337 238.99963394549604Q666.9003440912337 238.99963394549604 675.9003074857833 231.49967055094646Q684.9002708803329 223.99970715639685 699.0002196327023 211.5997657251175Q713.1001683850718 199.1998242938381 728.7001171374413 185.29988286255872Q744.3000658898108 171.39994143127936 756.8000292843603 158.59998535781983Q752.8000292843603 142.59998535781983 730.9000512476306 142.59998535781983H254.60005856872064L246.60005856872064 172H616.4005271184857ZM834.600278201423 688.2995534135052Q834.600278201423 688.2995534135052 844.9002342748825 680.1495936795006Q855.2001903483421 671.999633945496 870.5501207979863 659.4496961747617Q885.9000512476306 646.8997584040274 902.8999780367299 632.1998242938381Q919.899904825829 617.4998901836489 933.9998535781984 604.3999414312793Q929.9998535781984 588.3999414312793 907.7998828625588 588.3999414312793H78.0000732109008L69.30006588981071 617.7999560734595H780.1005344395758Z" fill="#E7E0D3" transform="translate(247.728 103.000) scale(0.041000 -0.041000)"/>
  <path d="M616.9003440912337 837.6998608992885 722.8996851931266 826.599912146919Q721.8996851931266 816.599912146919 714.0496815325816 809.099912146919Q706.1996778720365 801.599912146919 687.5996925142167 798.599912146919V126.29962662440597Q687.5996925142167 122.39964858767621 678.7997730462075 116.3996851931266Q669.9998535781984 110.39972179857699 656.8999780367297 105.69975108293731Q643.8001024952611 100.99978036729763 629.7002269537925 100.99978036729763H616.9003440912337ZM418.70037337559404 761.3999414312793 526.1996778720365 749Q525.1996778720365 739 516.8496742114914 731.5Q508.49967055094646 724 490.89968519312663 721V65.39950216587462Q490.89968519312663 42.69949484478455 504.5496815325816 33.29948020260439Q518.1996778720365 23.899465560424233 563.3997950094778 23.899465560424233H709.5999853578198Q759.9001976694321 23.899465560424233 795.2003001646933 24.899465560424233Q830.5004026599544 25.899465560424233 846.5004026599544 27.59947288151431Q867.6003514123238 30.29948020260439 876.300285522513 42.59947288151431Q883.1002415959726 56.89946556042423 893.8501866877971 97.19953145023494Q904.6001317796214 137.49959734004565 916.6000585687207 191.3996485876762H929.400087853081L932.0000732109008 38.19945823933415Q953.4999633945496 31.099509486964706 961.099912146919 23.54957171623038Q968.6998608992885 15.999633945496049 968.6998608992885 4.699714477486918Q968.6998608992885 -9.800175706161896 957.7998828625588 -19.450098834716066Q946.899904825829 -29.100021963270237 918.8999414312793 -34.849967055094645Q890.8999780367297 -40.59991214691905 839.4000146421802 -43.149886523103774Q787.9000512476306 -45.699860899288495 706.400087853081 -45.699860899288495H557.1998975047389Q504.90005124763053 -45.699860899288495 474.70015374289164 -37.79988286255873Q444.50025623815276 -29.899904825828973 431.60031480687337 -9.449989018364882Q418.70037337559404 10.99992678909921 418.70037337559404 48.79973644075716ZM39.40008785308095 535.4999633945496H262.8001024952611L305.59998535781983 598.4995973400456Q305.59998535781983 598.4995973400456 313.8499670550947 590.999633945496Q322.09994875236947 583.4996705509465 334.6499231285542 572.099729119667Q347.1998975047389 560.6997876883877 360.5998755414687 547.2998462571084Q373.99985357819844 533.899904825829 384.29984625710836 522.0999487523694Q380.99985357819844 506.09994875236947 358.99985357819844 506.09994875236947H47.40008785308095ZM161.70037337559404 819.0998755414687 269.9997071563968 807.599912146919Q268.29969983530674 797.599912146919 260.4496961747617 790.099912146919Q252.59969251421668 782.599912146919 233.6997144774869 779.9999267890992V158.09972911966707L161.70037337559404 135.09994875236944ZM30.800175706161895 116.0995826978655Q60.60013177962142 125.49959734004565 115.60009517417103 146.3996485876762Q170.60005856872064 167.29969983530677 239.7000439265405 196.29977304620755Q308.80002928436033 225.29984625710833 379.90005124763053 256.59991214691905L385.70008053199086 243.6998608992885Q334.89997803672975 208.69993411018928 261.89990482582897 158.75001830272518Q188.8998316149282 108.8001024952611 93.59983893601826 49.70022695379245Q89.39986822037858 30.900270880332926 73.59991214691905 22.200263559242845ZM813.4004539075848 622.5000366054504 839.4004539075848 631.5000366054504 850.1004612286749 604.1000219632703 300.10002196327025 398.5997657251175 280.7000073210901 422.9997803672976ZM831.7004465864948 625.5000366054504H821.4004539075848L861.7001537428916 667.3997950094778L941.2997730462075 602.6001317796214Q936.2997730462075 596.6001317796214 926.7997730462075 592.6501427612566Q917.2997730462075 588.7001537428916 902.9997803672976 586.7001537428916Q901.9997803672976 488.1001683850718 899.1497767067526 419.0501207979863Q896.2997730462075 350.0000732109008 890.6497767067526 305.2000073210901Q884.9997803672976 260.3999414312794 875.8997950094778 234.34989384419384Q866.7998096516579 208.29984625710833 853.6998608992885 194.9998535781984Q837.2999194680091 178.39986822037858 814.7499816972747 170.94987920201368Q792.2000439265405 163.4998901836488 767.4001610639817 163.4998901836488Q767.4001610639817 179.399721798577 765.5501574034367 192.44962296386092Q763.7001537428916 205.49952412914487 756.0001464218016 213.59947288151432Q749.0001464218016 221.2994069917036 735.4500988347161 226.99937770734329Q721.9000512476306 232.69934842298298 704.7000805319909 236.19931181753256V253.09936306516312Q721.1001683850718 252.09936306516312 742.6002415959726 250.19934842298295Q764.1003148068734 248.2993337808028 775.8003221279635 248.2993337808028Q794.3003587334139 248.2993337808028 803.000366054504 257.69934842298295Q812.4003806966841 267.7993703862532 818.1503989994094 307.39946556042423Q823.9004173021345 346.99956073459526 827.3004319443146 424.84971081694187Q830.7004465864948 502.6998608992885 831.7004465864948 625.5000366054504Z" fill="#E7E0D3" transform="translate(289.128 103.000) scale(0.041000 -0.041000)"/>
  <path d="M266.499816972748 -16.499963394549606Q204.79980965165794 -16.499963394549606 147.59987554146866 0.400051247630552Q90.39994143127937 17.30006588981071 53.10002196327024 41.40001464218016L58.70000732109008 193.79980965165794H101.99985357819843L136.39957537677543 24.700153742891658L88.09980233056787 47.40008785308095L81.79988286255873 80.40001464218015Q130.39986822037858 45 168.59987554146866 32.59998535781984Q206.79988286255875 20.199970715639683 259.29991946800914 20.199970715639683Q339.59998535781983 20.199970715639683 388.20008053199086 56.5Q436.8001757061619 92.80002928436032 436.8001757061619 163.40016106398173Q436.8001757061619 199.50018302725198 423.85015008234666 225.95020865106727Q410.90012445853137 252.40023427488254 380.4000512476306 274.20026355924284Q349.89997803672975 296.0002928436032 296.5998389360183 317.50032944905354L253.4998901836488 335.70030016469326Q163.29999267890992 374.0002196327024 116.40005124763056 425.1001683850718Q69.50010981635118 476.2001171374413 69.50010981635118 554.2999926789099Q69.50010981635118 618.0999487523694 101.20008053199086 660.899904825829Q132.90005124763056 703.6998608992885 186.69997071563967 725.5498279543831Q240.4998901836488 747.3997950094778 306.79973644075716 747.3997950094778Q364.399721798577 747.3997950094778 408.3496376060411 733.0998023305679Q452.2995534135052 718.7998096516579 490.19953145023493 692.499816972748L484.99956073459526 548.1000219632703H440.29969983530674L406.7999560734595 709.9997071563969L456.89968519312663 686.6997876883877L460.5996193033159 653.1998975047389Q421.49967055094646 684.6998608992885 389.1996412665861 697.4998535781984Q356.8996119822258 710.2998462571084 313.7995900189556 710.2998462571084Q244.5995460924151 710.2998462571084 199.69949484478454 677.0498279543831Q154.79944359715398 643.7998096516579 154.79944359715398 579.399721798577Q154.79944359715398 523.1996778720365 187.69949484478454 489.3996485876762Q220.5995460924151 455.5996193033159 278.4995973400456 430.8996119822258L324.899538771325 411.7996632298564Q400.5995460924151 380.19967787203655 444.19953145023493 348.2996998353068Q487.79951680805476 316.399721798577 506.04949850532955 278.54975474348237Q524.2994802026044 240.69978768838772 524.2994802026044 188.59983893601827Q524.2994802026044 126.09987554146866 492.54949850532955 79.79991946800914Q460.79951680805476 33.4999633945496 402.94958635841056 8.499999999999998Q345.0996559087663 -16.499963394549606 266.499816972748 -16.499963394549606Z" fill="#E7E0D3" transform="translate(341.383 103.000) scale(0.041000 -0.041000)"/>
  <path d="M39.90005124763055 0V28.199970715639683L148.80010249526111 38.89997803672976H186.79966322985638L296.6996412665861 28.199970715639683V0ZM122.00021963270237 0Q123.00021963270237 19.800029284360317 123.50021963270237 48.2500183027252Q124.00021963270237 76.70000732109008 124.50021963270237 108.89997803672976Q125.00021963270237 141.09994875236944 125.00021963270237 172.49992678909922Q125.00021963270237 203.89990482582897 125.00021963270237 229.59991214691905V744.3999414312793L38.70008053199087 748.9999267890992V775.9999267890992L204.59947288151432 807.7998096516579L219.59947288151432 798.7998096516579L216.2994802026044 642.6998608992885V232.6998608992885Q216.2994802026044 206.09987554146866 216.2994802026044 173.89990482582897Q216.2994802026044 141.69993411018928 216.7994802026044 109.19997071563968Q217.2994802026044 76.70000732109008 217.94947654205936 48.2500183027252Q218.59947288151432 19.800029284360317 219.59947288151432 0ZM170.79988286255875 175.59998535781983V218.89997803672975H174.9998535781984L324.49967055094646 368.99985357819844L475.2994802026044 519.399721798577H526.3993557440731ZM455.5000366054504 0 283.8997584040274 299.59998535781983 347.89924592772184 360.2995534135052 535.299260569902 34.89997803672976 611.4993777073432 28.199970715639683V0ZM338.2995534135052 490.0997291196671V519.399721798577H585.6994216338837V490.0997291196671L468.9994143127937 480.1997510829373L449.799443597154 477.1997510829373Z" fill="#E7E0D3" transform="translate(365.153 103.000) scale(0.041000 -0.041000)"/>
  <path d="M42.600058568720634 0V28.199970715639683L151.80010249526111 38.89997803672976H188.49967055094643L294.6996412665861 28.199970715639683V0ZM123.40023427488254 0Q124.40023427488254 24.599985357819843 125.25023793542758 65.69997071563968Q126.1002415959726 106.79995607345953 126.6002415959726 151.3999414312794Q127.1002415959726 195.99992678909922 127.1002415959726 229.59991214691905V292.0997291196671Q127.1002415959726 342.79973644075716 126.25023793542758 382.9498059911129Q125.40023427488254 423.09987554146863 123.40023427488254 460.1998975047389L36.10009517417103 464.6998608992885V490.09987554146863L207.99948752369448 531.8996851931266L220.2994802026044 523.5996925142167L217.69949484478454 381.4998901836488V229.59991214691905Q217.69949484478454 195.99992678909922 218.19949484478454 151.3999414312794Q218.69949484478454 106.79995607345953 219.34949118423953 65.69997071563968Q219.99948752369448 24.599985357819843 220.99948752369448 0ZM164.8998316149282 655Q139.69993411018928 655 121.90001464218015 671.3499304496443Q104.10009517417103 687.6998608992885 104.10009517417103 714.1997510829373Q104.10009517417103 740.0996559087663 121.90001464218015 756.7995900189555Q139.69993411018928 773.4995241291449 164.8998316149282 773.4995241291449Q189.6997144774869 773.4995241291449 208.04964492713117 756.7995900189555Q226.39957537677543 740.0996559087663 226.39957537677543 714.1997510829373Q226.39957537677543 687.6998608992885 208.04964492713117 671.3499304496443Q189.6997144774869 655 164.8998316149282 655Z" fill="#E7E0D3" transform="translate(390.768 103.000) scale(0.041000 -0.041000)"/>
  <path d="M34.40001464218016 0V28.199970715639683L150.40008785308095 38.89997803672976H187.3996485876762L304.7996632298564 28.199970715639683V0ZM122.00021963270237 0Q123.00021963270237 32.09994875236945 123.50021963270237 71.54993777073433Q124.00021963270237 110.9999267890992 124.50021963270237 152.34993044964423Q125.00021963270237 193.69993411018928 125.00021963270237 229.59991214691905V744.3999414312793L38.70008053199087 748.9999267890992V775.9999267890992L204.59947288151432 807.7998096516579L219.59947288151432 798.7998096516579L216.2994802026044 642.6998608992885V229.59991214691905Q216.2994802026044 193.69993411018928 216.7994802026044 152.34993044964423Q217.2994802026044 110.9999267890992 217.94947654205936 71.54993777073433Q218.59947288151432 32.09994875236945 219.59947288151432 0Z" fill="#E7E0D3" transform="translate(404.903 103.000) scale(0.041000 -0.041000)"/>
  <path d="M34.40001464218016 0V28.199970715639683L150.40008785308095 38.89997803672976H187.3996485876762L304.7996632298564 28.199970715639683V0ZM122.00021963270237 0Q123.00021963270237 32.09994875236945 123.50021963270237 71.54993777073433Q124.00021963270237 110.9999267890992 124.50021963270237 152.34993044964423Q125.00021963270237 193.69993411018928 125.00021963270237 229.59991214691905V744.3999414312793L38.70008053199087 748.9999267890992V775.9999267890992L204.59947288151432 807.7998096516579L219.59947288151432 798.7998096516579L216.2994802026044 642.6998608992885V229.59991214691905Q216.2994802026044 193.69993411018928 216.7994802026044 152.34993044964423Q217.2994802026044 110.9999267890992 217.94947654205936 71.54993777073433Q218.59947288151432 32.09994875236945 219.59947288151432 0Z" fill="#E7E0D3" transform="translate(419.161 103.000) scale(0.041000 -0.041000)"/>
  <path d="M223.29984625710833 -14.899978036729763Q173.69993411018928 -14.899978036729763 133.75001830272518 -4.5Q93.8001024952611 5.899978036729763 52.60013177962142 25.99992678909921L53.600058568720634 146.59976572511746H99.39986822037858L124.29977304620755 18.499963394549606L85.69993411018929 21.29991946800913V57.29991946800913Q114.79988286255873 38.09994875236945 145.4998901836488 27.949952412914488Q176.19989750473889 17.799956073459526 219.39994143127936 17.799956073459526Q284.80002928436033 17.799956073459526 318.10005856872067 43.90001464218016Q351.40008785308095 70.0000732109008 351.40008785308095 112.40008785308095Q351.40008785308095 148.60013177962142 329.10005856872067 171.95013544016646Q306.80002928436033 195.3001391007115 245.40001464218017 214.40016106398173L193.00007321090078 233.40016106398173Q131.60013177962142 254.8001757061619 95.70015374289166 289.9001244585313Q59.800175706161895 325.0000732109008 59.800175706161895 382Q59.800175706161895 446.99985357819844 109.5000732109008 490.6497767067526Q159.1999707156397 534.2996998353068 251.69978768838772 534.2996998353068Q297.49974376184724 534.2996998353068 333.39968519312663 523.4997071563969Q369.29962662440596 512.699714477487 407.69956805568535 489.9997071563968L403.4995973400456 380.7998828625587H361.8997584040274L335.4999633945496 499.99963394549604L368.79980965165794 493.1997510829373V461.0997291196671Q338.09980233056785 482.49974376184724 310.89975840402735 491.8497474223923Q283.6997144774869 501.1997510829373 252.19975108293733 501.1997510829373Q196.3996485876762 501.1997510829373 167.34963760604109 476.54971813803195Q138.29962662440596 451.89968519312663 138.29962662440596 412.49967055094646Q138.29962662440596 377.0995826978655 161.79966322985638 354.5995826978655Q185.29969983530677 332.0995826978655 240.49967055094643 313.69956805568535L291.7995900189556 295.69956805568535Q367.99956073459526 269.5995460924151 400.4995241291449 232.99959734004565Q432.9994875236945 196.3996485876762 432.9994875236945 142.79973644075716Q432.9994875236945 98.09987554146866 409.0995460924151 62.19993411018929Q385.1996046611357 26.29999267890992 338.7496888536716 5.700007321090078Q292.2997730462076 -14.899978036729763 223.29984625710833 -14.899978036729763Z" fill="#E7E0D3" transform="translate(433.419 103.000) scale(0.041000 -0.041000)"/>
  <path d="M602.4993777073432 -18.800102495261108Q602.4993777073432 -23.30006588981071 594.3994655604242 -29.70000732109008Q586.2995534135052 -36.09994875236945 573.0996925142167 -41.24990848637401Q559.8998316149282 -46.39986822037858 542.8999780367297 -46.39986822037858H529.7000805319909V683.1999707156397V719.7997364407571L607.1993850284333 683.1999707156397H844.500183027252V653.7999560734595H602.4993777073432ZM803.7003001646932 683.1999707156397 845.5000366054504 730.2996998353068 935.299626624406 659.8000292843603Q930.299626624406 652.8000292843603 917.9995973400456 647.3000292843603Q905.6995680556853 641.8000292843603 889.2995534135052 638.5000366054504V5.99985357819842Q888.9995607345952 2.0998755414686565 878.7496522482212 -4.1500695503557505Q868.4997437618472 -10.400014642180158 854.1498865231038 -15.849967055094645Q839.8000292843603 -21.29991946800913 825.8001757061619 -21.29991946800913H814.4003074857833V683.1999707156397ZM850.5999853578198 117V87.59998535781985H570.4995241291449V117ZM87.30028552251308 292.2999926789099Q186.59991214691905 256.59991214691905 254.99970715639685 221.69989750473889Q323.39950216587465 186.79988286255875 365.949439936609 154.04990116528393Q408.4993777073433 121.29991946800914 429.69942163388373 93.49996339454961Q450.89946556042423 65.70000732109008 455.19956805568535 44.050047587085515Q459.49967055094646 22.400087853080947 451.44980599111295 9.350113476896224Q443.3999414312794 -3.699860899288499 428.00007321090084 -6.249871880923617Q412.60020499052223 -8.799882862558736 394.3002855225131 0.9000512476305529Q372.10031480687337 36.40001464218016 334.4003074857833 74.5Q296.70030016469326 112.59998535781985 251.15028918305813 149.94998901836487Q205.600278201423 187.29999267890992 158.45028186196805 220.20000732109008Q111.30028552251308 253.10002196327025 69.80032212796348 277.5000366054504ZM69.80032212796348 277.5000366054504Q83.80032212796348 317 100.45031846741844 373.6499597340046Q117.1003148068734 430.29991946800914 134.30032212796348 495.14988652310376Q151.50032944905357 559.9998535781984 166.70033677014362 624.7498352754733Q181.9003440912337 689.499816972748 193.45035507286883 745.8498206332931Q205.00036605450396 802.1998242938381 211.10038801777418 841.3998682203786L321.399721798577 821.0998755414687Q318.6997144774869 811.0998755414687 309.04971813803195 803.9998901836489Q299.399721798577 796.899904825829 271.5997657251175 796.9999267890992L285.0997291196671 812.2999194680091Q278.0997291196671 775.1998975047389 265.5997291196671 723.249908486374Q253.09972911966707 671.2999194680091 237.59972911966707 611.4499524129144Q222.09972911966707 551.5999853578198 204.59972911966707 489.30002928436033Q187.09972911966707 427.0000732109008 168.59972911966707 368.7001171374412Q150.09972911966707 310.4001610639817 132.79973644075716 261.20019034834206ZM356.6003514123238 623.6001317796214 399.10009517417103 668.2998462571084 477.3996485876762 597.6002049905222Q472.6996412665861 590.7002269537925 464.04964492713117 588.1002415959726Q455.3996485876762 585.5002562381528 439.7996632298564 583.2002635592429Q429.89968519312663 477.7002269537924 409.89972179857705 379.8002123116123Q389.8997584040274 281.90019766943215 347.999816972748 196.0501940088871Q306.09987554146863 110.20019034834206 231.59994875236944 40.85018668779702Q157.10002196327025 -28.499816972748025 39.500109816351184 -77.89983161492819L29.400087853080947 -64.09980233056787Q128.6002049905222 -9.899831614928182 191.8502598986978 62.45013544016646Q255.1003148068734 134.80010249526111 291.00032944905354 222.70008053199086Q326.9003440912337 310.6000585687206 343.7003367701436 411.65006955035574Q360.50032944905354 512.7000805319909 366.50032944905354 623.6001317796214ZM408.40001464218017 623.6001317796214V594.2001171374412H43.900124458531344L34.900124458531344 623.6001317796214Z" fill="#E7E0D3" transform="translate(464.272 103.000) scale(0.041000 -0.041000)"/>
  <path d="M328.2999926789099 725.8001024952611H825.5006222926568L877.9003440912337 793.7996632298564Q877.9003440912337 793.7996632298564 887.5002928436031 785.9997071563969Q897.1002415959726 778.1997510829373 911.9001610639818 765.8498206332931Q926.7000805319909 753.4998901836489 943.0 739.4999633945497Q959.2999194680091 725.5000366054504 972.6998608992885 712.400087853081Q968.6998608992885 696.400087853081 946.4998901836489 696.400087853081H336.2999926789099ZM793.1006076504766 721.6000585687207H868.2998462571084V26.499450918244072Q868.2998462571084 -0.9003440912337144 859.8498938441938 -23.700190348342055Q851.3999414312793 -46.5000366054504 825.250091513626 -61.09994875236944Q799.1002415959726 -75.6998608992885 744.1005344395758 -80.29984625710834Q742.4005271184857 -63.600058568720634 736.8005417606659 -49.700190348342055Q731.200556402846 -35.800322127963476 719.0005856872064 -27.500402659954347Q705.0005856872064 -18.200483191945214 681.1005710450262 -11.450538100120808Q657.200556402846 -4.700593008296401 615.2006296137467 -0.2006296137467949V14.599399670613522Q615.2006296137467 14.599399670613522 634.5006222926568 13.249396010068482Q653.8006149715667 11.899392349523442 680.5505966688415 10.399392349523442Q707.3005783661163 8.899392349523442 731.7505673844812 7.549388688978402Q756.200556402846 6.199385028433362 765.5005490817559 6.199385028433362Q781.7005930082964 6.199385028433362 787.4006003293865 12.049388688978402Q793.1006076504766 17.899392349523442 793.1006076504766 29.399428954973835ZM397.399721798577 254.39986822037858H621.2001903483421V225.6998608992885H397.399721798577ZM363.20019034834206 541.3998682203786V574.4996705509465L437.7995900189556 541.3998682203786H627.8003953388643V511.99985357819844H433.0995826978655V160.29969983530677Q433.0995826978655 157.09972911966707 424.44965956931134 151.4497693856625Q415.79973644075716 145.79980965165794 402.6998608992885 141.29984625710836Q389.59998535781983 136.79988286255875 374.5001098163512 136.79988286255875H363.20019034834206ZM592.5005490817559 541.3998682203786H581.5005490817559L620.1003148068734 585.299626624406L707.6999341101892 517.9999267890992Q702.9999267890992 511.9999267890992 690.9499158074641 506.1999341101893Q678.899904825829 500.3999414312794 662.599912146919 497.09994875236947V173.99970715639685Q661.899904825829 172.09972911966707 651.9499890183649 167.4497693856625Q642.0000732109008 162.79980965165794 628.550194008887 159.29984625710836Q615.1003148068734 155.79988286255875 603.3004319443147 155.79988286255875H592.5005490817559ZM161.20026355924284 540.8001757061619 191.40008785308095 579.3999414312793 265.79951680805476 552.0001464218016Q263.79951680805476 545.0001464218016 256.79951680805476 540.3501500823465Q249.7995168080548 535.7001537428916 236.19953145023493 533.4001610639817V-55.40001464218016Q235.899538771325 -58.29999267890992 226.44962296386092 -64.09994875236944Q216.99970715639685 -69.89990482582897 203.44984259656331 -74.74987188092362Q189.89997803672975 -79.59983893601826 174.90012445853134 -79.59983893601826H161.20026355924284ZM250.10053443957577 839.8998316149282 363.6997144774869 804.6000585687207Q359.6997144774869 796.0000732109008 350.399721798577 790.0000732109008Q341.0997291196671 784.0000732109008 324.0997291196671 785.0000732109008Q289.9997803672976 691.8001757061619 245.09983893601824 606.9001610639817Q200.19989750473889 522.0001464218016 147.7499816972748 451.10009517417103Q95.30006588981071 380.2000439265405 36.600204990522215 326.40001464218017L23.500183027251975 336.2000439265405Q67.00021963270237 396.7000073210901 109.40027088033293 477.4999633945496Q151.80032212796348 558.2999194680091 188.6003880177742 651.2998828625587Q225.4004539075849 744.2998462571084 250.10053443957577 839.8998316149282Z" fill="#E7E0D3" transform="translate(505.672 103.000) scale(0.041000 -0.041000)"/>
  <path d="M529.8996119822258 790.8999780367297Q525.8996119822258 783 511.04960832168075 778.3500036605451Q496.1996046611357 773.7000073210901 471.29962662440596 783.8000292843603L502.39957537677543 789.1000219632703Q476.7995900189556 768.5000366054504 439.449622963861 744.8000292843603Q402.0996559087663 721.1000219632703 357.54968153258153 697.2000073210901Q312.9997071563968 673.2999926789099 266.899721798577 652.1499597340046Q220.79973644075716 630.9999267890992 178.399721798577 615.0998755414687L177.399721798577 625.7998828625588H216.7995168080548Q215.19953145023493 594.9001244585313 206.84960100059067 575.3502598986978Q198.49967055094643 555.8003953388643 185.99978036729763 549.6004246232246L138.4998901836488 638.2998462571084Q138.4998901836488 638.2998462571084 148.79984625710833 640.2498352754733Q159.09980233056785 642.1998242938381 165.99978036729763 644.7998096516579Q201.29984625710833 658.5998389360183 239.59991214691905 682.6498499176535Q277.89997803672975 706.6998608992885 314.7000439265405 735.3498572387434Q351.5001098163512 763.9998535781984 381.6001683850718 791.4498425965633Q411.7002269537924 818.8998316149282 430.3002855225131 839.499816972748ZM164.8998316149282 639.9998535781984Q205.79988286255875 639.6998608992885 270.29995607345955 640.5998755414687Q334.80002928436033 641.4998901836489 416.0001098163512 643.9499158074641Q497.20019034834206 646.3999414312793 589.450281861968 650.0499743761848Q681.700373375594 653.7000073210901 777.1004612286749 657.5000366054504L777.800468549765 639.2999926789099Q678.7002269537925 623.6000585687207 527.7500183027253 604.4001610639818Q376.79980965165794 585.2002635592429 191.79966322985638 567.2004099810445ZM856.2997730462075 122.40038069668411Q844.2997730462075 110.40038069668411 818.9997803672976 122.50040265995435Q763.499816972748 82.80039533886426 685.9498792020137 47.90038069668411Q608.3999414312793 13.000366054503951 517.1000219632703 -13.949659569311326Q425.8001024952611 -40.8996851931266 328.7502013299772 -58.099729119667074Q231.70030016469323 -75.29977304620755 137.9004173021345 -80.6998608992885L133.50040265995435 -63.89983161492818Q221.50032944905357 -50.29984625710834 313.45028186196805 -25.299882862558736Q405.4002342748825 -0.29991946800913105 492.6502159721573 33.650032944905355Q579.9001976694321 67.59998535781985 653.8002123116123 107.94995241291448Q727.7002269537925 148.29991946800914 778.2002635592429 193.29991946800914ZM727.6997876883877 246.8001757061619Q717.3997950094778 234.1001683850718 692.3997950094778 244.90019766943215Q649.1998242938381 212.50018302725198 588.2498718809236 181.50018302725198Q527.2999194680091 150.50018302725198 456.59998535781983 123.3001757061619Q385.90005124763053 96.10016838507181 311.4001244585313 75.20015374289166Q236.90019766943215 54.300139100711505 165.600278201423 41.80010249526111L158.50025623815276 58.60013177962142Q224.70022695379245 77.8001024952611 294.45020865106727 104.90005124763056Q364.20019034834206 132 430.350186687797 165.2499450918244Q496.500183027252 198.4998901836488 553.4001976694321 235.14984991765337Q610.3002123116123 271.79980965165794 649.1002415959726 308.79980965165794ZM608.5996925142167 373.4001610639817Q600.2996998353068 359.60013177962145 573.5996925142167 369.4001610639817Q539.7997364407571 337.3001391007115 492.2497986700228 305.7501281190764Q444.6998608992885 274.2001171374413 388.34993044964426 245.70011713744128Q332 217.20011713744125 271.65006955035574 194.5501207979863Q211.3001391007115 171.90012445853134 151.90019766943215 156.90012445853134L144.50018302725198 172.70015374289167Q197.8001757061619 193.80010249526111 252.40016106398173 222.35004026599543Q307.00014642180156 250.89997803672975 358.1001317796214 284.79991946800914Q409.2001171374413 318.6998608992885 452.0001098163512 355.3998316149282Q494.8001024952611 392.09980233056785 524.5001098163511 428.499816972748ZM620.4999633945496 489.29991946800914Q656.8999780367297 445.29984625710836 715.5999853578198 408.54975474348237Q774.2999926789099 371.7996632298564 841.9499890183649 344.69956805568535Q909.5999853578198 317.5994728815143 972.0999487523694 302.59939967061354L971.0999487523694 291.59939967061354Q949.5001098163511 287.89946556042423 933.4502086510672 271.6996412665861Q917.4003074857833 255.49981697274802 910.6003514123238 229.30006588981072Q850.5004026599544 254.20004392654047 793.1003148068735 290.80002928436033Q735.7002269537925 327.40001464218017 687.6501061558062 375.59998535781983Q639.5999853578198 423.7999560734595 606.599912146919 480.09987554146863ZM530.4996705509465 563.7001537428916Q525.7996632298564 555.7001537428916 517.2996632298564 552.7501647245267Q508.7996632298564 549.8001757061619 490.7996632298564 552.9001976694321Q448.9997071563968 488.8002489170627 382.3497474223923 424.40023427488256Q315.6997876883877 360.0002196327024 229.0498645598335 305.4001610639817Q142.39994143127936 250.80010249526111 40.500109816351184 215.70000732109008L31.70008053199087 229.5000366054504Q120.50003660545039 274.40001464218017 197.70008053199086 337.39997803672975Q274.90012445853137 400.3999414312794 333.7502013299772 472.399904825829Q392.600278201423 544.3998682203786 426.9003440912337 613.8998316149282ZM865.300285522513 557.1996046611357Q865.300285522513 557.1996046611357 874.6002415959726 549.8496376060411Q883.9001976694321 542.4996705509465 898.1001317796215 531.049718138032Q912.3000658898108 519.5997657251174 928.1499963394549 506.349820633293Q943.9999267890992 493.09987554146863 957.0998755414687 480.59991214691905Q953.7998828625588 464.59991214691905 930.899904825829 464.59991214691905H55.10009517417103L46.40008785308095 493.9999267890992H814.7005197973956ZM621.1003148068734 756.4999633945496Q690.500183027252 740.499816972748 735.9001244585313 718.2997730462075Q781.3000658898108 696.0997291196671 806.8000658898108 671.6997510829374Q832.3000658898108 647.2997730462075 840.8501134768962 625.0498279543831Q849.4001610639817 602.7998828625588 845.1002415959726 587.1999341101894Q840.8003221279635 571.5999853578198 826.6004246232246 566.2000073210901Q812.4005271184857 560.8000292843603 792.300651577017 570.1999707156397Q777.6006442559269 600.0999487523694 747.0005856872062 633.0999487523694Q716.4005271184857 666.0999487523694 680.3504429259498 696.0999487523694Q644.3003587334139 726.0999487523694 611.7003001646932 746.6999341101892Z" fill="#E7E0D3" transform="translate(547.072 103.000) scale(0.041000 -0.041000)"/>
  <path d="M370.9994875236945 815.2999194680091Q368.2994802026044 805.9999267890992 358.2994802026044 799.0499377707342Q348.2994802026044 792.0999487523694 325.2994802026044 795.1999707156397L334.9994875236945 813.2999194680091Q331.69949484478457 779.0998755414687 325.0494985053296 729.4498792020138Q318.39950216587465 679.7998828625588 309.89950216587465 624.0499011652839Q301.39950216587465 568.2999194680091 292.19949484478457 515.6999341101892Q282.9994875236945 463.09994875236947 274.9994875236945 423.9999267890992H283.39950216587465L249.3996485876762 386.500183027252L168.8001757061619 442.80002928436033Q179.8001757061619 450.2999926789099 195.90016106398173 458.0999487523694Q212.0001464218016 465.89990482582897 225.90012445853134 470.7998828625587L200.80024891706267 433.1998975047389Q207.40023427488254 460.7998828625587 215.0502306143375 501.3498572387434Q222.70022695379245 541.8998316149282 230.20022695379245 588.6498133122029Q237.70022695379245 635.3997950094778 244.5502306143375 682.3497840278426Q251.40023427488254 729.2997730462075 256.25023793542755 770.8497840278426Q261.1002415959726 812.3997950094778 262.8002489170627 841.5998389360183ZM834.0002196327024 721.6996412665861Q834.0002196327024 721.6996412665861 844.1501793667069 713.9996705509465Q854.3001391007115 706.2996998353068 869.6500695503557 694.4997437618472Q885 682.6997876883877 901.9999267890992 668.7498352754733Q918.9998535781984 654.7998828625588 933.3997950094778 641.9999267890992Q929.3997950094778 625.9999267890992 906.1998242938381 625.9999267890992H267V655.3999414312793H780.4004539075848ZM838.5999853578198 453.3999414312794V423.9999267890992H238.29977304620755V453.3999414312794ZM599.2004831919452 311.0995826978655Q599.2004831919452 311.0995826978655 608.8504429259498 303.3996119822258Q618.5004026599544 295.6996412665861 633.9003440912337 283.7496888536716Q649.300285522513 271.79973644075716 665.6502159721573 258.1997876883877Q682.0001464218016 244.59983893601827 696.100095174171 231.79988286255875Q692.100095174171 215.79988286255875 669.2001171374412 215.79988286255875H51.900124458531344L43.900124458531344 245.19989750473889H547.3007247879178ZM769.5005490817559 453.3999414312794 813.9001976694321 498.6996412665861 896.7997364407571 428.90005124763053Q891.1997510829373 423.3000658898107 881.0497547434823 419.20008053199086Q870.8997584040274 415.10009517417103 854.2997730462075 413.8001024952611Q848.0998023305679 331.50025623815276 837.999816972748 257.25027454087797Q827.8998316149282 183.00029284360315 813.9998535781984 122.80024891706267Q800.0998755414687 62.600204990522215 782.599912146919 20.70015374289166Q765.0999487523694 -21.199897504738892 744 -39.79988286255873Q719.7000805319909 -60.59983893601826 687.5001464218017 -70.74983527547323Q655.3002123116123 -80.89983161492819 613.9004173021345 -80.89983161492819Q613.9004173021345 -63.59998535781984 608.7504209626795 -49.500109816351184Q603.6004246232246 -35.40023427488253 590.7004465864948 -26.40030748578332Q581.4004539075848 -19.300358733413873 561.8004319443146 -12.800395338864268Q542.2004099810445 -6.3004319443146635 517.3003953388643 -0.6004612286749786Q492.4003806966841 5.099509486964706 467.2004099810444 8.69949484478455L468.2004099810444 25.29955341350518Q496.5004026599544 22.5995460924151 533.4504282837696 19.39953877132502Q570.4004539075848 16.199531450234943 602.0004758708551 13.649520468599825Q633.6004978341253 11.099509486964706 646.6004978341253 11.099509486964706Q663.4005271184857 11.099509486964706 672.6005344395758 13.949513147509746Q681.8005417606659 16.799516808054786 691.5005490817559 24.499524129144863Q707.200556402846 36.89953877132503 721.050560063391 75.89961198222582Q734.9005637239361 114.8996851931266 746.050560063391 173.09976572511746Q757.200556402846 231.29984625710833 766.200556402846 303.0499011652839Q775.200556402846 374.7999560734595 780.8005417606659 453.3999414312794Z" fill="#E7E0D3" transform="translate(588.472 103.000) scale(0.041000 -0.041000)"/>
  <path d="M290.29984625710836 393.7000073210901H822.6004978341253L874.5002562381528 459.8996119822258Q874.5002562381528 459.8996119822258 883.8002123116123 452.2496522482212Q893.1001683850718 444.59969251421666 907.4500988347161 432.54975474348237Q921.8000292843603 420.499816972748 937.7999560734595 406.7998828625588Q953.7998828625588 393.09994875236947 967.1998242938381 380.2999926789099Q965.8998316149282 372.2999926789099 958.5998389360183 368.64999633945496Q951.2998462571084 365 940.9998535781984 365H298.29984625710836ZM311.09987554146863 -7.799882862558736H797.8005417606659L849.600278201423 58.99970715639684Q849.600278201423 58.99970715639684 859.0502306143375 51.34974742239227Q868.500183027252 43.69978768838771 883.3501134768962 31.49985357819842Q898.2000439265405 19.29991946800913 914.1999707156397 5.5999853578198415Q930.1998975047389 -8.099948752369446 943.5998389360183 -21.199897504738892Q941.8998316149282 -28.499890183648816 934.7998462571084 -32.499890183648816Q927.6998608992885 -36.499890183648816 916.6998608992885 -36.499890183648816H319.09987554146863ZM809.1003880177742 817.5997657251174 898.5996925142167 738.3004319443147Q891.399721798577 731.7004465864948 877.6497767067526 731.4004539075848Q863.8998316149282 731.1004612286749 843.2999194680091 738.3004319443147Q778.2999194680091 719.8003953388643 692.3499304496443 701.5003294490537Q606.3999414312793 683.2002635592429 512.0999487523694 668.8501866877971Q417.7999560734595 654.5001098163511 327.09994875236947 646.2000439265405L322.9999267890992 663.2001171374412Q386.59998535781983 676.0000732109008 455.40005124763053 694.3000292843603Q524.2001171374412 712.5999853578198 589.9501720456169 733.6999341101894Q655.7002269537925 754.7998828625588 712.3002855225131 776.4498425965633Q768.9003440912337 798.0998023305679 809.1003880177742 817.5997657251174ZM167.50032944905357 540.8001757061619 200.90012445853134 584.1998975047389 272.0995826978655 558.100095174171Q270.0995826978655 551.100095174171 262.7495790373205 546.4500988347161Q255.39957537677543 541.8001024952611 242.49959734004565 539.5001098163511V-55.40001464218016Q242.19960466113574 -58.29999267890992 232.74968885367164 -64.09994875236944Q223.29977304620755 -69.89990482582897 209.749908486374 -74.74987188092362Q196.20004392654047 -79.59983893601826 181.20019034834206 -79.59983893601826H167.50032944905357ZM251.9004905130353 839.8998316149282 365.49967055094646 804.6000585687207Q362.19967787203655 796.0000732109008 352.89968519312663 790.0000732109008Q343.59969251421666 784.0000732109008 326.59969251421666 785.0000732109008Q292.49974376184724 692.500183027252 248.64981331220298 607.9501720456169Q204.79988286255875 523.4001610639817 153.39997803672978 451.8001024952611Q102.0000732109008 380.2000439265405 44.70022695379245 326.40001464218017L30.90019766943213 336.2000439265405Q73.70022695379245 396.7000073210901 115.40027088033293 477.8499670550946Q157.1003148068734 558.9999267890992 192.50036605450396 651.9998901836489Q227.9004173021345 744.9998535781984 251.9004905130353 839.8998316149282ZM571.3003587334139 718.100095174171H647.7995900189555V-24.29991946800913Q647.4995973400456 -24.29991946800913 630.8497474223923 -24.29991946800913Q614.1998975047389 -24.29991946800913 584.6002049905222 -24.29991946800913H571.3003587334139Z" fill="#E7E0D3" transform="translate(629.872 103.000) scale(0.041000 -0.041000)"/>
  <path d="M559.999633945496 398.40008785308095Q557.5996193033159 385.70008053199086 547.8996119822258 380.10009517417103Q538.1996046611357 374.5001098163512 522.6996412665861 373.5001098163512Q513.3996485876762 295.60013177962145 487.99967055094646 226.0001464218016Q462.59969251421666 156.40016106398173 411.8497474223923 98.10016838507181Q361.09980233056785 39.800175706161895 275.84989384419384 -5.549827954383144Q190.59998535781983 -50.89983161492818 60.900124458531344 -80.99985357819843L53.80010249526111 -67.1998242938381Q168.90012445853134 -30.199897504738892 242.6001683850718 20.500036605450394Q316.3002123116123 71.19997071563968 358.20026355924284 133.04993777073432Q400.10031480687337 194.89990482582897 418.35036971504894 266.1499231285542Q436.60042462322457 337.3999414312794 439.80046854976507 415.10002196327025ZM724.9003440912337 279.80002928436033 767.5000366054504 322.9997803672976 848.4995973400456 255.3001391007115Q843.8996119822258 250.0001464218016 834.0496083216808 246.05015740343669Q824.1996046611357 242.1001683850718 808.8996119822258 240.8001757061619Q800.999633945496 130.00021963270237 782.2496522482213 56.60016838507182Q763.4996705509465 -16.799882862558736 730.8997584040274 -41.39986822037858Q711.8998316149282 -55.99985357819842 684.1998975047388 -63.79984625710834Q656.4999633945496 -71.59983893601826 621.500183027252 -71.59983893601826Q621.8001757061619 -55.89997803672976 617.8501866877971 -42.050084192535905Q613.9001976694321 -28.200190348342055 601.4002342748826 -18.500256238152765Q589.300285522513 -10.200336770143634 560.0503038252382 -2.450391678319227Q530.8003221279635 5.29955341350518 499.9004173021345 9.799516808054786V26.099582697865497Q523.700373375594 24.099582697865497 554.2003367701436 21.74957903732046Q584.7003001646932 19.399575376775417 610.600278201423 17.549571716230375Q636.5002562381528 15.699568055685337 646.8002489170627 15.699568055685337Q672.0002928436031 15.699568055685337 683.0002928436031 25.099582697865497Q701.4003074857833 40.59961930331589 715.0003294490535 108.84974742239228Q728.6003514123238 177.09987554146866 735.6003514123238 279.80002928436033ZM775.5002562381528 279.80002928436033V250.40001464218017H122.20004392654047L113.20004392654047 279.80002928436033ZM690.7005197973956 729.4999633945496 746.1001683850718 775.3996485876762 826.1996778720365 698.2001171374412Q819.4996705509465 691.3001391007115 809.4996705509465 689.3501500823465Q799.4996705509465 687.4001610639817 779.4996705509465 686.1001683850718Q706.4997437618472 588.6002049905222 598.6498499176533 517.1001683850718Q490.7999560734595 445.60013177962145 351.5500475870855 400.4000512476306Q212.3001391007115 355.19997071563967 44.50018302725198 333.99985357819844L38.40016106398174 350.1998975047389Q188.80024891706267 382.1998975047389 318.5503038252383 434.34989384419384Q448.3003587334139 486.4998901836488 547.1503989994094 560.249908486374Q646.0004392654048 633.9999267890992 702.9004905130353 729.4999633945496ZM308.89990482582897 700.1998242938381Q351.4998901836488 635.3997950094778 419.49985357819844 588.4497327802121Q487.499816972748 541.4996705509465 574.4997803672976 509.7495790373205Q661.4997437618472 477.9994875236945 761.9997437618472 459.9494033311586Q862.4997437618472 441.8993191386227 969.7998096516579 433.89924592772184L969.0998023305679 422.299260569902Q944.1000219632703 416.69934842298295 927.9001244585313 398.54953511077997Q911.7002269537925 380.399721798577 905.2002635592429 351.89997803672975Q764.500183027252 372.89997803672975 646.0001098163511 412.7499816972748Q527.5000366054504 452.59998535781983 438.19997071563967 519.5999487523694Q348.89990482582897 586.599912146919 293.99985357819844 688.6997876883877ZM468.69942163388373 812.5999853578198Q465.69942163388373 805.2999926789099 457.69942163388373 802.0Q449.69942163388373 798.7000073210901 430.0994362760639 801.1000219632703Q393.49952412914485 740.400087853081 339.4496229638609 679.100095174171Q285.399721798577 617.8001024952611 220.24983527547323 565.5000732109008Q155.09994875236944 513.2000439265405 84.70008053199086 478L73.50003660545039 489.90005124763053Q131.00007321090078 531.2000439265405 184.35011347689624 589.9000146421802Q237.70015374289167 648.5999853578198 281.5501940088871 715.0499377707343Q325.4002342748825 781.4998901836489 351.600278201423 845.2998462571084ZM729.4003074857833 729.4999633945496V700.0999487523694H303.3000658898107L329.0000732109008 729.4999633945496Z" fill="#E7E0D3" transform="translate(671.272 103.000) scale(0.041000 -0.041000)"/>
</svg>
