<svg xmlns="http://www.w3.org/2000/svg" viewBox="0 0 800 740" role="img" aria-labelledby="title desc">
  <title id="title">VibeSkills introduction</title>
  <desc id="desc">Skills are excellent local assets of reusable experience. After downloading and installing many Skills, it is easy to sometimes forget which Skills have already been installed and not know which Skills to invoke.

Further, when a complex task involves the combined organization and invocation of multiple Skills from different domains, planning becomes complicated for people: they must explain to the AI in detail which Skills each module should use, while the AI may forget these designs during execution.

Many current harness frameworks do not actively plan how to make good use of local Skill resources, and may even fall into an either-or scheduling conflict between the harness framework and domain Skill resources.

The core of this project is to follow harness frameworks similar to Superpower and GSD. Based on modular decomposition by the planning state machine, it uses different Skills to assist different modules, fully schedules existing local resources, reduces users&#x27; planning and cognitive burden, and gives users an end-to-end delivery experience.

It is committed to becoming a handy steward for the Skill resources around you. When a complex task appears, it can help users slowly sort out which modules are needed and which good experiences can be reused, then deliver an excellent result.</desc>
  <metadata>Lettering derived from Bona Nova and Noto Serif SC, licensed under SIL Open Font License 1.1.</metadata>
  <defs>
    <path id="g0" d="M262 -15Q234 -15 200 -8.5Q166 -2 135.5 12Q105 26 85.5 50.5Q66 75 66 111Q66 131 71 153Q76 175 84 189H107Q111 113 157 69Q203 25 274 25Q323 25 352.5 43Q382 61 395.5 89.5Q409 118 409 150Q409 196 386 225.5Q363 255 326.5 275.5Q290 296 249.5 314.5Q209 333 172.5 356Q136 379 113 413Q90 447 90 499Q90 553 117 593.5Q144 634 193 657Q242 680 308 680Q366 680 403.5 671Q441 662 464 653V508H441Q435 572 403 606Q371 640 301 640Q252 640 221.5 624.5Q191 609 177.5 584.5Q164 560 164 533Q164 493 187 467Q210 441 246.5 422Q283 403 324.5 384Q366 365 402.5 340Q439 315 462 278Q485 241 485 184Q485 122 456.5 77.5Q428 33 377.5 9Q327 -15 262 -15Z"/>
    <path id="g1" d="M183 101Q183 66 189 50Q195 34 208 29Q221 24 243 23V0H43V23Q66 24 79 29Q92 34 97.5 50Q103 66 103 101V657Q103 685 95 693Q87 701 72 701Q59 701 44.5 697Q30 693 18 687L8 710L181 790L187 784Q186 776 184.5 741Q183 706 183 658V212H185L308 348Q327 368 333.5 377.5Q340 387 340 395Q340 403 331 409Q322 415 284 417V440H484V417Q447 415 424.5 403.5Q402 392 376 364L302 284L420 103Q444 68 461 50.5Q478 33 495.5 28Q513 23 535 23V0Q510 -6 485 -6Q431 -6 400 15.5Q369 37 346 70L244 222L183 156Z"/>
    <path id="g2" d="M190 101Q190 66 197 50Q204 34 222.5 29Q241 24 275 23V0H50V23Q72 24 85 29Q98 34 104 50Q110 66 110 101V327Q110 355 101.5 363.5Q93 372 79 372Q66 372 51.5 367.5Q37 363 25 358L15 381L188 460L194 454Q193 446 191.5 411Q190 376 190 328ZM150 554Q128 554 113 569Q98 584 98 606Q98 627 113 642Q128 657 150 657Q172 657 187 642Q202 627 202 606Q202 584 187 569Q172 554 150 554Z"/>
    <path id="g3" d="M183 101Q183 66 190 50Q197 34 215.5 29Q234 24 268 23V0H43V23Q65 24 78 29Q91 34 97 50Q103 66 103 101V657Q103 685 94.5 693Q86 701 72 701Q59 701 44.5 697Q30 693 18 687L8 710L181 790L187 784Q186 776 184.5 741Q183 706 183 658Z"/>
    <path id="g4" d="M191 -15Q120 -15 82 12Q44 39 44 81Q44 96 50 114.5Q56 133 71 151H94Q95 87 121 53Q147 19 203 19Q253 19 277 43Q301 67 301 98Q301 126 283.5 144Q266 162 238.5 175.5Q211 189 180 201.5Q149 214 121.5 229.5Q94 245 76.5 268Q59 291 59 326Q59 381 103 418Q147 455 226 455Q257 455 289 449.5Q321 444 349 428V313H326Q319 372 288 396.5Q257 421 215 421Q174 421 153 403Q132 385 132 356Q132 329 149.5 311.5Q167 294 194.5 281Q222 268 252.5 255.5Q283 243 310.5 226.5Q338 210 355.5 185.5Q373 161 373 124Q373 57 321 21Q269 -15 191 -15Z"/>
    <path id="g5" d=""/>
    <path id="g6" d="M158 -15Q111 -15 81.5 9.5Q52 34 52 80Q52 117 75 148Q98 179 151 205Q204 231 295 253V318Q295 359 277.5 386Q260 413 211 413Q164 413 136.5 383.5Q109 354 98 292H75V417Q110 434 149.5 444.5Q189 455 237 455Q292 455 321.5 440.5Q351 426 363 400Q375 374 375 339V97Q375 44 408 44Q420 44 435.5 52Q451 60 472 85L488 69Q442 -10 378 -10Q312 -10 297 57H295Q240 -15 158 -15ZM195 44Q243 44 295 88V222Q223 204 189 182.5Q155 161 144.5 139.5Q134 118 134 100Q134 71 152 57.5Q170 44 195 44Z"/>
    <path id="g7" d="M49 0V23Q72 24 85 29Q98 34 103.5 50Q109 66 109 101V330Q109 356 101 364Q93 372 79 372Q68 372 57.5 369.5Q47 367 36 362L26 385L187 460L193 454Q191 445 188.5 415.5Q186 386 186 351H188Q229 412 278.5 433Q328 454 382 450Q390 376 382 302H359Q355 343 340.5 359.5Q326 376 300 376Q267 376 241 362Q215 348 189 316V101Q189 66 196 50Q203 34 223.5 29Q244 24 284 23V0Z"/>
    <path id="g8" d="M249 -15Q198 -15 151.5 9Q105 33 75.5 81.5Q46 130 46 205Q46 281 76 337Q106 393 156 424Q206 455 265 455Q308 455 344.5 438Q381 421 403.5 386Q426 351 426 297L126 258Q126 253 126 247Q126 155 168 103Q210 51 280 51Q320 51 354 67.5Q388 84 415 109L431 93Q403 45 356.5 15Q310 -15 249 -15ZM244 418Q192 418 164 381Q136 344 129 290L336 317Q330 360 310 389Q290 418 244 418Z"/>
    <path id="g9" d="M11 0V23Q28 24 39 29Q50 34 64 50.5Q78 67 103 100L190 220L101 342Q77 375 64 390.5Q51 406 40 411Q29 416 11 417V440H221V417Q190 416 176.5 410.5Q163 405 168.5 390Q174 375 198 342L260 258L320 342Q344 375 347 390Q350 405 333 410.5Q316 416 280 417V440H460V417Q441 416 429 410.5Q417 405 404 390Q391 375 367 342L283 226L375 100Q400 66 414.5 50Q429 34 440 29Q451 24 466 23V0H255V23Q288 24 301 29Q314 34 308.5 50Q303 66 278 100L213 188L150 100Q113 50 124 37.5Q135 25 190 23V0Z"/>
    <path id="g10" d="M249 -15Q197 -15 150.5 9.5Q104 34 75 83.5Q46 133 46 207Q46 286 79.5 341.5Q113 397 168 426Q223 455 285 455Q316 455 352.5 447Q389 439 418 419V288H395Q390 340 369 368Q348 396 320.5 407Q293 418 266 418Q200 418 164 368.5Q128 319 128 245Q128 186 148.5 142.5Q169 99 205 75Q241 51 286 51Q321 51 355.5 66.5Q390 82 418 109L434 93Q406 46 358 15.5Q310 -15 249 -15Z"/>
    <path id="g11" d="M481 101Q481 66 487.5 50Q494 34 512.5 29Q531 24 566 23V0H341V23Q363 24 376 29Q389 34 395 50Q401 66 401 101V316Q401 351 385.5 371Q370 391 332 391Q299 391 263 377Q227 363 189 333V101Q189 66 195.5 50Q202 34 220.5 29Q239 24 274 23V0H49V23Q72 24 85 29Q98 34 103.5 50Q109 66 109 101V328Q109 355 101 363.5Q93 372 79 372Q68 372 57.5 369.5Q47 367 36 362L26 385L187 460L193 454Q191 445 188.5 419Q186 393 186 364H188Q226 404 270.5 429.5Q315 455 367 455Q431 455 456 423.5Q481 392 481 340Z"/>
    <path id="g12" d="M322 87 338 71Q314 35 283 10Q252 -15 202 -15Q162 -15 138.5 1Q115 17 105 43.5Q95 70 95 101V399H26V440H95V577L180 592Q177 554 176 516Q175 478 175 440H323V399H206Q189 399 182 392Q175 385 175 368V122Q175 90 186.5 67Q198 44 234 44Q255 44 277 54.5Q299 65 322 87Z"/>
    <path id="g13" d="M274 455Q332 455 380.5 426.5Q429 398 459 347Q489 296 489 228Q489 168 468.5 122.5Q448 77 414 46.5Q380 16 339.5 0.5Q299 -15 260 -15Q203 -15 154 13.5Q105 42 75.5 93Q46 144 46 212Q46 272 66.5 317.5Q87 363 121 393.5Q155 424 195 439.5Q235 455 274 455ZM277 25Q336 25 370 67.5Q404 110 404 199Q404 260 385.5 309Q367 358 334 386.5Q301 415 257 415Q199 415 165 372.5Q131 330 131 241Q131 181 149.5 132Q168 83 201 54Q234 25 277 25Z"/>
    <path id="g14" d="M400 790Q412 721 400 652H377Q373 698 357 721Q341 744 306 744Q188 744 188 508V440H336V399H219Q202 399 195 392Q188 385 188 368V101Q188 66 195.5 50Q203 34 225.5 29Q248 24 293 23V0H48V23Q70 24 83 29Q96 34 102 50Q108 66 108 101V399H39V440H108V511Q108 610 145 675Q182 740 248 769.5Q314 799 400 790Z"/>
    <path id="g15" d="M542 77 552 54 390 -21 384 -15Q386 -6 388.5 20.5Q391 47 391 77H389Q350 37 308.5 11Q267 -15 215 -15Q152 -15 127.5 17Q103 49 103 100V330Q103 356 94.5 364Q86 372 72 372Q52 372 29 362L19 385L181 460L187 454Q186 446 184.5 411.5Q183 377 183 331V125Q183 90 197.5 70Q212 50 250 50Q282 50 316.5 63.5Q351 77 388 107V330Q388 356 380 364Q372 372 357 372Q344 372 330 367.5Q316 363 305 358L295 381L466 460L472 454Q471 446 469.5 411.5Q468 377 468 331V112Q468 84 476.5 76Q485 68 499 68Q521 68 542 77Z"/>
    <path id="g16" d="M337 457Q384 457 424.5 432.5Q465 408 489.5 361.5Q514 315 514 247Q514 183 491.5 134.5Q469 86 431.5 53Q394 20 348.5 3.5Q303 -13 257 -13Q224 -13 198 -8Q172 -3 152 5L98 -10V657Q98 685 89.5 693Q81 701 67 701Q54 701 39.5 697Q25 693 13 687L3 710L176 790L182 784Q181 776 179.5 741Q178 706 178 658V366Q204 403 243.5 430Q283 457 337 457ZM283 32Q348 32 390 75.5Q432 119 432 213Q432 299 397 348Q362 397 306 397Q272 397 239 379Q206 361 178 335V73Q202 48 231.5 40Q261 32 283 32Z"/>
    <path id="g17" d="M280 -202V-225H45V-202Q68 -201 81 -196Q94 -191 99.5 -175Q105 -159 105 -124V328Q105 355 97 363.5Q89 372 75 372Q64 372 53.5 369.5Q43 367 32 362L22 385L183 460L189 454Q187 445 184.5 419Q182 393 182 364H184V363Q210 400 249.5 427.5Q289 455 344 455Q391 455 431.5 430.5Q472 406 496.5 359.5Q521 313 521 245Q521 181 498.5 132.5Q476 84 438.5 51Q401 18 355.5 1.5Q310 -15 264 -15Q241 -15 221.5 -12.5Q202 -10 185 -6V-124Q185 -159 192 -175Q199 -191 219.5 -196Q240 -201 280 -202ZM290 30Q355 30 397 73.5Q439 117 439 211Q439 297 404 346Q369 395 313 395Q279 395 246 377Q213 359 185 333V71Q209 46 238.5 38Q268 30 290 30Z"/>
    <path id="g18" d="M97 -15Q75 -15 60 0Q45 15 45 37Q45 58 60 73Q75 88 97 88Q119 88 134 73Q149 58 149 37Q149 15 134 0Q119 -15 97 -15Z"/>
    <path id="g19" d="M543 100Q555 65 566 49.5Q577 34 592.5 29.5Q608 25 634 23V0H395V23Q429 25 445.5 30Q462 35 464 51Q466 67 454 100L397 272Q392 267 382 265.5Q372 264 361 264H230Q208 264 197 259Q186 254 178 232L131 100Q118 62 131.5 43.5Q145 25 209 23V0H2V23Q34 25 52.5 43.5Q71 62 85 100L262 586Q272 612 281 637Q290 662 297 688H346Q353 662 361.5 637Q370 612 380 586ZM363 300Q376 300 381 303.5Q386 307 381 319L299 562H297L201 297Q206 299 213 299.5Q220 300 229 300Z"/>
    <path id="g20" d="M536 77 546 54 383 -21 377 -15Q379 -6 381.5 20.5Q384 47 384 77H383Q357 40 317.5 12.5Q278 -15 223 -15Q176 -15 135.5 9.5Q95 34 70.5 81Q46 128 46 195Q46 259 68.5 307.5Q91 356 128.5 389Q166 422 211.5 438.5Q257 455 303 455Q349 455 382 446V657Q382 685 373.5 693Q365 701 351 701Q338 701 323.5 697Q309 693 297 687L287 710L460 790L466 784Q465 776 463.5 741Q462 706 462 658V112Q462 84 470.5 76Q479 68 493 68Q514 68 536 77ZM254 45Q289 45 321.5 63Q354 81 382 107V369Q358 395 328.5 402.5Q299 410 277 410Q213 410 170.5 366.5Q128 323 128 229Q128 143 163 94Q198 45 254 45Z"/>
    <path id="g21" d="M206 -8Q199 18 193 36Q187 54 176 79L70 342Q57 376 46 391Q35 406 22 411Q9 416 -10 417V440H191V417Q162 416 150 410.5Q138 405 140.5 389.5Q143 374 155 342L246 113H248L338 337L336 342Q323 376 312.5 391Q302 406 291.5 411Q281 416 268 417V440H458V417Q428 416 415.5 410.5Q403 405 404.5 389.5Q406 374 418 342L506 113H508L593 342Q610 389 597.5 402Q585 415 535 417V440H712V417Q687 415 671 402Q655 389 637 342L538 79Q528 52 522.5 35Q517 18 512 -8H468Q461 18 454 36Q447 54 437 79L359 282L277 79Q266 52 260.5 35Q255 18 249 -8Z"/>
    <path id="g22" d="M198 -235Q157 -235 121 -225Q85 -215 63 -193Q41 -171 41 -135Q41 -74 115 -30L138 -34Q125 -53 118 -75.5Q111 -98 111 -118Q111 -156 138 -177.5Q165 -199 220 -199Q272 -199 312.5 -181Q353 -163 377 -133Q401 -103 401 -68Q401 -45 388.5 -32Q376 -19 343 -14L130 22Q89 30 89 77Q89 103 106.5 131Q124 159 159 187Q118 200 89 229.5Q60 259 60 307Q60 353 87 386Q114 419 157 437Q200 455 248 455Q283 455 318 445Q353 435 378 414Q403 420 420 446Q437 472 442 517H463Q472 506 476.5 488.5Q481 471 481 457Q481 427 461.5 410.5Q442 394 400 391Q421 361 421 323Q421 278 394 244.5Q367 211 324 193Q281 175 233 175Q209 175 186 180Q172 168 163.5 153Q155 138 155 123Q155 112 161.5 103Q168 94 181 92L389 57Q434 50 458 29.5Q482 9 482 -30Q482 -65 462 -101Q442 -137 405 -167.5Q368 -198 315.5 -216.5Q263 -235 198 -235ZM246 209Q291 209 316 238Q341 267 341 310Q341 359 311.5 390Q282 421 235 421Q190 421 165 392.5Q140 364 140 320Q140 271 170 240Q200 209 246 209Z"/>
    <path id="g23" d="M49 0V23Q72 24 85 29Q98 34 103.5 50Q109 66 109 101V328Q109 355 101 363.5Q93 372 79 372Q68 372 57.5 369.5Q47 367 36 362L26 385L187 460L193 454Q191 445 188.5 419Q186 393 186 364H188Q226 404 265.5 429.5Q305 455 357 455Q413 455 439 430Q465 405 470 363Q507 405 547.5 430Q588 455 639 455Q703 455 728 423.5Q753 392 753 340V101Q753 66 760 50Q767 34 785.5 29Q804 24 838 23V0H613V23Q635 24 648 29Q661 34 667 50Q673 66 673 101V316Q673 351 657.5 371Q642 391 604 391Q544 391 471 333V101Q471 66 477.5 50Q484 34 500.5 29Q517 24 547 23V0H331V23Q353 24 366 29Q379 34 385 50Q391 66 391 101V316Q391 351 375.5 371Q360 391 322 391Q260 391 189 333V101Q189 66 195.5 50Q202 34 218 29Q234 24 264 23V0Z"/>
    <path id="g24" d="M69 -235Q35 -235 15 -213.5Q-5 -192 -5 -154Q-5 -137 -1 -120Q3 -103 10 -85H33Q36 -128 48 -149Q60 -170 87 -170Q117 -170 149.5 -124.5Q182 -79 225 8L76 342Q61 376 49.5 391Q38 406 25.5 411Q13 416 -5 417V440H208V417Q175 416 161.5 410.5Q148 405 150 389.5Q152 374 165 342L265 112H267L360 342Q380 389 366 402Q352 415 299 417V440H477V417Q462 416 450 410.5Q438 405 427.5 389.5Q417 374 404 342L297 79Q255 -25 221.5 -95Q188 -165 152.5 -200Q117 -235 69 -235Z"/>
    <path id="g25" d="M115 99Q123 81 125 63.5Q127 46 127 32Q127 -17 109 -57.5Q91 -98 63.5 -123Q36 -148 8 -153V-129Q31 -112 44 -75.5Q57 -39 57 -5Q57 8 55 25Q53 42 45 56Q55 70 75 83Q95 96 115 99Z"/>
    <path id="g26" d="M202 -15Q126 -15 79.5 12Q33 39 33 88Q33 107 41 128.5Q49 150 70 170H93Q98 131 109.5 98.5Q121 66 144.5 47Q168 28 208 28Q240 28 261.5 42.5Q283 57 283 86Q283 113 265.5 131Q248 149 221 163.5Q194 178 163 192Q132 206 105 224.5Q78 243 60.5 269Q43 295 43 334Q43 399 95.5 437Q148 475 238 475Q272 475 312.5 469Q353 463 378 448V315H356Q349 366 318 399Q287 432 238 432Q205 432 189 417.5Q173 403 173 384Q173 362 190.5 346.5Q208 331 235 317.5Q262 304 292.5 289Q323 274 350 254Q377 234 394.5 205.5Q412 177 412 136Q412 87 385 53.5Q358 20 310.5 2.5Q263 -15 202 -15Z"/>
    <path id="g27" d="M292 475Q365 475 420.5 445.5Q476 416 508 362Q540 308 540 236Q540 157 503 101Q466 45 406.5 15Q347 -15 278 -15Q206 -15 150 15Q94 45 62 98.5Q30 152 30 224Q30 303 67 359Q104 415 163.5 445Q223 475 292 475ZM295 28Q332 28 356 70Q380 112 380 200Q380 264 367 316.5Q354 369 330.5 400.5Q307 432 275 432Q238 432 214 390Q190 348 190 260Q190 196 203 143.5Q216 91 240 59.5Q264 28 295 28Z"/>
    <path id="g28" d="M38 0V23Q55 24 65 30Q75 36 79 54.5Q83 73 83 110V340Q83 355 77.5 360Q72 365 61 365Q49 365 33 361L23 384L231 481L237 475Q235 466 232.5 437Q230 408 230 378H232Q250 401 275 423Q300 445 332 460Q364 475 403 475Q458 475 487 451.5Q516 428 522 377Q540 400 565 422.5Q590 445 622.5 460Q655 475 693 475Q755 475 784 445.5Q813 416 813 351V110Q813 73 818 54.5Q823 36 836 30Q849 24 873 23V0H618V23Q635 24 645 30Q655 36 659 54.5Q663 73 663 110V309Q663 340 651.5 357.5Q640 375 610 375Q594 375 573 368.5Q552 362 523 343V110Q523 73 528 54.5Q533 36 546 30Q559 24 583 23V0H328V23Q345 24 355 30Q365 36 369 54.5Q373 73 373 110V309Q373 340 361.5 357.5Q350 375 320 375Q304 375 283 368.5Q262 362 233 343V110Q233 73 237.5 54.5Q242 36 253 30Q264 24 283 23V0Z"/>
    <path id="g29" d="M274 -15Q206 -15 150.5 14Q95 43 62.5 97Q30 151 30 225Q30 305 66 361Q102 417 161.5 446Q221 475 289 475Q381 475 428.5 425.5Q476 376 476 296L181 259Q187 174 231 137Q275 100 333 100Q362 100 399 110.5Q436 121 466 149L482 133Q454 66 405.5 25.5Q357 -15 274 -15ZM259 432Q225 432 204 396.5Q183 361 180 299L325 317Q323 364 308.5 398Q294 432 259 432Z"/>
    <path id="g30" d="M364 102 380 86Q369 61 350 38Q331 15 301.5 0Q272 -15 229 -15Q158 -15 121 27Q84 69 84 135V407H24V460H84V595L239 610Q236 572 235 535Q234 498 234 460H364V407H274Q234 407 234 367V155Q234 75 299 75Q337 75 364 102Z"/>
    <path id="g31" d="M233 110Q233 73 238 54.5Q243 36 256 30Q269 24 293 23V0H38V23Q55 24 65 30Q75 36 79 54.5Q83 73 83 110V340Q83 355 77.5 360Q72 365 61 365Q53 365 43.5 363Q34 361 23 357L13 380L231 481L237 475Q236 460 234.5 428.5Q233 397 233 349ZM163 530Q126 530 101 555.5Q76 581 76 616Q76 651 101 677Q126 703 163 703Q199 703 224 677Q249 651 249 616Q249 581 224 555.5Q199 530 163 530Z"/>
    <path id="g32" d=""/>
    <path id="g33" d="M414 790Q418 768 419.5 738Q421 708 419.5 678.5Q418 649 414 626H391Q381 688 363 710.5Q345 733 319 733Q282 733 260.5 690Q239 647 239 543V460H369V407H279Q239 407 239 367V110Q239 73 244.5 54.5Q250 36 267.5 30Q285 24 319 23V0H44V23Q61 24 71 30Q81 36 85 54.5Q89 73 89 110V407H29V460H89V508Q89 606 132 672Q175 738 248.5 768.5Q322 799 414 790Z"/>
    <path id="g34" d="M38 0V23Q55 24 65 30Q75 36 79 54.5Q83 73 83 110V340Q83 355 77.5 360Q72 365 61 365Q49 365 33 361L23 384L231 481L237 475Q235 466 232.5 436Q230 406 230 368H232Q269 424 315.5 449Q362 474 416 470Q424 383 416 295H393Q386 340 366 352Q346 364 324 364Q299 364 277 357.5Q255 351 233 333V110Q233 73 238 54.5Q243 36 258.5 30Q274 24 303 23V0Z"/>
    <path id="g35" d="M197 -235Q154 -235 114.5 -227.5Q75 -220 50 -199.5Q25 -179 25 -141Q25 -105 48.5 -76.5Q72 -48 107 -34L130 -38Q121 -58 117 -76Q113 -94 113 -108Q113 -147 144.5 -168.5Q176 -190 231 -190Q282 -190 315 -174Q348 -158 364 -134.5Q380 -111 380 -90Q380 -74 368.5 -60Q357 -46 322 -41L119 -10Q87 -5 73.5 15Q60 35 60 61Q60 96 81 129.5Q102 163 140 187Q95 205 67.5 238.5Q40 272 40 321Q40 370 68 405.5Q96 441 143.5 460Q191 479 252 479Q327 479 380 451Q412 455 432.5 480.5Q453 506 453 555H476Q501 542 510 524.5Q519 507 519 490Q519 455 492 436.5Q465 418 421 420Q438 402 447.5 378.5Q457 355 457 327Q457 278 429 242.5Q401 207 353 188Q305 169 245 169Q208 169 175 176Q160 163 160 147Q160 140 164 133.5Q168 127 182 125L417 89Q479 79 502 49.5Q525 20 525 -15Q525 -49 506 -87.5Q487 -126 447 -159.5Q407 -193 345 -214Q283 -235 197 -235ZM253 207Q285 207 301 237Q317 267 317 317Q317 376 296.5 408.5Q276 441 244 441Q213 441 196.5 411Q180 381 180 331Q180 273 201 240Q222 207 253 207Z"/>
    <path id="g36" d="M205 -10Q197 16 190 35.5Q183 55 172 79L51 360Q37 394 28 409.5Q19 425 11 430.5Q3 436 -11 437V460H230V437Q210 436 204.5 424Q199 412 202.5 395Q206 378 213 360L285 190H287L352 339L343 360Q330 394 321 409.5Q312 425 305.5 430.5Q299 436 290 437V460H527V437Q502 436 494.5 424Q487 412 490 395Q493 378 500 360L568 190H570L632 360Q639 378 639 395Q639 412 627.5 424Q616 436 587 437V460H750V437Q727 435 711 411Q695 387 684 360L576 79Q566 52 560.5 34Q555 16 549 -10H492Q485 16 476 35.5Q467 55 457 79L377 276L291 79Q279 52 273.5 34Q268 16 262 -10Z"/>
    <path id="g37" d="M532 110Q532 73 537 54.5Q542 36 555 30Q568 24 592 23V0H337V23Q354 24 364 30Q374 36 378 54.5Q382 73 382 110V309Q382 338 373 356.5Q364 375 329 375Q310 375 286.5 369Q263 363 232 343V110Q232 73 237 54.5Q242 36 255 30Q268 24 292 23V0H37V23Q54 24 64 30Q74 36 78 54.5Q82 73 82 110V649Q82 664 76.5 669Q71 674 60 674Q52 674 42.5 672Q33 670 22 666L12 689L230 790L236 784Q235 769 233.5 737.5Q232 706 232 658V378Q252 401 279 423Q306 445 339.5 460Q373 475 412 475Q474 475 503 445.5Q532 416 532 351Z"/>
    <path id="g38" d="M255 -15Q190 -15 139 14Q88 43 59 96Q30 149 30 222Q30 287 54.5 334.5Q79 382 118.5 413Q158 444 205.5 459.5Q253 475 299 475Q334 475 375 467.5Q416 460 440 443V290H417Q404 366 368.5 399Q333 432 294 432Q249 432 219.5 387.5Q190 343 190 266Q190 206 208 169.5Q226 133 255.5 116.5Q285 100 320 100Q343 100 377 110.5Q411 121 441 149L457 133Q431 70 384 27.5Q337 -15 255 -15Z"/>
    <path id="g39" d="M276 -15Q225 -15 176 -2.5Q127 10 95 40Q63 70 63 120Q63 139 70 165.5Q77 192 98 220H121Q123 172 141 128.5Q159 85 194 57.5Q229 30 281 30Q322 30 346 46.5Q370 63 381 87Q392 111 392 135Q392 174 369 201Q346 228 310.5 249Q275 270 234.5 291Q194 312 158 337.5Q122 363 99.5 399.5Q77 436 77 489Q77 579 146.5 629.5Q216 680 331 680Q382 680 428.5 671.5Q475 663 503 653V495H480Q464 550 439.5 580Q415 610 385.5 622.5Q356 635 325 635Q287 635 264.5 621.5Q242 608 232 588.5Q222 569 222 549Q222 516 244.5 491.5Q267 467 303 447Q339 427 379.5 405Q420 383 455.5 355Q491 327 514 287.5Q537 248 537 191Q537 124 503 78Q469 32 410 8.5Q351 -15 276 -15Z"/>
    <path id="g40" d="M232 110Q232 73 235.5 54.5Q239 36 249 30Q259 24 277 23V0H37V23Q54 24 64 30Q74 36 78 54.5Q82 73 82 110V649Q82 664 76.5 669Q71 674 60 674Q52 674 42.5 672Q33 670 22 666L12 689L230 790L236 784Q235 769 233.5 737.5Q232 706 232 658V231H234L360 361Q374 375 381 384.5Q388 394 388 404Q388 413 380.5 424Q373 435 343 437V460H545V437Q515 435 490 419Q465 403 446 384L388 324L501 103Q525 56 542.5 39.5Q560 23 577 23V0Q544 -15 498 -15Q447 -15 410.5 6Q374 27 356 62L279 212L232 164Z"/>
    <path id="g41" d="M232 110Q232 73 237 54.5Q242 36 255 30Q268 24 292 23V0H37V23Q54 24 64 30Q74 36 78 54.5Q82 73 82 110V649Q82 664 76.5 669Q71 674 60 674Q52 674 42.5 672Q33 670 22 666L12 689L230 790L236 784Q235 769 233.5 737.5Q232 706 232 658Z"/>
    <path id="g42" d="M146 -15Q91 -15 64.5 18Q38 51 38 94Q38 160 98.5 201Q159 242 286 276V329Q286 376 266.5 396.5Q247 417 212 417Q164 417 132.5 381Q101 345 89 284H66V428Q100 445 154.5 460Q209 475 273 475Q446 475 446 341V123Q446 100 452 87.5Q458 75 476 75Q486 75 498.5 79.5Q511 84 525 97L541 81Q519 35 483 12.5Q447 -10 401 -10Q352 -10 325.5 9.5Q299 29 288 66H286Q263 26 225 5.5Q187 -15 146 -15ZM224 75Q244 75 259.5 84.5Q275 94 286 106V236Q240 223 216.5 202Q193 181 185.5 160Q178 139 178 125Q178 104 190 89.5Q202 75 224 75Z"/>
    <path id="g43" d="M224 -10Q217 16 209 35.5Q201 55 189 79L51 360Q35 393 25 409Q15 425 7.5 430.5Q0 436 -11 437V460H240V437Q215 436 207 424Q199 412 202 395Q205 378 213 360L297 185H299L372 360Q383 386 373.5 410.5Q364 435 331 437V460H490V437Q467 435 451 410.5Q435 386 424 360L305 79Q294 52 289 34Q284 16 278 -10Z"/>
    <path id="g44" d="M570 99 580 76 373 -21 367 -15Q369 -6 371 23Q373 52 373 82H371Q352 41 310.5 13Q269 -15 211 -15Q163 -15 122 12.5Q81 40 55.5 91.5Q30 143 30 214Q30 286 55 335.5Q80 385 120.5 416Q161 447 209 461Q257 475 303 475Q323 475 340 474Q357 473 370 471V649Q370 664 364.5 669Q359 674 348 674Q331 674 310 666L300 689L518 790L524 784Q523 769 521.5 737.5Q520 706 520 658V120Q520 105 526 100Q532 95 542 95Q554 95 570 99ZM294 85Q313 85 333.5 93Q354 101 370 117V383Q342 427 294 427Q250 427 220 380.5Q190 334 190 257Q190 170 220.5 127.5Q251 85 294 85Z"/>
    <path id="g45" d="M84 -235Q39 -235 21 -208Q3 -181 3 -146Q3 -129 7 -106Q11 -83 19 -60H42Q49 -97 61 -115.5Q73 -134 99 -134Q134 -134 165 -95.5Q196 -57 222 10L55 360Q40 393 30 408.5Q20 424 12 430Q4 436 -7 437V460H246V437Q221 436 213 424Q205 412 208 395Q211 378 219 360L299 185H301L378 360Q389 386 379.5 410.5Q370 435 337 437V460H498V437Q475 435 459 410.5Q443 386 432 360L308 79Q260 -30 224.5 -99.5Q189 -169 156.5 -202Q124 -235 84 -235Z"/>
    <path id="g46" d="M384 475Q432 475 473.5 447.5Q515 420 540 369Q565 318 565 246Q565 174 540 124.5Q515 75 474.5 44Q434 13 386 -1Q338 -15 292 -15Q240 -15 209.5 -8Q179 -1 155 9L75 -10V649Q75 664 69.5 669Q64 674 53 674Q45 674 35.5 672Q26 670 15 666L5 689L223 790L229 784Q228 769 226.5 737.5Q225 706 225 658V380Q245 421 286 448Q327 475 384 475ZM301 33Q345 33 375 79.5Q405 126 405 203Q405 290 375 332.5Q345 375 301 375Q282 375 262 367.5Q242 360 225 343V77Q253 33 301 33Z"/>
    <path id="g47" d="M533 110Q533 73 538 54.5Q543 36 556 30Q569 24 593 23V0H338V23Q355 24 365 30Q375 36 379 54.5Q383 73 383 110V309Q383 338 374 356.5Q365 375 330 375Q311 375 287.5 369Q264 363 233 343V110Q233 73 238 54.5Q243 36 256 30Q269 24 293 23V0H38V23Q55 24 65 30Q75 36 79 54.5Q83 73 83 110V340Q83 355 77.5 360Q72 365 61 365Q49 365 33 361L23 384L231 481L237 475Q235 466 232.5 437Q230 408 230 378H233Q253 401 280 423Q307 445 340.5 460Q374 475 413 475Q475 475 504 445.5Q533 416 533 351Z"/>
    <path id="g48" d="M113 -15Q76 -15 51 10.5Q26 36 26 71Q26 106 51 132Q76 158 113 158Q149 158 174 132Q199 106 199 71Q199 36 174 10.5Q149 -15 113 -15Z"/>
    <path id="g49" d="M66 0V23Q93 24 108.5 29Q124 34 130 50Q136 66 136 100V565Q136 600 128.5 615.5Q121 631 101 636Q81 641 41 642V665H507V525H484Q483 557 474 580.5Q465 604 441 616.5Q417 629 370 629H265Q244 629 232.5 619Q221 609 221 565V357Q229 363 240.5 365Q252 367 268 367H409Q468 367 471 434H494V264H471Q470 304 457 317.5Q444 331 409 331H270Q243 331 232 322Q221 313 221 287V100Q221 66 228.5 50Q236 34 259 29Q282 24 326 23V0Z"/>
    <path id="g50" d="M475 101Q475 66 481.5 50Q488 34 506.5 29Q525 24 559 23V0H335V23Q358 24 371 29Q384 34 389.5 50Q395 66 395 101V316Q395 351 380 371Q365 391 326 391Q294 391 257.5 377Q221 363 183 333V101Q183 66 190 50Q197 34 215.5 29Q234 24 268 23V0H43V23Q66 24 79 29Q92 34 97.5 50Q103 66 103 101V657Q103 685 95 693Q87 701 72 701Q59 701 44.5 697Q30 693 18 687L8 710L181 790L187 784Q186 776 184.5 741Q183 706 183 658V364Q222 404 266 429.5Q310 455 362 455Q424 455 449.5 423.5Q475 392 475 340Z"/>
    <path id="g51" d="M300 -201V-224H35V-201Q52 -200 62 -194Q72 -188 76 -169.5Q80 -151 80 -114V340Q80 355 74.5 360Q69 365 58 365Q46 365 30 361L20 384L228 481L234 475Q232 466 229.5 437Q227 408 227 378H229Q248 419 289.5 447Q331 475 389 475Q437 475 478.5 447.5Q520 420 545 369Q570 318 570 246Q570 174 545 124.5Q520 75 479.5 44Q439 13 391 -1Q343 -15 297 -15Q277 -15 260.5 -14Q244 -13 230 -11V-114Q230 -151 235 -169.5Q240 -188 255.5 -194Q271 -200 300 -201ZM306 33Q350 33 380 79.5Q410 126 410 203Q410 290 380 332.5Q350 375 306 375Q287 375 267 367.5Q247 360 230 343V77Q258 33 306 33Z"/>
    <path id="g52" d="M12 0V23Q31 25 52 45.5Q73 66 95 100L177 227L84 360Q63 390 52 406Q41 422 33 429Q25 436 11 437V460H281V437Q260 436 250.5 417Q241 398 267 360L325 277L381 360Q404 394 398 415Q392 436 350 437V460H528V437Q502 436 480 415.5Q458 395 435 360L354 237L450 100Q482 56 496.5 40.5Q511 25 524 23V0H253V23Q267 24 278 31Q289 38 288.5 54.5Q288 71 267 100L206 187L149 100Q127 66 132.5 45.5Q138 25 180 23V0Z"/>
    <path id="g53" d="M18 0V23Q28 33 37.5 45Q47 57 58 75L278 418V420L160 410Q119 406 101.5 375.5Q84 345 82 300H59V460H471V437Q462 427 452 413.5Q442 400 432 385L216 42V40L350 50Q385 53 407 70.5Q429 88 440.5 113.5Q452 139 455 165H478L470 0Z"/>
    <path id="g54" d="M573 99 583 76 375 -21 369 -15Q371 -6 373.5 23Q376 52 376 82H373Q353 60 327 37.5Q301 15 269 0Q237 -15 198 -15Q137 -15 107.5 15Q78 45 78 109V340Q78 355 72.5 360Q67 365 56 365Q44 365 28 361L18 384L226 481L232 475Q231 460 229.5 428.5Q228 397 228 349V151Q228 123 236.5 104Q245 85 276 85Q296 85 319 91Q342 97 373 116V340Q373 355 367.5 360Q362 365 351 365Q339 365 323 361L313 384L521 481L527 475Q526 460 524.5 428.5Q523 397 523 349V120Q523 105 529 100Q535 95 545 95Q557 95 573 99Z"/>
    <path id="g55" d="M44 0V23Q61 24 71 30Q81 36 85 54.5Q89 73 89 110V407H29V460H89V488Q89 556 116 607.5Q143 659 187 694Q231 729 284.5 747Q338 765 391 765Q428 765 461 759Q494 753 522 743Q608 802 734 790Q738 768 739.5 738Q741 708 739.5 678.5Q738 649 734 626H711Q701 688 683 710.5Q665 733 639 733Q602 733 580.5 690Q559 647 559 543V460H689V407H599Q559 407 559 367V110Q559 73 564.5 54.5Q570 36 587.5 30Q605 24 639 23V0H364V23Q381 24 391 30Q401 36 405 54.5Q409 73 409 110V407H279Q239 407 239 367V110Q239 73 243 54.5Q247 36 257 30Q267 24 284 23V0ZM239 523V460H409V508Q409 581 435 639Q416 708 351 708Q324 708 298 690Q272 672 255.5 631.5Q239 591 239 523Z"/>
    <path id="g56" d="M153 163Q164 135 168.5 104.5Q173 74 173 54Q173 3 149 -42Q125 -87 84.5 -119Q44 -151 -7 -162V-133Q13 -121 25.5 -97.5Q38 -74 44.5 -47Q51 -20 51 2Q51 17 47 45.5Q43 74 30 102Q53 127 86.5 144Q120 161 153 163Z"/>
    <path id="g57" d="M113 -15Q76 -15 51 10.5Q26 36 26 71Q26 106 51 132Q76 158 113 158Q149 158 174 132Q199 106 199 71Q199 36 174 10.5Q149 -15 113 -15ZM113 265Q76 265 51 290.5Q26 316 26 351Q26 386 51 412Q76 438 113 438Q149 438 174 412Q199 386 199 351Q199 316 174 290.5Q149 265 113 265Z"/>
    <path id="g58" d="M75 0V23Q102 24 117.5 29Q133 34 139 50Q145 66 145 100V565Q145 600 137.5 615.5Q130 631 110 636Q90 641 50 642V665H300V642Q273 641 258 636Q243 631 236.5 615.5Q230 600 230 565V100Q230 66 237.5 50Q245 34 265.5 29Q286 24 325 23V0Z"/>
    <path id="g59" d="M597 100Q611 66 620.5 50Q630 34 641 29.5Q652 25 668 23V0H389V23Q429 25 433.5 47Q438 69 426 100L376 230Q370 225 360.5 223.5Q351 222 340 222H227Q206 222 195 217Q184 212 176 192L140 100Q127 67 142 46Q157 25 201 23V0H19V23Q41 25 56.5 45.5Q72 66 85 100L277 586Q288 612 296.5 637Q305 662 312 688H370Q377 662 386 637Q395 612 405 586ZM335 265Q349 265 353.5 269.5Q358 274 352 289L283 460H281L203 261Q208 264 215 264.5Q222 265 231 265Z"/>
    <path id="g60" d="M63 0V23Q92 25 105 38Q118 51 118 100V565Q118 614 103.5 627.5Q89 641 48 642V665H333V642Q304 641 291 627.5Q278 614 278 565V100Q278 51 293 38Q308 25 348 23V0Z"/>
    <path id="g61" d="M432 -8Q424 15 413 38.5Q402 62 383 104L192 529H190L170 100Q169 63 187 44Q205 25 266 23V0H53V23Q92 25 107.5 44Q123 63 124 100L147 565Q149 600 142.5 615.5Q136 631 117 636Q98 641 60 642V665H230Q238 639 247.5 616Q257 593 270 565L472 121H474L660 565Q671 591 679.5 615.5Q688 640 695 665H853V642Q825 641 809 636Q793 631 787.5 615.5Q782 600 783 565L804 100Q806 66 813 50Q820 34 838.5 29.5Q857 25 890 23V0H658V23Q682 25 696 29.5Q710 34 715.5 50Q721 66 719 100L700 536H698L515 104Q498 62 488.5 38.5Q479 15 473 -8Z"/>
    <path id="g62" d="M213 -10Q206 16 199.5 35Q193 54 182 79L70 342Q56 376 44.5 391Q33 406 20.5 411Q8 416 -10 417V440H201V417Q167 416 153 410.5Q139 405 141 389.5Q143 374 156 342L253 112H255L350 342Q370 389 357.5 402Q345 415 292 417V440H469V417Q454 416 442 410.5Q430 405 419.5 389.5Q409 374 395 342L284 79Q273 52 268 34Q263 16 257 -10Z"/>
    <path id="g63" d="M339 212 29 185 22 266 332 293Z"/>
    <path id="g64" d="M44 0V23Q61 24 71 30Q81 36 85 54.5Q89 73 89 110V407H29V460H89V508Q89 578 117.5 630.5Q146 683 193.5 718.5Q241 754 297.5 772Q354 790 411 790Q462 790 502.5 780Q543 770 563 760Q562 745 560.5 713Q559 681 559 633V110Q559 73 564 54.5Q569 36 582 30Q595 24 619 23V0H364V23Q381 24 391 30Q401 36 405 54.5Q409 73 409 110V626Q409 685 390.5 709Q372 733 344 733Q320 733 295.5 714.5Q271 696 255 654.5Q239 613 239 543V460H354V407H279Q239 407 239 367V110Q239 73 243 54.5Q247 36 257 30Q267 24 284 23V0Z"/>
    <path id="g65" d="M41 665H580V509H557Q555 544 546 571Q537 598 512 613.5Q487 629 436 629H353V100Q353 66 360.5 50Q368 34 388.5 29Q409 24 448 23V0H198V23Q225 24 240.5 29Q256 34 262 50Q268 66 268 100V629H184Q134 629 109 613.5Q84 598 75 571Q66 544 64 509H41Z"/>
    <path id="g66" d="M184 460 190 454Q189 446 187.5 411Q186 376 186 328V-13Q186 -111 141 -172Q96 -233 9 -235V-213Q55 -205 80.5 -157.5Q106 -110 106 2V327Q106 355 97.5 363.5Q89 372 75 372Q62 372 47.5 367.5Q33 363 21 358L11 381ZM143 554Q121 554 106 569Q91 584 91 606Q91 627 106 642Q121 657 143 657Q165 657 180 642Q195 627 195 606Q195 584 180 569Q165 554 143 554Z"/>
    <path id="g67" d="M396 -15Q328 -15 267 9.5Q206 34 159.5 79Q113 124 86.5 187Q60 250 60 327Q60 409 90 474.5Q120 540 172 586Q224 632 292 656Q360 680 436 680Q490 680 547.5 669Q605 658 639 643V490H616Q612 549 582.5 581.5Q553 614 510.5 627Q468 640 425 640Q352 640 291 607.5Q230 575 193.5 510Q157 445 157 345Q157 245 193 173Q229 101 288.5 62Q348 23 418 23Q465 23 504 41.5Q543 60 560 98Q563 105 567.5 127.5Q572 150 572 190Q572 239 561.5 260.5Q551 282 525 288Q499 294 453 295V318H686V295Q665 294 658.5 282.5Q652 271 652 248V190Q652 163 653 139Q654 115 660 89Q643 72 605.5 47.5Q568 23 515 4Q462 -15 396 -15Z"/>
    <path id="g68" d="M66 0V23Q93 24 108 29Q123 34 129.5 50Q136 66 136 100V565Q136 600 128.5 615.5Q121 631 101 636Q81 641 41 642V665H136Q204 665 256.5 667.5Q309 670 346 670Q454 670 534.5 634.5Q615 599 660 529Q705 459 705 353Q705 271 675 205.5Q645 140 593.5 94Q542 48 477.5 24Q413 0 343 0ZM313 36Q465 36 536.5 117.5Q608 199 608 338Q608 445 572.5 510Q537 575 472 604.5Q407 634 318 634Q263 634 242 622.5Q221 611 221 565V100Q221 57 241.5 46.5Q262 36 313 36Z"/>
    <path id="g69" d="M66 0V23Q93 24 108.5 29Q124 34 130 50Q136 66 136 100V565Q136 600 128.5 615.5Q121 631 101 636Q81 641 41 642V665H136Q185 665 216 666.5Q247 668 273.5 669Q300 670 335 670Q441 670 490 633.5Q539 597 539 538Q539 477 499 441Q459 405 401 384V382Q462 379 509.5 358.5Q557 338 585 301Q613 264 613 211Q613 159 585.5 110.5Q558 62 499.5 31Q441 0 347 0ZM221 370Q234 379 245.5 381.5Q257 384 273 385Q303 388 333.5 394.5Q364 401 389.5 416Q415 431 431 457.5Q447 484 447 525Q447 572 425 595Q403 618 370 626Q337 634 302 634Q259 634 240 623Q221 612 221 565ZM339 36Q410 36 449.5 62Q489 88 505 126.5Q521 165 521 203Q521 258 493.5 290.5Q466 323 419.5 337.5Q373 352 315 352Q266 352 243.5 339.5Q221 327 221 293V100Q221 71 231 57.5Q241 44 266.5 40Q292 36 339 36Z"/>
    <path id="g70" d="M48 0V23Q70 24 83 29Q96 34 102 50Q108 66 108 101V399H39V440H108V486Q108 574 147 636Q186 698 255 731.5Q324 765 412 765Q478 765 529 751Q603 801 713 790Q725 721 713 652H690Q686 698 670 721Q654 744 619 744Q501 744 501 508V440H649V399H532Q515 399 508 392Q501 385 501 368V101Q501 66 508.5 50Q516 34 538.5 29Q561 24 606 23V0H361V23Q383 24 396 29Q409 34 415 50Q421 66 421 101V399H218Q201 399 194 392Q187 385 187 368V101Q187 66 193 50Q199 34 212 29Q225 24 247 23V0ZM187 483V440H421V511Q421 563 432 606.5Q443 650 463 683Q450 700 427 709.5Q404 719 369 719Q288 719 237.5 660.5Q187 602 187 483Z"/>
    <path id="g71" d="M109 680Q106 647 102 604Q98 561 92.5 516.5Q87 472 80 432H57Q50 472 44.5 516.5Q39 561 35 604Q31 647 28 680Q69 688 109 680Z"/>
    <path id="g72" d="M284 227 27 204 24 260 280 282Z"/>
    <path id="g73" d="M42 0V23Q61 24 70.5 28.5Q80 33 84.5 49Q89 65 91 100L123 565Q126 600 120.5 615.5Q115 631 98.5 636Q82 641 52 642V665H242V642Q223 641 213.5 636Q204 631 200 615.5Q196 600 193 565L161 100Q159 65 164 49Q169 33 185.5 28.5Q202 24 232 23V0Z"/>
    <path id="g74" d="M95 -15Q85 -2 81 17.5Q77 37 77 63Q77 98 81 155Q85 212 90.5 279Q96 346 100 410H17V440H102Q107 481 110.5 516Q114 551 115 575L184 590Q181 562 176 523Q171 484 166 440H286V410H192Q175 410 169 403.5Q163 397 161 378Q157 322 152.5 268.5Q148 215 145 171.5Q142 128 142 102Q142 88 146 77Q150 66 159 66Q181 66 235 125L251 109Q234 87 207 62.5Q180 38 150.5 17.5Q121 -3 95 -15Z"/>
    <path id="g75" d=""/>
    <path id="g76" d="M121 -15Q101 11 101 64Q101 90 104.5 129Q108 168 113 210Q118 252 121.5 287Q125 322 125 341Q125 361 116 361Q106 361 79 340Q52 319 26 291L10 307Q28 329 58 359Q88 389 121 416Q154 443 178 455Q184 442 187 421.5Q190 401 190 376Q190 354 186.5 316.5Q183 279 178 237.5Q173 196 169.5 159Q166 122 166 99Q166 88 169.5 77Q173 66 183 66Q205 66 259 125L275 109Q258 87 231 62.5Q204 38 175 17.5Q146 -3 121 -15ZM163 560Q147 560 139 569.5Q131 579 131 593Q131 616 150.5 635Q170 654 193 654Q210 654 217.5 644.5Q225 635 225 621Q225 596 205.5 578Q186 560 163 560Z"/>
    <path id="g77" d="M146 -15Q120 -15 91.5 -6Q63 3 44 21Q25 39 25 66Q25 92 44 111.5Q63 131 89 153L105 137Q90 123 84.5 113Q79 103 79 93Q79 69 102.5 52Q126 35 166 35Q213 35 244 59Q275 83 275 123Q275 149 255 167Q235 185 179 213Q151 227 125.5 242Q100 257 84 275.5Q68 294 68 317Q68 345 90.5 377Q113 409 150 432Q187 455 232 455Q267 455 298 441Q329 427 351 395L304 314L284 324Q301 357 292.5 378.5Q284 400 262 411Q240 422 215 422Q177 422 152.5 398.5Q128 375 128 340Q128 329 133 320.5Q138 312 156.5 300.5Q175 289 213 269Q259 246 283 231Q307 216 316 201Q325 186 325 163Q325 116 299.5 75.5Q274 35 233 10Q192 -15 146 -15Z"/>
    <path id="g78" d="M150 -15Q121 -15 95.5 -0.5Q70 14 54.5 46Q39 78 39 130Q39 193 61.5 251Q84 309 121 355Q158 401 202.5 428Q247 455 290 455Q321 455 343 441.5Q365 428 382 405L315 289L294 297Q316 343 316.5 370Q317 397 304 408.5Q291 420 270 420Q238 420 209 397Q180 374 157.5 336Q135 298 122 252Q109 206 109 161Q109 108 128 79Q147 50 183 50Q215 50 256.5 75.5Q298 101 340 160L361 152Q313 68 257 26.5Q201 -15 150 -15Z"/>
    <path id="g79" d="M164 -15Q113 -15 76.5 22.5Q40 60 40 137Q40 197 63 254Q86 311 123.5 356.5Q161 402 207 428.5Q253 455 299 455Q352 455 388 417Q424 379 424 302Q424 241 400.5 184Q377 127 339 82Q301 37 255 11Q209 -15 164 -15ZM202 35Q243 35 278 66.5Q313 98 334 150Q355 202 354 263Q354 302 344 334Q334 366 314 385.5Q294 405 261 405Q220 405 185.5 373Q151 341 130.5 289.5Q110 238 110 177Q110 112 134 73.5Q158 35 202 35Z"/>
    <path id="g80" d="M76 -15Q78 6 82 43.5Q86 81 90 126Q94 171 98 214.5Q102 258 104.5 292Q107 326 107 341Q107 361 98 361Q84 361 49 323L33 339Q59 371 92.5 403.5Q126 436 160 455Q166 442 169 421.5Q172 401 172 376Q172 337 167 298Q162 259 154 208H156Q209 317 269.5 380.5Q330 444 376 455Q390 444 397 423Q404 402 404 376Q404 337 399 298Q394 259 386 208H388Q441 317 502 380.5Q563 444 609 455Q623 444 630 423Q637 402 637 376Q637 354 633.5 316.5Q630 279 625 237.5Q620 196 616.5 159Q613 122 613 99Q613 88 616.5 77Q620 66 630 66Q640 66 655.5 77.5Q671 89 690 108L707 92Q679 60 640 30.5Q601 1 568 -15Q548 11 548 64Q548 90 551.5 129Q555 168 560 210Q565 252 568.5 287Q572 322 572 341Q572 362 569 370.5Q566 379 558 379Q542 379 514.5 348Q487 317 455 264Q425 215 399 152Q373 89 373 0Q340 -3 308 -15Q310 6 314 43.5Q318 81 322.5 126Q327 171 330.5 214.5Q334 258 336.5 292Q339 326 339 341Q339 362 336 370.5Q333 379 325 379Q309 379 281.5 348Q254 317 222 264Q192 215 166.5 152Q141 89 141 0Q108 -3 76 -15Z"/>
    <path id="g81" d="M160 -15Q133 -15 105 -1Q77 13 58.5 46Q40 79 40 134Q40 194 63 251Q86 308 124 354.5Q162 401 208.5 428Q255 455 301 455Q346 455 360.5 436.5Q375 418 375 393Q375 347 341 306.5Q307 266 247 225Q187 184 109 136Q116 93 138.5 71.5Q161 50 190 50Q230 50 267.5 74Q305 98 335 142L356 134Q334 95 301.5 61Q269 27 232.5 6Q196 -15 160 -15ZM107 166Q107 164 107 165Q300 285 300 378Q300 398 290.5 406.5Q281 415 266 415Q239 415 211 393Q183 371 159.5 334.5Q136 298 121.5 254Q107 210 107 166Z"/>
    <path id="g82" d="M139 -15Q93 -15 66 20.5Q39 56 39 118Q39 173 60 232Q81 291 116.5 341.5Q152 392 196 423.5Q240 455 286 455Q315 455 334 443.5Q353 432 364 420Q372 491 377 560Q382 629 382 676Q382 696 373 696Q363 696 344 676.5Q325 657 299 628L282 644Q300 667 326 696.5Q352 726 381 752Q410 778 435 790Q441 777 444 756.5Q447 736 447 711Q447 664 442 603Q437 542 430 474Q423 406 416 338Q409 270 404 208.5Q399 147 399 99Q399 88 402.5 77Q406 66 416 66Q426 66 441.5 77.5Q457 89 476 108L493 92Q465 60 426 30.5Q387 1 354 -15Q334 11 334 64Q334 84 335.5 106Q337 128 339 150H337Q299 79 246 32Q193 -15 139 -15ZM169 45Q198 45 230 68Q262 91 289.5 130Q317 169 334.5 217Q352 265 352 315Q352 343 345 368Q338 393 322.5 409Q307 425 279 425Q243 425 212.5 399Q182 373 158.5 331Q135 289 122 240Q109 191 109 145Q109 102 122.5 73.5Q136 45 169 45Z"/>
    <path id="g83" d="M62 -15Q67 36 73.5 107.5Q80 179 87 259Q94 339 100 418Q106 497 109.5 564.5Q113 632 113 676Q113 696 104 696Q94 696 75 676.5Q56 657 30 628L13 644Q31 667 57 696.5Q83 726 112 752Q141 778 166 790Q172 777 175 756.5Q178 736 178 711Q178 657 173.5 588.5Q169 520 162 444Q155 368 147 290H149Q187 361 240.5 408Q294 455 348 455Q394 455 421.5 419.5Q449 384 449 322Q449 267 428 208Q407 149 371.5 98.5Q336 48 292 16.5Q248 -15 202 -15Q181 -15 161 -7.5Q141 0 127 15ZM208 15Q244 15 275 41Q306 67 329.5 109.5Q353 152 366 201Q379 250 379 295Q379 338 365 366.5Q351 395 319 395Q290 395 258 372Q226 349 198.5 310Q171 271 153.5 223Q136 175 136 124Q136 97 142.5 72Q149 47 165 31Q181 15 208 15Z"/>
    <path id="g84" d="M76 -15Q78 6 82 43.5Q86 81 90 126Q94 171 98 214.5Q102 258 104.5 292Q107 326 107 341Q107 361 98 361Q84 361 49 323L33 339Q59 371 92.5 403.5Q126 436 160 455Q166 442 169 421.5Q172 401 172 376Q172 337 167 298Q162 259 154 208H156Q195 278 237 331Q279 384 318.5 416Q358 448 389 455Q403 444 410 423Q417 402 417 376Q417 354 413.5 316.5Q410 279 405 237.5Q400 196 396.5 159Q393 122 393 99Q393 88 396.5 77Q400 66 410 66Q420 66 435.5 77.5Q451 89 470 108L487 92Q459 60 420 30.5Q381 1 348 -15Q328 11 328 64Q328 90 331.5 129Q335 168 340 210Q345 252 348.5 287Q352 322 352 341Q352 362 349 370.5Q346 379 338 379Q322 379 291.5 347.5Q261 316 226 264Q193 215 167 152Q141 89 141 0Q108 -3 76 -15Z"/>
    <path id="g85" d="M165 -235Q122 -235 83.5 -223.5Q45 -212 21 -191.5Q-3 -171 -3 -143Q-3 -113 24 -89.5Q51 -66 82 -50L102 -60Q83 -79 75 -96Q67 -113 67 -124Q67 -143 85 -158Q103 -173 133 -182Q163 -191 197 -191Q230 -191 261 -183.5Q292 -176 312 -161.5Q332 -147 332 -128Q332 -115 312 -105L103 -6Q89 1 95 18L124 97Q95 105 72.5 128.5Q50 152 50 199Q50 242 70 287Q90 332 123.5 370Q157 408 198.5 431.5Q240 455 284 455Q308 455 332.5 446Q357 437 372 415Q406 425 418 515H438Q459 485 459 454Q459 424 438 410Q417 396 384 394Q391 374 391 349Q391 308 373.5 265.5Q356 223 325.5 185.5Q295 148 257 123.5Q219 99 177 94Q157 92 150.5 82Q144 72 144 63Q144 53 151 47.5Q158 42 171 36L367 -56Q378 -61 387.5 -70Q397 -79 397 -94Q397 -112 380.5 -136Q364 -160 333 -182.5Q302 -205 259.5 -220Q217 -235 165 -235ZM183 131Q215 131 241 149.5Q267 168 285.5 198Q304 228 313.5 262Q323 296 323 326Q323 364 307.5 390Q292 416 257 416Q226 416 200.5 398Q175 380 156.5 351Q138 322 128 288Q118 254 118 222Q118 183 133.5 157Q149 131 183 131Z"/>
    <path id="g86" d="M129 -15Q82 -15 61 21Q40 57 40 106Q40 149 55.5 197Q71 245 98 290.5Q125 336 159.5 373.5Q194 411 232 433Q270 455 307 455Q329 455 344 447Q359 439 372 428L431 455Q415 307 409 216Q403 125 403 98Q403 87 406.5 76.5Q410 66 419 66Q429 66 445 77.5Q461 89 480 108L497 92Q468 60 428.5 30.5Q389 1 356 -15Q337 10 337 60Q337 92 340 121.5Q343 151 350 203H348Q299 103 242 44Q185 -15 129 -15ZM159 50Q181 50 207.5 69.5Q234 89 260 121.5Q286 154 308 193.5Q330 233 343 274Q356 315 356 350Q356 366 352 383.5Q348 401 336 413Q324 425 300 425Q262 425 228 396.5Q194 368 167.5 323Q141 278 125.5 228Q110 178 110 134Q110 95 121 72.5Q132 50 159 50Z"/>
    <path id="g87" d="M62 -15Q67 36 73.5 107.5Q80 179 87 259Q94 339 100 418Q106 497 109.5 564.5Q113 632 113 676Q113 696 104 696Q94 696 75 676.5Q56 657 30 628L13 644Q31 667 57 696.5Q83 726 112 752Q141 778 166 790Q172 777 175 756.5Q178 736 178 711Q178 657 173.5 588.5Q169 520 162 444Q155 368 147 290H149Q174 333 212.5 370.5Q251 408 292.5 431.5Q334 455 366 455Q397 455 419.5 427Q442 399 442 322Q442 268 429.5 210Q417 152 392.5 101.5Q368 51 332 19Q296 -13 250 -15Q243 6 248 29.5Q253 53 271 64Q277 59 285 54.5Q293 50 301 50Q320 50 333.5 74.5Q347 99 355.5 137Q364 175 368 216Q372 257 372 291Q372 354 359 374Q346 394 325 394Q301 394 272 377Q243 360 216 331Q189 302 170 265Q143 213 136 151Q129 89 127 0Q94 -3 62 -15Z"/>
    <path id="g88" d="M30 -235Q10 -235 4 -207Q-2 -179 1.5 -137.5Q5 -96 14 -58H37Q34 -103 37.5 -131.5Q41 -160 60 -160Q74 -160 93.5 -145Q113 -130 132 -104Q151 -78 164 -45.5Q177 -13 177 22Q177 51 170 94Q163 137 153 176Q141 225 127 264.5Q113 304 100 327.5Q87 351 76 351Q67 351 53.5 335.5Q40 320 28 297L9 308Q28 346 52.5 386Q77 426 105 455Q126 436 147.5 392Q169 348 187 291.5Q205 235 218 177.5Q231 120 235 75H237Q281 165 300 258Q319 351 297 439Q314 447 335.5 451Q357 455 375 455Q381 412 371 354.5Q361 297 338.5 231.5Q316 166 285.5 100Q255 34 220.5 -26Q186 -86 151 -133Q116 -180 84.5 -207.5Q53 -235 30 -235Z"/>
    <path id="g89" d="M118 -15Q83 11 83 64Q83 90 86.5 129Q90 168 95 210Q100 252 103.5 287Q107 322 107 341Q107 361 98 361Q84 361 49 323L33 339Q59 371 92.5 403.5Q126 436 160 455Q166 442 169 421.5Q172 401 172 376Q172 354 168.5 316.5Q165 279 160 237.5Q155 196 151.5 159Q148 122 148 99Q148 78 151.5 69.5Q155 61 162 61Q173 61 207.5 91Q242 121 276 176Q306 225 326.5 291.5Q347 358 347 440Q379 452 412 455Q405 412 400.5 370.5Q396 329 396 291Q396 248 401 205Q406 162 415.5 126.5Q425 91 438.5 69.5Q452 48 470 48Q490 48 511 74Q532 100 551 142Q570 184 581.5 233.5Q593 283 593 331Q593 352 588 375Q583 398 565 398Q549 398 527 380.5Q505 363 485 345L469 361Q491 386 518.5 411Q546 436 571.5 453Q597 470 612 470Q632 470 640 440.5Q648 411 648 378Q648 325 634 269.5Q620 214 596.5 163Q573 112 546 72Q519 32 492.5 8.5Q466 -15 445 -15Q424 -15 405.5 7Q387 29 372 65Q357 101 347.5 142Q338 183 336 222H334Q308 163 269 113.5Q230 64 189.5 30.5Q149 -3 118 -15Z"/>
    <path id="g90" d="M76 -15Q78 6 82 43.5Q86 81 90 126Q94 171 98 214.5Q102 258 104.5 292Q107 326 107 341Q107 361 98 361Q84 361 49 323L33 339Q59 371 92.5 403.5Q126 436 160 455Q166 442 169 421.5Q172 401 172 376Q172 346 169 317Q166 288 160 250H162Q204 331 245 385Q286 439 329 455Q347 440 350.5 412Q354 384 349.5 349Q345 314 337 278H314Q318 313 315 336.5Q312 360 293 360Q281 360 262 346Q243 332 212 279Q182 229 161.5 159Q141 89 141 0Q108 -3 76 -15Z"/>
    <path id="g91" d="M23 -235V-212Q58 -198 69.5 -148.5Q81 -99 88 0L116 410H46V440H118Q129 596 172 681.5Q215 767 265 790Q288 771 295 736.5Q302 702 297.5 664Q293 626 283 593H261Q265 626 262 654.5Q259 683 252 700.5Q245 718 233 718Q223 718 214.5 694Q206 670 198.5 609.5Q191 549 183 440H298V410H208Q192 410 186 403.5Q180 397 178 378L151 -15Q144 -127 106.5 -180Q69 -233 23 -235Z"/>
    <path id="g92" d="M209 -15Q167 -15 126.5 -1.5Q86 12 59.5 37Q33 62 33 98Q33 114 42 130L89 210L109 201Q91 162 91 134Q91 104 113 81.5Q135 59 169 47Q203 35 239 35Q319 35 357.5 75Q396 115 396 181Q396 212 379 235.5Q362 259 328.5 283Q295 307 245 338Q179 380 142.5 408.5Q106 437 91.5 460.5Q77 484 77 510Q77 550 105.5 589Q134 628 185.5 654Q237 680 306 680Q346 680 387 672Q428 664 451 653L442 510H419Q419 570 389 607.5Q359 645 292 645Q247 645 211.5 629Q176 613 155 589Q134 565 134 539Q134 504 177.5 474Q221 444 288 402Q349 364 385.5 336.5Q422 309 438.5 281.5Q455 254 455 215Q455 150 424.5 97.5Q394 45 339 15Q284 -15 209 -15Z"/>
    <path id="g93" d="M463 23 469 0Q450 -7 433.5 -11Q417 -15 397 -15Q362 -15 330.5 9Q299 33 258 73Q207 124 182 147.5Q157 171 139 171Q134 130 130.5 85Q127 40 127 0Q94 -3 62 -15Q67 36 73.5 107.5Q80 179 87 259Q94 339 100 418Q106 497 109.5 564.5Q113 632 113 676Q113 696 104 696Q94 696 75 676.5Q56 657 30 628L13 644Q31 667 57 696.5Q83 726 112 752Q141 778 166 790Q172 777 175 756.5Q178 736 178 711Q178 657 173.5 588.5Q169 520 162 444Q155 368 147 290H149Q174 330 205 368Q236 406 273 430.5Q310 455 351 455Q387 455 402 436.5Q417 418 417 389Q417 350 393.5 311.5Q370 273 327.5 241Q285 209 228 190V188L309 106Q351 64 375 45Q399 26 418 23Q437 20 463 23ZM317 405Q295 405 267.5 384.5Q240 364 213.5 331.5Q187 299 167.5 262.5Q148 226 141 194Q211 202 256.5 229.5Q302 257 324.5 293.5Q347 330 347 364Q347 382 340.5 393.5Q334 405 317 405Z"/>
    <path id="g94" d="M97 -15Q77 11 77 64Q77 115 81 178.5Q85 242 91.5 310.5Q98 379 104 446Q110 513 114 572.5Q118 632 118 676Q118 696 109 696Q99 696 80 676.5Q61 657 35 628L18 644Q36 667 62 696.5Q88 726 117 752Q146 778 171 790Q177 777 180 756.5Q183 736 183 711Q183 664 179 603Q175 542 169 474Q163 406 156.5 338Q150 270 146 208.5Q142 147 142 99Q142 88 145.5 77Q149 66 159 66Q181 66 235 125L251 109Q234 87 207 62.5Q180 38 151 17.5Q122 -3 97 -15Z"/>
    <path id="g95" d="M118 -15Q83 11 83 64Q83 90 86.5 129Q90 168 95 210Q100 252 103.5 287Q107 322 107 341Q107 361 98 361Q84 361 49 323L33 339Q59 371 92.5 403.5Q126 436 160 455Q166 442 169 421.5Q172 401 172 376Q172 354 168.5 316.5Q165 279 160 237.5Q155 196 151.5 159Q148 122 148 99Q148 78 151.5 69.5Q155 61 162 61Q178 61 204.5 92.5Q231 124 265 176Q297 226 322 289Q347 352 347 440Q379 452 412 455Q410 434 406 396.5Q402 359 397.5 314Q393 269 389.5 225.5Q386 182 383.5 148Q381 114 381 99Q381 88 384.5 77Q388 66 398 66Q408 66 423.5 77.5Q439 89 458 108L475 92Q447 60 408 30.5Q369 1 336 -15Q316 11 316 64Q316 103 321 142Q326 181 334 233H332Q278 128 221.5 66Q165 4 118 -15Z"/>
    <path id="g96" d="M80 -15Q64 -15 56 -5.5Q48 4 48 18Q48 41 67.5 60Q87 79 110 79Q127 79 134.5 69.5Q142 60 142 46Q142 21 122.5 3Q103 -15 80 -15Z"/>
    <path id="g97" d="M155 -8Q153 18 150.5 39Q148 60 146 79L86 565Q82 600 74.5 615.5Q67 631 54.5 636Q42 641 23 642V665H223V642Q190 641 174.5 636Q159 631 156.5 615.5Q154 600 158 565L211 137H213L425 673H468Q475 645 482.5 617.5Q490 590 498 563L624 137H625L732 565Q741 600 737.5 615.5Q734 631 716 636Q698 641 663 642V665H841V642Q825 641 813 636Q801 631 792 615.5Q783 600 774 565L646 79Q641 60 636.5 39Q632 18 628 -8H585Q576 42 565 79L423 560H421L226 79Q217 57 211 37.5Q205 18 198 -8Z"/>
    <path id="g98" d="M59 -240Q65 -186 72.5 -110.5Q80 -35 87 47Q94 129 99 206Q104 283 104 341Q104 361 95 361Q81 361 46 323L30 339Q56 371 89.5 403.5Q123 436 157 455Q163 442 166 421.5Q169 401 169 376Q169 337 166 290H168Q206 361 259 408Q312 455 366 455Q412 455 439.5 419.5Q467 384 467 322Q467 267 446 208Q425 149 389.5 98.5Q354 48 310 16.5Q266 -15 220 -15Q199 -15 179 -7.5Q159 0 145 15Q138 -46 132 -111.5Q126 -177 124 -225Q90 -231 59 -240ZM226 15Q262 15 293 41Q324 67 347.5 109.5Q371 152 384 201Q397 250 397 295Q397 338 383 366.5Q369 395 337 395Q308 395 276 372Q244 349 216.5 310Q189 271 171.5 223Q154 175 154 124Q154 97 160.5 72Q167 47 183 31Q199 15 226 15Z"/>
    <path id="g99" d="M55 -15Q42 -15 35.5 0.5Q29 16 28 40.5Q27 65 30 93Q33 121 37 145H60Q60 111 63 85.5Q66 60 80 60Q97 60 116 80.5Q135 101 155 132.5Q175 164 194 198Q172 289 158.5 329Q145 369 126 369Q114 369 98 356Q82 343 63 323L47 339Q73 371 107 403.5Q141 436 175 455Q186 444 197.5 415.5Q209 387 219.5 350Q230 313 239 275Q254 301 273 332Q292 363 312.5 391Q333 419 353 437Q373 455 390 455Q403 455 407 439.5Q411 424 409 400.5Q407 377 402 351.5Q397 326 392 305H369Q371 340 368.5 353.5Q366 367 355 367Q337 367 308 328.5Q279 290 249 236Q262 183 273.5 141Q285 99 298 75Q311 51 328 51Q338 51 353 61.5Q368 72 395 97L411 81Q383 49 350 23.5Q317 -2 285 -15Q259 -2 239 47Q219 96 203 156Q188 131 169.5 101Q151 71 131 45Q111 19 91.5 2Q72 -15 55 -15Z"/>
    <path id="g100" d="M15 -152V-129Q37 -112 50 -76Q63 -40 63 -6Q63 7 61 22Q59 37 52 50Q60 62 78 74.5Q96 87 115 90Q122 74 124 58Q126 42 126 29Q126 -19 108.5 -59Q91 -99 65.5 -123.5Q40 -148 15 -152Z"/>
    <path id="g101" d="M137 -15Q102 -15 92.5 9Q83 33 83 64Q83 90 86.5 129Q90 168 95 210Q100 252 103.5 287Q107 322 107 341Q107 361 98 361Q84 361 49 323L33 339Q59 371 92.5 403.5Q126 436 160 455Q166 442 169 421.5Q172 401 172 376Q172 354 168.5 316.5Q165 279 160 237.5Q155 196 151.5 159Q148 122 148 99Q148 70 155.5 60Q163 50 177 50Q210 50 245 85Q280 120 305 175Q334 234 339.5 304.5Q345 375 325 439Q342 447 363 451Q384 455 402 455Q410 395 397 329.5Q384 264 356.5 203Q329 142 292.5 92.5Q256 43 215.5 14Q175 -15 137 -15Z"/>
  </defs>
  <g data-role="dropcap" fill="#B49A64" transform="translate(48 108) scale(0.084 -0.084)"><use href="#g0" x="0"/></g>
  <g data-role="body" fill="#EEE8DC" transform="translate(124 52) scale(0.0205 -0.0205)"><use href="#g1" x="0"/><use href="#g2" x="526"/><use href="#g3" x="819"/><use href="#g3" x="1105"/><use href="#g4" x="1391"/><use href="#g5" x="1802"/><use href="#g6" x="2098"/><use href="#g7" x="2578"/><use href="#g8" x="2969"/><use href="#g5" x="3431"/><use href="#g8" x="3727"/><use href="#g9" x="4189"/><use href="#g10" x="4668"/><use href="#g8" x="5139"/><use href="#g3" x="5601"/><use href="#g3" x="5887"/><use href="#g8" x="6173"/><use href="#g11" x="6635"/><use href="#g12" x="7216"/><use href="#g5" x="7579"/><use href="#g3" x="7875"/><use href="#g13" x="8161"/><use href="#g10" x="8696"/><use href="#g6" x="9167"/><use href="#g3" x="9647"/><use href="#g5" x="9933"/><use href="#g6" x="10229"/><use href="#g4" x="10709"/><use href="#g4" x="11120"/><use href="#g8" x="11531"/><use href="#g12" x="11993"/><use href="#g4" x="12356"/><use href="#g5" x="12767"/><use href="#g13" x="13063"/><use href="#g14" x="13598"/><use href="#g5" x="13928"/><use href="#g7" x="14224"/><use href="#g8" x="14615"/><use href="#g15" x="15077"/><use href="#g4" x="15644"/><use href="#g6" x="16055"/><use href="#g16" x="16535"/><use href="#g3" x="17095"/><use href="#g8" x="17381"/><use href="#g5" x="17843"/><use href="#g8" x="18139"/><use href="#g9" x="18601"/><use href="#g17" x="19080"/><use href="#g8" x="19647"/><use href="#g7" x="20109"/><use href="#g2" x="20500"/><use href="#g8" x="20793"/><use href="#g11" x="21255"/><use href="#g10" x="21836"/><use href="#g8" x="22307"/><use href="#g18" x="22769"/></g>
  <g data-role="body" fill="#EEE8DC" transform="translate(124 79) scale(0.0205 -0.0205)"><use href="#g19" x="0"/><use href="#g14" x="635"/><use href="#g12" x="965"/><use href="#g8" x="1328"/><use href="#g7" x="1790"/><use href="#g5" x="2181"/><use href="#g20" x="2477"/><use href="#g13" x="3041"/><use href="#g21" x="3576"/><use href="#g11" x="4278"/><use href="#g3" x="4859"/><use href="#g13" x="5145"/><use href="#g6" x="5680"/><use href="#g20" x="6160"/><use href="#g2" x="6724"/><use href="#g11" x="7017"/><use href="#g22" x="7598"/><use href="#g5" x="8094"/><use href="#g6" x="8390"/><use href="#g11" x="8870"/><use href="#g20" x="9451"/><use href="#g5" x="10015"/><use href="#g2" x="10311"/><use href="#g11" x="10604"/><use href="#g4" x="11185"/><use href="#g12" x="11596"/><use href="#g6" x="11959"/><use href="#g3" x="12439"/><use href="#g3" x="12725"/><use href="#g2" x="13011"/><use href="#g11" x="13304"/><use href="#g22" x="13885"/><use href="#g5" x="14381"/><use href="#g23" x="14677"/><use href="#g6" x="15530"/><use href="#g11" x="16010"/><use href="#g24" x="16591"/><use href="#g5" x="17063"/><use href="#g0" x="17359"/><use href="#g1" x="17908"/><use href="#g2" x="18434"/><use href="#g3" x="18727"/><use href="#g3" x="19013"/><use href="#g4" x="19299"/><use href="#g25" x="19710"/><use href="#g5" x="19882"/><use href="#g2" x="20178"/><use href="#g12" x="20471"/><use href="#g5" x="20834"/><use href="#g2" x="21130"/><use href="#g4" x="21423"/><use href="#g5" x="21834"/><use href="#g8" x="22130"/><use href="#g6" x="22592"/><use href="#g4" x="23072"/><use href="#g24" x="23483"/><use href="#g5" x="23955"/><use href="#g12" x="24251"/><use href="#g13" x="24614"/></g>
  <g data-role="emphasis" fill="#EEE8DC" transform="translate(124 106) scale(0.0205 -0.0205)"><use href="#g26" x="0"/><use href="#g27" x="440"/><use href="#g28" x="1010"/><use href="#g29" x="1904"/><use href="#g30" x="2408"/><use href="#g31" x="2792"/><use href="#g28" x="3108"/><use href="#g29" x="4002"/><use href="#g26" x="4506"/><use href="#g32" x="4946"/><use href="#g33" x="5216"/><use href="#g27" x="5563"/><use href="#g34" x="6133"/><use href="#g35" x="6558"/><use href="#g29" x="7091"/><use href="#g30" x="7595"/><use href="#g32" x="7979"/><use href="#g36" x="8249"/><use href="#g37" x="8993"/><use href="#g31" x="9606"/><use href="#g38" x="9922"/><use href="#g37" x="10403"/><use href="#g32" x="11016"/><use href="#g39" x="11286"/><use href="#g40" x="11879"/><use href="#g31" x="12461"/><use href="#g41" x="12777"/><use href="#g41" x="13092"/><use href="#g26" x="13407"/><use href="#g32" x="13847"/><use href="#g37" x="14117"/><use href="#g42" x="14730"/><use href="#g43" x="15264"/><use href="#g29" x="15749"/><use href="#g32" x="16253"/><use href="#g42" x="16523"/><use href="#g41" x="17057"/><use href="#g34" x="17372"/><use href="#g29" x="17797"/><use href="#g42" x="18301"/><use href="#g44" x="18835"/><use href="#g45" x="19438"/><use href="#g32" x="19931"/><use href="#g46" x="20201"/><use href="#g29" x="20796"/><use href="#g29" x="21300"/><use href="#g47" x="21804"/><use href="#g32" x="22418"/><use href="#g31" x="22688"/><use href="#g47" x="23004"/><use href="#g26" x="23618"/><use href="#g30" x="24058"/><use href="#g42" x="24442"/><use href="#g41" x="24976"/><use href="#g41" x="25291"/><use href="#g29" x="25606"/><use href="#g44" x="26110"/></g>
  <g data-role="emphasis" fill="#EEE8DC" transform="translate(80 133) scale(0.0205 -0.0205)"><use href="#g42" x="0"/><use href="#g47" x="534"/><use href="#g44" x="1148"/><use href="#g32" x="1751"/><use href="#g47" x="2021"/><use href="#g27" x="2635"/><use href="#g30" x="3205"/><use href="#g32" x="3589"/><use href="#g40" x="3859"/><use href="#g47" x="4421"/><use href="#g27" x="5035"/><use href="#g36" x="5605"/><use href="#g32" x="6349"/><use href="#g36" x="6619"/><use href="#g37" x="7363"/><use href="#g31" x="7976"/><use href="#g38" x="8292"/><use href="#g37" x="8773"/><use href="#g32" x="9386"/><use href="#g39" x="9656"/><use href="#g40" x="10249"/><use href="#g31" x="10831"/><use href="#g41" x="11147"/><use href="#g41" x="11462"/><use href="#g26" x="11777"/><use href="#g32" x="12217"/><use href="#g30" x="12487"/><use href="#g27" x="12871"/><use href="#g32" x="13441"/><use href="#g31" x="13711"/><use href="#g47" x="14027"/><use href="#g43" x="14641"/><use href="#g27" x="15126"/><use href="#g40" x="15696"/><use href="#g29" x="16258"/><use href="#g48" x="16762"/></g>
  <g data-role="body" fill="#EEE8DC" transform="translate(108 177) scale(0.0205 -0.0205)"><use href="#g49" x="0"/><use href="#g15" x="541"/><use href="#g7" x="1108"/><use href="#g12" x="1499"/><use href="#g50" x="1862"/><use href="#g8" x="2436"/><use href="#g7" x="2898"/><use href="#g25" x="3289"/><use href="#g5" x="3461"/></g>
  <g data-role="emphasis" fill="#EEE8DC" transform="translate(185.02 177) scale(0.0205 -0.0205)"><use href="#g36" x="0"/><use href="#g37" x="744"/><use href="#g29" x="1357"/><use href="#g47" x="1861"/><use href="#g32" x="2475"/><use href="#g42" x="2745"/><use href="#g32" x="3279"/><use href="#g38" x="3549"/><use href="#g27" x="4030"/><use href="#g28" x="4600"/><use href="#g51" x="5494"/><use href="#g41" x="6094"/><use href="#g29" x="6409"/><use href="#g52" x="6893"/><use href="#g32" x="7434"/><use href="#g30" x="7704"/><use href="#g42" x="8088"/><use href="#g26" x="8622"/><use href="#g40" x="9062"/><use href="#g32" x="9644"/><use href="#g31" x="9914"/><use href="#g47" x="10230"/><use href="#g43" x="10844"/><use href="#g27" x="11329"/><use href="#g41" x="11899"/><use href="#g43" x="12214"/><use href="#g29" x="12699"/><use href="#g26" x="13203"/><use href="#g32" x="13643"/><use href="#g30" x="13913"/><use href="#g37" x="14297"/><use href="#g29" x="14910"/><use href="#g32" x="15414"/><use href="#g38" x="15684"/><use href="#g27" x="16165"/><use href="#g28" x="16735"/><use href="#g46" x="17629"/><use href="#g31" x="18224"/><use href="#g47" x="18540"/><use href="#g29" x="19154"/><use href="#g44" x="19658"/></g>
  <g data-role="emphasis" fill="#EEE8DC" transform="translate(80 204) scale(0.0205 -0.0205)"><use href="#g27" x="0"/><use href="#g34" x="570"/><use href="#g35" x="995"/><use href="#g42" x="1528"/><use href="#g47" x="2062"/><use href="#g31" x="2676"/><use href="#g53" x="2992"/><use href="#g42" x="3493"/><use href="#g30" x="4027"/><use href="#g31" x="4411"/><use href="#g27" x="4727"/><use href="#g47" x="5297"/><use href="#g32" x="5911"/><use href="#g42" x="6181"/><use href="#g47" x="6715"/><use href="#g44" x="7329"/><use href="#g32" x="7932"/><use href="#g31" x="8202"/><use href="#g47" x="8518"/><use href="#g43" x="9132"/><use href="#g27" x="9617"/><use href="#g38" x="10187"/><use href="#g42" x="10668"/><use href="#g30" x="11202"/><use href="#g31" x="11586"/><use href="#g27" x="11902"/><use href="#g47" x="12472"/><use href="#g32" x="13086"/><use href="#g27" x="13356"/><use href="#g33" x="13926"/><use href="#g32" x="14273"/><use href="#g28" x="14543"/><use href="#g54" x="15437"/><use href="#g41" x="16044"/><use href="#g30" x="16359"/><use href="#g31" x="16743"/><use href="#g51" x="17059"/><use href="#g41" x="17659"/><use href="#g29" x="17974"/><use href="#g32" x="18478"/><use href="#g39" x="18748"/><use href="#g40" x="19341"/><use href="#g31" x="19923"/><use href="#g41" x="20239"/><use href="#g41" x="20554"/><use href="#g26" x="20869"/><use href="#g32" x="21309"/><use href="#g33" x="21579"/><use href="#g34" x="21926"/><use href="#g27" x="22351"/><use href="#g28" x="22921"/><use href="#g32" x="23815"/><use href="#g44" x="24085"/><use href="#g31" x="24688"/><use href="#g55" x="25004"/><use href="#g29" x="25671"/><use href="#g34" x="26175"/><use href="#g29" x="26600"/><use href="#g47" x="27104"/><use href="#g30" x="27718"/><use href="#g32" x="28102"/><use href="#g44" x="28372"/><use href="#g27" x="28975"/><use href="#g28" x="29545"/><use href="#g42" x="30439"/><use href="#g31" x="30973"/><use href="#g47" x="31289"/><use href="#g26" x="31903"/><use href="#g56" x="32343"/></g>
  <g data-role="emphasis" fill="#EEE8DC" transform="translate(80 231) scale(0.0205 -0.0205)"><use href="#g51" x="0"/><use href="#g41" x="600"/><use href="#g42" x="915"/><use href="#g47" x="1449"/><use href="#g47" x="2063"/><use href="#g31" x="2677"/><use href="#g47" x="2993"/><use href="#g35" x="3607"/><use href="#g32" x="4140"/><use href="#g46" x="4410"/><use href="#g29" x="5005"/><use href="#g38" x="5509"/><use href="#g27" x="5990"/><use href="#g28" x="6560"/><use href="#g29" x="7454"/><use href="#g26" x="7958"/><use href="#g32" x="8398"/><use href="#g38" x="8668"/><use href="#g27" x="9149"/><use href="#g28" x="9719"/><use href="#g51" x="10613"/><use href="#g41" x="11213"/><use href="#g31" x="11528"/><use href="#g38" x="11844"/><use href="#g42" x="12325"/><use href="#g30" x="12859"/><use href="#g29" x="13243"/><use href="#g44" x="13747"/><use href="#g32" x="14350"/><use href="#g33" x="14620"/><use href="#g27" x="14967"/><use href="#g34" x="15537"/><use href="#g32" x="15962"/><use href="#g51" x="16232"/><use href="#g29" x="16832"/><use href="#g27" x="17336"/><use href="#g51" x="17906"/><use href="#g41" x="18506"/><use href="#g29" x="18821"/><use href="#g57" x="19325"/></g>
  <g data-role="body" fill="#EEE8DC" transform="translate(480.78 231) scale(0.0205 -0.0205)"><use href="#g5" x="0"/><use href="#g12" x="296"/><use href="#g50" x="659"/><use href="#g8" x="1233"/><use href="#g24" x="1695"/><use href="#g5" x="2167"/><use href="#g23" x="2463"/><use href="#g15" x="3316"/><use href="#g4" x="3883"/><use href="#g12" x="4294"/><use href="#g5" x="4657"/><use href="#g8" x="4953"/><use href="#g9" x="5415"/><use href="#g17" x="5894"/><use href="#g3" x="6461"/><use href="#g6" x="6747"/><use href="#g2" x="7227"/><use href="#g11" x="7520"/></g>
  <g data-role="body" fill="#EEE8DC" transform="translate(80 258) scale(0.0205 -0.0205)"><use href="#g12" x="0"/><use href="#g13" x="363"/><use href="#g5" x="898"/><use href="#g12" x="1194"/><use href="#g50" x="1557"/><use href="#g8" x="2131"/><use href="#g5" x="2593"/><use href="#g19" x="2889"/><use href="#g58" x="3524"/><use href="#g5" x="3899"/><use href="#g2" x="4195"/><use href="#g11" x="4488"/><use href="#g5" x="5069"/><use href="#g20" x="5365"/><use href="#g8" x="5929"/><use href="#g12" x="6391"/><use href="#g6" x="6754"/><use href="#g2" x="7234"/><use href="#g3" x="7527"/><use href="#g5" x="7813"/><use href="#g21" x="8109"/><use href="#g50" x="8817"/><use href="#g2" x="9391"/><use href="#g10" x="9684"/><use href="#g50" x="10155"/><use href="#g5" x="10729"/><use href="#g0" x="11025"/><use href="#g1" x="11574"/><use href="#g2" x="12100"/><use href="#g3" x="12393"/><use href="#g3" x="12679"/><use href="#g4" x="12965"/><use href="#g5" x="13376"/><use href="#g8" x="13672"/><use href="#g6" x="14134"/><use href="#g10" x="14614"/><use href="#g50" x="15085"/><use href="#g5" x="15659"/><use href="#g23" x="15955"/><use href="#g13" x="16808"/><use href="#g20" x="17343"/><use href="#g15" x="17907"/><use href="#g3" x="18474"/><use href="#g8" x="18760"/><use href="#g5" x="19222"/><use href="#g4" x="19518"/><use href="#g50" x="19929"/><use href="#g13" x="20503"/><use href="#g15" x="21038"/><use href="#g3" x="21605"/><use href="#g20" x="21891"/><use href="#g5" x="22455"/><use href="#g15" x="22751"/><use href="#g4" x="23318"/><use href="#g8" x="23729"/><use href="#g25" x="24191"/><use href="#g5" x="24363"/><use href="#g21" x="24659"/><use href="#g50" x="25367"/><use href="#g2" x="25941"/><use href="#g3" x="26234"/><use href="#g8" x="26520"/></g>
  <g data-role="body" fill="#EEE8DC" transform="translate(80 285) scale(0.0205 -0.0205)"><use href="#g12" x="0"/><use href="#g50" x="363"/><use href="#g8" x="937"/><use href="#g5" x="1399"/></g>
  <g data-role="emphasis" fill="#EEE8DC" transform="translate(114.75 285) scale(0.0205 -0.0205)"><use href="#g59" x="0"/><use href="#g60" x="683"/><use href="#g32" x="1079"/><use href="#g28" x="1349"/><use href="#g42" x="2243"/><use href="#g45" x="2777"/><use href="#g32" x="3270"/><use href="#g33" x="3540"/><use href="#g27" x="3887"/><use href="#g34" x="4457"/><use href="#g35" x="4882"/><use href="#g29" x="5415"/><use href="#g30" x="5919"/><use href="#g32" x="6303"/><use href="#g30" x="6573"/><use href="#g37" x="6957"/><use href="#g29" x="7570"/><use href="#g26" x="8074"/><use href="#g29" x="8514"/><use href="#g32" x="9018"/><use href="#g44" x="9288"/><use href="#g29" x="9891"/><use href="#g26" x="10395"/><use href="#g31" x="10835"/><use href="#g35" x="11151"/><use href="#g47" x="11684"/><use href="#g26" x="12298"/><use href="#g32" x="12738"/><use href="#g44" x="13008"/><use href="#g54" x="13611"/><use href="#g34" x="14218"/><use href="#g31" x="14643"/><use href="#g47" x="14959"/><use href="#g35" x="15573"/><use href="#g32" x="16106"/><use href="#g29" x="16376"/><use href="#g52" x="16860"/><use href="#g29" x="17381"/><use href="#g38" x="17885"/><use href="#g54" x="18366"/><use href="#g30" x="18973"/><use href="#g31" x="19357"/><use href="#g27" x="19673"/><use href="#g47" x="20243"/><use href="#g48" x="20857"/></g>
  <g data-role="body" fill="#EEE8DC" transform="translate(108 329) scale(0.0205 -0.0205)"><use href="#g61" x="0"/><use href="#g6" x="928"/><use href="#g11" x="1408"/><use href="#g24" x="1989"/><use href="#g5" x="2461"/><use href="#g10" x="2757"/><use href="#g15" x="3228"/><use href="#g7" x="3795"/><use href="#g7" x="4186"/><use href="#g8" x="4577"/><use href="#g11" x="5039"/><use href="#g12" x="5620"/><use href="#g5" x="5983"/><use href="#g50" x="6279"/><use href="#g6" x="6853"/><use href="#g7" x="7333"/><use href="#g11" x="7724"/><use href="#g8" x="8305"/><use href="#g4" x="8767"/><use href="#g4" x="9178"/><use href="#g5" x="9589"/><use href="#g14" x="9885"/><use href="#g7" x="10215"/><use href="#g6" x="10606"/><use href="#g23" x="11086"/><use href="#g8" x="11939"/><use href="#g21" x="12401"/><use href="#g13" x="13109"/><use href="#g7" x="13644"/><use href="#g1" x="14035"/><use href="#g4" x="14561"/><use href="#g5" x="14972"/><use href="#g20" x="15268"/><use href="#g13" x="15832"/><use href="#g5" x="16367"/><use href="#g11" x="16663"/><use href="#g13" x="17244"/><use href="#g12" x="17779"/><use href="#g5" x="18142"/><use href="#g6" x="18438"/><use href="#g10" x="18918"/><use href="#g12" x="19389"/><use href="#g2" x="19752"/><use href="#g62" x="20036"/><use href="#g8" x="20500"/><use href="#g3" x="20962"/><use href="#g24" x="21248"/><use href="#g5" x="21720"/><use href="#g17" x="22016"/><use href="#g3" x="22583"/><use href="#g6" x="22869"/><use href="#g11" x="23349"/><use href="#g5" x="23930"/><use href="#g50" x="24226"/><use href="#g13" x="24800"/><use href="#g21" x="25335"/><use href="#g5" x="26043"/><use href="#g12" x="26339"/><use href="#g13" x="26702"/><use href="#g5" x="27237"/><use href="#g23" x="27533"/><use href="#g6" x="28386"/><use href="#g1" x="28866"/><use href="#g8" x="29392"/></g>
  <g data-role="body" fill="#EEE8DC" transform="translate(80 356) scale(0.0205 -0.0205)"><use href="#g22" x="0"/><use href="#g13" x="496"/><use href="#g13" x="1031"/><use href="#g20" x="1566"/><use href="#g5" x="2130"/><use href="#g15" x="2426"/><use href="#g4" x="2993"/><use href="#g8" x="3404"/><use href="#g5" x="3866"/><use href="#g13" x="4162"/><use href="#g14" x="4697"/><use href="#g5" x="5027"/><use href="#g3" x="5323"/><use href="#g13" x="5609"/><use href="#g10" x="6144"/><use href="#g6" x="6615"/><use href="#g3" x="7095"/><use href="#g5" x="7381"/><use href="#g0" x="7677"/><use href="#g1" x="8226"/><use href="#g2" x="8752"/><use href="#g3" x="9045"/><use href="#g3" x="9331"/><use href="#g5" x="9617"/><use href="#g7" x="9913"/><use href="#g8" x="10304"/><use href="#g4" x="10766"/><use href="#g13" x="11177"/><use href="#g15" x="11712"/><use href="#g7" x="12279"/><use href="#g10" x="12670"/><use href="#g8" x="13141"/><use href="#g4" x="13603"/><use href="#g25" x="14014"/><use href="#g5" x="14186"/></g>
  <g data-role="emphasis" fill="#EEE8DC" transform="translate(376.88 356) scale(0.0205 -0.0205)"><use href="#g42" x="0"/><use href="#g47" x="534"/><use href="#g44" x="1148"/><use href="#g32" x="1751"/><use href="#g28" x="2021"/><use href="#g42" x="2915"/><use href="#g45" x="3449"/><use href="#g32" x="3942"/><use href="#g29" x="4212"/><use href="#g43" x="4716"/><use href="#g29" x="5201"/><use href="#g47" x="5705"/><use href="#g32" x="6319"/><use href="#g33" x="6589"/><use href="#g42" x="6936"/><use href="#g41" x="7470"/><use href="#g41" x="7785"/><use href="#g32" x="8100"/><use href="#g31" x="8370"/><use href="#g47" x="8686"/><use href="#g30" x="9300"/><use href="#g27" x="9684"/><use href="#g32" x="10254"/><use href="#g42" x="10524"/><use href="#g47" x="11058"/></g>
  <g data-role="emphasis" fill="#EEE8DC" transform="translate(80 383) scale(0.0205 -0.0205)"><use href="#g29" x="0"/><use href="#g31" x="504"/><use href="#g30" x="820"/><use href="#g37" x="1204"/><use href="#g29" x="1817"/><use href="#g34" x="2321"/><use href="#g63" x="2746"/><use href="#g27" x="3107"/><use href="#g34" x="3677"/><use href="#g32" x="4102"/><use href="#g26" x="4372"/><use href="#g38" x="4812"/><use href="#g37" x="5293"/><use href="#g29" x="5906"/><use href="#g44" x="6410"/><use href="#g54" x="7013"/><use href="#g41" x="7620"/><use href="#g31" x="7935"/><use href="#g47" x="8251"/><use href="#g35" x="8865"/><use href="#g32" x="9398"/><use href="#g38" x="9668"/><use href="#g27" x="10149"/><use href="#g47" x="10719"/><use href="#g64" x="11333"/><use href="#g31" x="11975"/><use href="#g38" x="12291"/><use href="#g30" x="12772"/><use href="#g32" x="13156"/><use href="#g46" x="13426"/><use href="#g29" x="14021"/><use href="#g30" x="14525"/><use href="#g36" x="14909"/><use href="#g29" x="15653"/><use href="#g29" x="16157"/><use href="#g47" x="16661"/><use href="#g32" x="17275"/><use href="#g30" x="17545"/><use href="#g37" x="17929"/><use href="#g29" x="18542"/><use href="#g32" x="19046"/><use href="#g37" x="19316"/><use href="#g42" x="19929"/><use href="#g34" x="20463"/><use href="#g47" x="20888"/><use href="#g29" x="21502"/><use href="#g26" x="22006"/><use href="#g26" x="22446"/><use href="#g32" x="22886"/><use href="#g33" x="23156"/><use href="#g34" x="23503"/><use href="#g42" x="23928"/><use href="#g28" x="24462"/><use href="#g29" x="25356"/><use href="#g36" x="25860"/><use href="#g27" x="26604"/><use href="#g34" x="27174"/><use href="#g40" x="27599"/><use href="#g32" x="28181"/><use href="#g42" x="28451"/><use href="#g47" x="28985"/><use href="#g44" x="29599"/></g>
  <g data-role="emphasis" fill="#EEE8DC" transform="translate(80 410) scale(0.0205 -0.0205)"><use href="#g44" x="0"/><use href="#g27" x="603"/><use href="#g28" x="1173"/><use href="#g42" x="2067"/><use href="#g31" x="2601"/><use href="#g47" x="2917"/><use href="#g32" x="3531"/><use href="#g39" x="3801"/><use href="#g40" x="4394"/><use href="#g31" x="4976"/><use href="#g41" x="5292"/><use href="#g41" x="5607"/><use href="#g32" x="5922"/><use href="#g34" x="6192"/><use href="#g29" x="6617"/><use href="#g26" x="7121"/><use href="#g27" x="7561"/><use href="#g54" x="8131"/><use href="#g34" x="8738"/><use href="#g38" x="9163"/><use href="#g29" x="9644"/><use href="#g26" x="10148"/><use href="#g48" x="10588"/></g>
  <g data-role="body" fill="#EEE8DC" transform="translate(108 454) scale(0.0205 -0.0205)"><use href="#g65" x="0"/><use href="#g50" x="621"/><use href="#g8" x="1195"/><use href="#g5" x="1657"/><use href="#g10" x="1953"/><use href="#g13" x="2424"/><use href="#g7" x="2959"/><use href="#g8" x="3350"/><use href="#g5" x="3812"/><use href="#g13" x="4108"/><use href="#g14" x="4643"/><use href="#g5" x="4973"/><use href="#g12" x="5269"/><use href="#g50" x="5632"/><use href="#g2" x="6206"/><use href="#g4" x="6499"/><use href="#g5" x="6910"/><use href="#g17" x="7206"/><use href="#g7" x="7773"/><use href="#g13" x="8164"/><use href="#g66" x="8699"/><use href="#g8" x="8981"/><use href="#g10" x="9443"/><use href="#g12" x="9914"/><use href="#g5" x="10277"/><use href="#g2" x="10573"/><use href="#g4" x="10866"/><use href="#g5" x="11277"/><use href="#g12" x="11573"/><use href="#g13" x="11936"/><use href="#g5" x="12471"/><use href="#g14" x="12767"/><use href="#g13" x="13097"/><use href="#g3" x="13632"/><use href="#g3" x="13918"/><use href="#g13" x="14204"/><use href="#g21" x="14739"/><use href="#g5" x="15447"/><use href="#g50" x="15743"/><use href="#g6" x="16317"/><use href="#g7" x="16797"/><use href="#g11" x="17188"/><use href="#g8" x="17769"/><use href="#g4" x="18231"/><use href="#g4" x="18642"/><use href="#g5" x="19053"/><use href="#g14" x="19349"/><use href="#g7" x="19679"/><use href="#g6" x="20070"/><use href="#g23" x="20550"/><use href="#g8" x="21403"/><use href="#g21" x="21865"/><use href="#g13" x="22573"/><use href="#g7" x="23108"/><use href="#g1" x="23499"/><use href="#g4" x="24025"/><use href="#g5" x="24436"/><use href="#g4" x="24732"/><use href="#g2" x="25143"/><use href="#g23" x="25436"/><use href="#g2" x="26289"/><use href="#g3" x="26582"/><use href="#g6" x="26868"/><use href="#g7" x="27348"/><use href="#g5" x="27739"/><use href="#g12" x="28035"/><use href="#g13" x="28398"/></g>
  <g data-role="body" fill="#EEE8DC" transform="translate(80 481) scale(0.0205 -0.0205)"><use href="#g0" x="0"/><use href="#g15" x="549"/><use href="#g17" x="1116"/><use href="#g8" x="1683"/><use href="#g7" x="2145"/><use href="#g17" x="2536"/><use href="#g13" x="3103"/><use href="#g21" x="3638"/><use href="#g8" x="4346"/><use href="#g7" x="4808"/><use href="#g5" x="5199"/><use href="#g6" x="5495"/><use href="#g11" x="5975"/><use href="#g20" x="6556"/><use href="#g5" x="7120"/><use href="#g67" x="7416"/><use href="#g0" x="8136"/><use href="#g68" x="8685"/><use href="#g18" x="9450"/><use href="#g5" x="9644"/><use href="#g69" x="9940"/><use href="#g6" x="10603"/><use href="#g4" x="11083"/><use href="#g8" x="11494"/><use href="#g20" x="11956"/><use href="#g5" x="12520"/><use href="#g13" x="12816"/><use href="#g11" x="13351"/><use href="#g5" x="13932"/><use href="#g23" x="14228"/><use href="#g13" x="15081"/><use href="#g20" x="15616"/><use href="#g15" x="16180"/><use href="#g3" x="16747"/><use href="#g6" x="17033"/><use href="#g7" x="17513"/><use href="#g5" x="17904"/><use href="#g20" x="18200"/><use href="#g8" x="18764"/><use href="#g10" x="19226"/><use href="#g13" x="19697"/><use href="#g23" x="20232"/><use href="#g17" x="21085"/><use href="#g13" x="21652"/><use href="#g4" x="22187"/><use href="#g2" x="22598"/><use href="#g12" x="22891"/><use href="#g2" x="23254"/><use href="#g13" x="23547"/><use href="#g11" x="24082"/><use href="#g5" x="24663"/><use href="#g16" x="24959"/><use href="#g24" x="25519"/><use href="#g5" x="25991"/><use href="#g12" x="26287"/><use href="#g50" x="26650"/><use href="#g8" x="27224"/><use href="#g5" x="27686"/><use href="#g17" x="27982"/><use href="#g3" x="28549"/><use href="#g6" x="28835"/><use href="#g11" x="29315"/><use href="#g11" x="29896"/><use href="#g2" x="30477"/><use href="#g11" x="30770"/><use href="#g22" x="31351"/></g>
  <g data-role="body" fill="#EEE8DC" transform="translate(80 508) scale(0.0205 -0.0205)"><use href="#g4" x="0"/><use href="#g12" x="411"/><use href="#g6" x="774"/><use href="#g12" x="1254"/><use href="#g8" x="1617"/><use href="#g5" x="2079"/><use href="#g23" x="2375"/><use href="#g6" x="3228"/><use href="#g10" x="3708"/><use href="#g50" x="4179"/><use href="#g2" x="4753"/><use href="#g11" x="5046"/><use href="#g8" x="5627"/><use href="#g25" x="6089"/><use href="#g5" x="6261"/><use href="#g2" x="6557"/><use href="#g12" x="6850"/><use href="#g5" x="7213"/><use href="#g15" x="7509"/><use href="#g4" x="8076"/><use href="#g8" x="8487"/><use href="#g4" x="8949"/><use href="#g5" x="9360"/><use href="#g20" x="9656"/><use href="#g2" x="10220"/><use href="#g70" x="10513"/><use href="#g8" x="11156"/><use href="#g7" x="11618"/><use href="#g8" x="12009"/><use href="#g11" x="12471"/><use href="#g12" x="13052"/><use href="#g5" x="13415"/><use href="#g0" x="13711"/><use href="#g1" x="14260"/><use href="#g2" x="14786"/><use href="#g3" x="15079"/><use href="#g3" x="15365"/><use href="#g4" x="15651"/><use href="#g5" x="16062"/><use href="#g12" x="16358"/><use href="#g13" x="16721"/><use href="#g5" x="17256"/><use href="#g6" x="17552"/><use href="#g4" x="18032"/><use href="#g4" x="18443"/><use href="#g2" x="18854"/><use href="#g4" x="19147"/><use href="#g12" x="19558"/><use href="#g5" x="19921"/><use href="#g20" x="20217"/><use href="#g2" x="20781"/><use href="#g70" x="21074"/><use href="#g8" x="21717"/><use href="#g7" x="22179"/><use href="#g8" x="22570"/><use href="#g11" x="23032"/><use href="#g12" x="23613"/><use href="#g5" x="23976"/><use href="#g23" x="24272"/><use href="#g13" x="25125"/><use href="#g20" x="25660"/><use href="#g15" x="26224"/><use href="#g3" x="26791"/><use href="#g8" x="27077"/><use href="#g4" x="27539"/><use href="#g25" x="27950"/></g>
  <g data-role="body" fill="#EEE8DC" transform="translate(80 535) scale(0.0205 -0.0205)"><use href="#g14" x="0"/><use href="#g15" x="330"/><use href="#g3" x="897"/><use href="#g3" x="1183"/><use href="#g24" x="1469"/><use href="#g5" x="1941"/><use href="#g4" x="2237"/><use href="#g10" x="2648"/><use href="#g50" x="3119"/><use href="#g8" x="3693"/><use href="#g20" x="4155"/><use href="#g15" x="4719"/><use href="#g3" x="5286"/><use href="#g8" x="5572"/><use href="#g4" x="6034"/><use href="#g5" x="6445"/><use href="#g8" x="6741"/><use href="#g9" x="7203"/><use href="#g2" x="7682"/><use href="#g4" x="7975"/><use href="#g12" x="8386"/><use href="#g2" x="8749"/><use href="#g11" x="9042"/><use href="#g22" x="9623"/><use href="#g5" x="10119"/><use href="#g3" x="10415"/><use href="#g13" x="10701"/><use href="#g10" x="11236"/><use href="#g6" x="11707"/><use href="#g3" x="12187"/><use href="#g5" x="12473"/><use href="#g7" x="12769"/><use href="#g8" x="13160"/><use href="#g4" x="13622"/><use href="#g13" x="14033"/><use href="#g15" x="14568"/><use href="#g7" x="15135"/><use href="#g10" x="15526"/><use href="#g8" x="15997"/><use href="#g4" x="16459"/><use href="#g25" x="16870"/><use href="#g5" x="17042"/><use href="#g7" x="17338"/><use href="#g8" x="17729"/><use href="#g20" x="18191"/><use href="#g15" x="18755"/><use href="#g10" x="19322"/><use href="#g8" x="19793"/><use href="#g4" x="20255"/><use href="#g5" x="20666"/><use href="#g15" x="20962"/><use href="#g4" x="21529"/><use href="#g8" x="21940"/><use href="#g7" x="22402"/><use href="#g4" x="22793"/><use href="#g71" x="23204"/><use href="#g5" x="23341"/><use href="#g17" x="23637"/><use href="#g3" x="24204"/><use href="#g6" x="24490"/><use href="#g11" x="24970"/><use href="#g11" x="25551"/><use href="#g2" x="26132"/><use href="#g11" x="26425"/><use href="#g22" x="27006"/><use href="#g5" x="27502"/><use href="#g6" x="27798"/><use href="#g11" x="28278"/><use href="#g20" x="28859"/></g>
  <g data-role="body" fill="#EEE8DC" transform="translate(80 562) scale(0.0205 -0.0205)"><use href="#g10" x="0"/><use href="#g13" x="471"/><use href="#g22" x="1006"/><use href="#g11" x="1502"/><use href="#g2" x="2083"/><use href="#g12" x="2376"/><use href="#g2" x="2739"/><use href="#g62" x="3023"/><use href="#g8" x="3487"/><use href="#g5" x="3949"/><use href="#g16" x="4245"/><use href="#g15" x="4805"/><use href="#g7" x="5372"/><use href="#g20" x="5763"/><use href="#g8" x="6327"/><use href="#g11" x="6789"/><use href="#g25" x="7370"/><use href="#g5" x="7542"/><use href="#g6" x="7838"/><use href="#g11" x="8318"/><use href="#g20" x="8899"/><use href="#g5" x="9463"/><use href="#g22" x="9759"/><use href="#g2" x="10255"/><use href="#g62" x="10539"/><use href="#g8" x="11003"/><use href="#g4" x="11465"/><use href="#g5" x="11876"/><use href="#g15" x="12172"/><use href="#g4" x="12739"/><use href="#g8" x="13150"/><use href="#g7" x="13612"/><use href="#g4" x="14003"/><use href="#g5" x="14414"/><use href="#g6" x="14710"/><use href="#g11" x="15190"/><use href="#g5" x="15771"/><use href="#g8" x="16067"/><use href="#g11" x="16529"/><use href="#g20" x="17110"/><use href="#g72" x="17674"/><use href="#g12" x="17982"/><use href="#g13" x="18345"/><use href="#g72" x="18880"/><use href="#g8" x="19188"/><use href="#g11" x="19650"/><use href="#g20" x="20231"/><use href="#g5" x="20795"/><use href="#g20" x="21091"/><use href="#g8" x="21655"/><use href="#g3" x="22117"/><use href="#g2" x="22403"/><use href="#g62" x="22687"/><use href="#g8" x="23151"/><use href="#g7" x="23613"/><use href="#g24" x="24024"/><use href="#g5" x="24496"/><use href="#g8" x="24792"/><use href="#g9" x="25254"/><use href="#g17" x="25733"/><use href="#g8" x="26300"/><use href="#g7" x="26762"/><use href="#g2" x="27153"/><use href="#g8" x="27446"/><use href="#g11" x="27908"/><use href="#g10" x="28489"/><use href="#g8" x="28960"/><use href="#g18" x="29422"/></g>
  <g data-role="vision" fill="#D8D0C4" transform="translate(79.32 618) scale(0.0208 -0.0208)"><use href="#g73" x="0"/><use href="#g74" x="284"/><use href="#g75" x="568"/><use href="#g76" x="798"/><use href="#g77" x="1086"/><use href="#g75" x="1462"/><use href="#g78" x="1692"/><use href="#g79" x="2082"/><use href="#g80" x="2546"/><use href="#g80" x="3275"/><use href="#g76" x="4004"/><use href="#g74" x="4292"/><use href="#g74" x="4576"/><use href="#g81" x="4860"/><use href="#g82" x="5257"/><use href="#g75" x="5764"/><use href="#g74" x="5994"/><use href="#g79" x="6278"/><use href="#g75" x="6742"/><use href="#g83" x="6972"/><use href="#g81" x="7460"/><use href="#g78" x="7857"/><use href="#g79" x="8247"/><use href="#g80" x="8711"/><use href="#g76" x="9440"/><use href="#g84" x="9728"/><use href="#g85" x="10237"/><use href="#g75" x="10673"/><use href="#g86" x="10903"/><use href="#g75" x="11415"/><use href="#g87" x="11645"/><use href="#g86" x="12130"/><use href="#g84" x="12642"/><use href="#g82" x="13151"/><use href="#g88" x="13658"/><use href="#g75" x="14053"/><use href="#g77" x="14283"/><use href="#g74" x="14659"/><use href="#g81" x="14943"/><use href="#g89" x="15340"/><use href="#g86" x="16023"/><use href="#g90" x="16535"/><use href="#g82" x="16892"/><use href="#g75" x="17399"/><use href="#g91" x="17629"/><use href="#g79" x="17910"/><use href="#g90" x="18374"/><use href="#g75" x="18731"/><use href="#g74" x="18961"/><use href="#g87" x="19245"/><use href="#g81" x="19730"/><use href="#g75" x="20127"/><use href="#g92" x="20357"/><use href="#g93" x="20870"/><use href="#g76" x="21326"/><use href="#g94" x="21614"/><use href="#g94" x="21878"/><use href="#g75" x="22142"/><use href="#g90" x="22372"/><use href="#g81" x="22729"/><use href="#g77" x="23126"/><use href="#g79" x="23502"/><use href="#g95" x="23966"/><use href="#g90" x="24463"/><use href="#g78" x="24820"/><use href="#g81" x="25210"/><use href="#g77" x="25607"/><use href="#g75" x="25983"/><use href="#g86" x="26213"/><use href="#g90" x="26725"/><use href="#g79" x="27082"/><use href="#g95" x="27546"/><use href="#g84" x="28043"/><use href="#g82" x="28552"/><use href="#g75" x="29059"/><use href="#g88" x="29289"/><use href="#g79" x="29684"/><use href="#g95" x="30148"/><use href="#g96" x="30645"/></g>
  <g data-role="vision" fill="#D8D0C4" transform="translate(85.78 647) scale(0.0208 -0.0208)"><use href="#g97" x="0"/><use href="#g87" x="846"/><use href="#g81" x="1331"/><use href="#g84" x="1728"/><use href="#g75" x="2237"/><use href="#g86" x="2467"/><use href="#g75" x="2979"/><use href="#g78" x="3209"/><use href="#g79" x="3599"/><use href="#g80" x="4063"/><use href="#g98" x="4792"/><use href="#g94" x="5298"/><use href="#g81" x="5562"/><use href="#g99" x="5959"/><use href="#g75" x="6398"/><use href="#g74" x="6628"/><use href="#g86" x="6912"/><use href="#g77" x="7424"/><use href="#g93" x="7800"/><use href="#g75" x="8256"/><use href="#g86" x="8486"/><use href="#g98" x="8998"/><use href="#g98" x="9504"/><use href="#g81" x="10010"/><use href="#g86" x="10407"/><use href="#g90" x="10919"/><use href="#g77" x="11276"/><use href="#g100" x="11592"/><use href="#g75" x="11768"/><use href="#g76" x="11998"/><use href="#g74" x="12286"/><use href="#g75" x="12570"/><use href="#g78" x="12800"/><use href="#g86" x="13190"/><use href="#g84" x="13702"/><use href="#g75" x="14211"/><use href="#g87" x="14441"/><use href="#g81" x="14926"/><use href="#g94" x="15323"/><use href="#g98" x="15587"/><use href="#g75" x="16093"/><use href="#g95" x="16323"/><use href="#g77" x="16820"/><use href="#g81" x="17196"/><use href="#g90" x="17593"/><use href="#g77" x="17950"/><use href="#g75" x="18326"/><use href="#g77" x="18556"/><use href="#g94" x="18932"/><use href="#g79" x="19196"/><use href="#g89" x="19660"/><use href="#g94" x="20343"/><use href="#g88" x="20607"/><use href="#g75" x="21002"/><use href="#g77" x="21232"/><use href="#g79" x="21608"/><use href="#g90" x="22072"/><use href="#g74" x="22429"/><use href="#g75" x="22713"/><use href="#g79" x="22943"/><use href="#g95" x="23407"/><use href="#g74" x="23904"/><use href="#g75" x="24188"/><use href="#g89" x="24418"/><use href="#g87" x="25101"/><use href="#g76" x="25586"/><use href="#g78" x="25874"/><use href="#g87" x="26264"/><use href="#g75" x="26749"/><use href="#g80" x="26979"/><use href="#g79" x="27708"/><use href="#g82" x="28172"/><use href="#g95" x="28679"/><use href="#g94" x="29176"/><use href="#g81" x="29440"/><use href="#g77" x="29837"/></g>
  <g data-role="vision" fill="#D8D0C4" transform="translate(131.79 676) scale(0.0208 -0.0208)"><use href="#g86" x="0"/><use href="#g90" x="512"/><use href="#g81" x="869"/><use href="#g75" x="1266"/><use href="#g84" x="1496"/><use href="#g81" x="2005"/><use href="#g81" x="2402"/><use href="#g82" x="2799"/><use href="#g81" x="3306"/><use href="#g82" x="3703"/><use href="#g75" x="4210"/><use href="#g86" x="4440"/><use href="#g84" x="4952"/><use href="#g82" x="5461"/><use href="#g75" x="5968"/><use href="#g89" x="6198"/><use href="#g87" x="6881"/><use href="#g76" x="7366"/><use href="#g78" x="7654"/><use href="#g87" x="8044"/><use href="#g75" x="8529"/><use href="#g85" x="8759"/><use href="#g79" x="9195"/><use href="#g79" x="9659"/><use href="#g82" x="10123"/><use href="#g75" x="10630"/><use href="#g81" x="10860"/><use href="#g99" x="11257"/><use href="#g98" x="11696"/><use href="#g81" x="12202"/><use href="#g90" x="12599"/><use href="#g76" x="12956"/><use href="#g81" x="13244"/><use href="#g84" x="13641"/><use href="#g78" x="14150"/><use href="#g81" x="14540"/><use href="#g77" x="14937"/><use href="#g75" x="15313"/><use href="#g78" x="15543"/><use href="#g86" x="15933"/><use href="#g84" x="16445"/><use href="#g75" x="16954"/><use href="#g83" x="17184"/><use href="#g81" x="17672"/><use href="#g75" x="18069"/><use href="#g90" x="18299"/><use href="#g81" x="18656"/><use href="#g95" x="19053"/><use href="#g77" x="19550"/><use href="#g81" x="19926"/><use href="#g82" x="20323"/><use href="#g100" x="20830"/><use href="#g75" x="21006"/><use href="#g74" x="21236"/><use href="#g87" x="21520"/><use href="#g81" x="22005"/><use href="#g84" x="22402"/><use href="#g75" x="22911"/><use href="#g82" x="23141"/><use href="#g81" x="23648"/><use href="#g94" x="24045"/><use href="#g76" x="24309"/><use href="#g101" x="24597"/><use href="#g81" x="25035"/><use href="#g90" x="25432"/></g>
  <g data-role="vision" fill="#D8D0C4" transform="translate(325.26 705) scale(0.0208 -0.0208)"><use href="#g86" x="0"/><use href="#g84" x="512"/><use href="#g75" x="1021"/><use href="#g81" x="1251"/><use href="#g99" x="1648"/><use href="#g78" x="2087"/><use href="#g81" x="2477"/><use href="#g94" x="2874"/><use href="#g94" x="3138"/><use href="#g81" x="3402"/><use href="#g84" x="3799"/><use href="#g74" x="4308"/><use href="#g75" x="4592"/><use href="#g90" x="4822"/><use href="#g81" x="5179"/><use href="#g77" x="5576"/><use href="#g95" x="5952"/><use href="#g94" x="6449"/><use href="#g74" x="6713"/><use href="#g96" x="6997"/></g>
</svg>
