<svg xmlns="http://www.w3.org/2000/svg" viewBox="0 0 960 166" role="img" aria-labelledby="title">
  <title id="title">Use VibeSkills</title>
  <metadata>Lettering derived from Cormorant Garamond, licensed under SIL Open Font License 1.1.</metadata>
  <path d="M318.4599609375 -12.385009765625Q231.385009765625 -12.385009765625 176.3475341796875 17.114990234375Q121.31005859375 46.614990234375 93.5025634765625 95.0Q65.695068359375 143.385009765625 59.3875732421875 200.9625244140625Q53.080078125 258.5400390625 63.080078125 315.31005859375Q76.695068359375 390 112.81005859375 449.22998046875Q148.925048828125 508.4599609375 200.5400390625 550.1524658203125Q252.155029296875 591.844970703125 312.5775146484375 613.9224853515625Q373 636 434.844970703125 636Q475.844970703125 636 517.3824462890625 627.114990234375Q558.919921875 618.22998046875 581.919921875 603.919921875Q588.919921875 599.534912109375 589.919921875 595.534912109375Q590.919921875 591.534912109375 589.919921875 580.534912109375L577 457.7001953125Q576.614990234375 454.315185546875 571.614990234375 454.315185546875Q566.614990234375 454.315185546875 566 457.7001953125Q553.6201171875 534.395263671875 508.35009765625 572.8526611328125Q463.080078125 611.31005859375 395.385009765625 611.31005859375Q334.534912109375 611.31005859375 284.56982421875 579.0400390625Q234.604736328125 546.77001953125 201.40966796875 487.5Q168.214599609375 428.22998046875 155.444580078125 346Q144.28955078125 276.4599609375 151.2520751953125 214.68994140625Q158.214599609375 152.919921875 180.524658203125 105.7274169921875Q202.834716796875 58.534912109375 239.414794921875 31.534912109375Q275.994873046875 4.534912109375 324.4599609375 4.534912109375Q377.5400390625 4.534912109375 430.695068359375 41.534912109375Q483.85009765625 78.534912109375 534.919921875 155.764892578125Q537.534912109375 159.3798828125 542.2274169921875 157.0723876953125Q546.919921875 154.764892578125 545.534912109375 152.3798828125L517.3798828125 40.844970703125Q513.994873046875 28.4599609375 511.1873779296875 24.1524658203125Q508.3798828125 19.844970703125 499.3798828125 17.4599609375Q450.534912109375 1.22998046875 403.804931640625 -5.5775146484375Q357.074951171875 -12.385009765625 318.4599609375 -12.385009765625Z" fill="#D19AA8" transform="translate(413.512 25.000) scale(0.023000 -0.023000)"/>
  <path d="M12.22998046875 0Q9.22998046875 0 9.22998046875 6.0Q9.22998046875 12 12.22998046875 12Q41.155029296875 12 56.5025634765625 17.0Q71.85009765625 22 79.5426025390625 37.0Q87.235107421875 52 92.235107421875 81L174.235107421875 544Q182.235107421875 586.385009765625 171.6575927734375 599.6925048828125Q161.080078125 613 119.22998046875 613Q117.22998046875 613 117.22998046875 619.0Q117.22998046875 625 119.22998046875 625Q141.074951171875 625 167.419921875 623.5Q193.764892578125 622 223.60986328125 622Q254.454833984375 622 282.7998046875 623.5Q311.144775390625 625 331.98974609375 625Q333.98974609375 625 333.98974609375 619.0Q333.98974609375 613 331.98974609375 613Q303.064697265625 613 287.7171630859375 607.0Q272.36962890625 601 265.1771240234375 585.6925048828125Q257.984619140625 570.385009765625 252.599609375 542L170.599609375 81Q162.984619140625 38 172.86962890625 25.0Q182.754638671875 12 224.98974609375 12Q227.98974609375 12 227.98974609375 6.0Q227.98974609375 0 224.98974609375 0Q203.759765625 0 175.914794921875 1.0Q148.06982421875 2 116.60986328125 2Q86.764892578125 2 59.919921875 1.0Q33.074951171875 0 12.22998046875 0ZM162.844970703125 312.925048828125 166.22998046875 337.4599609375H548.844970703125L546.22998046875 312.925048828125ZM382.085205078125 0Q380.085205078125 0 380.085205078125 6.0Q380.085205078125 12 382.085205078125 12Q412.01025390625 12 426.8577880859375 17.0Q441.705322265625 22 449.09033203125 37.0Q456.475341796875 52 461.475341796875 81L542.475341796875 542Q549.8603515625 584.385009765625 540.59033203125 598.6925048828125Q531.3203125 613 489.085205078125 613Q486.085205078125 613 486.085205078125 619.0Q486.085205078125 625 489.085205078125 625Q509.93017578125 625 537.275146484375 623.5Q564.6201171875 622 594.465087890625 622Q623.925048828125 622 651.9625244140625 623.5Q680 625 700.844970703125 625Q703.22998046875 625 703.22998046875 619.0Q703.22998046875 613 700.844970703125 613Q672.919921875 613 657.5723876953125 607.5Q642.224853515625 602 634.83984375 587.1925048828125Q627.454833984375 572.385009765625 621.83984375 544L539.83984375 81Q532.83984375 38 543.4173583984375 25.0Q553.994873046875 12 595.22998046875 12Q598.22998046875 12 598.22998046875 6.0Q598.22998046875 0 595.22998046875 0Q576.22998046875 0 548.5775146484375 1.0Q520.925048828125 2 490.465087890625 2Q460.005126953125 2 431.9676513671875 1.0Q403.93017578125 0 382.085205078125 0Z" fill="#D19AA8" transform="translate(429.513 25.000) scale(0.023000 -0.023000)"/>
  <path d="M-34 0Q-38 0 -38.0 6.0Q-38 12 -34 12Q-8 12 27.8824462890625 38.7274169921875Q63.764892578125 65.454833984375 99.534912109375 129.83984375L382 634.385009765625Q384 638.385009765625 391.5 637.1925048828125Q399 636 400 633L498.98974609375 84Q503.604736328125 57 509.1822509765625 41.0Q514.759765625 25 527.914794921875 18.5Q541.06982421875 12 568.3798828125 12Q572.3798828125 12 572.3798828125 6.0Q572.3798828125 0 568.3798828125 0Q543.534912109375 0 517.9974365234375 2.0Q492.4599609375 4 462 4Q432.155029296875 4 408.81005859375 2.0Q385.465087890625 0 360.235107421875 0Q356.6201171875 0 356.6201171875 6.0Q356.6201171875 12 360.235107421875 12Q402.47021484375 12 414.1627197265625 27.0Q425.855224609375 42 418.01025390625 84L337.63037109375 530.025634765625L378.614990234375 583.925048828125L129.614990234375 130.5400390625Q104.304931640625 84.919921875 101.6124267578125 58.919921875Q98.919921875 32.919921875 117.14990234375 22.4599609375Q135.3798828125 12 172.144775390625 12Q176.144775390625 12 176.144775390625 6.0Q176.144775390625 0 171.144775390625 0Q149.684814453125 0 118.6873779296875 2.0Q87.68994140625 4 58 4Q29 4 10.5 2.0Q-8 0 -34 0ZM181.7802734375 251.33056640625 196.7802734375 275.48046875H413.855224609375L415.855224609375 251.33056640625Z" fill="#D19AA8" transform="translate(447.492 25.000) scale(0.023000 -0.023000)"/>
  <path d="M13.844970703125 0Q11.4599609375 0 11.4599609375 6.0Q11.4599609375 12 13.844970703125 12Q42.77001953125 12 58.425048828125 17.0Q74.080078125 22 81.6575927734375 37.0Q89.235107421875 52 94.235107421875 81L175.85009765625 544Q183.85009765625 587.614990234375 173.7725830078125 600.3074951171875Q163.695068359375 613 121.4599609375 613Q118.844970703125 613 118.844970703125 619.0Q118.844970703125 625 121.4599609375 625Q142.68994140625 625 169.034912109375 623.5Q195.3798828125 622 225.83984375 622Q246.994873046875 622 280.83984375 625.0Q314.684814453125 628 347.3798828125 628Q404.759765625 628 448.1422119140625 609.1925048828125Q491.524658203125 590.385009765625 512.9471435546875 551.5775146484375Q534.36962890625 512.77001953125 522.984619140625 453Q513.984619140625 402.385009765625 487.1771240234375 366.1925048828125Q460.36962890625 330 424.36962890625 307.0Q388.36962890625 284 349.36962890625 273.0Q310.36962890625 262 276.36962890625 262Q264.984619140625 262 255.1771240234375 263.0Q245.36962890625 264 235.36962890625 267Q232.984619140625 268 234.984619140625 276.6524658203125Q236.984619140625 285.304931640625 240.599609375 284.304931640625Q247.984619140625 282.304931640625 255.484619140625 281.304931640625Q262.984619140625 280.304931640625 269.984619140625 280.304931640625Q305.064697265625 280.304931640625 338.7998046875 296.3824462890625Q372.534912109375 312.4599609375 398.1925048828125 346.0374755859375Q423.85009765625 379.614990234375 432.6201171875 433Q442.39013671875 489.77001953125 429.235107421875 529.0400390625Q416.080078125 568.31005859375 388.6925048828125 589.195068359375Q361.304931640625 610.080078125 327.224853515625 610.080078125Q301.98974609375 610.080078125 288.064697265625 605.6575927734375Q274.1396484375 601.235107421875 266.86962890625 586.85009765625Q259.599609375 572.465087890625 253.214599609375 542L172.214599609375 81Q165.214599609375 38 175.2921142578125 25.0Q185.36962890625 12 226.98974609375 12Q229.604736328125 12 229.604736328125 6.0Q229.604736328125 0 226.98974609375 0Q205.759765625 0 177.914794921875 1.0Q150.06982421875 2 118.224853515625 2Q88.764892578125 2 61.7274169921875 1.0Q34.68994140625 0 13.844970703125 0Z" fill="#D19AA8" transform="translate(463.861 25.000) scale(0.023000 -0.023000)"/>
  <path d="M126.8603515625 0Q124.475341796875 0 124.475341796875 6.0Q124.475341796875 12 126.8603515625 12Q161.3203125 12 179.55029296875 17.0Q197.7802734375 22 206.7027587890625 37.0Q215.625244140625 52 220.625244140625 81L302.01025390625 544Q309.01025390625 581.31005859375 301.1627197265625 593.0025634765625Q293.315185546875 604.695068359375 261.385009765625 604.695068359375H243.60986328125Q207.759765625 604.695068359375 176.954833984375 586.4676513671875Q146.14990234375 568.240234375 122.9224853515625 534.9727783203125Q99.695068359375 501.705322265625 85.925048828125 454.855224609375Q84.925048828125 451.855224609375 79.2325439453125 453.0477294921875Q73.5400390625 454.240234375 74.5400390625 456.855224609375Q78.5400390625 470.085205078125 84.8475341796875 494.6226806640625Q91.155029296875 519.16015625 97.9625244140625 547.8126220703125Q104.77001953125 576.465087890625 110.885009765625 603.1175537109375Q117 629.77001953125 120 647Q122 650 127.5 649.5Q133 649 132 646Q130 631 145.0 628.0Q160 625 171 625Q208 624 257.5 623.0Q307 622 354 622Q414 622 455.0 623.5Q496 625 530 625Q558 625 573.5 629.5Q589 634 596 650Q598 653 603.0 652.5Q608 652 607 648Q603 632.77001953125 596.385009765625 606.1175537109375Q589.77001953125 579.465087890625 583.4625244140625 549.8126220703125Q577.155029296875 520.16015625 572.3475341796875 494.815185546875Q567.5400390625 469.47021484375 565.5400390625 456.855224609375Q564.5400390625 453.240234375 558.7325439453125 453.740234375Q552.925048828125 454.240234375 553.925048828125 458.240234375Q562.31005859375 504.09033203125 553.6976318359375 536.665283203125Q545.085205078125 569.240234375 521.0477294921875 586.9676513671875Q497.01025390625 604.695068359375 457.545166015625 604.695068359375H440.385009765625Q407.60986328125 604.695068359375 397.4923095703125 591.81005859375Q387.374755859375 578.925048828125 380.98974609375 542L299.98974609375 81Q294.98974609375 52 297.98974609375 37.0Q300.98974609375 22 318.0272216796875 17.0Q335.064697265625 12 370.524658203125 12Q372.524658203125 12 372.524658203125 6.0Q372.524658203125 0 370.524658203125 0Q345.604736328125 0 315.3773193359375 1.0Q285.14990234375 2 248 2Q214.465087890625 2 183.1226806640625 1.0Q151.7802734375 0 126.8603515625 0Z" fill="#D19AA8" transform="translate(478.275 25.000) scale(0.023000 -0.023000)"/>
  <path d="M18.074951171875 0Q15.4599609375 0 15.4599609375 6.0Q15.4599609375 12 18.074951171875 12Q47.385009765625 12 62.5400390625 17.0Q77.695068359375 22 85.080078125 37.0Q92.465087890625 52 97.465087890625 81L178.85009765625 544Q186.85009765625 587 176.580078125 600.0Q166.31005859375 613 124.4599609375 613Q122.074951171875 613 122.074951171875 619.0Q122.074951171875 625 124.4599609375 625H512.83984375Q520.83984375 625 518.83984375 616Q515.83984375 597.385009765625 512.0323486328125 572.5400390625Q508.224853515625 547.695068359375 504.9173583984375 524.465087890625Q501.60986328125 501.235107421875 498.60986328125 486.6201171875Q497.60986328125 482.6201171875 491.9173583984375 483.9276123046875Q486.224853515625 485.235107421875 486.60986328125 487.6201171875Q487.614990234375 542.080078125 459.7376708984375 574.3875732421875Q431.8603515625 606.695068359375 383.405517578125 606.695068359375H334.2197265625Q305.064697265625 606.695068359375 290.2171630859375 602.0025634765625Q275.36962890625 597.31005859375 269.099609375 583.7325439453125Q262.82958984375 570.155029296875 257.82958984375 543L176.82958984375 85Q169.82958984375 44.22998046875 179.599609375 32.0374755859375Q189.36962890625 19.844970703125 230.2197265625 19.844970703125H296.645751953125Q345.635498046875 19.844970703125 391.51025390625 56.7674560546875Q437.385009765625 93.68994140625 466.2998046875 154.3798828125Q467.914794921875 157.3798828125 473.6072998046875 156.0723876953125Q479.2998046875 154.764892578125 477.2998046875 152.3798828125Q468.684814453125 124.534912109375 459.8773193359375 86.18994140625Q451.06982421875 47.844970703125 444.83984375 15Q441.83984375 0 428.83984375 0ZM422.834716796875 226.6201171875Q421.834716796875 222.6201171875 415.834716796875 223.1201171875Q409.834716796875 223.6201171875 410.834716796875 227.6201171875Q418.834716796875 272.005126953125 400.9923095703125 292.465087890625Q383.14990234375 312.925048828125 340.919921875 312.925048828125H180.83984375L184.454833984375 337.4599609375H347.919921875Q390.224853515625 337.4599609375 412.144775390625 354.18994140625Q434.064697265625 370.919921875 441.90966796875 410.764892578125Q442.90966796875 415.3798828125 448.90966796875 414.8798828125Q454.90966796875 414.3798828125 453.90966796875 409.3798828125Q449.294677734375 378.919921875 445.294677734375 361.574951171875Q441.294677734375 344.22998046875 438.064697265625 325Q434.064697265625 301.155029296875 430.94970703125 277.81005859375Q427.834716796875 254.465087890625 422.834716796875 226.6201171875Z" fill="#D19AA8" transform="translate(493.494 25.000) scale(0.023000 -0.023000)"/>
  <path d="M17.074951171875 0Q13.074951171875 0 13.074951171875 6.0Q13.074951171875 12 17.074951171875 12Q48 12 65.155029296875 17.3074951171875Q82.31005859375 22.614990234375 90.8875732421875 37.614990234375Q99.465087890625 52.614990234375 104.465087890625 81L185.85009765625 544Q191.465087890625 573 189.080078125 587.5Q186.695068359375 602 172.7325439453125 607.5Q158.77001953125 613 128.074951171875 613Q124.074951171875 613 124.074951171875 619.0Q124.074951171875 625 128.074951171875 625Q150.304931640625 625 178.64990234375 623.5Q206.994873046875 622 237.83984375 622Q260.83984375 622 292.83984375 625.0Q324.83984375 628 344.83984375 628Q437.36962890625 628 475.4820556640625 593.0Q513.594482421875 558 501.20947265625 491Q491.20947265625 435.31005859375 453.01953125 393.31005859375Q414.82958984375 351.31005859375 359.794677734375 328.0400390625Q304.759765625 304.77001953125 244.224853515625 304.77001953125Q238.2998046875 304.77001953125 228.0672607421875 305.4625244140625Q217.834716796875 306.155029296875 213.90966796875 307.155029296875L218.36962890625 335.4599609375Q227.44970703125 332.844970703125 240.98974609375 331.5374755859375Q254.52978515625 330.22998046875 263.83984375 330.22998046875Q331.14990234375 330.22998046875 366.534912109375 361.2674560546875Q401.919921875 392.304931640625 414.4599609375 464.3798828125Q425 518.844970703125 415.5374755859375 550.885009765625Q406.074951171875 582.925048828125 383.3798828125 596.5025634765625Q360.684814453125 610.080078125 330.064697265625 610.080078125Q308.064697265625 610.080078125 296.1021728515625 606.8875732421875Q284.1396484375 603.695068359375 277.484619140625 589.6175537109375Q270.82958984375 575.5400390625 264.82958984375 542L182.82958984375 81Q177.82958984375 52.614990234375 179.82958984375 37.614990234375Q181.82958984375 22.614990234375 195.6771240234375 17.3074951171875Q209.524658203125 12 239.2197265625 12Q243.2197265625 12 243.2197265625 6.0Q243.2197265625 0 240.2197265625 0Q216.98974609375 0 189.644775390625 1.0Q162.2998046875 2 129.454833984375 2Q98.3798828125 2 68.8424072265625 1.0Q39.304931640625 0 17.074951171875 0ZM469.625244140625 0Q455.47021484375 0 430.3526611328125 34.695068359375Q405.235107421875 69.39013671875 371.8475341796875 140.9676513671875Q338.4599609375 212.545166015625 299.60986328125 322L364.824462890625 344.3798828125Q417.28955078125 220.304931640625 456.5220947265625 147.574951171875Q495.754638671875 74.844970703125 530.024658203125 43.4224853515625Q564.294677734375 12 599.834716796875 12Q603.2197265625 12 603.2197265625 6.0Q603.2197265625 0 599.834716796875 0Q548.074951171875 0 516.695068359375 0.0Q485.315185546875 0 469.625244140625 0Z" fill="#D19AA8" transform="translate(508.023 25.000) scale(0.023000 -0.023000)"/>
  <path d="M260.614990234375 1 136.16015625 542Q127.315185546875 581 114.045166015625 597.0Q100.775146484375 613 74.775146484375 613Q72.16015625 613 72.16015625 619.0Q72.16015625 625 74.775146484375 625Q94.85009765625 625 117.8475341796875 623.5Q140.844970703125 622 160.919921875 622Q198.2998046875 622 224.98974609375 623.5Q251.6796875 625 273.754638671875 625Q277.1396484375 625 277.1396484375 619.0Q277.1396484375 613 273.754638671875 613Q242.36962890625 613 226.0621337890625 600.5Q209.754638671875 588 217.984619140625 552L324.1396484375 91.054443359375L269.155029296875 18.85009765625L528.625244140625 524.785400390625Q551.16015625 568.625244140625 537.0477294921875 590.8126220703125Q522.935302734375 613 478.395263671875 613Q475.395263671875 613 475.395263671875 619.0Q475.395263671875 625 478.395263671875 625Q502.315185546875 625 524.9276123046875 623.5Q547.5400390625 622 583.919921875 622Q609.764892578125 622 626.60986328125 623.5Q643.454833984375 625 667.2998046875 625Q671.2998046875 625 671.2998046875 619.0Q671.2998046875 613 667.2998046875 613Q649.06982421875 613 630.9173583984375 606.5775146484375Q612.764892578125 600.155029296875 594.3824462890625 580.735107421875Q576 561.315185546875 554.85009765625 520.63037109375L284.919921875 1Q281.919921875 -3.614990234375 271.7674560546875 -3.3074951171875Q261.614990234375 -3 260.614990234375 1Z" fill="#D19AA8" transform="translate(532.780 25.000) scale(0.023000 -0.023000)"/>
  <path d="M238 49 C312 33 378 63 451 49" fill="none" stroke="#75BDB8" stroke-linecap="round" stroke-width="1.5"/>
  <path d="M509 49 C582 35 648 65 722 49" fill="none" stroke="#75BDB8" stroke-linecap="round" stroke-width="1.5"/>
  <path d="M330 57 C376 51 414 56 451 51" fill="none" stroke="#D19AA8" stroke-linecap="round" stroke-width="1.1"/>
  <path d="M509 51 C546 56 584 51 630 57" fill="none" stroke="#D19AA8" stroke-linecap="round" stroke-width="1.1"/>
  <path d="M480 42 L487 49 L480 56 L473 49 Z" fill="#D2B06A"/>
  <circle cx="457" cy="49" r="2.2" fill="#D19AA8"/>
  <circle cx="503" cy="49" r="2.2" fill="#D19AA8"/>
  <path d="M571.22001953125 502.06044921875Q571.22001953125 553.9603515625 547.60009765625 583.48017578125Q523.98017578125 613 479.98017578125 613Q477.76015625 613 477.76015625 619.0Q477.76015625 625 479.98017578125 625Q504.3201171875 625 530.16005859375 623.5Q556 622 586.33994140625 622Q612.45986328125 622 637.909814453125 623.5Q663.359765625 625 684.69970703125 625Q686.69970703125 625 686.69970703125 619.0Q686.69970703125 613 684.69970703125 613Q644.69970703125 613 623.63974609375 583.48017578125Q602.57978515625 553.9603515625 602.57978515625 502.06044921875V222.30029296875Q602.57978515625 149.54013671875 572.01982421875 96.490087890625Q541.45986328125 43.4400390625 486.229931640625 14.830029296874999Q431 -13.77998046875 357.10009765625 -13.77998046875Q283.880078125 -13.77998046875 226.930126953125 14.550048828124998Q169.98017578125 42.880078125 138.030224609375 95.60009765625Q106.0802734375 148.3201171875 106.0802734375 221.880078125V544Q106.0802734375 573 100.750244140625 587.5Q95.42021484375 602 79.150146484375 607.5Q62.880078125 613 31.119921875 613Q28.33994140625 613 28.33994140625 619.0Q28.33994140625 625 31.119921875 625Q56.6798828125 625 88.01982421874999 623.5Q119.359765625 622 154.69970703125 622Q191.81962890625 622 223.269580078125 623.5Q254.71953125 625 279.05947265625 625Q282.05947265625 625 282.05947265625 619.0Q282.05947265625 613 279.05947265625 613Q247.29931640625 613 231.41923828125 607.0Q215.53916015625 601 209.929150390625 586.0Q204.319140625 571 204.319140625 542V256.880078125Q204.319140625 134.98017578125 254.6392578125 78.22001953125Q304.959375 21.45986328125 390.69970703125 21.45986328125Q475.6798828125 21.45986328125 523.449951171875 73.610009765625Q571.22001953125 125.76015625 571.22001953125 221.30029296875Z" fill="#A8DDD7" transform="translate(316.759 116.000) scale(0.058000 -0.058000)"/>
  <path d="M113.1595703125 334.4796875Q113.1595703125 312.1595703125 125.099609375 295.21953125000005Q137.0396484375 278.2794921875 155.80971679687502 264.99951171875Q174.57978515625 251.71953125 196.01982421875 238.93955078125Q221.23984375 225.37958984375 245.01982421875 210.099609375Q268.7998046875 194.81962890625 284.57978515625 173.25966796875Q300.359765625 151.69970703125 300.359765625 117.359765625Q300.359765625 85.359765625 283.96977539062505 55.629833984375Q267.57978515625 25.89990234375 234.90981445312502 7.449951171875Q202.23984375 -11 153.33994140625 -11Q128.5599609375 -11 104.0 -5.27998046875Q79.4400390625 0.4400390624999999 51.54013671875 16.880078125Q49.54013671875 18.880078125 47.54013671875 21.880078125Q45.54013671875 24.880078125 45.54013671875 28.880078125L43.54013671875 121.93955078125Q43.54013671875 124.93955078125 49.04013671875 125.43955078125Q54.54013671875 125.93955078125 55.54013671875 123.71953125Q66.98017578125 91.2794921875 86.430126953125 65.099609375Q105.880078125 38.9197265625 130.610009765625 23.849853515625Q155.33994140625 8.77998046875 181.5599609375 8.77998046875Q204.86025390625 8.77998046875 219.070361328125 22.16005859375Q233.28046875 35.54013671875 232.8404296875 63.0802734375Q232.62041015625 91.30029296875 219.79038085937498 109.690283203125Q206.9603515625 128.0802734375 187.5203125 141.250244140625Q168.0802734375 154.42021484375 147.42021484375 165.42021484375Q123.98017578125 178.2001953125 101.090185546875 192.090185546875Q78.2001953125 205.98017578125 63.310205078125 227.370166015625Q48.42021484375 248.76015625 48.42021484375 283.3201171875Q48.42021484375 324.4400390625 69.2001953125 349.33002929687495Q89.98017578125 374.22001953125 122.82011718749999 385.4400390625Q155.66005859375 396.66005859375 191 396.66005859375Q212.119921875 396.66005859375 230.509912109375 393.550048828125Q248.89990234375 390.4400390625 271.359765625 381.66005859375Q280.359765625 378.4400390625 280.359765625 370.66005859375Q280.359765625 351.76015625 279.359765625 331.250244140625Q278.359765625 310.74033203125 278.359765625 286.06044921875Q278.359765625 283.28046875 272.359765625 283.28046875Q266.359765625 283.28046875 266.359765625 286.06044921875Q266.359765625 305.94052734375 250.63974609375 326.8404296875Q234.9197265625 347.74033203125 210.249755859375 362.590185546875Q185.57978515625 377.4400390625 157.89990234375 377.4400390625Q141.0396484375 377.4400390625 127.099609375 368.89990234375Q113.1595703125 360.359765625 113.1595703125 334.4796875Z" fill="#A8DDD7" transform="translate(356.431 116.000) scale(0.058000 -0.058000)"/>
  <path d="M230.599609375 -12Q166.9197265625 -12 122.73984374999999 15.110009765625001Q78.5599609375 42.22001953125 55.830029296875 86.610009765625Q33.10009765625 131 33.10009765625 181.5599609375Q33.10009765625 241 61.880078125 289.110009765625Q90.66005859375 337.22001953125 140.88999023437498 366.110009765625Q191.119921875 395 254.9197265625 395Q313.4796875 395 347.329541015625 367.119921875Q381.17939453125 339.23984375 381.17939453125 280.22001953125Q381.17939453125 267.22001953125 379.06938476562505 258.880078125Q376.959375 250.54013671875 369.959375 250.54013671875H284.74033203125Q287.400390625 308.640234375 271.870166015625 341.8201171875Q256.33994140625 375 218.23984375 375Q174.71953125 375 149.569384765625 333.669970703125Q124.41923828125 292.33994140625 124.41923828125 223.01982421875Q124.41923828125 165.45986328125 142.41923828125 122.909814453125Q160.41923828125 80.359765625 195.41923828125 56.809716796874994Q230.41923828125 33.25966796875 281.19921875 33.25966796875Q312.29931640625 33.25966796875 333.23935546875 41.4197265625Q354.17939453125 49.57978515625 378.29931640625 62.57978515625Q380.29931640625 64.57978515625 383.79931640625 60.469775390625Q387.29931640625 56.359765625 385.29931640625 53.359765625Q348.73935546875 17.89990234375 310.8994140625 2.949951171875Q273.05947265625 -12 230.599609375 -12ZM94.25966796875 249.54013671875 93.25966796875 267 314.23984375 271V250.54013671875Z" fill="#A8DDD7" transform="translate(375.977 116.000) scale(0.058000 -0.058000)"/>
  <path d="M666.10009765625 625Q669.10009765625 625 669.10009765625 619.0Q669.10009765625 613 666.10009765625 613Q630.42021484375 613 599.900390625 585.18037109375Q569.38056640625 557.3607421875 549.82060546875 505.78095703125L357.119921875 1Q356.119921875 -3 346.619921875 -3.0Q337.119921875 -3 335.119921875 1L81.880078125 542Q64.880078125 577.880078125 46.660058593749994 595.4400390625Q28.4400390625 613 3.4598632812500005 613Q0.45986328125000053 613 0.45986328125000053 619.0Q0.45986328125000053 625 3.4598632812500005 625Q15.89990234375 625 24.16005859375 624.0Q32.42021484375 623 44.5802734375 622.5Q56.74033203125 622 79.10009765625 622Q128.05947265625 622 159.7591796875 622.5Q191.45888671875 623 212.248779296875 624.0Q233.038671875 625 248.81865234375 625Q251.81865234375 625 251.81865234375 619.0Q251.81865234375 613 248.81865234375 613Q206.91875 613 192.4787109375 591.530224609375Q178.038671875 570.06044921875 196.5986328125 530.160546875L387.839453125 118.61845703125L345.23984375 46.5193359375L523.3607421875 509.441015625Q540.4806640625 555.3607421875 525.090673828125 584.18037109375Q509.70068359375 613 459.160546875 613Q456.160546875 613 456.160546875 619.0Q456.160546875 625 459.160546875 625Q486.8404296875 625 511.850341796875 623.5Q536.86025390625 622 577.880078125 622Q606.10009765625 622 623.60009765625 623.5Q641.10009765625 625 666.10009765625 625Z" fill="#A8DDD7" transform="translate(413.619 116.000) scale(0.058000 -0.058000)"/>
  <path d="M42.9603515625 0Q40.18037109375 0 40.18037109375 6.0Q40.18037109375 12 42.9603515625 12Q76.160546875 12 87.490576171875 26.169970703125Q98.82060546875 40.33994140625 98.82060546875 81V262.2001953125Q98.82060546875 295.86025390625 92.210595703125 311.5802734375Q85.6005859375 327.30029296875 68.160546875 327.30029296875Q60.7205078125 327.30029296875 50.78046875 324.190283203125Q40.8404296875 321.0802734375 28.74033203125 315.42021484375Q24.74033203125 314.42021484375 22.24033203125 320.310205078125Q19.74033203125 326.2001953125 22.9603515625 327.42021484375L168.01982421875 394.77998046875Q170.23984375 395.77998046875 171.23984375 395.77998046875Q175.57978515625 395.77998046875 180.029736328125 391.4400390625Q184.4796875 387.10009765625 184.4796875 383.3201171875Q184.4796875 372.42021484375 183.4796875 343.650146484375Q182.4796875 314.880078125 182.4796875 263.98017578125V81Q182.4796875 40.33994140625 193.9796875 26.169970703125Q205.4796875 12 238.89990234375 12Q241.89990234375 12 241.89990234375 6.0Q241.89990234375 0 238.89990234375 0Q219.5599609375 0 194.22001953125 1.0Q168.880078125 2 140.54013671875 2Q113.2001953125 2 87.86025390625 1.0Q62.5203125 0 42.9603515625 0ZM135.66005859375 499.62041015625Q109.640234375 499.62041015625 94.4603515625 514.30029296875Q79.28046875 528.98017578125 79.28046875 555.5599609375Q79.28046875 579.7998046875 94.4603515625 594.089697265625Q109.640234375 608.37958984375 135.66005859375 608.37958984375Q161.45986328125 608.37958984375 175.359765625 594.089697265625Q189.25966796875 579.7998046875 189.25966796875 555.5599609375Q189.25966796875 499.62041015625 135.66005859375 499.62041015625Z" fill="#A8DDD7" transform="translate(450.275 116.000) scale(0.058000 -0.058000)"/>
  <path d="M263.81962890625 -13Q221.9197265625 -13 181.7998046875 1.7299316406250007Q141.6798828125 16.45986328125 108.01982421875 46.45986328125L167.3994140625 155.7591796875Q167.3994140625 100.2794921875 188.169482421875 67.25966796875Q208.93955078125 34.23984375 237.929638671875 20.509912109374998Q266.9197265625 6.77998046875 289.7998046875 6.77998046875Q337.76015625 6.77998046875 363.010400390625 51.0Q388.26064453125 95.22001953125 388.26064453125 175.76015625Q388.26064453125 266.42021484375 356.50048828125 308.9603515625Q324.74033203125 351.50048828125 273.2001953125 351.50048828125Q239.33994140625 351.50048828125 209.469775390625 335.090185546875Q179.599609375 318.6798828125 154.61943359375 296.71953125L145.839453125 304.49951171875Q166.839453125 326.1595703125 191.10952148437502 347.9796875Q215.37958984375 369.7998046875 246.36967773437502 384.39990234375Q277.359765625 399 316.45986328125 399Q360.01982421875 399 397.189794921875 378.5Q434.359765625 358 457.63974609375 317.0Q480.9197265625 276 480.9197265625 213.22001953125Q480.9197265625 138 449.19970703125 87.5Q417.4796875 37 368.0396484375 12.0Q318.599609375 -13 263.81962890625 -13ZM37.3201171875 -6.33994140625Q33.3201171875 -7.33994140625 31.320117187500003 -2.949951171875Q29.3201171875 1.4400390625 33.10009765625 2.880078125Q57.640234375 18.42021484375 71.0802734375 40.710107421875Q84.5203125 63 84.5203125 103V591.2001953125Q84.5203125 625.640234375 77.910302734375 641.3602539062499Q71.30029296875 657.0802734375 53.86025390625 657.0802734375Q39.98017578125 657.0802734375 14.4400390625 645.42021484375Q10.4400390625 644.2001953125 8.050048828125 650.2001953125Q5.66005859375 656.2001953125 8.10009765625 657.2001953125L148.37958984375 724Q151.37958984375 725 153.37958984375 725Q157.71953125 725 162.55947265625 721.050048828125Q167.3994140625 717.10009765625 167.3994140625 713.3201171875V53.359765625Z" fill="#A8DDD7" transform="translate(465.703 116.000) scale(0.058000 -0.058000)"/>
  <path d="M230.599609375 -12Q166.9197265625 -12 122.73984374999999 15.110009765625001Q78.5599609375 42.22001953125 55.830029296875 86.610009765625Q33.10009765625 131 33.10009765625 181.5599609375Q33.10009765625 241 61.880078125 289.110009765625Q90.66005859375 337.22001953125 140.88999023437498 366.110009765625Q191.119921875 395 254.9197265625 395Q313.4796875 395 347.329541015625 367.119921875Q381.17939453125 339.23984375 381.17939453125 280.22001953125Q381.17939453125 267.22001953125 379.06938476562505 258.880078125Q376.959375 250.54013671875 369.959375 250.54013671875H284.74033203125Q287.400390625 308.640234375 271.870166015625 341.8201171875Q256.33994140625 375 218.23984375 375Q174.71953125 375 149.569384765625 333.669970703125Q124.41923828125 292.33994140625 124.41923828125 223.01982421875Q124.41923828125 165.45986328125 142.41923828125 122.909814453125Q160.41923828125 80.359765625 195.41923828125 56.809716796874994Q230.41923828125 33.25966796875 281.19921875 33.25966796875Q312.29931640625 33.25966796875 333.23935546875 41.4197265625Q354.17939453125 49.57978515625 378.29931640625 62.57978515625Q380.29931640625 64.57978515625 383.79931640625 60.469775390625Q387.29931640625 56.359765625 385.29931640625 53.359765625Q348.73935546875 17.89990234375 310.8994140625 2.949951171875Q273.05947265625 -12 230.599609375 -12ZM94.25966796875 249.54013671875 93.25966796875 267 314.23984375 271V250.54013671875Z" fill="#A8DDD7" transform="translate(495.515 116.000) scale(0.058000 -0.058000)"/>
  <path d="M166.079296875 519.599609375Q166.079296875 480.71953125 185.79931640625 451.99951171875Q205.5193359375 423.2794921875 237.23935546875 400.49951171875Q268.959375 377.71953125 304.17939453125 355.1595703125Q341.959375 331.81962890625 376.349365234375 305.97968749999995Q410.73935546875 280.13974609375 433.23935546875 246.07978515624998Q455.73935546875 212.01982421875 455.73935546875 164.01982421875Q455.73935546875 112.5599609375 428.55947265625 72.889990234375Q401.37958984375 33.22001953125 353.649658203125 10.610009765625001Q305.9197265625 -12 242.599609375 -12Q214.359765625 -12 184.27998046875 -6.66005859375Q154.2001953125 -1.3201171874999993 128.5802734375 7.349853515625Q102.9603515625 16.01982421875 87.880078125 26.6798828125Q83.66005859375 29.6798828125 80.990087890625 33.39990234375Q78.3201171875 37.119921875 78.10009765625 45.6798828125L72.45986328125 198.29931640625Q71.45986328125 203.29931640625 76.95986328125 203.79931640625Q82.45986328125 204.29931640625 83.45986328125 200.29931640625Q96.0396484375 169.5193359375 112.71953125 136.009423828125Q129.3994140625 102.49951171875 151.459375 74.37958984375Q173.5193359375 46.25966796875 202.069384765625 28.419726562500003Q230.61943359375 10.57978515625 267.71953125 10.57978515625Q292.4796875 10.57978515625 315.23984375 19.349853515625Q338 28.119921875 352.60009765625 50.22001953125Q367.2001953125 72.3201171875 367.2001953125 111.0802734375Q367.2001953125 158.5203125 346.090185546875 191.80029296875Q324.98017578125 225.0802734375 291.98017578125 250.140234375Q258.98017578125 275.2001953125 222.76015625 297.76015625Q187.76015625 320.3201171875 155.54013671875 344.490087890625Q123.3201171875 368.66005859375 103.210107421875 400.16005859375Q83.10009765625 431.66005859375 83.10009765625 476.3201171875Q83.10009765625 531.4400390625 113.389990234375 566.72001953125Q143.6798828125 602 190.63974609375 619.0Q237.599609375 636 286.49951171875 636Q320.29931640625 636 354.649169921875 629.72001953125Q388.9990234375 623.4400390625 412.19921875 613.5599609375Q421.7591796875 609.77998046875 424.47919921875 604.889990234375Q427.19921875 600 427.19921875 594.22001953125L429.17939453125 456.2408203125Q429.17939453125 453.02080078125 424.459375 451.850830078125Q419.73935546875 450.680859375 417.959375 453.90087890625Q412.839453125 468.10107421875 402.389501953125 494.72099609375Q391.93955078125 521.34091796875 374.269580078125 549.14072265625Q356.599609375 576.94052734375 329.149658203125 596.4603515624999Q301.69970703125 615.98017578125 262.57978515625 615.98017578125Q233.61943359375 615.98017578125 212.0193359375 604.22001953125Q190.41923828125 592.45986328125 178.249267578125 571.309716796875Q166.079296875 550.1595703125 166.079296875 519.599609375Z" fill="#A8DDD7" transform="translate(519.585 116.000) scale(0.058000 -0.058000)"/>
  <path d="M22.3201171875 0Q20.10009765625 0 20.10009765625 6.0Q20.10009765625 12 22.3201171875 12Q55.5203125 12 67.13032226562501 26.169970703125Q78.74033203125 40.33994140625 78.74033203125 81V591.42021484375Q78.74033203125 625.86025390625 72.5203125 641.5802734375Q66.30029296875 657.30029296875 49.0802734375 657.30029296875Q34.640234375 657.30029296875 8.880078125 645.42021484375Q5.66005859375 644.2001953125 2.7700683593749997 650.2001953125Q-0.11992187500000018 656.2001953125 2.3201171874999993 657.2001953125L142.599609375 724Q145.599609375 725 147.599609375 725Q151.93955078125 725 156.7794921875 721.050048828125Q161.61943359375 717.10009765625 161.61943359375 713.3201171875V81Q161.61943359375 40.33994140625 173.229443359375 26.169970703125Q184.839453125 12 218.25966796875 12Q221.81962890625 12 221.81962890625 6.0Q221.81962890625 0 218.25966796875 0Q198.69970703125 0 173.859765625 1.0Q149.01982421875 2 120.6798828125 2Q92.5599609375 2 67.110009765625 1.0Q41.66005859375 0 22.3201171875 0ZM274.10009765625 0Q271.3201171875 0 271.3201171875 6.0Q271.3201171875 12 274.10009765625 12Q303.5203125 12 311.400390625 23.33994140625Q319.28046875 34.6798828125 305.62041015625 53L183.0802734375 212.8404296875L245.13974609375 260L382.49951171875 81Q411.05947265625 43.5599609375 438.329541015625 27.77998046875Q465.599609375 12 493.25966796875 12Q496.0396484375 12 496.0396484375 6.0Q496.0396484375 0 493.25966796875 0Q473.69970703125 0 448.469775390625 1.0Q423.23984375 2 394.89990234375 2Q355.5599609375 2 326.72001953125005 1.0Q297.880078125 0 274.10009765625 0ZM130.6798828125 154.06044921875 125.119921875 168.74033203125 266.06044921875 297.86025390625Q296.920703125 325.18037109375 293.1005859375 349.590185546875Q289.28046875 374 250.3201171875 374Q248.10009765625 374 248.10009765625 380.0Q248.10009765625 386 250.3201171875 386Q275.880078125 386 301.830029296875 385.0Q327.77998046875 384 371.6798828125 384Q411.7998046875 384 435.749755859375 385.0Q459.69970703125 386 481.25966796875 386Q484.0396484375 386 484.0396484375 380.0Q484.0396484375 374 481.25966796875 374Q456.69970703125 374 423.95986328125 365.830029296875Q391.22001953125 357.66005859375 356.76015625 339.82011718750005Q322.30029296875 321.98017578125 290.30029296875 293.30029296875Z" fill="#A8DDD7" transform="translate(549.049 116.000) scale(0.058000 -0.058000)"/>
  <path d="M42.9603515625 0Q40.18037109375 0 40.18037109375 6.0Q40.18037109375 12 42.9603515625 12Q76.160546875 12 87.490576171875 26.169970703125Q98.82060546875 40.33994140625 98.82060546875 81V262.2001953125Q98.82060546875 295.86025390625 92.210595703125 311.5802734375Q85.6005859375 327.30029296875 68.160546875 327.30029296875Q60.7205078125 327.30029296875 50.78046875 324.190283203125Q40.8404296875 321.0802734375 28.74033203125 315.42021484375Q24.74033203125 314.42021484375 22.24033203125 320.310205078125Q19.74033203125 326.2001953125 22.9603515625 327.42021484375L168.01982421875 394.77998046875Q170.23984375 395.77998046875 171.23984375 395.77998046875Q175.57978515625 395.77998046875 180.029736328125 391.4400390625Q184.4796875 387.10009765625 184.4796875 383.3201171875Q184.4796875 372.42021484375 183.4796875 343.650146484375Q182.4796875 314.880078125 182.4796875 263.98017578125V81Q182.4796875 40.33994140625 193.9796875 26.169970703125Q205.4796875 12 238.89990234375 12Q241.89990234375 12 241.89990234375 6.0Q241.89990234375 0 238.89990234375 0Q219.5599609375 0 194.22001953125 1.0Q168.880078125 2 140.54013671875 2Q113.2001953125 2 87.86025390625 1.0Q62.5203125 0 42.9603515625 0ZM135.66005859375 499.62041015625Q109.640234375 499.62041015625 94.4603515625 514.30029296875Q79.28046875 528.98017578125 79.28046875 555.5599609375Q79.28046875 579.7998046875 94.4603515625 594.089697265625Q109.640234375 608.37958984375 135.66005859375 608.37958984375Q161.45986328125 608.37958984375 175.359765625 594.089697265625Q189.25966796875 579.7998046875 189.25966796875 555.5599609375Q189.25966796875 499.62041015625 135.66005859375 499.62041015625Z" fill="#A8DDD7" transform="translate(577.527 116.000) scale(0.058000 -0.058000)"/>
  <path d="M36.3201171875 0Q34.10009765625 0 34.10009765625 6.0Q34.10009765625 12 36.3201171875 12Q69.5203125 12 81.13032226562501 26.169970703125Q92.74033203125 40.33994140625 92.74033203125 81L93.5203125 591.42021484375Q93.5203125 625.86025390625 87.30029296875 641.5802734375Q81.0802734375 657.30029296875 63.86025390625 657.30029296875Q50.2001953125 657.30029296875 23.66005859375 645.42021484375Q20.4400390625 644.2001953125 17.550048828125 650.2001953125Q14.66005859375 656.2001953125 17.10009765625 657.2001953125L158.81962890625 724Q160.81962890625 725 163.0396484375 725Q167.37958984375 725 172.60952148437502 721.050048828125Q177.839453125 717.10009765625 177.839453125 713.3201171875V81Q177.839453125 40.5599609375 188.949462890625 26.27998046875Q200.05947265625 12 233.4796875 12Q237.25966796875 12 237.25966796875 6.0Q237.25966796875 0 233.4796875 0Q214.9197265625 0 189.07978515625 1.0Q163.23984375 2 134.89990234375 2Q106.77998046875 2 81.22001953125 1.0Q55.66005859375 0 36.3201171875 0Z" fill="#A8DDD7" transform="translate(592.955 116.000) scale(0.058000 -0.058000)"/>
  <path d="M36.3201171875 0Q34.10009765625 0 34.10009765625 6.0Q34.10009765625 12 36.3201171875 12Q69.5203125 12 81.13032226562501 26.169970703125Q92.74033203125 40.33994140625 92.74033203125 81L93.5203125 591.42021484375Q93.5203125 625.86025390625 87.30029296875 641.5802734375Q81.0802734375 657.30029296875 63.86025390625 657.30029296875Q50.2001953125 657.30029296875 23.66005859375 645.42021484375Q20.4400390625 644.2001953125 17.550048828125 650.2001953125Q14.66005859375 656.2001953125 17.10009765625 657.2001953125L158.81962890625 724Q160.81962890625 725 163.0396484375 725Q167.37958984375 725 172.60952148437502 721.050048828125Q177.839453125 717.10009765625 177.839453125 713.3201171875V81Q177.839453125 40.5599609375 188.949462890625 26.27998046875Q200.05947265625 12 233.4796875 12Q237.25966796875 12 237.25966796875 6.0Q237.25966796875 0 233.4796875 0Q214.9197265625 0 189.07978515625 1.0Q163.23984375 2 134.89990234375 2Q106.77998046875 2 81.22001953125 1.0Q55.66005859375 0 36.3201171875 0Z" fill="#A8DDD7" transform="translate(608.325 116.000) scale(0.058000 -0.058000)"/>
  <path d="M113.1595703125 334.4796875Q113.1595703125 312.1595703125 125.099609375 295.21953125000005Q137.0396484375 278.2794921875 155.80971679687502 264.99951171875Q174.57978515625 251.71953125 196.01982421875 238.93955078125Q221.23984375 225.37958984375 245.01982421875 210.099609375Q268.7998046875 194.81962890625 284.57978515625 173.25966796875Q300.359765625 151.69970703125 300.359765625 117.359765625Q300.359765625 85.359765625 283.96977539062505 55.629833984375Q267.57978515625 25.89990234375 234.90981445312502 7.449951171875Q202.23984375 -11 153.33994140625 -11Q128.5599609375 -11 104.0 -5.27998046875Q79.4400390625 0.4400390624999999 51.54013671875 16.880078125Q49.54013671875 18.880078125 47.54013671875 21.880078125Q45.54013671875 24.880078125 45.54013671875 28.880078125L43.54013671875 121.93955078125Q43.54013671875 124.93955078125 49.04013671875 125.43955078125Q54.54013671875 125.93955078125 55.54013671875 123.71953125Q66.98017578125 91.2794921875 86.430126953125 65.099609375Q105.880078125 38.9197265625 130.610009765625 23.849853515625Q155.33994140625 8.77998046875 181.5599609375 8.77998046875Q204.86025390625 8.77998046875 219.070361328125 22.16005859375Q233.28046875 35.54013671875 232.8404296875 63.0802734375Q232.62041015625 91.30029296875 219.79038085937498 109.690283203125Q206.9603515625 128.0802734375 187.5203125 141.250244140625Q168.0802734375 154.42021484375 147.42021484375 165.42021484375Q123.98017578125 178.2001953125 101.090185546875 192.090185546875Q78.2001953125 205.98017578125 63.310205078125 227.370166015625Q48.42021484375 248.76015625 48.42021484375 283.3201171875Q48.42021484375 324.4400390625 69.2001953125 349.33002929687495Q89.98017578125 374.22001953125 122.82011718749999 385.4400390625Q155.66005859375 396.66005859375 191 396.66005859375Q212.119921875 396.66005859375 230.509912109375 393.550048828125Q248.89990234375 390.4400390625 271.359765625 381.66005859375Q280.359765625 378.4400390625 280.359765625 370.66005859375Q280.359765625 351.76015625 279.359765625 331.250244140625Q278.359765625 310.74033203125 278.359765625 286.06044921875Q278.359765625 283.28046875 272.359765625 283.28046875Q266.359765625 283.28046875 266.359765625 286.06044921875Q266.359765625 305.94052734375 250.63974609375 326.8404296875Q234.9197265625 347.74033203125 210.249755859375 362.590185546875Q185.57978515625 377.4400390625 157.89990234375 377.4400390625Q141.0396484375 377.4400390625 127.099609375 368.89990234375Q113.1595703125 360.359765625 113.1595703125 334.4796875Z" fill="#A8DDD7" transform="translate(623.695 116.000) scale(0.058000 -0.058000)"/>
</svg>
