<svg xmlns="http://www.w3.org/2000/svg" viewBox="0 0 960 136" role="img" aria-labelledby="title">
  <title id="title">Use VibeSkills</title>
  <metadata>Lettering derived from Bodoni Moda, licensed under SIL Open Font License 1.1.</metadata>
  <path d="M1531.0840170299125 1500V1475.3413292414866H1352.681189509989L814.2792503002141 -29.409752264042474H709.1719666161496L186.89102883592102 1475.3413292414866H39.05390986378551V1500H731.0522008794105V1475.3413292414866H518.6532243597493L901.9149200630648 292.43132866657527L1324.2254201088174 1475.3413292414866H1079.4068414048213V1500Z" fill="#8A7448" transform="translate(471.365 21.000) scale(0.011000 -0.011000)"/>
  <path d="M135 34 H420" fill="none" stroke="#4A4946" stroke-width="0.75"/>
  <path d="M135.00 34.00 L137.97 35.19 L140.94 36.19 L143.91 36.86 L146.88 37.10 L149.84 36.86 L152.81 36.19 L155.78 35.19 L158.75 34.00 L161.72 32.81 L164.69 31.81 L167.66 31.14 L170.62 30.90 L173.59 31.14 L176.56 31.81 L179.53 32.81 L182.50 34.00 L185.47 35.19 L188.44 36.19 L191.41 36.86 L194.38 37.10 L197.34 36.86 L200.31 36.19 L203.28 35.19 L206.25 34.00 L209.22 32.81 L212.19 31.81 L215.16 31.14 L218.12 30.90 L221.09 31.14 L224.06 31.81 L227.03 32.81 L230.00 34.00 L232.97 35.19 L235.94 36.19 L238.91 36.86 L241.88 37.10 L244.84 36.86 L247.81 36.19 L250.78 35.19 L253.75 34.00 L256.72 32.81 L259.69 31.81 L262.66 31.14 L265.62 30.90 L268.59 31.14 L271.56 31.81 L274.53 32.81 L277.50 34.00 L280.47 35.19 L283.44 36.19 L286.41 36.86 L289.38 37.10 L292.34 36.86 L295.31 36.19 L298.28 35.19 L301.25 34.00 L304.22 32.81 L307.19 31.81 L310.16 31.14 L313.12 30.90 L316.09 31.14 L319.06 31.81 L322.03 32.81 L325.00 34.00 L327.97 35.19 L330.94 36.19 L333.91 36.86 L336.88 37.10 L339.84 36.86 L342.81 36.19 L345.78 35.19 L348.75 34.00 L351.72 32.81 L354.69 31.81 L357.66 31.14 L360.62 30.90 L363.59 31.14 L366.56 31.81 L369.53 32.81 L372.50 34.00 L375.47 35.19 L378.44 36.19 L381.41 36.86 L384.38 37.10 L387.34 36.86 L390.31 36.19 L393.28 35.19 L396.25 34.00 L399.22 32.81 L402.19 31.81 L405.16 31.14 L408.12 30.90 L411.09 31.14 L414.06 31.81 L417.03 32.81 L420.00 34.00" fill="none" stroke="#8A7448" stroke-opacity="0.86" stroke-width="0.72"/>
  <path d="M135.00 34.00 L137.97 32.81 L140.94 31.81 L143.91 31.14 L146.88 30.90 L149.84 31.14 L152.81 31.81 L155.78 32.81 L158.75 34.00 L161.72 35.19 L164.69 36.19 L167.66 36.86 L170.62 37.10 L173.59 36.86 L176.56 36.19 L179.53 35.19 L182.50 34.00 L185.47 32.81 L188.44 31.81 L191.41 31.14 L194.38 30.90 L197.34 31.14 L200.31 31.81 L203.28 32.81 L206.25 34.00 L209.22 35.19 L212.19 36.19 L215.16 36.86 L218.12 37.10 L221.09 36.86 L224.06 36.19 L227.03 35.19 L230.00 34.00 L232.97 32.81 L235.94 31.81 L238.91 31.14 L241.88 30.90 L244.84 31.14 L247.81 31.81 L250.78 32.81 L253.75 34.00 L256.72 35.19 L259.69 36.19 L262.66 36.86 L265.62 37.10 L268.59 36.86 L271.56 36.19 L274.53 35.19 L277.50 34.00 L280.47 32.81 L283.44 31.81 L286.41 31.14 L289.38 30.90 L292.34 31.14 L295.31 31.81 L298.28 32.81 L301.25 34.00 L304.22 35.19 L307.19 36.19 L310.16 36.86 L313.12 37.10 L316.09 36.86 L319.06 36.19 L322.03 35.19 L325.00 34.00 L327.97 32.81 L330.94 31.81 L333.91 31.14 L336.88 30.90 L339.84 31.14 L342.81 31.81 L345.78 32.81 L348.75 34.00 L351.72 35.19 L354.69 36.19 L357.66 36.86 L360.62 37.10 L363.59 36.86 L366.56 36.19 L369.53 35.19 L372.50 34.00 L375.47 32.81 L378.44 31.81 L381.41 31.14 L384.38 30.90 L387.34 31.14 L390.31 31.81 L393.28 32.81 L396.25 34.00 L399.22 35.19 L402.19 36.19 L405.16 36.86 L408.12 37.10 L411.09 36.86 L414.06 36.19 L417.03 35.19 L420.00 34.00" fill="none" stroke="#5A3037" stroke-opacity="0.72" stroke-width="0.62"/>
  <path d="M163 40 H392" fill="none" stroke="#4A4946" stroke-opacity="0.58" stroke-width="0.55"/>
  <path d="M540 34 H825" fill="none" stroke="#4A4946" stroke-width="0.75"/>
  <path d="M540.00 34.00 L542.97 35.19 L545.94 36.19 L548.91 36.86 L551.88 37.10 L554.84 36.86 L557.81 36.19 L560.78 35.19 L563.75 34.00 L566.72 32.81 L569.69 31.81 L572.66 31.14 L575.62 30.90 L578.59 31.14 L581.56 31.81 L584.53 32.81 L587.50 34.00 L590.47 35.19 L593.44 36.19 L596.41 36.86 L599.38 37.10 L602.34 36.86 L605.31 36.19 L608.28 35.19 L611.25 34.00 L614.22 32.81 L617.19 31.81 L620.16 31.14 L623.12 30.90 L626.09 31.14 L629.06 31.81 L632.03 32.81 L635.00 34.00 L637.97 35.19 L640.94 36.19 L643.91 36.86 L646.88 37.10 L649.84 36.86 L652.81 36.19 L655.78 35.19 L658.75 34.00 L661.72 32.81 L664.69 31.81 L667.66 31.14 L670.62 30.90 L673.59 31.14 L676.56 31.81 L679.53 32.81 L682.50 34.00 L685.47 35.19 L688.44 36.19 L691.41 36.86 L694.38 37.10 L697.34 36.86 L700.31 36.19 L703.28 35.19 L706.25 34.00 L709.22 32.81 L712.19 31.81 L715.16 31.14 L718.12 30.90 L721.09 31.14 L724.06 31.81 L727.03 32.81 L730.00 34.00 L732.97 35.19 L735.94 36.19 L738.91 36.86 L741.88 37.10 L744.84 36.86 L747.81 36.19 L750.78 35.19 L753.75 34.00 L756.72 32.81 L759.69 31.81 L762.66 31.14 L765.62 30.90 L768.59 31.14 L771.56 31.81 L774.53 32.81 L777.50 34.00 L780.47 35.19 L783.44 36.19 L786.41 36.86 L789.38 37.10 L792.34 36.86 L795.31 36.19 L798.28 35.19 L801.25 34.00 L804.22 32.81 L807.19 31.81 L810.16 31.14 L813.12 30.90 L816.09 31.14 L819.06 31.81 L822.03 32.81 L825.00 34.00" fill="none" stroke="#8A7448" stroke-opacity="0.86" stroke-width="0.72"/>
  <path d="M540.00 34.00 L542.97 32.81 L545.94 31.81 L548.91 31.14 L551.88 30.90 L554.84 31.14 L557.81 31.81 L560.78 32.81 L563.75 34.00 L566.72 35.19 L569.69 36.19 L572.66 36.86 L575.62 37.10 L578.59 36.86 L581.56 36.19 L584.53 35.19 L587.50 34.00 L590.47 32.81 L593.44 31.81 L596.41 31.14 L599.38 30.90 L602.34 31.14 L605.31 31.81 L608.28 32.81 L611.25 34.00 L614.22 35.19 L617.19 36.19 L620.16 36.86 L623.12 37.10 L626.09 36.86 L629.06 36.19 L632.03 35.19 L635.00 34.00 L637.97 32.81 L640.94 31.81 L643.91 31.14 L646.88 30.90 L649.84 31.14 L652.81 31.81 L655.78 32.81 L658.75 34.00 L661.72 35.19 L664.69 36.19 L667.66 36.86 L670.62 37.10 L673.59 36.86 L676.56 36.19 L679.53 35.19 L682.50 34.00 L685.47 32.81 L688.44 31.81 L691.41 31.14 L694.38 30.90 L697.34 31.14 L700.31 31.81 L703.28 32.81 L706.25 34.00 L709.22 35.19 L712.19 36.19 L715.16 36.86 L718.12 37.10 L721.09 36.86 L724.06 36.19 L727.03 35.19 L730.00 34.00 L732.97 32.81 L735.94 31.81 L738.91 31.14 L741.88 30.90 L744.84 31.14 L747.81 31.81 L750.78 32.81 L753.75 34.00 L756.72 35.19 L759.69 36.19 L762.66 36.86 L765.62 37.10 L768.59 36.86 L771.56 36.19 L774.53 35.19 L777.50 34.00 L780.47 32.81 L783.44 31.81 L786.41 31.14 L789.38 30.90 L792.34 31.14 L795.31 31.81 L798.28 32.81 L801.25 34.00 L804.22 35.19 L807.19 36.19 L810.16 36.86 L813.12 37.10 L816.09 36.86 L819.06 36.19 L822.03 35.19 L825.00 34.00" fill="none" stroke="#5A3037" stroke-opacity="0.72" stroke-width="0.62"/>
  <path d="M568 40 H797" fill="none" stroke="#4A4946" stroke-opacity="0.58" stroke-width="0.55"/>
  <path d="M1386.3196531902004 1500V1494.6669640238756H1188.6720309385737V460Q1188.6720309385737 213 1082.3197440735298 91.51904337108749Q975.9674572084858 -29.961913257825017 735.1877684307892 -29.961913257825017Q464.8487020976995 -29.961913257825017 339.9390651903868 85.51904337108749Q215.02942828307414 201 215.02942828307414 460V1494.6669640238756H35.76785196242919V1500H666.252469474373V1494.6669640238756H466.25246947437313V480Q466.25246947437313 381 479.3573985361335 291.70009667778567Q492.46232759789376 202.4001933555713 527.2189350182642 133.46471765409115Q561.9755424386346 64.529241952611 626.3761063293415 24.74747607266554Q690.7766702200483 -15.034289807279924 792.8743014040326 -15.034289807279924Q918.9340564268897 -15.034289807279924 1006.0264609668473 36.060397829786965Q1093.1188655068047 87.15508546685385 1138.238376536916 192.30438777989326Q1183.357887567027 297.4536900929327 1183.357887567027 460V1494.6669640238756H994.8482858737411V1500Z" fill="#173F42" transform="translate(313.374 101.000) scale(0.024500 -0.024500)"/>
  <path d="M95.11931903007998 -20V275.4606311913039H100.49044174837937Q114.10510927945431 191.92715870950045 166.0367665739898 126.51568634977792Q217.9684238685253 61.104213990055406 295.4783962876689 23.990487636730215Q372.9883687068125 -13.123238716594976 463.0017564467908 -13.123238716594976Q525.3116195837641 -13.123238716594976 578.2295153412895 4.9547655653356415Q631.1474110988147 23.03276984726626 663.3666499805728 61.216286627288056Q695.5858888623309 99.39980340730985 695.5858888623309 159.94067051075976Q695.5858888623309 220.05571550929855 653.9107723590312 254.2867606789551Q612.2356558557316 288.51780584861166 546.2537946581034 311.0271013843911Q480.2719334604753 333.5363969201705 406.1736797057224 356.2035917612552Q332.0754259509696 378.87078660233993 266.09356475334147 413.3819728492217Q200.11170355571335 447.89315909610355 158.4365870524137 506.34652596552604Q116.76147054911404 564.7998928349485 116.76147054911404 660.1487473131541Q116.76147054911404 731.7081248685473 150.99842481674594 795.0409899106427Q185.23537908437785 858.373854952738 250.97713188640898 898.186927476369Q316.71888468844014 938 411.68079794626516 938Q483.5304325719971 938 542.0638762011115 914.5609378504457Q600.597319830226 891.1218757008916 643.597319830226 853.1771749862318L749.299102310836 939.9715103266236H754.4701942494621V660H749.1086685999611Q735.6784993668073 727.9800303393641 691.1852149576291 790.3900689423422Q646.691930548451 852.8001075453201 576.1333480591272 892.6906505080235Q505.5747655698034 932.581193470727 413.1864365113708 932.581193470727Q355.6533760192882 932.581193470727 311.9987366438206 915.3904536023456Q268.34409726835304 898.199713733964 243.57024836545168 866.3346065096598Q218.79639946255028 834.4694992853555 218.79639946255028 791.1743837974374Q218.79639946255028 733.9134012331723 262.5650574147038 699.2640173464617Q306.33371536685735 664.6146334597513 375.18082990047014 640.0165950095172Q444.0279444340829 615.4185565592832 520.9916022913299 591.1485247335652Q597.9552601485769 566.8784929078472 666.8023746821898 530.997405557091Q735.6494892158025 495.1163182063349 779.418147167956 437.65266500391704Q823.1868051201096 380.18901180149913 823.1868051201096 288.8401573232935Q823.1868051201096 192.28077976790036 774.6970315699249 123.19356614834896Q726.2072580197402 54.10635252879756 646.035200106247 17.05317626439878Q565.8631421927537 -20 471.4684037313475 -20Q394.1559559339041 -20 327.29840430078644 5.097499952546757Q260.44085266766876 30.194999905093514 209.48031793823736 74.4075138863713L100.26192129532946 -20Z" fill="#173F42" transform="translate(348.413 101.000) scale(0.024500 -0.024500)"/>
  <path d="M562.1939229097189 -20Q426.26829656629604 -20 318.06774897942637 36.49208299261424Q209.86720139255667 92.98416598522849 146.90201889523559 200.23218673338204Q83.93683639791453 307.4802074815356 83.93683639791453 460Q83.93683639791453 612.5197925184644 145.34503954848267 719.7535684299298Q206.75324269905082 826.9873443413951 313.4110557758558 883.4794273340094Q420.0688688526608 939.9715103266236 556.0229848694602 939.9715103266236Q704.9090261759544 939.9715103266236 798.9305632938408 880.5044970013803Q892.9521004117271 821.0374836761368 937.5163720396781 725.0752688852926Q982.0806436676293 629.1130540944486 982.0806436676293 520.1130540944486H217.9557290024925V525.4556871393714H727.2441708537347Q727.7117226766653 587.9309835126874 722.0143534459622 658.4876489455885Q716.3169842152591 729.0443143784896 699.1781835093923 792.0556653260269Q682.0393828035253 855.0670162735641 647.6865987046575 894.8669901487199Q613.3338146057897 934.6669640238756 556.0229848694602 934.6669640238756Q493.4190305493029 934.6669640238756 452.29765303629074 894.8835180825174Q411.17627552327866 855.1000721411591 387.4099558965853 787.8873118855547Q363.64363626989194 720.6745516299504 353.9359807061935 638.376860851904Q344.22832514249507 556.0791700738575 344.22832514249507 470.07917007385754Q344.22832514249507 379.255157608013 354.7204081351093 293.2102262293393Q365.2124911277236 207.1652948506656 392.4113896533299 139.30507238926089Q419.6102881789362 71.44484992785617 468.27362005448674 31.1716903194933Q516.9369519300373 -9.101469288869568 593.0274704440632 -9.101469288869568Q742.2476278286829 -9.101469288869568 842.0973316169116 76.0910936814308Q941.9470354051402 161.28365665173118 978.9470354051402 285.28775816558846H984.4510094215234Q945.4510094215234 155.5441652259766 841.0451755965648 67.7720826129883Q736.6393417716064 -20 562.1939229097189 -20Z" fill="#173F42" transform="translate(370.565 101.000) scale(0.024500 -0.024500)"/>
  <path d="M1483.9422191093443 1500V1494.6669640238756H1306.0082018291992L756.6980185398901 -29.961913257825017H703.4474871576L174.16610438434478 1494.6669640238756H33.428594553022094V1500H683.9827850700251V1494.6669640238756H464.7106978325492L860.2331462607576 276.92868069899185L1299.0171803192693 1494.6669640238756H1043.8529345956863V1500Z" fill="#173F42" transform="translate(409.161 101.000) scale(0.024500 -0.024500)"/>
  <path d="M304.37319700306176 1229.4332115904533Q244.14866669353856 1229.4332115904533 201.71923726776149 1272.0225760292165Q159.2898078419844 1314.6119404679796 159.2898078419844 1374.5450904249074Q159.2898078419844 1435.9986927815637 201.71923726776149 1477.9281222073407Q244.14866669353856 1519.8575516331177 304.37319700306176 1519.8575516331177Q365.8267993597181 1519.8575516331177 407.7562287854952 1477.9281222073407Q449.68565821127225 1435.9986927815637 449.68565821127225 1374.5450904249074Q449.68565821127225 1314.320560115384 407.7562287854952 1271.8768858529188Q365.8267993597181 1229.4332115904533 304.37319700306176 1229.4332115904533ZM418.93763746311873 920V5.3330359761244H544.2906089071886V0H63.21730532313744V5.3330359761244H188.54178709383083V914.6669640238756H63.21730532313744V920Z" fill="#173F42" transform="translate(446.503 101.000) scale(0.024500 -0.024500)"/>
  <path d="M721.9039785294855 -20Q586.9716226914363 -20 506.6333343887542 80.0188202798819Q426.295046086072 180.0376405597638 408.93763746311873 362.38041497562335V0H53.20770825433892V5.3330359761244H179.2898078419844V1494.6669640238756H53.20770825433892V1500H408.93763746311873V557.8334775340481Q426.295046086072 740.6722934462148 506.38615367130694 839.3361467231074Q586.477261256542 938 721.9039785294855 938Q830.7900198359795 938 927.7045508158501 881.0Q1024.6190817957208 824 1085.0811458200553 717.0Q1145.5432098443898 610 1145.5432098443898 460Q1145.5432098443898 310 1085.0811458200553 202.5Q1024.6190817957208 95 927.7045508158501 37.5Q830.7900198359795 -20 721.9039785294855 -20ZM675.7891865468795 0.06869328903374272Q747.0192859142987 0.06869328903374272 791.9768240542226 57.0524808224012Q836.9343621941463 114.03626835576866 858.592292499601 217.51753579701696Q880.2502228050556 320.9988032382653 880.2502228050556 460Q880.2502228050556 599.0011967617346 858.592292499601 701.982464202983Q836.9343621941463 804.9637316442313 791.9768240542226 861.4427206431996Q747.0192859142987 917.9217096421678 675.7891865468795 917.9217096421678Q604.9876570315002 917.9217096421678 544.1329006782006 867.1508331309142Q483.27814432490095 816.3799566196607 446.10789089400987 714.8281542591681Q408.93763746311873 613.2763518986753 408.93763746311873 460Q408.93763746311873 306.7140510325262 446.10789089400987 204.65745013763427Q483.27814432490095 102.60084924274236 544.1329006782006 51.33477126588805Q604.9876570315002 0.06869328903374272 675.7891865468795 0.06869328903374272Z" fill="#173F42" transform="translate(461.403 101.000) scale(0.024500 -0.024500)"/>
  <path d="M562.1939229097189 -20Q426.26829656629604 -20 318.06774897942637 36.49208299261424Q209.86720139255667 92.98416598522849 146.90201889523559 200.23218673338204Q83.93683639791453 307.4802074815356 83.93683639791453 460Q83.93683639791453 612.5197925184644 145.34503954848267 719.7535684299298Q206.75324269905082 826.9873443413951 313.4110557758558 883.4794273340094Q420.0688688526608 939.9715103266236 556.0229848694602 939.9715103266236Q704.9090261759544 939.9715103266236 798.9305632938408 880.5044970013803Q892.9521004117271 821.0374836761368 937.5163720396781 725.0752688852926Q982.0806436676293 629.1130540944486 982.0806436676293 520.1130540944486H217.9557290024925V525.4556871393714H727.2441708537347Q727.7117226766653 587.9309835126874 722.0143534459622 658.4876489455885Q716.3169842152591 729.0443143784896 699.1781835093923 792.0556653260269Q682.0393828035253 855.0670162735641 647.6865987046575 894.8669901487199Q613.3338146057897 934.6669640238756 556.0229848694602 934.6669640238756Q493.4190305493029 934.6669640238756 452.29765303629074 894.8835180825174Q411.17627552327866 855.1000721411591 387.4099558965853 787.8873118855547Q363.64363626989194 720.6745516299504 353.9359807061935 638.376860851904Q344.22832514249507 556.0791700738575 344.22832514249507 470.07917007385754Q344.22832514249507 379.255157608013 354.7204081351093 293.2102262293393Q365.2124911277236 207.1652948506656 392.4113896533299 139.30507238926089Q419.6102881789362 71.44484992785617 468.27362005448674 31.1716903194933Q516.9369519300373 -9.101469288869568 593.0274704440632 -9.101469288869568Q742.2476278286829 -9.101469288869568 842.0973316169116 76.0910936814308Q941.9470354051402 161.28365665173118 978.9470354051402 285.28775816558846H984.4510094215234Q945.4510094215234 155.5441652259766 841.0451755965648 67.7720826129883Q736.6393417716064 -20 562.1939229097189 -20Z" fill="#173F42" transform="translate(491.688 101.000) scale(0.024500 -0.024500)"/>
  <path d="M597.339072414755 -29.961913257825017Q473.5779033986601 -29.961913257825017 386.29032649660843 9.451717808159145Q299.00274959455675 48.86534887414331 239.87919383225235 116.01116667350952L91.86780129128509 -20H86.69640781964006V420.2659998949492H92.52380523065881Q115.52362346399984 331.2902249071261 154.27452103530086 251.3761725721044Q193.0254186066019 171.46212023708264 251.95913903889868 109.60505190364302Q310.8928594711955 47.747983570203395 392.9707775246258 12.30757389240495Q475.04869557805614 -23.132835785393496 585.2177904095599 -23.132835785393496Q686.1590112350341 -23.132835785393496 760.5682361829676 15.363356447081514Q834.977461130901 53.859548679556525 875.8939138220235 125.20927415827627Q916.8103665131459 196.55899963699602 916.8103665131459 295.1661416229783Q916.8103665131459 379.89041134897457 872.8388561865224 437.85241549012903Q828.8673458598988 495.81441963128356 756.8815906965871 538.2803822761309Q684.8958355332753 580.7463449209783 598.43857004334 618.191734899835Q511.9813045534047 655.6371248786917 425.5240390634694 697.482645579392Q339.0667735735341 739.3281662800923 267.0810184102223 796.4375417437177Q195.09526324691052 853.5469172073431 151.12375292028696 935.4383507742747Q107.15224259366343 1017.3297843412063 107.15224259366343 1134.8812448892136Q107.15224259366343 1252.4691121179833 167.25529022798634 1339.1046079293756Q227.35833786230927 1425.7401037407678 325.0262818507709 1472.870051870384Q422.6942258392325 1520 536.2994873778263 1520Q632.6704748170752 1520 711.3116401937225 1489.5309188821661Q789.9528055703698 1459.0618377643323 848.0478716592978 1396.2249785635654L992.8391347446205 1520H997.943650267695V1089.80357311011H992.1447425300528Q962.0655724561951 1228.551129177902 901.2562524717382 1322.5522443659656Q840.4469324872814 1416.5533595540294 751.8898886328609 1464.0902783871586Q663.3328447784404 1511.6271972202878 551.3273833555063 1511.6271972202878Q418.7333276371665 1511.6271972202878 350.63831209141864 1441.1554453045087Q282.5432965456708 1370.6836933887294 282.5432965456708 1259.5093766063285Q282.5432965456708 1183.7755098115335 325.78103096082896 1130.562366449239Q369.0187653759872 1077.3492230869444 439.5227238796801 1036.3895882713996Q510.026682383373 995.4299534558546 595.0163960503776 957.6026360955354Q680.0061097173823 919.7753187352162 764.9910248499878 875.2063084560459Q849.9759399825931 830.6372981768757 920.479898486286 769.9383397680892Q990.9838569899788 709.2393813593028 1034.221591405137 623.2844851949772Q1077.4593258202951 537.3295890306514 1077.4593258202951 415.11875511078637Q1077.4593258202951 280.07917007385754 1016.4197407833664 180.1822487083299Q955.3801557464376 80.28532734280223 846.8596140805963 25.161707042488608Q738.339072414755 -29.961913257825017 597.339072414755 -29.961913257825017Z" fill="#173F42" transform="translate(517.834 101.000) scale(0.024500 -0.024500)"/>
  <path d="M53.20770825433892 0V5.3330359761244H219.2898078419844V1494.6669640238756H53.20770825433892V1500H448.93763746311873V5.3330359761244H573.8188823523324V0ZM692.0951765456297 0V5.3330359761244H829.74346380291L413.66976643043944 527.1535437304345L930.6334019423649 914.6669640238756H696.2886739217319V920H1112.9376374631186V914.6669640238756H937.7996169047781L590.9107379825643 649.7993805393676L1116.7289905383989 5.3330359761244H1196.8044133220585V0Z" fill="#173F42" transform="translate(546.356 101.000) scale(0.024500 -0.024500)"/>
  <path d="M304.37319700306176 1229.4332115904533Q244.14866669353856 1229.4332115904533 201.71923726776149 1272.0225760292165Q159.2898078419844 1314.6119404679796 159.2898078419844 1374.5450904249074Q159.2898078419844 1435.9986927815637 201.71923726776149 1477.9281222073407Q244.14866669353856 1519.8575516331177 304.37319700306176 1519.8575516331177Q365.8267993597181 1519.8575516331177 407.7562287854952 1477.9281222073407Q449.68565821127225 1435.9986927815637 449.68565821127225 1374.5450904249074Q449.68565821127225 1314.320560115384 407.7562287854952 1271.8768858529188Q365.8267993597181 1229.4332115904533 304.37319700306176 1229.4332115904533ZM418.93763746311873 920V5.3330359761244H544.2906089071886V0H63.21730532313744V5.3330359761244H188.54178709383083V914.6669640238756H63.21730532313744V920Z" fill="#173F42" transform="translate(576.667 101.000) scale(0.024500 -0.024500)"/>
  <path d="M448.93763746311873 1500V5.3330359761244H614.2621192338121V0H53.20770825433892V5.3330359761244H219.2898078419844V1494.6669640238756H53.20770825433892V1500Z" fill="#173F42" transform="translate(591.567 101.000) scale(0.024500 -0.024500)"/>
  <path d="M448.93763746311873 1500V5.3330359761244H614.2621192338121V0H53.20770825433892V5.3330359761244H219.2898078419844V1494.6669640238756H53.20770825433892V1500Z" fill="#173F42" transform="translate(608.133 101.000) scale(0.024500 -0.024500)"/>
  <path d="M95.11931903007998 -20V275.4606311913039H100.49044174837937Q114.10510927945431 191.92715870950045 166.0367665739898 126.51568634977792Q217.9684238685253 61.104213990055406 295.4783962876689 23.990487636730215Q372.9883687068125 -13.123238716594976 463.0017564467908 -13.123238716594976Q525.3116195837641 -13.123238716594976 578.2295153412895 4.9547655653356415Q631.1474110988147 23.03276984726626 663.3666499805728 61.216286627288056Q695.5858888623309 99.39980340730985 695.5858888623309 159.94067051075976Q695.5858888623309 220.05571550929855 653.9107723590312 254.2867606789551Q612.2356558557316 288.51780584861166 546.2537946581034 311.0271013843911Q480.2719334604753 333.5363969201705 406.1736797057224 356.2035917612552Q332.0754259509696 378.87078660233993 266.09356475334147 413.3819728492217Q200.11170355571335 447.89315909610355 158.4365870524137 506.34652596552604Q116.76147054911404 564.7998928349485 116.76147054911404 660.1487473131541Q116.76147054911404 731.7081248685473 150.99842481674594 795.0409899106427Q185.23537908437785 858.373854952738 250.97713188640898 898.186927476369Q316.71888468844014 938 411.68079794626516 938Q483.5304325719971 938 542.0638762011115 914.5609378504457Q600.597319830226 891.1218757008916 643.597319830226 853.1771749862318L749.299102310836 939.9715103266236H754.4701942494621V660H749.1086685999611Q735.6784993668073 727.9800303393641 691.1852149576291 790.3900689423422Q646.691930548451 852.8001075453201 576.1333480591272 892.6906505080235Q505.5747655698034 932.581193470727 413.1864365113708 932.581193470727Q355.6533760192882 932.581193470727 311.9987366438206 915.3904536023456Q268.34409726835304 898.199713733964 243.57024836545168 866.3346065096598Q218.79639946255028 834.4694992853555 218.79639946255028 791.1743837974374Q218.79639946255028 733.9134012331723 262.5650574147038 699.2640173464617Q306.33371536685735 664.6146334597513 375.18082990047014 640.0165950095172Q444.0279444340829 615.4185565592832 520.9916022913299 591.1485247335652Q597.9552601485769 566.8784929078472 666.8023746821898 530.997405557091Q735.6494892158025 495.1163182063349 779.418147167956 437.65266500391704Q823.1868051201096 380.18901180149913 823.1868051201096 288.8401573232935Q823.1868051201096 192.28077976790036 774.6970315699249 123.19356614834896Q726.2072580197402 54.10635252879756 646.035200106247 17.05317626439878Q565.8631421927537 -20 471.4684037313475 -20Q394.1559559339041 -20 327.29840430078644 5.097499952546757Q260.44085266766876 30.194999905093514 209.48031793823736 74.4075138863713L100.26192129532946 -20Z" fill="#173F42" transform="translate(624.674 101.000) scale(0.024500 -0.024500)"/>
</svg>
