<svg xmlns="http://www.w3.org/2000/svg" viewBox="0 0 960 140" role="img" aria-labelledby="title">
  <title id="title">VibeSkills实践案例：完成一项机器学习实验</title>
  <metadata>Lettering derived from Noto Serif SC and Bona Nova, licensed under SIL Open Font License 1.1.</metadata>
  <path d="M63 0V23Q92 25 105.0 38.0Q118 51 118 100V565Q118 614 103.5 627.5Q89 641 48 642V665H333V642Q304 641 291.0 627.5Q278 614 278 565V100Q278 51 293.0 38.0Q308 25 348 23V0Z" fill="#80683D" transform="translate(475.446 22.000) scale(0.023000 -0.023000)"/>
  <path d="M81.3 38 H333.3 C370.7 38 388 42.2 410.7 47.8 C432 53.1 454 50.6 469.3 42.9 C451.3 43.6 442 48.5 447.3 53.4 C455.3 60.1 480 55.9 494.7 46.1 C513.3 33.8 539.3 38 566.7 38 H878.7" fill="none" stroke="#80683D" stroke-width="2.4" stroke-linecap="square"/>
  <path d="M102.7 42.9 H328.7 C365.3 42.9 384.7 46.8 406.7 51.7" fill="none" stroke="#5A3037" stroke-width="1.4"/>
  <path d="M857.3 42.9 H582 C546.7 42.9 526.7 46.8 504.7 51.7" fill="none" stroke="#5A3037" stroke-width="1.4"/>
  <path d="M332.16062607209125 -5.840197706976186 73.92092263255553 731.6392091720952H184.2372321023334L399.87808883256355 83.59719915117071H381.9579899790754L386.31795702791277 98.2372321023334L590.3986819534921 731.6392091720952H637.2380558814009L387.6787478558175 -5.840197706976186ZM5.359967048837302 700.8393739279087V731.6392091720952H309.4373968581469V701.279242123258L165.71828653953972 689.0395386837222H141.878912611631ZM467.1186160511667 701.279242123258V731.6392091720952H712.478583100004V702.279242123258L605.1985171976786 689.0395386837222H588.9184512953532Z" fill="#173F42" transform="translate(299.322 85.000) scale(0.036000 -0.036000)"/>
  <path d="M42.12026360930158 0V28.43986819534921L150.96046131627776 39.07990114651191H191.1985171976786L297.6383853930278 28.43986819534921V0ZM121.48105443720632 0Q122.48105443720632 24.719934097674606 123.30107091278768 65.9398681953492Q124.12108738836902 107.15980229302382 124.62108738836902 151.8797363906984Q125.12108738836902 196.59967048837302 125.12108738836902 230.31960458604763V294.3187808069802Q125.12108738836902 344.95881375814287 124.30107091278768 384.5391267941885Q123.48105443720632 424.1194398302341 121.48105443720632 461.03953868372224L35.32042836511507 465.83937392790875V491.1194398302341L212.19769341861118 534.478583100004L224.55766046744847 526.1186160511667L221.83772636977386 382.39950573255953V230.31960458604763Q221.83772636977386 196.59967048837302 222.33772636977386 151.8797363906984Q222.83772636977386 107.15980229302382 223.51770989419254 65.9398681953492Q224.19769341861118 24.719934097674606 225.19769341861118 0ZM166.27924212325794 655Q140.23970343953573 655 121.78006590232539 671.9196869639543Q103.32042836511506 688.8393739279087 103.32042836511506 716.2388796604682Q103.32042836511506 742.9184512953532 121.78006590232539 760.158154734889Q140.23970343953573 777.3978581744246 166.27924212325794 777.3978581744246Q192.0387149046548 777.3978581744246 210.95840186860917 760.158154734889Q229.87808883256355 742.9184512953532 229.87808883256355 716.2388796604682Q229.87808883256355 688.8393739279087 210.95840186860917 671.9196869639543Q192.0387149046548 655 166.27924212325794 655Z" fill="#173F42" transform="translate(324.462 85.000) scale(0.036000 -0.036000)"/>
  <path d="M41.12026360930158 0V28.43986819534921L121.20098853488093 35.359967048837305Q122.20098853488093 64.0799011465119 122.20098853488093 98.79983524418651Q122.20098853488093 133.51976934186112 122.70098853488093 168.23970343953573Q123.20098853488093 202.9596375372103 123.20098853488093 230.31960458604763V744.5197693418611L38.04036246278967 749.599670488373V776.599670488373L206.91762751628576 809.3591432697699L221.83772636977386 800.3591432697699L218.83772636977386 643.8393739279087V445.07825358837704L220.55766046744847 435.07825358837704V80.5601318046508V79.20016475581349L206.07825358837704 -10.519769341861117ZM379.67792407675006 -15.079901146511908Q332.07825358837704 -15.079901146511908 285.75823711279565 8.719934097674603Q239.43822063721433 32.519769341861114 201.87808883256355 87.15980229302382H190.87808883256355L205.47775932093657 109.76029656046428Q241.35831949070243 70.23970343953572 274.95881375814287 53.47940687907144Q308.55930802558333 36.719110318607164 345.7998352441865 36.719110318607164Q386.5601318046508 36.719110318607164 421.22034598720836 58.239291550002Q455.8805601697659 79.75947278139684 476.94069197441667 130.03953868372224Q498.00082377906745 180.31960458604763 498.00082377906745 265.55930802558333Q498.00082377906745 378.71911031860714 455.8805601697659 432.51935745232737Q413.76029656046427 486.3196045860476 348.1598022930238 486.3196045860476Q325.3196045860476 486.3196045860476 301.19934097674604 479.7594727813968Q277.0790773674445 473.19934097674604 250.91886318488696 454.67915974535117Q224.7586490023294 436.15897851395636 192.8385501488413 400.5988467093056L181.3986819534921 429.5988467093056H196.07825358837704Q237.43822063721433 485.95881375814287 287.7981876860516 511.3587313802361Q338.1581547348889 536.7586490023294 390.39785817442464 536.7586490023294Q452.1177922720993 536.7586490023294 499.5576604674485 504.07866547791076Q546.9975286627977 471.3986819534921 574.5774298093096 410.5988467093056Q602.1573309558215 349.79901146511907 602.1573309558215 265.39950573255953Q602.1573309558215 184.03953868372224 574.0774298093096 120.59967048837302Q545.9975286627977 57.159802293023816 496.0576604674485 21.039950573255954Q446.1177922720993 -15.079901146511908 379.67792407675006 -15.079901146511908Z" fill="#173F42" transform="translate(336.894 85.000) scale(0.036000 -0.036000)"/>
  <path d="M306.99917622093255 -15.079901146511908Q231.31960458604763 -15.079901146511908 172.0799011465119 15.719934097674603Q112.84019770697618 46.519769341861114 79.36037893837101 108.17957163488494Q45.88056016976586 169.83937392790875 45.88056016976586 260.279242123258Q45.88056016976586 346.2388796604683 81.08031303604562 408.1787478558175Q116.28006590232539 470.1186160511667 174.05971991511706 503.43863252674805Q231.83937392790875 536.7586490023294 299.0790773674445 536.7586490023294Q366.8385501488413 536.7586490023294 414.2182865395397 508.8187808069802Q461.59802293023813 480.878912611631 486.4979405523314 433.21911031860714Q511.39785817442464 385.55930802558333 511.39785817442464 325.39950573255953Q511.39785817442464 289.47940687907146 505.03789112558735 265.03953868372224H89.91927507442065V297.19934097674604H370.4415157534841Q398.4011532906944 297.19934097674604 408.34102148604364 312.21911031860714Q418.28088968139286 327.2388796604683 418.28088968139286 360.43822063721433Q418.28088968139286 424.87808883256355 385.92051074302185 464.5984348197719Q353.5601318046508 504.3187808069802 295.9192750744206 504.3187808069802Q255.1186160511667 504.3187808069802 221.51812178372623 477.75864900232943Q187.91762751628576 451.1985171976786 168.1573309558215 399.51853367326Q148.39703439535722 347.8385501488413 148.39703439535722 272.71911031860714Q148.39703439535722 191.63920917209526 172.49711677326397 139.45922564767662Q196.5971991511707 87.27924212325796 238.97734743140285 62.959225647676604Q281.357495711635 38.639209172095256 335.83772636977386 38.639209172095256Q388.83772636977386 38.639209172095256 427.3579076011687 57.719110318607164Q465.87808883256355 76.79901146511907 495.3583194907024 112.43904441628177L511.7981876860516 98.79901146511907Q479.51812178372626 45.31960458604763 428.0984348197719 15.119851719767862Q376.6787478558175 -15.079901146511908 306.99917622093255 -15.079901146511908Z" fill="#173F42" transform="translate(360.630 85.000) scale(0.036000 -0.036000)"/>
  <path d="M267.99917622093255 -16.79983524418651Q206.35914326976987 -16.79983524418651 148.61943983023414 -0.019769341861115564Q90.87973639069843 16.76029656046428 52.92009885348809 41.2800659023254L58.640032951162695 195.35914326976987H103.19934097674604L139.87808883256355 23.44069197441665L89.71911031860716 46.68039541395237L82.75947278139684 80.28006590232539Q131.47940687907143 45 169.61943983023414 32.7199340976746Q207.75947278139685 20.43986819534921 259.9596375372103 20.43986819534921Q339.7199340976746 20.43986819534921 387.54036246278963 56.5Q435.36079082790474 92.5601318046508 435.36079082790474 162.08072492557935Q435.36079082790474 198.00082377906745 422.62067549883534 224.2409391081369Q409.8805601697659 250.48105443720632 379.9802306581389 272.04118624185713Q350.07990114651193 293.6013180465079 297.9192750744206 314.8014828023214L254.39950573255953 333.2413509976706Q163.3599670488373 372.20098853488093 115.98023065813888 423.720757876742Q68.60049426744047 475.2405272186032 68.60049426744047 554.3599670488373Q68.60049426744047 618.5197693418611 100.54036246278967 661.679571634885Q132.48023065813888 704.8393739279087 186.93986819534922 726.9592256476766Q241.39950573255953 749.0790773674445 308.95881375814287 749.0790773674445Q366.6787478558175 749.0790773674445 411.3183689174465 734.7191103186071Q455.9579899790754 720.3591432697699 494.03789112558735 693.9991762209326L488.59802293023813 547.9200988534881H442.7586490023294L407.1598022930238 712.3986819534921L459.478583100004 688.4390444162817L463.71828653953975 654.0395386837222Q424.1985171976786 685.8393739279087 392.1383853930278 698.699340976746Q360.07825358837704 711.5593080255834 317.1581547348889 711.5593080255834Q248.31795702791274 711.5593080255834 203.83772636977386 678.4592256476767Q159.35749571163498 645.3591432697699 159.35749571163498 581.6787478558175Q159.35749571163498 525.8385501488413 191.83772636977386 492.2784183441905Q224.31795702791274 458.71828653953975 281.7981876860516 434.07825358837704L328.67792407675006 414.5584842465159Q404.31795702791277 382.8385501488413 448.0378911255874 350.75864900232943Q491.757825223262 318.6787478558175 510.15774284535524 280.5588961360496Q528.5576604674485 242.43904441628177 528.5576604674485 189.91927507442065Q528.5576604674485 127.11943983023414 496.65774284535524 80.45963753721033Q464.757825223262 33.79983524418651 406.3381382593076 8.5Q347.91845129535324 -16.79983524418651 267.99917622093255 -16.79983524418651Z" fill="#173F42" transform="translate(380.766 85.000) scale(0.036000 -0.036000)"/>
  <path d="M39.480230658138886 0V28.43986819534921L147.96046131627776 39.07990114651191H189.55848424651592L299.6383853930278 28.43986819534921V0ZM120.20098853488093 0Q121.20098853488093 19.56013180465079 121.70098853488093 48.100082377906745Q122.20098853488093 76.6400329511627 122.70098853488093 109.0799011465119Q123.20098853488093 141.51976934186112 123.20098853488093 173.09967048837302Q123.20098853488093 204.67957163488492 123.20098853488093 230.31960458604763V744.8797363906984L38.04036246278967 749.599670488373V776.599670488373L208.91762751628576 809.3591432697699L223.91762751628576 800.3591432697699L220.55766046744847 643.8393739279087V233.83937392790875Q220.55766046744847 207.11943983023414 220.55766046744847 174.67957163488495Q220.55766046744847 142.23970343953573 221.05766046744847 109.43986819534922Q221.55766046744847 76.6400329511627 222.23764399186712 48.100082377906745Q222.91762751628576 19.56013180465079 223.91762751628576 0ZM171.75947278139685 175.7199340976746V219.0799011465119H176.19934097674604L327.1985171976786 370.19934097674604L479.5576604674485 521.6787478558175H531.6771002976826ZM455.2001647558135 0 285.878912611631 299.7199340976746 354.07660603024215 363.9579899790754 541.3566719325676 35.07990114651191 616.5971991511707 28.43986819534921V0ZM341.9579899790754 492.3187808069802V521.6787478558175H590.4373968581469V492.3187808069802L473.7973639069842 482.2388796604683L454.357495711635 479.2388796604683Z" fill="#173F42" transform="translate(401.730 85.000) scale(0.036000 -0.036000)"/>
  <path d="M42.12026360930158 0V28.43986819534921L150.96046131627776 39.07990114651191H191.1985171976786L297.6383853930278 28.43986819534921V0ZM121.48105443720632 0Q122.48105443720632 24.719934097674606 123.30107091278768 65.9398681953492Q124.12108738836902 107.15980229302382 124.62108738836902 151.8797363906984Q125.12108738836902 196.59967048837302 125.12108738836902 230.31960458604763V294.3187808069802Q125.12108738836902 344.95881375814287 124.30107091278768 384.5391267941885Q123.48105443720632 424.1194398302341 121.48105443720632 461.03953868372224L35.32042836511507 465.83937392790875V491.1194398302341L212.19769341861118 534.478583100004L224.55766046744847 526.1186160511667L221.83772636977386 382.39950573255953V230.31960458604763Q221.83772636977386 196.59967048837302 222.33772636977386 151.8797363906984Q222.83772636977386 107.15980229302382 223.51770989419254 65.9398681953492Q224.19769341861118 24.719934097674606 225.19769341861118 0ZM166.27924212325794 655Q140.23970343953573 655 121.78006590232539 671.9196869639543Q103.32042836511506 688.8393739279087 103.32042836511506 716.2388796604682Q103.32042836511506 742.9184512953532 121.78006590232539 760.158154734889Q140.23970343953573 777.3978581744246 166.27924212325794 777.3978581744246Q192.0387149046548 777.3978581744246 210.95840186860917 760.158154734889Q229.87808883256355 742.9184512953532 229.87808883256355 716.2388796604682Q229.87808883256355 688.8393739279087 210.95840186860917 671.9196869639543Q192.0387149046548 655 166.27924212325794 655Z" fill="#173F42" transform="translate(424.350 85.000) scale(0.036000 -0.036000)"/>
  <path d="M34.2800659023254 0V28.43986819534921L149.68039541395237 39.07990114651191H190.27841834419053L307.5584842465159 28.43986819534921V0ZM120.20098853488093 0Q121.20098853488093 32.519769341861114 121.70098853488093 72.05971991511707Q122.20098853488093 111.59967048837302 122.70098853488093 152.91968696395438Q123.20098853488093 194.23970343953573 123.20098853488093 230.31960458604763V744.8797363906984L38.04036246278967 749.599670488373V776.599670488373L208.91762751628576 809.3591432697699L223.91762751628576 800.3591432697699L220.55766046744847 643.8393739279087V230.31960458604763Q220.55766046744847 194.23970343953573 221.05766046744847 152.91968696395438Q221.55766046744847 111.59967048837302 222.23764399186712 72.05971991511707Q222.91762751628576 32.519769341861114 223.91762751628576 0Z" fill="#173F42" transform="translate(436.782 85.000) scale(0.036000 -0.036000)"/>
  <path d="M34.2800659023254 0V28.43986819534921L149.68039541395237 39.07990114651191H190.27841834419053L307.5584842465159 28.43986819534921V0ZM120.20098853488093 0Q121.20098853488093 32.519769341861114 121.70098853488093 72.05971991511707Q122.20098853488093 111.59967048837302 122.70098853488093 152.91968696395438Q123.20098853488093 194.23970343953573 123.20098853488093 230.31960458604763V744.8797363906984L38.04036246278967 749.599670488373V776.599670488373L208.91762751628576 809.3591432697699L223.91762751628576 800.3591432697699L220.55766046744847 643.8393739279087V230.31960458604763Q220.55766046744847 194.23970343953573 221.05766046744847 152.91968696395438Q221.55766046744847 111.59967048837302 222.23764399186712 72.05971991511707Q222.91762751628576 32.519769341861114 223.91762751628576 0Z" fill="#173F42" transform="translate(449.322 85.000) scale(0.036000 -0.036000)"/>
  <path d="M224.55930802558336 -15.079901146511908Q174.23970343953573 -15.079901146511908 133.60008237790674 -4.5Q92.96046131627777 6.079901146511907 51.52059312092856 26.599670488373025L53.12026360930158 148.51894556279368H100.47940687907145L126.15897851395637 18.79983524418651L86.23970343953572 21.959637537210327V57.95963753721033Q115.75947278139684 38.519769341861114 146.39950573255953 28.339785817442465Q177.03953868372224 18.159802293023816 219.8797363906984 18.159802293023816Q284.5601318046508 18.159802293023816 317.62026360930156 43.7800659023254Q350.6803954139524 69.40032951162698 350.6803954139524 111.68039541395237Q350.6803954139524 147.52059312092857 328.62026360930156 170.84060959650992Q306.5601318046508 194.16062607209125 245.2800659023254 213.08072492557935L192.40032951162698 232.08072492557935Q130.52059312092857 253.36079082790474 94.44069197441665 288.8805601697659Q58.360790827904744 324.400329511627 58.360790827904744 382Q58.360790827904744 448.19934097674604 108.90032951162698 492.47899498953774Q159.43986819534922 536.7586490023294 253.43904441628177 536.7586490023294Q299.5988467093056 536.7586490023294 335.978583100004 525.8986819534921Q372.3583194907024 515.0387149046547 411.23805588140084 492.3986819534921L406.7981876860516 381.7594727813968H363.878912611631L335.7998352441865 502.9983524418651L370.35914326976985 495.2388796604683V463.3187808069802Q339.71911031860714 484.5988467093056 312.878912611631 493.91886318488696Q286.0387149046548 503.2388796604683 254.23887966046829 503.2388796604683Q199.27841834419053 503.2388796604683 170.3183689174465 478.8587313802361Q141.35831949070243 454.478583100004 141.35831949070243 415.1985171976786Q141.35831949070243 380.51812178372626 164.55848424651592 358.01812178372626Q187.7586490023294 335.51812178372626 243.1985171976786 317.23805588140084L295.1581547348889 299.23805588140084Q371.59802293023813 273.31795702791277 404.39785817442464 236.29818768605165Q437.19769341861115 199.27841834419053 437.19769341861115 144.9588137581429Q437.19769341861115 99.11943983023414 412.8179570279127 62.739703439535724Q388.43822063721433 26.3599670488373 341.29859957558534 5.640032951162697Q294.15897851395636 -15.079901146511908 224.55930802558336 -15.079901146511908Z" fill="#173F42" transform="translate(461.862 85.000) scale(0.036000 -0.036000)"/>
  <path d="M824.8023065813888 680 874.0411862418571 729.5988467093056 962.5593080255834 645.2405272186031Q956.5593080255834 640.1606260720913 947.739291550002 638.300659023254Q938.9192750744206 636.4406919744166 923.5593080255834 635.4406919744166Q903.2397034395357 608.800659023254 868.8401977069761 576.8406095965099Q834.4406919744166 544.8805601697659 804.7611203395318 522.9604613162778L793.6408567302301 530.2405272186031Q801.4810544372064 551.6803954139524 809.4213345220892 579.0803130360457Q817.3616146069721 606.4802306581389 824.9818782162738 633.7001647558135Q832.6021418255754 660.9200988534881 835.8023065813888 680ZM169.3599670488373 734.679571634885Q188.03953868372224 677.7998352441865 185.5992585988393 634.2001647558135Q183.15897851395638 590.6004942674405 167.33896203837503 561.8607908279048Q151.51894556279368 533.121087388369 129.63920917209526 519.0411862418571Q115.75947278139684 509.9612850953452 98.25988467093056 508.121087388369Q80.76029656046428 506.28088968139286 66.30065902325396 512.9604613162778Q51.84102148604363 519.6400329511627 45.12108738836902 535.1194398302341Q38.32125214418251 556.478583100004 49.18080730348609 574.0580723569822Q60.04036246278967 591.6375616139604 79.51976934186112 601.4373968581469Q98.71993409767461 611.9975286627977 116.71993409767461 631.757825223262Q134.7199340976746 651.5181217837262 145.2998352441865 678.1585666244226Q155.8797363906984 704.7990114651191 153.59967048837302 734.0395386837222ZM862.2009885348809 680V650.7199340976746H158.1598022930238V680ZM429.6416805092976 841.7594727813969Q486.2001647558135 833.9588137581429 518.9794068790715 816.3587313802361Q551.7586490023294 798.7586490023294 565.4184512953532 777.1989290872123Q579.078253588377 755.6392091720952 577.8785007220972 735.8196045860476Q576.6787478558175 716 564.739291550002 702.5803130360457Q552.7998352441865 689.1606260720913 534.2005766453472 687.3406095965099Q515.6013180465079 685.5205931209285 494.32207592324994 700.6400329511627Q490.8418452651111 736.2397034395357 469.04159813139086 773.9995881104662Q447.2413509976706 811.7594727813969 420.1614498511587 834.8393739279087ZM180.88056016976586 452.3599670488373Q245.51976934186112 442.83937392790875 285.47940687907146 424.4192750744206Q325.4390444162818 405.99917622093255 345.5790773674445 384.1593904034901Q365.71911031860714 362.3196045860476 369.6194398302341 341.7199340976746Q373.5197693418611 321.12026360930156 365.12026360930156 306.4205107430218Q356.720757876742 291.720757876742 339.56136747325195 287.4007414011607Q322.40197706976187 283.0807249255794 300.5626031418531 295.12026360930156Q290.4423395325515 320.6400329511627 268.80189469185507 348.35996704883735Q247.1614498511587 376.07990114651193 221.48105443720632 401.25988467093055Q195.80065902325396 426.4398681953492 172.32042836511508 444.1598022930238ZM259.36079082790474 603.279242123258Q319.2800659023254 594.0387149046547 356.5197693418611 577.2586490023293Q393.7594727813968 560.478583100004 412.2195222081409 539.9987643313989Q430.67957163488495 519.5189455627936 433.7998352441865 500.5992585988393Q436.92009885348807 481.67957163488495 428.3805601697659 468.3397858174425Q419.84102148604364 455 403.90156518022815 451.5Q387.96210887441265 448 367.2026360930158 458.67957163488495Q357.4423395325515 481.19934097674604 337.2619441185991 506.4192750744206Q317.08154870464676 531.6392091720952 293.86120271743846 554.9991762209326Q270.64085673023015 578.3591432697699 249.80065902325396 594.7191103186071ZM502.39950573255953 180.9596375372103Q604.0387149046547 162.99917622093255 675.1783359662837 138.07907736744446Q746.3179570279127 113.15897851395637 791.6779240767501 86.03912679418852Q837.0378911255874 58.91927507442065 861.0181217837262 32.17957163488493Q884.9983524418651 5.439868195349209 891.4987643313989 -16.979818768605163Q897.9991762209326 -39.39950573255953 891.3797363906984 -54.55930802558335Q884.7602965604643 -69.71911031860716 868.9608732058116 -73.89909384302581Q853.1614498511587 -78.07907736744447 832.7619441185991 -67.47940687907145Q809.2817134604603 -35.19934097674605 761.561367473252 6.100494267440464Q713.8410214860436 47.40032951162698 647.0605436941845 89.6400329511627Q580.2800659023254 131.8797363906984 497.47940687907146 166.47940687907143ZM622.3179570279127 606.1194398302341Q621.3179570279127 595.7594727813969 613.2780064546569 588.7594727813969Q605.2380558814009 581.7594727813969 587.5980229302381 579.3995057325595Q586.2380558814009 495.67957163488495 582.6981053081449 421.9196869639544Q579.158154734889 348.1598022930238 565.078253588377 284.39991762209326Q550.9983524418651 220.6400329511627 518.6985171976786 165.88014828023213Q486.3986819534921 111.12026360930157 427.33896203837503 65.54036246278967Q368.279242123258 19.960461316277765 274.9196869639544 -16.759472781396838Q181.56013180465078 -53.47940687907144 44.72075787674204 -82.83937392790875L36.80065902325395 -65.35914326976986Q157.92092263255554 -32.039538683722235 239.621087388369 8.20016475581349Q321.3212521441825 48.43986819534921 372.06136747325195 95.27965401279168Q422.8014828023214 142.11943983023414 449.7215816558095 197.739291550002Q476.6416805092976 253.35914326976987 487.2817134604603 317.8990938430258Q497.92174641162296 382.4390444162818 499.24176288720435 457.2590608918631Q500.56177936278567 532.0790773674445 500.56177936278567 617.9991762209326ZM846.1614498511587 326.59802293023813Q846.1614498511587 326.59802293023813 856.3212521441826 318.2981876860516Q866.4810544372064 309.9983524418651 882.4007414011608 296.93863252674805Q898.320428365115 283.878912611631 915.6000823779068 268.9592256476766Q932.8797363906984 254.03953868372224 947.3995057325595 240.51976934186112Q944.0395386837222 224.51976934186112 919.9596375372104 224.51976934186112H73.60049426744047L64.96046131627777 253.7998352441865H790.9225701906904Z" fill="#173F42" transform="translate(479.478 85.000) scale(0.036000 -0.036000)"/>
  <path d="M88.20098853488093 813.8385501488413 172.9983524418651 770.679571634885H160.63838539302782V482.2388796604683Q160.63838539302782 478.15897851395636 144.19892908721232 468.6392091720952Q127.75947278139684 459.1194398302341 99.96046131627777 459.1194398302341H88.20098853488093V770.679571634885ZM29.040362462789673 43.27841834419051Q62.760296560464276 48.55848424651591 111.42009885348808 57.83855014884131Q160.0799011465119 67.1186160511667 218.9596375372103 79.39868195349209Q277.83937392790875 91.67874785581749 341.0790773674445 106.63879728256154Q404.3187808069802 121.59884670930559 466.8385501488413 138.23887966046829L470.1186160511667 125.0387149046548Q402.6383853930278 90.07907736744447 311.9184512953532 50.919686963954376Q221.1985171976786 11.760296560464278 99.63920917209526 -29.958813758142888Q92.91927507442065 -50.038714904654796 76.75947278139684 -55.038714904654796ZM362.91845129535324 381.0387149046548Q362.91845129535324 381.0387149046548 376.6783359662838 369.1989290872123Q390.43822063721433 357.35914326976985 408.6981053081449 340.6593904034901Q426.9579899790754 323.9596375372103 440.67792407675006 308.1598022930238Q437.03789112558735 292.1598022930238 415.31795702791277 292.1598022930238H252.07907736744446V321.4398681953492H320.2388796604683ZM178.75947278139685 376.7998352441865Q177.75947278139685 368.23970343953573 171.19934097674604 362.77965401279164Q164.63920917209526 357.3196045860476 149.79901146511907 355.3196045860476V30.319604586047628L83.48105443720632 13.359967048837303V386.5197693418611ZM281.59802293023813 531V64.91927507442065L209.16062607209125 44.159802293023816V531ZM307.20098853488093 770.679571634885 345.92009885348807 813.3986819534921 431.478583100004 748.1598022930239Q426.8385501488413 742.5197693418611 415.9184512953532 737.3397858174425Q404.9983524418651 732.1598022930239 390.3583194907024 729.1598022930239V492.5189455627937Q389.71828653953975 490.15897851395636 379.25864900232943 485.3990938430258Q368.79901146511907 480.63920917209526 354.7195222081409 476.87932450116466Q340.6400329511627 473.1194398302341 328.96046131627776 473.1194398302341H317.20098853488093V770.679571634885ZM354.7998352441865 539.5197693418611V509.1598022930238H132.9200988534881V539.5197693418611ZM352.23970343953573 770.679571634885V741.3995057325595H127.15980229302382V770.679571634885ZM947.9588137581429 291.91845129535324Q942.6787478558175 284.91845129535324 933.9987643313989 282.1985171976786Q925.3187808069802 279.478583100004 908.5988467093056 284.3986819534921Q853.878912611631 210.55930802558336 765.9789949895378 140.59967048837302Q678.0790773674445 70.6400329511627 564.5794892569781 15.200164755813486Q451.07990114651193 -40.239703439535724 318.20098853488093 -71.4398681953492L310.9209226325555 -56.519769341861114Q431.76029656046427 -14.920098853488092 536.7602965604643 48.75947278139684Q641.7602965604643 112.43904441628177 722.8406095965099 188.87850072209727Q803.9209226325555 265.31795702791277 851.6812191930198 346.4373968581469ZM860.3607908279048 504.71828653953975Q860.3607908279048 504.71828653953975 877.7405272186031 494.6383853930278Q895.1202636093016 484.5584842465159 919.0799011465119 470.29859957558534Q943.0395386837222 456.0387149046548 962.279242123258 442.5988467093056Q961.6392091720952 434.5988467093056 954.9592256476766 429.7388796604683Q948.279242123258 424.878912611631 938.279242123258 423.5189455627937L415.878912611631 356.599670488373L404.5189455627937 383.87973639069844L817.9612850953453 435.47940687907146ZM834.400329511627 675.0790773674445Q834.400329511627 675.0790773674445 851.0601318046508 664.6791597453512Q867.7199340976746 654.279242123258 890.7796540127916 639.3793245011648Q913.8393739279087 624.4794068790715 931.7191103186071 611.0395386837222Q929.0790773674445 593.679571634885 907.0790773674445 591.679571634885L418.2388796604683 543.9200988534881L407.2388796604683 572.2001647558135L790.720757876742 608.0799011465119ZM702.0395386837222 814.199340976746Q755.2388796604682 809.5988467093056 787.478583100004 796.0387149046549Q819.7182865395397 782.478583100004 835.2182865395397 765.0387149046549Q850.7182865395397 747.5988467093056 852.6985171976786 730.5790773674445Q854.6787478558175 713.5593080255834 846.0391267941885 701.3995057325595Q837.3995057325595 689.2397034395357 821.6799835244187 685.7397034395357Q805.9604613162778 682.2397034395357 786.9209226325555 692.8393739279087Q780.0807249255794 712.279242123258 764.1404448406964 733.1392091720952Q748.2001647558135 753.9991762209326 729.5799011465119 773.6392091720952Q710.9596375372104 793.279242123258 693.1194398302341 806.279242123258ZM662.9983524418651 820.8797363906984Q661.9983524418651 810.8797363906984 654.1783359662838 803.5197693418611Q646.3583194907025 796.1598022930239 627.3583194907025 793.1598022930239Q625.6383853930279 666.5593080255834 633.3385501488413 549.1387972825615Q641.0387149046547 431.71828653953975 664.838962038375 331.53789112558735Q688.6392091720952 231.35749571163498 735.0395386837222 155.97734743140285Q781.4398681953492 80.59719915117071 857.4802306581389 37.07742980930959Q871.400329511627 27.717462760472284 878.2602965604642 29.037479236053635Q885.1202636093016 30.357495711634982 891.8401977069761 44.277594565123074Q901.6400329511627 63.63756161396038 915.2397034395357 97.33731448024014Q928.8393739279087 131.0370673465199 939.0790773674445 162.75700144419451L950.9991762209326 161.39703439535722L934.0395386837222 7.598022930238145Q958.9192750744206 -21.76112033953172 963.4592256476766 -37.10049426744047Q967.9991762209326 -52.43986819534921 960.7594727813969 -62.95963753721033Q947.6400329511627 -80.99917622093255 924.2005766453472 -80.85914326976986Q900.7611203395318 -80.71911031860716 873.2615322290654 -69.3793245011647Q845.7619441185991 -58.039538683722235 821.3220759232499 -42.239703439535724Q732.6021418255754 11.399505732559536 677.6820429720872 97.67915974535121Q622.7619441185991 183.9588137581429 594.0617793627856 297.1787478558175Q565.3616146069721 410.3986819534921 554.98146632674 546.0588961360496Q544.6013180465079 681.7191103186071 544.6013180465079 834.3995057325595Z" fill="#173F42" transform="translate(515.778 85.000) scale(0.036000 -0.036000)"/>
  <path d="M257.52224067906343 466.9596375372103Q398.9209226325555 463.5988467093056 502.0601318046508 453.59843481977185Q605.199340976746 443.59802293023813 675.1589785139563 429.8579076011687Q745.1186160511667 416.1177922720993 787.2985995755853 400.217874650006Q829.478583100004 384.31795702791277 848.9588137581429 368.9781712104703Q868.4390444162817 353.6383853930278 869.9394563058154 340.57866547791076Q871.4398681953492 327.5189455627937 861.0403624627896 318.99917622093255Q850.6408567302301 310.47940687907146 832.7413509976706 308.7195222081409Q814.841845265111 306.9596375372103 795.1622736302261 314.03953868372224Q736.0420100209245 341.67957163488495 650.1219111674365 366.39950573255953Q564.2018123139484 391.1194398302341 457.9818782162738 412.1194398302341Q351.76194411859916 433.1194398302341 229.60214182557536 447.3196045860476ZM229.60214182557536 447.3196045860476Q249.96210887441265 469.03953868372224 276.0020594476686 503.1194398302341Q302.0420100209246 537.199340976746 328.40197706976187 574.4592256476766Q354.76194411859916 611.7191103186071 376.62191116743645 645.6190279407003Q398.48187821627374 679.5189455627936 410.12191116743645 701.5189455627936L523.6383853930279 656.1598022930239Q518.9983524418651 647.4398681953492 506.23846777093456 642.539950573256Q493.478583100004 637.6400329511627 461.9192750744206 645.3599670488373L488.5584842465159 656.4398681953492Q471.1186160511667 632.0799011465119 441.21869842907347 593.2598846709305Q411.3187808069802 554.4398681953492 378.77883023372425 514.4798187686051Q346.2388796604683 474.5197693418611 317.878912611631 444.23970343953573ZM742.3583194907025 565.679571634885Q705.9983524418651 493.3196045860476 651.4382206372143 443.77965401279164Q596.8780888325635 394.23970343953573 517.5181217837262 363.05971991511706Q438.1581547348889 331.87973639069844 329.11861605116667 314.55971991511706Q220.07907736744446 297.23970343953573 74.48023065813888 288.599670488373L71.12026360930157 305.4398681953492Q228.2001647558135 325.3196045860476 344.64044484069643 355.97940687907146Q461.0807249255794 386.63920917209526 538.2211697662758 440.4592256476766Q615.3616146069721 494.279242123258 652.7619441185991 581.679571634885H742.3583194907025ZM833 641.478583100004Q833 641.478583100004 848.1997528662798 629.6787478558175Q863.3995057325595 617.878912611631 884.3191926965139 601.0391267941885Q905.2388796604682 584.199340976746 922.1186160511667 568.3995057325595Q918.478583100004 552.3995057325595 895.7586490023294 552.3995057325595H100.80065902325396L92.16062607209125 581.679571634885H784.720757876742ZM576.158154734889 336.23970343953573Q575.158154734889 326.23970343953573 567.0181217837262 319.05971991511706Q558.8780888325635 311.87973639069844 539.158154734889 309.5197693418611V-55.87973639069842Q539.158154734889 -59.239703439535724 528.938632526748 -65.17957163488494Q518.7191103186071 -71.11943983023414 503.1598022930238 -75.3793245011647Q487.60049426744047 -79.63920917209526 470.6812191930198 -79.63920917209526H455.56177936278567V348.39950573255953ZM539.7182865395397 242.8401977069762Q572.558484246516 203.0799011465119 621.0786654779108 168.7195222081409Q669.5988467093056 134.35914326976987 728.4390444162818 106.85873138023615Q787.279242123258 79.35831949070243 850.3393739279088 59.67792407675005Q913.3995057325595 39.99752866279768 974.9596375372104 29.2372321023334L973.3196045860476 17.8772650534961Q948.320428365115 12.277594565123074 929.7409391081369 -7.541598131390835Q911.1614498511587 -27.360790827904744 904.0016475581349 -58.039538683722235Q823.7215816558095 -31.319604586047628 752.1009061569741 10.000411889533721Q680.4802306581389 51.32042836511507 622.9794068790715 108.04036246278967Q565.478583100004 164.76029656046427 526.2380558814009 234ZM518.1186160511667 227.56013180465078Q467.8385501488413 162.76029656046427 394.1787478558175 108.54036246278967Q320.5189455627937 54.32042836511507 230.33937392790875 12.32042836511507Q140.1598022930238 -29.67957163488493 38.68039541395237 -58.95963753721033L30.12026360930158 -43.839373927908746Q111.72075787674204 -9.399505732559536 183.9612850953452 36.26029656046428Q256.2018123139484 81.9200988534881 315.4423395325515 135.1400329511627Q374.6828667511547 188.3599670488373 415.28336101859514 243.56013180465078H518.1186160511667ZM861.5609555837183 308.95881375814287Q861.5609555837183 308.95881375814287 870.6808073034861 301.51894556279365Q879.800659023254 294.0790773674445 894.320428365115 282.0992585988393Q908.8401977069761 270.1194398302341 924.8599670488372 256.77965401279164Q940.8797363906984 243.43986819534922 953.679571634885 231Q949.679571634885 215 926.9596375372104 215H57.960461316277765L49.32042836511507 244.2800659023254H810.921746411623ZM433.28088968139286 849.3995057325595Q483.1598022930238 847.7191103186071 511.37932450116466 836.0790773674444Q539.5988467093056 824.4390444162817 551.7788302337242 808.5992585988392Q563.9588137581429 792.7594727813969 562.6791597453512 776.8797363906984Q561.3995057325595 761 550.6400329511628 749.7001647558135Q539.8805601697659 738.400329511627 523.2211697662758 736.9802306581389Q506.56177936278567 735.5601318046508 487.4423395325515 748.3196045860476Q484.76194411859916 774.3995057325595 465.98146632674 800.6194398302341Q447.20098853488093 826.8393739279087 424.720757876742 841.199340976746ZM820.7619441185991 736.599670488373 866.2808896813929 782.1186160511667 947.9991762209326 704.2001647558135Q942.6392091720952 699.4802306581389 933.4991762209326 697.6202636093017Q924.3591432697699 695.7602965604643 909.6392091720952 694.7602965604643Q886.9596375372104 676.1202636093016 850.5201812313949 655.7001647558135Q814.0807249255794 635.2800659023254 784.6812191930198 623L773.2009885348809 630.2800659023254Q782.7611203395318 644.3599670488373 794.2813015709266 663.5799011465119Q805.8014828023214 682.7998352441865 815.8216640337162 702.5197693418611Q825.841845265111 722.2397034395357 831.7619441185991 736.599670488373ZM165.31960458604763 782.5189455627936Q181.27924212325794 737.279242123258 179.21911031860716 702.3595551593036Q177.15897851395638 667.4398681953492 163.75906089186313 644.6000823779068Q150.35914326976987 621.7602965604643 131.11943983023414 610.7602965604643Q113.15980229302382 601.400329511627 90.66021418255752 604.5799011465119Q68.16062607209125 607.7594727813969 60.80065902325395 627.3187808069802Q55.08072492557935 645.8780888325635 65.04036246278967 660.4777593209366Q75 675.0774298093096 92.39950573255953 683.1573309558215Q116.23970343953572 694.357495711635 133.99958811046628 721.9979405523314Q151.75947278139685 749.6383853930279 148.47940687907143 781.878912611631ZM879.4802306581389 736.599670488373V707.3196045860476H152.1598022930238V736.599670488373Z" fill="#173F42" transform="translate(552.078 85.000) scale(0.036000 -0.036000)"/>
  <path d="M278.4802306581389 756.7602965604643H533.7224054348769L584.0815487046468 821.0790773674445Q584.0815487046468 821.0790773674445 593.3813839488333 813.8191926965139Q602.6812191930198 806.5593080255834 617.2009885348809 794.5794892569781Q631.720757876742 782.599670488373 647.6004942674405 768.9398681953492Q663.4802306581389 755.2800659023254 676.6400329511627 743.4802306581389Q673.2800659023254 727.4802306581389 649.9200988534881 727.4802306581389H286.4802306581389ZM663.9612850953453 713.679571634885 770.5189455627936 702.2397034395357Q768.878912611631 692.9596375372104 761.7788302337242 686.3196045860477Q754.6787478558175 679.679571634885 736.7586490023294 677.679571634885V158.19934097674604Q736.7586490023294 153.83937392790875 727.6589785139564 147.89950573255953Q718.5593080255834 141.9596375372103 705.1598022930239 137.69975286627977Q691.7602965604643 133.43986819534922 678.3607908279048 133.43986819534922H663.9612850953453ZM385.28171346046025 755.0403624627896H464.3986819534921V739.0403624627896Q442.3187808069802 594.8805601697659 388.9592256476766 472.42051074302185Q335.599670488373 349.96046131627776 239.2800659023254 250.48023065813888L226.3599670488373 262.6803954139524Q272.60049426744047 330.60049426744047 303.82084025464883 410.1803954139524Q335.04118624185713 489.76029656046427 354.88138394883333 577.4802306581389Q374.7215816558095 665.2001647558135 385.28171346046025 755.0403624627896ZM336.7199340976746 428.6803954139524Q392.99917622093255 414.6400329511627 426.01894556279365 394.8200164755814Q459.0387149046548 375 473.91886318488696 354.2001647558135Q488.79901146511907 333.400329511627 489.2994233546528 315.2405272186032Q489.7998352441865 297.0807249255794 480.0004118895337 285.00082377906745Q470.20098853488093 272.9209226325555 453.90156518022815 271.86079082790474Q437.60214182557536 270.80065902325396 419.2026360930158 283.92009885348807Q413.80230658138885 307 398.381795838367 331.96004942674404Q382.9612850953452 356.92009885348807 363.9007414011607 380.7001647558135Q344.8401977069762 404.4802306581389 327.1598022930238 421.4802306581389ZM840.4818782162738 830.9596375372104 952.4390444162817 818.7998352441865Q950.7990114651191 808.4398681953492 942.2990114651191 801.1198517197679Q933.7990114651191 793.7998352441865 915.4390444162817 791.4398681953492V24.638385393027818Q915.4390444162817 -4.640856730230137 907.9592256476766 -26.86037893837102Q900.4794068790715 -49.07990114651191 875.8599670488372 -62.77965401279168Q851.2405272186031 -76.47940687907145 799.3616146069721 -82.19934097674604Q797.3616146069721 -63.640032951162695 792.1816310825535 -49.60049426744047Q787.0016475581349 -35.56095558371823 775.2817134604603 -25.68121919301981Q762.921746411623 -15.801482802321392 742.4616969848789 -9.461696984878927Q722.0016475581349 -3.121911167436462 684.841845265111 1.957989979075446V17.878088832563538Q684.841845265111 17.878088832563538 701.841845265111 16.55807235698219Q718.841845265111 15.238055881400843 742.5218287895298 13.738055881400843Q766.2018123139484 12.238055881400843 787.0617793627857 10.918039405819494Q807.921746411623 9.598022930238145 816.2817134604603 9.598022930238145Q830.2018123139484 9.598022930238145 835.341845265111 14.55807235698219Q840.4818782162738 19.518121783726237 840.4818782162738 31.43822063721433ZM397.4398681953492 572.800659023254H565.4406919744166V544.1606260720913H387.4398681953492ZM535.1622736302261 572.800659023254H525.0823724837143L567.9612850953453 618.3995057325595L647.4794068790715 547.5609555837183Q642.199340976746 540.8410214860436 634.0193574523273 537.8010709127877Q625.8393739279087 534.7611203395318 609.4794068790715 532.7611203395318Q596.9192750744206 444.4011532906944 574.9991762209326 358.4011532906944Q553.0790773674445 272.4011532906944 514.3990938430259 193.12108738836903Q475.71911031860714 113.84102148604363 414.51935745232737 45.60090615697419Q353.3196045860476 -22.639209172095256 261.5601318046508 -75.11943983023414L250.3599670488373 -61.91927507442065Q322.8401977069762 -5.919275074420653 373.42051074302185 65.76070844999799Q424.00082377906745 137.44069197441664 456.9011532906944 220.12067549883528Q489.8014828023214 302.80065902325396 508.06177936278567 391.9806425476726Q526.3220759232499 481.16062607209125 535.1622736302261 572.800659023254ZM131.0016475581349 539.3607908279048 162.92092263255554 581.7998352441865 236.6787478558175 554.800659023254Q234.3187808069802 547.800659023254 226.8187808069802 543.1206754988352Q219.3187808069802 538.4406919744166 205.9588137581429 536.4406919744166V-57.43986819534921Q205.9588137581429 -60.159802293023816 196.17915974535123 -65.77965401279167Q186.39950573255953 -71.39950573255953 172.6400329511627 -76.1593904034901Q158.88056016976586 -80.91927507442065 144.76112033953171 -80.91927507442065H131.0016475581349ZM188.16227363022614 840.9192750744206 303.35914326976985 807.0403624627896Q297.99917622093255 786.0403624627896 265.279242123258 786.0403624627896Q239.83937392790875 698.3607908279048 205.67957163488495 615.1808073034861Q171.51976934186112 532.0008237790674 130.10008237790674 459.94069197441667Q88.68039541395237 387.8805601697659 40.56095558371823 331.60049426744047L26.640856730230137 340.52059312092854Q59.84102148604363 403.6803954139524 90.18121919301981 485.38014828023216Q120.521416899996 567.0799011465119 146.14168050929757 658.599670488373Q171.76194411859916 750.1194398302341 188.16227363022614 840.9192750744206Z" fill="#173F42" transform="translate(588.378 85.000) scale(0.036000 -0.036000)"/>
  <path d="M242.47775932093657 31.880560169765857Q212.9184512953532 31.880560169765857 192.83896203837503 52.100082377906745Q172.75947278139685 72.31960458604763 172.75947278139685 99.23887966046829Q172.75947278139685 128.79818768605162 192.83896203837503 148.73764399186712Q212.9184512953532 168.6771002976826 242.47775932093657 168.6771002976826Q273.0370673465199 168.6771002976826 292.6165566034981 148.73764399186712Q312.19604586047626 128.79818768605162 312.19604586047626 99.23887966046829Q312.19604586047626 72.31960458604763 292.6165566034981 52.100082377906745Q273.0370673465199 31.880560169765857 242.47775932093657 31.880560169765857ZM242.47775932093657 429.08154870464676Q212.9184512953532 429.08154870464676 192.83896203837503 449.3010709127876Q172.75947278139685 469.52059312092854 172.75947278139685 496.7998352441865Q172.75947278139685 525.9991762209326 192.83896203837503 545.938632526748Q212.9184512953532 565.8780888325635 242.47775932093657 565.8780888325635Q273.0370673465199 565.8780888325635 292.6165566034981 545.938632526748Q312.19604586047626 525.9991762209326 312.19604586047626 496.7998352441865Q312.19604586047626 469.52059312092854 292.6165566034981 449.3010709127876Q273.0370673465199 429.08154870464676 242.47775932093657 429.08154870464676Z" fill="#173F42" transform="translate(624.678 85.000) scale(0.036000 -0.036000)"/>
  <path d="M824.8023065813888 680 874.4011532906944 729.5988467093056 962.5593080255834 645.2405272186031Q957.199340976746 640.1606260720913 948.0593080255833 638.300659023254Q938.9192750744206 636.4406919744166 923.5593080255834 635.4406919744166Q900.599670488373 609.1606260720913 863.7401153290695 577.5605436941846Q826.8805601697659 545.9604613162778 795.2009885348809 524.400329511627L783.0807249255794 531.6803954139524Q792.5609555837183 552.7602965604643 802.8212521441826 579.6602141825576Q813.0815487046468 606.5601318046508 822.0218287895298 633.6000823779068Q830.9621088744126 660.6400329511627 835.8023065813888 680ZM169.7199340976746 734.679571634885Q188.75947278139685 677.4398681953492 186.31919269651394 633.6602141825575Q183.878912611631 589.8805601697659 168.23887966046829 560.7808896813929Q152.59884670930558 531.6812191930198 130.71911031860716 517.2413509976706Q116.83937392790875 507.8014828023214 99.51976934186112 505.6013180465079Q82.20016475581349 503.4011532906944 67.74052721860316 510.0807249255794Q53.280889681392836 516.7602965604643 46.56095558371823 531.8797363906984Q39.761120339531715 553.2388796604682 50.08072492557935 570.6383853930279Q60.40032951162698 588.0378911255874 79.87973639069843 598.1976934186112Q99.0799011465119 608.757825223262 116.89991762209326 629.0580723569822Q134.7199340976746 649.3583194907025 145.2998352441865 676.7186984290735Q155.8797363906984 704.0790773674445 153.59967048837302 734.0395386837222ZM862.2009885348809 680V650.7199340976746H158.1598022930238V680ZM429.6416805092976 841.7594727813969Q486.2001647558135 833.9588137581429 518.9794068790715 816.3587313802361Q551.7586490023294 798.7586490023294 565.4184512953532 777.1989290872123Q579.078253588377 755.6392091720952 577.8785007220972 735.8196045860476Q576.6787478558175 716 564.739291550002 702.5803130360457Q552.7998352441865 689.1606260720913 534.2005766453472 687.3406095965099Q515.6013180465079 685.5205931209285 494.32207592324994 700.6400329511627Q490.8418452651111 736.2397034395357 469.04159813139086 773.9995881104662Q447.2413509976706 811.7594727813969 420.1614498511587 834.8393739279087ZM635.3179570279127 343.07990114651193Q635.3179570279127 334.4398681953492 635.3179570279127 325.85996704883735Q635.3179570279127 317.2800659023254 635.3179570279127 310.92009885348807V40.47775932093656Q635.3179570279127 29.19769341861117 642.0980229302381 24.69769341861117Q648.8780888325635 20.19769341861117 676.478583100004 20.19769341861117H775.2397034395357Q806.9604613162778 20.19769341861117 831.1009061569741 20.69769341861117Q855.2413509976706 21.19769341861117 865.8813839488333 21.837726369773865Q875.2413509976706 22.837726369773865 879.4612850953451 25.837726369773865Q883.6812191930198 28.837726369773865 887.121087388369 36.197693418611166Q893.9209226325555 49.55766046744847 903.0807249255793 86.217874650006Q912.2405272186031 122.87808883256353 922.9200988534881 168.59802293023813H935.1202636093016L937.4802306581389 30.837726369773865Q956.5197693418611 24.317957027912747 962.7796540127916 16.398270063958375Q969.0395386837222 8.478583100004004 969.0395386837222 -3.8410214860436263Q969.0395386837222 -20.960461316277765 953.7397034395357 -31.960049426744046Q938.4398681953492 -42.95963753721033 895.6000823779068 -48.29942335465279Q852.7602965604643 -53.639209172095256 770.6803954139524 -53.639209172095256H661.3196045860476Q617.7602965604643 -53.639209172095256 594.9806425476727 -46.839373927908746Q572.2009885348809 -40.039538683722235 563.7611203395318 -23.179983524418653Q555.3212521441825 -6.320428365115069 555.3212521441825 23.038714904654796V343.07990114651193ZM425.15897851395636 343.3599670488373Q419.5189455627937 286.4802306581389 409.6989290872124 235.14044484069643Q399.878912611631 183.80065902325396 377.97899498953774 137.36079082790474Q356.0790773674445 90.92092263255553 315.739291550002 51.060955583718226Q275.39950573255953 11.200988534880928 209.93986819534922 -22.399093843025817Q144.48023065813888 -55.99917622093256 46.00082377906744 -82.83937392790875L36.44069197441665 -68.27924212325796Q133.92092263255554 -27.479406879071444 192.04118624185713 19.280477791859113Q250.1614498511587 66.04036246278967 279.9616969848789 118.26029656046427Q309.76194411859916 170.48023065813888 320.782125349994 226.88014828023216Q331.80230658138885 283.2800659023254 335.7224054348769 343.3599670488373ZM688.7215816558095 576.1589785139564Q688.7215816558095 576.1589785139564 704.6013180465079 564.4991762209326Q720.4810544372064 552.8393739279087 742.1206754988353 536.099670488373Q763.7602965604643 519.3599670488373 781.6400329511627 503.2001647558135Q778.2800659023254 487.2001647558135 754.9200988534881 487.2001647558135H225.0799011465119L217.0799011465119 516.4802306581389H638.3624383860396ZM838.5205931209285 412.0387149046548Q838.5205931209285 412.0387149046548 848.320428365115 404.77883023372425Q858.1202636093016 397.5189455627937 873.1400329511628 386.1791597453512Q888.1598022930239 374.83937392790875 904.5395386837222 361.67957163488495Q920.9192750744206 348.5197693418611 935.0790773674445 336.07990114651193Q931.7191103186071 320.07990114651193 908.9991762209326 320.07990114651193H89.28088968139284L80.64085673023014 349.3599670488373H786.1614498511587Z" fill="#173F42" transform="translate(288.650 121.000) scale(0.038000 -0.038000)"/>
  <path d="M182.75947278139685 446.35914326976985H414.96046131627776V417.71911031860714H182.75947278139685ZM384.04118624185713 446.35914326976985H374.04118624185713L416.07990114651193 489.87808883256355L497.7981876860516 423.3196045860476Q492.7981876860516 417.3196045860476 483.2981876860516 413.599670488373Q473.7981876860516 409.87973639069844 458.7981876860516 407.87973639069844Q456.43822063721433 305.8401977069762 449.93822063721433 239.88014828023216Q443.43822063721433 173.9200988534881 431.7182865395397 136.39991762209326Q419.9983524418651 98.87973639069843 401.1186160511667 82.15980229302382Q384.2388796604683 66.79983524418651 360.0391267941885 59.25988467093056Q335.83937392790875 51.7199340976746 307.3599670488373 51.7199340976746Q307.3599670488373 67.91927507442065 304.53995057325596 82.27883023372424Q301.7199340976746 96.63838539302782 293.3599670488373 105.15815473488894Q285.6400329511627 113.39785817442466 267.4798187686052 119.83772636977386Q249.31960458604763 126.27759456512308 228.8797363906984 130.0774298093096L229.51976934186112 145.91762751628576Q242.7199340976746 144.91762751628576 260.5601318046508 143.45757808954173Q278.400329511627 141.9975286627977 294.7804777918591 140.85749571163498Q311.16062607209125 139.71746276047227 319.80065902325396 139.71746276047227Q340.36079082790474 139.71746276047227 349.00082377906745 148.63756161396037Q363.9209226325555 163.19769341861118 372.16103796162497 234.93822063721433Q380.4011532906944 306.6787478558175 384.04118624185713 446.35914326976985ZM522.4406919744166 839.279242123258 639.357495711635 827.3995057325595Q638.357495711635 817.3995057325595 630.5374792360536 809.3995057325595Q622.7174627604722 801.3995057325595 603.9975286627977 799.0395386837222Q602.6375616139604 684.7586490023294 612.797775796518 572.3579076011688Q622.9579899790755 459.95716620000803 650.3183689174465 360.3167213593116Q677.6787478558175 260.67627651861517 727.4592256476766 181.39621061628978Q777.2397034395357 102.11614471396439 855.1202636093016 52.43657307907945Q868.6803954139524 42.07660603024215 875.6803954139524 42.71663898140484Q882.6803954139524 43.356671932567544 889.7602965604643 58.276770786055636Q899.9200988534881 76.35667193256754 914.0597199151171 109.8364907011727Q928.199340976746 143.31630946977788 938.4390444162817 174.1161447139644L950.6392091720952 171.75617766512707L931.9596375372104 17.07742980930959Q956.4794068790715 -14.161449851158695 961.0193574523274 -30.580724925579347Q965.5593080255834 -47 957.2397034395357 -56.519769341861114Q946.1202636093016 -69.11943983023414 929.1808073034861 -71.11943983023414Q912.2413509976706 -73.11943983023414 891.921746411623 -66.81960458604763Q871.6021418255754 -60.519769341861114 850.9023889592956 -49.32001647558135Q830.2026360930158 -38.12026360930158 812.5626031418531 -24.32042836511507Q725.0823724837143 37.55848424651591 669.0020594476687 126.7780064546568Q612.921746411623 215.9975286627977 580.8414333755774 327.95757808954176Q548.7611203395318 439.9176275162858 535.6009061569741 569.2380558814009Q522.4406919744166 698.558484246516 522.4406919744166 839.279242123258ZM673.9588137581429 817.1194398302341Q729.7981876860516 815.5189455627936 765.3579076011687 803.5988467093056Q800.9176275162857 791.6787478558175 819.7376439918671 774.5588961360496Q838.5576604674485 757.4390444162817 843.0378911255873 740.0593080255833Q847.5181217837262 722.679571634885 841.01853367326 709.4798187686051Q834.5189455627936 696.2800659023254 820.4394563058155 691.4200988534881Q806.3599670488373 686.5601318046508 786.6004942674405 695.4398681953492Q776.400329511627 715.8797363906984 756.3200164755813 736.9596375372103Q736.2397034395357 758.0395386837222 712.3393739279087 776.6194398302341Q688.4390444162817 795.199340976746 665.6787478558175 807.279242123258ZM783.6812191930198 519.3187808069802 903.3179570279127 482.2800659023254Q900.3179570279127 472.6400329511627 891.9979405523313 468.10008237790674Q883.6779240767501 463.5601318046508 863.0378911255874 464.5601318046508Q836.5181217837262 385.2001647558135 794.4983524418651 306.4802306581389Q752.478583100004 227.76029656046427 692.418863184887 155.860378938371Q632.3591432697699 83.96046131627777 550.8595551593036 24.78047779185912Q469.3599670488373 -34.39950573255953 363.8805601697659 -75.03953868372223L355.60049426744047 -62.11943983023414Q445.96046131627776 -13.799835244186513 516.8805601697659 51.47981876860516Q587.800659023254 116.75947278139684 640.3607908279048 193.4592256476766Q692.9209226325555 270.15897851395636 728.3410214860437 353.0988467093056Q763.7611203395318 436.0387149046548 783.6812191930198 519.3187808069802ZM176.11943983023414 638.679571634885H809.4423395325515L862.3212521441825 705.158154734889Q862.3212521441825 705.158154734889 871.9810544372062 697.5383030151211Q881.6408567302301 689.9184512953532 896.8805601697659 677.7586490023293Q912.1202636093016 665.5988467093056 928.7199340976746 651.8990938430259Q945.3196045860476 638.199340976746 959.199340976746 626.0395386837222Q955.8393739279087 610.0395386837222 932.1194398302341 610.0395386837222H176.11943983023414ZM137.121087388369 638.679571634885V648.679571634885V676.7586490023294L231.43739685814688 638.679571634885H217.47775932093657V424.03953868372224Q217.47775932093657 365.599670488373 212.57784169884332 298.57990114651193Q207.67792407675006 231.56013180465078 190.618204161633 163.40032951162698Q173.55848424651592 95.24052721860316 137.85914326976987 31.300659023253953Q102.15980229302382 -32.639209172095256 40.56095558371823 -85.91927507442065L28.44069197441665 -75.07907736744447Q78.00082377906745 -1.5593080255833502 101.10090615697419 81.86037893837101Q124.20098853488093 165.2800659023254 130.66103796162497 252.47981876860518Q137.121087388369 339.67957163488495 137.121087388369 423.39950573255953Z" fill="#173F42" transform="translate(326.950 121.000) scale(0.038000 -0.038000)"/>
  <path d="M836.4810544372064 521.1985171976786Q836.4810544372064 521.1985171976786 849.3208402546488 510.3587313802361Q862.1606260720913 499.5189455627937 881.5803130360457 482.59925859883936Q901 465.67957163488495 923.099670488373 446.57990114651193Q945.199340976746 427.4802306581389 962.7191103186071 410.96046131627776Q960.7191103186071 402.32042836511505 952.5391267941885 398.96046131627776Q944.3591432697699 395.60049426744047 931.9991762209326 395.60049426744047H54.00082377906744L44.360790827904744 428.2405272186032H767.8023065813888Z" fill="#173F42" transform="translate(365.250 121.000) scale(0.038000 -0.038000)"/>
  <path d="M736.3179570279127 510.76029656046427Q733.6779240767501 502.0403624627897 724.8179570279128 495.6803954139524Q715.9579899790755 489.32042836511505 698.9579899790755 489.32042836511505Q695.5980229302381 395.60049426744047 689.3780888325635 318.3406095965099Q683.158154734889 241.08072492557935 664.3583194907025 179.00082377906745Q645.558484246516 116.92092263255553 604.5988467093056 67.88097205929958Q563.6392091720952 18.841021486043626 491.0799011465119 -19.439044416281767Q418.52059312092854 -57.719110318607164 303.0016475581349 -86.19934097674604L293.08154870464676 -67.99917622093255Q389.9612850953452 -33.55930802558335 451.4011532906944 6.56054369418451Q512.8410214860436 46.68039541395237 547.2009885348809 96.80024713372023Q581.5609555837183 146.9200988534881 596.8809720592997 210.82001647558133Q612.2009885348809 274.7199340976746 615.9810544372064 355.57990114651193Q619.7611203395318 436.4398681953492 620.7611203395318 538.3599670488373ZM503.5576604674485 178.2800659023254Q503.5576604674485 174.48023065813888 494.05807235698217 167.82042836511505Q484.5584842465159 161.16062607209125 469.71911031860714 156.1808073034861Q454.87973639069844 151.20098853488093 438.0403624627897 151.20098853488093H425.36079082790474V613.6803954139524V650.4794068790715L508.5576604674485 613.6803954139524H835.9209226325555V584.400329511627H503.5576604674485ZM805.1219111674365 613.6803954139524 845.0008237790674 657.279242123258 929.878912611631 591.4406919744166Q920.2388796604682 579.4406919744166 893.0387149046547 574.0807249255794V185.0403624627897Q893.0387149046547 182.32042836511508 881.8591432697699 176.38056016976586Q870.679571634885 170.44069197441664 855.5201812313949 165.6808073034861Q840.3607908279048 160.92092263255554 826.6013180465079 160.92092263255554H814.1219111674365V613.6803954139524ZM671.5609555837183 163.1202636093016Q758.9200988534881 143.75947278139685 816.099670488373 115.59925859883931Q873.279242123258 87.43904441628177 905.1791597453512 56.81919269651391Q937.0790773674445 26.199340976746047 948.5593080255833 -1.5803130360456272Q960.0395386837222 -29.3599670488373 954.8599670488372 -49.279654012791674Q949.6803954139524 -69.19934097674604 932.2009885348809 -75.9592256476766Q914.7215816558095 -82.71911031860716 889.8023065813888 -71.47940687907145Q874.4423395325515 -42.67957163488493 848.3822077279008 -11.639621061628977Q822.3220759232499 19.400329511626975 790.7018123139484 49.760296560464276Q759.0815487046468 80.12026360930157 725.6412686197639 106.80024713372023Q692.2009885348809 133.48023065813888 662.0008237790674 153.56013180465078ZM720.357495711635 767.3599670488373Q707.3179570279127 739.9200988534881 690.01853367326 708.3801482802321Q672.7191103186071 676.8401977069761 654.7397034395358 648.3002471337202Q636.7602965604643 619.7602965604643 620.0008237790674 598.7602965604643H598.2405272186031Q601.800659023254 619.4802306581389 604.6808073034861 649.3401977069761Q607.5609555837183 679.2001647558135 610.121087388369 710.9200988534881Q612.6812191930198 742.6400329511627 613.9612850953453 767.3599670488373ZM878.800659023254 832.1186160511667Q878.800659023254 832.1186160511667 888.1004942674405 824.8587313802361Q897.400329511627 817.5988467093056 912.1000823779068 805.9390444162818Q926.7998352441865 794.279242123258 942.8595551593036 780.9394563058155Q958.9192750744206 767.599670488373 972.0790773674445 755.1598022930239Q968.7191103186071 739.1598022930239 945.3591432697699 739.1598022930239H404.7199340976746L396.7199340976746 768.4398681953492H828.0815487046468ZM40.64085673023014 183.9184512953532Q75.72075787674204 188.7586490023294 133.5605436941845 199.378912611631Q191.40032951162698 209.99917622093255 261.8801482802321 225.75947278139682Q332.3599670488373 241.51976934186112 403.7199340976746 259.2800659023254L406.6400329511627 245.7998352441865Q354.87973639069844 217.2001647558135 281.9995881104663 180.260708449998Q209.11943983023414 143.3212521441825 109.87973639069843 100.40197706976186Q103.0799011465119 80.32207592324994 85.5601318046508 75.32207592324994ZM262.1581547348889 722.0799011465119V188.67957163488492H180.0016475581349V722.0799011465119ZM336.0807249255794 782.3986819534921Q336.0807249255794 782.3986819534921 349.9604613162778 770.878912611631Q363.8401977069762 759.3591432697699 382.9798187686051 743.1194398302341Q402.1194398302341 726.8797363906984 417.63920917209526 711.3599670488373Q413.63920917209526 695.3599670488373 391.55930802558333 695.3599670488373H47.72075787674204L39.72075787674204 724.6400329511627H291.08154870464676Z" fill="#173F42" transform="translate(403.550 121.000) scale(0.038000 -0.038000)"/>
  <path d="M523.3591432697699 765.320428365115H789.7199340976746V736.6803954139524H523.3591432697699ZM485.60049426744047 765.320428365115V775.320428365115V802.679571634885L577.03706734652 765.320428365115H563.0774298093096V416.0403624627897Q563.0774298093096 345.32042836511505 555.7174627604722 275.9205107430218Q548.357495711635 206.52059312092857 525.3377263697739 141.30065902325396Q502.31795702791277 76.08072492557935 455.65856662442263 19.040774352323393Q408.99917622093255 -37.99917622093256 330.0403624627897 -82.99917622093255L316.92009885348807 -72.15897851395637Q390.5601318046508 -8.639209172095258 426.4802306581389 67.66062607209125Q462.400329511627 143.96046131627776 474.0004118895337 231.18039541395237Q485.60049426744047 318.400329511627 485.60049426744047 415.0403624627897ZM735.0815487046468 765.320428365115H724.0016475581349L767.320428365115 815.2388796604682L856.1985171976786 739.7602965604643Q850.558484246516 733.7602965604643 840.9184512953532 729.400329511627Q831.2784183441905 725.0403624627896 813.6383853930279 722.6803954139524V43.03789112558735Q813.6383853930279 31.117792272099262 816.9184512953532 26.29777579651791Q820.1985171976786 21.477759320936563 831.3187808069802 21.477759320936563H857.8797363906984Q867.5601318046508 21.477759320936563 875.360378938371 21.477759320936563Q883.1606260720913 21.477759320936563 886.800659023254 22.117792272099262Q890.800659023254 22.75782522326196 894.3805601697659 24.437808747680613Q897.9604613162778 26.117792272099262 901.0403624627896 31.477759320936563Q904.7602965604643 38.55766046744847 909.5201812313949 59.29777579651791Q914.2800659023254 80.03789112558735 919.6799835244187 107.0580723569822Q925.0799011465119 134.07825358837704 929.1598022930239 157.9983524418651H941.3599670488373L945.7199340976746 27.037891125587354Q961.9596375372104 19.798187686051634 967.7195222081409 12.418451295353215Q973.4794068790715 5.038714904654794 973.4794068790715 -6.920922632555532Q973.4794068790715 -29.920098853488092 947.4798187686051 -40.779654012791674Q921.4802306581389 -51.639209172095256 854.320428365115 -51.639209172095256H808.7602965604643Q777.6408567302301 -51.639209172095256 761.7611203395318 -44.339373927908746Q745.8813839488333 -37.039538683722235 740.48146632674 -20.8599670488373Q735.0815487046468 -4.680395413952371 735.0815487046468 20.958813758142888ZM37.80065902325395 613.4406919744166H315.0403624627897L362.5197693418611 678.5593080255834Q362.5197693418611 678.5593080255834 371.27965401279164 670.9394563058155Q380.03953868372224 663.3196045860476 393.47940687907146 651.1598022930239Q406.9192750744206 639 421.71911031860714 625.4802306581389Q436.5189455627937 611.9604613162778 447.5988467093056 600.1606260720913Q445.5189455627937 584.1606260720913 421.878912611631 584.1606260720913H45.80065902325395ZM187.64168050929757 613.4406919744166H271.3986819534921V597.4406919744166Q244.0387149046548 468.4810544372063 187.5992585988393 355.88097205929955Q131.1598022930238 243.28088968139284 45.64085673023014 153.80065902325396L32.08072492557935 165.08072492557935Q71.36079082790474 227.00082377906745 101.24093910813687 301.00082377906745Q131.121087388369 375.00082377906745 152.78130157092653 454.720757876742Q174.44151575348408 534.4406919744166 187.64168050929757 613.4406919744166ZM199.92174641162296 839.9991762209326 313.7586490023294 828.4794068790715Q312.1186160511667 817.4794068790715 304.6186160511667 810.2994233546528Q297.1186160511667 803.1194398302341 277.3986819534921 800.1194398302341V-54.43986819534921Q277.3986819534921 -59.159802293023816 267.9390444162818 -65.59967048837302Q258.47940687907146 -72.03953868372223 244.67998352441867 -76.6593904034901Q230.88056016976586 -81.27924212325796 216.40115329069442 -81.27924212325796H199.92174641162296ZM277.3986819534921 496.87973639069844Q333.43822063721433 477.3196045860476 366.15815473488897 453.41968696395435Q398.87808883256355 429.5197693418611 413.5383030151211 405.2199340976746Q428.1985171976786 380.92009885348807 428.378912611631 361.12026360930156Q428.55930802558333 341.32042836511505 418.8397858174425 328.96046131627776Q409.12026360930156 316.60049426744047 393.0807249255794 315.400329511627Q377.04118624185713 314.2001647558135 358.4415157534841 328.599670488373Q354.04118624185713 354.67957163488495 338.9806425476726 383.9995881104663Q323.92009885348807 413.3196045860476 304.85955515930357 441.139621061629Q285.79901146511907 468.9596375372103 266.478583100004 489.3196045860476Z" fill="#173F42" transform="translate(441.850 121.000) scale(0.038000 -0.038000)"/>
  <path d="M604.2405272186031 541.2800659023254Q651.6400329511627 535.9596375372104 680.4798187686051 522.8995057325595Q709.3196045860476 509.83937392790875 722.4596375372103 493.9394563058155Q735.599670488373 478.03953868372224 736.7598846709305 462.87973639069844Q737.9200988534881 447.7199340976746 730.0004118895338 436.7800659023254Q722.0807249255794 425.8401977069762 707.7611203395318 423.5201812313949Q693.441515753484 421.2001647558135 676.4818782162738 431.07990114651193Q666.441515753484 456.5197693418611 642.121087388369 485.9798187686051Q617.800659023254 515.4398681953492 594.320428365115 533.3599670488373ZM578.8401977069761 420.07990114651193Q639.7602965604643 361.599670488373 735.8999176220932 324.0790773674445Q832.0395386837222 286.5584842465159 976.599670488373 271.9579899790754L974.9596375372104 260.9579899790754Q959.3599670488373 253.9983524418651 949.3801482802321 233.49917622093255Q939.400329511627 213 935.7602965604643 183.48105443720632Q838.320428365115 209.28088968139284 770.0004118895338 242.760708449998Q701.6803954139524 276.2405272186032 653.4402800848829 319.0803130360456Q605.2001647558135 361.92009885348807 566.2800659023254 413.5197693418611ZM541.2784183441905 505.0807249255794Q534.6383853930279 486.64085673023015 502.1985171976786 489.64085673023015Q465.91845129535324 428.36079082790474 404.3385501488413 368.3406095965099Q342.7586490023294 308.32042836511505 251.93904441628177 258.1602141825575Q161.11943983023414 208 35.20016475581349 173.1598022930238L27.6400329511627 185.43986819534922Q138.43986819534922 228.59967048837302 217.60008237790674 287.3196045860476Q296.76029656046427 346.03953868372224 349.9406919744166 412.639621061629Q403.121087388369 479.23970343953573 433.1614498511587 544.7199340976746ZM867.6408567302301 484.95881375814287Q867.6408567302301 484.95881375814287 877.260708449998 477.6989290872123Q886.8805601697659 470.4390444162818 901.5803130360457 458.63920917209526Q916.2800659023254 446.83937392790875 932.6598022930239 433.35955515930357Q949.0395386837222 419.87973639069844 962.5593080255834 407.4398681953492Q958.5593080255834 391.4398681953492 935.4794068790715 391.4398681953492H49.44069197441665L40.80065902325395 420.7199340976746H815.6416805092975ZM764.8813839488333 230.2800659023254 805.320428365115 274.79901146511907 893.478583100004 207.40032951162698Q888.8385501488413 201.40032951162698 877.558484246516 196.0403624627897Q866.2784183441905 190.68039541395237 850.9184512953532 187.32042836511508V-43.11943983023414Q850.9184512953532 -46.11943983023414 839.918863184887 -51.5193574523274Q828.9192750744206 -56.91927507442065 814.2998352441865 -61.31919269651391Q799.6803954139524 -65.71911031860716 787.0008237790674 -65.71911031860716H774.8813839488333V230.2800659023254ZM616.4777593209366 -56.960461316277765Q616.4777593209366 -60.04036246278967 607.0181217837262 -66.20016475581349Q597.558484246516 -72.3599670488373 583.2590608918631 -76.65980229302382Q568.9596375372104 -80.95963753721033 552.4802306581389 -80.95963753721033H541.5205931209285V230.2800659023254V264.99917622093255L621.1177922720992 230.2800659023254H810.1202636093016V201H616.4777593209366ZM812.1202636093016 16.040362462789673V-13.239703439535722H575.9192750744206V16.040362462789673ZM365.4415157534841 230.2800659023254 405.52059312092854 273.35914326976985 491.15897851395636 207.76029656046427Q486.5189455627937 202.1202636093016 475.77883023372425 196.94028008488294Q465.0387149046548 191.76029656046427 450.3986819534921 188.76029656046427V-36.59967048837302Q450.3986819534921 -39.95963753721033 439.7590608918631 -45.57948925697819Q429.1194398302341 -51.19934097674605 414.8599670488373 -55.959225647676604Q400.60049426744047 -60.719110318607164 387.5609555837182 -60.719110318607164H375.4415157534841V230.2800659023254ZM226.23805588140084 -62.40032951162698Q226.23805588140084 -65.84019770697618 216.95840186860917 -71.5Q207.6787478558175 -77.15980229302382 193.55930802558336 -81.77965401279167Q179.43986819534922 -86.39950573255953 163.32042836511508 -86.39950573255953H152.36079082790474V230.2800659023254V239.24052721860315L175.75947278139685 254.59967048837302L230.87808883256355 230.2800659023254H414.720757876742V201H226.23805588140084ZM414.5601318046508 16.040362462789673V-13.239703439535722H189.8797363906984V16.040362462789673ZM784.0016475581349 776.6400329511627 824.4406919744166 821.1589785139564 912.5988467093056 753.7602965604643Q907.9588137581429 747.7602965604643 896.3587313802361 742.2203459872084Q884.7586490023294 736.6803954139524 870.0387149046547 733.6803954139524V528.2397034395357Q870.0387149046547 525.8797363906984 859.0391267941884 520.6598022930239Q848.0395386837222 515.4398681953492 833.4200988534881 511.03995057325596Q818.800659023254 506.6400329511627 806.121087388369 506.6400329511627H794.0016475581349V776.6400329511627ZM626.5576604674485 537.3995057325595Q626.5576604674485 534.3196045860476 617.0980229302381 528.6598022930239Q607.6383853930279 523 593.1589785139564 518.3801482802321Q578.679571634885 513.7602965604643 562.5601318046508 513.7602965604643H551.6004942674405V776.6400329511627V810.3591432697699L631.1976934186112 776.6400329511627H825.320428365115V747.3599670488373H626.5576604674485ZM830.2405272186031 584.7199340976746V555.4398681953492H581.878912611631V584.7199340976746ZM362.56177936278567 776.6400329511627 402.28088968139286 819.7191103186071 488.279242123258 754.1202636093016Q483.63920917209526 748.4802306581389 472.5790773674445 743.3002471337202Q461.5189455627937 738.1202636093016 447.5189455627937 735.1202636093016V545.9596375372104Q447.5189455627937 542.599670488373 436.8793245011647 537.1598022930239Q426.23970343953573 531.7199340976746 411.9802306581389 526.960049426744Q397.720757876742 522.2001647558135 384.6812191930198 522.2001647558135H372.56177936278567V776.6400329511627ZM214.31795702791274 505.03953868372224Q214.31795702791274 501.9596375372103 205.03830301512107 495.9798187686051Q195.7586490023294 490 181.63920917209526 485.5601318046508Q167.51976934186112 481.12026360930156 151.40032951162698 481.12026360930156H140.44069197441664V776.6400329511627V810.9991762209326L218.95798997907545 776.6400329511627H409.84102148604364V747.3599670488373H214.31795702791274ZM412.60049426744047 584.7199340976746V555.4398681953492H176.39950573255953V584.7199340976746Z" fill="#173F42" transform="translate(480.150 121.000) scale(0.038000 -0.038000)"/>
  <path d="M212.76029656046427 487.599670488373H687.2009885348809V458.3196045860476H221.76029656046427ZM44.40032951162698 254.9596375372103H804.1622736302261L859.6812191930198 325.23805588140084Q859.6812191930198 325.23805588140084 869.8410214860437 317.118204161633Q880.0008237790674 308.9983524418651 895.9205107430219 296.29859957558534Q911.8401977069761 283.5988467093056 928.9398681953492 269.21911031860714Q946.0395386837222 254.83937392790875 960.5593080255834 241.67957163488492Q956.5593080255834 226.31960458604763 933.1194398302341 226.31960458604763H53.04036246278967ZM461.68204297208723 360.87973639069844 579.558484246516 349.07990114651193Q576.558484246516 328.4398681953492 545.2784183441905 323.7199340976746V30.397858174424655Q545.2784183441905 -0.6812191930198104 536.3986819534921 -24.160626072091254Q527.5189455627936 -47.640032951162695 499.2397034395357 -62.05971991511707Q470.96046131627776 -76.47940687907145 410.76194411859916 -82.55930802558335Q407.40197706976187 -62.56013180465079 401.0420100209245 -47.6206754988353Q394.68204297208723 -32.681219193019814 381.16227363022614 -22.721581655809484Q366.3624383860396 -12.121911167436462 341.68245486162095 -4.602141825575345Q317.00247133720234 2.9176275162857728 272.9629326534801 9.077429809309589V23.63756161396038Q272.9629326534801 23.63756161396038 287.04283379999197 22.63756161396038Q301.1227349465039 21.63756161396038 322.9225701906904 20.457578089541727Q344.7224054348769 19.277594565123074 368.02224067906343 17.777594565123074Q391.32207592324994 16.277594565123074 410.0819605941805 15.277594565123074Q428.8418452651111 14.277594565123074 436.2018123139484 14.277594565123074Q451.40197706976187 14.277594565123074 456.5420100209245 18.917627516285773Q461.68204297208723 23.55766046744847 461.68204297208723 35.47775932093656ZM158.7199340976746 626.7998352441865H881.7611203395318V597.5197693418611H158.7199340976746ZM141.8401977069762 694.878912611631 158.32042836511508 695.878912611631Q181.23970343953573 633.279242123258 179.83937392790875 585.139621061629Q178.43904441628177 537 162.07907736744448 505.26029656046427Q145.71911031860716 473.52059312092854 123.75947278139684 458.16062607209125Q102.71993409767461 443.0807249255794 78.58031303604562 443.62026360930156Q54.44069197441665 444.1598022930238 45.360790827904744 463.99917622093255Q37.280889681392836 483.1985171976786 46.38056016976586 499.4781712104703Q55.480230658138886 515.757825223262 72.87973639069843 525.5576604674485Q103.71993409767461 545.1177922720992 125.82001647558135 591.658154734889Q147.9200988534881 638.1985171976786 141.8401977069762 694.878912611631ZM837.2026360930158 626.7998352441865H826.2026360930158L877.6013180465079 678.1985171976786L967.9991762209326 591.9604613162778Q962.6392091720952 585.6004942674405 953.4991762209326 583.5605436941845Q944.3591432697699 581.5205931209285 928.6392091720952 580.5205931209285Q911.679571634885 563.6004942674405 886.1799835244187 543.5803130360457Q860.6803954139524 523.5601318046508 833.1808073034861 505.03995057325596Q805.6812191930198 486.5197693418611 781.7215816558095 472.67957163488495L770.9612850953453 480.23970343953573Q782.8014828023214 499.9596375372103 795.421746411623 526.599670488373Q808.0420100209245 553.2397034395357 819.3422571546448 580.1997528662798Q830.642504288365 607.1598022930239 837.2026360930158 626.7998352441865ZM201.64085673023013 826.7191103186071Q257.87973639069844 809.0387149046547 291.31919269651394 785.0387149046547Q324.7586490023294 761.0387149046547 339.8385501488413 736.5189455627936Q354.91845129535324 711.9991762209326 355.07866547791076 690.5794892569781Q355.2388796604683 669.1598022930239 344.69934097674604 655.5Q334.1598022930238 641.8401977069761 317.360378938371 639.7001647558135Q300.5609555837182 637.5601318046508 281.08154870464676 652.599670488373Q276.8014828023214 680.7594727813969 262.6013180465079 711.3393739279088Q248.40115329069442 741.9192750744206 229.38097205929958 770.3191926965139Q210.36079082790474 798.7191103186071 191.08072492557935 819.7990114651191ZM426.52059312092854 842.5593080255834Q481.03953868372224 821.0790773674445 511.7590608918631 794.7191103186071Q542.478583100004 768.3591432697699 554.478583100004 742.5193574523274Q566.478583100004 716.679571634885 564.2388796604682 694.8397858174425Q561.9991762209326 673 549.9196869639543 659.9200988534881Q537.8401977069761 646.8401977069761 520.0407743523234 646.460049426744Q502.2413509976706 646.0799011465119 483.48187821627374 662.8393739279087Q483.2018123139484 692.279242123258 472.90156518022815 723.5992585988392Q462.6013180465079 754.9192750744206 447.34102148604364 784.4192750744206Q432.0807249255794 813.9192750744206 415.32042836511505 835.9991762209326ZM732.5222406790634 839.9991762209326 849.4390444162817 797.9604613162778Q845.4390444162817 789.320428365115 836.2590608918631 784.6404448406964Q827.0790773674445 779.9604613162778 810.0790773674445 781.320428365115Q778.1194398302341 741.5601318046508 729.0197693418611 693.7598846709307Q679.9200988534881 645.9596375372104 629.6803954139524 609.1194398302341H606.320428365115Q629.0807249255794 641.199340976746 652.4810544372064 681.4192750744206Q675.8813839488333 721.6392091720952 696.9616969848789 763.4991762209326Q718.0420100209245 805.3591432697699 732.5222406790634 839.9991762209326ZM660.0420100209245 487.599670488373H648.0420100209245L698.6004942674405 535.078253588377L782.7981876860516 454.32042836511505Q777.4382206372143 448.60049426744047 767.9781712104702 446.7405272186032Q758.5181217837262 444.8805601697659 741.5181217837262 443.52059312092854Q714.1985171976786 424.96046131627776 674.0588961360496 403.0803130360456Q633.9192750744206 381.2001647558135 591.3595551593036 361.46004942674404Q548.7998352441865 341.7199340976746 513.9200988534881 327.1598022930238L503.1598022930238 336.3599670488373Q527.9200988534881 355.7998352441865 558.3805601697659 382.8397858174425Q588.8410214860436 409.87973639069844 616.3414333755773 438.23970343953573Q643.841845265111 466.599670488373 660.0420100209245 487.599670488373Z" fill="#173F42" transform="translate(518.450 121.000) scale(0.038000 -0.038000)"/>
  <path d="M790.6820429720873 741.7998352441865 839.6803954139524 794.9983524418651 928.558484246516 716.7602965604643Q922.558484246516 710.400329511627 912.01853367326 706.0004118895338Q901.478583100004 701.6004942674405 883.7586490023294 699.8805601697659Q879.0387149046547 549.2018123139484 871.6787478558174 426.26194411859916Q864.3187808069802 303.32207592324994 853.5988467093056 210.5016475581349Q842.878912611631 117.68121919301981 826.9390444162818 57.58072492557935Q810.9991762209326 -2.519769341861117 789.1194398302341 -27.23970343953572Q762.7998352441865 -56.75947278139684 729.3401977069761 -69.97940687907143Q695.8805601697659 -83.19934097674604 650.6013180465079 -83.19934097674604Q650.6013180465079 -62.480230658138886 646.3813839488333 -46.22075787674204Q642.1614498511587 -29.961285095345204 631.0815487046468 -20.08154870464679Q617.7215816558095 -8.481878216273763 585.7413509976707 1.2178746500060047Q553.7611203395318 10.917627516285773 517.6013180465079 17.357495711634982L518.8813839488333 34.117792272099265Q545.1614498511587 31.477759320936563 577.0415981313909 28.517709894192517Q608.921746411623 25.55766046744847 636.341845265111 23.277594565123074Q663.7619441185991 20.99752866279768 676.4818782162738 20.99752866279768Q693.6820429720873 20.99752866279768 702.2219935453431 24.67751218721633Q710.7619441185991 28.357495711634982 720.7619441185991 37.277594565123074Q738.7619441185991 53.55766046744847 752.4019770697619 112.33813825930758Q766.0420100209245 171.1186160511667 775.5420100209245 264.1791597453512Q785.0420100209245 357.23970343953573 791.5420100209245 478.35996704883735Q798.0420100209245 599.4802306581389 802.4019770697619 741.7998352441865ZM193.9612850953452 631.9604613162778Q295.96046131627776 617.0387149046547 366.25988467093055 592.6779240767501Q436.55930802558333 568.3171332488453 479.6589785139564 540.2570014441944Q522.7586490023294 512.1968696395437 542.978583100004 484.95716620000803Q563.1985171976786 457.7174627604723 563.6787478558175 436.31795702791277Q564.1589785139564 414.91845129535324 549.0794892569781 404.2388796604683Q534 393.55930802558333 508.00082377906745 399.1194398302341Q483.4011532906944 426.1194398302341 445.3212521441825 456.71952220814086Q407.2413509976706 487.3196045860476 362.1013180465079 517.6997528662798Q316.9612850953452 548.0799011465119 271.18121919301984 574.7800659023254Q225.40115329069442 601.4802306581389 185.76112033953171 620.0403624627896ZM102.92092263255553 183.19769341861118Q147.08072492557935 192.91762751628576 221.9205107430218 213.87767694302983Q296.76029656046427 234.83772636977386 392.92009885348807 263.6177922720992Q489.07990114651193 292.39785817442464 598.6997528662798 326.17792407675006Q708.3196045860476 359.9579899790754 822.0395386837222 396.23805588140084L826.9596375372104 379.757825223262Q714.2784183441905 327.2784183441905 555.7780064546569 257.61902794070045Q397.2775945651231 187.9596375372103 179.55848424651592 104.36079082790474Q176.8385501488413 95.00082377906745 170.47858310000402 88.00082377906745Q164.1186160511667 81.00082377906745 156.6787478558175 77.64085673023014ZM835.6820429720873 741.7998352441865V712.5197693418611H120.24052721860316L111.24052721860316 741.7998352441865Z" fill="#173F42" transform="translate(556.750 121.000) scale(0.038000 -0.038000)"/>
  <path d="M824.8023065813888 680 874.0411862418571 729.5988467093056 962.5593080255834 645.2405272186031Q956.5593080255834 640.1606260720913 947.739291550002 638.300659023254Q938.9192750744206 636.4406919744166 923.5593080255834 635.4406919744166Q903.2397034395357 608.800659023254 868.8401977069761 576.8406095965099Q834.4406919744166 544.8805601697659 804.7611203395318 522.9604613162778L793.6408567302301 530.2405272186031Q801.4810544372064 551.6803954139524 809.4213345220892 579.0803130360457Q817.3616146069721 606.4802306581389 824.9818782162738 633.7001647558135Q832.6021418255754 660.9200988534881 835.8023065813888 680ZM169.3599670488373 734.679571634885Q188.03953868372224 677.7998352441865 185.5992585988393 634.2001647558135Q183.15897851395638 590.6004942674405 167.33896203837503 561.8607908279048Q151.51894556279368 533.121087388369 129.63920917209526 519.0411862418571Q115.75947278139684 509.9612850953452 98.25988467093056 508.121087388369Q80.76029656046428 506.28088968139286 66.30065902325396 512.9604613162778Q51.84102148604363 519.6400329511627 45.12108738836902 535.1194398302341Q38.32125214418251 556.478583100004 49.18080730348609 574.0580723569822Q60.04036246278967 591.6375616139604 79.51976934186112 601.4373968581469Q98.71993409767461 611.9975286627977 116.71993409767461 631.757825223262Q134.7199340976746 651.5181217837262 145.2998352441865 678.1585666244226Q155.8797363906984 704.7990114651191 153.59967048837302 734.0395386837222ZM862.2009885348809 680V650.7199340976746H158.1598022930238V680ZM429.6416805092976 841.7594727813969Q486.2001647558135 833.9588137581429 518.9794068790715 816.3587313802361Q551.7586490023294 798.7586490023294 565.4184512953532 777.1989290872123Q579.078253588377 755.6392091720952 577.8785007220972 735.8196045860476Q576.6787478558175 716 564.739291550002 702.5803130360457Q552.7998352441865 689.1606260720913 534.2005766453472 687.3406095965099Q515.6013180465079 685.5205931209285 494.32207592324994 700.6400329511627Q490.8418452651111 736.2397034395357 469.04159813139086 773.9995881104662Q447.2413509976706 811.7594727813969 420.1614498511587 834.8393739279087ZM180.88056016976586 452.3599670488373Q245.51976934186112 442.83937392790875 285.47940687907146 424.4192750744206Q325.4390444162818 405.99917622093255 345.5790773674445 384.1593904034901Q365.71911031860714 362.3196045860476 369.6194398302341 341.7199340976746Q373.5197693418611 321.12026360930156 365.12026360930156 306.4205107430218Q356.720757876742 291.720757876742 339.56136747325195 287.4007414011607Q322.40197706976187 283.0807249255794 300.5626031418531 295.12026360930156Q290.4423395325515 320.6400329511627 268.80189469185507 348.35996704883735Q247.1614498511587 376.07990114651193 221.48105443720632 401.25988467093055Q195.80065902325396 426.4398681953492 172.32042836511508 444.1598022930238ZM259.36079082790474 603.279242123258Q319.2800659023254 594.0387149046547 356.5197693418611 577.2586490023293Q393.7594727813968 560.478583100004 412.2195222081409 539.9987643313989Q430.67957163488495 519.5189455627936 433.7998352441865 500.5992585988393Q436.92009885348807 481.67957163488495 428.3805601697659 468.3397858174425Q419.84102148604364 455 403.90156518022815 451.5Q387.96210887441265 448 367.2026360930158 458.67957163488495Q357.4423395325515 481.19934097674604 337.2619441185991 506.4192750744206Q317.08154870464676 531.6392091720952 293.86120271743846 554.9991762209326Q270.64085673023015 578.3591432697699 249.80065902325396 594.7191103186071ZM502.39950573255953 180.9596375372103Q604.0387149046547 162.99917622093255 675.1783359662837 138.07907736744446Q746.3179570279127 113.15897851395637 791.6779240767501 86.03912679418852Q837.0378911255874 58.91927507442065 861.0181217837262 32.17957163488493Q884.9983524418651 5.439868195349209 891.4987643313989 -16.979818768605163Q897.9991762209326 -39.39950573255953 891.3797363906984 -54.55930802558335Q884.7602965604643 -69.71911031860716 868.9608732058116 -73.89909384302581Q853.1614498511587 -78.07907736744447 832.7619441185991 -67.47940687907145Q809.2817134604603 -35.19934097674605 761.561367473252 6.100494267440464Q713.8410214860436 47.40032951162698 647.0605436941845 89.6400329511627Q580.2800659023254 131.8797363906984 497.47940687907146 166.47940687907143ZM622.3179570279127 606.1194398302341Q621.3179570279127 595.7594727813969 613.2780064546569 588.7594727813969Q605.2380558814009 581.7594727813969 587.5980229302381 579.3995057325595Q586.2380558814009 495.67957163488495 582.6981053081449 421.9196869639544Q579.158154734889 348.1598022930238 565.078253588377 284.39991762209326Q550.9983524418651 220.6400329511627 518.6985171976786 165.88014828023213Q486.3986819534921 111.12026360930157 427.33896203837503 65.54036246278967Q368.279242123258 19.960461316277765 274.9196869639544 -16.759472781396838Q181.56013180465078 -53.47940687907144 44.72075787674204 -82.83937392790875L36.80065902325395 -65.35914326976986Q157.92092263255554 -32.039538683722235 239.621087388369 8.20016475581349Q321.3212521441825 48.43986819534921 372.06136747325195 95.27965401279168Q422.8014828023214 142.11943983023414 449.7215816558095 197.739291550002Q476.6416805092976 253.35914326976987 487.2817134604603 317.8990938430258Q497.92174641162296 382.4390444162818 499.24176288720435 457.2590608918631Q500.56177936278567 532.0790773674445 500.56177936278567 617.9991762209326ZM846.1614498511587 326.59802293023813Q846.1614498511587 326.59802293023813 856.3212521441826 318.2981876860516Q866.4810544372064 309.9983524418651 882.4007414011608 296.93863252674805Q898.320428365115 283.878912611631 915.6000823779068 268.9592256476766Q932.8797363906984 254.03953868372224 947.3995057325595 240.51976934186112Q944.0395386837222 224.51976934186112 919.9596375372104 224.51976934186112H73.60049426744047L64.96046131627777 253.7998352441865H790.9225701906904Z" fill="#173F42" transform="translate(595.050 121.000) scale(0.038000 -0.038000)"/>
  <path d="M875.3212521441825 50.87891261163098Q875.3212521441825 50.87891261163098 884.161037961625 44.07907736744447Q893.0008237790674 37.27924212325796 907.1004942674405 26.07948925697819Q921.2001647558135 14.879736390698419 936.1598022930239 1.8200164755813484Q951.1194398302341 -11.239703439535722 963.3591432697699 -22.759472781396838Q959.3591432697699 -38.75947278139684 937.5593080255834 -38.75947278139684H371.2800659023254L363.2800659023254 -9.479406879071444H828.0024713372023ZM585.3212521441825 389.7199340976746Q628.1202636093016 344.599670488373 652.6997528662798 302.05971991511706Q677.279242123258 259.5197693418611 686.5391267941885 222.39991762209326Q695.7990114651191 185.2800659023254 693.8191926965139 157.62026360930156Q691.8393739279087 129.96046131627776 681.5597199151171 113.74052721860315Q671.2800659023254 97.52059312092855 656.0605436941845 96.60049426744047Q640.8410214860436 95.68039541395237 624.1614498511587 112.71993409767461Q625.521416899996 155.7998352441865 617.4213345220892 204.75988467093055Q609.3212521441825 253.7199340976746 596.5411862418571 300.6799835244187Q583.7611203395318 347.6400329511627 570.121087388369 385.7199340976746ZM912.4777593209366 357.76029656046427Q909.1177922720992 349.6803954139524 900.0778416988433 343.5403624627897Q891.0378911255874 337.400329511627 874.0378911255874 337.76029656046427Q852.4382206372143 275.0807249255794 826.2985995755853 209.68080730348612Q800.1589785139564 144.28088968139284 771.2594727813969 83.68080730348609Q742.3599670488373 23.080724925579347 711.800659023254 -26.839373927908746L696.2405272186031 -19.839373927908746Q712.320428365115 34.24052721860316 730.0004118895338 104.58031303604562Q747.6803954139524 174.9200988534881 765.1404448406964 250.2998352441865Q782.6004942674405 325.67957163488495 795.5205931209285 394.279242123258ZM443.720757876742 359.8805601697659Q488.07990114651193 314.400329511627 513.0794892569781 271.22034598720836Q538.0790773674445 228.0403624627897 548.1190279407004 190.74052721860318Q558.1589785139564 153.44069197441664 556.3191926965139 125.14085673023013Q554.4794068790715 96.84102148604363 544.1598022930239 80.94110386395037Q533.8401977069761 65.04118624185712 518.4806425476726 64.16103796162497Q503.121087388369 63.280889681392836 486.4415157534841 80.32042836511506Q487.521416899996 123.40032951162698 479.0012356686011 172.50041188953372Q470.4810544372063 221.60049426744047 456.78088968139286 269.3805601697659Q443.0807249255794 317.16062607209125 428.52059312092854 355.2405272186032ZM746.7619441185991 510.4390444162818Q746.7619441185991 510.4390444162818 759.4616969848789 500.279242123258Q772.1614498511587 490.1194398302341 789.2611203395318 475.41968696395435Q806.3607908279048 460.7199340976746 820.2405272186031 446.5601318046508Q818.5205931209285 430.5601318046508 795.1606260720913 430.5601318046508H464.5601318046508L456.5601318046508 459.8401977069762H706.7627678976665ZM664.5593080255834 796.0807249255794Q689.6392091720952 732.6004942674405 737.3191926965139 676.3599670488372Q784.9991762209326 620.1194398302341 844.5992585988392 576.7788302337242Q904.199340976746 533.4382206372143 963.3995057325595 506.1177922720993L961.3995057325595 493.67792407675006Q937.400329511627 487.0387149046548 920.9406919744167 473.03953868372224Q904.4810544372064 459.0403624627897 899.4810544372064 437.4011532906944Q843.0008237790674 474.4810544372063 794.1404448406964 528.5609555837182Q745.2800659023254 582.6408567302301 707.4196869639544 648.3607908279048Q669.5593080255834 714.0807249255794 645.3591432697699 785.0807249255794ZM671.3187808069802 793.6004942674405Q640.9588137581429 734.800659023254 595.1589785139564 670.0807249255794Q549.3591432697699 605.3607908279048 490.83937392790875 546.5407743523234Q432.3196045860476 487.720757876742 363.07990114651193 445.0807249255794L352.5197693418611 455.64085673023015Q393.3599670488373 493.16062607209125 431.1602141825575 541.1803954139524Q468.96046131627776 589.2001647558135 500.90074140116064 642.039950573256Q532.8410214860436 694.8797363906984 556.9612850953451 746.9596375372103Q581.0815487046468 799.0395386837222 595.5617793627857 844.0395386837222L712.1186160511667 812.7602965604643Q709.1186160511667 804.6803954139524 700.5786654779107 799.820428365115Q692.0387149046547 794.9604613162778 671.3187808069802 793.6004942674405ZM280.6803954139524 764.9200988534881 314.5197693418611 806.279242123258 399.1581547348889 740.1202636093016Q394.1581547348889 733.7602965604643 382.37808883256355 729.5403624627897Q370.59802293023813 725.320428365115 355.23805588140084 723.320428365115Q353.23805588140084 681.0403624627896 349.37808883256355 618.8002471337202Q345.51812178372626 556.5601318046508 340.65815473488897 490.21993409767464Q335.7981876860516 423.87973639069844 329.7981876860516 368.03953868372224Q317.1985171976786 360.87973639069844 300.0790773674445 358.8397858174425Q282.9596375372103 356.7998352441865 257.0403624627897 360.5197693418611Q265.400329511627 425.7998352441865 272.22034598720836 500.57990114651193Q279.0403624627897 575.3599670488373 283.5403624627897 645.3200164755814Q288.0403624627897 715.2800659023254 290.0403624627897 764.9200988534881ZM33.88056016976586 174.23887966046829Q55.88056016976586 178.51894556279368 94.74052721860316 187.3990938430258Q133.60049426744047 196.27924212325794 181.82042836511508 208.6194398302341Q230.0403624627897 220.9596375372103 280.400329511627 234.43986819534922L283.6803954139524 221.59967048837302Q253.56013180465078 201.3599670488373 208.43986819534922 171.14044484069643Q163.31960458604763 140.92092263255554 101.75947278139684 103.72158165580949Q95.95963753721033 84.92174641162298 79.51976934186112 78.64168050929757ZM332.7594727813968 764.9200988534881V735.6400329511627H70.68039541395237L61.68039541395237 764.9200988534881ZM222.07907736744446 634.4398681953492Q218.79901146511907 625.0799011465119 208.79901146511907 618.2199340976747Q198.79901146511907 611.3599670488373 175.79901146511907 613.6400329511627L186.07907736744446 631.4398681953492Q184.43904441628177 606.1598022930239 181.15897851395638 570.1598022930239Q177.878912611631 534.1598022930239 173.77883023372425 493.7998352441865Q169.6787478558175 453.4398681953492 165.21869842907347 415.89991762209326Q160.7586490023294 378.3599670488373 156.47858310000402 349.7199340976746H165.1186160511667L132.51894556279368 313.80065902325396L57.960461316277765 367.76029656046427Q68.96046131627777 374.8401977069762 84.14044484069642 382.2800659023254Q99.32042836511506 389.7199340976746 111.40032951162698 393.4398681953492L90.80065902325396 356.7199340976746Q95.44069197441665 383.07990114651193 100.4007414011607 422.2998352441865Q105.36079082790474 461.5197693418611 109.64085673023013 505.23970343953573Q113.92092263255553 548.9596375372104 117.34102148604362 589.4596375372104Q120.76112033953171 629.9596375372104 121.40115329069441 657.5197693418611ZM306.04118624185713 378 345.2001647558135 419.99917622093255 422.2388796604683 355.400329511627Q411.878912611631 343.6803954139524 382.878912611631 340.32042836511505Q379.878912611631 250.28088968139284 373.91886318488696 183.38097205929958Q367.95881375814287 116.48105443720632 359.13879728256154 70.24093910813689Q350.3187808069802 24.00082377906744 338.13879728256154 -5.199340976746047Q325.95881375814287 -34.39950573255953 310.5189455627937 -48.75947278139684Q292.35914326976985 -65.47940687907145 267.55930802558333 -73.65939040349011Q242.75947278139685 -81.83937392790875 215.43986819534922 -81.83937392790875Q215.43986819534922 -66.4398681953492 212.61985171976787 -53.66021418255753Q209.7998352441865 -40.88056016976586 201.1598022930238 -33.08072492557935Q193.1598022930238 -25.560955583718233 175.17957163488492 -19.301070912787672Q157.19934097674604 -13.041186241857114 136.19934097674604 -9.321252144182509L136.83937392790875 7.87891261163098Q151.03953868372224 6.87891261163098 169.51976934186112 5.238879660468283Q188 3.598846709305585 205.02018123139484 2.4588137581428873Q222.0403624627897 1.3187808069801896 230.68039541395237 1.3187808069801896Q252.88056016976586 1.3187808069801896 263.16062607209125 10.958813758142886Q276.44069197441667 23.23887966046828 286.8607908279048 66.49917622093255Q297.28088968139286 109.75947278139684 305.0210050104623 187.19975286627977Q312.7611203395317 264.6400329511627 316.4011532906944 378ZM365.32042836511505 378V348.7199340976746H119.75947278139684V378Z" fill="#173F42" transform="translate(633.350 121.000) scale(0.038000 -0.038000)"/>
</svg>
