<svg xmlns="http://www.w3.org/2000/svg" viewBox="0 0 960 140" role="img" aria-labelledby="title">
  <title id="title">How Local Skills Take Part</title>
  <metadata>Lettering derived from Bona Nova, licensed under SIL Open Font License 1.1.</metadata>
  <path d="M63 0V23Q92 25 105.0 38.0Q118 51 118 100V565Q118 614 103.5 627.5Q89 641 48 642V665H333V642Q304 641 291.0 627.5Q278 614 278 565V100Q278 51 293.0 38.0Q308 25 348 23V0Z" fill="#80683D" transform="translate(464.738 22.000) scale(0.023000 -0.023000)"/>
  <path d="M63 0V23Q92 25 105.0 38.0Q118 51 118 100V565Q118 614 103.5 627.5Q89 641 48 642V665H333V642Q304 641 291.0 627.5Q278 614 278 565V100Q278 51 293.0 38.0Q308 25 348 23V0Z" fill="#80683D" transform="translate(475.446 22.000) scale(0.023000 -0.023000)"/>
  <path d="M63 0V23Q92 25 105.0 38.0Q118 51 118 100V565Q118 614 103.5 627.5Q89 641 48 642V665H333V642Q304 641 291.0 627.5Q278 614 278 565V100Q278 51 293.0 38.0Q308 25 348 23V0Z" fill="#80683D" transform="translate(486.154 22.000) scale(0.023000 -0.023000)"/>
  <path d="M81.3 38 H333.3 C370.7 38 388 42.2 410.7 47.8 C432 53.1 454 50.6 469.3 42.9 C451.3 43.6 442 48.5 447.3 53.4 C455.3 60.1 480 55.9 494.7 46.1 C513.3 33.8 539.3 38 566.7 38 H878.7" fill="none" stroke="#80683D" stroke-width="2.4" stroke-linecap="square"/>
  <path d="M102.7 42.9 H328.7 C365.3 42.9 384.7 46.8 406.7 51.7" fill="none" stroke="#5A3037" stroke-width="1.4"/>
  <path d="M857.3 42.9 H582 C546.7 42.9 526.7 46.8 504.7 51.7" fill="none" stroke="#5A3037" stroke-width="1.4"/>
  <path d="M58 0V23Q87 25 100.0 38.0Q113 51 113 100V565Q113 614 98.5 627.5Q84 641 43 642V665H328V642Q299 641 286.0 627.5Q273 614 273 565V388Q281 394 292.5 396.0Q304 398 320 398H509Q536 398 547.0 407.0Q558 416 558 443V565Q558 614 543.5 627.5Q529 641 488 642V665H773V642Q744 641 731.0 627.5Q718 614 718 565V100Q718 51 733.0 38.0Q748 25 788 23V0H503V23Q532 25 545.0 38.0Q558 51 558 100V366Q550 359 538.0 357.0Q526 355 511 355H322Q295 355 284.0 346.0Q273 337 273 311V100Q273 51 288.0 38.0Q303 25 343 23V0Z" fill="#173F42" transform="translate(174.827 105.000) scale(0.049000 -0.049000)"/>
  <path d="M292 475Q365 475 420.5 445.5Q476 416 508.0 362.0Q540 308 540 236Q540 157 503.0 101.0Q466 45 406.5 15.0Q347 -15 278 -15Q206 -15 150.0 15.0Q94 45 62.0 98.5Q30 152 30 224Q30 303 67.0 359.0Q104 415 163.5 445.0Q223 475 292 475ZM295 28Q332 28 356.0 70.0Q380 112 380 200Q380 264 367.0 316.5Q354 369 330.5 400.5Q307 432 275 432Q238 432 214.0 390.0Q190 348 190 260Q190 196 203.0 143.5Q216 91 240.0 59.5Q264 28 295 28Z" fill="#173F42" transform="translate(215.646 105.000) scale(0.049000 -0.049000)"/>
  <path d="M205 -10Q197 16 190.0 35.5Q183 55 172 79L51 360Q37 394 28.0 409.5Q19 425 11.0 430.5Q3 436 -11 437V460H230V437Q210 436 204.5 424.0Q199 412 202.5 395.0Q206 378 213 360L285 190H287L352 339L343 360Q330 394 321.0 409.5Q312 425 305.5 430.5Q299 436 290 437V460H527V437Q502 436 494.5 424.0Q487 412 490.0 395.0Q493 378 500 360L568 190H570L632 360Q639 378 639.0 395.0Q639 412 627.5 424.0Q616 436 587 437V460H750V437Q727 435 711.0 411.0Q695 387 684 360L576 79Q566 52 560.5 34.0Q555 16 549 -10H492Q485 16 476.0 35.5Q467 55 457 79L377 276L291 79Q279 52 273.5 34.0Q268 16 262 -10Z" fill="#173F42" transform="translate(243.676 105.000) scale(0.049000 -0.049000)"/>
  <path d="M58 0V23Q87 25 100.0 38.0Q113 51 113 100V565Q113 614 98.5 627.5Q84 641 43 642V665H328V642Q299 641 286.0 627.5Q273 614 273 565V100Q273 65 288.5 54.0Q304 43 349 43H414Q459 43 485.0 59.5Q511 76 523.0 104.0Q535 132 538 165H561L553 0Z" fill="#173F42" transform="translate(293.562 105.000) scale(0.049000 -0.049000)"/>
  <path d="M292 475Q365 475 420.5 445.5Q476 416 508.0 362.0Q540 308 540 236Q540 157 503.0 101.0Q466 45 406.5 15.0Q347 -15 278 -15Q206 -15 150.0 15.0Q94 45 62.0 98.5Q30 152 30 224Q30 303 67.0 359.0Q104 415 163.5 445.0Q223 475 292 475ZM295 28Q332 28 356.0 70.0Q380 112 380 200Q380 264 367.0 316.5Q354 369 330.5 400.5Q307 432 275 432Q238 432 214.0 390.0Q190 348 190 260Q190 196 203.0 143.5Q216 91 240.0 59.5Q264 28 295 28Z" fill="#173F42" transform="translate(321.935 105.000) scale(0.049000 -0.049000)"/>
  <path d="M255 -15Q190 -15 139.0 14.0Q88 43 59.0 96.0Q30 149 30 222Q30 287 54.5 334.5Q79 382 118.5 413.0Q158 444 205.5 459.5Q253 475 299 475Q334 475 375.0 467.5Q416 460 440 443V290H417Q404 366 368.5 399.0Q333 432 294 432Q249 432 219.5 387.5Q190 343 190 266Q190 206 208.0 169.5Q226 133 255.5 116.5Q285 100 320 100Q343 100 377.0 110.5Q411 121 441 149L457 133Q431 70 384.0 27.5Q337 -15 255 -15Z" fill="#173F42" transform="translate(349.966 105.000) scale(0.049000 -0.049000)"/>
  <path d="M146 -15Q91 -15 64.5 18.0Q38 51 38 94Q38 160 98.5 201.0Q159 242 286 276V329Q286 376 266.5 396.5Q247 417 212 417Q164 417 132.5 381.0Q101 345 89 284H66V428Q100 445 154.5 460.0Q209 475 273 475Q446 475 446 341V123Q446 100 452.0 87.5Q458 75 476 75Q486 75 498.5 79.5Q511 84 525 97L541 81Q519 35 483.0 12.5Q447 -10 401 -10Q352 -10 325.5 9.5Q299 29 288 66H286Q263 26 225.0 5.5Q187 -15 146 -15ZM224 75Q244 75 259.5 84.5Q275 94 286 106V236Q240 223 216.5 202.0Q193 181 185.5 160.0Q178 139 178 125Q178 104 190.0 89.5Q202 75 224 75Z" fill="#173F42" transform="translate(373.634 105.000) scale(0.049000 -0.049000)"/>
  <path d="M232 110Q232 73 237.0 54.5Q242 36 255.0 30.0Q268 24 292 23V0H37V23Q54 24 64.0 30.0Q74 36 78.0 54.5Q82 73 82 110V649Q82 664 76.5 669.0Q71 674 60 674Q52 674 42.5 672.0Q33 670 22 666L12 689L230 790L236 784Q235 769 233.5 737.5Q232 706 232 658Z" fill="#173F42" transform="translate(399.901 105.000) scale(0.049000 -0.049000)"/>
  <path d="M276 -15Q225 -15 176.0 -2.5Q127 10 95.0 40.0Q63 70 63 120Q63 139 70.0 165.5Q77 192 98 220H121Q123 172 141.0 128.5Q159 85 194.0 57.5Q229 30 281 30Q322 30 346.0 46.5Q370 63 381.0 87.0Q392 111 392 135Q392 174 369.0 201.0Q346 228 310.5 249.0Q275 270 234.5 291.0Q194 312 158.0 337.5Q122 363 99.5 399.5Q77 436 77 489Q77 579 146.5 629.5Q216 680 331 680Q382 680 428.5 671.5Q475 663 503 653V495H480Q464 550 439.5 580.0Q415 610 385.5 622.5Q356 635 325 635Q287 635 264.5 621.5Q242 608 232.0 588.5Q222 569 222 549Q222 516 244.5 491.5Q267 467 303.0 447.0Q339 427 379.5 405.0Q420 383 455.5 355.0Q491 327 514.0 287.5Q537 248 537 191Q537 124 503.0 78.0Q469 32 410.0 8.5Q351 -15 276 -15Z" fill="#173F42" transform="translate(428.765 105.000) scale(0.049000 -0.049000)"/>
  <path d="M232 110Q232 73 235.5 54.5Q239 36 249.0 30.0Q259 24 277 23V0H37V23Q54 24 64.0 30.0Q74 36 78.0 54.5Q82 73 82 110V649Q82 664 76.5 669.0Q71 674 60 674Q52 674 42.5 672.0Q33 670 22 666L12 689L230 790L236 784Q235 769 233.5 737.5Q232 706 232 658V231H234L360 361Q374 375 381.0 384.5Q388 394 388 404Q388 413 380.5 424.0Q373 435 343 437V460H545V437Q515 435 490.0 419.0Q465 403 446 384L388 324L501 103Q525 56 542.5 39.5Q560 23 577 23V0Q544 -15 498 -15Q447 -15 410.5 6.0Q374 27 356 62L279 212L232 164Z" fill="#173F42" transform="translate(457.923 105.000) scale(0.049000 -0.049000)"/>
  <path d="M233 110Q233 73 238.0 54.5Q243 36 256.0 30.0Q269 24 293 23V0H38V23Q55 24 65.0 30.0Q75 36 79.0 54.5Q83 73 83 110V340Q83 355 77.5 360.0Q72 365 61 365Q53 365 43.5 363.0Q34 361 23 357L13 380L231 481L237 475Q236 460 234.5 428.5Q233 397 233 349ZM163 530Q126 530 101.0 555.5Q76 581 76 616Q76 651 101.0 677.0Q126 703 163 703Q199 703 224.0 677.0Q249 651 249 616Q249 581 224.0 555.5Q199 530 163 530Z" fill="#173F42" transform="translate(486.541 105.000) scale(0.049000 -0.049000)"/>
  <path d="M232 110Q232 73 237.0 54.5Q242 36 255.0 30.0Q268 24 292 23V0H37V23Q54 24 64.0 30.0Q74 36 78.0 54.5Q82 73 82 110V649Q82 664 76.5 669.0Q71 674 60 674Q52 674 42.5 672.0Q33 670 22 666L12 689L230 790L236 784Q235 769 233.5 737.5Q232 706 232 658Z" fill="#173F42" transform="translate(502.125 105.000) scale(0.049000 -0.049000)"/>
  <path d="M232 110Q232 73 237.0 54.5Q242 36 255.0 30.0Q268 24 292 23V0H37V23Q54 24 64.0 30.0Q74 36 78.0 54.5Q82 73 82 110V649Q82 664 76.5 669.0Q71 674 60 674Q52 674 42.5 672.0Q33 670 22 666L12 689L230 790L236 784Q235 769 233.5 737.5Q232 706 232 658Z" fill="#173F42" transform="translate(517.659 105.000) scale(0.049000 -0.049000)"/>
  <path d="M202 -15Q126 -15 79.5 12.0Q33 39 33 88Q33 107 41.0 128.5Q49 150 70 170H93Q98 131 109.5 98.5Q121 66 144.5 47.0Q168 28 208 28Q240 28 261.5 42.5Q283 57 283 86Q283 113 265.5 131.0Q248 149 221.0 163.5Q194 178 163.0 192.0Q132 206 105.0 224.5Q78 243 60.5 269.0Q43 295 43 334Q43 399 95.5 437.0Q148 475 238 475Q272 475 312.5 469.0Q353 463 378 448V315H356Q349 366 318.0 399.0Q287 432 238 432Q205 432 189.0 417.5Q173 403 173 384Q173 362 190.5 346.5Q208 331 235.0 317.5Q262 304 292.5 289.0Q323 274 350.0 254.0Q377 234 394.5 205.5Q412 177 412 136Q412 87 385.0 53.5Q358 20 310.5 2.5Q263 -15 202 -15Z" fill="#173F42" transform="translate(533.195 105.000) scale(0.049000 -0.049000)"/>
  <path d="M33 665H603V500H580Q574 554 548.0 588.0Q522 622 459 622H398V100Q398 51 413.0 38.0Q428 25 468 23V0H183V23Q212 25 225.0 38.0Q238 51 238 100V622H176Q115 622 88.5 588.0Q62 554 56 500H33Z" fill="#173F42" transform="translate(568.185 105.000) scale(0.049000 -0.049000)"/>
  <path d="M146 -15Q91 -15 64.5 18.0Q38 51 38 94Q38 160 98.5 201.0Q159 242 286 276V329Q286 376 266.5 396.5Q247 417 212 417Q164 417 132.5 381.0Q101 345 89 284H66V428Q100 445 154.5 460.0Q209 475 273 475Q446 475 446 341V123Q446 100 452.0 87.5Q458 75 476 75Q486 75 498.5 79.5Q511 84 525 97L541 81Q519 35 483.0 12.5Q447 -10 401 -10Q352 -10 325.5 9.5Q299 29 288 66H286Q263 26 225.0 5.5Q187 -15 146 -15ZM224 75Q244 75 259.5 84.5Q275 94 286 106V236Q240 223 216.5 202.0Q193 181 185.5 160.0Q178 139 178 125Q178 104 190.0 89.5Q202 75 224 75Z" fill="#173F42" transform="translate(596.018 105.000) scale(0.049000 -0.049000)"/>
  <path d="M232 110Q232 73 235.5 54.5Q239 36 249.0 30.0Q259 24 277 23V0H37V23Q54 24 64.0 30.0Q74 36 78.0 54.5Q82 73 82 110V649Q82 664 76.5 669.0Q71 674 60 674Q52 674 42.5 672.0Q33 670 22 666L12 689L230 790L236 784Q235 769 233.5 737.5Q232 706 232 658V231H234L360 361Q374 375 381.0 384.5Q388 394 388 404Q388 413 380.5 424.0Q373 435 343 437V460H545V437Q515 435 490.0 419.0Q465 403 446 384L388 324L501 103Q525 56 542.5 39.5Q560 23 577 23V0Q544 -15 498 -15Q447 -15 410.5 6.0Q374 27 356 62L279 212L232 164Z" fill="#173F42" transform="translate(622.284 105.000) scale(0.049000 -0.049000)"/>
  <path d="M274 -15Q206 -15 150.5 14.0Q95 43 62.5 97.0Q30 151 30 225Q30 305 66.0 361.0Q102 417 161.5 446.0Q221 475 289 475Q381 475 428.5 425.5Q476 376 476 296L181 259Q187 174 231.0 137.0Q275 100 333 100Q362 100 399.0 110.5Q436 121 466 149L482 133Q454 66 405.5 25.5Q357 -15 274 -15ZM259 432Q225 432 204.0 396.5Q183 361 180 299L325 317Q323 364 308.5 398.0Q294 432 259 432Z" fill="#173F42" transform="translate(649.923 105.000) scale(0.049000 -0.049000)"/>
  <path d="M58 0V23Q87 25 100.0 38.0Q113 51 113 100V565Q113 614 98.5 627.5Q84 641 43 642V665H113Q186 665 250.0 667.5Q314 670 346 670Q450 670 510.5 647.0Q571 624 597.5 586.5Q624 549 624 504Q624 452 590.5 405.0Q557 358 484.5 332.5Q412 307 293 316V351Q347 349 382.0 370.5Q417 392 433.5 428.0Q450 464 450 505Q450 560 419.0 593.5Q388 627 333 627Q300 627 286.5 615.5Q273 604 273 565V100Q273 68 279.5 51.5Q286 35 303.5 29.5Q321 24 353 23V0Z" fill="#173F42" transform="translate(688.049 105.000) scale(0.049000 -0.049000)"/>
  <path d="M146 -15Q91 -15 64.5 18.0Q38 51 38 94Q38 160 98.5 201.0Q159 242 286 276V329Q286 376 266.5 396.5Q247 417 212 417Q164 417 132.5 381.0Q101 345 89 284H66V428Q100 445 154.5 460.0Q209 475 273 475Q446 475 446 341V123Q446 100 452.0 87.5Q458 75 476 75Q486 75 498.5 79.5Q511 84 525 97L541 81Q519 35 483.0 12.5Q447 -10 401 -10Q352 -10 325.5 9.5Q299 29 288 66H286Q263 26 225.0 5.5Q187 -15 146 -15ZM224 75Q244 75 259.5 84.5Q275 94 286 106V236Q240 223 216.5 202.0Q193 181 185.5 160.0Q178 139 178 125Q178 104 190.0 89.5Q202 75 224 75Z" fill="#173F42" transform="translate(719.165 105.000) scale(0.049000 -0.049000)"/>
  <path d="M38 0V23Q55 24 65.0 30.0Q75 36 79.0 54.5Q83 73 83 110V340Q83 355 77.5 360.0Q72 365 61 365Q49 365 33 361L23 384L231 481L237 475Q235 466 232.5 436.0Q230 406 230 368H232Q269 424 315.5 449.0Q362 474 416 470Q424 383 416 295H393Q386 340 366.0 352.0Q346 364 324 364Q299 364 277.0 357.5Q255 351 233 333V110Q233 73 238.0 54.5Q243 36 258.5 30.0Q274 24 303 23V0Z" fill="#173F42" transform="translate(745.432 105.000) scale(0.049000 -0.049000)"/>
  <path d="M364 102 380 86Q369 61 350.0 38.0Q331 15 301.5 0.0Q272 -15 229 -15Q158 -15 121.0 27.0Q84 69 84 135V407H24V460H84V595L239 610Q236 572 235.0 535.0Q234 498 234 460H364V407H274Q234 407 234 367V155Q234 75 299 75Q337 75 364 102Z" fill="#173F42" transform="translate(766.356 105.000) scale(0.049000 -0.049000)"/>
</svg>
