<svg xmlns="http://www.w3.org/2000/svg" viewBox="0 0 360 720" role="img" aria-labelledby="title desc">
  <title id="title">VibeSkills introduction</title>
  <desc id="desc">Skills are valuable working assets. But as a task becomes more complex, an agent often falls back on the few Skills that are easiest to trigger, while the rest rarely enter the plan. When several Skills take part, responsibilities and outputs can also fail to connect.

VibeSkills organizes these resources through a structured, host-neutral harness. It can be used in any AI application that supports local Skills.

It draws on the harness approaches of Superpowers and GSD-Lite, with a complete workflow and state machine that bring requirement confirmation, execution planning, Skill organization, harness-guided execution, testing, and evaluation together.

The goal is to give users an end-to-end delivery experience for concrete tasks while lowering the cognitive burden and barrier to using AI.

Users should not have to worry that less frequently used Skills will sit idle, or repeatedly remember which Skills should be used for which task.</desc>
  <metadata>Lettering derived from Bona Nova and Noto Serif SC, licensed under SIL Open Font License 1.1.</metadata>
  <defs>
    <path id="g0" d="M262 -15Q234 -15 200 -8.5Q166 -2 135.5 12Q105 26 85.5 50.5Q66 75 66 111Q66 131 71 153Q76 175 84 189H107Q111 113 157 69Q203 25 274 25Q323 25 352.5 43Q382 61 395.5 89.5Q409 118 409 150Q409 196 386 225.5Q363 255 326.5 275.5Q290 296 249.5 314.5Q209 333 172.5 356Q136 379 113 413Q90 447 90 499Q90 553 117 593.5Q144 634 193 657Q242 680 308 680Q366 680 403.5 671Q441 662 464 653V508H441Q435 572 403 606Q371 640 301 640Q252 640 221.5 624.5Q191 609 177.5 584.5Q164 560 164 533Q164 493 187 467Q210 441 246.5 422Q283 403 324.5 384Q366 365 402.5 340Q439 315 462 278Q485 241 485 184Q485 122 456.5 77.5Q428 33 377.5 9Q327 -15 262 -15Z"/>
    <path id="g1" d="M183 101Q183 66 189 50Q195 34 208 29Q221 24 243 23V0H43V23Q66 24 79 29Q92 34 97.5 50Q103 66 103 101V657Q103 685 95 693Q87 701 72 701Q59 701 44.5 697Q30 693 18 687L8 710L181 790L187 784Q186 776 184.5 741Q183 706 183 658V212H185L308 348Q327 368 333.5 377.5Q340 387 340 395Q340 403 331 409Q322 415 284 417V440H484V417Q447 415 424.5 403.5Q402 392 376 364L302 284L420 103Q444 68 461 50.5Q478 33 495.5 28Q513 23 535 23V0Q510 -6 485 -6Q431 -6 400 15.5Q369 37 346 70L244 222L183 156Z"/>
    <path id="g2" d="M190 101Q190 66 197 50Q204 34 222.5 29Q241 24 275 23V0H50V23Q72 24 85 29Q98 34 104 50Q110 66 110 101V327Q110 355 101.5 363.5Q93 372 79 372Q66 372 51.5 367.5Q37 363 25 358L15 381L188 460L194 454Q193 446 191.5 411Q190 376 190 328ZM150 554Q128 554 113 569Q98 584 98 606Q98 627 113 642Q128 657 150 657Q172 657 187 642Q202 627 202 606Q202 584 187 569Q172 554 150 554Z"/>
    <path id="g3" d="M183 101Q183 66 190 50Q197 34 215.5 29Q234 24 268 23V0H43V23Q65 24 78 29Q91 34 97 50Q103 66 103 101V657Q103 685 94.5 693Q86 701 72 701Q59 701 44.5 697Q30 693 18 687L8 710L181 790L187 784Q186 776 184.5 741Q183 706 183 658Z"/>
    <path id="g4" d="M191 -15Q120 -15 82 12Q44 39 44 81Q44 96 50 114.5Q56 133 71 151H94Q95 87 121 53Q147 19 203 19Q253 19 277 43Q301 67 301 98Q301 126 283.5 144Q266 162 238.5 175.5Q211 189 180 201.5Q149 214 121.5 229.5Q94 245 76.5 268Q59 291 59 326Q59 381 103 418Q147 455 226 455Q257 455 289 449.5Q321 444 349 428V313H326Q319 372 288 396.5Q257 421 215 421Q174 421 153 403Q132 385 132 356Q132 329 149.5 311.5Q167 294 194.5 281Q222 268 252.5 255.5Q283 243 310.5 226.5Q338 210 355.5 185.5Q373 161 373 124Q373 57 321 21Q269 -15 191 -15Z"/>
    <path id="g5" d=""/>
    <path id="g6" d="M158 -15Q111 -15 81.5 9.5Q52 34 52 80Q52 117 75 148Q98 179 151 205Q204 231 295 253V318Q295 359 277.5 386Q260 413 211 413Q164 413 136.5 383.5Q109 354 98 292H75V417Q110 434 149.5 444.5Q189 455 237 455Q292 455 321.5 440.5Q351 426 363 400Q375 374 375 339V97Q375 44 408 44Q420 44 435.5 52Q451 60 472 85L488 69Q442 -10 378 -10Q312 -10 297 57H295Q240 -15 158 -15ZM195 44Q243 44 295 88V222Q223 204 189 182.5Q155 161 144.5 139.5Q134 118 134 100Q134 71 152 57.5Q170 44 195 44Z"/>
    <path id="g7" d="M49 0V23Q72 24 85 29Q98 34 103.5 50Q109 66 109 101V330Q109 356 101 364Q93 372 79 372Q68 372 57.5 369.5Q47 367 36 362L26 385L187 460L193 454Q191 445 188.5 415.5Q186 386 186 351H188Q229 412 278.5 433Q328 454 382 450Q390 376 382 302H359Q355 343 340.5 359.5Q326 376 300 376Q267 376 241 362Q215 348 189 316V101Q189 66 196 50Q203 34 223.5 29Q244 24 284 23V0Z"/>
    <path id="g8" d="M249 -15Q198 -15 151.5 9Q105 33 75.5 81.5Q46 130 46 205Q46 281 76 337Q106 393 156 424Q206 455 265 455Q308 455 344.5 438Q381 421 403.5 386Q426 351 426 297L126 258Q126 253 126 247Q126 155 168 103Q210 51 280 51Q320 51 354 67.5Q388 84 415 109L431 93Q403 45 356.5 15Q310 -15 249 -15ZM244 418Q192 418 164 381Q136 344 129 290L336 317Q330 360 310 389Q290 418 244 418Z"/>
    <path id="g9" d="M213 -10Q206 16 199.5 35Q193 54 182 79L70 342Q56 376 44.5 391Q33 406 20.5 411Q8 416 -10 417V440H201V417Q167 416 153 410.5Q139 405 141 389.5Q143 374 156 342L253 112H255L350 342Q370 389 357.5 402Q345 415 292 417V440H469V417Q454 416 442 410.5Q430 405 419.5 389.5Q409 374 395 342L284 79Q273 52 268 34Q263 16 257 -10Z"/>
    <path id="g10" d="M542 77 552 54 390 -21 384 -15Q386 -6 388.5 20.5Q391 47 391 77H389Q350 37 308.5 11Q267 -15 215 -15Q152 -15 127.5 17Q103 49 103 100V330Q103 356 94.5 364Q86 372 72 372Q52 372 29 362L19 385L181 460L187 454Q186 446 184.5 411.5Q183 377 183 331V125Q183 90 197.5 70Q212 50 250 50Q282 50 316.5 63.5Q351 77 388 107V330Q388 356 380 364Q372 372 357 372Q344 372 330 367.5Q316 363 305 358L295 381L466 460L472 454Q471 446 469.5 411.5Q468 377 468 331V112Q468 84 476.5 76Q485 68 499 68Q521 68 542 77Z"/>
    <path id="g11" d="M337 457Q384 457 424.5 432.5Q465 408 489.5 361.5Q514 315 514 247Q514 183 491.5 134.5Q469 86 431.5 53Q394 20 348.5 3.5Q303 -13 257 -13Q224 -13 198 -8Q172 -3 152 5L98 -10V657Q98 685 89.5 693Q81 701 67 701Q54 701 39.5 697Q25 693 13 687L3 710L176 790L182 784Q181 776 179.5 741Q178 706 178 658V366Q204 403 243.5 430Q283 457 337 457ZM283 32Q348 32 390 75.5Q432 119 432 213Q432 299 397 348Q362 397 306 397Q272 397 239 379Q206 361 178 335V73Q202 48 231.5 40Q261 32 283 32Z"/>
    <path id="g12" d="M206 -8Q199 18 193 36Q187 54 176 79L70 342Q57 376 46 391Q35 406 22 411Q9 416 -10 417V440H191V417Q162 416 150 410.5Q138 405 140.5 389.5Q143 374 155 342L246 113H248L338 337L336 342Q323 376 312.5 391Q302 406 291.5 411Q281 416 268 417V440H458V417Q428 416 415.5 410.5Q403 405 404.5 389.5Q406 374 418 342L506 113H508L593 342Q610 389 597.5 402Q585 415 535 417V440H712V417Q687 415 671 402Q655 389 637 342L538 79Q528 52 522.5 35Q517 18 512 -8H468Q461 18 454 36Q447 54 437 79L359 282L277 79Q266 52 260.5 35Q255 18 249 -8Z"/>
    <path id="g13" d="M274 455Q332 455 380.5 426.5Q429 398 459 347Q489 296 489 228Q489 168 468.5 122.5Q448 77 414 46.5Q380 16 339.5 0.5Q299 -15 260 -15Q203 -15 154 13.5Q105 42 75.5 93Q46 144 46 212Q46 272 66.5 317.5Q87 363 121 393.5Q155 424 195 439.5Q235 455 274 455ZM277 25Q336 25 370 67.5Q404 110 404 199Q404 260 385.5 309Q367 358 334 386.5Q301 415 257 415Q199 415 165 372.5Q131 330 131 241Q131 181 149.5 132Q168 83 201 54Q234 25 277 25Z"/>
    <path id="g14" d="M481 101Q481 66 487.5 50Q494 34 512.5 29Q531 24 566 23V0H341V23Q363 24 376 29Q389 34 395 50Q401 66 401 101V316Q401 351 385.5 371Q370 391 332 391Q299 391 263 377Q227 363 189 333V101Q189 66 195.5 50Q202 34 220.5 29Q239 24 274 23V0H49V23Q72 24 85 29Q98 34 103.5 50Q109 66 109 101V328Q109 355 101 363.5Q93 372 79 372Q68 372 57.5 369.5Q47 367 36 362L26 385L187 460L193 454Q191 445 188.5 419Q186 393 186 364H188Q226 404 270.5 429.5Q315 455 367 455Q431 455 456 423.5Q481 392 481 340Z"/>
    <path id="g15" d="M198 -235Q157 -235 121 -225Q85 -215 63 -193Q41 -171 41 -135Q41 -74 115 -30L138 -34Q125 -53 118 -75.5Q111 -98 111 -118Q111 -156 138 -177.5Q165 -199 220 -199Q272 -199 312.5 -181Q353 -163 377 -133Q401 -103 401 -68Q401 -45 388.5 -32Q376 -19 343 -14L130 22Q89 30 89 77Q89 103 106.5 131Q124 159 159 187Q118 200 89 229.5Q60 259 60 307Q60 353 87 386Q114 419 157 437Q200 455 248 455Q283 455 318 445Q353 435 378 414Q403 420 420 446Q437 472 442 517H463Q472 506 476.5 488.5Q481 471 481 457Q481 427 461.5 410.5Q442 394 400 391Q421 361 421 323Q421 278 394 244.5Q367 211 324 193Q281 175 233 175Q209 175 186 180Q172 168 163.5 153Q155 138 155 123Q155 112 161.5 103Q168 94 181 92L389 57Q434 50 458 29.5Q482 9 482 -30Q482 -65 462 -101Q442 -137 405 -167.5Q368 -198 315.5 -216.5Q263 -235 198 -235ZM246 209Q291 209 316 238Q341 267 341 310Q341 359 311.5 390Q282 421 235 421Q190 421 165 392.5Q140 364 140 320Q140 271 170 240Q200 209 246 209Z"/>
    <path id="g16" d="M322 87 338 71Q314 35 283 10Q252 -15 202 -15Q162 -15 138.5 1Q115 17 105 43.5Q95 70 95 101V399H26V440H95V577L180 592Q177 554 176 516Q175 478 175 440H323V399H206Q189 399 182 392Q175 385 175 368V122Q175 90 186.5 67Q198 44 234 44Q255 44 277 54.5Q299 65 322 87Z"/>
    <path id="g17" d="M97 -15Q75 -15 60 0Q45 15 45 37Q45 58 60 73Q75 88 97 88Q119 88 134 73Q149 58 149 37Q149 15 134 0Q119 -15 97 -15Z"/>
    <path id="g18" d="M66 0V23Q93 24 108.5 29Q124 34 130 50Q136 66 136 100V565Q136 600 128.5 615.5Q121 631 101 636Q81 641 41 642V665H136Q185 665 216 666.5Q247 668 273.5 669Q300 670 335 670Q441 670 490 633.5Q539 597 539 538Q539 477 499 441Q459 405 401 384V382Q462 379 509.5 358.5Q557 338 585 301Q613 264 613 211Q613 159 585.5 110.5Q558 62 499.5 31Q441 0 347 0ZM221 370Q234 379 245.5 381.5Q257 384 273 385Q303 388 333.5 394.5Q364 401 389.5 416Q415 431 431 457.5Q447 484 447 525Q447 572 425 595Q403 618 370 626Q337 634 302 634Q259 634 240 623Q221 612 221 565ZM339 36Q410 36 449.5 62Q489 88 505 126.5Q521 165 521 203Q521 258 493.5 290.5Q466 323 419.5 337.5Q373 352 315 352Q266 352 243.5 339.5Q221 327 221 293V100Q221 71 231 57.5Q241 44 266.5 40Q292 36 339 36Z"/>
    <path id="g19" d="M249 -15Q197 -15 150.5 9.5Q104 34 75 83.5Q46 133 46 207Q46 286 79.5 341.5Q113 397 168 426Q223 455 285 455Q316 455 352.5 447Q389 439 418 419V288H395Q390 340 369 368Q348 396 320.5 407Q293 418 266 418Q200 418 164 368.5Q128 319 128 245Q128 186 148.5 142.5Q169 99 205 75Q241 51 286 51Q321 51 355.5 66.5Q390 82 418 109L434 93Q406 46 358 15.5Q310 -15 249 -15Z"/>
    <path id="g20" d="M49 0V23Q72 24 85 29Q98 34 103.5 50Q109 66 109 101V328Q109 355 101 363.5Q93 372 79 372Q68 372 57.5 369.5Q47 367 36 362L26 385L187 460L193 454Q191 445 188.5 419Q186 393 186 364H188Q226 404 265.5 429.5Q305 455 357 455Q413 455 439 430Q465 405 470 363Q507 405 547.5 430Q588 455 639 455Q703 455 728 423.5Q753 392 753 340V101Q753 66 760 50Q767 34 785.5 29Q804 24 838 23V0H613V23Q635 24 648 29Q661 34 667 50Q673 66 673 101V316Q673 351 657.5 371Q642 391 604 391Q544 391 471 333V101Q471 66 477.5 50Q484 34 500.5 29Q517 24 547 23V0H331V23Q353 24 366 29Q379 34 385 50Q391 66 391 101V316Q391 351 375.5 371Q360 391 322 391Q260 391 189 333V101Q189 66 195.5 50Q202 34 218 29Q234 24 264 23V0Z"/>
    <path id="g21" d="M280 -202V-225H45V-202Q68 -201 81 -196Q94 -191 99.5 -175Q105 -159 105 -124V328Q105 355 97 363.5Q89 372 75 372Q64 372 53.5 369.5Q43 367 32 362L22 385L183 460L189 454Q187 445 184.5 419Q182 393 182 364H184V363Q210 400 249.5 427.5Q289 455 344 455Q391 455 431.5 430.5Q472 406 496.5 359.5Q521 313 521 245Q521 181 498.5 132.5Q476 84 438.5 51Q401 18 355.5 1.5Q310 -15 264 -15Q241 -15 221.5 -12.5Q202 -10 185 -6V-124Q185 -159 192 -175Q199 -191 219.5 -196Q240 -201 280 -202ZM290 30Q355 30 397 73.5Q439 117 439 211Q439 297 404 346Q369 395 313 395Q279 395 246 377Q213 359 185 333V71Q209 46 238.5 38Q268 30 290 30Z"/>
    <path id="g22" d="M11 0V23Q28 24 39 29Q50 34 64 50.5Q78 67 103 100L190 220L101 342Q77 375 64 390.5Q51 406 40 411Q29 416 11 417V440H221V417Q190 416 176.5 410.5Q163 405 168.5 390Q174 375 198 342L260 258L320 342Q344 375 347 390Q350 405 333 410.5Q316 416 280 417V440H460V417Q441 416 429 410.5Q417 405 404 390Q391 375 367 342L283 226L375 100Q400 66 414.5 50Q429 34 440 29Q451 24 466 23V0H255V23Q288 24 301 29Q314 34 308.5 50Q303 66 278 100L213 188L150 100Q113 50 124 37.5Q135 25 190 23V0Z"/>
    <path id="g23" d="M115 99Q123 81 125 63.5Q127 46 127 32Q127 -17 109 -57.5Q91 -98 63.5 -123Q36 -148 8 -153V-129Q31 -112 44 -75.5Q57 -39 57 -5Q57 8 55 25Q53 42 45 56Q55 70 75 83Q95 96 115 99Z"/>
    <path id="g24" d="M400 790Q412 721 400 652H377Q373 698 357 721Q341 744 306 744Q188 744 188 508V440H336V399H219Q202 399 195 392Q188 385 188 368V101Q188 66 195.5 50Q203 34 225.5 29Q248 24 293 23V0H48V23Q70 24 83 29Q96 34 102 50Q108 66 108 101V399H39V440H108V511Q108 610 145 675Q182 740 248 769.5Q314 799 400 790Z"/>
    <path id="g25" d="M475 101Q475 66 481.5 50Q488 34 506.5 29Q525 24 559 23V0H335V23Q358 24 371 29Q384 34 389.5 50Q395 66 395 101V316Q395 351 380 371Q365 391 326 391Q294 391 257.5 377Q221 363 183 333V101Q183 66 190 50Q197 34 215.5 29Q234 24 268 23V0H43V23Q66 24 79 29Q92 34 97.5 50Q103 66 103 101V657Q103 685 95 693Q87 701 72 701Q59 701 44.5 697Q30 693 18 687L8 710L181 790L187 784Q186 776 184.5 741Q183 706 183 658V364Q222 404 266 429.5Q310 455 362 455Q424 455 449.5 423.5Q475 392 475 340Z"/>
    <path id="g26" d="M69 -235Q35 -235 15 -213.5Q-5 -192 -5 -154Q-5 -137 -1 -120Q3 -103 10 -85H33Q36 -128 48 -149Q60 -170 87 -170Q117 -170 149.5 -124.5Q182 -79 225 8L76 342Q61 376 49.5 391Q38 406 25.5 411Q13 416 -5 417V440H208V417Q175 416 161.5 410.5Q148 405 150 389.5Q152 374 165 342L265 112H267L360 342Q380 389 366 402Q352 415 299 417V440H477V417Q462 416 450 410.5Q438 405 427.5 389.5Q417 374 404 342L297 79Q255 -25 221.5 -95Q188 -165 152.5 -200Q117 -235 69 -235Z"/>
    <path id="g27" d="M226 -8Q222 18 218.5 35.5Q215 53 208 79L86 565Q78 600 69.5 615.5Q61 631 48.5 636Q36 641 16 642V665H250L249 642Q209 641 191 635.5Q173 630 171 614Q169 598 177 565L281 153H283L471 673H522Q532 645 541 618.5Q550 592 560 565L717 153H720L827 565Q846 638 749 642L750 665H941V642Q895 638 875 565L746 79Q739 53 735.5 35.5Q732 18 728 -8H676Q671 18 665 35.5Q659 53 649 79L476 542H474L303 79Q293 51 288.5 34.5Q284 18 278 -8Z"/>
    <path id="g28" d="M536 77 546 54 383 -21 377 -15Q379 -6 381.5 20.5Q384 47 384 77H383Q357 40 317.5 12.5Q278 -15 223 -15Q176 -15 135.5 9.5Q95 34 70.5 81Q46 128 46 195Q46 259 68.5 307.5Q91 356 128.5 389Q166 422 211.5 438.5Q257 455 303 455Q349 455 382 446V657Q382 685 373.5 693Q365 701 351 701Q338 701 323.5 697Q309 693 297 687L287 710L460 790L466 784Q465 776 463.5 741Q462 706 462 658V112Q462 84 470.5 76Q479 68 493 68Q514 68 536 77ZM254 45Q289 45 321.5 63Q354 81 382 107V369Q358 395 328.5 402.5Q299 410 277 410Q213 410 170.5 366.5Q128 323 128 229Q128 143 163 94Q198 45 254 45Z"/>
    <path id="g29" d="M291 -8Q285 18 280.5 35.5Q276 53 266 79L86 565Q74 600 63 615.5Q52 631 38 636Q24 641 1 642V665H230L229 642Q196 641 181.5 635.5Q167 630 167 614Q167 598 179 565L338 128H340L502 565Q516 603 502.5 621.5Q489 640 427 642V665H633V642Q577 638 551 565L371 79Q361 52 355.5 35Q350 18 344 -8Z"/>
    <path id="g30" d="M39 0V23Q50 35 61 48.5Q72 62 81 75L312 406V409L185 405Q144 404 124 391.5Q104 379 97.5 356Q91 333 89 298H66V440H421V417Q411 406 399.5 392Q388 378 379 365L147 34V31L282 35Q331 36 358.5 51.5Q386 67 398.5 92Q411 117 414 147H437L429 0Z"/>
    <path id="g31" d="M284 227 27 204 24 260 280 282Z"/>
    <path id="g32" d="M75 0V23Q102 24 117.5 29Q133 34 139 50Q145 66 145 100V565Q145 600 137.5 615.5Q130 631 110 636Q90 641 50 642V665H300V642Q273 641 258 636Q243 631 236.5 615.5Q230 600 230 565V100Q230 66 237.5 50Q245 34 265.5 29Q286 24 325 23V0Z"/>
    <path id="g33" d="M543 100Q555 65 566 49.5Q577 34 592.5 29.5Q608 25 634 23V0H395V23Q429 25 445.5 30Q462 35 464 51Q466 67 454 100L397 272Q392 267 382 265.5Q372 264 361 264H230Q208 264 197 259Q186 254 178 232L131 100Q118 62 131.5 43.5Q145 25 209 23V0H2V23Q34 25 52.5 43.5Q71 62 85 100L262 586Q272 612 281 637Q290 662 297 688H346Q353 662 361.5 637Q370 612 380 586ZM363 300Q376 300 381 303.5Q386 307 381 319L299 562H297L201 297Q206 299 213 299.5Q220 300 229 300Z"/>
    <path id="g34" d="M396 -15Q328 -15 267 9.5Q206 34 159.5 79Q113 124 86.5 187Q60 250 60 327Q60 409 90 474.5Q120 540 172 586Q224 632 292 656Q360 680 436 680Q490 680 547.5 669Q605 658 639 643V490H616Q612 549 582.5 581.5Q553 614 510.5 627Q468 640 425 640Q352 640 291 607.5Q230 575 193.5 510Q157 445 157 345Q157 245 193 173Q229 101 288.5 62Q348 23 418 23Q465 23 504 41.5Q543 60 560 98Q563 105 567.5 127.5Q572 150 572 190Q572 239 561.5 260.5Q551 282 525 288Q499 294 453 295V318H686V295Q665 294 658.5 282.5Q652 271 652 248V190Q652 163 653 139Q654 115 660 89Q643 72 605.5 47.5Q568 23 515 4Q462 -15 396 -15Z"/>
    <path id="g35" d="M66 0V23Q93 24 108 29Q123 34 129.5 50Q136 66 136 100V565Q136 600 128.5 615.5Q121 631 101 636Q81 641 41 642V665H136Q204 665 256.5 667.5Q309 670 346 670Q454 670 534.5 634.5Q615 599 660 529Q705 459 705 353Q705 271 675 205.5Q645 140 593.5 94Q542 48 477.5 24Q413 0 343 0ZM313 36Q465 36 536.5 117.5Q608 199 608 338Q608 445 572.5 510Q537 575 472 604.5Q407 634 318 634Q263 634 242 622.5Q221 611 221 565V100Q221 57 241.5 46.5Q262 36 313 36Z"/>
    <path id="g36" d="M66 0V23Q93 24 108 29Q123 34 129.5 50Q136 66 136 100V565Q136 600 128.5 615.5Q121 631 101 636Q81 641 41 642V665H291V642Q264 641 249 636Q234 631 227.5 615.5Q221 600 221 565V100Q221 57 236.5 46.5Q252 36 297 36H388Q438 36 465.5 52.5Q493 69 505.5 96.5Q518 124 521 156H544L536 0Z"/>
    <path id="g37" d="M48 0V23Q70 24 83 29Q96 34 102 50Q108 66 108 101V399H39V440H108V511Q108 599 146 661Q184 723 248 756.5Q312 790 391 790Q421 790 452 785.5Q483 781 505 772Q504 764 502.5 729Q501 694 501 646V101Q501 66 508 50Q515 34 533.5 29Q552 24 586 23V0H361V23Q383 24 396 29Q409 34 415 50Q421 66 421 101V654Q422 700 399.5 722Q377 744 342 744Q278 744 232.5 685.5Q187 627 187 508V440H333V399H218Q201 399 194 392Q187 385 187 368V101Q187 66 192.5 50Q198 34 211.5 29Q225 24 247 23V0Z"/>
    <path id="g38" d="M537 -142 547 -165 384 -241 378 -235Q380 -227 381 -192Q382 -157 382 -109V76Q356 39 316.5 12Q277 -15 223 -15Q176 -15 135.5 9.5Q95 34 70.5 81Q46 128 46 195Q46 259 68.5 307.5Q91 356 128.5 389Q166 422 211.5 438.5Q257 455 303 455Q336 455 362 450Q388 445 408 437L462 450V-107Q462 -135 470 -143.5Q478 -152 493 -152Q504 -152 515 -149Q526 -146 537 -142ZM254 45Q289 45 321.5 63Q354 81 382 107V369Q358 395 328.5 402.5Q299 410 277 410Q213 410 170.5 366.5Q128 323 128 229Q128 143 163 94Q198 45 254 45Z"/>
    <path id="g39" d="M48 0V23Q70 24 83 29Q96 34 102 50Q108 66 108 101V399H39V440H108V511Q108 610 153.5 675Q199 740 279 769.5Q359 799 460 790Q472 721 460 652H437Q432 698 411.5 721Q391 744 341 744Q274 744 230.5 686Q187 628 187 508V440H303Q334 440 370 443Q406 446 440 451Q474 456 497 461L503 455Q502 447 500.5 412.5Q499 378 499 331V101Q499 66 505.5 50Q512 34 530.5 29Q549 24 584 23V0H359V23Q381 24 394 29Q407 34 413 50Q419 66 419 101V356Q419 382 408 390.5Q397 399 367 399H218Q201 399 194 392Q187 385 187 368V101Q187 66 192.5 50Q198 34 211.5 29Q225 24 247 23V0Z"/>
    <path id="g40" d="M131 0V23Q165 24 183.5 28.5Q202 33 210 49Q218 65 220 100L257 635H176Q110 635 82.5 599Q55 563 51 510H28L38 665H546L536 510H513Q513 545 505 573.5Q497 602 473 618.5Q449 635 401 635H327L290 100Q288 65 293 49Q298 33 312 28.5Q326 24 351 23V0Z"/>
    <path id="g41" d="M62 -15Q67 36 73.5 107.5Q80 179 87 259Q94 339 100 418Q106 497 109.5 564.5Q113 632 113 676Q113 696 104 696Q94 696 75 676.5Q56 657 30 628L13 644Q31 667 57 696.5Q83 726 112 752Q141 778 166 790Q172 777 175 756.5Q178 736 178 711Q178 657 173.5 588.5Q169 520 162 444Q155 368 147 290H149Q174 333 212.5 370.5Q251 408 292.5 431.5Q334 455 366 455Q397 455 419.5 427Q442 399 442 322Q442 268 429.5 210Q417 152 392.5 101.5Q368 51 332 19Q296 -13 250 -15Q243 6 248 29.5Q253 53 271 64Q277 59 285 54.5Q293 50 301 50Q320 50 333.5 74.5Q347 99 355.5 137Q364 175 368 216Q372 257 372 291Q372 354 359 374Q346 394 325 394Q301 394 272 377Q243 360 216 331Q189 302 170 265Q143 213 136 151Q129 89 127 0Q94 -3 62 -15Z"/>
    <path id="g42" d="M160 -15Q133 -15 105 -1Q77 13 58.5 46Q40 79 40 134Q40 194 63 251Q86 308 124 354.5Q162 401 208.5 428Q255 455 301 455Q346 455 360.5 436.5Q375 418 375 393Q375 347 341 306.5Q307 266 247 225Q187 184 109 136Q116 93 138.5 71.5Q161 50 190 50Q230 50 267.5 74Q305 98 335 142L356 134Q334 95 301.5 61Q269 27 232.5 6Q196 -15 160 -15ZM107 166Q107 164 107 165Q300 285 300 378Q300 398 290.5 406.5Q281 415 266 415Q239 415 211 393Q183 371 159.5 334.5Q136 298 121.5 254Q107 210 107 166Z"/>
    <path id="g43" d=""/>
    <path id="g44" d="M165 -235Q122 -235 83.5 -223.5Q45 -212 21 -191.5Q-3 -171 -3 -143Q-3 -113 24 -89.5Q51 -66 82 -50L102 -60Q83 -79 75 -96Q67 -113 67 -124Q67 -143 85 -158Q103 -173 133 -182Q163 -191 197 -191Q230 -191 261 -183.5Q292 -176 312 -161.5Q332 -147 332 -128Q332 -115 312 -105L103 -6Q89 1 95 18L124 97Q95 105 72.5 128.5Q50 152 50 199Q50 242 70 287Q90 332 123.5 370Q157 408 198.5 431.5Q240 455 284 455Q308 455 332.5 446Q357 437 372 415Q406 425 418 515H438Q459 485 459 454Q459 424 438 410Q417 396 384 394Q391 374 391 349Q391 308 373.5 265.5Q356 223 325.5 185.5Q295 148 257 123.5Q219 99 177 94Q157 92 150.5 82Q144 72 144 63Q144 53 151 47.5Q158 42 171 36L367 -56Q378 -61 387.5 -70Q397 -79 397 -94Q397 -112 380.5 -136Q364 -160 333 -182.5Q302 -205 259.5 -220Q217 -235 165 -235ZM183 131Q215 131 241 149.5Q267 168 285.5 198Q304 228 313.5 262Q323 296 323 326Q323 364 307.5 390Q292 416 257 416Q226 416 200.5 398Q175 380 156.5 351Q138 322 128 288Q118 254 118 222Q118 183 133.5 157Q149 131 183 131Z"/>
    <path id="g45" d="M164 -15Q113 -15 76.5 22.5Q40 60 40 137Q40 197 63 254Q86 311 123.5 356.5Q161 402 207 428.5Q253 455 299 455Q352 455 388 417Q424 379 424 302Q424 241 400.5 184Q377 127 339 82Q301 37 255 11Q209 -15 164 -15ZM202 35Q243 35 278 66.5Q313 98 334 150Q355 202 354 263Q354 302 344 334Q334 366 314 385.5Q294 405 261 405Q220 405 185.5 373Q151 341 130.5 289.5Q110 238 110 177Q110 112 134 73.5Q158 35 202 35Z"/>
    <path id="g46" d="M129 -15Q82 -15 61 21Q40 57 40 106Q40 149 55.5 197Q71 245 98 290.5Q125 336 159.5 373.5Q194 411 232 433Q270 455 307 455Q329 455 344 447Q359 439 372 428L431 455Q415 307 409 216Q403 125 403 98Q403 87 406.5 76.5Q410 66 419 66Q429 66 445 77.5Q461 89 480 108L497 92Q468 60 428.5 30.5Q389 1 356 -15Q337 10 337 60Q337 92 340 121.5Q343 151 350 203H348Q299 103 242 44Q185 -15 129 -15ZM159 50Q181 50 207.5 69.5Q234 89 260 121.5Q286 154 308 193.5Q330 233 343 274Q356 315 356 350Q356 366 352 383.5Q348 401 336 413Q324 425 300 425Q262 425 228 396.5Q194 368 167.5 323Q141 278 125.5 228Q110 178 110 134Q110 95 121 72.5Q132 50 159 50Z"/>
    <path id="g47" d="M97 -15Q77 11 77 64Q77 115 81 178.5Q85 242 91.5 310.5Q98 379 104 446Q110 513 114 572.5Q118 632 118 676Q118 696 109 696Q99 696 80 676.5Q61 657 35 628L18 644Q36 667 62 696.5Q88 726 117 752Q146 778 171 790Q177 777 180 756.5Q183 736 183 711Q183 664 179 603Q175 542 169 474Q163 406 156.5 338Q150 270 146 208.5Q142 147 142 99Q142 88 145.5 77Q149 66 159 66Q181 66 235 125L251 109Q234 87 207 62.5Q180 38 151 17.5Q122 -3 97 -15Z"/>
    <path id="g48" d="M121 -15Q101 11 101 64Q101 90 104.5 129Q108 168 113 210Q118 252 121.5 287Q125 322 125 341Q125 361 116 361Q106 361 79 340Q52 319 26 291L10 307Q28 329 58 359Q88 389 121 416Q154 443 178 455Q184 442 187 421.5Q190 401 190 376Q190 354 186.5 316.5Q183 279 178 237.5Q173 196 169.5 159Q166 122 166 99Q166 88 169.5 77Q173 66 183 66Q205 66 259 125L275 109Q258 87 231 62.5Q204 38 175 17.5Q146 -3 121 -15ZM163 560Q147 560 139 569.5Q131 579 131 593Q131 616 150.5 635Q170 654 193 654Q210 654 217.5 644.5Q225 635 225 621Q225 596 205.5 578Q186 560 163 560Z"/>
    <path id="g49" d="M146 -15Q120 -15 91.5 -6Q63 3 44 21Q25 39 25 66Q25 92 44 111.5Q63 131 89 153L105 137Q90 123 84.5 113Q79 103 79 93Q79 69 102.5 52Q126 35 166 35Q213 35 244 59Q275 83 275 123Q275 149 255 167Q235 185 179 213Q151 227 125.5 242Q100 257 84 275.5Q68 294 68 317Q68 345 90.5 377Q113 409 150 432Q187 455 232 455Q267 455 298 441Q329 427 351 395L304 314L284 324Q301 357 292.5 378.5Q284 400 262 411Q240 422 215 422Q177 422 152.5 398.5Q128 375 128 340Q128 329 133 320.5Q138 312 156.5 300.5Q175 289 213 269Q259 246 283 231Q307 216 316 201Q325 186 325 163Q325 116 299.5 75.5Q274 35 233 10Q192 -15 146 -15Z"/>
    <path id="g50" d="M95 -15Q85 -2 81 17.5Q77 37 77 63Q77 98 81 155Q85 212 90.5 279Q96 346 100 410H17V440H102Q107 481 110.5 516Q114 551 115 575L184 590Q181 562 176 523Q171 484 166 440H286V410H192Q175 410 169 403.5Q163 397 161 378Q157 322 152.5 268.5Q148 215 145 171.5Q142 128 142 102Q142 88 146 77Q150 66 159 66Q181 66 235 125L251 109Q234 87 207 62.5Q180 38 150.5 17.5Q121 -3 95 -15Z"/>
    <path id="g51" d="M137 -15Q102 -15 92.5 9Q83 33 83 64Q83 90 86.5 129Q90 168 95 210Q100 252 103.5 287Q107 322 107 341Q107 361 98 361Q84 361 49 323L33 339Q59 371 92.5 403.5Q126 436 160 455Q166 442 169 421.5Q172 401 172 376Q172 354 168.5 316.5Q165 279 160 237.5Q155 196 151.5 159Q148 122 148 99Q148 70 155.5 60Q163 50 177 50Q210 50 245 85Q280 120 305 175Q334 234 339.5 304.5Q345 375 325 439Q342 447 363 451Q384 455 402 455Q410 395 397 329.5Q384 264 356.5 203Q329 142 292.5 92.5Q256 43 215.5 14Q175 -15 137 -15Z"/>
    <path id="g52" d="M118 -15Q83 11 83 64Q83 90 86.5 129Q90 168 95 210Q100 252 103.5 287Q107 322 107 341Q107 361 98 361Q84 361 49 323L33 339Q59 371 92.5 403.5Q126 436 160 455Q166 442 169 421.5Q172 401 172 376Q172 354 168.5 316.5Q165 279 160 237.5Q155 196 151.5 159Q148 122 148 99Q148 78 151.5 69.5Q155 61 162 61Q178 61 204.5 92.5Q231 124 265 176Q297 226 322 289Q347 352 347 440Q379 452 412 455Q410 434 406 396.5Q402 359 397.5 314Q393 269 389.5 225.5Q386 182 383.5 148Q381 114 381 99Q381 88 384.5 77Q388 66 398 66Q408 66 423.5 77.5Q439 89 458 108L475 92Q447 60 408 30.5Q369 1 336 -15Q316 11 316 64Q316 103 321 142Q326 181 334 233H332Q278 128 221.5 66Q165 4 118 -15Z"/>
    <path id="g53" d="M76 -15Q78 6 82 43.5Q86 81 90 126Q94 171 98 214.5Q102 258 104.5 292Q107 326 107 341Q107 361 98 361Q84 361 49 323L33 339Q59 371 92.5 403.5Q126 436 160 455Q166 442 169 421.5Q172 401 172 376Q172 346 169 317Q166 288 160 250H162Q204 331 245 385Q286 439 329 455Q347 440 350.5 412Q354 384 349.5 349Q345 314 337 278H314Q318 313 315 336.5Q312 360 293 360Q281 360 262 346Q243 332 212 279Q182 229 161.5 159Q141 89 141 0Q108 -3 76 -15Z"/>
    <path id="g54" d="M76 -15Q78 6 82 43.5Q86 81 90 126Q94 171 98 214.5Q102 258 104.5 292Q107 326 107 341Q107 361 98 361Q84 361 49 323L33 339Q59 371 92.5 403.5Q126 436 160 455Q166 442 169 421.5Q172 401 172 376Q172 337 167 298Q162 259 154 208H156Q195 278 237 331Q279 384 318.5 416Q358 448 389 455Q403 444 410 423Q417 402 417 376Q417 354 413.5 316.5Q410 279 405 237.5Q400 196 396.5 159Q393 122 393 99Q393 88 396.5 77Q400 66 410 66Q420 66 435.5 77.5Q451 89 470 108L487 92Q459 60 420 30.5Q381 1 348 -15Q328 11 328 64Q328 90 331.5 129Q335 168 340 210Q345 252 348.5 287Q352 322 352 341Q352 362 349 370.5Q346 379 338 379Q322 379 291.5 347.5Q261 316 226 264Q193 215 167 152Q141 89 141 0Q108 -3 76 -15Z"/>
    <path id="g55" d="M139 -15Q93 -15 66 20.5Q39 56 39 118Q39 173 60 232Q81 291 116.5 341.5Q152 392 196 423.5Q240 455 286 455Q315 455 334 443.5Q353 432 364 420Q372 491 377 560Q382 629 382 676Q382 696 373 696Q363 696 344 676.5Q325 657 299 628L282 644Q300 667 326 696.5Q352 726 381 752Q410 778 435 790Q441 777 444 756.5Q447 736 447 711Q447 664 442 603Q437 542 430 474Q423 406 416 338Q409 270 404 208.5Q399 147 399 99Q399 88 402.5 77Q406 66 416 66Q426 66 441.5 77.5Q457 89 476 108L493 92Q465 60 426 30.5Q387 1 354 -15Q334 11 334 64Q334 84 335.5 106Q337 128 339 150H337Q299 79 246 32Q193 -15 139 -15ZM169 45Q198 45 230 68Q262 91 289.5 130Q317 169 334.5 217Q352 265 352 315Q352 343 345 368Q338 393 322.5 409Q307 425 279 425Q243 425 212.5 399Q182 373 158.5 331Q135 289 122 240Q109 191 109 145Q109 102 122.5 73.5Q136 45 169 45Z"/>
    <path id="g56" d="M277 229 27 207 24 259 273 281Z"/>
    <path id="g57" d="M30 -235Q10 -235 4 -207Q-2 -179 1.5 -137.5Q5 -96 14 -58H37Q34 -103 37.5 -131.5Q41 -160 60 -160Q74 -160 93.5 -145Q113 -130 132 -104Q151 -78 164 -45.5Q177 -13 177 22Q177 51 170 94Q163 137 153 176Q141 225 127 264.5Q113 304 100 327.5Q87 351 76 351Q67 351 53.5 335.5Q40 320 28 297L9 308Q28 346 52.5 386Q77 426 105 455Q126 436 147.5 392Q169 348 187 291.5Q205 235 218 177.5Q231 120 235 75H237Q281 165 300 258Q319 351 297 439Q314 447 335.5 451Q357 455 375 455Q381 412 371 354.5Q361 297 338.5 231.5Q316 166 285.5 100Q255 34 220.5 -26Q186 -86 151 -133Q116 -180 84.5 -207.5Q53 -235 30 -235Z"/>
    <path id="g58" d="M55 -15Q42 -15 35.5 0.5Q29 16 28 40.5Q27 65 30 93Q33 121 37 145H60Q60 111 63 85.5Q66 60 80 60Q97 60 116 80.5Q135 101 155 132.5Q175 164 194 198Q172 289 158.5 329Q145 369 126 369Q114 369 98 356Q82 343 63 323L47 339Q73 371 107 403.5Q141 436 175 455Q186 444 197.5 415.5Q209 387 219.5 350Q230 313 239 275Q254 301 273 332Q292 363 312.5 391Q333 419 353 437Q373 455 390 455Q403 455 407 439.5Q411 424 409 400.5Q407 377 402 351.5Q397 326 392 305H369Q371 340 368.5 353.5Q366 367 355 367Q337 367 308 328.5Q279 290 249 236Q262 183 273.5 141Q285 99 298 75Q311 51 328 51Q338 51 353 61.5Q368 72 395 97L411 81Q383 49 350 23.5Q317 -2 285 -15Q259 -2 239 47Q219 96 203 156Q188 131 169.5 101Q151 71 131 45Q111 19 91.5 2Q72 -15 55 -15Z"/>
    <path id="g59" d="M59 -240Q65 -186 72.5 -110.5Q80 -35 87 47Q94 129 99 206Q104 283 104 341Q104 361 95 361Q81 361 46 323L30 339Q56 371 89.5 403.5Q123 436 157 455Q163 442 166 421.5Q169 401 169 376Q169 337 166 290H168Q206 361 259 408Q312 455 366 455Q412 455 439.5 419.5Q467 384 467 322Q467 267 446 208Q425 149 389.5 98.5Q354 48 310 16.5Q266 -15 220 -15Q199 -15 179 -7.5Q159 0 145 15Q138 -46 132 -111.5Q126 -177 124 -225Q90 -231 59 -240ZM226 15Q262 15 293 41Q324 67 347.5 109.5Q371 152 384 201Q397 250 397 295Q397 338 383 366.5Q369 395 337 395Q308 395 276 372Q244 349 216.5 310Q189 271 171.5 223Q154 175 154 124Q154 97 160.5 72Q167 47 183 31Q199 15 226 15Z"/>
    <path id="g60" d="M150 -15Q121 -15 95.5 -0.5Q70 14 54.5 46Q39 78 39 130Q39 193 61.5 251Q84 309 121 355Q158 401 202.5 428Q247 455 290 455Q321 455 343 441.5Q365 428 382 405L315 289L294 297Q316 343 316.5 370Q317 397 304 408.5Q291 420 270 420Q238 420 209 397Q180 374 157.5 336Q135 298 122 252Q109 206 109 161Q109 108 128 79Q147 50 183 50Q215 50 256.5 75.5Q298 101 340 160L361 152Q313 68 257 26.5Q201 -15 150 -15Z"/>
    <path id="g61" d="M23 -235V-212Q58 -198 69.5 -148.5Q81 -99 88 0L116 410H46V440H118Q129 596 172 681.5Q215 767 265 790Q288 771 295 736.5Q302 702 297.5 664Q293 626 283 593H261Q265 626 262 654.5Q259 683 252 700.5Q245 718 233 718Q223 718 214.5 694Q206 670 198.5 609.5Q191 549 183 440H298V410H208Q192 410 186 403.5Q180 397 178 378L151 -15Q144 -127 106.5 -180Q69 -233 23 -235Z"/>
    <path id="g62" d="M463 23 469 0Q450 -7 433.5 -11Q417 -15 397 -15Q362 -15 330.5 9Q299 33 258 73Q207 124 182 147.5Q157 171 139 171Q134 130 130.5 85Q127 40 127 0Q94 -3 62 -15Q67 36 73.5 107.5Q80 179 87 259Q94 339 100 418Q106 497 109.5 564.5Q113 632 113 676Q113 696 104 696Q94 696 75 676.5Q56 657 30 628L13 644Q31 667 57 696.5Q83 726 112 752Q141 778 166 790Q172 777 175 756.5Q178 736 178 711Q178 657 173.5 588.5Q169 520 162 444Q155 368 147 290H149Q174 330 205 368Q236 406 273 430.5Q310 455 351 455Q387 455 402 436.5Q417 418 417 389Q417 350 393.5 311.5Q370 273 327.5 241Q285 209 228 190V188L309 106Q351 64 375 45Q399 26 418 23Q437 20 463 23ZM317 405Q295 405 267.5 384.5Q240 364 213.5 331.5Q187 299 167.5 262.5Q148 226 141 194Q211 202 256.5 229.5Q302 257 324.5 293.5Q347 330 347 364Q347 382 340.5 393.5Q334 405 317 405Z"/>
    <path id="g63" d="M118 -15Q83 11 83 64Q83 90 86.5 129Q90 168 95 210Q100 252 103.5 287Q107 322 107 341Q107 361 98 361Q84 361 49 323L33 339Q59 371 92.5 403.5Q126 436 160 455Q166 442 169 421.5Q172 401 172 376Q172 354 168.5 316.5Q165 279 160 237.5Q155 196 151.5 159Q148 122 148 99Q148 78 151.5 69.5Q155 61 162 61Q173 61 207.5 91Q242 121 276 176Q306 225 326.5 291.5Q347 358 347 440Q379 452 412 455Q405 412 400.5 370.5Q396 329 396 291Q396 248 401 205Q406 162 415.5 126.5Q425 91 438.5 69.5Q452 48 470 48Q490 48 511 74Q532 100 551 142Q570 184 581.5 233.5Q593 283 593 331Q593 352 588 375Q583 398 565 398Q549 398 527 380.5Q505 363 485 345L469 361Q491 386 518.5 411Q546 436 571.5 453Q597 470 612 470Q632 470 640 440.5Q648 411 648 378Q648 325 634 269.5Q620 214 596.5 163Q573 112 546 72Q519 32 492.5 8.5Q466 -15 445 -15Q424 -15 405.5 7Q387 29 372 65Q357 101 347.5 142Q338 183 336 222H334Q308 163 269 113.5Q230 64 189.5 30.5Q149 -3 118 -15Z"/>
    <path id="g64" d="M62 -15Q67 36 73.5 107.5Q80 179 87 259Q94 339 100 418Q106 497 109.5 564.5Q113 632 113 676Q113 696 104 696Q94 696 75 676.5Q56 657 30 628L13 644Q31 667 57 696.5Q83 726 112 752Q141 778 166 790Q172 777 175 756.5Q178 736 178 711Q178 657 173.5 588.5Q169 520 162 444Q155 368 147 290H149Q187 361 240.5 408Q294 455 348 455Q394 455 421.5 419.5Q449 384 449 322Q449 267 428 208Q407 149 371.5 98.5Q336 48 292 16.5Q248 -15 202 -15Q181 -15 161 -7.5Q141 0 127 15ZM208 15Q244 15 275 41Q306 67 329.5 109.5Q353 152 366 201Q379 250 379 295Q379 338 365 366.5Q351 395 319 395Q290 395 258 372Q226 349 198.5 310Q171 271 153.5 223Q136 175 136 124Q136 97 142.5 72Q149 47 165 31Q181 15 208 15Z"/>
    <path id="g65" d="M489 100Q498 65 507.5 49Q517 33 532.5 28.5Q548 24 574 23V0H381V23Q405 24 415 28.5Q425 33 425 49Q425 65 416 100L371 283Q364 278 355 276.5Q346 275 336 275H204Q184 275 172.5 271Q161 267 153 248L87 100Q72 66 72 50Q72 34 89.5 29Q107 24 141 23V0H-27V23Q-15 24 -4.5 28.5Q6 33 17.5 49Q29 65 45 100L263 586Q275 612 286 637Q297 662 307 688H350Q355 662 360.5 637Q366 612 372 586ZM341 305Q354 305 359 309.5Q364 314 360 330L301 576H299L177 302Q183 304 190 304.5Q197 305 204 305Z"/>
    <path id="g66" d="M42 0V23Q61 24 70.5 28.5Q80 33 84.5 49Q89 65 91 100L123 565Q126 600 120.5 615.5Q115 631 98.5 636Q82 641 52 642V665H242V642Q223 641 213.5 636Q204 631 200 615.5Q196 600 193 565L161 100Q159 65 164 49Q169 33 185.5 28.5Q202 24 232 23V0Z"/>
    <path id="g67" d="M80 -15Q64 -15 56 -5.5Q48 4 48 18Q48 41 67.5 60Q87 79 110 79Q127 79 134.5 69.5Q142 60 142 46Q142 21 122.5 3Q103 -15 80 -15Z"/>
    <path id="g68" d="M246 -15Q155 -15 121 31Q87 77 92 158L120 565Q123 600 117.5 615.5Q112 631 96 636Q80 641 50 642V665H239V642Q220 641 210.5 636Q201 631 197 615.5Q193 600 190 565L163 175Q161 137 168 103.5Q175 70 197.5 50Q220 30 264 30Q312 30 360 53.5Q408 77 448 118Q488 159 513.5 211.5Q539 264 543 322L560 565Q563 600 557.5 615.5Q552 631 535.5 636Q519 641 489 642V665H674V642Q655 641 645.5 636Q636 631 632 615.5Q628 600 625 565L593 100Q591 65 596 49Q601 33 617.5 28.5Q634 24 664 23V0H534Q529 16 527.5 38.5Q526 61 528 100L533 175H531Q500 117 454 74Q408 31 354.5 8Q301 -15 246 -15Z"/>
    <path id="g69" d="M594 455Q612 440 615.5 412Q619 384 614.5 349Q610 314 602 278H579Q583 313 580 336.5Q577 360 558 360Q546 360 527.5 346Q509 332 477 279Q447 229 426.5 159Q406 89 406 0Q373 -3 341 -15Q343 6 347 44Q351 82 355 129Q359 176 363 224.5Q367 273 369.5 316.5Q372 360 372 390Q372 401 365 405.5Q358 410 323 410H208Q192 410 186 403.5Q180 397 178 378L151 -15Q144 -127 106.5 -180Q69 -233 23 -235V-212Q58 -198 69.5 -148.5Q81 -99 88 0L116 410H46V440H118Q129 596 172 681.5Q215 767 265 790Q288 771 295 736.5Q302 702 297.5 664Q293 626 283 593H261Q265 626 262 654.5Q259 683 252 700.5Q245 718 233 718Q223 718 214.5 694Q206 670 198.5 609.5Q191 549 183 440H254Q268 440 291.5 440.5Q315 441 342 442Q369 443 391.5 446Q414 449 425 455Q431 442 434 421.5Q437 401 437 376Q437 346 434 317Q431 288 425 250H427Q469 331 510 385Q551 439 594 455Z"/>
    <path id="g70" d="M334 -235Q314 -209 314 -156Q314 -121 317.5 -70.5Q321 -20 327 37.5Q333 95 340 150H338Q300 79 246.5 32Q193 -15 139 -15Q93 -15 66 20.5Q39 56 39 118Q39 173 60 232Q81 291 116.5 341.5Q152 392 196 423.5Q240 455 286 455Q315 455 331 446.5Q347 438 360 425L425 455Q420 400 414 330.5Q408 261 401.5 189.5Q395 118 390 54Q385 -10 382 -56.5Q379 -103 379 -121Q379 -132 382.5 -143Q386 -154 396 -154Q406 -154 421.5 -142.5Q437 -131 456 -112L473 -128Q445 -160 406 -189.5Q367 -219 334 -235ZM169 45Q198 45 230 68Q262 91 289.5 130Q317 169 334.5 217Q352 265 352 314Q352 342 345 367.5Q338 393 322.5 409Q307 425 279 425Q243 425 212.5 399Q182 373 158.5 331Q135 289 122 240Q109 191 109 145Q109 102 122.5 73.5Q136 45 169 45Z"/>
    <path id="g71" d="M209 -15Q167 -15 126.5 -1.5Q86 12 59.5 37Q33 62 33 98Q33 114 42 130L89 210L109 201Q91 162 91 134Q91 104 113 81.5Q135 59 169 47Q203 35 239 35Q319 35 357.5 75Q396 115 396 181Q396 212 379 235.5Q362 259 328.5 283Q295 307 245 338Q179 380 142.5 408.5Q106 437 91.5 460.5Q77 484 77 510Q77 550 105.5 589Q134 628 185.5 654Q237 680 306 680Q346 680 387 672Q428 664 451 653L442 510H419Q419 570 389 607.5Q359 645 292 645Q247 645 211.5 629Q176 613 155 589Q134 565 134 539Q134 504 177.5 474Q221 444 288 402Q349 364 385.5 336.5Q422 309 438.5 281.5Q455 254 455 215Q455 150 424.5 97.5Q394 45 339 15Q284 -15 209 -15Z"/>
    <path id="g72" d="M15 -152V-129Q37 -112 50 -76Q63 -40 63 -6Q63 7 61 22Q59 37 52 50Q60 62 78 74.5Q96 87 115 90Q122 74 124 58Q126 42 126 29Q126 -19 108.5 -59Q91 -99 65.5 -123.5Q40 -148 15 -152Z"/>
    <path id="g73" d="M76 -15Q78 6 82 43.5Q86 81 90 126Q94 171 98 214.5Q102 258 104.5 292Q107 326 107 341Q107 361 98 361Q84 361 49 323L33 339Q59 371 92.5 403.5Q126 436 160 455Q166 442 169 421.5Q172 401 172 376Q172 337 167 298Q162 259 154 208H156Q209 317 269.5 380.5Q330 444 376 455Q390 444 397 423Q404 402 404 376Q404 337 399 298Q394 259 386 208H388Q441 317 502 380.5Q563 444 609 455Q623 444 630 423Q637 402 637 376Q637 354 633.5 316.5Q630 279 625 237.5Q620 196 616.5 159Q613 122 613 99Q613 88 616.5 77Q620 66 630 66Q640 66 655.5 77.5Q671 89 690 108L707 92Q679 60 640 30.5Q601 1 568 -15Q548 11 548 64Q548 90 551.5 129Q555 168 560 210Q565 252 568.5 287Q572 322 572 341Q572 362 569 370.5Q566 379 558 379Q542 379 514.5 348Q487 317 455 264Q425 215 399 152Q373 89 373 0Q340 -3 308 -15Q310 6 314 43.5Q318 81 322.5 126Q327 171 330.5 214.5Q334 258 336.5 292Q339 326 339 341Q339 362 336 370.5Q333 379 325 379Q309 379 281.5 348Q254 317 222 264Q192 215 166.5 152Q141 89 141 0Q108 -3 76 -15Z"/>
  </defs>
  <g fill="#80683D" transform="translate(13 82) scale(0.062 -0.062)"><use href="#g0" x="0"/></g>
  <g fill="#173F42" transform="translate(61 34) scale(0.0168 -0.0168)"><use href="#g1" x="0"/><use href="#g2" x="526"/><use href="#g3" x="819"/><use href="#g3" x="1105"/><use href="#g4" x="1391"/><use href="#g5" x="1802"/><use href="#g6" x="2098"/><use href="#g7" x="2578"/><use href="#g8" x="2969"/><use href="#g5" x="3431"/><use href="#g9" x="3727"/><use href="#g6" x="4191"/><use href="#g3" x="4671"/><use href="#g10" x="4957"/><use href="#g6" x="5524"/><use href="#g11" x="6004"/><use href="#g3" x="6564"/><use href="#g8" x="6850"/><use href="#g5" x="7312"/><use href="#g12" x="7608"/><use href="#g13" x="8316"/><use href="#g7" x="8851"/><use href="#g1" x="9242"/><use href="#g2" x="9768"/><use href="#g14" x="10061"/><use href="#g15" x="10642"/><use href="#g5" x="11138"/><use href="#g6" x="11434"/><use href="#g4" x="11914"/><use href="#g4" x="12325"/><use href="#g8" x="12736"/><use href="#g16" x="13198"/><use href="#g4" x="13561"/><use href="#g17" x="13972"/></g>
  <g fill="#173F42" transform="translate(61 57) scale(0.0168 -0.0168)"><use href="#g18" x="0"/><use href="#g10" x="663"/><use href="#g16" x="1230"/><use href="#g5" x="1593"/><use href="#g6" x="1889"/><use href="#g4" x="2369"/><use href="#g5" x="2780"/><use href="#g6" x="3076"/><use href="#g5" x="3556"/><use href="#g16" x="3852"/><use href="#g6" x="4215"/><use href="#g4" x="4695"/><use href="#g1" x="5106"/><use href="#g5" x="5632"/><use href="#g11" x="5928"/><use href="#g8" x="6488"/><use href="#g19" x="6950"/><use href="#g13" x="7421"/><use href="#g20" x="7956"/><use href="#g8" x="8809"/><use href="#g4" x="9271"/><use href="#g5" x="9682"/><use href="#g20" x="9978"/><use href="#g13" x="10831"/><use href="#g7" x="11366"/><use href="#g8" x="11757"/><use href="#g5" x="12219"/><use href="#g19" x="12515"/><use href="#g13" x="12986"/><use href="#g20" x="13521"/><use href="#g21" x="14374"/><use href="#g3" x="14941"/><use href="#g8" x="15227"/><use href="#g22" x="15689"/><use href="#g23" x="16168"/></g>
  <g fill="#173F42" transform="translate(61 80) scale(0.0168 -0.0168)"><use href="#g6" x="0"/><use href="#g14" x="480"/><use href="#g5" x="1061"/><use href="#g6" x="1357"/><use href="#g15" x="1837"/><use href="#g8" x="2333"/><use href="#g14" x="2795"/><use href="#g16" x="3376"/><use href="#g5" x="3739"/><use href="#g13" x="4035"/><use href="#g24" x="4570"/><use href="#g16" x="4900"/><use href="#g8" x="5263"/><use href="#g14" x="5725"/><use href="#g5" x="6306"/><use href="#g24" x="6602"/><use href="#g6" x="6932"/><use href="#g3" x="7412"/><use href="#g3" x="7698"/><use href="#g4" x="7984"/><use href="#g5" x="8395"/><use href="#g11" x="8691"/><use href="#g6" x="9251"/><use href="#g19" x="9731"/><use href="#g1" x="10202"/><use href="#g5" x="10728"/><use href="#g13" x="11024"/><use href="#g14" x="11559"/><use href="#g5" x="12140"/><use href="#g16" x="12436"/><use href="#g25" x="12799"/><use href="#g8" x="13373"/><use href="#g5" x="13835"/><use href="#g24" x="14131"/><use href="#g8" x="14461"/><use href="#g12" x="14923"/></g>
  <g fill="#173F42" transform="translate(24 103) scale(0.0168 -0.0168)"><use href="#g0" x="0"/><use href="#g1" x="549"/><use href="#g2" x="1075"/><use href="#g3" x="1368"/><use href="#g3" x="1654"/><use href="#g4" x="1940"/><use href="#g5" x="2351"/><use href="#g16" x="2647"/><use href="#g25" x="3010"/><use href="#g6" x="3584"/><use href="#g16" x="4064"/><use href="#g5" x="4427"/><use href="#g6" x="4723"/><use href="#g7" x="5203"/><use href="#g8" x="5594"/><use href="#g5" x="6056"/><use href="#g8" x="6352"/><use href="#g6" x="6814"/><use href="#g4" x="7294"/><use href="#g2" x="7705"/><use href="#g8" x="7998"/><use href="#g4" x="8460"/><use href="#g16" x="8871"/><use href="#g5" x="9234"/><use href="#g16" x="9530"/><use href="#g13" x="9893"/><use href="#g5" x="10428"/><use href="#g16" x="10724"/><use href="#g7" x="11087"/><use href="#g2" x="11478"/><use href="#g15" x="11771"/><use href="#g15" x="12267"/><use href="#g8" x="12763"/><use href="#g7" x="13225"/><use href="#g23" x="13616"/></g>
  <g fill="#173F42" transform="translate(24 126) scale(0.0168 -0.0168)"><use href="#g12" x="0"/><use href="#g25" x="708"/><use href="#g2" x="1282"/><use href="#g3" x="1575"/><use href="#g8" x="1861"/><use href="#g5" x="2323"/><use href="#g16" x="2619"/><use href="#g25" x="2982"/><use href="#g8" x="3556"/><use href="#g5" x="4018"/><use href="#g7" x="4314"/><use href="#g8" x="4705"/><use href="#g4" x="5167"/><use href="#g16" x="5578"/><use href="#g5" x="5941"/><use href="#g7" x="6237"/><use href="#g6" x="6628"/><use href="#g7" x="7108"/><use href="#g8" x="7499"/><use href="#g3" x="7961"/><use href="#g26" x="8247"/><use href="#g5" x="8719"/><use href="#g8" x="9015"/><use href="#g14" x="9477"/><use href="#g16" x="10058"/><use href="#g8" x="10421"/><use href="#g7" x="10883"/><use href="#g5" x="11274"/><use href="#g16" x="11570"/><use href="#g25" x="11933"/><use href="#g8" x="12507"/><use href="#g5" x="12969"/><use href="#g21" x="13265"/><use href="#g3" x="13832"/><use href="#g6" x="14118"/><use href="#g14" x="14598"/><use href="#g17" x="15179"/></g>
  <g fill="#173F42" transform="translate(24 149) scale(0.0168 -0.0168)"><use href="#g27" x="0"/><use href="#g25" x="955"/><use href="#g8" x="1529"/><use href="#g14" x="1991"/><use href="#g5" x="2572"/><use href="#g4" x="2868"/><use href="#g8" x="3279"/><use href="#g9" x="3741"/><use href="#g8" x="4205"/><use href="#g7" x="4667"/><use href="#g6" x="5058"/><use href="#g3" x="5538"/><use href="#g5" x="5824"/><use href="#g0" x="6120"/><use href="#g1" x="6669"/><use href="#g2" x="7195"/><use href="#g3" x="7488"/><use href="#g3" x="7774"/><use href="#g4" x="8060"/><use href="#g5" x="8471"/><use href="#g16" x="8767"/><use href="#g6" x="9130"/><use href="#g1" x="9610"/><use href="#g8" x="10136"/><use href="#g5" x="10598"/><use href="#g21" x="10894"/><use href="#g6" x="11461"/><use href="#g7" x="11941"/><use href="#g16" x="12332"/><use href="#g23" x="12695"/></g>
  <g fill="#173F42" transform="translate(24 172) scale(0.0168 -0.0168)"><use href="#g7" x="0"/><use href="#g8" x="391"/><use href="#g4" x="853"/><use href="#g21" x="1264"/><use href="#g13" x="1831"/><use href="#g14" x="2366"/><use href="#g4" x="2947"/><use href="#g2" x="3358"/><use href="#g11" x="3651"/><use href="#g2" x="4211"/><use href="#g3" x="4504"/><use href="#g2" x="4790"/><use href="#g16" x="5083"/><use href="#g2" x="5446"/><use href="#g8" x="5739"/><use href="#g4" x="6201"/><use href="#g5" x="6612"/><use href="#g6" x="6908"/><use href="#g14" x="7388"/><use href="#g28" x="7969"/><use href="#g5" x="8533"/><use href="#g13" x="8829"/><use href="#g10" x="9364"/><use href="#g16" x="9931"/><use href="#g21" x="10294"/><use href="#g10" x="10861"/><use href="#g16" x="11428"/><use href="#g4" x="11791"/><use href="#g5" x="12202"/><use href="#g19" x="12498"/><use href="#g6" x="12969"/><use href="#g14" x="13449"/><use href="#g5" x="14030"/><use href="#g6" x="14326"/><use href="#g3" x="14806"/><use href="#g4" x="15092"/><use href="#g13" x="15503"/></g>
  <g fill="#173F42" transform="translate(24 195) scale(0.0168 -0.0168)"><use href="#g24" x="0"/><use href="#g6" x="330"/><use href="#g2" x="810"/><use href="#g3" x="1103"/><use href="#g5" x="1389"/><use href="#g16" x="1685"/><use href="#g13" x="2048"/><use href="#g5" x="2583"/><use href="#g19" x="2879"/><use href="#g13" x="3350"/><use href="#g14" x="3885"/><use href="#g14" x="4466"/><use href="#g8" x="5047"/><use href="#g19" x="5509"/><use href="#g16" x="5980"/><use href="#g17" x="6343"/></g>
  <g fill="#173F42" transform="translate(36 228) scale(0.0168 -0.0168)"><use href="#g29" x="0"/><use href="#g2" x="589"/><use href="#g11" x="882"/><use href="#g8" x="1442"/><use href="#g0" x="1904"/><use href="#g1" x="2453"/><use href="#g2" x="2979"/><use href="#g3" x="3272"/><use href="#g3" x="3558"/><use href="#g4" x="3844"/><use href="#g5" x="4255"/><use href="#g13" x="4551"/><use href="#g7" x="5086"/><use href="#g15" x="5477"/><use href="#g6" x="5973"/><use href="#g14" x="6453"/><use href="#g2" x="7034"/><use href="#g30" x="7327"/><use href="#g8" x="7797"/><use href="#g4" x="8259"/><use href="#g5" x="8670"/><use href="#g16" x="8966"/><use href="#g25" x="9329"/><use href="#g8" x="9903"/><use href="#g4" x="10365"/><use href="#g8" x="10776"/><use href="#g5" x="11238"/><use href="#g7" x="11534"/><use href="#g8" x="11925"/><use href="#g4" x="12387"/><use href="#g13" x="12798"/><use href="#g10" x="13333"/><use href="#g7" x="13900"/><use href="#g19" x="14291"/><use href="#g8" x="14762"/><use href="#g4" x="15224"/></g>
  <g fill="#173F42" transform="translate(24 251) scale(0.0168 -0.0168)"><use href="#g16" x="0"/><use href="#g25" x="363"/><use href="#g7" x="937"/><use href="#g13" x="1328"/><use href="#g10" x="1863"/><use href="#g15" x="2430"/><use href="#g25" x="2926"/><use href="#g5" x="3500"/><use href="#g6" x="3796"/><use href="#g5" x="4276"/><use href="#g4" x="4572"/><use href="#g16" x="4983"/><use href="#g7" x="5346"/><use href="#g10" x="5737"/><use href="#g19" x="6304"/><use href="#g16" x="6775"/><use href="#g10" x="7138"/><use href="#g7" x="7705"/><use href="#g8" x="8096"/><use href="#g28" x="8558"/><use href="#g23" x="9122"/><use href="#g5" x="9294"/><use href="#g25" x="9590"/><use href="#g13" x="10164"/><use href="#g4" x="10699"/><use href="#g16" x="11110"/><use href="#g31" x="11473"/><use href="#g14" x="11781"/><use href="#g8" x="12362"/><use href="#g10" x="12824"/><use href="#g16" x="13391"/><use href="#g7" x="13754"/><use href="#g6" x="14145"/><use href="#g3" x="14625"/></g>
  <g fill="#173F42" transform="translate(24 274) scale(0.0168 -0.0168)"><use href="#g25" x="0"/><use href="#g6" x="574"/><use href="#g7" x="1054"/><use href="#g14" x="1445"/><use href="#g8" x="2026"/><use href="#g4" x="2488"/><use href="#g4" x="2899"/><use href="#g17" x="3310"/><use href="#g5" x="3504"/><use href="#g32" x="3800"/><use href="#g16" x="4175"/><use href="#g5" x="4538"/><use href="#g19" x="4834"/><use href="#g6" x="5305"/><use href="#g14" x="5785"/><use href="#g5" x="6366"/><use href="#g11" x="6662"/><use href="#g8" x="7222"/><use href="#g5" x="7684"/><use href="#g10" x="7980"/><use href="#g4" x="8547"/><use href="#g8" x="8958"/><use href="#g28" x="9420"/><use href="#g5" x="9984"/><use href="#g2" x="10280"/><use href="#g14" x="10573"/><use href="#g5" x="11154"/><use href="#g6" x="11450"/><use href="#g14" x="11930"/><use href="#g26" x="12511"/><use href="#g5" x="12983"/><use href="#g33" x="13279"/><use href="#g32" x="13914"/></g>
  <g fill="#173F42" transform="translate(24 297) scale(0.0168 -0.0168)"><use href="#g6" x="0"/><use href="#g21" x="480"/><use href="#g21" x="1047"/><use href="#g3" x="1614"/><use href="#g2" x="1900"/><use href="#g19" x="2193"/><use href="#g6" x="2664"/><use href="#g16" x="3144"/><use href="#g2" x="3507"/><use href="#g13" x="3800"/><use href="#g14" x="4335"/><use href="#g5" x="4916"/><use href="#g16" x="5212"/><use href="#g25" x="5575"/><use href="#g6" x="6149"/><use href="#g16" x="6629"/><use href="#g5" x="6992"/><use href="#g4" x="7288"/><use href="#g10" x="7699"/><use href="#g21" x="8266"/><use href="#g21" x="8833"/><use href="#g13" x="9400"/><use href="#g7" x="9935"/><use href="#g16" x="10326"/><use href="#g4" x="10689"/><use href="#g5" x="11100"/><use href="#g3" x="11396"/><use href="#g13" x="11682"/><use href="#g19" x="12217"/><use href="#g6" x="12688"/><use href="#g3" x="13168"/><use href="#g5" x="13454"/><use href="#g0" x="13750"/><use href="#g1" x="14299"/><use href="#g2" x="14825"/><use href="#g3" x="15118"/><use href="#g3" x="15404"/><use href="#g4" x="15690"/><use href="#g17" x="16101"/></g>
  <g fill="#173F42" transform="translate(36 330) scale(0.0168 -0.0168)"><use href="#g32" x="0"/><use href="#g16" x="375"/><use href="#g5" x="738"/><use href="#g28" x="1034"/><use href="#g7" x="1598"/><use href="#g6" x="1989"/><use href="#g12" x="2469"/><use href="#g4" x="3177"/><use href="#g5" x="3588"/><use href="#g13" x="3884"/><use href="#g14" x="4419"/><use href="#g5" x="5000"/><use href="#g16" x="5296"/><use href="#g25" x="5659"/><use href="#g8" x="6233"/><use href="#g5" x="6695"/><use href="#g25" x="6991"/><use href="#g6" x="7565"/><use href="#g7" x="8045"/><use href="#g14" x="8436"/><use href="#g8" x="9017"/><use href="#g4" x="9479"/><use href="#g4" x="9890"/><use href="#g5" x="10301"/><use href="#g6" x="10597"/><use href="#g21" x="11077"/><use href="#g21" x="11644"/><use href="#g7" x="12211"/><use href="#g13" x="12602"/><use href="#g6" x="13137"/><use href="#g19" x="13617"/><use href="#g25" x="14088"/><use href="#g8" x="14662"/><use href="#g4" x="15124"/><use href="#g5" x="15535"/><use href="#g13" x="15831"/><use href="#g24" x="16366"/></g>
  <g fill="#173F42" transform="translate(24 353) scale(0.0168 -0.0168)"><use href="#g0" x="0"/><use href="#g10" x="549"/><use href="#g21" x="1116"/><use href="#g8" x="1683"/><use href="#g7" x="2145"/><use href="#g21" x="2536"/><use href="#g13" x="3103"/><use href="#g12" x="3638"/><use href="#g8" x="4346"/><use href="#g7" x="4808"/><use href="#g4" x="5199"/><use href="#g5" x="5610"/><use href="#g6" x="5906"/><use href="#g14" x="6386"/><use href="#g28" x="6967"/><use href="#g5" x="7531"/><use href="#g34" x="7827"/><use href="#g0" x="8547"/><use href="#g35" x="9096"/><use href="#g31" x="9861"/><use href="#g36" x="10169"/><use href="#g2" x="10732"/><use href="#g16" x="11025"/><use href="#g8" x="11388"/><use href="#g23" x="11850"/><use href="#g5" x="12022"/><use href="#g12" x="12318"/><use href="#g2" x="13026"/><use href="#g16" x="13319"/><use href="#g25" x="13682"/><use href="#g5" x="14256"/><use href="#g6" x="14552"/><use href="#g5" x="15032"/><use href="#g19" x="15328"/><use href="#g13" x="15799"/><use href="#g20" x="16334"/><use href="#g21" x="17187"/><use href="#g3" x="17754"/><use href="#g8" x="18040"/><use href="#g16" x="18502"/><use href="#g8" x="18865"/></g>
  <g fill="#173F42" transform="translate(24 376) scale(0.0168 -0.0168)"><use href="#g12" x="0"/><use href="#g13" x="708"/><use href="#g7" x="1243"/><use href="#g1" x="1634"/><use href="#g37" x="2160"/><use href="#g13" x="2764"/><use href="#g12" x="3299"/><use href="#g5" x="4007"/><use href="#g6" x="4303"/><use href="#g14" x="4783"/><use href="#g28" x="5364"/><use href="#g5" x="5928"/><use href="#g4" x="6224"/><use href="#g16" x="6635"/><use href="#g6" x="6998"/><use href="#g16" x="7478"/><use href="#g8" x="7841"/><use href="#g5" x="8303"/><use href="#g20" x="8599"/><use href="#g6" x="9452"/><use href="#g19" x="9932"/><use href="#g25" x="10403"/><use href="#g2" x="10977"/><use href="#g14" x="11270"/><use href="#g8" x="11851"/><use href="#g5" x="12313"/><use href="#g16" x="12609"/><use href="#g25" x="12972"/><use href="#g6" x="13546"/><use href="#g16" x="14026"/><use href="#g5" x="14389"/><use href="#g11" x="14685"/><use href="#g7" x="15245"/><use href="#g2" x="15636"/><use href="#g14" x="15929"/><use href="#g15" x="16510"/></g>
  <g fill="#173F42" transform="translate(24 399) scale(0.0168 -0.0168)"><use href="#g7" x="0"/><use href="#g8" x="391"/><use href="#g38" x="853"/><use href="#g10" x="1401"/><use href="#g2" x="1968"/><use href="#g7" x="2261"/><use href="#g8" x="2652"/><use href="#g20" x="3114"/><use href="#g8" x="3967"/><use href="#g14" x="4429"/><use href="#g16" x="5010"/><use href="#g5" x="5373"/><use href="#g19" x="5669"/><use href="#g13" x="6140"/><use href="#g14" x="6675"/><use href="#g39" x="7256"/><use href="#g7" x="7858"/><use href="#g20" x="8249"/><use href="#g6" x="9102"/><use href="#g16" x="9582"/><use href="#g2" x="9945"/><use href="#g13" x="10238"/><use href="#g14" x="10773"/><use href="#g23" x="11354"/></g>
  <g fill="#173F42" transform="translate(24 422) scale(0.0168 -0.0168)"><use href="#g8" x="0"/><use href="#g22" x="462"/><use href="#g8" x="941"/><use href="#g19" x="1403"/><use href="#g10" x="1874"/><use href="#g16" x="2441"/><use href="#g2" x="2804"/><use href="#g13" x="3097"/><use href="#g14" x="3632"/><use href="#g5" x="4213"/><use href="#g21" x="4509"/><use href="#g3" x="5076"/><use href="#g6" x="5362"/><use href="#g14" x="5842"/><use href="#g14" x="6423"/><use href="#g2" x="7004"/><use href="#g14" x="7297"/><use href="#g15" x="7878"/><use href="#g23" x="8374"/><use href="#g5" x="8546"/><use href="#g0" x="8842"/><use href="#g1" x="9391"/><use href="#g2" x="9917"/><use href="#g3" x="10210"/><use href="#g3" x="10496"/><use href="#g5" x="10782"/><use href="#g13" x="11078"/><use href="#g7" x="11613"/><use href="#g15" x="12004"/><use href="#g6" x="12500"/><use href="#g14" x="12980"/><use href="#g2" x="13561"/><use href="#g30" x="13854"/><use href="#g6" x="14324"/><use href="#g16" x="14804"/><use href="#g2" x="15167"/><use href="#g13" x="15460"/><use href="#g14" x="15995"/><use href="#g23" x="16576"/></g>
  <g fill="#173F42" transform="translate(24 445) scale(0.0168 -0.0168)"><use href="#g25" x="0"/><use href="#g6" x="574"/><use href="#g7" x="1054"/><use href="#g14" x="1445"/><use href="#g8" x="2026"/><use href="#g4" x="2488"/><use href="#g4" x="2899"/><use href="#g31" x="3310"/><use href="#g15" x="3618"/><use href="#g10" x="4114"/><use href="#g2" x="4681"/><use href="#g28" x="4974"/><use href="#g8" x="5538"/><use href="#g28" x="6000"/><use href="#g5" x="6564"/><use href="#g8" x="6860"/><use href="#g22" x="7322"/><use href="#g8" x="7801"/><use href="#g19" x="8263"/><use href="#g10" x="8734"/><use href="#g16" x="9301"/><use href="#g2" x="9664"/><use href="#g13" x="9957"/><use href="#g14" x="10492"/><use href="#g23" x="11073"/><use href="#g5" x="11245"/><use href="#g16" x="11541"/><use href="#g8" x="11904"/><use href="#g4" x="12366"/><use href="#g16" x="12777"/><use href="#g2" x="13140"/><use href="#g14" x="13433"/><use href="#g15" x="14014"/><use href="#g23" x="14510"/></g>
  <g fill="#173F42" transform="translate(24 468) scale(0.0168 -0.0168)"><use href="#g6" x="0"/><use href="#g14" x="480"/><use href="#g28" x="1061"/><use href="#g5" x="1625"/><use href="#g8" x="1921"/><use href="#g9" x="2383"/><use href="#g6" x="2847"/><use href="#g3" x="3327"/><use href="#g10" x="3613"/><use href="#g6" x="4180"/><use href="#g16" x="4660"/><use href="#g2" x="5023"/><use href="#g13" x="5316"/><use href="#g14" x="5851"/><use href="#g5" x="6432"/><use href="#g16" x="6728"/><use href="#g13" x="7091"/><use href="#g15" x="7626"/><use href="#g8" x="8122"/><use href="#g16" x="8584"/><use href="#g25" x="8947"/><use href="#g8" x="9521"/><use href="#g7" x="9983"/><use href="#g17" x="10374"/></g>
  <g fill="#4A4946" transform="translate(51.75 512) scale(0.0172 -0.0172)"><use href="#g40" x="0"/><use href="#g41" x="574"/><use href="#g42" x="1059"/><use href="#g43" x="1456"/><use href="#g44" x="1686"/><use href="#g45" x="2122"/><use href="#g46" x="2586"/><use href="#g47" x="3098"/><use href="#g43" x="3362"/><use href="#g48" x="3592"/><use href="#g49" x="3880"/><use href="#g43" x="4256"/><use href="#g50" x="4486"/><use href="#g45" x="4770"/><use href="#g43" x="5234"/><use href="#g44" x="5464"/><use href="#g48" x="5900"/><use href="#g51" x="6188"/><use href="#g42" x="6626"/><use href="#g43" x="7023"/><use href="#g52" x="7253"/><use href="#g49" x="7750"/><use href="#g42" x="8126"/><use href="#g53" x="8523"/><use href="#g49" x="8880"/><use href="#g43" x="9256"/><use href="#g46" x="9486"/><use href="#g54" x="9998"/><use href="#g43" x="10507"/><use href="#g42" x="10737"/><use href="#g54" x="11134"/><use href="#g55" x="11643"/><use href="#g56" x="12150"/><use href="#g50" x="12451"/><use href="#g45" x="12735"/><use href="#g56" x="13199"/><use href="#g42" x="13500"/><use href="#g54" x="13897"/><use href="#g55" x="14406"/></g>
  <g fill="#4A4946" transform="translate(36.54 536) scale(0.0172 -0.0172)"><use href="#g55" x="0"/><use href="#g42" x="507"/><use href="#g47" x="904"/><use href="#g48" x="1168"/><use href="#g51" x="1456"/><use href="#g42" x="1894"/><use href="#g53" x="2291"/><use href="#g57" x="2648"/><use href="#g43" x="3043"/><use href="#g42" x="3273"/><use href="#g58" x="3670"/><use href="#g59" x="4109"/><use href="#g42" x="4615"/><use href="#g53" x="5012"/><use href="#g48" x="5369"/><use href="#g42" x="5657"/><use href="#g54" x="6054"/><use href="#g60" x="6563"/><use href="#g42" x="6953"/><use href="#g43" x="7350"/><use href="#g61" x="7580"/><use href="#g45" x="7861"/><use href="#g53" x="8325"/><use href="#g43" x="8682"/><use href="#g60" x="8912"/><use href="#g45" x="9302"/><use href="#g54" x="9766"/><use href="#g60" x="10275"/><use href="#g53" x="10665"/><use href="#g42" x="11022"/><use href="#g50" x="11419"/><use href="#g42" x="11703"/><use href="#g43" x="12100"/><use href="#g50" x="12330"/><use href="#g46" x="12614"/><use href="#g49" x="13126"/><use href="#g62" x="13502"/><use href="#g49" x="13958"/><use href="#g43" x="14334"/><use href="#g63" x="14564"/><use href="#g41" x="15247"/><use href="#g48" x="15732"/><use href="#g47" x="16020"/><use href="#g42" x="16284"/></g>
  <g fill="#4A4946" transform="translate(40.28 560) scale(0.0172 -0.0172)"><use href="#g47" x="0"/><use href="#g45" x="264"/><use href="#g63" x="728"/><use href="#g42" x="1411"/><use href="#g53" x="1808"/><use href="#g48" x="2165"/><use href="#g54" x="2453"/><use href="#g44" x="2962"/><use href="#g43" x="3398"/><use href="#g50" x="3628"/><use href="#g41" x="3912"/><use href="#g42" x="4397"/><use href="#g43" x="4794"/><use href="#g60" x="5024"/><use href="#g45" x="5414"/><use href="#g44" x="5878"/><use href="#g54" x="6314"/><use href="#g48" x="6823"/><use href="#g50" x="7111"/><use href="#g48" x="7395"/><use href="#g51" x="7683"/><use href="#g42" x="8121"/><use href="#g43" x="8518"/><use href="#g64" x="8748"/><use href="#g52" x="9236"/><use href="#g53" x="9733"/><use href="#g55" x="10090"/><use href="#g42" x="10597"/><use href="#g54" x="10994"/><use href="#g43" x="11503"/><use href="#g46" x="11733"/><use href="#g54" x="12245"/><use href="#g55" x="12754"/><use href="#g43" x="13261"/><use href="#g64" x="13491"/><use href="#g46" x="13979"/><use href="#g53" x="14491"/><use href="#g53" x="14848"/><use href="#g48" x="15205"/><use href="#g42" x="15493"/><use href="#g53" x="15890"/></g>
  <g fill="#4A4946" transform="translate(142.55 584) scale(0.0172 -0.0172)"><use href="#g50" x="0"/><use href="#g45" x="284"/><use href="#g43" x="748"/><use href="#g52" x="978"/><use href="#g49" x="1475"/><use href="#g48" x="1851"/><use href="#g54" x="2139"/><use href="#g44" x="2648"/><use href="#g43" x="3084"/><use href="#g65" x="3314"/><use href="#g66" x="3881"/><use href="#g67" x="4165"/></g>
  <g fill="#4A4946" transform="translate(46.69 622) scale(0.0172 -0.0172)"><use href="#g68" x="0"/><use href="#g49" x="721"/><use href="#g42" x="1097"/><use href="#g53" x="1494"/><use href="#g49" x="1851"/><use href="#g43" x="2227"/><use href="#g49" x="2457"/><use href="#g41" x="2833"/><use href="#g45" x="3318"/><use href="#g52" x="3782"/><use href="#g47" x="4279"/><use href="#g55" x="4543"/><use href="#g43" x="5050"/><use href="#g54" x="5280"/><use href="#g45" x="5789"/><use href="#g50" x="6253"/><use href="#g43" x="6537"/><use href="#g41" x="6767"/><use href="#g46" x="7252"/><use href="#g51" x="7764"/><use href="#g42" x="8202"/><use href="#g43" x="8599"/><use href="#g50" x="8829"/><use href="#g45" x="9113"/><use href="#g43" x="9577"/><use href="#g63" x="9807"/><use href="#g45" x="10490"/><use href="#g53" x="10954"/><use href="#g53" x="11311"/><use href="#g57" x="11668"/><use href="#g43" x="12063"/><use href="#g50" x="12293"/><use href="#g41" x="12577"/><use href="#g46" x="13062"/><use href="#g50" x="13574"/><use href="#g43" x="13858"/><use href="#g47" x="14088"/><use href="#g42" x="14352"/><use href="#g49" x="14749"/><use href="#g49" x="15125"/></g>
  <g fill="#4A4946" transform="translate(59.61 646) scale(0.0172 -0.0172)"><use href="#g69" x="0"/><use href="#g42" x="622"/><use href="#g70" x="1019"/><use href="#g52" x="1495"/><use href="#g42" x="1992"/><use href="#g54" x="2389"/><use href="#g50" x="2898"/><use href="#g47" x="3182"/><use href="#g57" x="3446"/><use href="#g43" x="3841"/><use href="#g52" x="4071"/><use href="#g49" x="4568"/><use href="#g42" x="4944"/><use href="#g55" x="5341"/><use href="#g43" x="5848"/><use href="#g71" x="6078"/><use href="#g62" x="6591"/><use href="#g48" x="7047"/><use href="#g47" x="7335"/><use href="#g47" x="7599"/><use href="#g49" x="7863"/><use href="#g43" x="8239"/><use href="#g63" x="8469"/><use href="#g48" x="9152"/><use href="#g47" x="9440"/><use href="#g47" x="9704"/><use href="#g43" x="9968"/><use href="#g49" x="10198"/><use href="#g48" x="10574"/><use href="#g50" x="10862"/><use href="#g43" x="11146"/><use href="#g48" x="11376"/><use href="#g55" x="11664"/><use href="#g47" x="12171"/><use href="#g42" x="12435"/><use href="#g72" x="12772"/><use href="#g43" x="12948"/><use href="#g45" x="13178"/><use href="#g53" x="13642"/></g>
  <g fill="#4A4946" transform="translate(33.91 670) scale(0.0172 -0.0172)"><use href="#g53" x="0"/><use href="#g42" x="357"/><use href="#g59" x="754"/><use href="#g42" x="1260"/><use href="#g46" x="1657"/><use href="#g50" x="2169"/><use href="#g42" x="2453"/><use href="#g55" x="2850"/><use href="#g47" x="3357"/><use href="#g57" x="3621"/><use href="#g43" x="4016"/><use href="#g53" x="4246"/><use href="#g42" x="4603"/><use href="#g73" x="5000"/><use href="#g42" x="5729"/><use href="#g73" x="6126"/><use href="#g64" x="6855"/><use href="#g42" x="7343"/><use href="#g53" x="7740"/><use href="#g43" x="8097"/><use href="#g63" x="8327"/><use href="#g41" x="9010"/><use href="#g48" x="9495"/><use href="#g60" x="9783"/><use href="#g41" x="10173"/><use href="#g43" x="10658"/><use href="#g71" x="10888"/><use href="#g62" x="11401"/><use href="#g48" x="11857"/><use href="#g47" x="12145"/><use href="#g47" x="12409"/><use href="#g49" x="12673"/><use href="#g43" x="13049"/><use href="#g49" x="13279"/><use href="#g41" x="13655"/><use href="#g45" x="14140"/><use href="#g52" x="14604"/><use href="#g47" x="15101"/><use href="#g55" x="15365"/><use href="#g43" x="15872"/><use href="#g64" x="16102"/><use href="#g42" x="16590"/></g>
  <g fill="#4A4946" transform="translate(113.63 694) scale(0.0172 -0.0172)"><use href="#g52" x="0"/><use href="#g49" x="497"/><use href="#g42" x="873"/><use href="#g55" x="1270"/><use href="#g43" x="1777"/><use href="#g61" x="2007"/><use href="#g45" x="2288"/><use href="#g53" x="2752"/><use href="#g43" x="3109"/><use href="#g63" x="3339"/><use href="#g41" x="4022"/><use href="#g48" x="4507"/><use href="#g60" x="4795"/><use href="#g41" x="5185"/><use href="#g43" x="5670"/><use href="#g50" x="5900"/><use href="#g46" x="6184"/><use href="#g49" x="6696"/><use href="#g62" x="7072"/><use href="#g67" x="7528"/></g>
</svg>
