<svg xmlns="http://www.w3.org/2000/svg" viewBox="0 0 960 136" role="img" aria-labelledby="title">
  <title id="title">任务中断后怎样继续，完成后怎样复查</title>
  <metadata>Lettering derived from Noto Serif SC and Bodoni Moda, licensed under SIL Open Font License 1.1.</metadata>
  <path d="M42.81775333683253 0V24.65867075851346H262.75252166307246V1475.3413292414866H42.81775333683253V1500H789.0523839848793V1475.3413292414866H549.1129003189178V24.65867075851346H789.0523839848793V0Z" fill="#8A7448" transform="translate(466.045 21.000) scale(0.011000 -0.011000)"/>
  <path d="M1531.0840170299125 1500V1475.3413292414866H1352.681189509989L814.2792503002141 -29.409752264042474H709.1719666161496L186.89102883592102 1475.3413292414866H39.05390986378551V1500H731.0522008794105V1475.3413292414866H518.6532243597493L901.9149200630648 292.43132866657527L1324.2254201088174 1475.3413292414866H1079.4068414048213V1500Z" fill="#8A7448" transform="translate(476.686 21.000) scale(0.011000 -0.011000)"/>
  <path d="M135 34 H420" fill="none" stroke="#4A4946" stroke-width="0.75"/>
  <path d="M135.00 34.00 L137.97 35.19 L140.94 36.19 L143.91 36.86 L146.88 37.10 L149.84 36.86 L152.81 36.19 L155.78 35.19 L158.75 34.00 L161.72 32.81 L164.69 31.81 L167.66 31.14 L170.62 30.90 L173.59 31.14 L176.56 31.81 L179.53 32.81 L182.50 34.00 L185.47 35.19 L188.44 36.19 L191.41 36.86 L194.38 37.10 L197.34 36.86 L200.31 36.19 L203.28 35.19 L206.25 34.00 L209.22 32.81 L212.19 31.81 L215.16 31.14 L218.12 30.90 L221.09 31.14 L224.06 31.81 L227.03 32.81 L230.00 34.00 L232.97 35.19 L235.94 36.19 L238.91 36.86 L241.88 37.10 L244.84 36.86 L247.81 36.19 L250.78 35.19 L253.75 34.00 L256.72 32.81 L259.69 31.81 L262.66 31.14 L265.62 30.90 L268.59 31.14 L271.56 31.81 L274.53 32.81 L277.50 34.00 L280.47 35.19 L283.44 36.19 L286.41 36.86 L289.38 37.10 L292.34 36.86 L295.31 36.19 L298.28 35.19 L301.25 34.00 L304.22 32.81 L307.19 31.81 L310.16 31.14 L313.12 30.90 L316.09 31.14 L319.06 31.81 L322.03 32.81 L325.00 34.00 L327.97 35.19 L330.94 36.19 L333.91 36.86 L336.88 37.10 L339.84 36.86 L342.81 36.19 L345.78 35.19 L348.75 34.00 L351.72 32.81 L354.69 31.81 L357.66 31.14 L360.62 30.90 L363.59 31.14 L366.56 31.81 L369.53 32.81 L372.50 34.00 L375.47 35.19 L378.44 36.19 L381.41 36.86 L384.38 37.10 L387.34 36.86 L390.31 36.19 L393.28 35.19 L396.25 34.00 L399.22 32.81 L402.19 31.81 L405.16 31.14 L408.12 30.90 L411.09 31.14 L414.06 31.81 L417.03 32.81 L420.00 34.00" fill="none" stroke="#8A7448" stroke-opacity="0.86" stroke-width="0.72"/>
  <path d="M135.00 34.00 L137.97 32.81 L140.94 31.81 L143.91 31.14 L146.88 30.90 L149.84 31.14 L152.81 31.81 L155.78 32.81 L158.75 34.00 L161.72 35.19 L164.69 36.19 L167.66 36.86 L170.62 37.10 L173.59 36.86 L176.56 36.19 L179.53 35.19 L182.50 34.00 L185.47 32.81 L188.44 31.81 L191.41 31.14 L194.38 30.90 L197.34 31.14 L200.31 31.81 L203.28 32.81 L206.25 34.00 L209.22 35.19 L212.19 36.19 L215.16 36.86 L218.12 37.10 L221.09 36.86 L224.06 36.19 L227.03 35.19 L230.00 34.00 L232.97 32.81 L235.94 31.81 L238.91 31.14 L241.88 30.90 L244.84 31.14 L247.81 31.81 L250.78 32.81 L253.75 34.00 L256.72 35.19 L259.69 36.19 L262.66 36.86 L265.62 37.10 L268.59 36.86 L271.56 36.19 L274.53 35.19 L277.50 34.00 L280.47 32.81 L283.44 31.81 L286.41 31.14 L289.38 30.90 L292.34 31.14 L295.31 31.81 L298.28 32.81 L301.25 34.00 L304.22 35.19 L307.19 36.19 L310.16 36.86 L313.12 37.10 L316.09 36.86 L319.06 36.19 L322.03 35.19 L325.00 34.00 L327.97 32.81 L330.94 31.81 L333.91 31.14 L336.88 30.90 L339.84 31.14 L342.81 31.81 L345.78 32.81 L348.75 34.00 L351.72 35.19 L354.69 36.19 L357.66 36.86 L360.62 37.10 L363.59 36.86 L366.56 36.19 L369.53 35.19 L372.50 34.00 L375.47 32.81 L378.44 31.81 L381.41 31.14 L384.38 30.90 L387.34 31.14 L390.31 31.81 L393.28 32.81 L396.25 34.00 L399.22 35.19 L402.19 36.19 L405.16 36.86 L408.12 37.10 L411.09 36.86 L414.06 36.19 L417.03 35.19 L420.00 34.00" fill="none" stroke="#5A3037" stroke-opacity="0.72" stroke-width="0.62"/>
  <path d="M163 40 H392" fill="none" stroke="#4A4946" stroke-opacity="0.58" stroke-width="0.55"/>
  <path d="M540 34 H825" fill="none" stroke="#4A4946" stroke-width="0.75"/>
  <path d="M540.00 34.00 L542.97 35.19 L545.94 36.19 L548.91 36.86 L551.88 37.10 L554.84 36.86 L557.81 36.19 L560.78 35.19 L563.75 34.00 L566.72 32.81 L569.69 31.81 L572.66 31.14 L575.62 30.90 L578.59 31.14 L581.56 31.81 L584.53 32.81 L587.50 34.00 L590.47 35.19 L593.44 36.19 L596.41 36.86 L599.38 37.10 L602.34 36.86 L605.31 36.19 L608.28 35.19 L611.25 34.00 L614.22 32.81 L617.19 31.81 L620.16 31.14 L623.12 30.90 L626.09 31.14 L629.06 31.81 L632.03 32.81 L635.00 34.00 L637.97 35.19 L640.94 36.19 L643.91 36.86 L646.88 37.10 L649.84 36.86 L652.81 36.19 L655.78 35.19 L658.75 34.00 L661.72 32.81 L664.69 31.81 L667.66 31.14 L670.62 30.90 L673.59 31.14 L676.56 31.81 L679.53 32.81 L682.50 34.00 L685.47 35.19 L688.44 36.19 L691.41 36.86 L694.38 37.10 L697.34 36.86 L700.31 36.19 L703.28 35.19 L706.25 34.00 L709.22 32.81 L712.19 31.81 L715.16 31.14 L718.12 30.90 L721.09 31.14 L724.06 31.81 L727.03 32.81 L730.00 34.00 L732.97 35.19 L735.94 36.19 L738.91 36.86 L741.88 37.10 L744.84 36.86 L747.81 36.19 L750.78 35.19 L753.75 34.00 L756.72 32.81 L759.69 31.81 L762.66 31.14 L765.62 30.90 L768.59 31.14 L771.56 31.81 L774.53 32.81 L777.50 34.00 L780.47 35.19 L783.44 36.19 L786.41 36.86 L789.38 37.10 L792.34 36.86 L795.31 36.19 L798.28 35.19 L801.25 34.00 L804.22 32.81 L807.19 31.81 L810.16 31.14 L813.12 30.90 L816.09 31.14 L819.06 31.81 L822.03 32.81 L825.00 34.00" fill="none" stroke="#8A7448" stroke-opacity="0.86" stroke-width="0.72"/>
  <path d="M540.00 34.00 L542.97 32.81 L545.94 31.81 L548.91 31.14 L551.88 30.90 L554.84 31.14 L557.81 31.81 L560.78 32.81 L563.75 34.00 L566.72 35.19 L569.69 36.19 L572.66 36.86 L575.62 37.10 L578.59 36.86 L581.56 36.19 L584.53 35.19 L587.50 34.00 L590.47 32.81 L593.44 31.81 L596.41 31.14 L599.38 30.90 L602.34 31.14 L605.31 31.81 L608.28 32.81 L611.25 34.00 L614.22 35.19 L617.19 36.19 L620.16 36.86 L623.12 37.10 L626.09 36.86 L629.06 36.19 L632.03 35.19 L635.00 34.00 L637.97 32.81 L640.94 31.81 L643.91 31.14 L646.88 30.90 L649.84 31.14 L652.81 31.81 L655.78 32.81 L658.75 34.00 L661.72 35.19 L664.69 36.19 L667.66 36.86 L670.62 37.10 L673.59 36.86 L676.56 36.19 L679.53 35.19 L682.50 34.00 L685.47 32.81 L688.44 31.81 L691.41 31.14 L694.38 30.90 L697.34 31.14 L700.31 31.81 L703.28 32.81 L706.25 34.00 L709.22 35.19 L712.19 36.19 L715.16 36.86 L718.12 37.10 L721.09 36.86 L724.06 36.19 L727.03 35.19 L730.00 34.00 L732.97 32.81 L735.94 31.81 L738.91 31.14 L741.88 30.90 L744.84 31.14 L747.81 31.81 L750.78 32.81 L753.75 34.00 L756.72 35.19 L759.69 36.19 L762.66 36.86 L765.62 37.10 L768.59 36.86 L771.56 36.19 L774.53 35.19 L777.50 34.00 L780.47 32.81 L783.44 31.81 L786.41 31.14 L789.38 30.90 L792.34 31.14 L795.31 31.81 L798.28 32.81 L801.25 34.00 L804.22 35.19 L807.19 36.19 L810.16 36.86 L813.12 37.10 L816.09 36.86 L819.06 36.19 L822.03 35.19 L825.00 34.00" fill="none" stroke="#5A3037" stroke-opacity="0.72" stroke-width="0.62"/>
  <path d="M568 40 H797" fill="none" stroke="#4A4946" stroke-opacity="0.58" stroke-width="0.55"/>
  <path d="M290.29984625710836 393.7000073210901H822.6004978341253L874.5002562381528 459.8996119822258Q874.5002562381528 459.8996119822258 883.8002123116123 452.2496522482212Q893.1001683850718 444.59969251421666 907.4500988347161 432.54975474348237Q921.8000292843603 420.499816972748 937.7999560734595 406.7998828625588Q953.7998828625588 393.09994875236947 967.1998242938381 380.2999926789099Q965.8998316149282 372.2999926789099 958.5998389360183 368.64999633945496Q951.2998462571084 365 940.9998535781984 365H298.29984625710836ZM311.09987554146863 -7.799882862558736H797.8005417606659L849.600278201423 58.99970715639684Q849.600278201423 58.99970715639684 859.0502306143375 51.34974742239227Q868.500183027252 43.69978768838771 883.3501134768962 31.49985357819842Q898.2000439265405 19.29991946800913 914.1999707156397 5.5999853578198415Q930.1998975047389 -8.099948752369446 943.5998389360183 -21.199897504738892Q941.8998316149282 -28.499890183648816 934.7998462571084 -32.499890183648816Q927.6998608992885 -36.499890183648816 916.6998608992885 -36.499890183648816H319.09987554146863ZM809.1003880177742 817.5997657251174 898.5996925142167 738.3004319443147Q891.399721798577 731.7004465864948 877.6497767067526 731.4004539075848Q863.8998316149282 731.1004612286749 843.2999194680091 738.3004319443147Q778.2999194680091 719.8003953388643 692.3499304496443 701.5003294490537Q606.3999414312793 683.2002635592429 512.0999487523694 668.8501866877971Q417.7999560734595 654.5001098163511 327.09994875236947 646.2000439265405L322.9999267890992 663.2001171374412Q386.59998535781983 676.0000732109008 455.40005124763053 694.3000292843603Q524.2001171374412 712.5999853578198 589.9501720456169 733.6999341101894Q655.7002269537925 754.7998828625588 712.3002855225131 776.4498425965633Q768.9003440912337 798.0998023305679 809.1003880177742 817.5997657251174ZM167.50032944905357 540.8001757061619 200.90012445853134 584.1998975047389 272.0995826978655 558.100095174171Q270.0995826978655 551.100095174171 262.7495790373205 546.4500988347161Q255.39957537677543 541.8001024952611 242.49959734004565 539.5001098163511V-55.40001464218016Q242.19960466113574 -58.29999267890992 232.74968885367164 -64.09994875236944Q223.29977304620755 -69.89990482582897 209.749908486374 -74.74987188092362Q196.20004392654047 -79.59983893601826 181.20019034834206 -79.59983893601826H167.50032944905357ZM251.9004905130353 839.8998316149282 365.49967055094646 804.6000585687207Q362.19967787203655 796.0000732109008 352.89968519312663 790.0000732109008Q343.59969251421666 784.0000732109008 326.59969251421666 785.0000732109008Q292.49974376184724 692.500183027252 248.64981331220298 607.9501720456169Q204.79988286255875 523.4001610639817 153.39997803672978 451.8001024952611Q102.0000732109008 380.2000439265405 44.70022695379245 326.40001464218017L30.90019766943213 336.2000439265405Q73.70022695379245 396.7000073210901 115.40027088033293 477.8499670550946Q157.1003148068734 558.9999267890992 192.50036605450396 651.9998901836489Q227.9004173021345 744.9998535781984 251.9004905130353 839.8998316149282ZM571.3003587334139 718.100095174171H647.7995900189555V-24.29991946800913Q647.4995973400456 -24.29991946800913 630.8497474223923 -24.29991946800913Q614.1998975047389 -24.29991946800913 584.6002049905222 -24.29991946800913H571.3003587334139Z" fill="#173F42" transform="translate(128.300 103.000) scale(0.041000 -0.041000)"/>
  <path d="M559.999633945496 398.40008785308095Q557.5996193033159 385.70008053199086 547.8996119822258 380.10009517417103Q538.1996046611357 374.5001098163512 522.6996412665861 373.5001098163512Q513.3996485876762 295.60013177962145 487.99967055094646 226.0001464218016Q462.59969251421666 156.40016106398173 411.8497474223923 98.10016838507181Q361.09980233056785 39.800175706161895 275.84989384419384 -5.549827954383144Q190.59998535781983 -50.89983161492818 60.900124458531344 -80.99985357819843L53.80010249526111 -67.1998242938381Q168.90012445853134 -30.199897504738892 242.6001683850718 20.500036605450394Q316.3002123116123 71.19997071563968 358.20026355924284 133.04993777073432Q400.10031480687337 194.89990482582897 418.35036971504894 266.1499231285542Q436.60042462322457 337.3999414312794 439.80046854976507 415.10002196327025ZM724.9003440912337 279.80002928436033 767.5000366054504 322.9997803672976 848.4995973400456 255.3001391007115Q843.8996119822258 250.0001464218016 834.0496083216808 246.05015740343669Q824.1996046611357 242.1001683850718 808.8996119822258 240.8001757061619Q800.999633945496 130.00021963270237 782.2496522482213 56.60016838507182Q763.4996705509465 -16.799882862558736 730.8997584040274 -41.39986822037858Q711.8998316149282 -55.99985357819842 684.1998975047388 -63.79984625710834Q656.4999633945496 -71.59983893601826 621.500183027252 -71.59983893601826Q621.8001757061619 -55.89997803672976 617.8501866877971 -42.050084192535905Q613.9001976694321 -28.200190348342055 601.4002342748826 -18.500256238152765Q589.300285522513 -10.200336770143634 560.0503038252382 -2.450391678319227Q530.8003221279635 5.29955341350518 499.9004173021345 9.799516808054786V26.099582697865497Q523.700373375594 24.099582697865497 554.2003367701436 21.74957903732046Q584.7003001646932 19.399575376775417 610.600278201423 17.549571716230375Q636.5002562381528 15.699568055685337 646.8002489170627 15.699568055685337Q672.0002928436031 15.699568055685337 683.0002928436031 25.099582697865497Q701.4003074857833 40.59961930331589 715.0003294490535 108.84974742239228Q728.6003514123238 177.09987554146866 735.6003514123238 279.80002928436033ZM775.5002562381528 279.80002928436033V250.40001464218017H122.20004392654047L113.20004392654047 279.80002928436033ZM690.7005197973956 729.4999633945496 746.1001683850718 775.3996485876762 826.1996778720365 698.2001171374412Q819.4996705509465 691.3001391007115 809.4996705509465 689.3501500823465Q799.4996705509465 687.4001610639817 779.4996705509465 686.1001683850718Q706.4997437618472 588.6002049905222 598.6498499176533 517.1001683850718Q490.7999560734595 445.60013177962145 351.5500475870855 400.4000512476306Q212.3001391007115 355.19997071563967 44.50018302725198 333.99985357819844L38.40016106398174 350.1998975047389Q188.80024891706267 382.1998975047389 318.5503038252383 434.34989384419384Q448.3003587334139 486.4998901836488 547.1503989994094 560.249908486374Q646.0004392654048 633.9999267890992 702.9004905130353 729.4999633945496ZM308.89990482582897 700.1998242938381Q351.4998901836488 635.3997950094778 419.49985357819844 588.4497327802121Q487.499816972748 541.4996705509465 574.4997803672976 509.7495790373205Q661.4997437618472 477.9994875236945 761.9997437618472 459.9494033311586Q862.4997437618472 441.8993191386227 969.7998096516579 433.89924592772184L969.0998023305679 422.299260569902Q944.1000219632703 416.69934842298295 927.9001244585313 398.54953511077997Q911.7002269537925 380.399721798577 905.2002635592429 351.89997803672975Q764.500183027252 372.89997803672975 646.0001098163511 412.7499816972748Q527.5000366054504 452.59998535781983 438.19997071563967 519.5999487523694Q348.89990482582897 586.599912146919 293.99985357819844 688.6997876883877ZM468.69942163388373 812.5999853578198Q465.69942163388373 805.2999926789099 457.69942163388373 802.0Q449.69942163388373 798.7000073210901 430.0994362760639 801.1000219632703Q393.49952412914485 740.400087853081 339.4496229638609 679.100095174171Q285.399721798577 617.8001024952611 220.24983527547323 565.5000732109008Q155.09994875236944 513.2000439265405 84.70008053199086 478L73.50003660545039 489.90005124763053Q131.00007321090078 531.2000439265405 184.35011347689624 589.9000146421802Q237.70015374289167 648.5999853578198 281.5501940088871 715.0499377707343Q325.4002342748825 781.4998901836489 351.600278201423 845.2998462571084ZM729.4003074857833 729.4999633945496V700.0999487523694H303.3000658898107L329.0000732109008 729.4999633945496Z" fill="#173F42" transform="translate(169.700 103.000) scale(0.041000 -0.041000)"/>
  <path d="M844.0004392654048 334.10002196327025V304.7000073210901H140.9998535781984V334.10002196327025ZM805.3005051552154 628 846.4002342748826 673.2996998353068 935.0997291196671 605.0000732109008Q930.399721798577 599.0000732109008 919.1497034958518 593.5500841925359Q907.8996851931266 588.100095174171 892.5996925142167 585.100095174171V244.19989750473889Q892.5996925142167 240.89990482582897 881.449805991113 235.6999341101893Q870.2999194680091 230.4999633945496 855.5000732109008 225.94998901836487Q840.7002269537925 221.40001464218017 827.6003514123238 221.40001464218017H815.3005051552154V628ZM179.39942895497384 235.1998242938381Q179.39942895497384 231.6998608992885 170.04953511077997 225.29991946800914Q160.69964126658613 218.89997803672975 146.4498059911129 214.10002196327025Q132.1999707156397 209.30006588981072 115.60013177962142 209.30006588981072H103.40023427488254V628.2999926789099V665.0997291196671L186.89939234952345 628.2999926789099H838.7004465864948V598.8999780367297H179.39942895497384ZM571.9995607345952 827.599912146919Q570.2995534135052 817.599912146919 562.7995534135052 810.2999194680091Q555.2995534135052 802.9999267890992 535.6995680556853 799.9999267890992V-50.40008785308095Q535.6995680556853 -55.30006588981071 526.4996705509463 -62.70000732109008Q517.2997730462075 -70.09994875236944 502.99992678909916 -75.19989750473889Q488.70008053199086 -80.29984625710834 473.4002342748825 -80.29984625710834H458.4003806966841V839.9998535781984Z" fill="#173F42" transform="translate(211.100 103.000) scale(0.041000 -0.041000)"/>
  <path d="M182.79973644075716 801.8000292843603Q181.79973644075716 791.8000292843603 173.54971813803195 785.1000219632703Q165.29969983530677 778.4000146421802 147.59969251421668 775.7000073210901V737H80.20026355924284V796.2999926789099V813.2999926789099ZM131.59983893601827 777.2001171374412 147.59969251421668 767.6002049905222V11.600278201423002H154.8996851931266L129.09980233056785 -27.29948020260439L51.70030016469324 24.000292843603162Q59.600278201423 32.20026355924284 73.20026355924284 41.00021963270237Q86.80024891706269 49.800175706161895 97.70022695379245 54.10016838507182L80.20026355924284 22.00021963270237V777.2001171374412ZM542.1997510829373 703.4001610639817Q538.8997584040274 695.8001757061619 530.0997657251174 689.9501720456169Q521.2997730462075 684.1001683850718 505.9997803672976 684.4001610639817Q487.499816972748 645.6001317796214 464.14984991765334 603.600095174171Q440.7998828625587 561.6000585687207 417.9999267890992 529.9000512476306L400.59991214691905 538.3000658898108Q413.19997071563967 575.6000585687207 426.30002928436033 629.3000292843603Q439.40008785308095 683 450.60013177962145 734.2999926789099ZM847.0997291196671 -58.59998535781984Q847.0997291196671 -62.19997071563969 831.3498572387434 -71.24990848637401Q815.5999853578198 -80.29984625710834 788.4002342748826 -80.29984625710834H777.000366054504V502.2999926789099H847.0997291196671ZM955.1998975047389 762.5002562381528Q939.7999560734595 748.0002928436031 902.6000585687207 761.9002708803329Q868.9000512476306 751.8002489170627 822.6500329449054 741.5002196327024Q776.4000146421802 731.2001903483421 725.7999926789099 722.4001610639817Q675.1999707156397 713.6001317796214 627.4999633945496 708.2001171374412L623.0999487523694 723.1001683850718Q665.5000366054504 737.5001098163511 711.4001244585313 757.8500402659954Q757.3002123116123 778.1999707156397 798.3002855225131 799.9499158074641Q839.3003587334139 821.6998608992885 865.2004099810445 839.1998242938381ZM669.8996119822258 730.9000512476306Q665.8996119822258 723.0000732109008 647.4996705509465 720.7000805319909V418.7998828625587Q647.4996705509465 353.89990482582897 642.1996778720365 286.74994509182443Q636.8996851931266 219.59998535781983 618.399721798577 153.8000292843603Q599.8997584040274 88.0000732109008 562.3498572387434 28.000109816351188Q524.7999560734595 -31.99985357819842 460.00014642180156 -80.89983161492819L445.10009517417103 -69.49981697274802Q504.4001610639817 -1.499890183648815 532.4502086510672 77.5000366054504Q560.5002562381528 156.4999633945496 569.100278201423 243.09991214691905Q577.7003001646932 329.6998608992885 577.7003001646932 418.99985357819844V762.6998608992885ZM423.59998535781983 95.3001391007115Q423.59998535781983 95.3001391007115 437.1499597340046 84.25016472452678Q450.6999341101893 73.20019034834206 469.19989750473894 57.70022695379245Q487.6998608992885 42.20026355924284 502.5998389360183 27.300285522513082Q498.5998389360183 11.300285522513082 476.99985357819844 11.300285522513082H114.1998975047389V40.70030016469324H381.0000732109008ZM888.0002196327024 564.2996998353068Q888.0002196327024 564.2996998353068 896.8501866877971 557.099729119667Q905.7001537428916 549.8997584040274 919.6501061558062 538.5998023305679Q933.6000585687207 527.2998462571084 948.7000073210901 514.1998975047389Q963.7999560734595 501.09994875236947 976.2999194680091 488.89997803672975Q972.2999194680091 472.89997803672975 949.6999341101892 472.89997803672975H615.7000805319909V502.2999926789099H839.8003953388643ZM369.7999560734595 485.0002928436032Q342.89990482582897 386.50032944905354 292.2498718809236 300.8503331095986Q241.59983893601827 215.20033677014362 168.79980965165794 146.6003514123238L156.09980233056785 161.40038069668412Q208.59998535781983 232.30035873341387 244.65014276125655 321.30032212796345Q280.70030016469326 410.3002855225131 301.2004099810444 501.0002928436032H369.7999560734595ZM191.89997803672975 725.4999633945496Q233.39986822037858 689.8999780367297 252.94984259656331 656.0500109816351Q272.499816972748 622.2000439265405 275.29984625710836 594.5500841925359Q278.09987554146863 566.9001244585313 269.84993044964426 550.0001464218016Q261.59998535781983 533.1001683850718 246.90005124763053 530.2001537428916Q232.20011713744125 527.3001391007115 217.1001683850718 543.3000658898108Q219.3001391007115 571.5000366054504 213.45009883471607 603.6000219632703Q207.60005856872064 635.7000073210901 198.10002196327025 666.6499963394549Q188.59998535781983 697.5999853578198 177.4999633945496 720.7999560734595ZM376.09980233056785 432.9002708803329Q437.49974376184724 402.3002855225131 470.24976206457245 369.35033310959864Q502.9997803672976 336.4003806966841 513.6498499176533 307.3004319443147Q524.2999194680091 278.20048319194524 518.7500183027252 258.65050881576053Q513.2001171374412 239.10053443957577 497.8002123116123 234.00051247630552Q482.40030748578334 228.9004905130353 463.4003806966841 244.10038801777418Q459.50032944905354 273.6003514123238 443.3502232932474 306.7003367701436Q427.2001171374413 339.80032212796345 406.0 371.0503038252383Q384.7998828625587 402.3002855225131 364.39979500947777 425.1002415959726ZM414.9997803672976 806.2998462571084Q412.9997803672976 796.2998462571084 405.1497767067526 788.9998535781984Q397.2997730462076 781.6998608992885 377.9997803672976 778.6998608992885V114.40038069668411Q377.9997803672976 109.80039533886426 370.44984259656326 103.75042096267954Q362.89990482582897 97.70044658649482 351.14999633945496 93.6504722103101Q339.40008785308095 89.60049783412538 326.8001757061619 89.60049783412538H314.50025623815276V817.499816972748ZM484.90019766943215 552.8000292843603Q484.90019766943215 552.8000292843603 497.20015374289164 542.5000732109008Q509.5001098163512 532.2001171374412 526.2500549081756 517.1501793667069Q543 502.1002415959726 556.4999633945496 487.600278201423Q555.4999633945496 479.600278201423 548.6999707156397 475.600278201423Q541.8999780367297 471.600278201423 531.1999707156397 471.600278201423H168.49981697274802L160.49981697274802 501.0002928436032H445.50032944905354Z" fill="#173F42" transform="translate(252.500 103.000) scale(0.041000 -0.041000)"/>
  <path d="M165.20026355924284 748.499816972748 262.19945823933415 716.2000439265405Q257.89946556042423 707.3000658898108 240.19953145023493 704.3000658898108V463.39979500947777Q240.19953145023493 399.499816972748 234.5995460924151 329.0498645598335Q228.99956073459526 258.59991214691905 210.59961930331588 186.9999633945496Q192.19967787203652 115.40001464218015 153.29980965165794 49.200043926540474Q114.39994143127937 -16.99992678909921 48.50018302725198 -71.69993411018929L34.900124458531344 -60.29991946800913Q93.10016838507181 17.100021963270237 120.75020132997717 104.39994143127936Q148.40023427488254 191.6998608992885 156.80024891706267 283.09980233056785Q165.20026355924284 374.49974376184724 165.20026355924284 464.49974376184724ZM773.6001317796214 840.8998316149282 856.6994948447846 762.1004612286749Q849.4995241291449 755.5004758708551 835.8995753767754 755.7004831919452Q822.299626624406 755.9004905130353 801.9997071563969 763.800468549765Q743.399721798577 751.800468549765 671.3997584040274 739.6504356048597Q599.3997950094778 727.5004026599544 519.8998316149282 717.3003587334139Q440.39986822037855 707.1003148068734 358.749908486374 699.7002635592428Q277.09994875236947 692.3002123116123 198.4999633945496 689.1001683850718L195.39994143127936 706.7002269537925Q269.7999560734595 717.2001903483421 350.89997803672975 732.5001464218016Q432 747.8001024952611 510.60002196327025 766.0500475870855Q589.2000439265405 784.2999926789099 657.0000732109008 803.5499377707343Q724.8001024952611 822.7998828625588 773.6001317796214 840.8998316149282ZM201.4998901836488 539.500183027252H809.3005051552154L863.2002635592429 605.7998828625588Q863.2002635592429 605.7998828625588 873.0002196327024 598.099912146919Q882.8001757061619 590.3999414312793 898.3501134768962 578.5999853578198Q913.9000512476306 566.8000292843603 930.8999780367299 552.8500768714458Q947.899904825829 538.9001244585313 962.2998462571084 526.1001683850718Q958.2998462571084 510.1001683850718 934.6998608992885 510.1001683850718H201.4998901836488ZM319 338.1001683850718V372.09994875236947L401.8993191386227 338.1001683850718H765.1004612286749L802.0001464218016 380.8998316149282L880.5996925142167 320.8001757061619Q876.2996998353068 314.500183027252 867.2996998353068 310.20019034834206Q858.2996998353068 305.90019766943215 842.699714477487 303.60020499052223V-51.4999633945496Q842.699714477487 -54.799956073459526 824.8498572387434 -63.59991214691905Q807 -72.39986822037858 780.4003074857833 -72.39986822037858H768.4004539075848V308.70015374289164H391.1993118175326V-60.19997071563969Q391.1993118175326 -64.39994143127937 374.8494545787891 -73.04990116528393Q358.4995973400456 -81.6998608992885 330.6998608992885 -81.6998608992885H319ZM359.1997510829373 33.80002928436031H801.7001537428916V4.4000146421801585H359.1997510829373Z" fill="#173F42" transform="translate(293.900 103.000) scale(0.041000 -0.041000)"/>
  <path d="M389.5994728815143 264.4998901836488Q386.5994728815143 244.4998901836488 358.9994875236945 240.59991214691905V38.599546092415096Q358.9994875236945 26.499524129144863 367.59950948696473 22.499524129144863Q376.19953145023493 18.499524129144863 412.0996559087663 18.499524129144863H550.899904825829Q597.3001391007115 18.499524129144863 630.6002415959726 18.8495277896899Q663.9003440912337 19.199531450234943 677.3003587334139 20.199531450234943Q689.2003367701436 21.899538771325023 693.9503184674184 24.549535110779985Q698.7003001646932 27.199531450234943 702.9002708803329 34.49952412914486Q709.7002269537925 48.19953145023494 718.3001757061619 79.8495643951403Q726.9001244585313 111.49959734004565 736.8000292843603 154.69956805568535H749.6000585687207L752.6000585687207 29.799516808054786Q772.3999414312793 23.699568055685337 779.249908486374 16.64963028495101Q786.0998755414687 9.599692514216681 786.0998755414687 -1.00021963270237Q786.0998755414687 -14.200117137441264 776.5499011652839 -23.40005124763055Q766.9999267890992 -32.59998535781984 741.6499597340046 -38.2499450918244Q716.2999926789099 -43.89990482582897 669.1000219632703 -46.149886523103774Q621.9000512476306 -48.39986822037858 546.9000512476306 -48.39986822037858H402.499816972748Q354.4999633945496 -48.39986822037858 328.75005490817557 -42.1998975047389Q303.00014642180156 -35.99992678909921 293.85018668779696 -20.2500183027252Q284.7002269537924 -4.500109816351185 284.7002269537924 24.29969983530676V275.39986822037855ZM511.39957537677543 293.19967787203655Q511.39957537677543 289.19967787203655 494.5997291196671 280.24972545912203Q477.7998828625587 271.2997730462076 448.8001757061619 271.2997730462076H436.50032944905354V698.5999853578198H511.39957537677543ZM854.2003367701436 765.9997071563969Q854.2003367701436 765.9997071563969 863.5002928436031 758.7997364407572Q872.8002489170627 751.5997657251174 887.6501793667069 740.1498133122029Q902.5001098163511 728.6998608992885 918.8000292843603 715.099912146919Q935.0999487523694 701.4999633945496 949.4998901836489 688.7000073210901Q945.4998901836489 672.7000073210901 922.599912146919 672.7000073210901H259.1001683850718L273.8001757061619 702.1000219632703H802.4006003293865ZM821.0002928436031 474.39957537677543Q821.0002928436031 474.39957537677543 830.3002489170626 467.1996046611357Q839.6002049905222 459.99963394549604 854.1501427612566 448.69967787203655Q868.7000805319909 437.399721798577 884.5500109816351 424.44976938566253Q900.3999414312793 411.499816972748 913.0998755414687 398.99985357819844Q911.0998755414687 390.99985357819844 904.4998901836489 386.99985357819844Q897.899904825829 382.99985357819844 886.899904825829 382.99985357819844H472.89997803672975V412.39986822037855H770.4005271184857ZM784.3002123116123 613.5996193033159Q784.3002123116123 613.5996193033159 793.1001683850718 606.8996485876762Q801.9001244585313 600.1996778720365 815.4500622292657 589.399721798577Q829 578.5997657251174 844.3499304496443 565.6498133122029Q859.6998608992885 552.6998608992885 872.0998023305679 541.1998975047389Q868.0998023305679 525.1998975047389 846.1998242938381 525.1998975047389H472V554.599912146919H736.7004465864948ZM397.6997876883877 791.2999926789099Q393.2997730462076 784 385.1497767067526 782.2500183027253Q376.9997803672976 780.5000366054504 359.09980233056785 786.3000658898108Q332.39986822037855 725.2001171374412 289.4499158074641 657.4500988347161Q246.4999633945496 589.7000805319909 192.80002928436033 527.1000219632703Q139.10009517417103 464.4999633945496 78.60020499052222 419.29991946800914L66.70015374289166 428.7999560734595Q112.60020499052222 478.4999633945496 154.95028186196805 548.4499524129144Q197.30035873341387 618.3999414312793 231.35044292594978 695.4999267890992Q265.4005271184857 772.599912146919 285.40060032938646 842.7998828625588ZM195.60013177962142 228.29969983530677Q209.4999633945496 169.29977304620755 202.59983893601827 123.34985723874345Q195.6997144774869 77.39994143127937 178.1496668904014 46.2500183027252Q160.59961930331588 15.100095174171027 140.49967055094643 -1.699860899288499Q128.399721798577 -11.799809651657945 112.59980233056785 -16.399831614928182Q96.79988286255873 -20.99985357819842 83.14995973400457 -18.049937770734328Q69.50003660545039 -15.100021963270237 62.00007321090079 -3.300139100711501Q53.500109816351184 12.599692514216681 61.40005124763055 28.449586358410535Q69.29999267890992 44.299480202604386 85.09987554146866 55.399428954973835Q106.29991946800914 68.799443597154 127.44995241291448 94.7994802026044Q148.59998535781983 120.79951680805479 162.90001464218017 155.5495717162304Q177.20004392654047 190.29962662440596 179.00007321090078 228.99970715639685ZM751.7001537428916 246.99978036729763Q820.6999341101892 221.99970715639685 863.7998462571084 191.399721798577Q906.8997584040274 160.79973644075716 928.3997584040274 129.7497986700228Q949.8997584040274 98.6998608992885 954.3998316149282 72.54993777073433Q958.899904825829 46.40001464218016 950.4500256238152 29.450062229265672Q942.0001464218016 12.500109816351184 925.0002928436031 9.100095174171027Q908.0004392654048 5.700080531990869 887.0005856872064 20.799956073459526Q879.200556402846 57.89990482582897 855.3004685497651 97.94987920201369Q831.4003806966841 137.9998535781984 800.950281861968 175.04982795438315Q770.500183027252 212.09980233056785 740.9001244585313 238.49974376184724ZM473.90019766943215 261.7998828625587Q524.2999194680091 244.79973644075716 554.1497767067526 222.99970715639682Q583.999633945496 201.19967787203652 597.3496010005906 178.1997144774869Q610.6995680556853 155.19975108293733 610.5996193033159 135.99981697274802Q610.4996705509465 116.79988286255873 601.1497767067526 104.19993411018929Q591.7998828625588 91.59998535781985 576.4500256238152 89.7499816972748Q561.1001683850718 87.89997803672976 543.8003221279635 101.09987554146866Q540.4003074857833 127.29984625710834 527.750274540878 155.64984991765337Q515.1002415959726 183.9998535781984 497.95020865106727 210.1998608992885Q480.8001757061619 236.39986822037858 462.70015374289164 254.6998608992885Z" fill="#173F42" transform="translate(335.300 103.000) scale(0.041000 -0.041000)"/>
  <path d="M260.899538771325 490.99985357819844Q312.49945091824407 469.8998316149282 343.2494326155189 445.49985357819844Q373.9994143127937 421.09987554146863 387.99945091824407 397.59991214691905Q401.9994875236945 374.09994875236947 402.7995534135052 354.59998535781983Q403.5996193033159 335.10002196327025 395.1497034958518 323.5000366054504Q386.6997876883877 311.90005124763053 372.2498718809236 310.45002562381524Q357.7999560734595 309 341.10002196327025 321.89990482582897Q335.7999560734595 348.09987554146863 320.6998608992885 377.8998682203786Q305.5997657251175 407.6998608992885 286.8496742114915 435.49985357819844Q268.0995826978655 463.29984625710836 249.49952412914487 483.8998316149282ZM301.2995534135052 829.4998901836489Q300.2995534135052 818.4998901836489 292.7995534135052 811.349893844194Q285.2995534135052 804.1998975047389 265.69956805568535 801.1998975047389V-51.4999633945496Q265.69956805568535 -56.09994875236945 256.8996485876762 -62.449915807464095Q248.09972911966707 -68.79988286255873 235.4998535781984 -73.29984625710833Q222.89997803672975 -77.79980965165794 209.80010249526111 -77.79980965165794H194.70022695379245V840.5998389360183ZM258.69956805568535 586.4999633945496Q231.39957537677543 456.5000366054504 174.94969617476173 342.2500183027252Q118.49981697274802 228 30 137.79995607345953L16.199970715639683 150.89997803672975Q59.40001464218016 213 92.10005856872063 286.59998535781983Q124.8001024952611 360.19997071563967 147.65014276125655 440.64995973400454Q170.50018302725198 521.0999487523694 184.00021963270237 602.4999633945496H258.69956805568535ZM340.6999341101893 666.7997364407571Q340.6999341101893 666.7997364407571 354.69989750473894 654.8497840278426Q368.6998608992885 642.8998316149282 388.499816972748 625.6498865231038Q408.2997730462076 608.3999414312793 423.1997510829373 592.5999853578198Q422.1997510829373 584.5999853578198 415.04975474348237 580.5999853578198Q407.8997584040274 576.5999853578198 397.1997510829373 576.5999853578198H57.70015374289166L49.70015374289166 606H294.90005124763053ZM885.8996851931266 797.9000512476306Q877.1996778720365 778.3000658898108 846.8996851931266 782.0000732109008Q829.4997437618472 758.3000658898108 805.499816972748 728.8000658898108Q781.4998901836489 699.3000658898108 755.0499743761848 669.1500695503557Q728.6000585687207 639.0000732109008 702.7001537428916 612.3000658898108H685.0000732109008Q698.8001024952611 644.8000292843603 714.4001610639817 685.4499890183649Q730.0002196327024 726.0999487523694 744.600278201423 767.099912146919Q759.2003367701436 808.0998755414687 769.8003953388643 840.9998535781984ZM458.90005124763053 835.3998682203786Q512.2998462571084 813.1998242938381 544.0497547434824 787.4498425965633Q575.7996632298564 761.6998608992885 589.4496595693113 736.7999194680092Q603.0996559087663 711.8999780367297 603.049718138032 691.0000366054503Q602.9997803672976 670.100095174171 593.2998828625587 657.6001317796214Q583.5999853578198 645.1001683850718 567.6501061558062 644.0001464218016Q551.7002269537925 642.9001244585313 533.2003367701436 657.4000146421802Q528.7003001646932 685.4999633945496 514.9502452565176 716.7499450918244Q501.20019034834206 747.9999267890992 483.2501281190764 777.249908486374Q465.3000658898107 806.4998901836489 447.40001464218017 828.9998535781984ZM690.999633945496 -59.399941431279366Q690.999633945496 -63.29991946800913 674.6497767067526 -72.1998608992885Q658.2999194680091 -81.09980233056787 630.500183027252 -81.09980233056787H618.5003294490535V627.9000512476306H690.999633945496ZM884.1002415959726 278.19967787203655Q884.1002415959726 278.19967787203655 893.1002049905222 270.84971081694187Q902.1001683850718 263.49974376184724 915.8501134768962 252.04979134893276Q929.6000585687207 240.59983893601827 945.0 227.4998901836488Q960.3999414312793 214.39994143127936 972.899904825829 201.89997803672975Q969.1998975047389 185.89997803672975 946.2999194680091 185.89997803672975H380.89997803672975L372.89997803672975 215.29999267890992H835.7004465864948ZM827.8001757061619 496.0997291196671Q827.8001757061619 496.0997291196671 836.6501427612566 488.89975840402735Q845.5001098163511 481.6997876883877 858.9500622292657 470.3998316149282Q872.4000146421802 459.09987554146863 887.4999633945496 446.1499231285542Q902.599912146919 433.19997071563967 915.0998755414687 421Q911.7998828625588 405 888.4998901836489 405H449.59991214691905L441.59991214691905 434.40001464218017H780.6003514123238ZM856.1001683850718 688.6997876883877Q856.1001683850718 688.6997876883877 864.9501354401664 681.6498133122029Q873.8001024952611 674.5998389360183 887.9000512476305 663.4498792020137Q902 652.2999194680091 917.2499450918244 639.4999633945496Q932.4998901836489 626.7000073210901 944.2998462571084 614.5000366054504Q940.2998462571084 598.5000366054504 918.3998682203786 598.5000366054504H427.7998828625587L419.7998828625587 627.9000512476306H808.6003514123238Z" fill="#173F42" transform="translate(376.700 103.000) scale(0.041000 -0.041000)"/>
  <path d="M384.1997510829373 597.8002489170627Q379.8997584040274 588.8002489170627 364.8997584040274 584.6002415959726Q349.8997584040274 580.4002342748826 326.2997730462076 590.4002342748826L353.79973644075716 597.8002489170627Q333.8997584040274 562.4002342748826 302.74979867002287 519.0002196327024Q271.5998389360183 475.60020499052223 234.14988652310376 429.8001757061619Q196.69993411018928 384.00014642180156 157.0499743761847 342.10009517417103Q117.40001464218015 300.2000439265405 79.80002928436032 267.89997803672975L77.40001464218015 279.19997071563967H121.79980965165794Q118.49981697274802 245.1001683850718 107.84985723874345 223.95028186196805Q97.1998975047389 202.80039533886426 83.29999267890992 197.30043194431465L39.00014642180158 291.59991214691905Q39.00014642180158 291.59991214691905 50.500109816351184 294.5499011652839Q62.00007321090079 297.4998901836488 67.20004392654047 302.09987554146863Q96.40008785308095 330.3999414312794 129.05012079798632 374.4999633945496Q161.70015374289167 418.59998535781983 192.50018302725198 468.89997803672975Q223.30021231161228 519.1999707156397 248.1002415959726 567.2499450918244Q272.9002708803329 615.2999194680091 286.40030748578334 652.1998975047389ZM298.0997291196671 789.0000732109008Q294.0997291196671 779.7000805319909 279.74972545912203 774.0500841925359Q265.399721798577 768.400087853081 241.19975108293733 777.5001098163511L269.29969983530674 785.5001098163511Q253.79973644075716 755.3001391007115 231.04979134893273 718.8501500823465Q208.29984625710833 682.4001610639817 181.04990116528393 644.7001537428916Q153.79995607345953 607.0001464218016 125.35000366054504 573.0501207979862Q96.90005124763056 539.100095174171 70.0000732109008 512.5000366054504L68.60005856872063 524.5000366054504H111.1998242938381Q107.49981697274802 488.7002269537924 95.4498425965633 467.6003514123238Q83.39986822037858 446.50047587085515 68.39994143127937 440.7005197973956L30.500183027251975 536.5999853578198Q30.500183027251975 536.5999853578198 40.50014642180158 539.5499743761848Q50.500109816351184 542.4999633945496 55.40008785308095 546.3999414312793Q74.60013177962142 568.5999853578198 95.65017936670694 604.6499963394549Q116.70022695379245 640.7000073210901 136.05026721978788 682.2999926789099Q155.40030748578332 723.8999780367297 170.4003440912337 763.9499524129144Q185.40038069668412 803.9999267890992 193.60042462322457 833.1998975047389ZM39.60013177962142 77.39972179857699Q69.60013177962142 83.49974376184724 120.50010981635118 96.79977304620755Q171.40008785308095 110.09980233056787 233.90005124763056 127.94984259656331Q296.40001464218017 145.79988286255875 360.2999926789099 165.29991946800914L364.40001464218017 152.09987554146866Q320.09994875236947 124.69993411018929 255.9499158074641 87.7500549081756Q191.79988286255875 50.800175706161895 106.29991946800914 8.600351412323793Q104.39994143127937 -0.6996412665861289 98.29995607345953 -7.64963028495101Q92.19997071563968 -14.59961930331589 85.29999267890992 -16.59961930331589ZM61.80010249526111 289.1998975047389Q87.10009517417103 290.89990482582897 131.65006955035574 295.6499231285542Q176.20004392654047 300.3999414312794 231.85000366054504 307.1499597340046Q287.4999633945496 313.89997803672975 345.6999341101893 321.2999926789099L348.09994875236947 306.7999560734595Q321.9999267890992 297 280.89990482582897 282.0000732109008Q239.79988286255875 267.00014642180156 190.14988652310376 249.4002342748825Q140.4998901836488 231.80032212796348 87.69993411018929 214.9004173021345ZM50.00007321090079 531Q71.30006588981071 530 106.70004392654047 529.5Q142.10002196327025 529 185.2499816972748 529.8500036605451Q228.39994143127936 530.7000073210901 272.1998975047389 531.7000073210901L272.4998901836488 516.1999707156397Q244.79988286255875 506.5000366054504 189.79988286255875 490.05015740343674Q134.79988286255875 473.600278201423 75.69993411018929 458.60042462322457ZM503.8996119822258 795.899904825829Q502.8996119822258 785.899904825829 494.3496010005907 778.899904825829Q485.7995900189556 771.899904825829 467.7995900189556 768.899904825829V731.3998682203786H398.60020499052223V790.6998608992885V807.6998608992885ZM451.49974376184724 771.5999853578198 467.7995900189556 761.7000805319909V-31.900051247630554H475.0995826978655L448.9997071563968 -71.39979500947778L370.1002415959726 -19.500036605450394Q378.0002196327024 -11.00007321090079 391.7502013299772 -2.050120797986304Q405.500183027252 6.899831614928183 416.4001610639817 11.199824293838104L398.60020499052223 -21.200117137441264V771.5999853578198ZM924.4996705509465 704.2999926789099Q923.1996778720365 698 914.1996778720365 692.0Q905.1996778720365 686 889.5996925142167 687Q877.699714477487 663.5999853578198 858.3997584040274 631.0499743761848Q839.0998023305679 598.4999633945496 816.2998462571084 563.8999414312793Q793.4998901836489 529.2999194680091 770.3999414312793 498.4998901836488L757.899904825829 503.89990482582897Q770.7999560734595 539.7998828625588 784.4000146421802 584.3498572387434Q798.0000732109008 628.8998316149282 809.2501281190764 671.499816972748Q820.500183027252 714.0998023305679 826.0002196327024 741.7998096516579ZM725.8996119822258 387.09980233056785Q786.5995460924152 352.399721798577 823.699531450235 317.2996998353068Q860.7995168080548 282.19967787203655 879.2995534135052 250.5996925142167Q897.7995900189555 218.99970715639685 901.4496595693113 194.29973644075716Q905.0997291196671 169.59976572511746 897.499816972748 153.99978036729763Q889.899904825829 138.3997950094778 875.149996339455 136.29977304620758Q860.400087853081 134.19975108293733 842.1001683850718 148.49967055094643Q834.2001171374412 184.79966322985638 812.9000146421802 227.09969251421668Q791.599912146919 269.399721798577 764.8997950094778 309.54975474348237Q738.1996778720365 349.6997876883877 713.7995900189555 379.9997803672976ZM765.1996778720365 808.899904825829Q763.4996705509465 798.4998901836489 756.1496668904015 791.4998901836489Q748.7996632298564 784.4998901836489 730.0996559087663 781.7998828625588V54.49981697274802Q730.0996559087663 49.89983161492818 721.749725459122 44.04986455983354Q713.3997950094778 38.19989750473889 701.5499011652839 33.499926789099206Q689.7000073210901 28.799956073459526 677.2001171374412 28.799956073459526H663.3002123116123V819.6998608992885ZM699.0996559087663 437.89997803672975Q671.299626624406 334.7000073210901 618.6496668904015 245.5Q565.9997071563969 156.29999267890992 490.1997510829373 84.89997803672976L477.79973644075716 99Q533.0998755414687 172.70000732109008 570.5 265.39997803672975Q607.9001244585313 358.09994875236947 628.6002049905222 453.89997803672975H699.0996559087663ZM837.5001098163511 514.1996778720365Q837.5001098163511 514.1996778720365 851.4500622292657 502.0997291196671Q865.4000146421802 489.9997803672976 884.6499597340046 473.14984991765334Q903.899904825829 456.29991946800914 919.0998755414687 440.4999633945496Q915.7998828625588 424.4999633945496 893.4998901836489 424.4999633945496H500.2997730462076L492.2997730462076 453.89997803672975H792.8002489170627ZM875.0002196327024 59.199677872036524Q875.0002196327024 59.199677872036524 884.000183027252 51.99970715639684Q893.0001464218016 44.79973644075716 907.100095174171 33.49978036729763Q921.2000439265405 22.199824293838105 936.5999853578198 9.249871880923617Q951.9999267890992 -3.700080531990869 964.7998828625588 -15.900051247630554Q961.0998755414687 -31.900051247630554 938.899904825829 -31.900051247630554H440.7998828625587V-2.5000366054503953H826.6004246232246ZM520.3999414312793 731.8998316149282Q569.0998023305679 689.6997876883877 593.0997657251175 650.449805991113Q617.0997291196671 611.1998242938381 622.5997657251175 579.3498572387434Q628.0998023305679 547.4998901836489 620.2998828625587 527.4499158074641Q612.4999633945496 507.3999414312794 597.6000585687207 503.29991946800914Q582.7001537428916 499.1998975047389 566.4002342748826 516.0998023305679Q566.2001903483421 548.9997803672976 556.9501354401665 587.0497913489328Q547.7000805319909 625.0998023305679 534.1000219632703 661.999816972748Q520.4999633945496 698.8998316149282 506.29991946800914 727.1998242938381Z" fill="#173F42" transform="translate(418.100 103.000) scale(0.041000 -0.041000)"/>
  <path d="M840.8003953388643 552.6999341101892 885.1001683850718 597.699714477487 965.7998096516579 520.5000366054504Q959.7998096516579 515.6000585687207 950.949805991113 513.8000658898108Q942.0998023305679 512.0000732109008 927.499816972748 510.3000658898107Q915.7998828625588 492.40008785308095 898.1499597340046 470.35011347689624Q880.5000366054504 448.3001391007115 861.2001171374413 427.4001610639817Q841.9001976694321 406.500183027252 823.9002708803329 390.20019034834206L811.4002342748826 397.60020499052223Q818.8002489170627 419.4001610639817 826.600278201423 448.00010981635114Q834.4003074857833 476.6000585687206 841.5503404306887 504.90001464218017Q848.700373375594 533.1999707156397 852.1003880177742 552.6999341101892ZM382.90005124763053 349.7999560734595Q433.9999267890992 345.29984625710836 466.2498718809236 332.1998242938381Q498.499816972748 319.09980233056785 515.2998096516579 302.54982795438315Q532.0998023305679 285.99985357819844 536.2998462571084 269.89990482582897Q540.4998901836489 253.79995607345953 534.4999633945497 241.85000366054504Q528.5000366054504 229.90005124763056 515.7501281190764 226.3000658898107Q503.0002196327024 222.70008053199086 485.80032212796345 231.10002196327025Q477.3002855225131 250.29999267890992 458.55023061433747 270.69997071563967Q439.8001757061619 291.09994875236947 417.2001171374412 309.8999414312794Q394.6000585687206 328.6999341101893 373.80002928436033 339.9999267890992ZM450.50032944905354 460.5997657251175Q500.60020499052223 457.3996485876762 532.3001391007115 445.9496229638609Q564.0000732109008 434.4995973400456 580.8000658898108 418.79962662440596Q597.6000585687207 403.0996559087663 601.600095174171 387.69971447748696Q605.6001317796214 372.2997730462076 600.1002049905221 360.1998242938381Q594.600278201423 348.09987554146863 581.8503697150489 343.9998901836488Q569.1004612286749 339.89990482582897 551.9005637239361 347.99985357819844Q543.1005344395758 366.499816972748 524.7004831919452 385.89979500947777Q506.30043194431465 405.2997730462076 484.2503843572291 422.3997584040274Q462.2003367701436 439.49974376184724 441.40030748578334 450.79973644075716ZM667.0998023305679 131.89990482582897Q749.7996632298564 115.8997584040274 804.5496083216808 92.6497401013022Q859.2995534135052 69.39972179857699 891.0495717162304 43.449769385662506Q922.7995900189555 17.499816972748025 935.4496595693113 -6.450098834716066Q948.0997291196671 -30.400014642180157 944.5998389360183 -47.899941431279366Q941.0999487523694 -65.39986822037858 926.5500841925359 -71.79984625710834Q912.0002196327024 -78.1998242938381 889.000366054504 -68.89990482582897Q872.9003440912337 -44.799956073459526 846.250274540878 -18.599985357819843Q819.6002049905222 7.5999853578198415 787.2001171374413 33.4999633945496Q754.8000292843603 59.399941431279366 721.3999414312793 81.9499158074641Q687.9998535781984 104.49989018364882 658.6997876883877 120.99985357819843ZM762.999633945496 466.1998975047389Q760.999633945496 458.1998975047389 753.499633945496 453.89990482582897Q745.999633945496 449.59991214691905 725.6996412665861 450.29991946800914Q717.699714477487 342.6000585687206 693.0497913489328 256.9001244585313Q668.3998682203786 171.20019034834206 620.6499597340046 106.10020499052222Q572.9000512476306 41.00021963270237 495.6001683850718 -5.599802330567869Q418.3002855225131 -52.199824293838105 304.00043926540474 -82.6998608992885L296.5004026599544 -68.49981697274802Q429.5004026599544 -22.199824293838105 505.45039167831925 51.25012811907638Q581.4003806966841 124.70008053199086 613.700373375594 232.20000732109008Q646.000366054504 339.6999341101893 645.000366054504 486.99985357819844ZM869.7001537428916 266.89968519312663Q869.7001537428916 266.89968519312663 878.7001171374413 259.84971081694187Q887.7000805319909 252.79973644075716 901.8000292843603 241.1497767067526Q915.8999780367297 229.49981697274802 931.6499231285542 216.54986455983354Q947.3998682203786 203.59991214691905 960.1998242938381 191.39994143127936Q956.499816972748 175.39994143127936 933.5998389360183 175.39994143127936H339.10009517417103L331.10009517417103 204.79995607345953H820.6003514123238ZM890.0002196327024 552.6999341101892V523.2999194680091H373.89997803672975L365.19997071563967 552.6999341101892ZM700.5997657251174 825.9998535781984Q699.5997657251174 816.2998462571084 691.3497474223923 809.4498425965633Q683.0997291196671 802.5998389360183 665.0997291196671 799.9998535781984V532.9999267890992H592.9004173021345V837.1998242938381ZM825.5001098163511 752.6995680556853Q825.5001098163511 752.6995680556853 834.3500768714458 745.6495936795006Q843.2000439265405 738.5996193033159 857.2999926789099 727.2996632298564Q871.3999414312793 715.9997071563969 886.6498865231038 703.1997510829374Q901.8998316149282 690.3997950094778 913.9997803672976 678.1998242938381Q910.9997803672976 662.1998242938381 888.0998023305679 662.1998242938381H405.3000658898107L397.3000658898107 691.5998389360183H777.0002928436031ZM398.59969251421666 602.2001171374412Q393.59969251421666 593.2001171374412 378.59969251421666 589.5501207979862Q363.59969251421666 585.9001244585313 340.6997144774869 596.6001317796214L368.19967787203655 603.3001391007115Q346.9997071563968 566.5001098163511 313.54975474348237 520.4500622292657Q280.09980233056785 474.40001464218017 240.04986455983354 426.0999487523694Q199.99992678909922 377.7998828625587 157.39997803672978 333.2497986700228Q114.80002928436032 288.6997144774869 74.60005856872063 253.89961198222582L72.20004392654047 265.1996046611357H113.49981697274802Q109.49981697274802 230.09980233056785 97.29984625710834 209.64992312855418Q85.09987554146866 189.20004392654047 70.79995607345953 183.00007321090078L32.50018302725198 277.99956073459526Q32.50018302725198 277.99956073459526 44.50014642180158 281.2995534135052Q56.500109816351184 284.5995460924151 62.00007321090079 289.19953145023493Q93.50010981635118 319.29962662440596 128.95013544016646 366.04968153258153Q164.40016106398173 412.79973644075716 197.65017936670694 465.94976938566253Q230.90019766943215 519.0998023305679 258.5002196327024 570.1498133122029Q286.1002415959726 621.1998242938381 300.9002708803329 659.1998242938381ZM298.6996412665861 793.5999853578198Q294.6996412665861 784.2999926789099 280.3496376060411 778.6499963394549Q265.99963394549604 773 241.79966322985638 781.8000292843603L269.1996046611357 790.1000219632703Q249.19967787203652 748.8000292843603 216.4497693856625 696.5Q183.6998608992885 644.1999707156397 146.2499450918244 594.249908486374Q108.80002928436032 544.2998462571084 73.70008053199086 507.49974376184724L71.60005856872063 519.4997437618472H113.59983893601826Q109.59983893601826 484.29991946800914 97.6998608992885 464.0000366054504Q85.79988286255873 443.70015374289164 71.09994875236944 438.20019034834206L33.10016838507182 531.2996998353068Q33.10016838507182 531.2996998353068 43.65014276125655 534.2496888536716Q54.20011713744127 537.1996778720365 59.10009517417103 541.7996632298564Q77.90012445853134 565.0997291196671 98.20015374289166 602.0997657251175Q118.50018302725198 639.0998023305679 137.45020865106727 681.8498206332931Q156.40023427488254 724.5998389360183 171.20026355924284 765.4498425965633Q186.00029284360315 806.2998462571084 193.80032212796348 836.5998389360183ZM28.400087853080947 72.59969251421668Q58.40008785308095 76.99970715639684 110.2500549081756 86.59972911966707Q162.10002196327025 96.19975108293731 225.6999707156397 109.64977670675259Q289.29991946800914 123.09980233056787 354.09987554146863 137.8998316149282L357.4998901836488 124.69978768838772Q311.1998242938381 101.09987554146866 245.84982063329306 68.25001830272521Q180.49981697274802 35.40016106398174 92.49989018364882 -3.2996266244059704Q85.59991214691905 -22.499597340045653 68.49996339454961 -27.499597340045653ZM48.00014642180158 273.2995534135052Q74.90012445853134 275.69956805568535 121.40008785308095 281.4995973400456Q167.90005124763056 287.29962662440596 225.55001098163513 295.0996559087663Q283.19997071563967 302.89968519312663 343.6999341101893 310.9997071563968L346.09994875236947 296.49967055094646Q304.89990482582897 280.1997510829373 234.44987920201368 252.69986089928852Q163.9998535781984 225.1999707156397 81.29991946800914 197.5001098163512ZM45.60013177962142 528.8996851931266Q67.8001024952611 528.5996925142167 105.35004026599543 529.6497034958518Q142.89997803672975 530.699714477487 188.84989384419384 532.249725459122Q234.79980965165794 533.7997364407571 281.399721798577 536.4997437618472L282.0997291196671 521.5996925142167Q252.19975108293733 510.39979500947777 194.7497986700228 490.0999487523694Q137.29984625710833 469.8001024952611 73.59998535781985 450.9002708803329Z" fill="#173F42" transform="translate(459.500 103.000) scale(0.041000 -0.041000)"/>
  <path d="M178.40016106398173 -28.799736440757155Q175.20019034834206 -60.99970715639684 152.45024525651763 -101.79969983530677Q129.70030016469323 -142.59969251421668 71.90034409123372 -174.29969983530677L87.50032944905355 -200.99963394549604Q141.6002049905222 -175.0996559087663 172.70011713744125 -136.79973644075716Q203.8000292843603 -98.49981697274802 216.89997803672975 -55.499926789099206Q229.99992678909922 -12.500036605450395 229.99992678909922 25.599838936018262Q229.99992678909922 68.59969251421668 209.30002928436033 95.6496668904014Q188.60013177962142 122.69964126658613 152.50018302725198 122.69964126658613Q120.00029284360316 122.69964126658613 102.25038435722915 103.09972911966707Q84.50047587085514 83.49981697274802 84.50047587085514 57.69993411018929Q84.50047587085514 31.200043926540474 99.00040265995435 14.700117137441264Q113.50032944905355 -1.7998096516579452 135.65025257760772 -11.64977670675259Q157.8001757061619 -21.499743761847235 178.40016106398173 -28.799736440757155Z" fill="#173F42" transform="translate(500.900 103.000) scale(0.041000 -0.041000)"/>
  <path d="M829.0005124763055 680 876.5002562381528 727.4997437618472 961.2998462571084 646.2001171374412Q955.9998535781984 641.3001391007115 946.7998462571084 639.5001464218016Q937.5998389360183 637.7001537428916 922.2998462571084 636.7001537428916Q899.9999267890992 610.3001391007115 863.9500256238152 578.5501207979862Q827.9001244585313 546.8001024952611 797.0002196327024 525.0000732109008L784.4001610639817 532.400087853081Q794.3002123116123 553.3000658898108 805.100278201423 580.0500475870856Q815.9003440912337 606.8000292843603 825.3504063204994 633.7500183027253Q834.800468549765 660.7000073210901 840.0005124763055 680ZM169.59998535781983 733.899904825829Q187.79988286255875 677.1999707156397 184.84982063329306 634.0500475870855Q181.89975840402738 590.9001244585313 166.19975108293733 562.4001976694321Q150.49974376184724 533.9002708803329 129.09980233056785 519.7003001646932Q115.6998608992885 510.50032944905354 99.09994875236944 508.0002928436031Q82.50003660545039 505.50025623815276 68.70011713744125 511.4001610639817Q54.90019766943213 517.3000658898108 48.30021231161229 531.3999414312793Q41.80024891706269 551.1997510829373 51.40016106398174 567.6996412665861Q61.00007321090079 584.199531450235 79.39994143127937 593.9994875236945Q98.89997803672976 604.7995168080548 116.74998169727479 625.5495717162304Q134.59998535781983 646.299626624406 144.99996339454958 674.3497108169419Q155.39994143127936 702.3997950094778 152.99992678909922 733.1998975047389ZM864.0002196327024 680V650.5999853578198H157.79995607345953V680ZM432.70037337559404 840.7998828625588Q486.5000366054504 831.7997364407571 517.8998682203786 814.049718138032Q549.2996998353068 796.2996998353068 562.5996559087663 775.2497620645725Q575.8996119822258 754.1998242938381 575.1496668904015 735.099912146919Q574.399721798577 716 563.4498425965633 703.1500695503557Q552.4999633945496 690.3001391007115 535.2501281190764 688.4501354401664Q518.0002928436031 686.6001317796214 498.100461228675 700.7000073210901Q494.2004099810444 735.6999341101892 471.95035507286883 773.249908486374Q449.70030016469326 810.7998828625588 422.80032212796345 833.6998608992885ZM631.5995460924152 342.89997803672975Q631.5995460924152 334.19997071563967 631.5995460924152 325.7999926789099Q631.5995460924152 317.40001464218017 631.5995460924152 311.10002196327025V36.39950216587462Q631.5995460924152 24.99948752369447 638.4995607345952 20.49948752369447Q645.3995753767754 15.99948752369447 673.8996851931266 15.99948752369447H774.6999341101892Q807.8001024952611 15.99948752369447 832.7502013299771 16.49948752369447Q857.7003001646932 16.99948752369447 868.4003074857833 17.69949484478455Q877.7003001646932 18.69949484478455 881.800285522513 21.69949484478455Q885.9002708803329 24.69949484478455 889.1002415959726 31.99948752369447Q895.6002049905222 45.299480202604386 904.4001610639817 82.3495277896899Q913.2001171374412 119.39957537677542 923.1000219632703 164.99956073459526H935.6000585687207L937.9000512476306 26.69949484478455Q956.0999487523694 20.5995460924151 962.1499231285542 13.249615642770852Q968.1998975047389 5.899685193126603 968.1998975047389 -5.70022695379245Q968.1998975047389 -21.800102495261108 953.1999341101894 -32.05001098163512Q938.1999707156397 -42.29991946800913 895.7500183027253 -47.24987188092362Q853.3000658898108 -52.199824293838105 771.400087853081 -52.199824293838105H660.599912146919Q618.3000658898108 -52.199824293838105 596.1501427612566 -45.699860899288495Q574.0002196327024 -39.19989750473889 565.8002489170626 -23.149996339454958Q557.600278201423 -7.100095174171027 557.600278201423 20.699714477486918V342.89997803672975ZM423.2997730462076 343.2999926789099Q417.5997657251175 286.90005124763053 407.74976206457245 235.95009883471607Q397.8997584040274 185.0001464218016 376.1497767067526 138.8001757061619Q354.39979500947777 92.60020499052222 314.44984259656326 52.80021231161229Q274.4998901836488 13.00021963270237 209.69997071563967 -20.749798670022827Q144.90005124763056 -54.49981697274802 47.50018302725198 -81.6998608992885L37.70015374289166 -66.89983161492819Q135.6002049905222 -26.39986822037858 194.20026355924284 20.150106155806142Q252.80032212796348 66.70008053199086 283.0503770361391 118.80006588981071Q313.30043194431465 170.90005124763056 324.6504722103101 227.15003294490538Q336.0005124763055 283.40001464218017 340.10053443957577 343.2999926789099ZM691.6003514123238 574.2997730462075Q691.6003514123238 574.2997730462075 707.0002928436031 562.999816972748Q722.4002342748826 551.6998608992885 743.3501500823467 535.4999267890992Q764.3000658898108 519.2999926789099 781.7000073210901 503.5000366054504Q778.4000146421802 487.5000366054504 755.1000219632703 487.5000366054504H224.89997803672975L216.89997803672975 516.9000512476306H642.8005417606659ZM839.6001317796214 409.6997144774869Q839.6001317796214 409.6997144774869 849.100095174171 402.6497401013022Q858.6000585687207 395.5997657251175 873.2000073210901 384.64981331220304Q887.7999560734595 373.6998608992885 903.6998975047388 360.899904825829Q919.5998389360183 348.09994875236947 933.3997950094778 335.89997803672975Q930.0998023305679 319.89997803672975 907.499816972748 319.89997803672975H90.90019766943213L82.20019034834206 349.2999926789099H788.8003221279635Z" fill="#173F42" transform="translate(542.300 103.000) scale(0.041000 -0.041000)"/>
  <path d="M181.79988286255875 444.79980965165794H415.8001024952611V416.09980233056785H181.79988286255875ZM386.20026355924284 444.79980965165794H376.20026355924284L415.89997803672975 486.39957537677543L494.4995973400456 422.59991214691905Q489.4995973400456 416.59991214691905 479.9995973400456 412.9999267890992Q470.4995973400456 409.3999414312794 455.4995973400456 407.3999414312794Q453.1996046611357 306.2000439265405 446.6996046611357 240.15003294490538Q440.1996046611357 174.10002196327025 428.5996193033159 136.24998169727482Q416.99963394549604 98.39994143127937 398.59969251421666 81.79995607345953Q382.1997510829373 66.49996339454961 358.44980599111295 59.04997437618472Q334.6998608992885 51.59998535781984 307.2999926789099 51.59998535781984Q307.2999926789099 66.59983893601826 304.4499890183649 80.1497401013022Q301.59998535781983 93.69964126658613 293.2999926789099 101.79959001895557Q285.7000073210901 109.49952412914486 267.1499597340046 115.69949484478454Q248.59991214691905 121.89946556042423 228.39994143127936 125.39942895497384L229.09994875236944 141.59947288151432Q242.59998535781983 140.59947288151432 260.80002928436033 139.0494618998792Q279.0000732109008 137.49945091824407 295.65010615580616 136.29944359715398Q312.3001391007115 135.09943627606393 321.00014642180156 135.09943627606393Q341.8001757061619 135.09943627606393 350.500183027252 144.19945823933415Q365.60020499052223 158.99948752369448 374.05023061433747 231.69960466113574Q382.50025623815276 304.399721798577 386.20026355924284 444.79980965165794ZM523.7001537428916 837.8998316149282 634.799443597154 826.4998901836489Q633.799443597154 816.4998901836489 625.949439936609 808.4998901836489Q618.0994362760639 800.4998901836489 599.4994509182441 798.1998975047389Q598.1994582393341 682.2996998353068 608.7495058264196 568.54953511078Q619.2995534135052 454.7993703862532 647.3496376060411 354.34927155153713Q675.399721798577 253.89917271682106 726.0498279543831 174.4991580746409Q776.6999341101892 95.09914343246075 855.6000585687207 46.19923860663178Q869.400087853081 35.899245927721864 876.400087853081 36.59925324881194Q883.400087853081 37.29926056990202 890.3000658898108 52.399282533172254Q900.1000219632703 70.29926056990202 913.5499377707343 103.44922030390657Q926.9998535781984 136.59918003791114 936.6997876883877 167.09914343246075L949.1998242938381 164.79915075355083L931.2999194680091 12.399428954973835Q955.3998682203786 -16.800322127963476 959.8498572387434 -31.900161063981738Q964.2998462571084 -47 956.6999341101892 -56.09994875236945Q946.6000585687207 -68.09987554146866 930.6501793667069 -70.09987554146866Q914.7003001646932 -72.09987554146866 895.1003880177741 -66.09991214691905Q875.5004758708551 -60.09994875236945 855.2505307790307 -49.35000366054504Q835.0005856872064 -38.600058568720634 817.3005783661163 -25.100095174171027Q729.4005271184857 34.799663229856364 672.75045756813 123.14955707405022Q616.1003880177742 211.49945091824407 583.4503184674185 323.5494618998792Q550.8002489170627 435.5994728815143 537.2502013299772 565.6995680556854Q523.7001537428916 695.7996632298564 523.7001537428916 837.8998316149282ZM671.7997364407571 816.0998755414687Q726.4995973400456 813.5997657251174 761.54953511078 801.4997437618472Q796.5994728815143 789.399721798577 815.4494765420593 772.5497547434824Q834.2994802026044 755.6997876883877 839.1995314502349 738.7998462571084Q844.0995826978655 721.899904825829 838.3496742114914 709.1499597340046Q832.5997657251174 696.4000146421802 819.4498792020137 691.6000219632703Q806.2999926789099 686.8000292843603 787.5001098163511 695.1999707156397Q777.0000732109008 715.3999414312793 756.3500036605451 736.2999194680092Q735.6999341101892 757.1998975047389 711.1998608992885 775.5998755414687Q686.6997876883877 793.9998535781984 663.399721798577 805.8998316149282ZM785.9002708803329 517.0997291196671 899.5995460924152 482.40001464218017Q896.5995460924152 472.7000073210901 888.2495424318702 468.2500183027252Q879.8995387713251 463.80002928436033 859.199531450235 464.80002928436033Q833.0995826978655 385.5000366054504 791.499633945496 306.9000512476306Q749.8996851931266 228.30006588981072 690.3497474223923 156.5500841925359Q630.7998096516579 84.8001024952611 550.0499011652839 25.650106155806142Q469.2999926789099 -33.499890183648816 364.90012445853137 -74.1998975047389L356.5001098163512 -61.099875541468656Q446.8001024952611 -13.499963394549605 517.9001244585313 51.14995973400456Q589.0001464218016 115.79988286255873 641.8001757061619 192.04982795438315Q694.6002049905222 268.2997730462076 730.2002269537925 350.99974376184724Q765.8002489170627 433.6997144774869 785.9002708803329 517.0997291196671ZM175.09987554146866 637.899904825829H813.7005197973956L864.600278201423 701.7995900189555Q864.600278201423 701.7995900189555 873.9002342748825 694.449622963861Q883.2001903483421 687.0996559087663 897.9001244585313 675.2996998353067Q912.6000585687207 663.4997437618472 928.5999853578198 650.2497986700228Q944.599912146919 636.9998535781984 957.9998535781984 625.1998975047389Q954.6998608992885 609.1998975047389 931.0998755414687 609.1998975047389H175.09987554146866ZM139.10024159597262 637.899904825829V647.899904825829V674.2996998353068L226.69942163388376 637.899904825829H213.39950216587462V423.1998975047389Q213.39950216587462 364.9999267890992 208.6495204685998 298.39997803672975Q203.899538771325 231.8000292843603 187.3496010005907 164.00007321090078Q170.79966322985638 96.20011713744127 136.29980965165794 32.50014642180158Q101.79995607345953 -31.199824293838105 42.30021231161229 -84.59983893601826L29.700153742891658 -73.39979500947778Q79.50018302725198 -0.29984625710834045 102.75020132997717 82.55008419253592Q126.00021963270237 165.40001464218017 132.5502306143375 252.14995973400457Q139.10024159597262 338.89990482582897 139.10024159597262 422.4998901836488Z" fill="#173F42" transform="translate(583.700 103.000) scale(0.041000 -0.041000)"/>
  <path d="M165.20026355924284 748.499816972748 262.19945823933415 716.2000439265405Q257.89946556042423 707.3000658898108 240.19953145023493 704.3000658898108V463.39979500947777Q240.19953145023493 399.499816972748 234.5995460924151 329.0498645598335Q228.99956073459526 258.59991214691905 210.59961930331588 186.9999633945496Q192.19967787203652 115.40001464218015 153.29980965165794 49.200043926540474Q114.39994143127937 -16.99992678909921 48.50018302725198 -71.69993411018929L34.900124458531344 -60.29991946800913Q93.10016838507181 17.100021963270237 120.75020132997717 104.39994143127936Q148.40023427488254 191.6998608992885 156.80024891706267 283.09980233056785Q165.20026355924284 374.49974376184724 165.20026355924284 464.49974376184724ZM773.6001317796214 840.8998316149282 856.6994948447846 762.1004612286749Q849.4995241291449 755.5004758708551 835.8995753767754 755.7004831919452Q822.299626624406 755.9004905130353 801.9997071563969 763.800468549765Q743.399721798577 751.800468549765 671.3997584040274 739.6504356048597Q599.3997950094778 727.5004026599544 519.8998316149282 717.3003587334139Q440.39986822037855 707.1003148068734 358.749908486374 699.7002635592428Q277.09994875236947 692.3002123116123 198.4999633945496 689.1001683850718L195.39994143127936 706.7002269537925Q269.7999560734595 717.2001903483421 350.89997803672975 732.5001464218016Q432 747.8001024952611 510.60002196327025 766.0500475870855Q589.2000439265405 784.2999926789099 657.0000732109008 803.5499377707343Q724.8001024952611 822.7998828625588 773.6001317796214 840.8998316149282ZM201.4998901836488 539.500183027252H809.3005051552154L863.2002635592429 605.7998828625588Q863.2002635592429 605.7998828625588 873.0002196327024 598.099912146919Q882.8001757061619 590.3999414312793 898.3501134768962 578.5999853578198Q913.9000512476306 566.8000292843603 930.8999780367299 552.8500768714458Q947.899904825829 538.9001244585313 962.2998462571084 526.1001683850718Q958.2998462571084 510.1001683850718 934.6998608992885 510.1001683850718H201.4998901836488ZM319 338.1001683850718V372.09994875236947L401.8993191386227 338.1001683850718H765.1004612286749L802.0001464218016 380.8998316149282L880.5996925142167 320.8001757061619Q876.2996998353068 314.500183027252 867.2996998353068 310.20019034834206Q858.2996998353068 305.90019766943215 842.699714477487 303.60020499052223V-51.4999633945496Q842.699714477487 -54.799956073459526 824.8498572387434 -63.59991214691905Q807 -72.39986822037858 780.4003074857833 -72.39986822037858H768.4004539075848V308.70015374289164H391.1993118175326V-60.19997071563969Q391.1993118175326 -64.39994143127937 374.8494545787891 -73.04990116528393Q358.4995973400456 -81.6998608992885 330.6998608992885 -81.6998608992885H319ZM359.1997510829373 33.80002928436031H801.7001537428916V4.4000146421801585H359.1997510829373Z" fill="#173F42" transform="translate(625.100 103.000) scale(0.041000 -0.041000)"/>
  <path d="M389.5994728815143 264.4998901836488Q386.5994728815143 244.4998901836488 358.9994875236945 240.59991214691905V38.599546092415096Q358.9994875236945 26.499524129144863 367.59950948696473 22.499524129144863Q376.19953145023493 18.499524129144863 412.0996559087663 18.499524129144863H550.899904825829Q597.3001391007115 18.499524129144863 630.6002415959726 18.8495277896899Q663.9003440912337 19.199531450234943 677.3003587334139 20.199531450234943Q689.2003367701436 21.899538771325023 693.9503184674184 24.549535110779985Q698.7003001646932 27.199531450234943 702.9002708803329 34.49952412914486Q709.7002269537925 48.19953145023494 718.3001757061619 79.8495643951403Q726.9001244585313 111.49959734004565 736.8000292843603 154.69956805568535H749.6000585687207L752.6000585687207 29.799516808054786Q772.3999414312793 23.699568055685337 779.249908486374 16.64963028495101Q786.0998755414687 9.599692514216681 786.0998755414687 -1.00021963270237Q786.0998755414687 -14.200117137441264 776.5499011652839 -23.40005124763055Q766.9999267890992 -32.59998535781984 741.6499597340046 -38.2499450918244Q716.2999926789099 -43.89990482582897 669.1000219632703 -46.149886523103774Q621.9000512476306 -48.39986822037858 546.9000512476306 -48.39986822037858H402.499816972748Q354.4999633945496 -48.39986822037858 328.75005490817557 -42.1998975047389Q303.00014642180156 -35.99992678909921 293.85018668779696 -20.2500183027252Q284.7002269537924 -4.500109816351185 284.7002269537924 24.29969983530676V275.39986822037855ZM511.39957537677543 293.19967787203655Q511.39957537677543 289.19967787203655 494.5997291196671 280.24972545912203Q477.7998828625587 271.2997730462076 448.8001757061619 271.2997730462076H436.50032944905354V698.5999853578198H511.39957537677543ZM854.2003367701436 765.9997071563969Q854.2003367701436 765.9997071563969 863.5002928436031 758.7997364407572Q872.8002489170627 751.5997657251174 887.6501793667069 740.1498133122029Q902.5001098163511 728.6998608992885 918.8000292843603 715.099912146919Q935.0999487523694 701.4999633945496 949.4998901836489 688.7000073210901Q945.4998901836489 672.7000073210901 922.599912146919 672.7000073210901H259.1001683850718L273.8001757061619 702.1000219632703H802.4006003293865ZM821.0002928436031 474.39957537677543Q821.0002928436031 474.39957537677543 830.3002489170626 467.1996046611357Q839.6002049905222 459.99963394549604 854.1501427612566 448.69967787203655Q868.7000805319909 437.399721798577 884.5500109816351 424.44976938566253Q900.3999414312793 411.499816972748 913.0998755414687 398.99985357819844Q911.0998755414687 390.99985357819844 904.4998901836489 386.99985357819844Q897.899904825829 382.99985357819844 886.899904825829 382.99985357819844H472.89997803672975V412.39986822037855H770.4005271184857ZM784.3002123116123 613.5996193033159Q784.3002123116123 613.5996193033159 793.1001683850718 606.8996485876762Q801.9001244585313 600.1996778720365 815.4500622292657 589.399721798577Q829 578.5997657251174 844.3499304496443 565.6498133122029Q859.6998608992885 552.6998608992885 872.0998023305679 541.1998975047389Q868.0998023305679 525.1998975047389 846.1998242938381 525.1998975047389H472V554.599912146919H736.7004465864948ZM397.6997876883877 791.2999926789099Q393.2997730462076 784 385.1497767067526 782.2500183027253Q376.9997803672976 780.5000366054504 359.09980233056785 786.3000658898108Q332.39986822037855 725.2001171374412 289.4499158074641 657.4500988347161Q246.4999633945496 589.7000805319909 192.80002928436033 527.1000219632703Q139.10009517417103 464.4999633945496 78.60020499052222 419.29991946800914L66.70015374289166 428.7999560734595Q112.60020499052222 478.4999633945496 154.95028186196805 548.4499524129144Q197.30035873341387 618.3999414312793 231.35044292594978 695.4999267890992Q265.4005271184857 772.599912146919 285.40060032938646 842.7998828625588ZM195.60013177962142 228.29969983530677Q209.4999633945496 169.29977304620755 202.59983893601827 123.34985723874345Q195.6997144774869 77.39994143127937 178.1496668904014 46.2500183027252Q160.59961930331588 15.100095174171027 140.49967055094643 -1.699860899288499Q128.399721798577 -11.799809651657945 112.59980233056785 -16.399831614928182Q96.79988286255873 -20.99985357819842 83.14995973400457 -18.049937770734328Q69.50003660545039 -15.100021963270237 62.00007321090079 -3.300139100711501Q53.500109816351184 12.599692514216681 61.40005124763055 28.449586358410535Q69.29999267890992 44.299480202604386 85.09987554146866 55.399428954973835Q106.29991946800914 68.799443597154 127.44995241291448 94.7994802026044Q148.59998535781983 120.79951680805479 162.90001464218017 155.5495717162304Q177.20004392654047 190.29962662440596 179.00007321090078 228.99970715639685ZM751.7001537428916 246.99978036729763Q820.6999341101892 221.99970715639685 863.7998462571084 191.399721798577Q906.8997584040274 160.79973644075716 928.3997584040274 129.7497986700228Q949.8997584040274 98.6998608992885 954.3998316149282 72.54993777073433Q958.899904825829 46.40001464218016 950.4500256238152 29.450062229265672Q942.0001464218016 12.500109816351184 925.0002928436031 9.100095174171027Q908.0004392654048 5.700080531990869 887.0005856872064 20.799956073459526Q879.200556402846 57.89990482582897 855.3004685497651 97.94987920201369Q831.4003806966841 137.9998535781984 800.950281861968 175.04982795438315Q770.500183027252 212.09980233056785 740.9001244585313 238.49974376184724ZM473.90019766943215 261.7998828625587Q524.2999194680091 244.79973644075716 554.1497767067526 222.99970715639682Q583.999633945496 201.19967787203652 597.3496010005906 178.1997144774869Q610.6995680556853 155.19975108293733 610.5996193033159 135.99981697274802Q610.4996705509465 116.79988286255873 601.1497767067526 104.19993411018929Q591.7998828625588 91.59998535781985 576.4500256238152 89.7499816972748Q561.1001683850718 87.89997803672976 543.8003221279635 101.09987554146866Q540.4003074857833 127.29984625710834 527.750274540878 155.64984991765337Q515.1002415959726 183.9998535781984 497.95020865106727 210.1998608992885Q480.8001757061619 236.39986822037858 462.70015374289164 254.6998608992885Z" fill="#173F42" transform="translate(666.500 103.000) scale(0.041000 -0.041000)"/>
  <path d="M260.899538771325 490.99985357819844Q312.49945091824407 469.8998316149282 343.2494326155189 445.49985357819844Q373.9994143127937 421.09987554146863 387.99945091824407 397.59991214691905Q401.9994875236945 374.09994875236947 402.7995534135052 354.59998535781983Q403.5996193033159 335.10002196327025 395.1497034958518 323.5000366054504Q386.6997876883877 311.90005124763053 372.2498718809236 310.45002562381524Q357.7999560734595 309 341.10002196327025 321.89990482582897Q335.7999560734595 348.09987554146863 320.6998608992885 377.8998682203786Q305.5997657251175 407.6998608992885 286.8496742114915 435.49985357819844Q268.0995826978655 463.29984625710836 249.49952412914487 483.8998316149282ZM301.2995534135052 829.4998901836489Q300.2995534135052 818.4998901836489 292.7995534135052 811.349893844194Q285.2995534135052 804.1998975047389 265.69956805568535 801.1998975047389V-51.4999633945496Q265.69956805568535 -56.09994875236945 256.8996485876762 -62.449915807464095Q248.09972911966707 -68.79988286255873 235.4998535781984 -73.29984625710833Q222.89997803672975 -77.79980965165794 209.80010249526111 -77.79980965165794H194.70022695379245V840.5998389360183ZM258.69956805568535 586.4999633945496Q231.39957537677543 456.5000366054504 174.94969617476173 342.2500183027252Q118.49981697274802 228 30 137.79995607345953L16.199970715639683 150.89997803672975Q59.40001464218016 213 92.10005856872063 286.59998535781983Q124.8001024952611 360.19997071563967 147.65014276125655 440.64995973400454Q170.50018302725198 521.0999487523694 184.00021963270237 602.4999633945496H258.69956805568535ZM340.6999341101893 666.7997364407571Q340.6999341101893 666.7997364407571 354.69989750473894 654.8497840278426Q368.6998608992885 642.8998316149282 388.499816972748 625.6498865231038Q408.2997730462076 608.3999414312793 423.1997510829373 592.5999853578198Q422.1997510829373 584.5999853578198 415.04975474348237 580.5999853578198Q407.8997584040274 576.5999853578198 397.1997510829373 576.5999853578198H57.70015374289166L49.70015374289166 606H294.90005124763053ZM885.8996851931266 797.9000512476306Q877.1996778720365 778.3000658898108 846.8996851931266 782.0000732109008Q829.4997437618472 758.3000658898108 805.499816972748 728.8000658898108Q781.4998901836489 699.3000658898108 755.0499743761848 669.1500695503557Q728.6000585687207 639.0000732109008 702.7001537428916 612.3000658898108H685.0000732109008Q698.8001024952611 644.8000292843603 714.4001610639817 685.4499890183649Q730.0002196327024 726.0999487523694 744.600278201423 767.099912146919Q759.2003367701436 808.0998755414687 769.8003953388643 840.9998535781984ZM458.90005124763053 835.3998682203786Q512.2998462571084 813.1998242938381 544.0497547434824 787.4498425965633Q575.7996632298564 761.6998608992885 589.4496595693113 736.7999194680092Q603.0996559087663 711.8999780367297 603.049718138032 691.0000366054503Q602.9997803672976 670.100095174171 593.2998828625587 657.6001317796214Q583.5999853578198 645.1001683850718 567.6501061558062 644.0001464218016Q551.7002269537925 642.9001244585313 533.2003367701436 657.4000146421802Q528.7003001646932 685.4999633945496 514.9502452565176 716.7499450918244Q501.20019034834206 747.9999267890992 483.2501281190764 777.249908486374Q465.3000658898107 806.4998901836489 447.40001464218017 828.9998535781984ZM690.999633945496 -59.399941431279366Q690.999633945496 -63.29991946800913 674.6497767067526 -72.1998608992885Q658.2999194680091 -81.09980233056787 630.500183027252 -81.09980233056787H618.5003294490535V627.9000512476306H690.999633945496ZM884.1002415959726 278.19967787203655Q884.1002415959726 278.19967787203655 893.1002049905222 270.84971081694187Q902.1001683850718 263.49974376184724 915.8501134768962 252.04979134893276Q929.6000585687207 240.59983893601827 945.0 227.4998901836488Q960.3999414312793 214.39994143127936 972.899904825829 201.89997803672975Q969.1998975047389 185.89997803672975 946.2999194680091 185.89997803672975H380.89997803672975L372.89997803672975 215.29999267890992H835.7004465864948ZM827.8001757061619 496.0997291196671Q827.8001757061619 496.0997291196671 836.6501427612566 488.89975840402735Q845.5001098163511 481.6997876883877 858.9500622292657 470.3998316149282Q872.4000146421802 459.09987554146863 887.4999633945496 446.1499231285542Q902.599912146919 433.19997071563967 915.0998755414687 421Q911.7998828625588 405 888.4998901836489 405H449.59991214691905L441.59991214691905 434.40001464218017H780.6003514123238ZM856.1001683850718 688.6997876883877Q856.1001683850718 688.6997876883877 864.9501354401664 681.6498133122029Q873.8001024952611 674.5998389360183 887.9000512476305 663.4498792020137Q902 652.2999194680091 917.2499450918244 639.4999633945496Q932.4998901836489 626.7000073210901 944.2998462571084 614.5000366054504Q940.2998462571084 598.5000366054504 918.3998682203786 598.5000366054504H427.7998828625587L419.7998828625587 627.9000512476306H808.6003514123238Z" fill="#173F42" transform="translate(707.900 103.000) scale(0.041000 -0.041000)"/>
  <path d="M374.8996119822258 794.0000732109008Q370.8996119822258 785.7000805319909 361.0996193033159 780.7000805319909Q351.29962662440596 775.7000805319909 334.99963394549604 778.400087853081Q283.8997584040274 681.4002342748826 213.29988286255875 607.6502525776077Q142.70000732109008 533.9002708803329 64.20019034834206 488.70030016469326L52.40016106398174 500.9003440912337Q92.90019766943213 538.5002562381528 133.0502306143375 591.2001537428916Q173.20026355924284 643.9000512476306 208.20030016469323 707.2999560734595Q243.20033677014362 770.6998608992885 267.4003806966841 839.6997876883877ZM803.6000585687207 786.7995168080548Q803.6000585687207 786.7995168080548 813.0500109816351 779.4495497529601Q822.4999633945496 772.0995826978655 837.4998901836489 760.649630284951Q852.499816972748 749.1996778720365 868.7997364407572 735.9497327802121Q885.0996559087663 722.6997876883877 898.7995900189555 709.8998316149282Q894.7995900189555 693.8998316149282 872.5996193033159 693.8998316149282H249.79973644075716V723.2998462571084H753.2003367701436ZM327.29991946800914 237.90005124763056Q367.7998828625587 177.4999633945496 431.29980965165794 135.24987188092362Q494.79973644075716 92.99978036729763 576.5496815325815 65.74968885367164Q658.299626624406 38.49959734004565 753.8496376060411 23.649520468599825Q849.3996485876762 8.799443597153996 953.5997657251174 3.199385028433362L952.8997584040274 -9.100607650476558Q927.8999780367297 -14.70051979739561 911.8500768714458 -32.800322127963476Q895.8001757061619 -50.900124458531344 890.0002196327024 -78.99985357819843Q753.7000805319909 -61.099875541468656 642.0500109816351 -26.149886523103774Q530.3999414312793 8.800102495261106 447.599912146919 70.05008419253592Q364.7998828625587 131.30006588981072 312.6998608992885 227.10002196327025ZM676.2003367701436 256.4999633945496 729.5999853578198 300.7996632298564 805.6994948447846 226.20011713744125Q798.9994875236945 220.0001464218016 789.3494911842395 217.70015374289164Q779.6994948447846 215.40016106398173 759.6994948447846 214.8001757061619Q690.4995973400456 125.50025623815276 588.1997510829373 64.600278201423Q485.89990482582897 3.700300164693239 353.95006222926565 -31.649740101302196Q222.00021963270237 -66.99978036729763 62.50032944905355 -80.39986822037858L57.400307485783316 -63.199824293838105Q202.50032944905357 -38.99985357819842 326.1003148068734 2.150106155806146Q449.70030016469326 43.30006588981071 542.6502891830581 106.45002562381526Q635.600278201423 169.59998535781983 688.4003074857833 256.4999633945496ZM721.6000585687207 256.4999633945496V227.09994875236944H310.29984625710836L338.6998608992885 256.4999633945496ZM687.3005051552154 610.1998242938381 725.1002415959726 650.7995168080548 805.9997071563969 588.599912146919Q801.9997071563969 583.599912146919 792.4997071563969 578.4999267890992Q782.9997071563969 573.3999414312793 770.4997437618472 571.7999560734595V344.2997730462076Q770.4997437618472 341.2997730462076 759.7998462571084 335.89979500947777Q749.0999487523694 330.499816972748 734.750091513626 326.24983527547323Q720.4002342748826 321.99985357819844 707.6003514123238 321.99985357819844H695.9004905130353V610.1998242938381ZM311.59932645971276 337.9997071563968Q311.59932645971276 334.79973644075716 302.19942163388373 328.8497840278427Q292.79951680805476 322.8998316149282 278.7996632298564 318.3998682203786Q264.79980965165794 313.89990482582897 248.79995607345953 313.89990482582897H237.90005124763056V610.1998242938381V644.7995900189555L317.1993118175326 610.1998242938381H739.2001171374412V580.7998096516579H311.59932645971276ZM444.29962662440596 309.60013177962145Q440.5996193033159 302.60013177962145 432.5996193033159 298.85015008234666Q424.5996193033159 295.1001683850718 407.29962662440596 297.500183027252Q379.7996632298564 255.6002049905222 336.7496888536716 211.2502013299772Q293.6997144774869 166.90019766943215 240.1497401013022 127.3001757061619Q186.59976572511746 87.70015374289166 125.09980233056787 59.900124458531344L115.29977304620755 73.10016838507181Q165.39986822037858 108.40008785308095 209.7499816972748 156.05001098163513Q254.10009517417103 203.69993411018928 289.10020499052223 255.44987920201368Q324.10031480687337 307.1998242938381 343.4003806966841 353.499816972748ZM729.9002708803329 381.6998608992885V352.29984625710836H278.5996193033159V381.6998608992885ZM729.9002708803329 496.29984625710836V466.8998316149282H278.5996193033159V496.29984625710836Z" fill="#173F42" transform="translate(749.300 103.000) scale(0.041000 -0.041000)"/>
  <path d="M305.49952412914485 47.99985357819842Q305.49952412914485 44.79988286255873 296.24961564277083 39.19993411018929Q286.9997071563968 33.59998535781984 272.99985357819844 28.950025623815275Q259 24.30006588981071 243.70015374289167 24.30006588981071H232.10024159597262V381.4002342748825V416.7000073210901L311.39950216587465 381.4002342748825H739.6000585687207V352.0002196327024H305.49952412914485ZM683.0004392654048 381.4002342748825 721.8001757061619 423.19997071563967 804.399721798577 359.40030748578334Q800.399721798577 354.40030748578334 790.1497034958518 349.2503111463284Q779.8996851931266 344.10031480687337 766.5996925142167 341.80032212796345V59.99992678909921Q766.5996925142167 56.399941431279366 756.1997876883877 49.94998901836488Q745.7998828625588 43.5000366054504 731.6000219632703 38.350076871445836Q717.4001610639817 33.20011713744127 704.0002928436031 33.20011713744127H692.3004319443147V381.4002342748825ZM738.100095174171 116.19997071563968V86.79995607345953H266.0997291196671V116.19997071563968ZM738.100095174171 250.80010249526111V221.40008785308095H266.0997291196671V250.80010249526111ZM868.0002928436031 51.69971447748692Q868.0002928436031 51.69971447748692 877.6502525776077 44.499743761847235Q887.3002123116123 37.29977304620755 901.8001391007115 25.99981697274802Q916.3000658898108 14.699860899288499 932.7999926789099 1.7499084863740126Q949.2999194680091 -11.200043926540474 961.9998535781984 -23.70000732109008Q958.6998608992885 -39.70000732109008 935.7998828625588 -39.70000732109008H47.40016106398174L38.70015374289166 -10.299992678909922H817.5005490817559ZM549.299626624406 685.599912146919Q578.6996412665861 643.4998901836489 625.2996632298564 605.499816972748Q671.8996851931266 567.4997437618472 728.3497108169419 535.2496522482212Q784.7997364407571 502.99956073459526 844.9497693856624 478.0994728815143Q905.0998023305679 453.19938502843337 961.5998389360183 437.2993337808028L959.5998389360183 426.2993337808028Q936.4000146421802 422.59939967061354 920.5501207979863 406.39957537677543Q904.7002269537925 390.1997510829373 897.600278201423 364.7000073210901Q825.4002342748826 397.19997071563967 755.100095174171 443.39997803672975Q684.7999560734595 489.59998535781983 627.449805991113 548.5499743761848Q570.0996559087663 607.4999633945496 534.3995753767754 675.3998682203786ZM500.9997071563968 669.599912146919Q428.89968519312663 567.2999926789099 310.24979867002287 486.59998535781983Q191.59991214691905 405.89997803672975 47.800175706161895 354.3999414312794L39.00014642180158 369.89997803672975Q117.50018302725198 408.89997803672975 187.65025257760772 459.6499597340046Q257.80032212796345 510.3999414312794 315.7004099810444 568.2999194680092Q373.60049783412535 626.1998975047389 413.0005856872063 685.599912146919H500.9997071563968ZM571.299626624406 824.3999414312793Q570.299626624406 814.3999414312793 562.0996193033159 807.2499450918244Q553.8996119822258 800.0999487523694 534.299626624406 797.7999560734595V437.3002123116123Q534.299626624406 433.0002196327024 525.399721798577 427.45024525651763Q516.499816972748 421.9002708803329 502.6499597340046 418.0002928436031Q488.8001024952611 414.10031480687337 473.8002489170627 414.10031480687337H460.00036605450396V836.1998975047389ZM854.4001610639817 749.999633945496Q854.4001610639817 749.999633945496 863.9001244585313 742.4496595693113Q873.400087853081 734.8996851931266 888.0000366054504 723.099729119667Q902.5999853578198 711.2997730462075 918.6499231285542 697.999816972748Q934.6998608992885 684.6998608992885 948.499816972748 672.1998975047389Q944.499816972748 656.1998975047389 921.5998389360183 656.1998975047389H64.60020499052222L55.90019766943213 685.599912146919H803.3003587334139Z" fill="#173F42" transform="translate(790.700 103.000) scale(0.041000 -0.041000)"/>
</svg>
