<svg xmlns="http://www.w3.org/2000/svg" viewBox="0 0 960 128" role="img" aria-labelledby="title">
  <title id="title">组织合适的本地 Skills，把复杂任务做完整。</title>
  <metadata>Lettering derived from Source Han Serif CN SemiBold, licensed under SIL Open Font License 1.1.</metadata>
  <path d="M38 81 89 -38C101 -34 110 -25 114 -12C249 58 345 117 411 160L408 171C259 131 105 94 38 81ZM345 784 219 839C194 762 119 620 63 568C54 562 32 557 32 557L79 444C85 447 91 452 97 459C142 474 185 491 223 506C173 430 113 355 64 315C55 308 31 303 31 303L77 190C85 193 92 198 98 207C227 252 337 301 397 327L395 341C290 326 186 312 114 304C217 384 332 503 393 588C412 584 426 591 431 599L312 667C300 637 280 598 256 558L103 552C177 611 261 701 309 769C329 767 340 775 345 784ZM437 807V-9H320L328 -38H955C968 -38 978 -33 980 -22C954 10 907 57 907 57L866 -9H856V725C881 729 894 734 901 744L793 823L748 766H541ZM530 -9V229H759V-9ZM530 258V489H759V258ZM530 518V737H759V518Z" fill="#91D4CF" transform="translate(271.285 43.000) scale(0.038000 -0.038000)"/>
  <path d="M721 263 709 256C779 172 858 44 876 -58C980 -143 1056 93 721 263ZM659 223 531 281C477 142 390 7 313 -75L325 -85C434 -22 538 78 617 208C640 204 653 212 659 223ZM47 81 101 -34C111 -31 121 -20 124 -7C260 65 358 127 424 171L421 183C271 137 114 96 47 81ZM340 789 215 840C193 763 126 621 73 569C66 562 45 558 45 558L90 447C97 450 103 455 109 462C158 479 205 496 245 512C194 436 135 361 86 321C76 314 52 309 52 309L97 197C104 200 111 205 117 212C240 255 348 301 406 326L404 340C302 327 200 314 129 306C235 388 355 514 417 603C434 599 446 603 452 611V274H468C517 274 546 293 546 300V341H792V289H809C856 289 890 308 890 314V728C913 731 923 738 930 746L835 820L787 764H558L452 805V617L340 682C326 648 303 605 275 560L113 553C182 613 260 704 305 772C325 771 336 779 340 789ZM546 370V735H792V370Z" fill="#91D4CF" transform="translate(309.285 43.000) scale(0.038000 -0.038000)"/>
  <path d="M266 470 274 441H714C728 441 738 446 741 457C701 493 636 544 636 544L577 470ZM528 779C594 627 735 505 893 428C900 463 929 501 971 512L972 527C808 582 635 668 546 792C574 794 587 800 591 812L440 849C393 706 202 503 31 403L37 389C234 470 435 630 528 779ZM699 260V25H304V260ZM205 289V-83H220C261 -83 304 -61 304 -52V-4H699V-74H716C748 -74 798 -56 799 -49V242C820 247 835 256 842 264L738 343L689 289H311L205 333Z" fill="#91D4CF" transform="translate(347.285 43.000) scale(0.038000 -0.038000)"/>
  <path d="M97 826 87 820C131 763 186 677 202 606C296 539 370 728 97 826ZM872 647 815 572H685V725C749 734 808 744 856 754C884 742 905 743 916 752L816 847C714 802 515 742 355 713L359 698C433 700 512 706 588 714V572H322L330 543H588V390H503L404 431V70H418C457 70 498 91 498 100V136H781V79H796C828 79 875 99 876 107V345C896 349 910 358 917 366L817 442L770 390H685V543H948C962 543 973 548 976 559C937 595 872 647 872 647ZM781 361V165H498V361ZM170 126C128 97 73 54 34 29L106 -73C114 -67 117 -59 114 -50C145 3 196 76 216 110C227 126 236 128 250 111C336 -11 427 -55 625 -55C720 -55 822 -55 900 -55C905 -14 927 18 967 28V40C855 34 764 33 655 33C456 33 349 54 264 143L258 148V456C286 460 301 468 309 476L203 562L155 497H31L37 469H170Z" fill="#91D4CF" transform="translate(385.285 43.000) scale(0.038000 -0.038000)"/>
  <path d="M538 456 528 449C572 395 620 312 628 242C720 166 807 360 538 456ZM357 809 219 842C212 788 200 711 191 658H173L81 700V-50H96C135 -50 169 -28 169 -18V59H345V-18H359C391 -18 434 3 435 11V614C455 618 471 626 477 634L381 710L335 658H231C259 698 294 749 318 787C340 787 353 794 357 809ZM345 629V380H169V629ZM169 351H345V88H169ZM725 803 591 843C562 689 504 531 445 429L458 420C518 475 572 547 618 631H827C821 290 809 79 772 44C761 34 753 31 734 31C709 31 639 36 592 41L591 25C637 17 677 3 694 -13C710 -27 715 -51 715 -83C773 -83 816 -67 848 -31C899 27 915 228 922 617C945 619 957 625 965 634L870 717L817 660H633C653 699 671 740 687 783C709 783 721 792 725 803Z" fill="#91D4CF" transform="translate(423.285 43.000) scale(0.038000 -0.038000)"/>
  <path d="M827 701 765 619H546V801C576 806 584 816 587 832L448 846V619H67L76 590H386C322 399 196 199 29 70L40 59C222 157 359 297 448 461V172H245L253 143H448V-83H467C507 -83 546 -63 546 -52V143H729C743 143 753 148 756 159C719 196 657 250 657 250L601 172H546V589C612 364 727 191 874 89C890 136 924 167 964 173L967 183C812 256 652 408 565 590H911C925 590 935 595 938 606C897 645 827 701 827 701Z" fill="#91D4CF" transform="translate(461.285 43.000) scale(0.038000 -0.038000)"/>
  <path d="M800 621 696 583V801C722 805 730 815 732 829L607 842V550L500 510V721C524 725 533 736 535 749L408 763V476L280 429L299 405L408 445V56C408 -30 447 -50 560 -50H704C924 -50 973 -34 973 13C973 31 963 42 930 54L927 201H915C896 131 879 77 868 58C861 48 851 44 835 43C813 40 769 39 710 39H569C513 39 500 50 500 80V479L607 518V107H623C658 107 696 127 696 137V551L819 596C816 381 809 294 793 276C787 270 781 267 767 267C751 267 721 269 702 271V256C726 250 742 241 752 229C761 216 763 194 763 167C800 167 834 177 858 199C896 235 906 318 909 582C929 585 941 591 948 599L857 673L809 624ZM26 128 76 15C87 20 95 30 98 43C226 126 319 198 383 248L378 259L242 204V508H363C377 508 386 513 389 524C360 558 306 610 306 610L260 537H242V782C268 786 276 796 278 810L151 823V537H37L45 508H151V170C98 150 53 136 26 128Z" fill="#91D4CF" transform="translate(499.285 43.000) scale(0.038000 -0.038000)"/>
  <path d="M272 -18C438 -18 539 65 539 193C539 299 489 357 338 421L290 442C215 475 171 514 171 587C171 670 235 715 326 715C360 715 386 709 414 695L449 547H498L504 698C453 733 392 753 314 753C172 753 66 684 66 555C66 446 132 381 257 327L301 308C399 267 432 229 432 159C432 70 366 21 262 21C215 21 181 27 143 45L106 199H58L52 41C105 6 189 -18 272 -18Z" fill="#91D4CF" transform="translate(546.899 43.000) scale(0.038000 -0.038000)"/>
  <path d="M351 498 449 486 334 373 231 271V647L235 804L220 813L36 778V751L119 746V232L117 37L38 29V0H307V29L233 36C232 91 231 172 231 230L296 291L454 0H629V29L557 36L374 365L505 489L602 498V527H351Z" fill="#91D4CF" transform="translate(568.863 43.000) scale(0.038000 -0.038000)"/>
  <path d="M170 655C207 655 239 682 239 721C239 759 207 787 170 787C132 787 101 759 101 721C101 682 132 655 170 655ZM117 0H305V29L234 36C233 93 232 177 232 232V385L235 532L223 541L33 494V469L117 463C119 414 120 367 120 300V232L118 37L41 29V0Z" fill="#91D4CF" transform="translate(592.879 43.000) scale(0.038000 -0.038000)"/>
  <path d="M116 0H314V29L234 37C232 98 231 172 231 232V647L235 804L220 813L36 778V751L119 746V232L117 37L34 29V0Z" fill="#91D4CF" transform="translate(605.875 43.000) scale(0.038000 -0.038000)"/>
  <path d="M116 0H314V29L234 37C232 98 231 172 231 232V647L235 804L220 813L36 778V751L119 746V232L117 37L34 29V0Z" fill="#91D4CF" transform="translate(619.023 43.000) scale(0.038000 -0.038000)"/>
  <path d="M228 -16C369 -16 448 52 448 150C448 225 406 274 304 308L250 326C175 350 149 378 149 422C149 473 189 508 259 508C290 508 316 502 343 488L369 384H415L420 498C366 528 320 543 258 543C127 543 55 474 55 382C55 303 106 257 191 229L245 210C326 185 349 156 349 110C349 53 305 19 221 19C183 19 154 25 127 38L103 153H52L49 28C105 0 158 -16 228 -16Z" fill="#91D4CF" transform="translate(632.171 43.000) scale(0.038000 -0.038000)"/>
  <path d="M172 -34C129 -19 72 2 72 60C72 99 102 133 148 133C198 133 231 94 231 33C231 -50 190 -158 79 -211L64 -182C140 -141 167 -80 172 -34Z" fill="#91D4CF" transform="translate(650.715 43.000) scale(0.038000 -0.038000)"/>
  <path d="M505 715H623V405H505ZM26 349 71 233C82 236 91 246 96 258L177 298V40C177 27 173 22 157 22C139 22 55 28 55 28V13C95 7 116 -3 129 -18C141 -32 146 -55 148 -84C254 -74 268 -35 268 33V344C327 376 375 403 413 424L410 436L268 402V595H392C402 595 411 598 414 606V51C414 -35 451 -55 563 -55H706C922 -55 972 -37 972 8C972 26 962 38 929 49L926 192H914C896 124 880 71 869 54C862 44 852 39 837 38C816 36 771 35 712 35H574C517 35 505 45 505 75V376H826V302H841C887 302 919 321 919 329V704C939 707 951 714 958 722L858 796L817 744H518L414 785V615C384 648 334 692 334 692L287 624H268V804C292 808 302 818 305 832L177 845V624H34L42 595H177V381C112 366 58 354 26 349ZM712 715H826V405H712Z" fill="#D7A1AF" transform="translate(291.000 88.000) scale(0.042000 -0.042000)"/>
  <path d="M455 306 337 357H682V326H698C729 326 777 344 778 351V573C796 576 809 584 814 591L718 665L673 615H337L259 647C273 664 286 681 298 699H884C898 699 908 704 911 715C869 751 802 801 802 801L744 728H318L346 776C368 772 381 780 386 792L256 846C210 703 127 570 48 491L59 480C123 515 182 562 236 621V317H250C279 317 310 328 323 337C285 247 209 137 122 68L131 56C209 90 279 140 335 194C368 141 410 97 460 61C346 0 205 -41 49 -68L53 -84C235 -72 394 -39 524 20C623 -33 744 -64 884 -83C893 -36 918 -3 960 8V21C837 26 717 39 612 67C676 106 730 154 774 210C801 211 812 213 820 223L730 310L667 258H393L418 292C442 290 450 296 455 306ZM521 97C452 125 394 162 351 210L368 229H661C625 179 578 135 521 97ZM682 586V501H331V586ZM682 386H331V472H682Z" fill="#D7A1AF" transform="translate(333.000 88.000) scale(0.042000 -0.042000)"/>
  <path d="M380 187 262 251C223 165 135 42 45 -34L55 -46C172 9 280 101 343 176C365 172 375 177 380 187ZM635 234 625 226C699 163 797 63 835 -17C943 -77 993 136 635 234ZM839 401 777 322H550V421C572 424 582 432 585 447L451 460V322H56L64 293H451V45C451 31 446 26 429 26C407 26 294 33 294 33V19C345 11 370 0 386 -16C402 -31 408 -54 411 -86C533 -74 550 -33 550 39V293H925C939 293 950 298 953 309C910 347 839 401 839 401ZM485 833 350 845C350 799 349 756 345 714H93L102 685H342C324 561 264 456 57 369L67 354C349 434 418 550 441 685H641V498C641 440 653 422 731 422H805C926 422 962 436 962 472C962 489 957 499 933 509L930 616H918C904 567 891 526 883 512C879 504 875 502 866 502C858 501 837 501 815 501H756C735 501 732 504 732 515V677C749 679 759 684 765 691L678 765L631 714H445C448 745 450 776 452 808C474 810 483 820 485 833Z" fill="#D7A1AF" transform="translate(375.000 88.000) scale(0.042000 -0.042000)"/>
  <path d="M798 824C695 770 491 697 325 660L329 645C404 650 484 659 561 670V393H295L303 365H561V-11H315L323 -40H921C935 -40 946 -35 948 -24C908 14 842 67 842 67L782 -11H660V365H945C959 365 970 370 972 381C933 418 867 471 867 471L808 393H660V686C730 698 794 712 846 726C876 715 897 716 907 726ZM238 845C194 653 109 458 25 335L38 326C81 362 121 405 158 454V-84H176C213 -84 253 -63 254 -55V536C272 539 281 546 284 555L237 572C274 637 307 707 335 783C358 782 370 791 375 803Z" fill="#D7A1AF" transform="translate(417.000 88.000) scale(0.042000 -0.042000)"/>
  <path d="M571 396 426 414C425 368 420 322 411 279H112L121 250H403C365 117 269 3 51 -72L57 -85C343 -23 459 97 508 250H724C714 135 696 55 675 37C666 30 657 28 640 28C619 28 538 34 488 38V24C533 16 576 3 595 -11C612 -26 617 -50 616 -76C671 -76 709 -66 738 -45C784 -12 809 86 820 236C841 238 853 244 860 251L766 329L715 279H516C524 308 529 339 533 370C555 371 568 379 571 396ZM485 813 344 850C293 719 184 570 72 488L82 478C170 518 254 579 324 649C359 593 403 547 455 509C337 439 192 387 34 353L39 338C225 357 388 400 522 467C626 409 753 374 898 353C907 401 933 432 975 444V456C844 463 716 480 605 514C678 560 739 616 789 681C815 683 827 685 835 695L741 785L676 731H397C415 754 432 777 446 800C473 798 481 803 485 813ZM514 547C445 578 386 617 342 667L373 702H671C631 644 578 593 514 547Z" fill="#D7A1AF" transform="translate(459.000 88.000) scale(0.042000 -0.042000)"/>
  <path d="M288 374V-30H301C336 -30 371 -10 371 -2V67H501V7H517C552 7 584 27 586 32V330C601 333 615 340 622 348L548 417L509 374H481V581H632L638 582C621 513 600 450 577 398L591 390C619 421 644 456 667 495C677 387 694 285 722 195C676 94 609 5 510 -72L519 -84C621 -31 696 35 752 111C785 35 829 -30 888 -82C901 -36 930 -10 976 0L979 9C904 54 845 114 799 186C863 305 891 445 905 601H953C967 601 976 606 979 617C945 652 887 703 887 703L835 630H729C748 681 763 735 776 792C798 793 810 803 813 815L680 844C674 764 661 684 644 610C613 640 572 676 572 676L524 610H481V801C504 804 512 813 514 827L390 838V610H242L249 581H390V374H376L288 411ZM752 274C720 348 697 432 683 524C695 548 707 574 718 601H807C801 484 786 374 752 274ZM371 96V345H501V96ZM178 844C147 660 87 465 23 338L36 329C68 364 97 403 124 447V-84H140C173 -84 210 -65 211 -58V533C229 536 239 543 242 552L190 571C221 638 247 709 269 784C291 784 304 793 307 805Z" fill="#D7A1AF" transform="translate(501.000 88.000) scale(0.042000 -0.042000)"/>
  <path d="M422 844 414 838C451 806 481 750 485 700C582 629 675 823 422 844ZM682 581 627 515H218L226 486H754C768 486 779 491 781 502C743 536 682 581 682 581ZM170 737 155 736C159 679 117 628 81 609C51 594 32 566 42 533C56 497 105 490 135 511C168 533 194 581 189 651H818C809 612 793 563 780 530L791 523C835 550 894 597 927 632C947 633 958 635 966 643L869 735L814 680H185C182 698 177 717 170 737ZM836 418 780 350H77L85 321H324C313 168 278 34 33 -72L42 -86C365 -3 410 139 428 321H550V29C550 -39 569 -57 663 -57H769C934 -57 971 -39 971 1C971 19 965 31 936 41L934 178H922C906 116 892 64 882 47C877 36 872 33 860 32C846 32 814 31 777 31H683C649 31 645 36 645 51V321H913C927 321 937 326 939 337C900 371 836 418 836 418Z" fill="#D7A1AF" transform="translate(543.000 88.000) scale(0.042000 -0.042000)"/>
  <path d="M227 176V-28H40L49 -56H933C947 -56 957 -51 960 -40C921 -6 859 42 859 42L803 -28H546V98H820C834 98 845 102 847 113C810 147 750 193 750 193L696 126H546V234H859C873 234 883 239 886 249C849 282 790 327 790 327L737 262H104L113 234H453V-28H318V139C342 143 349 152 351 165ZM81 666V484H92C123 484 158 501 158 508V516H215C173 438 107 364 26 311L35 295C114 329 183 372 238 424V292H254C285 292 322 309 322 318V472C363 445 412 398 431 358C514 317 558 474 324 485L322 483V516H406V492H419C445 492 483 510 484 517V630C498 632 510 639 514 645L435 704L398 666H322V727H512C526 727 536 732 539 743C505 773 450 815 450 815L402 756H322V811C346 814 354 823 356 836L238 848V756H45L53 727H238V666H163L81 700ZM238 545H158V637H238ZM322 545V637H406V545ZM620 843C600 728 556 616 507 544L520 534C554 558 586 589 614 625C633 570 656 520 686 475C632 412 558 360 462 318L468 305C572 334 656 374 723 427C770 373 831 329 913 298C920 342 940 367 975 380L977 391C896 409 829 437 774 474C825 528 861 592 884 667H942C956 667 965 672 968 683C933 717 874 765 874 765L822 696H663C679 724 694 754 707 786C728 786 740 795 744 807ZM719 519C681 555 651 597 629 645L645 667H783C769 613 748 564 719 519Z" fill="#D7A1AF" transform="translate(585.000 88.000) scale(0.042000 -0.042000)"/>
  <path d="M183 -83C261 -83 324 -19 324 59C324 137 261 200 183 200C105 200 41 137 41 59C41 -19 105 -83 183 -83ZM183 -47C124 -47 77 1 77 59C77 117 124 164 183 164C241 164 288 117 288 59C288 1 241 -47 183 -47Z" fill="#D7A1AF" transform="translate(627.000 88.000) scale(0.042000 -0.042000)"/>
  <path d="M172 108 C270 89 354 125 454 107 C554 89 646 123 788 101" fill="none" stroke="#70B9B5" stroke-linecap="round" stroke-width="2"/>
  <path d="M278 118 C364 105 438 126 526 114 C606 103 672 116 732 108" fill="none" stroke="#C28B9A" stroke-linecap="round" stroke-width="1.5"/>
</svg>
