<svg xmlns="http://www.w3.org/2000/svg" viewBox="0 0 960 140" role="img" aria-labelledby="title">
  <title id="title">任务中断后怎样继续，完成后怎样复查</title>
  <metadata>Lettering derived from Noto Serif SC and Bona Nova, licensed under SIL Open Font License 1.1.</metadata>
  <path d="M63 0V23Q92 25 105.0 38.0Q118 51 118 100V565Q118 614 103.5 627.5Q89 641 48 642V665H333V642Q304 641 291.0 627.5Q278 614 278 565V100Q278 51 293.0 38.0Q308 25 348 23V0Z" fill="#80683D" transform="translate(467.217 22.000) scale(0.023000 -0.023000)"/>
  <path d="M295 -8Q288 18 283.5 35.5Q279 53 268 79L75 565Q62 599 52.0 615.0Q42 631 31.5 636.0Q21 641 5 642V665H287V642Q247 640 241.5 618.5Q236 597 249 565L382 224H384L508 565Q521 599 506.0 619.5Q491 640 447 642V665H630V642Q610 640 592.5 619.5Q575 599 562 565L386 79Q376 52 372.0 35.0Q368 18 363 -8Z" fill="#80683D" transform="translate(477.925 22.000) scale(0.023000 -0.023000)"/>
  <path d="M81.3 38 H333.3 C370.7 38 388 42.2 410.7 47.8 C432 53.1 454 50.6 469.3 42.9 C451.3 43.6 442 48.5 447.3 53.4 C455.3 60.1 480 55.9 494.7 46.1 C513.3 33.8 539.3 38 566.7 38 H878.7" fill="none" stroke="#80683D" stroke-width="2.4" stroke-linecap="square"/>
  <path d="M102.7 42.9 H328.7 C365.3 42.9 384.7 46.8 406.7 51.7" fill="none" stroke="#5A3037" stroke-width="1.4"/>
  <path d="M857.3 42.9 H582 C546.7 42.9 526.7 46.8 504.7 51.7" fill="none" stroke="#5A3037" stroke-width="1.4"/>
  <path d="M291.55930802558333 393.6400329511627H818.5222406790634L872.4011532906944 463.07825358837704Q872.4011532906944 463.07825358837704 882.0609555837182 455.0984348197719Q891.720757876742 447.1186160511667 906.6404448406964 434.5588961360496Q921.5601318046508 421.99917622093255 938.1598022930239 407.7594727813968Q954.7594727813969 393.5197693418611 968.6392091720952 380.3599670488373Q967.279242123258 372.3599670488373 959.9192750744207 368.6799835244186Q952.5593080255834 365 942.199340976746 365H299.55930802558333ZM312.1194398302341 -8.759472781396838H793.3624383860396L847.3212521441825 61.398681953492094Q847.3212521441825 61.398681953492094 857.161037961625 53.41886318488693Q867.0008237790674 45.43904441628177 882.4205107430219 32.69934097674604Q897.8401977069761 19.959637537210327 914.4398681953492 5.719934097674605Q931.0395386837222 -8.519769341861117 944.9192750744206 -22.039538683722235Q943.279242123258 -29.399505732559536 936.0593080255833 -33.39950573255953Q928.8393739279087 -37.39950573255953 917.8393739279087 -37.39950573255953H320.1194398302341ZM805.921746411623 819.5189455627936 901.1186160511667 734.7619441185991Q893.6787478558175 728.0420100209245 879.4789949895378 727.6820429720872Q865.279242123258 727.3220759232499 843.9596375372104 734.7619441185991Q778.9596375372104 716.5617793627857 692.9196869639544 698.8014828023214Q606.8797363906984 681.0411862418571 512.5197693418611 667.3208402546488Q418.1598022930238 653.6004942674405 327.5197693418611 645.8401977069761L323.599670488373 662.2405272186031Q386.7199340976746 675.400329511627 454.98023065813885 694.0601318046508Q523.2405272186031 712.7199340976746 588.5407743523233 734.2397034395358Q653.8410214860436 755.7594727813969 709.9612850953451 777.739291550002Q766.0815487046468 799.7191103186071 805.921746411623 819.5189455627936ZM164.8014828023214 539.3607908279048 199.88056016976586 585.0395386837222 275.51812178372626 557.320428365115Q273.51812178372626 550.320428365115 266.19810530814493 545.6404448406964Q258.87808883256355 540.9604613162778 245.79818768605162 538.6004942674405V-55.2800659023254Q245.43822063721433 -58.359967048837305 235.29859957558534 -64.51976934186112Q225.15897851395638 -70.67957163488494 210.49958811046628 -75.79942335465279Q195.8401977069762 -80.91927507442065 179.64085673023013 -80.91927507442065H164.8014828023214ZM247.88220772790075 841.279242123258 368.1985171976786 804.1202636093016Q364.8385501488413 795.400329511627 355.478583100004 789.400329511627Q346.1186160511667 783.400329511627 329.1186160511667 784.400329511627Q294.5988467093056 691.0008237790674 250.17915974535123 606.5407743523234Q205.75947278139685 522.0807249255794 153.57990114651193 450.9604613162778Q101.40032951162698 379.8401977069762 42.84102148604363 326.2800659023254L29.280889681392836 335.8401977069762Q71.84102148604363 396.6400329511627 113.18121919301981 478.1198517197679Q154.52141689999598 559.599670488373 189.5016475581349 652.8995057325595Q224.48187821627377 746.199340976746 247.88220772790075 841.279242123258ZM568.3616146069721 717.320428365115H651.158154734889V-24.959637537210327Q650.7981876860516 -24.959637537210327 632.918863184887 -24.959637537210327Q615.0395386837222 -24.959637537210327 582.9209226325555 -24.959637537210327H568.3616146069721Z" fill="#173F42" transform="translate(119.800 106.000) scale(0.042000 -0.042000)"/>
  <path d="M562.9983524418651 397.6803954139524Q560.7182865395397 385.0403624627897 551.078253588377 379.32042836511505Q541.4382206372143 373.60049426744047 525.6383853930279 372.60049426744047Q516.2784183441905 294.52059312092854 490.6985171976786 224.80065902325396Q465.1186160511667 155.08072492557935 413.91886318488696 96.72075787674204Q362.71911031860714 38.360790827904744 276.71952220814086 -6.9592256476766075Q190.7199340976746 -52.27924212325796 59.88056016976586 -82.19934097674604L52.960461316277765 -68.63920917209526Q167.88056016976586 -31.039538683722235 241.22075787674203 20.200164755813486Q314.5609555837182 71.4398681953492 356.0411862418571 133.55971991511706Q397.521416899996 195.67957163488492 415.3216640337162 266.7796540127917Q433.12191116743645 337.87973639069844 435.96210887441265 414.92009885348807ZM722.0815487046468 279.5601318046508 767.2001647558135 324.79901146511907 851.7981876860516 254.16062607209125Q847.078253588377 248.80065902325396 837.2582371127957 244.760708449998Q827.4382206372143 240.72075787674206 812.078253588377 239.36079082790474Q803.9983524418651 128.20098853488093 785.0984348197719 55.22075787674205Q766.1985171976786 -17.759472781396838 732.878912611631 -42.47940687907144Q713.279242123258 -57.19934097674605 685.0395386837222 -65.05930802558335Q656.7998352441865 -72.91927507442065 620.0008237790674 -72.91927507442065Q620.3607908279048 -56.07990114651191 616.3208402546488 -41.36037893837102Q612.2808896813929 -26.640856730230137 599.4810544372064 -16.401153290694417Q586.9612850953453 -7.44151575348409 557.561367473252 0.758237112795678Q528.1614498511587 8.957989979075446 496.48187821627374 13.75782522326196V29.518121783726237Q520.6416805092975 27.518121783726237 551.441515753484 25.19810530814489Q582.2413509976706 22.878088832563538 608.3212521441825 21.05807235698219Q634.4011532906944 19.238055881400843 644.7611203395318 19.238055881400843Q669.6013180465079 19.238055881400843 680.6013180465079 28.518121783726237Q698.8813839488333 43.718286539539726 712.3014828023214 110.91886318488693Q725.7215816558095 178.11943983023414 732.7215816558095 279.5601318046508ZM773.4011532906944 279.5601318046508V250.2800659023254H121.84019770697618L112.84019770697618 279.5601318046508ZM686.4423395325515 729.7998352441865 744.720757876742 778.2784183441905 828.8385501488413 697.2405272186031Q822.1985171976786 690.1606260720913 812.1985171976786 688.1206754988353Q802.1985171976786 686.0807249255794 782.1985171976786 684.720757876742Q708.5988467093056 586.9209226325555 599.8793245011647 515.720757876742Q491.1598022930238 444.52059312092854 351.1602141825575 399.9802306581389Q211.16062607209125 355.4398681953492 43.00082377906744 335.19934097674604L37.08072492557935 351.03953868372224Q186.76112033953171 383.03953868372224 316.06136747325195 435.2195222081409Q445.3616146069722 487.39950573255953 543.881795838367 560.9995881104662Q642.4019770697619 634.599670488373 698.8822077279008 729.7998352441865ZM309.67957163488495 701.6392091720952Q352.39950573255953 637.0790773674445 420.69934097674604 590.6387972825615Q488.99917622093255 544.1985171976786 576.2990114651191 513.1981053081449Q663.5988467093056 482.19769341861115 764.0988467093056 464.83731448024014Q864.5988467093056 447.4769355418691 971.3591432697699 440.07660603024215L970.7191103186071 428.35667193256756Q943.9200988534881 422.0370673465199 926.8805601697659 402.3579076011687Q909.8410214860436 382.6787478558175 903.0411862418571 352.07990114651193Q763.0008237790674 373.07990114651193 645.1004942674405 412.89991762209326Q527.2001647558135 452.7199340976746 438.4398681953492 520.0197693418611Q349.67957163488495 587.3196045860476 295.19934097674604 690.4390444162817ZM473.4373968581469 812.7199340976746Q470.4373968581469 805.3599670488373 462.4373968581469 802.0Q454.4373968581469 798.6400329511627 434.7174627604723 800.9200988534881Q397.39785817442464 739.6803954139524 342.5383030151211 678.320428365115Q287.6787478558175 616.9604613162778 221.5992585988393 564.900329511627Q155.51976934186112 512.8401977069761 84.04036246278967 478L73.20016475581349 489.4802306581389Q130.40032951162698 530.8401977069761 183.4205107430218 589.7800659023253Q236.44069197441664 648.7199340976746 279.9608732058115 715.5597199151171Q323.4810544372063 782.3995057325595 349.3212521441825 846.5593080255834ZM726.8813839488333 729.7998352441865V700.5197693418611H302.76029656046427L328.400329511627 729.7998352441865Z" fill="#173F42" transform="translate(162.200 106.000) scale(0.042000 -0.042000)"/>
  <path d="M840.4019770697619 333.92009885348807V304.6400329511627H142.19934097674604V333.92009885348807ZM801.1622736302261 628 844.4810544372064 675.7586490023294 937.3187808069802 604.400329511627Q932.6787478558175 598.400329511627 921.5786654779108 592.860378938371Q910.478583100004 587.320428365115 895.1186160511667 584.320428365115V245.03953868372224Q895.1186160511667 241.67957163488492 883.0391267941885 236.23970343953573Q870.9596375372104 230.7998352441865 854.900329511627 226.03995057325596Q838.8410214860436 221.2800659023254 824.7215816558095 221.2800659023254H811.1622736302261V628ZM184.0774298093096 236.63920917209526Q184.0774298093096 232.83937392790875 173.8579076011687 225.9596375372103Q163.63838539302782 219.0799011465119 148.03912679418852 213.92009885348807Q132.43986819534922 208.76029656046427 114.52059312092855 208.76029656046427H101.48105443720632V628.3599670488373V667.3187808069802L191.8772650534961 628.3599670488373H835.0420100209245V599.0799011465119H184.0774298093096ZM575.5980229302381 828.3196045860476Q573.9579899790755 818.3196045860476 566.4579899790755 810.9596375372103Q558.9579899790755 803.599670488373 539.2380558814009 800.599670488373V-49.68039541395237Q539.2380558814009 -54.760296560464276 529.1985171976787 -62.640032951162695Q519.1589785139564 -70.51976934186112 503.599670488373 -76.03953868372224Q488.0403624627897 -81.55930802558335 471.4810544372063 -81.55930802558335H455.28171346046025V841.199340976746Z" fill="#173F42" transform="translate(204.600 106.000) scale(0.042000 -0.042000)"/>
  <path d="M184.9588137581429 801.5601318046508Q183.9588137581429 791.5601318046508 175.85873138023615 784.9200988534881Q167.7586490023294 778.2800659023254 150.1186160511667 775.6400329511627V737H78.04118624185712V796.3599670488373V813.3599670488373ZM132.91927507442065 776.2405272186031 150.1186160511667 765.9209226325555V9.321252144182509H157.47858310000402L130.71911031860716 -31.55766046744847L49.2413509976706 21.601318046507906Q57.32125214418251 30.041186241857112 71.0411862418571 39.20098853488093Q84.76112033953171 48.360790827904744 95.84102148604363 52.72075787674204L78.04118624185712 20.200988534880928V776.2405272186031ZM544.2388796604682 702.0807249255794Q540.878912611631 694.3607908279048 532.0189455627938 688.5407743523234Q523.1589785139564 682.720757876742 507.79901146511907 683.0807249255794Q488.99917622093255 644.5205931209285 465.37932450116466 602.820428365115Q441.7594727813968 561.1202636093016 418.599670488373 529.4802306581389L401.3196045860476 537.7602965604643Q413.4398681953492 575.1202636093016 426.06013180465084 629.0601318046508Q438.6803954139524 683 449.52059312092854 734.3599670488373ZM849.3187808069802 -58.7199340976746Q849.3187808069802 -62.43986819534921 832.5193574523273 -71.99958811046628Q815.7199340976746 -81.55930802558335 786.4810544372064 -81.55930802558335H774.0016475581349V502.3599670488373H849.3187808069802ZM956.0395386837222 760.4011532906944Q940.1598022930239 745.6013180465079 902.1202636093016 759.6812191930198Q868.4802306581389 749.7611203395318 822.3801482802321 739.7009885348809Q776.2800659023254 729.6408567302301 725.8599670488372 721.0807249255793Q675.4398681953492 712.5205931209285 627.7998352441865 707.2405272186031L623.5197693418611 721.720757876742Q665.2001647558135 736.6004942674405 710.3805601697659 757.5201812313949Q755.5609555837183 778.4398681953492 795.9612850953451 800.639621061629Q836.3616146069721 822.8393739279087 861.841845265111 840.6392091720952ZM673.078253588377 730.4802306581389Q669.078253588377 722.400329511627 650.1985171976786 720.0403624627896V419.7594727813968Q650.1985171976786 354.67957163488495 644.8385501488413 287.19975286627977Q639.478583100004 219.7199340976746 620.6787478558175 153.56013180465078Q601.878912611631 87.40032951162698 563.5193574523274 27.100494267440464Q525.1598022930239 -33.19934097674605 458.80065902325396 -82.27924212325796L444.32042836511505 -70.99917622093255Q503.0807249255794 -2.399505732559536 530.7409391081369 77.20016475581349Q558.4011532906944 156.7998352441865 566.8212521441825 243.81960458604763Q575.2413509976706 330.83937392790875 575.2413509976706 420.19934097674604V763.8393739279087ZM423.7199340976746 94.16062607209125Q423.7199340976746 94.16062607209125 437.4798187686051 82.9007414011607Q451.23970343953573 71.64085673023014 470.03953868372224 55.84102148604363Q488.83937392790875 40.04118624185711 503.9192750744206 24.961285095345204Q499.9192750744206 8.961285095345206 478.19934097674604 8.961285095345206H115.03953868372223V38.2413509976706H380.400329511627ZM886.2009885348809 566.7586490023294Q886.2009885348809 566.7586490023294 895.3208402546488 559.3187808069802Q904.4406919744166 551.878912611631 918.7804777918591 540.2191103186071Q933.1202636093016 528.5593080255834 948.6400329511628 515.0395386837222Q964.1598022930239 501.5197693418611 976.9596375372104 489.07990114651193Q972.9596375372104 473.07990114651193 950.2397034395357 473.07990114651193H615.0403624627896V502.3599670488373H836.5617793627857ZM370.1598022930238 482.6013180465079Q343.67957163488495 383.8014828023214 293.2994233546528 298.1214992779027Q242.91927507442065 212.44151575348408 170.35914326976987 143.72158165580947L157.71911031860716 158.28171346046028Q208.7199340976746 229.36161460697218 243.48064254767263 318.6614498511587Q278.2413509976706 407.9612850953452 297.8418452651111 498.6013180465079H370.1598022930238ZM192.0799011465119 725.7998352441865Q234.47940687907143 690.0799011465119 254.239291550002 655.960049426744Q273.99917622093255 621.8401977069761 276.55930802558333 593.860378938371Q279.1194398302341 565.8805601697659 270.41968696395435 548.800659023254Q261.7199340976746 531.720757876742 246.48023065813885 528.9406919744167Q231.24052721860315 526.1606260720913 215.72075787674206 542.7602965604643Q218.16062607209125 571.2001647558135 212.64044484069643 603.4200988534881Q207.1202636093016 635.6400329511627 197.9200988534881 666.6799835244186Q188.7199340976746 697.7199340976746 177.7998352441865 721.1598022930239ZM377.71911031860714 430.6812191930198Q439.5988467093056 399.9612850953452 472.1989290872123 366.6214992779027Q504.79901146511907 333.28171346046025 514.8793245011648 303.7619441185991Q524.9596375372104 274.242174776738 518.6000823779068 254.48229010580746Q512.2405272186031 234.72240543487692 496.06095558371817 229.80230658138885Q479.8813839488333 224.88220772790075 460.28171346046025 240.92174641162296Q456.8014828023214 270.7215816558095 441.5210050104623 303.94151575348405Q426.2405272186032 337.1614498511587 406.0 368.56136747325195Q385.7594727813968 399.9612850953452 366.0790773674445 423.121087388369ZM416.79901146511907 807.5593080255834Q414.79901146511907 797.5593080255834 406.9789949895377 790.199340976746Q399.15897851395636 782.8393739279087 379.79901146511907 779.8393739279087V111.28171346046028Q379.79901146511907 106.56177936278567 371.739291550002 100.30189469185511Q363.67957163488495 94.04201002092455 351.1799835244187 89.78212534999399Q338.6803954139524 85.52224067906343 325.36079082790474 85.52224067906343H312.4011532906944V818.9991762209326ZM483.28088968139286 552.5601318046508Q483.28088968139286 552.5601318046508 495.94069197441667 541.900329511627Q508.60049426744047 531.2405272186031 525.8002471337202 515.6808073034861Q543 500.121087388369 556.7998352441865 485.3212521441825Q555.7998352441865 477.3212521441825 548.9398681953492 473.3212521441825Q542.0799011465119 469.3212521441825 531.4398681953492 469.3212521441825H169.99917622093255L161.99917622093255 498.6013180465079H442.8014828023214Z" fill="#173F42" transform="translate(247.000 106.000) scale(0.042000 -0.042000)"/>
  <path d="M163.0411862418571 749.9991762209326 266.6375616139604 715.8401977069761Q262.2775945651231 706.7602965604643 244.03789112558735 703.7602965604643V465.0790773674445Q244.03789112558735 400.99917622093255 238.31795702791274 330.1593904034901Q232.59802293023813 259.3196045860476 213.71828653953972 187.2998352441865Q194.8385501488413 115.28006590232539 154.85914326976987 48.840197706976184Q114.87973639069843 -17.599670488373025 47.00082377906744 -72.23970343953572L33.88056016976586 -60.95963753721033Q91.72075787674204 16.920098853488092 119.10090615697419 104.87973639069843Q146.48105443720632 192.83937392790875 154.76112033953171 284.71911031860714Q163.0411862418571 376.5988467093056 163.0411862418571 466.5988467093056ZM772.5205931209285 842.279242123258 860.8377263697739 758.3220759232499Q853.3978581744246 751.6021418255754 839.3780888325635 751.742174776738Q825.3583194907025 751.8822077279008 804.3986819534921 759.9621088744126Q745.6787478558175 747.9621088744126 673.378912611631 736.0819605941805Q601.0790773674445 724.2018123139484 521.279242123258 714.3616146069721Q441.47940687907146 704.521416899996 359.4995881104663 697.5411862418571Q277.5197693418611 690.5609555837183 198.7998352441865 687.720757876742L195.8797363906984 704.8410214860436Q270.1598022930238 715.6408567302301 351.07990114651193 731.300659023254Q432 746.9604613162778 510.42009885348807 765.6602141825576Q588.8401977069761 784.3599670488373 656.400329511627 804.0597199151171Q723.9604613162778 823.7594727813969 772.5205931209285 842.279242123258ZM202.39950573255953 538.0008237790674H805.1622736302261L861.0411862418571 606.7594727813969Q861.0411862418571 606.7594727813969 871.2009885348809 598.8196045860477Q881.3607908279048 590.8797363906984 897.4205107430219 578.7199340976747Q913.4802306581389 566.5601318046508 931.0799011465119 552.2203459872084Q948.679571634885 537.8805601697659 963.5593080255834 524.720757876742Q959.5593080255834 508.720757876742 935.8393739279087 508.720757876742H202.39950573255953ZM319 336.720757876742V372.5197693418611L407.4769355418691 336.720757876742H761.3220759232499L800.800659023254 382.279242123258L883.1186160511667 319.36079082790474Q878.7586490023294 313.00082377906745 869.7586490023294 308.64085673023015Q860.7586490023294 304.28088968139286 845.0387149046547 301.9209226325555V-51.79983524418651Q845.0387149046547 -55.159802293023816 826.0193574523273 -64.31960458604763Q807 -73.47940687907145 777.8813839488333 -73.47940687907145H764.6820429720873V307.44069197441667H396.8369025907064V-60.43986819534921Q396.8369025907064 -64.87973639069843 379.31754513837905 -73.8595551593036Q361.7981876860516 -82.83937392790875 331.83937392790875 -82.83937392790875H319ZM361.2388796604683 33.56013180465079H800.4406919744166V4.280065902325395H361.2388796604683Z" fill="#173F42" transform="translate(289.400 106.000) scale(0.042000 -0.042000)"/>
  <path d="M393.9176275162858 265.39950573255953Q390.9176275162858 245.39950573255953 363.19769341861115 241.31960458604763V42.31795702791275Q363.19769341861115 30.397858174424655 371.6177922720992 26.397858174424655Q380.03789112558735 22.397858174424655 414.91845129535324 22.397858174424655H551.679571634885Q596.1606260720913 22.397858174424655 628.621087388369 22.717874650006003Q661.0815487046468 23.037891125587354 674.3616146069721 24.037891125587354Q686.441515753484 25.677924076750053 691.3414333755773 28.357907601168705Q696.2413509976706 31.037891125587354 700.6812191930198 38.397858174424655Q707.8410214860436 52.03789112558735 716.8607908279048 83.41803940581948Q725.8805601697659 114.79818768605163 736.5601318046508 158.23805588140084H749.1202636093016L752.1202636093016 33.75782522326196Q772.8797363906984 27.238055881400843 779.9995881104662 19.678335966283772Q787.1194398302341 12.1186160511667 787.1194398302341 0.7990114651190723Q787.1194398302341 -13.240527218603162 777.3595551593036 -22.980230658138883Q767.599670488373 -32.7199340976746 741.9798187686051 -38.699752866279766Q716.3599670488373 -44.67957163488493 668.9200988534881 -47.079489256978185Q621.4802306581389 -49.47940687907144 546.4802306581389 -49.47940687907144H403.99917622093255Q354.7998352441865 -49.47940687907144 328.30024713372023 -43.03953868372223Q301.80065902325396 -36.59967048837302 292.32084025464883 -20.100082377906745Q282.84102148604364 -3.600494267440464 282.84102148604364 26.7586490023294V276.47940687907146ZM514.8780888325635 295.8385501488413Q514.8780888325635 291.8385501488413 496.81878080698016 282.49876433139883Q478.7594727813968 273.15897851395636 447.36079082790474 273.15897851395636H433.8014828023214V698.7199340976746H514.8780888325635ZM851.441515753484 768.3986819534921Q851.441515753484 768.3986819534921 861.1013180465079 760.9588137581429Q870.7611203395318 753.5189455627936 886.1808073034861 741.6791597453512Q901.6004942674405 729.8393739279087 918.5601318046508 715.8196045860476Q935.5197693418611 701.7998352441865 950.3995057325595 688.6400329511627Q946.3995057325595 672.6400329511627 923.3196045860476 672.6400329511627H257.720757876742L272.36079082790474 701.9200988534881H797.4827019953412ZM818.6013180465079 477.87808883256355Q818.6013180465079 477.87808883256355 828.2611203395318 470.43822063721433Q837.9209226325555 462.9983524418651 852.9806425476726 451.3385501488413Q868.0403624627896 439.6787478558175 884.460049426744 426.33896203837503Q900.8797363906984 412.99917622093255 914.1194398302341 400.19934097674604Q912.1194398302341 392.19934097674604 905.3995057325595 388.19934097674604Q898.679571634885 384.19934097674604 887.679571634885 384.19934097674604H473.07990114651193V413.47940687907146H766.0823724837143ZM782.5609555837183 616.7182865395397Q782.5609555837183 616.7182865395397 791.720757876742 609.7784183441904Q800.8805601697659 602.8385501488413 814.9402800848829 591.6787478558174Q829 580.5189455627936 844.9196869639543 567.1791597453512Q860.8393739279087 553.8393739279087 873.7191103186071 542.0395386837222Q869.7191103186071 526.0395386837222 847.6392091720952 526.0395386837222H472V555.3196045860476H733.0420100209245ZM399.4390444162818 791.3599670488373Q395.15897851395636 784 386.9789949895377 782.1000823779068Q378.79901146511907 780.2001647558135 360.71911031860714 785.7602965604643Q333.47940687907146 724.2405272186031 290.139621061629 656.6404448406963Q246.7998352441865 589.0403624627896 192.56013180465078 526.9200988534881Q138.32042836511508 464.7998352441865 76.92092263255553 419.9596375372103L65.44069197441665 429.1598022930238Q110.92092263255553 478.7998352441865 152.64126861976385 548.8397858174425Q194.36161460697218 618.8797363906984 227.7219935453432 696.099670488373Q261.0823724837142 773.3196045860476 280.4827019953412 843.7594727813969ZM194.52059312092857 230.7586490023294Q209.7998352441865 171.15897851395638 203.91927507442065 124.5193574523274Q198.0387149046548 77.87973639069843 180.87850072209727 46.100082377906745Q163.71828653953972 14.320428365115069 143.1985171976786 -2.8393739279087455Q130.6787478558175 -13.359143269769863 114.21911031860716 -17.779242123257955Q97.75947278139684 -22.199340976746047 83.47981876860516 -18.55971991511707Q69.20016475581349 -14.920098853488092 61.40032951162698 -2.1606260720912545Q52.60049426744047 15.1186160511667 60.980230658138886 31.838138259307584Q69.3599670488373 48.55766046744847 86.11943983023414 60.07742980930959Q106.95963753721033 73.35749571163498 127.83978581744248 99.05766046744847Q148.7199340976746 124.75782522326196 162.78006590232542 159.0580723569822Q176.8401977069762 193.35831949070243 178.40032951162698 231.3986819534921ZM750.4406919744166 248.79901146511907Q821.2397034395357 224.3986819534921 865.0593080255833 193.6787478558175Q908.878912611631 162.9588137581429 930.378912611631 131.3990938430258Q951.878912611631 99.83937392790875 955.779242123258 73.05971991511707Q959.679571634885 46.2800659023254 950.2401153290695 28.94028008488293Q940.800659023254 11.600494267440464 922.6013180465079 8.320428365115069Q904.4019770697619 5.040362462789673 882.2026360930158 21.159802293023816Q874.642504288365 58.67957163488493 851.4621088744127 98.93945630581548Q828.2817134604603 139.19934097674604 798.6412686197639 176.4592256476766Q769.0008237790674 213.71911031860716 739.8805601697659 240.59884670930558ZM472.28088968139286 262.7594727813968Q524.9596375372104 246.9588137581429 555.9789949895378 225.3986819534921Q586.9983524418651 203.8385501488413 600.618204161633 180.5387149046548Q614.2380558814009 157.23887966046829 613.7182865395398 137.49917622093255Q613.1985171976786 117.75947278139684 602.9789949895378 104.73970343953573Q592.7594727813969 91.71993409767461 576.2401153290695 89.89991762209326Q559.720757876742 88.0799011465119 541.1614498511587 102.11943983023414Q537.8813839488333 128.55930802558336 525.5012356686011 156.87932450116472Q513.121087388369 185.19934097674604 496.2409391081369 211.33937392790875Q479.36079082790474 237.47940687907143 461.44069197441667 255.83937392790875Z" fill="#173F42" transform="translate(331.800 106.000) scale(0.042000 -0.042000)"/>
  <path d="M264.67792407675006 492.19934097674604Q316.99752866279766 471.279242123258 347.8974462848909 446.69934097674604Q378.7973639069842 422.1194398302341 392.49752866279766 398.3196045860476Q406.19769341861115 374.5197693418611 406.4579899790755 354.7199340976746Q406.71828653953975 334.92009885348807 397.57866547791076 323.2001647558135Q388.4390444162818 311.4802306581389 373.2994233546528 310.24011532906945Q358.1598022930238 309 340.92009885348807 322.67957163488495Q336.1598022930238 349.1194398302341 321.83937392790875 378.97940687907146Q307.5189455627937 408.83937392790875 289.51853367326 436.69934097674604Q271.51812178372626 464.55930802558333 253.39785817442464 485.279242123258ZM304.9579899790754 830.3995057325595Q303.9579899790754 819.3995057325595 296.4579899790754 812.2195222081409Q288.9579899790754 805.0395386837222 269.23805588140084 802.0395386837222V-51.79983524418651Q269.23805588140084 -56.519769341861114 259.7784183441905 -63.13962106162897Q250.3187808069802 -69.75947278139684 236.69934097674604 -74.55930802558335Q223.0799011465119 -79.35914326976986 208.96046131627776 -79.35914326976986H192.84102148604362V841.9192750744206ZM262.23805588140084 586.7998352441865Q234.87808883256355 456.2001647558135 177.43863252674805 342.10008237790674Q119.99917622093255 228 30 138.1598022930238L16.43986819534921 151.0799011465119Q59.2800659023254 213 91.62026360930159 286.7199340976746Q123.96046131627777 360.4398681953492 146.4806425476726 440.9798187686051Q169.00082377906745 521.5197693418611 182.20098853488093 602.7998352441865H262.23805588140084ZM341.23970343953573 668.9588137581429Q341.23970343953573 668.9588137581429 355.53953868372224 656.6190279407004Q369.83937392790875 644.279242123258 389.99917622093255 626.5794892569781Q410.15897851395636 608.8797363906984 425.2388796604683 592.7199340976746Q424.2388796604683 584.7199340976746 417.0588961360496 580.7199340976746Q409.878912611631 576.7199340976746 399.2388796604683 576.7199340976746H56.44069197441665L48.44069197441665 606H294.4802306581389ZM888.478583100004 797.4802306581389Q879.8385501488413 777.7602965604643 849.478583100004 781.400329511627Q831.5988467093056 757.7602965604643 806.9991762209326 728.2602965604643Q782.3995057325595 698.7602965604643 755.2598846709305 668.5803130360457Q728.1202636093016 638.400329511627 701.4406919744166 611.7602965604643H684.400329511627Q697.9604613162778 644.5601318046508 713.0807249255794 685.539950573256Q728.2009885348809 726.5197693418611 742.3212521441825 767.8196045860476Q756.441515753484 809.1194398302341 766.5617793627857 842.199340976746ZM458.4802306581389 836.4794068790715Q513.5593080255834 814.6392091720952 546.0588961360497 788.739291550002Q578.558484246516 762.8393739279087 592.2384677709346 737.4596375372103Q605.9184512953532 712.0799011465119 605.3587313802361 690.7001647558135Q604.7990114651191 669.320428365115 594.2594727813969 656.5205931209285Q583.7199340976746 643.720757876742 566.7804777918591 642.800659023254Q549.8410214860436 641.8805601697659 530.441515753484 657.2800659023254Q526.2413509976706 685.7998352441865 512.9411038639504 717.1997528662798Q499.64085673023015 748.599670488373 482.2005766453472 777.9995881104662Q464.76029656046427 807.3995057325595 447.2800659023254 830.199340976746ZM693.9983524418651 -59.87973639069842Q693.9983524418651 -63.95963753721033 676.4789949895378 -73.33937392790875Q658.9596375372104 -82.71911031860716 629.0008237790674 -82.71911031860716H615.8014828023214V627.4802306581389H693.9983524418651ZM882.121087388369 280.8385501488413Q882.121087388369 280.8385501488413 891.4209226325555 273.21869842907347Q900.720757876742 265.5988467093056 914.9205107430219 253.7590608918631Q929.1202636093016 241.91927507442065 945.0 228.39950573255953Q960.8797363906984 214.8797363906984 973.679571634885 202.0799011465119Q970.0395386837222 186.0799011465119 946.9596375372104 186.0799011465119H381.07990114651193L373.07990114651193 215.3599670488373H832.0420100209245ZM826.3607908279048 498.3187808069802Q826.3607908279048 498.3187808069802 835.4806425476727 490.878912611631Q844.6004942674405 483.4390444162818 858.4402800848829 471.779242123258Q872.2800659023254 460.1194398302341 887.7998352441865 446.77965401279164Q903.3196045860476 433.4398681953492 916.1194398302341 421Q912.7594727813969 405 889.3995057325595 405H450.3196045860476L442.3196045860476 434.2800659023254H777.7215816558095ZM854.720757876742 690.4390444162817Q854.720757876742 690.4390444162817 863.8406095965099 683.1791597453512Q872.9604613162778 675.9192750744206 887.4802306581389 664.4394563058155Q902 652.9596375372104 917.6997528662798 639.7998352441865Q933.3995057325595 626.6400329511627 945.5593080255834 614.2001647558135Q941.5593080255834 598.2001647558135 919.4794068790715 598.2001647558135H428.7594727813968L420.7594727813968 627.4802306581389H805.7215816558095Z" fill="#173F42" transform="translate(374.200 106.000) scale(0.042000 -0.042000)"/>
  <path d="M386.2388796604683 595.7611203395318Q381.878912611631 586.7611203395318 366.878912611631 582.621087388369Q351.878912611631 578.4810544372064 328.15897851395636 588.4810544372064L355.95881375814287 595.7611203395318Q335.878912611631 560.4810544372064 304.3990938430258 517.2009885348809Q272.9192750744206 473.9209226325555 235.07948925697818 428.36079082790474Q197.23970343953573 382.80065902325396 157.25988467093055 341.32042836511505Q117.28006590232539 299.8401977069762 79.5601318046508 268.07990114651193L77.28006590232539 279.4398681953492H123.35914326976986Q119.99917622093255 243.72075787674206 109.0193574523274 221.64126861976388Q98.03953868372223 199.56177936278567 83.3599670488373 193.76194411859916L37.80065902325395 292.3196045860476Q37.80065902325395 292.3196045860476 49.60049426744047 295.35955515930357Q61.40032951162698 298.39950573255953 66.84019770697618 303.1194398302341Q95.68039541395237 330.87973639069844 128.0605436941845 374.7998352441865Q160.44069197441664 418.7199340976746 191.00082377906745 469.0799011465119Q221.56095558371823 519.4398681953492 246.121087388369 567.6997528662798Q270.6812191930198 615.9596375372104 283.8813839488333 653.0395386837222ZM300.3187808069802 788.400329511627Q296.3187808069802 779.0403624627896 281.9987643313989 773.360378938371Q267.6787478558175 767.6803954139524 243.23887966046829 776.6004942674405L271.7586490023294 784.6004942674405Q255.9588137581429 754.1606260720913 232.75906089186313 717.6206754988353Q209.55930802558336 681.0807249255794 181.85955515930357 643.4406919744167Q154.1598022930238 605.800659023254 125.32001647558134 572.0605436941845Q96.48023065813888 538.320428365115 69.40032951162698 512.2001647558135L68.12026360930157 524.2001647558135H112.63920917209526Q108.99917622093255 486.84102148604364 96.73929155000201 464.7215816558095Q84.47940687907145 442.60214182557536 68.87973639069843 436.4423395325515L29.00082377906744 536.7199340976746Q29.00082377906744 536.7199340976746 39.30065902325396 539.7598846709305Q49.60049426744047 542.7998352441865 54.68039541395237 546.8797363906984Q73.52059312092855 568.7199340976746 94.18080730348609 604.6799835244186Q114.84102148604363 640.6400329511627 133.86120271743846 682.3599670488372Q152.8813839488333 724.0799011465119 167.5815487046468 764.3397858174425Q182.28171346046028 804.599670488373 190.12191116743645 834.0395386837222ZM38.52059312092856 79.67874785581749Q68.52059312092855 85.59884670930559 119.60049426744047 98.65897851395638Q170.68039541395237 111.71911031860716 233.4802306581389 129.239291550002Q296.2800659023254 146.75947278139685 360.3599670488373 165.9596375372103L364.2800659023254 153.11943983023414Q320.5197693418611 125.23970343953572 256.639621061629 87.30024713372023Q192.75947278139685 49.360790827904744 106.95963753721033 5.721581655809484Q104.87973639069843 -3.638385393027818 98.65980229302382 -10.678335966283772Q92.4398681953492 -17.718286539539726 85.3599670488373 -19.718286539539726ZM60.960461316277765 290.03953868372224Q86.32042836511506 291.67957163488495 131.08031303604562 296.2796540127917Q175.8401977069762 300.87973639069844 231.82001647558135 307.4798187686052Q287.7998352441865 314.07990114651193 346.23970343953573 321.3599670488373L348.5197693418611 307.1598022930238Q322.599670488373 297 281.67957163488495 281.400329511627Q240.75947278139685 265.80065902325396 191.0794892569782 247.48105443720632Q141.39950573255953 229.1614498511587 88.23970343953572 211.48187821627377ZM49.40032951162698 531Q70.76029656046428 530 106.3401977069762 529.5Q141.9200988534881 529 185.39991762209326 529.8200164755813Q228.8797363906984 530.6400329511627 273.03953868372224 531.6400329511627L273.39950573255953 516.4398681953492Q245.75947278139685 506.2001647558135 190.75947278139685 488.760708449998Q135.75947278139685 471.3212521441825 76.23970343953572 455.12191116743645ZM507.07825358837704 796.679571634885Q506.07825358837704 786.679571634885 497.618204161633 779.679571634885Q489.1581547348889 772.679571634885 471.1581547348889 769.679571634885V732.4794068790715H396.9209226325555V791.8393739279087V808.8393739279087ZM453.5988467093056 771.7199340976746 471.1581547348889 761.0403624627896V-31.480230658138883H478.51812178372626L451.3986819534921 -73.07907736744447L368.121087388369 -19.20016475581349Q376.20098853488093 -10.400329511626976 390.1009061569742 -1.0605436941845108Q404.00082377906745 8.279242123257955 415.0807249255794 12.639209172095258L396.9209226325555 -20.240527218603162V771.7199340976746ZM927.1985171976786 704.3599670488373Q925.8385501488413 698 916.8385501488413 692.0Q907.8385501488413 686 892.1186160511667 687Q880.0387149046547 663.7199340976746 860.378912611631 631.2598846709305Q840.7191103186071 598.7998352441865 817.5593080255833 564.3797363906984Q794.3995057325595 529.9596375372104 770.8797363906984 499.39950573255953L758.679571634885 504.67957163488495Q771.1598022930239 540.7594727813969 784.2800659023254 585.5193574523274Q797.400329511627 630.279242123258 808.2005766453472 672.9991762209326Q819.0008237790674 715.7191103186071 824.2009885348809 743.3591432697699ZM729.078253588377 388.71911031860714Q790.3179570279127 354.6787478558175 827.5378911255873 319.75864900232943Q864.757825223262 284.8385501488413 882.9579899790755 253.1186160511667Q901.158154734889 221.3986819534921 904.2384677709346 196.45881375814287Q907.3187808069802 171.51894556279368 898.9991762209326 155.79901146511907Q890.679571634885 140.07907736744446 875.1799835244187 138.15897851395636Q859.6803954139524 136.23887966046829 840.720757876742 151.1985171976786Q833.2405272186031 187.55848424651592 812.7800659023253 229.61861605116673Q792.3196045860476 271.6787478558175 766.5790773674444 311.5588961360496Q740.8385501488413 351.4390444162818 717.158154734889 381.79901146511907ZM767.8385501488413 809.679571634885Q766.1985171976786 799.3995057325595 758.8785007220972 792.3995057325595Q751.558484246516 785.3995057325595 732.9184512953532 782.7594727813969V55.99917622093256Q732.9184512953532 51.27924212325796 723.9987643313989 45.15939040349009Q715.0790773674445 39.039538683722235 702.3595551593036 34.09967048837302Q689.6400329511627 29.159802293023816 676.2405272186031 29.159802293023816H661.5609555837183V820.8393739279087ZM701.9184512953532 438.07990114651193Q674.3583194907025 334.6400329511627 621.3785007220972 245.5Q568.3986819534921 156.3599670488373 492.2388796604683 85.0799011465119L479.95881375814287 99Q534.1194398302341 172.6400329511627 570.5 265.57990114651193Q606.8805601697659 358.5197693418611 626.9209226325555 454.07990114651193H701.9184512953532ZM836.6004942674405 516.8385501488413Q836.6004942674405 516.8385501488413 850.9402800848829 504.31878080698016Q865.2800659023254 491.79901146511907 884.9798187686051 474.37932450116466Q904.679571634885 456.9596375372103 920.1194398302341 440.7998352441865Q916.7594727813969 424.7998352441865 894.3995057325595 424.7998352441865H502.15897851395636L494.15897851395636 454.07990114651193H790.7611203395318ZM873.2009885348809 61.83855014884131Q873.2009885348809 61.83855014884131 882.5008237790674 54.3986819534921Q891.800659023254 46.95881375814289 906.320428365115 35.29901146511907Q920.8401977069761 23.639209172095256 936.7199340976746 10.299423354652792Q952.599670488373 -3.0403624627896737 965.7594727813969 -15.480230658138883Q962.1194398302341 -31.480230658138883 939.679571634885 -31.480230658138883H441.7594727813968V-2.2001647558134882H823.1219111674365ZM520.8797363906984 733.279242123258Q570.7191103186071 691.4390444162817 595.0189455627936 652.0391267941884Q619.3187808069802 612.6392091720952 624.5189455627936 580.5193574523273Q629.7191103186071 548.3995057325595 621.2594727813969 528.139621061629Q612.7998352441865 507.87973639069844 597.1202636093016 503.95963753721037Q581.4406919744166 500.03953868372224 564.4810544372064 517.7191103186071Q564.6408567302301 550.7990114651191 555.8406095965099 588.7590608918631Q547.0403624627896 626.7191103186071 533.9200988534881 663.4991762209326Q520.7998352441865 700.279242123258 506.9596375372103 728.6392091720952Z" fill="#173F42" transform="translate(416.600 106.000) scale(0.042000 -0.042000)"/>
  <path d="M837.5617793627857 553.2397034395357 883.720757876742 600.0387149046547 967.3591432697699 520.2001647558135Q961.3591432697699 515.1202636093016 952.5391267941885 513.2602965604642Q943.7191103186071 511.400329511627 928.9991762209326 509.76029656046427Q916.7594727813969 491.6803954139524 898.4798187686051 469.42051074302185Q880.2001647558135 447.16062607209125 860.2405272186031 426.0807249255794Q840.2808896813929 405.00082377906745 821.6812191930198 388.64085673023015L809.4810544372064 395.9209226325555Q816.7611203395318 418.0807249255794 824.3212521441826 447.10049426744047Q831.8813839488333 476.12026360930156 838.7615322290654 504.78006590232536Q845.6416805092975 533.4398681953492 848.921746411623 553.2397034395357ZM382.4802306581389 350.1598022930238Q434.599670488373 346.55930802558333 467.2994233546528 333.6392091720952Q499.99917622093255 320.71911031860714 516.8591432697699 303.9592256476766Q533.7191103186071 287.19934097674604 537.5593080255833 270.67957163488495Q541.3995057325595 254.1598022930238 534.7998352441865 241.82001647558133Q528.2001647558135 229.48023065813888 514.7005766453472 225.76029656046427Q501.20098853488093 222.0403624627897 483.1614498511587 230.9200988534881Q474.9612850953452 250.3599670488373 456.66103796162497 270.93986819534916Q438.36079082790474 291.5197693418611 416.2405272186031 310.37973639069844Q394.12026360930156 329.23970343953573 373.5601318046508 340.599670488373ZM447.8014828023214 462.5189455627937Q498.9209226325555 460.2784183441905 531.1606260720912 449.0383030151211Q563.400329511627 437.7981876860516 580.2602965604642 421.85831949070246Q597.1202636093016 405.91845129535324 600.820428365115 390.0387149046548Q604.5205931209285 374.15897851395636 598.4209226325555 361.6392091720952Q592.3212521441825 349.1194398302341 578.8216640337162 344.89950573255953Q565.3220759232499 340.67957163488495 547.2825372395278 349.19934097674604Q538.7224054348769 367.99917622093255 520.742174776738 387.5790773674445Q502.76194411859916 407.15897851395636 481.10172993604164 424.378912611631Q459.4415157534841 441.5988467093056 438.8813839488333 452.95881375814287ZM668.7191103186071 132.67957163488492Q752.558484246516 117.87891261163098 807.7582371127958 94.77883023372424Q862.9579899790755 71.67874785581749 894.5580723569822 45.33896203837503Q926.158154734889 18.99917622093256 938.2384677709346 -5.640444840696416Q950.3187808069802 -30.280065902325394 945.9192750744206 -48.37973639069842Q941.5197693418611 -66.47940687907145 925.860378938371 -73.05930802558336Q910.2009885348809 -79.63920917209526 886.0016475581349 -69.67957163488494Q870.0815487046468 -45.159802293023816 844.0012356686011 -18.719934097674606Q817.9209226325555 7.719934097674605 786.2405272186031 33.79983524418651Q754.5601318046508 59.87973639069842 721.8797363906984 82.63962106162897Q689.199340976746 105.39950573255953 660.4390444162817 122.19934097674604ZM765.9983524418651 467.03953868372224Q763.9983524418651 459.03953868372224 756.4983524418651 454.67957163488495Q748.9983524418651 450.3196045860476 728.6383853930279 450.9596375372103Q720.0387149046547 342.12026360930156 694.7590608918631 255.88056016976583Q669.4794068790715 169.64085673023013 620.9798187686051 104.42092263255553Q572.4802306581389 39.20098853488093 494.220757876742 -7.219110318607164Q415.9612850953452 -53.639209172095256 300.40197706976187 -83.83937392790875L293.2018123139484 -69.99917622093255Q426.2018123139484 -23.639209172095256 502.24176288720435 50.20057664534721Q578.2817134604603 124.04036246278967 610.6416805092977 232.1400329511627Q643.0016475581349 340.23970343953573 642.0016475581349 488.19934097674604ZM868.4406919744166 269.478583100004Q868.4406919744166 269.478583100004 877.7405272186031 262.21869842907347Q887.0403624627896 254.9588137581429 901.5601318046508 242.97899498953774Q916.0799011465119 230.99917622093255 932.2796540127918 217.65939040349008Q948.4794068790715 204.31960458604763 961.6392091720952 191.8797363906984Q957.9991762209326 175.8797363906984 934.9192750744206 175.8797363906984H338.32042836511505L330.32042836511505 205.1598022930238H817.7215816558095ZM888.2009885348809 553.2397034395357V523.9596375372104H374.07990114651193L365.4398681953492 553.2397034395357ZM702.5189455627936 827.199340976746Q701.5189455627936 817.5593080255834 693.418863184887 810.739291550002Q685.3187808069802 803.9192750744206 667.3187808069802 801.199340976746V533.599670488373H589.4818782162738V838.6392091720952ZM824.6004942674405 756.2380558814009Q824.6004942674405 756.2380558814009 833.7203459872082 748.9781712104702Q842.8401977069761 741.7182865395397 857.3599670488372 730.058484246516Q871.8797363906984 718.3986819534921 887.5794892569781 705.2388796604682Q903.279242123258 692.0790773674445 915.7990114651191 679.6392091720952Q912.7990114651191 663.6392091720952 889.7191103186071 663.6392091720952H404.76029656046427L396.76029656046427 692.9192750744206H774.6013180465079ZM401.1186160511667 601.2405272186031Q396.1186160511667 592.2405272186031 381.1186160511667 588.5605436941845Q366.1186160511667 584.8805601697659 343.0387149046548 595.5205931209285L370.8385501488413 602.1606260720913Q349.3986819534921 565.6004942674405 315.5588961360496 519.9402800848829Q281.71911031860714 474.2800659023254 241.15939040349008 426.5197693418611Q200.59967048837302 378.7594727813968 157.5799011465119 334.8990938430258Q114.5601318046508 291.0387149046548 74.12026360930157 257.07825358837704L71.84019770697618 268.43822063721433H114.99917622093255Q110.99917622093255 231.71911031860716 98.55930802558335 210.2796540127917Q86.11943983023414 188.8401977069762 71.15980229302382 182.40032951162698L31.00082377906744 281.59802293023813Q31.00082377906744 281.59802293023813 43.30065902325396 284.9579899790755Q55.60049426744047 288.31795702791277 61.40032951162698 293.03789112558735Q92.60049426744047 322.3583194907024 127.8406095965099 368.65856662442263Q163.08072492557935 414.95881375814287 196.1808073034861 467.83896203837503Q229.28088968139284 520.7191103186071 256.70098853488093 571.6791597453512Q284.121087388369 622.6392091720952 298.6812191930198 660.6392091720952ZM301.6383853930278 793.7199340976746Q297.6383853930278 784.3599670488373 283.3183689174465 778.6799835244187Q268.9983524418651 773 244.55848424651592 781.5601318046508L272.43822063721433 789.9200988534881Q251.8385501488413 748.5601318046508 218.33896203837503 696.5Q184.83937392790875 644.4398681953492 146.69975286627977 594.9995881104662Q108.5601318046508 545.5593080255834 73.04036246278967 509.5988467093056L71.12026360930157 521.5988467093056H114.91927507442065Q110.91927507442065 484.9596375372103 98.83937392790875 463.7001647558135Q86.75947278139684 442.44069197441667 71.51976934186112 436.64085673023015L31.720757876742045 533.7586490023294Q31.720757876742045 533.7586490023294 42.4806425476726 536.7985995755853Q53.24052721860316 539.8385501488413 58.32042836511507 544.558484246516Q76.88056016976586 567.3187808069802 96.94069197441665 604.0189455627936Q117.00082377906745 640.7191103186071 135.7409391081369 683.3191926965139Q154.48105443720632 725.9192750744206 169.04118624185713 766.739291550002Q183.6013180465079 807.5593080255834 191.1614498511587 837.9192750744206ZM27.680395413952372 75.1186160511667Q57.68039541395237 79.3986819534921 109.80024713372023 88.81878080698019Q161.9200988534881 98.23887966046829 225.93986819534922 111.47899498953772Q289.9596375372103 124.71911031860716 355.1194398302341 139.27924212325794L358.39950573255953 126.43904441628177Q312.63920917209526 102.11943983023414 247.3191926965139 68.10008237790674Q181.99917622093255 34.08072492557935 93.39950573255953 -6.358319490702424Q86.31960458604763 -25.798187686051634 68.79983524418651 -30.798187686051634ZM46.80065902325395 276.9579899790754Q73.88056016976586 279.23805588140084 120.68039541395237 284.7981876860516Q167.48023065813888 290.3583194907024 225.46004942674404 297.9184512953532Q283.4398681953492 305.478583100004 344.23970343953573 313.3986819534921L346.5197693418611 299.1985171976786Q305.67957163488495 282.2388796604683 235.4394563058155 253.83937392790875Q165.19934097674604 225.43986819534922 81.95963753721033 196.60049426744047ZM44.52059312092856 531.478583100004Q66.96046131627777 531.1186160511667 105.02018123139484 532.0786654779107Q143.0799011465119 533.0387149046547 189.7195222081409 534.4987643313989Q236.35914326976987 535.9588137581429 283.6787478558175 538.5988467093056L284.3187808069802 524.1186160511667Q254.23887966046829 512.0790773674445 196.3990938430258 490.5197693418611Q138.55930802558336 468.96046131627776 73.71993409767461 448.6812191930198Z" fill="#173F42" transform="translate(459.000 106.000) scale(0.042000 -0.042000)"/>
  <path d="M177.08072492557935 -30.958813758142888Q173.64085673023013 -63.398681953492094 150.44110386395036 -104.25864900232939Q127.2413509976706 -145.1186160511667 69.08154870464679 -176.7586490023294L84.80148280232139 -203.9983524418651Q139.92092263255554 -177.9184512953532 171.74052721860318 -138.95881375814287Q203.56013180465078 -99.99917622093255 217.0799011465119 -56.09967048837302Q230.59967048837302 -12.200164755813487 230.59967048837302 26.919275074420653Q230.59967048837302 71.1186160511667 209.06013180465078 98.37850072209726Q187.52059312092857 125.63838539302782 151.00082377906745 125.63838539302782Q117.6013180465079 125.63838539302782 99.10172993604162 105.31878080698019Q80.60214182557534 84.99917622093255 80.60214182557534 58.239703439535724Q80.60214182557534 30.840197706976184 95.70181231394837 13.74052721860316Q110.80148280232139 -3.359143269769863 133.58113681511307 -13.478994989537723Q156.36079082790474 -23.598846709305583 177.08072492557935 -30.958813758142888Z" fill="#173F42" transform="translate(501.400 106.000) scale(0.042000 -0.042000)"/>
  <path d="M824.8023065813888 680 874.4011532906944 729.5988467093056 962.5593080255834 645.2405272186031Q957.199340976746 640.1606260720913 948.0593080255833 638.300659023254Q938.9192750744206 636.4406919744166 923.5593080255834 635.4406919744166Q900.599670488373 609.1606260720913 863.7401153290695 577.5605436941846Q826.8805601697659 545.9604613162778 795.2009885348809 524.400329511627L783.0807249255794 531.6803954139524Q792.5609555837183 552.7602965604643 802.8212521441826 579.6602141825576Q813.0815487046468 606.5601318046508 822.0218287895298 633.6000823779068Q830.9621088744126 660.6400329511627 835.8023065813888 680ZM169.7199340976746 734.679571634885Q188.75947278139685 677.4398681953492 186.31919269651394 633.6602141825575Q183.878912611631 589.8805601697659 168.23887966046829 560.7808896813929Q152.59884670930558 531.6812191930198 130.71911031860716 517.2413509976706Q116.83937392790875 507.8014828023214 99.51976934186112 505.6013180465079Q82.20016475581349 503.4011532906944 67.74052721860316 510.0807249255794Q53.280889681392836 516.7602965604643 46.56095558371823 531.8797363906984Q39.761120339531715 553.2388796604682 50.08072492557935 570.6383853930279Q60.40032951162698 588.0378911255874 79.87973639069843 598.1976934186112Q99.0799011465119 608.757825223262 116.89991762209326 629.0580723569822Q134.7199340976746 649.3583194907025 145.2998352441865 676.7186984290735Q155.8797363906984 704.0790773674445 153.59967048837302 734.0395386837222ZM862.2009885348809 680V650.7199340976746H158.1598022930238V680ZM429.6416805092976 841.7594727813969Q486.2001647558135 833.9588137581429 518.9794068790715 816.3587313802361Q551.7586490023294 798.7586490023294 565.4184512953532 777.1989290872123Q579.078253588377 755.6392091720952 577.8785007220972 735.8196045860476Q576.6787478558175 716 564.739291550002 702.5803130360457Q552.7998352441865 689.1606260720913 534.2005766453472 687.3406095965099Q515.6013180465079 685.5205931209285 494.32207592324994 700.6400329511627Q490.8418452651111 736.2397034395357 469.04159813139086 773.9995881104662Q447.2413509976706 811.7594727813969 420.1614498511587 834.8393739279087ZM635.3179570279127 343.07990114651193Q635.3179570279127 334.4398681953492 635.3179570279127 325.85996704883735Q635.3179570279127 317.2800659023254 635.3179570279127 310.92009885348807V40.47775932093656Q635.3179570279127 29.19769341861117 642.0980229302381 24.69769341861117Q648.8780888325635 20.19769341861117 676.478583100004 20.19769341861117H775.2397034395357Q806.9604613162778 20.19769341861117 831.1009061569741 20.69769341861117Q855.2413509976706 21.19769341861117 865.8813839488333 21.837726369773865Q875.2413509976706 22.837726369773865 879.4612850953451 25.837726369773865Q883.6812191930198 28.837726369773865 887.121087388369 36.197693418611166Q893.9209226325555 49.55766046744847 903.0807249255793 86.217874650006Q912.2405272186031 122.87808883256353 922.9200988534881 168.59802293023813H935.1202636093016L937.4802306581389 30.837726369773865Q956.5197693418611 24.317957027912747 962.7796540127916 16.398270063958375Q969.0395386837222 8.478583100004004 969.0395386837222 -3.8410214860436263Q969.0395386837222 -20.960461316277765 953.7397034395357 -31.960049426744046Q938.4398681953492 -42.95963753721033 895.6000823779068 -48.29942335465279Q852.7602965604643 -53.639209172095256 770.6803954139524 -53.639209172095256H661.3196045860476Q617.7602965604643 -53.639209172095256 594.9806425476727 -46.839373927908746Q572.2009885348809 -40.039538683722235 563.7611203395318 -23.179983524418653Q555.3212521441825 -6.320428365115069 555.3212521441825 23.038714904654796V343.07990114651193ZM425.15897851395636 343.3599670488373Q419.5189455627937 286.4802306581389 409.6989290872124 235.14044484069643Q399.878912611631 183.80065902325396 377.97899498953774 137.36079082790474Q356.0790773674445 90.92092263255553 315.739291550002 51.060955583718226Q275.39950573255953 11.200988534880928 209.93986819534922 -22.399093843025817Q144.48023065813888 -55.99917622093256 46.00082377906744 -82.83937392790875L36.44069197441665 -68.27924212325796Q133.92092263255554 -27.479406879071444 192.04118624185713 19.280477791859113Q250.1614498511587 66.04036246278967 279.9616969848789 118.26029656046427Q309.76194411859916 170.48023065813888 320.782125349994 226.88014828023216Q331.80230658138885 283.2800659023254 335.7224054348769 343.3599670488373ZM688.7215816558095 576.1589785139564Q688.7215816558095 576.1589785139564 704.6013180465079 564.4991762209326Q720.4810544372064 552.8393739279087 742.1206754988353 536.099670488373Q763.7602965604643 519.3599670488373 781.6400329511627 503.2001647558135Q778.2800659023254 487.2001647558135 754.9200988534881 487.2001647558135H225.0799011465119L217.0799011465119 516.4802306581389H638.3624383860396ZM838.5205931209285 412.0387149046548Q838.5205931209285 412.0387149046548 848.320428365115 404.77883023372425Q858.1202636093016 397.5189455627937 873.1400329511628 386.1791597453512Q888.1598022930239 374.83937392790875 904.5395386837222 361.67957163488495Q920.9192750744206 348.5197693418611 935.0790773674445 336.07990114651193Q931.7191103186071 320.07990114651193 908.9991762209326 320.07990114651193H89.28088968139284L80.64085673023014 349.3599670488373H786.1614498511587Z" fill="#173F42" transform="translate(543.800 106.000) scale(0.042000 -0.042000)"/>
  <path d="M182.75947278139685 446.35914326976985H414.96046131627776V417.71911031860714H182.75947278139685ZM384.04118624185713 446.35914326976985H374.04118624185713L416.07990114651193 489.87808883256355L497.7981876860516 423.3196045860476Q492.7981876860516 417.3196045860476 483.2981876860516 413.599670488373Q473.7981876860516 409.87973639069844 458.7981876860516 407.87973639069844Q456.43822063721433 305.8401977069762 449.93822063721433 239.88014828023216Q443.43822063721433 173.9200988534881 431.7182865395397 136.39991762209326Q419.9983524418651 98.87973639069843 401.1186160511667 82.15980229302382Q384.2388796604683 66.79983524418651 360.0391267941885 59.25988467093056Q335.83937392790875 51.7199340976746 307.3599670488373 51.7199340976746Q307.3599670488373 67.91927507442065 304.53995057325596 82.27883023372424Q301.7199340976746 96.63838539302782 293.3599670488373 105.15815473488894Q285.6400329511627 113.39785817442466 267.4798187686052 119.83772636977386Q249.31960458604763 126.27759456512308 228.8797363906984 130.0774298093096L229.51976934186112 145.91762751628576Q242.7199340976746 144.91762751628576 260.5601318046508 143.45757808954173Q278.400329511627 141.9975286627977 294.7804777918591 140.85749571163498Q311.16062607209125 139.71746276047227 319.80065902325396 139.71746276047227Q340.36079082790474 139.71746276047227 349.00082377906745 148.63756161396037Q363.9209226325555 163.19769341861118 372.16103796162497 234.93822063721433Q380.4011532906944 306.6787478558175 384.04118624185713 446.35914326976985ZM522.4406919744166 839.279242123258 639.357495711635 827.3995057325595Q638.357495711635 817.3995057325595 630.5374792360536 809.3995057325595Q622.7174627604722 801.3995057325595 603.9975286627977 799.0395386837222Q602.6375616139604 684.7586490023294 612.797775796518 572.3579076011688Q622.9579899790755 459.95716620000803 650.3183689174465 360.3167213593116Q677.6787478558175 260.67627651861517 727.4592256476766 181.39621061628978Q777.2397034395357 102.11614471396439 855.1202636093016 52.43657307907945Q868.6803954139524 42.07660603024215 875.6803954139524 42.71663898140484Q882.6803954139524 43.356671932567544 889.7602965604643 58.276770786055636Q899.9200988534881 76.35667193256754 914.0597199151171 109.8364907011727Q928.199340976746 143.31630946977788 938.4390444162817 174.1161447139644L950.6392091720952 171.75617766512707L931.9596375372104 17.07742980930959Q956.4794068790715 -14.161449851158695 961.0193574523274 -30.580724925579347Q965.5593080255834 -47 957.2397034395357 -56.519769341861114Q946.1202636093016 -69.11943983023414 929.1808073034861 -71.11943983023414Q912.2413509976706 -73.11943983023414 891.921746411623 -66.81960458604763Q871.6021418255754 -60.519769341861114 850.9023889592956 -49.32001647558135Q830.2026360930158 -38.12026360930158 812.5626031418531 -24.32042836511507Q725.0823724837143 37.55848424651591 669.0020594476687 126.7780064546568Q612.921746411623 215.9975286627977 580.8414333755774 327.95757808954176Q548.7611203395318 439.9176275162858 535.6009061569741 569.2380558814009Q522.4406919744166 698.558484246516 522.4406919744166 839.279242123258ZM673.9588137581429 817.1194398302341Q729.7981876860516 815.5189455627936 765.3579076011687 803.5988467093056Q800.9176275162857 791.6787478558175 819.7376439918671 774.5588961360496Q838.5576604674485 757.4390444162817 843.0378911255873 740.0593080255833Q847.5181217837262 722.679571634885 841.01853367326 709.4798187686051Q834.5189455627936 696.2800659023254 820.4394563058155 691.4200988534881Q806.3599670488373 686.5601318046508 786.6004942674405 695.4398681953492Q776.400329511627 715.8797363906984 756.3200164755813 736.9596375372103Q736.2397034395357 758.0395386837222 712.3393739279087 776.6194398302341Q688.4390444162817 795.199340976746 665.6787478558175 807.279242123258ZM783.6812191930198 519.3187808069802 903.3179570279127 482.2800659023254Q900.3179570279127 472.6400329511627 891.9979405523313 468.10008237790674Q883.6779240767501 463.5601318046508 863.0378911255874 464.5601318046508Q836.5181217837262 385.2001647558135 794.4983524418651 306.4802306581389Q752.478583100004 227.76029656046427 692.418863184887 155.860378938371Q632.3591432697699 83.96046131627777 550.8595551593036 24.78047779185912Q469.3599670488373 -34.39950573255953 363.8805601697659 -75.03953868372223L355.60049426744047 -62.11943983023414Q445.96046131627776 -13.799835244186513 516.8805601697659 51.47981876860516Q587.800659023254 116.75947278139684 640.3607908279048 193.4592256476766Q692.9209226325555 270.15897851395636 728.3410214860437 353.0988467093056Q763.7611203395318 436.0387149046548 783.6812191930198 519.3187808069802ZM176.11943983023414 638.679571634885H809.4423395325515L862.3212521441825 705.158154734889Q862.3212521441825 705.158154734889 871.9810544372062 697.5383030151211Q881.6408567302301 689.9184512953532 896.8805601697659 677.7586490023293Q912.1202636093016 665.5988467093056 928.7199340976746 651.8990938430259Q945.3196045860476 638.199340976746 959.199340976746 626.0395386837222Q955.8393739279087 610.0395386837222 932.1194398302341 610.0395386837222H176.11943983023414ZM137.121087388369 638.679571634885V648.679571634885V676.7586490023294L231.43739685814688 638.679571634885H217.47775932093657V424.03953868372224Q217.47775932093657 365.599670488373 212.57784169884332 298.57990114651193Q207.67792407675006 231.56013180465078 190.618204161633 163.40032951162698Q173.55848424651592 95.24052721860316 137.85914326976987 31.300659023253953Q102.15980229302382 -32.639209172095256 40.56095558371823 -85.91927507442065L28.44069197441665 -75.07907736744447Q78.00082377906745 -1.5593080255833502 101.10090615697419 81.86037893837101Q124.20098853488093 165.2800659023254 130.66103796162497 252.47981876860518Q137.121087388369 339.67957163488495 137.121087388369 423.39950573255953Z" fill="#173F42" transform="translate(586.200 106.000) scale(0.042000 -0.042000)"/>
  <path d="M163.0411862418571 749.9991762209326 266.6375616139604 715.8401977069761Q262.2775945651231 706.7602965604643 244.03789112558735 703.7602965604643V465.0790773674445Q244.03789112558735 400.99917622093255 238.31795702791274 330.1593904034901Q232.59802293023813 259.3196045860476 213.71828653953972 187.2998352441865Q194.8385501488413 115.28006590232539 154.85914326976987 48.840197706976184Q114.87973639069843 -17.599670488373025 47.00082377906744 -72.23970343953572L33.88056016976586 -60.95963753721033Q91.72075787674204 16.920098853488092 119.10090615697419 104.87973639069843Q146.48105443720632 192.83937392790875 154.76112033953171 284.71911031860714Q163.0411862418571 376.5988467093056 163.0411862418571 466.5988467093056ZM772.5205931209285 842.279242123258 860.8377263697739 758.3220759232499Q853.3978581744246 751.6021418255754 839.3780888325635 751.742174776738Q825.3583194907025 751.8822077279008 804.3986819534921 759.9621088744126Q745.6787478558175 747.9621088744126 673.378912611631 736.0819605941805Q601.0790773674445 724.2018123139484 521.279242123258 714.3616146069721Q441.47940687907146 704.521416899996 359.4995881104663 697.5411862418571Q277.5197693418611 690.5609555837183 198.7998352441865 687.720757876742L195.8797363906984 704.8410214860436Q270.1598022930238 715.6408567302301 351.07990114651193 731.300659023254Q432 746.9604613162778 510.42009885348807 765.6602141825576Q588.8401977069761 784.3599670488373 656.400329511627 804.0597199151171Q723.9604613162778 823.7594727813969 772.5205931209285 842.279242123258ZM202.39950573255953 538.0008237790674H805.1622736302261L861.0411862418571 606.7594727813969Q861.0411862418571 606.7594727813969 871.2009885348809 598.8196045860477Q881.3607908279048 590.8797363906984 897.4205107430219 578.7199340976747Q913.4802306581389 566.5601318046508 931.0799011465119 552.2203459872084Q948.679571634885 537.8805601697659 963.5593080255834 524.720757876742Q959.5593080255834 508.720757876742 935.8393739279087 508.720757876742H202.39950573255953ZM319 336.720757876742V372.5197693418611L407.4769355418691 336.720757876742H761.3220759232499L800.800659023254 382.279242123258L883.1186160511667 319.36079082790474Q878.7586490023294 313.00082377906745 869.7586490023294 308.64085673023015Q860.7586490023294 304.28088968139286 845.0387149046547 301.9209226325555V-51.79983524418651Q845.0387149046547 -55.159802293023816 826.0193574523273 -64.31960458604763Q807 -73.47940687907145 777.8813839488333 -73.47940687907145H764.6820429720873V307.44069197441667H396.8369025907064V-60.43986819534921Q396.8369025907064 -64.87973639069843 379.31754513837905 -73.8595551593036Q361.7981876860516 -82.83937392790875 331.83937392790875 -82.83937392790875H319ZM361.2388796604683 33.56013180465079H800.4406919744166V4.280065902325395H361.2388796604683Z" fill="#173F42" transform="translate(628.600 106.000) scale(0.042000 -0.042000)"/>
  <path d="M393.9176275162858 265.39950573255953Q390.9176275162858 245.39950573255953 363.19769341861115 241.31960458604763V42.31795702791275Q363.19769341861115 30.397858174424655 371.6177922720992 26.397858174424655Q380.03789112558735 22.397858174424655 414.91845129535324 22.397858174424655H551.679571634885Q596.1606260720913 22.397858174424655 628.621087388369 22.717874650006003Q661.0815487046468 23.037891125587354 674.3616146069721 24.037891125587354Q686.441515753484 25.677924076750053 691.3414333755773 28.357907601168705Q696.2413509976706 31.037891125587354 700.6812191930198 38.397858174424655Q707.8410214860436 52.03789112558735 716.8607908279048 83.41803940581948Q725.8805601697659 114.79818768605163 736.5601318046508 158.23805588140084H749.1202636093016L752.1202636093016 33.75782522326196Q772.8797363906984 27.238055881400843 779.9995881104662 19.678335966283772Q787.1194398302341 12.1186160511667 787.1194398302341 0.7990114651190723Q787.1194398302341 -13.240527218603162 777.3595551593036 -22.980230658138883Q767.599670488373 -32.7199340976746 741.9798187686051 -38.699752866279766Q716.3599670488373 -44.67957163488493 668.9200988534881 -47.079489256978185Q621.4802306581389 -49.47940687907144 546.4802306581389 -49.47940687907144H403.99917622093255Q354.7998352441865 -49.47940687907144 328.30024713372023 -43.03953868372223Q301.80065902325396 -36.59967048837302 292.32084025464883 -20.100082377906745Q282.84102148604364 -3.600494267440464 282.84102148604364 26.7586490023294V276.47940687907146ZM514.8780888325635 295.8385501488413Q514.8780888325635 291.8385501488413 496.81878080698016 282.49876433139883Q478.7594727813968 273.15897851395636 447.36079082790474 273.15897851395636H433.8014828023214V698.7199340976746H514.8780888325635ZM851.441515753484 768.3986819534921Q851.441515753484 768.3986819534921 861.1013180465079 760.9588137581429Q870.7611203395318 753.5189455627936 886.1808073034861 741.6791597453512Q901.6004942674405 729.8393739279087 918.5601318046508 715.8196045860476Q935.5197693418611 701.7998352441865 950.3995057325595 688.6400329511627Q946.3995057325595 672.6400329511627 923.3196045860476 672.6400329511627H257.720757876742L272.36079082790474 701.9200988534881H797.4827019953412ZM818.6013180465079 477.87808883256355Q818.6013180465079 477.87808883256355 828.2611203395318 470.43822063721433Q837.9209226325555 462.9983524418651 852.9806425476726 451.3385501488413Q868.0403624627896 439.6787478558175 884.460049426744 426.33896203837503Q900.8797363906984 412.99917622093255 914.1194398302341 400.19934097674604Q912.1194398302341 392.19934097674604 905.3995057325595 388.19934097674604Q898.679571634885 384.19934097674604 887.679571634885 384.19934097674604H473.07990114651193V413.47940687907146H766.0823724837143ZM782.5609555837183 616.7182865395397Q782.5609555837183 616.7182865395397 791.720757876742 609.7784183441904Q800.8805601697659 602.8385501488413 814.9402800848829 591.6787478558174Q829 580.5189455627936 844.9196869639543 567.1791597453512Q860.8393739279087 553.8393739279087 873.7191103186071 542.0395386837222Q869.7191103186071 526.0395386837222 847.6392091720952 526.0395386837222H472V555.3196045860476H733.0420100209245ZM399.4390444162818 791.3599670488373Q395.15897851395636 784 386.9789949895377 782.1000823779068Q378.79901146511907 780.2001647558135 360.71911031860714 785.7602965604643Q333.47940687907146 724.2405272186031 290.139621061629 656.6404448406963Q246.7998352441865 589.0403624627896 192.56013180465078 526.9200988534881Q138.32042836511508 464.7998352441865 76.92092263255553 419.9596375372103L65.44069197441665 429.1598022930238Q110.92092263255553 478.7998352441865 152.64126861976385 548.8397858174425Q194.36161460697218 618.8797363906984 227.7219935453432 696.099670488373Q261.0823724837142 773.3196045860476 280.4827019953412 843.7594727813969ZM194.52059312092857 230.7586490023294Q209.7998352441865 171.15897851395638 203.91927507442065 124.5193574523274Q198.0387149046548 77.87973639069843 180.87850072209727 46.100082377906745Q163.71828653953972 14.320428365115069 143.1985171976786 -2.8393739279087455Q130.6787478558175 -13.359143269769863 114.21911031860716 -17.779242123257955Q97.75947278139684 -22.199340976746047 83.47981876860516 -18.55971991511707Q69.20016475581349 -14.920098853488092 61.40032951162698 -2.1606260720912545Q52.60049426744047 15.1186160511667 60.980230658138886 31.838138259307584Q69.3599670488373 48.55766046744847 86.11943983023414 60.07742980930959Q106.95963753721033 73.35749571163498 127.83978581744248 99.05766046744847Q148.7199340976746 124.75782522326196 162.78006590232542 159.0580723569822Q176.8401977069762 193.35831949070243 178.40032951162698 231.3986819534921ZM750.4406919744166 248.79901146511907Q821.2397034395357 224.3986819534921 865.0593080255833 193.6787478558175Q908.878912611631 162.9588137581429 930.378912611631 131.3990938430258Q951.878912611631 99.83937392790875 955.779242123258 73.05971991511707Q959.679571634885 46.2800659023254 950.2401153290695 28.94028008488293Q940.800659023254 11.600494267440464 922.6013180465079 8.320428365115069Q904.4019770697619 5.040362462789673 882.2026360930158 21.159802293023816Q874.642504288365 58.67957163488493 851.4621088744127 98.93945630581548Q828.2817134604603 139.19934097674604 798.6412686197639 176.4592256476766Q769.0008237790674 213.71911031860716 739.8805601697659 240.59884670930558ZM472.28088968139286 262.7594727813968Q524.9596375372104 246.9588137581429 555.9789949895378 225.3986819534921Q586.9983524418651 203.8385501488413 600.618204161633 180.5387149046548Q614.2380558814009 157.23887966046829 613.7182865395398 137.49917622093255Q613.1985171976786 117.75947278139684 602.9789949895378 104.73970343953573Q592.7594727813969 91.71993409767461 576.2401153290695 89.89991762209326Q559.720757876742 88.0799011465119 541.1614498511587 102.11943983023414Q537.8813839488333 128.55930802558336 525.5012356686011 156.87932450116472Q513.121087388369 185.19934097674604 496.2409391081369 211.33937392790875Q479.36079082790474 237.47940687907143 461.44069197441667 255.83937392790875Z" fill="#173F42" transform="translate(671.000 106.000) scale(0.042000 -0.042000)"/>
  <path d="M264.67792407675006 492.19934097674604Q316.99752866279766 471.279242123258 347.8974462848909 446.69934097674604Q378.7973639069842 422.1194398302341 392.49752866279766 398.3196045860476Q406.19769341861115 374.5197693418611 406.4579899790755 354.7199340976746Q406.71828653953975 334.92009885348807 397.57866547791076 323.2001647558135Q388.4390444162818 311.4802306581389 373.2994233546528 310.24011532906945Q358.1598022930238 309 340.92009885348807 322.67957163488495Q336.1598022930238 349.1194398302341 321.83937392790875 378.97940687907146Q307.5189455627937 408.83937392790875 289.51853367326 436.69934097674604Q271.51812178372626 464.55930802558333 253.39785817442464 485.279242123258ZM304.9579899790754 830.3995057325595Q303.9579899790754 819.3995057325595 296.4579899790754 812.2195222081409Q288.9579899790754 805.0395386837222 269.23805588140084 802.0395386837222V-51.79983524418651Q269.23805588140084 -56.519769341861114 259.7784183441905 -63.13962106162897Q250.3187808069802 -69.75947278139684 236.69934097674604 -74.55930802558335Q223.0799011465119 -79.35914326976986 208.96046131627776 -79.35914326976986H192.84102148604362V841.9192750744206ZM262.23805588140084 586.7998352441865Q234.87808883256355 456.2001647558135 177.43863252674805 342.10008237790674Q119.99917622093255 228 30 138.1598022930238L16.43986819534921 151.0799011465119Q59.2800659023254 213 91.62026360930159 286.7199340976746Q123.96046131627777 360.4398681953492 146.4806425476726 440.9798187686051Q169.00082377906745 521.5197693418611 182.20098853488093 602.7998352441865H262.23805588140084ZM341.23970343953573 668.9588137581429Q341.23970343953573 668.9588137581429 355.53953868372224 656.6190279407004Q369.83937392790875 644.279242123258 389.99917622093255 626.5794892569781Q410.15897851395636 608.8797363906984 425.2388796604683 592.7199340976746Q424.2388796604683 584.7199340976746 417.0588961360496 580.7199340976746Q409.878912611631 576.7199340976746 399.2388796604683 576.7199340976746H56.44069197441665L48.44069197441665 606H294.4802306581389ZM888.478583100004 797.4802306581389Q879.8385501488413 777.7602965604643 849.478583100004 781.400329511627Q831.5988467093056 757.7602965604643 806.9991762209326 728.2602965604643Q782.3995057325595 698.7602965604643 755.2598846709305 668.5803130360457Q728.1202636093016 638.400329511627 701.4406919744166 611.7602965604643H684.400329511627Q697.9604613162778 644.5601318046508 713.0807249255794 685.539950573256Q728.2009885348809 726.5197693418611 742.3212521441825 767.8196045860476Q756.441515753484 809.1194398302341 766.5617793627857 842.199340976746ZM458.4802306581389 836.4794068790715Q513.5593080255834 814.6392091720952 546.0588961360497 788.739291550002Q578.558484246516 762.8393739279087 592.2384677709346 737.4596375372103Q605.9184512953532 712.0799011465119 605.3587313802361 690.7001647558135Q604.7990114651191 669.320428365115 594.2594727813969 656.5205931209285Q583.7199340976746 643.720757876742 566.7804777918591 642.800659023254Q549.8410214860436 641.8805601697659 530.441515753484 657.2800659023254Q526.2413509976706 685.7998352441865 512.9411038639504 717.1997528662798Q499.64085673023015 748.599670488373 482.2005766453472 777.9995881104662Q464.76029656046427 807.3995057325595 447.2800659023254 830.199340976746ZM693.9983524418651 -59.87973639069842Q693.9983524418651 -63.95963753721033 676.4789949895378 -73.33937392790875Q658.9596375372104 -82.71911031860716 629.0008237790674 -82.71911031860716H615.8014828023214V627.4802306581389H693.9983524418651ZM882.121087388369 280.8385501488413Q882.121087388369 280.8385501488413 891.4209226325555 273.21869842907347Q900.720757876742 265.5988467093056 914.9205107430219 253.7590608918631Q929.1202636093016 241.91927507442065 945.0 228.39950573255953Q960.8797363906984 214.8797363906984 973.679571634885 202.0799011465119Q970.0395386837222 186.0799011465119 946.9596375372104 186.0799011465119H381.07990114651193L373.07990114651193 215.3599670488373H832.0420100209245ZM826.3607908279048 498.3187808069802Q826.3607908279048 498.3187808069802 835.4806425476727 490.878912611631Q844.6004942674405 483.4390444162818 858.4402800848829 471.779242123258Q872.2800659023254 460.1194398302341 887.7998352441865 446.77965401279164Q903.3196045860476 433.4398681953492 916.1194398302341 421Q912.7594727813969 405 889.3995057325595 405H450.3196045860476L442.3196045860476 434.2800659023254H777.7215816558095ZM854.720757876742 690.4390444162817Q854.720757876742 690.4390444162817 863.8406095965099 683.1791597453512Q872.9604613162778 675.9192750744206 887.4802306581389 664.4394563058155Q902 652.9596375372104 917.6997528662798 639.7998352441865Q933.3995057325595 626.6400329511627 945.5593080255834 614.2001647558135Q941.5593080255834 598.2001647558135 919.4794068790715 598.2001647558135H428.7594727813968L420.7594727813968 627.4802306581389H805.7215816558095Z" fill="#173F42" transform="translate(713.400 106.000) scale(0.042000 -0.042000)"/>
  <path d="M378.07825358837704 793.400329511627Q374.07825358837704 785.0403624627896 364.2182865395397 780.0403624627896Q354.3583194907024 775.0403624627896 337.9983524418651 777.6803954139524Q285.878912611631 679.4810544372064 214.25947278139685 605.581136815113Q142.6400329511627 531.6812191930198 62.64085673023014 486.2413509976706L51.08072492557935 498.08154870464676Q91.28088968139284 536.4011532906944 131.16103796162497 589.9406919744167Q171.0411862418571 643.4802306581389 205.7413509976706 707.6598022930239Q240.44151575348408 771.8393739279087 264.28171346046025 841.4390444162817ZM803.1202636093016 790.757825223262Q803.1202636093016 790.757825223262 812.960049426744 783.1379735034941Q822.7998352441865 775.5181217837262 838.3995057325595 763.6783359662837Q853.9991762209326 751.8385501488413 870.9588137581429 738.1387972825614Q887.9184512953532 724.4390444162817 902.158154734889 711.279242123258Q898.158154734889 695.279242123258 875.7182865395397 695.279242123258H251.9588137581429V724.5593080255834H750.441515753484ZM327.9596375372103 237.48023065813888Q368.7594727813968 177.7998352441865 432.85914326976985 136.2994233546528Q496.95881375814287 94.79901146511907 579.1585666244226 68.29859957558534Q661.3583194907025 41.798187686051634 756.8183689174465 27.577841698843308Q852.2784183441905 13.357495711634982 955.5189455627936 8.237232102333401L954.878912611631 -4.1227349465039005Q928.0799011465119 -10.442339532551529 911.2203459872084 -30.161449851158693Q894.3607908279048 -49.88056016976586 888.2009885348809 -80.19934097674604Q753.0403624627896 -62.11943983023414 641.960049426744 -27.07948925697819Q530.8797363906984 7.960461316277766 448.3196045860476 69.36037893837101Q365.7594727813968 130.76029656046427 313.83937392790875 226.9200988534881ZM673.441515753484 256.7998352441865 729.7199340976746 303.5584842465159 809.8377263697739 225.24052721860315Q803.1976934186112 218.80065902325396 793.5177098941925 216.44069197441667Q783.8377263697739 214.08072492557935 763.8377263697739 213.36079082790474Q693.7981876860516 123.40115329069441 590.2388796604682 62.32125214418251Q486.67957163488495 1.241350997670601 353.44028008488294 -33.778830233724236Q220.20098853488093 -68.79901146511907 59.80148280232139 -81.47940687907145L54.8813839488333 -64.63920917209526Q199.8014828023214 -40.19934097674605 323.521416899996 1.2804777918591128Q447.2413509976706 42.760296560464276 540.2813015709265 106.24011532906944Q633.3212521441825 169.7199340976746 685.8813839488333 256.7998352441865ZM721.1202636093016 256.7998352441865V227.51976934186112H311.55930802558333L339.83937392790875 256.7998352441865ZM683.1622736302261 611.6392091720952 723.121087388369 654.757825223262 808.3986819534921 589.3196045860476Q804.3986819534921 584.3196045860476 794.8986819534921 579.099670488373Q785.3986819534921 573.8797363906984 772.5988467093056 572.1598022930239V346.15897851395636Q772.5988467093056 343.15897851395636 761.0593080255833 337.5790773674445Q749.5197693418611 331.99917622093255 734.0004118895338 327.5992585988393Q718.4810544372064 323.19934097674604 704.7215816558095 323.19934097674604H691.8822077279008V611.6392091720952ZM317.11696849303183 340.3986819534921Q317.11696849303183 336.95881375814287 306.93739685814694 330.61902794070045Q296.757825223262 324.279242123258 281.55848424651595 319.47940687907146Q266.35914326976985 314.67957163488495 249.1598022930238 314.67957163488495H237.48023065813888V611.6392091720952V648.158154734889L322.8369025907064 611.6392091720952H738.2405272186031V582.3591432697699H317.11696849303183ZM447.3583194907024 308.52059312092854Q443.71828653953975 301.52059312092854 435.71828653953975 297.6206754988353Q427.71828653953975 293.720757876742 410.3583194907024 296.00082377906745Q382.5584842465159 253.92092263255554 339.29859957558534 209.6009061569742Q296.0387149046548 165.28088968139284 242.27883023372425 125.86079082790474Q188.51894556279368 86.44069197441665 126.71911031860716 58.88056016976586L117.15897851395637 71.72075787674204Q166.47940687907143 107.68039541395237 209.89991762209326 155.96004942674404Q253.32042836511508 204.23970343953573 287.4209226325555 256.4394563058155Q321.521416899996 308.63920917209526 340.28171346046025 354.99917622093255ZM727.6812191930198 382.83937392790875V353.55930802558333H281.71828653953975V382.83937392790875ZM727.6812191930198 497.55930802558333V468.279242123258H281.71828653953975V497.55930802558333Z" fill="#173F42" transform="translate(755.800 106.000) scale(0.042000 -0.042000)"/>
  <path d="M309.39785817442464 49.19934097674605Q309.39785817442464 45.75947278139684 299.39827006395836 39.73970343953572Q289.3986819534921 33.7199340976746 274.19934097674604 28.74011532906944Q259 23.76029656046428 242.44069197441664 23.76029656046428H230.121087388369V379.4810544372063V416.6400329511627L315.47775932093657 379.4810544372063H739.1202636093016V350.20098853488093H309.39785817442464ZM679.4019770697619 379.4810544372063 720.3607908279048 423.4398681953492 806.6787478558175 356.8813839488333Q802.6787478558175 351.8813839488333 792.5786654779108 346.7014004244146Q782.478583100004 341.521416899996 769.1186160511667 339.1614498511587V60.59967048837302Q769.1186160511667 56.87973639069842 757.9390444162818 50.03995057325595Q746.7594727813969 43.20016475581349 731.4200988534881 37.720345987208326Q716.0807249255794 32.24052721860316 701.6013180465079 32.24052721860316H688.7619441185991V379.4810544372063ZM737.320428365115 116.4398681953492V87.15980229302382H268.3187808069802V116.4398681953492ZM737.320428365115 249.96046131627776V220.68039541395237H268.3187808069802V249.96046131627776ZM865.6013180465079 54.038714904654796Q865.6013180465079 54.038714904654796 875.581136815113 46.59884670930558Q885.5609555837183 39.15897851395637 900.6606260720913 27.499176220932558Q915.7602965604643 15.839373927908746 932.8599670488373 2.49958811046628Q949.9596375372104 -10.840197706976186 963.199340976746 -23.6400329511627Q959.8393739279087 -39.640032951162695 936.7594727813969 -39.640032951162695H46.08072492557935L37.44069197441665 -10.359967048837303H813.0024713372023ZM552.3583194907025 686.3196045860476Q581.6383853930279 644.3995057325595 628.058484246516 606.9991762209326Q674.478583100004 569.5988467093056 730.7186984290735 538.0984348197719Q786.9588137581429 506.59802293023813 846.838962038375 482.41762751628573Q906.7191103186071 458.2372321023334 962.9192750744206 442.75700144419454L960.9192750744206 431.75700144419454Q936.2800659023254 427.5172980046588 919.5605436941845 409.87808883256355Q902.8410214860436 392.2388796604683 895.3212521441825 364.6400329511627Q823.4810544372064 397.4398681953492 754.320428365115 443.57990114651193Q685.1598022930239 489.7199340976746 629.0391267941885 548.7598846709305Q572.9184512953532 607.7998352441865 537.8780888325635 676.4794068790715ZM503.3986819534921 670.3196045860476Q431.478583100004 567.3599670488373 311.8990938430258 486.71993409767464Q192.31960458604763 406.07990114651193 46.360790827904744 354.87973639069844L37.80065902325395 370.07990114651193Q116.00082377906745 409.07990114651193 185.58113681511307 459.9798187686052Q255.1614498511587 510.87973639069844 312.34184526511103 568.9596375372103Q369.52224067906343 627.0395386837222 408.2026360930158 686.3196045860476H503.3986819534921ZM574.3583194907025 824.8797363906984Q573.3583194907025 814.8797363906984 565.2182865395398 807.6997528662798Q557.078253588377 800.5197693418611 537.3583194907025 798.1598022930239V435.5609555837182Q537.3583194907025 431.20098853488093 527.6787478558175 425.4411038639504Q517.9991762209326 419.6812191930198 502.9798187686051 415.6013180465079Q487.96046131627776 411.521416899996 471.7611203395317 411.521416899996H457.0016475581349V837.0395386837222ZM853.0807249255794 752.9983524418651Q853.0807249255794 752.9983524418651 862.8805601697659 745.2384677709346Q872.6803954139524 737.478583100004 887.7001647558135 725.3187808069802Q902.7199340976746 713.1589785139564 919.2796540127916 699.4991762209326Q935.8393739279087 685.8393739279087 949.9991762209326 673.0395386837222Q945.9991762209326 657.0395386837222 922.9192750744206 657.0395386837222H62.92092263255553L54.280889681392836 686.3196045860476H800.3616146069721Z" fill="#173F42" transform="translate(798.200 106.000) scale(0.042000 -0.042000)"/>
</svg>
