<svg xmlns="http://www.w3.org/2000/svg" viewBox="0 0 960 140" role="img" aria-labelledby="title">
  <title id="title">How a Task Can Continue and Be Reviewed</title>
  <metadata>Lettering derived from Bona Nova, licensed under SIL Open Font License 1.1.</metadata>
  <path d="M63 0V23Q92 25 105.0 38.0Q118 51 118 100V565Q118 614 103.5 627.5Q89 641 48 642V665H333V642Q304 641 291.0 627.5Q278 614 278 565V100Q278 51 293.0 38.0Q308 25 348 23V0Z" fill="#B49A64" transform="translate(467.217 22.000) scale(0.023000 -0.023000)"/>
  <path d="M295 -8Q288 18 283.5 35.5Q279 53 268 79L75 565Q62 599 52.0 615.0Q42 631 31.5 636.0Q21 641 5 642V665H287V642Q247 640 241.5 618.5Q236 597 249 565L382 224H384L508 565Q521 599 506.0 619.5Q491 640 447 642V665H630V642Q610 640 592.5 619.5Q575 599 562 565L386 79Q376 52 372.0 35.0Q368 18 363 -8Z" fill="#B49A64" transform="translate(477.925 22.000) scale(0.023000 -0.023000)"/>
  <path d="M81.3 38 H333.3 C370.7 38 388 42.2 410.7 47.8 C432 53.1 454 50.6 469.3 42.9 C451.3 43.6 442 48.5 447.3 53.4 C455.3 60.1 480 55.9 494.7 46.1 C513.3 33.8 539.3 38 566.7 38 H878.7" fill="none" stroke="#B49A64" stroke-width="2.4" stroke-linecap="square"/>
  <path d="M102.7 42.9 H328.7 C365.3 42.9 384.7 46.8 406.7 51.7" fill="none" stroke="#82545C" stroke-width="1.4"/>
  <path d="M857.3 42.9 H582 C546.7 42.9 526.7 46.8 504.7 51.7" fill="none" stroke="#82545C" stroke-width="1.4"/>
  <path d="M58 0V23Q87 25 100.0 38.0Q113 51 113 100V565Q113 614 98.5 627.5Q84 641 43 642V665H328V642Q299 641 286.0 627.5Q273 614 273 565V388Q281 394 292.5 396.0Q304 398 320 398H509Q536 398 547.0 407.0Q558 416 558 443V565Q558 614 543.5 627.5Q529 641 488 642V665H773V642Q744 641 731.0 627.5Q718 614 718 565V100Q718 51 733.0 38.0Q748 25 788 23V0H503V23Q532 25 545.0 38.0Q558 51 558 100V366Q550 359 538.0 357.0Q526 355 511 355H322Q295 355 284.0 346.0Q273 337 273 311V100Q273 51 288.0 38.0Q303 25 343 23V0Z" fill="#E7E0D3" transform="translate(65.000 105.000) scale(0.040852 -0.040852)"/>
  <path d="M292 475Q365 475 420.5 445.5Q476 416 508.0 362.0Q540 308 540 236Q540 157 503.0 101.0Q466 45 406.5 15.0Q347 -15 278 -15Q206 -15 150.0 15.0Q94 45 62.0 98.5Q30 152 30 224Q30 303 67.0 359.0Q104 415 163.5 445.0Q223 475 292 475ZM295 28Q332 28 356.0 70.0Q380 112 380 200Q380 264 367.0 316.5Q354 369 330.5 400.5Q307 432 275 432Q238 432 214.0 390.0Q190 348 190 260Q190 196 203.0 143.5Q216 91 240.0 59.5Q264 28 295 28Z" fill="#E7E0D3" transform="translate(99.048 105.000) scale(0.040852 -0.040852)"/>
  <path d="M205 -10Q197 16 190.0 35.5Q183 55 172 79L51 360Q37 394 28.0 409.5Q19 425 11.0 430.5Q3 436 -11 437V460H230V437Q210 436 204.5 424.0Q199 412 202.5 395.0Q206 378 213 360L285 190H287L352 339L343 360Q330 394 321.0 409.5Q312 425 305.5 430.5Q299 436 290 437V460H527V437Q502 436 494.5 424.0Q487 412 490.0 395.0Q493 378 500 360L568 190H570L632 360Q639 378 639.0 395.0Q639 412 627.5 424.0Q616 436 587 437V460H750V437Q727 435 711.0 411.0Q695 387 684 360L576 79Q566 52 560.5 34.0Q555 16 549 -10H492Q485 16 476.0 35.5Q467 55 457 79L377 276L291 79Q279 52 273.5 34.0Q268 16 262 -10Z" fill="#E7E0D3" transform="translate(122.434 105.000) scale(0.040852 -0.040852)"/>
  <path d="M146 -15Q91 -15 64.5 18.0Q38 51 38 94Q38 160 98.5 201.0Q159 242 286 276V329Q286 376 266.5 396.5Q247 417 212 417Q164 417 132.5 381.0Q101 345 89 284H66V428Q100 445 154.5 460.0Q209 475 273 475Q446 475 446 341V123Q446 100 452.0 87.5Q458 75 476 75Q486 75 498.5 79.5Q511 84 525 97L541 81Q519 35 483.0 12.5Q447 -10 401 -10Q352 -10 325.5 9.5Q299 29 288 66H286Q263 26 225.0 5.5Q187 -15 146 -15ZM224 75Q244 75 259.5 84.5Q275 94 286 106V236Q240 223 216.5 202.0Q193 181 185.5 160.0Q178 139 178 125Q178 104 190.0 89.5Q202 75 224 75Z" fill="#E7E0D3" transform="translate(164.059 105.000) scale(0.040852 -0.040852)"/>
  <path d="M33 665H603V500H580Q574 554 548.0 588.0Q522 622 459 622H398V100Q398 51 413.0 38.0Q428 25 468 23V0H183V23Q212 25 225.0 38.0Q238 51 238 100V622H176Q115 622 88.5 588.0Q62 554 56 500H33Z" fill="#E7E0D3" transform="translate(197.104 105.000) scale(0.040852 -0.040852)"/>
  <path d="M146 -15Q91 -15 64.5 18.0Q38 51 38 94Q38 160 98.5 201.0Q159 242 286 276V329Q286 376 266.5 396.5Q247 417 212 417Q164 417 132.5 381.0Q101 345 89 284H66V428Q100 445 154.5 460.0Q209 475 273 475Q446 475 446 341V123Q446 100 452.0 87.5Q458 75 476 75Q486 75 498.5 79.5Q511 84 525 97L541 81Q519 35 483.0 12.5Q447 -10 401 -10Q352 -10 325.5 9.5Q299 29 288 66H286Q263 26 225.0 5.5Q187 -15 146 -15ZM224 75Q244 75 259.5 84.5Q275 94 286 106V236Q240 223 216.5 202.0Q193 181 185.5 160.0Q178 139 178 125Q178 104 190.0 89.5Q202 75 224 75Z" fill="#E7E0D3" transform="translate(220.327 105.000) scale(0.040852 -0.040852)"/>
  <path d="M202 -15Q126 -15 79.5 12.0Q33 39 33 88Q33 107 41.0 128.5Q49 150 70 170H93Q98 131 109.5 98.5Q121 66 144.5 47.0Q168 28 208 28Q240 28 261.5 42.5Q283 57 283 86Q283 113 265.5 131.0Q248 149 221.0 163.5Q194 178 163.0 192.0Q132 206 105.0 224.5Q78 243 60.5 269.0Q43 295 43 334Q43 399 95.5 437.0Q148 475 238 475Q272 475 312.5 469.0Q353 463 378 448V315H356Q349 366 318.0 399.0Q287 432 238 432Q205 432 189.0 417.5Q173 403 173 384Q173 362 190.5 346.5Q208 331 235.0 317.5Q262 304 292.5 289.0Q323 274 350.0 254.0Q377 234 394.5 205.5Q412 177 412 136Q412 87 385.0 53.5Q358 20 310.5 2.5Q263 -15 202 -15Z" fill="#E7E0D3" transform="translate(242.242 105.000) scale(0.040852 -0.040852)"/>
  <path d="M232 110Q232 73 235.5 54.5Q239 36 249.0 30.0Q259 24 277 23V0H37V23Q54 24 64.0 30.0Q74 36 78.0 54.5Q82 73 82 110V649Q82 664 76.5 669.0Q71 674 60 674Q52 674 42.5 672.0Q33 670 22 666L12 689L230 790L236 784Q235 769 233.5 737.5Q232 706 232 658V231H234L360 361Q374 375 381.0 384.5Q388 394 388 404Q388 413 380.5 424.0Q373 435 343 437V460H545V437Q515 435 490.0 419.0Q465 403 446 384L388 324L501 103Q525 56 542.5 39.5Q560 23 577 23V0Q544 -15 498 -15Q447 -15 410.5 6.0Q374 27 356 62L279 212L232 164Z" fill="#E7E0D3" transform="translate(260.317 105.000) scale(0.040852 -0.040852)"/>
  <path d="M417 -15Q312 -15 231.0 27.0Q150 69 104.0 145.5Q58 222 58 323Q58 406 88.0 471.5Q118 537 170.5 584.0Q223 631 291.5 655.5Q360 680 438 680Q497 680 551.0 669.0Q605 658 637 643V485H614Q594 546 566.0 578.5Q538 611 503.5 624.0Q469 637 431 637Q238 637 238 357Q238 265 257.5 190.0Q277 115 318.5 71.5Q360 28 425 28Q478 28 521.0 54.5Q564 81 594.5 125.0Q625 169 638 220H661L653 68Q620 32 560.0 8.5Q500 -15 417 -15Z" fill="#E7E0D3" transform="translate(295.323 105.000) scale(0.040852 -0.040852)"/>
  <path d="M146 -15Q91 -15 64.5 18.0Q38 51 38 94Q38 160 98.5 201.0Q159 242 286 276V329Q286 376 266.5 396.5Q247 417 212 417Q164 417 132.5 381.0Q101 345 89 284H66V428Q100 445 154.5 460.0Q209 475 273 475Q446 475 446 341V123Q446 100 452.0 87.5Q458 75 476 75Q486 75 498.5 79.5Q511 84 525 97L541 81Q519 35 483.0 12.5Q447 -10 401 -10Q352 -10 325.5 9.5Q299 29 288 66H286Q263 26 225.0 5.5Q187 -15 146 -15ZM224 75Q244 75 259.5 84.5Q275 94 286 106V236Q240 223 216.5 202.0Q193 181 185.5 160.0Q178 139 178 125Q178 104 190.0 89.5Q202 75 224 75Z" fill="#E7E0D3" transform="translate(324.265 105.000) scale(0.040852 -0.040852)"/>
  <path d="M533 110Q533 73 538.0 54.5Q543 36 556.0 30.0Q569 24 593 23V0H338V23Q355 24 365.0 30.0Q375 36 379.0 54.5Q383 73 383 110V309Q383 338 374.0 356.5Q365 375 330 375Q311 375 287.5 369.0Q264 363 233 343V110Q233 73 238.0 54.5Q243 36 256.0 30.0Q269 24 293 23V0H38V23Q55 24 65.0 30.0Q75 36 79.0 54.5Q83 73 83 110V340Q83 355 77.5 360.0Q72 365 61 365Q49 365 33 361L23 384L231 481L237 475Q235 466 232.5 437.0Q230 408 230 378H233Q253 401 280.0 423.0Q307 445 340.5 460.0Q374 475 413 475Q475 475 504.0 445.5Q533 416 533 351Z" fill="#E7E0D3" transform="translate(346.180 105.000) scale(0.040852 -0.040852)"/>
  <path d="M417 -15Q312 -15 231.0 27.0Q150 69 104.0 145.5Q58 222 58 323Q58 406 88.0 471.5Q118 537 170.5 584.0Q223 631 291.5 655.5Q360 680 438 680Q497 680 551.0 669.0Q605 658 637 643V485H614Q594 546 566.0 578.5Q538 611 503.5 624.0Q469 637 431 637Q238 637 238 357Q238 265 257.5 190.0Q277 115 318.5 71.5Q360 28 425 28Q478 28 521.0 54.5Q564 81 594.5 125.0Q625 169 638 220H661L653 68Q620 32 560.0 8.5Q500 -15 417 -15Z" fill="#E7E0D3" transform="translate(382.494 105.000) scale(0.040852 -0.040852)"/>
  <path d="M292 475Q365 475 420.5 445.5Q476 416 508.0 362.0Q540 308 540 236Q540 157 503.0 101.0Q466 45 406.5 15.0Q347 -15 278 -15Q206 -15 150.0 15.0Q94 45 62.0 98.5Q30 152 30 224Q30 303 67.0 359.0Q104 415 163.5 445.0Q223 475 292 475ZM295 28Q332 28 356.0 70.0Q380 112 380 200Q380 264 367.0 316.5Q354 369 330.5 400.5Q307 432 275 432Q238 432 214.0 390.0Q190 348 190 260Q190 196 203.0 143.5Q216 91 240.0 59.5Q264 28 295 28Z" fill="#E7E0D3" transform="translate(411.436 105.000) scale(0.040852 -0.040852)"/>
  <path d="M533 110Q533 73 538.0 54.5Q543 36 556.0 30.0Q569 24 593 23V0H338V23Q355 24 365.0 30.0Q375 36 379.0 54.5Q383 73 383 110V309Q383 338 374.0 356.5Q365 375 330 375Q311 375 287.5 369.0Q264 363 233 343V110Q233 73 238.0 54.5Q243 36 256.0 30.0Q269 24 293 23V0H38V23Q55 24 65.0 30.0Q75 36 79.0 54.5Q83 73 83 110V340Q83 355 77.5 360.0Q72 365 61 365Q49 365 33 361L23 384L231 481L237 475Q235 466 232.5 437.0Q230 408 230 378H233Q253 401 280.0 423.0Q307 445 340.5 460.0Q374 475 413 475Q475 475 504.0 445.5Q533 416 533 351Z" fill="#E7E0D3" transform="translate(434.821 105.000) scale(0.040852 -0.040852)"/>
  <path d="M364 102 380 86Q369 61 350.0 38.0Q331 15 301.5 0.0Q272 -15 229 -15Q158 -15 121.0 27.0Q84 69 84 135V407H24V460H84V595L239 610Q236 572 235.0 535.0Q234 498 234 460H364V407H274Q234 407 234 367V155Q234 75 299 75Q337 75 364 102Z" fill="#E7E0D3" transform="translate(460.005 105.000) scale(0.040852 -0.040852)"/>
  <path d="M233 110Q233 73 238.0 54.5Q243 36 256.0 30.0Q269 24 293 23V0H38V23Q55 24 65.0 30.0Q75 36 79.0 54.5Q83 73 83 110V340Q83 355 77.5 360.0Q72 365 61 365Q53 365 43.5 363.0Q34 361 23 357L13 380L231 481L237 475Q236 460 234.5 428.5Q233 397 233 349ZM163 530Q126 530 101.0 555.5Q76 581 76 616Q76 651 101.0 677.0Q126 703 163 703Q199 703 224.0 677.0Q249 651 249 616Q249 581 224.0 555.5Q199 530 163 530Z" fill="#E7E0D3" transform="translate(475.792 105.000) scale(0.040852 -0.040852)"/>
  <path d="M533 110Q533 73 538.0 54.5Q543 36 556.0 30.0Q569 24 593 23V0H338V23Q355 24 365.0 30.0Q375 36 379.0 54.5Q383 73 383 110V309Q383 338 374.0 356.5Q365 375 330 375Q311 375 287.5 369.0Q264 363 233 343V110Q233 73 238.0 54.5Q243 36 256.0 30.0Q269 24 293 23V0H38V23Q55 24 65.0 30.0Q75 36 79.0 54.5Q83 73 83 110V340Q83 355 77.5 360.0Q72 365 61 365Q49 365 33 361L23 384L231 481L237 475Q235 466 232.5 437.0Q230 408 230 378H233Q253 401 280.0 423.0Q307 445 340.5 460.0Q374 475 413 475Q475 475 504.0 445.5Q533 416 533 351Z" fill="#E7E0D3" transform="translate(488.802 105.000) scale(0.040852 -0.040852)"/>
  <path d="M573 99 583 76 375 -21 369 -15Q371 -6 373.5 23.0Q376 52 376 82H373Q353 60 327.0 37.5Q301 15 269.0 0.0Q237 -15 198 -15Q137 -15 107.5 15.0Q78 45 78 109V340Q78 355 72.5 360.0Q67 365 56 365Q44 365 28 361L18 384L226 481L232 475Q231 460 229.5 428.5Q228 397 228 349V151Q228 123 236.5 104.0Q245 85 276 85Q296 85 319.0 91.0Q342 97 373 116V340Q373 355 367.5 360.0Q362 365 351 365Q339 365 323 361L313 384L521 481L527 475Q526 460 524.5 428.5Q523 397 523 349V120Q523 105 529.0 100.0Q535 95 545 95Q557 95 573 99Z" fill="#E7E0D3" transform="translate(513.985 105.000) scale(0.040852 -0.040852)"/>
  <path d="M274 -15Q206 -15 150.5 14.0Q95 43 62.5 97.0Q30 151 30 225Q30 305 66.0 361.0Q102 417 161.5 446.0Q221 475 289 475Q381 475 428.5 425.5Q476 376 476 296L181 259Q187 174 231.0 137.0Q275 100 333 100Q362 100 399.0 110.5Q436 121 466 149L482 133Q454 66 405.5 25.5Q357 -15 274 -15ZM259 432Q225 432 204.0 396.5Q183 361 180 299L325 317Q323 364 308.5 398.0Q294 432 259 432Z" fill="#E7E0D3" transform="translate(538.882 105.000) scale(0.040852 -0.040852)"/>
  <path d="M146 -15Q91 -15 64.5 18.0Q38 51 38 94Q38 160 98.5 201.0Q159 242 286 276V329Q286 376 266.5 396.5Q247 417 212 417Q164 417 132.5 381.0Q101 345 89 284H66V428Q100 445 154.5 460.0Q209 475 273 475Q446 475 446 341V123Q446 100 452.0 87.5Q458 75 476 75Q486 75 498.5 79.5Q511 84 525 97L541 81Q519 35 483.0 12.5Q447 -10 401 -10Q352 -10 325.5 9.5Q299 29 288 66H286Q263 26 225.0 5.5Q187 -15 146 -15ZM224 75Q244 75 259.5 84.5Q275 94 286 106V236Q240 223 216.5 202.0Q193 181 185.5 160.0Q178 139 178 125Q178 104 190.0 89.5Q202 75 224 75Z" fill="#E7E0D3" transform="translate(570.702 105.000) scale(0.040852 -0.040852)"/>
  <path d="M533 110Q533 73 538.0 54.5Q543 36 556.0 30.0Q569 24 593 23V0H338V23Q355 24 365.0 30.0Q375 36 379.0 54.5Q383 73 383 110V309Q383 338 374.0 356.5Q365 375 330 375Q311 375 287.5 369.0Q264 363 233 343V110Q233 73 238.0 54.5Q243 36 256.0 30.0Q269 24 293 23V0H38V23Q55 24 65.0 30.0Q75 36 79.0 54.5Q83 73 83 110V340Q83 355 77.5 360.0Q72 365 61 365Q49 365 33 361L23 384L231 481L237 475Q235 466 232.5 437.0Q230 408 230 378H233Q253 401 280.0 423.0Q307 445 340.5 460.0Q374 475 413 475Q475 475 504.0 445.5Q533 416 533 351Z" fill="#E7E0D3" transform="translate(592.617 105.000) scale(0.040852 -0.040852)"/>
  <path d="M570 99 580 76 373 -21 367 -15Q369 -6 371.0 23.0Q373 52 373 82H371Q352 41 310.5 13.0Q269 -15 211 -15Q163 -15 122.0 12.5Q81 40 55.5 91.5Q30 143 30 214Q30 286 55.0 335.5Q80 385 120.5 416.0Q161 447 209.0 461.0Q257 475 303 475Q323 475 340.0 474.0Q357 473 370 471V649Q370 664 364.5 669.0Q359 674 348 674Q331 674 310 666L300 689L518 790L524 784Q523 769 521.5 737.5Q520 706 520 658V120Q520 105 526.0 100.0Q532 95 542 95Q554 95 570 99ZM294 85Q313 85 333.5 93.0Q354 101 370 117V383Q342 427 294 427Q250 427 220.0 380.5Q190 334 190 257Q190 170 220.5 127.5Q251 85 294 85Z" fill="#E7E0D3" transform="translate(617.801 105.000) scale(0.040852 -0.040852)"/>
  <path d="M58 0V23Q87 25 100.0 38.0Q113 51 113 100V565Q113 614 98.5 627.5Q84 641 43 642V665H113Q169 665 211.0 666.5Q253 668 294.0 669.0Q335 670 387 670Q506 670 563.0 632.0Q620 594 620 531Q620 474 582.5 436.0Q545 398 480 384V382Q572 372 622.5 327.5Q673 283 673 209Q673 152 643.0 104.5Q613 57 551.0 28.5Q489 0 391 0ZM273 370Q286 379 297.5 381.5Q309 384 325 385Q384 390 417.0 426.0Q450 462 450 521Q450 561 434.5 584.0Q419 607 395.5 617.0Q372 627 346 627Q303 627 288.0 615.5Q273 604 273 565ZM332 43Q395 43 432.5 67.0Q470 91 486.5 128.5Q503 166 503 208Q503 279 461.0 311.0Q419 343 355 343Q315 343 294.0 329.5Q273 316 273 284V100Q273 65 284.0 54.0Q295 43 332 43Z" fill="#E7E0D3" transform="translate(653.665 105.000) scale(0.040852 -0.040852)"/>
  <path d="M274 -15Q206 -15 150.5 14.0Q95 43 62.5 97.0Q30 151 30 225Q30 305 66.0 361.0Q102 417 161.5 446.0Q221 475 289 475Q381 475 428.5 425.5Q476 376 476 296L181 259Q187 174 231.0 137.0Q275 100 333 100Q362 100 399.0 110.5Q436 121 466 149L482 133Q454 66 405.5 25.5Q357 -15 274 -15ZM259 432Q225 432 204.0 396.5Q183 361 180 299L325 317Q323 364 308.5 398.0Q294 432 259 432Z" fill="#E7E0D3" transform="translate(683.220 105.000) scale(0.040852 -0.040852)"/>
  <path d="M642 -15Q597 -15 565.0 -0.5Q533 14 511.0 38.0Q489 62 470 91L330 309Q320 326 312.0 330.0Q304 334 293 335V370Q353 374 386.0 394.0Q419 414 432.0 443.5Q445 473 445 505Q445 566 411.0 596.5Q377 627 333 627Q300 627 286.5 615.5Q273 604 273 565V100Q273 51 288.0 38.0Q303 25 343 23V0H58V23Q87 25 100.0 38.0Q113 51 113 100V565Q113 614 98.5 627.5Q84 641 43 642V665H113Q188 665 249.0 667.5Q310 670 353 670Q452 670 510.5 651.5Q569 633 594.5 600.0Q620 567 620 525Q620 485 600.5 452.0Q581 419 549.5 396.5Q518 374 481 365V363L647 103Q676 57 700.0 40.0Q724 23 743 23V0Q723 -7 695.5 -11.0Q668 -15 642 -15Z" fill="#E7E0D3" transform="translate(715.039 105.000) scale(0.040852 -0.040852)"/>
  <path d="M274 -15Q206 -15 150.5 14.0Q95 43 62.5 97.0Q30 151 30 225Q30 305 66.0 361.0Q102 417 161.5 446.0Q221 475 289 475Q381 475 428.5 425.5Q476 376 476 296L181 259Q187 174 231.0 137.0Q275 100 333 100Q362 100 399.0 110.5Q436 121 466 149L482 133Q454 66 405.5 25.5Q357 -15 274 -15ZM259 432Q225 432 204.0 396.5Q183 361 180 299L325 317Q323 364 308.5 398.0Q294 432 259 432Z" fill="#E7E0D3" transform="translate(744.880 105.000) scale(0.040852 -0.040852)"/>
  <path d="M224 -10Q217 16 209.0 35.5Q201 55 189 79L51 360Q35 393 25.0 409.0Q15 425 7.5 430.5Q0 436 -11 437V460H240V437Q215 436 207.0 424.0Q199 412 202.0 395.0Q205 378 213 360L297 185H299L372 360Q383 386 373.5 410.5Q364 435 331 437V460H490V437Q467 435 451.0 410.5Q435 386 424 360L305 79Q294 52 289.0 34.0Q284 16 278 -10Z" fill="#E7E0D3" transform="translate(765.570 105.000) scale(0.040852 -0.040852)"/>
  <path d="M233 110Q233 73 238.0 54.5Q243 36 256.0 30.0Q269 24 293 23V0H38V23Q55 24 65.0 30.0Q75 36 79.0 54.5Q83 73 83 110V340Q83 355 77.5 360.0Q72 365 61 365Q53 365 43.5 363.0Q34 361 23 357L13 380L231 481L237 475Q236 460 234.5 428.5Q233 397 233 349ZM163 530Q126 530 101.0 555.5Q76 581 76 616Q76 651 101.0 677.0Q126 703 163 703Q199 703 224.0 677.0Q249 651 249 616Q249 581 224.0 555.5Q199 530 163 530Z" fill="#E7E0D3" transform="translate(785.483 105.000) scale(0.040852 -0.040852)"/>
  <path d="M274 -15Q206 -15 150.5 14.0Q95 43 62.5 97.0Q30 151 30 225Q30 305 66.0 361.0Q102 417 161.5 446.0Q221 475 289 475Q381 475 428.5 425.5Q476 376 476 296L181 259Q187 174 231.0 137.0Q275 100 333 100Q362 100 399.0 110.5Q436 121 466 149L482 133Q454 66 405.5 25.5Q357 -15 274 -15ZM259 432Q225 432 204.0 396.5Q183 361 180 299L325 317Q323 364 308.5 398.0Q294 432 259 432Z" fill="#E7E0D3" transform="translate(798.492 105.000) scale(0.040852 -0.040852)"/>
  <path d="M205 -10Q197 16 190.0 35.5Q183 55 172 79L51 360Q37 394 28.0 409.5Q19 425 11.0 430.5Q3 436 -11 437V460H230V437Q210 436 204.5 424.0Q199 412 202.5 395.0Q206 378 213 360L285 190H287L352 339L343 360Q330 394 321.0 409.5Q312 425 305.5 430.5Q299 436 290 437V460H527V437Q502 436 494.5 424.0Q487 412 490.0 395.0Q493 378 500 360L568 190H570L632 360Q639 378 639.0 395.0Q639 412 627.5 424.0Q616 436 587 437V460H750V437Q727 435 711.0 411.0Q695 387 684 360L576 79Q566 52 560.5 34.0Q555 16 549 -10H492Q485 16 476.0 35.5Q467 55 457 79L377 276L291 79Q279 52 273.5 34.0Q268 16 262 -10Z" fill="#E7E0D3" transform="translate(819.182 105.000) scale(0.040852 -0.040852)"/>
  <path d="M274 -15Q206 -15 150.5 14.0Q95 43 62.5 97.0Q30 151 30 225Q30 305 66.0 361.0Q102 417 161.5 446.0Q221 475 289 475Q381 475 428.5 425.5Q476 376 476 296L181 259Q187 174 231.0 137.0Q275 100 333 100Q362 100 399.0 110.5Q436 121 466 149L482 133Q454 66 405.5 25.5Q357 -15 274 -15ZM259 432Q225 432 204.0 396.5Q183 361 180 299L325 317Q323 364 308.5 398.0Q294 432 259 432Z" fill="#E7E0D3" transform="translate(849.676 105.000) scale(0.040852 -0.040852)"/>
  <path d="M570 99 580 76 373 -21 367 -15Q369 -6 371.0 23.0Q373 52 373 82H371Q352 41 310.5 13.0Q269 -15 211 -15Q163 -15 122.0 12.5Q81 40 55.5 91.5Q30 143 30 214Q30 286 55.0 335.5Q80 385 120.5 416.0Q161 447 209.0 461.0Q257 475 303 475Q323 475 340.0 474.0Q357 473 370 471V649Q370 664 364.5 669.0Q359 674 348 674Q331 674 310 666L300 689L518 790L524 784Q523 769 521.5 737.5Q520 706 520 658V120Q520 105 526.0 100.0Q532 95 542 95Q554 95 570 99ZM294 85Q313 85 333.5 93.0Q354 101 370 117V383Q342 427 294 427Q250 427 220.0 380.5Q190 334 190 257Q190 170 220.5 127.5Q251 85 294 85Z" fill="#E7E0D3" transform="translate(870.366 105.000) scale(0.040852 -0.040852)"/>
</svg>
