<svg xmlns="http://www.w3.org/2000/svg" viewBox="0 0 960 94" role="img" aria-labelledby="title">
  <title id="title">VibeSkills is a general-purpose Skill that automatically routes local Skills and intelligently orchestrates harness workflows.</title>
  <metadata>Lettering derived from Bona Nova Italic, licensed under SIL Open Font License 1.1.</metadata>
  <path d="M240 -8Q236 18 230.5 39.0Q225 60 220 79L91 565Q82 600 72.5 615.5Q63 631 47.5 636.0Q32 641 5 642V665H194V642Q174 641 164.0 636.0Q154 631 154.5 615.5Q155 600 164 565L286 115H288L468 565Q482 600 480.5 615.5Q479 631 460.5 636.0Q442 641 404 642V665H582V642Q568 641 557.0 636.0Q546 631 535.0 615.5Q524 600 510 565L313 79Q297 42 283 -8Z" fill="#4A4946" transform="translate(60.828 37.000) scale(0.039000 -0.039000)"/>
  <path d="M121 -15Q101 11 101 64Q101 90 104.5 129.0Q108 168 113.0 210.0Q118 252 121.5 287.0Q125 322 125 341Q125 361 116 361Q106 361 79.0 340.0Q52 319 26 291L10 307Q28 329 58.0 359.0Q88 389 121.0 416.0Q154 443 178 455Q184 442 187.0 421.5Q190 401 190 376Q190 354 186.5 316.5Q183 279 178.0 237.5Q173 196 169.5 159.0Q166 122 166 99Q166 88 169.5 77.0Q173 66 183 66Q205 66 259 125L275 109Q258 87 231.0 62.5Q204 38 175.0 17.5Q146 -3 121 -15ZM163 560Q147 560 139.0 569.5Q131 579 131 593Q131 616 150.5 635.0Q170 654 193 654Q210 654 217.5 644.5Q225 635 225 621Q225 596 205.5 578.0Q186 560 163 560Z" fill="#4A4946" transform="translate(83.643 37.000) scale(0.039000 -0.039000)"/>
  <path d="M62 -15Q67 36 73.5 107.5Q80 179 87.0 259.0Q94 339 100.0 418.0Q106 497 109.5 564.5Q113 632 113 676Q113 696 104 696Q94 696 75.0 676.5Q56 657 30 628L13 644Q31 667 57.0 696.5Q83 726 112.0 752.0Q141 778 166 790Q172 777 175.0 756.5Q178 736 178 711Q178 657 173.5 588.5Q169 520 162.0 444.0Q155 368 147 290H149Q187 361 240.5 408.0Q294 455 348 455Q394 455 421.5 419.5Q449 384 449 322Q449 267 428.0 208.0Q407 149 371.5 98.5Q336 48 292.0 16.5Q248 -15 202 -15Q181 -15 161.0 -7.5Q141 0 127 15ZM208 15Q244 15 275.0 41.0Q306 67 329.5 109.5Q353 152 366.0 201.0Q379 250 379 295Q379 338 365.0 366.5Q351 395 319 395Q290 395 258.0 372.0Q226 349 198.5 310.0Q171 271 153.5 223.0Q136 175 136 124Q136 97 142.5 72.0Q149 47 165.0 31.0Q181 15 208 15Z" fill="#4A4946" transform="translate(94.875 37.000) scale(0.039000 -0.039000)"/>
  <path d="M160 -15Q133 -15 105.0 -1.0Q77 13 58.5 46.0Q40 79 40 134Q40 194 63.0 251.0Q86 308 124.0 354.5Q162 401 208.5 428.0Q255 455 301 455Q346 455 360.5 436.5Q375 418 375 393Q375 347 341.0 306.5Q307 266 247.0 225.0Q187 184 109 136Q116 93 138.5 71.5Q161 50 190 50Q230 50 267.5 74.0Q305 98 335 142L356 134Q334 95 301.5 61.0Q269 27 232.5 6.0Q196 -15 160 -15ZM107 166Q107 164 107 165Q300 285 300 378Q300 398 290.5 406.5Q281 415 266 415Q239 415 211.0 393.0Q183 371 159.5 334.5Q136 298 121.5 254.0Q107 210 107 166Z" fill="#4A4946" transform="translate(113.907 37.000) scale(0.039000 -0.039000)"/>
  <path d="M209 -15Q167 -15 126.5 -1.5Q86 12 59.5 37.0Q33 62 33 98Q33 114 42 130L89 210L109 201Q91 162 91 134Q91 104 113.0 81.5Q135 59 169.0 47.0Q203 35 239 35Q319 35 357.5 75.0Q396 115 396 181Q396 212 379.0 235.5Q362 259 328.5 283.0Q295 307 245 338Q179 380 142.5 408.5Q106 437 91.5 460.5Q77 484 77 510Q77 550 105.5 589.0Q134 628 185.5 654.0Q237 680 306 680Q346 680 387.0 672.0Q428 664 451 653L442 510H419Q419 570 389.0 607.5Q359 645 292 645Q247 645 211.5 629.0Q176 613 155.0 589.0Q134 565 134 539Q134 504 177.5 474.0Q221 444 288 402Q349 364 385.5 336.5Q422 309 438.5 281.5Q455 254 455 215Q455 150 424.5 97.5Q394 45 339.0 15.0Q284 -15 209 -15Z" fill="#4A4946" transform="translate(129.390 37.000) scale(0.039000 -0.039000)"/>
  <path d="M463 23 469 0Q450 -7 433.5 -11.0Q417 -15 397 -15Q362 -15 330.5 9.0Q299 33 258 73Q207 124 182.0 147.5Q157 171 139 171Q134 130 130.5 85.0Q127 40 127 0Q94 -3 62 -15Q67 36 73.5 107.5Q80 179 87.0 259.0Q94 339 100.0 418.0Q106 497 109.5 564.5Q113 632 113 676Q113 696 104 696Q94 696 75.0 676.5Q56 657 30 628L13 644Q31 667 57.0 696.5Q83 726 112.0 752.0Q141 778 166 790Q172 777 175.0 756.5Q178 736 178 711Q178 657 173.5 588.5Q169 520 162.0 444.0Q155 368 147 290H149Q174 330 205.0 368.0Q236 406 273.0 430.5Q310 455 351 455Q387 455 402.0 436.5Q417 418 417 389Q417 350 393.5 311.5Q370 273 327.5 241.0Q285 209 228 190V188L309 106Q351 64 375.0 45.0Q399 26 418.0 23.0Q437 20 463 23ZM317 405Q295 405 267.5 384.5Q240 364 213.5 331.5Q187 299 167.5 262.5Q148 226 141 194Q211 202 256.5 229.5Q302 257 324.5 293.5Q347 330 347 364Q347 382 340.5 393.5Q334 405 317 405Z" fill="#4A4946" transform="translate(149.397 37.000) scale(0.039000 -0.039000)"/>
  <path d="M121 -15Q101 11 101 64Q101 90 104.5 129.0Q108 168 113.0 210.0Q118 252 121.5 287.0Q125 322 125 341Q125 361 116 361Q106 361 79.0 340.0Q52 319 26 291L10 307Q28 329 58.0 359.0Q88 389 121.0 416.0Q154 443 178 455Q184 442 187.0 421.5Q190 401 190 376Q190 354 186.5 316.5Q183 279 178.0 237.5Q173 196 169.5 159.0Q166 122 166 99Q166 88 169.5 77.0Q173 66 183 66Q205 66 259 125L275 109Q258 87 231.0 62.5Q204 38 175.0 17.5Q146 -3 121 -15ZM163 560Q147 560 139.0 569.5Q131 579 131 593Q131 616 150.5 635.0Q170 654 193 654Q210 654 217.5 644.5Q225 635 225 621Q225 596 205.5 578.0Q186 560 163 560Z" fill="#4A4946" transform="translate(167.181 37.000) scale(0.039000 -0.039000)"/>
  <path d="M97 -15Q77 11 77 64Q77 115 81.0 178.5Q85 242 91.5 310.5Q98 379 104.0 446.0Q110 513 114.0 572.5Q118 632 118 676Q118 696 109 696Q99 696 80.0 676.5Q61 657 35 628L18 644Q36 667 62.0 696.5Q88 726 117.0 752.0Q146 778 171 790Q177 777 180.0 756.5Q183 736 183 711Q183 664 179.0 603.0Q175 542 169.0 474.0Q163 406 156.5 338.0Q150 270 146.0 208.5Q142 147 142 99Q142 88 145.5 77.0Q149 66 159 66Q181 66 235 125L251 109Q234 87 207.0 62.5Q180 38 151.0 17.5Q122 -3 97 -15Z" fill="#4A4946" transform="translate(178.413 37.000) scale(0.039000 -0.039000)"/>
  <path d="M97 -15Q77 11 77 64Q77 115 81.0 178.5Q85 242 91.5 310.5Q98 379 104.0 446.0Q110 513 114.0 572.5Q118 632 118 676Q118 696 109 696Q99 696 80.0 676.5Q61 657 35 628L18 644Q36 667 62.0 696.5Q88 726 117.0 752.0Q146 778 171 790Q177 777 180.0 756.5Q183 736 183 711Q183 664 179.0 603.0Q175 542 169.0 474.0Q163 406 156.5 338.0Q150 270 146.0 208.5Q142 147 142 99Q142 88 145.5 77.0Q149 66 159 66Q181 66 235 125L251 109Q234 87 207.0 62.5Q180 38 151.0 17.5Q122 -3 97 -15Z" fill="#4A4946" transform="translate(188.709 37.000) scale(0.039000 -0.039000)"/>
  <path d="M146 -15Q120 -15 91.5 -6.0Q63 3 44.0 21.0Q25 39 25 66Q25 92 44.0 111.5Q63 131 89 153L105 137Q90 123 84.5 113.0Q79 103 79 93Q79 69 102.5 52.0Q126 35 166 35Q213 35 244.0 59.0Q275 83 275 123Q275 149 255.0 167.0Q235 185 179 213Q151 227 125.5 242.0Q100 257 84.0 275.5Q68 294 68 317Q68 345 90.5 377.0Q113 409 150.0 432.0Q187 455 232 455Q267 455 298.0 441.0Q329 427 351 395L304 314L284 324Q301 357 292.5 378.5Q284 400 262.0 411.0Q240 422 215 422Q177 422 152.5 398.5Q128 375 128 340Q128 329 133.0 320.5Q138 312 156.5 300.5Q175 289 213 269Q259 246 283.0 231.0Q307 216 316.0 201.0Q325 186 325 163Q325 116 299.5 75.5Q274 35 233.0 10.0Q192 -15 146 -15Z" fill="#4A4946" transform="translate(199.005 37.000) scale(0.039000 -0.039000)"/>
  <path d="M121 -15Q101 11 101 64Q101 90 104.5 129.0Q108 168 113.0 210.0Q118 252 121.5 287.0Q125 322 125 341Q125 361 116 361Q106 361 79.0 340.0Q52 319 26 291L10 307Q28 329 58.0 359.0Q88 389 121.0 416.0Q154 443 178 455Q184 442 187.0 421.5Q190 401 190 376Q190 354 186.5 316.5Q183 279 178.0 237.5Q173 196 169.5 159.0Q166 122 166 99Q166 88 169.5 77.0Q173 66 183 66Q205 66 259 125L275 109Q258 87 231.0 62.5Q204 38 175.0 17.5Q146 -3 121 -15ZM163 560Q147 560 139.0 569.5Q131 579 131 593Q131 616 150.5 635.0Q170 654 193 654Q210 654 217.5 644.5Q225 635 225 621Q225 596 205.5 578.0Q186 560 163 560Z" fill="#4A4946" transform="translate(222.639 37.000) scale(0.039000 -0.039000)"/>
  <path d="M146 -15Q120 -15 91.5 -6.0Q63 3 44.0 21.0Q25 39 25 66Q25 92 44.0 111.5Q63 131 89 153L105 137Q90 123 84.5 113.0Q79 103 79 93Q79 69 102.5 52.0Q126 35 166 35Q213 35 244.0 59.0Q275 83 275 123Q275 149 255.0 167.0Q235 185 179 213Q151 227 125.5 242.0Q100 257 84.0 275.5Q68 294 68 317Q68 345 90.5 377.0Q113 409 150.0 432.0Q187 455 232 455Q267 455 298.0 441.0Q329 427 351 395L304 314L284 324Q301 357 292.5 378.5Q284 400 262.0 411.0Q240 422 215 422Q177 422 152.5 398.5Q128 375 128 340Q128 329 133.0 320.5Q138 312 156.5 300.5Q175 289 213 269Q259 246 283.0 231.0Q307 216 316.0 201.0Q325 186 325 163Q325 116 299.5 75.5Q274 35 233.0 10.0Q192 -15 146 -15Z" fill="#4A4946" transform="translate(233.871 37.000) scale(0.039000 -0.039000)"/>
  <path d="M129 -15Q82 -15 61.0 21.0Q40 57 40 106Q40 149 55.5 197.0Q71 245 98.0 290.5Q125 336 159.5 373.5Q194 411 232.0 433.0Q270 455 307 455Q329 455 344.0 447.0Q359 439 372 428L431 455Q415 307 409.0 216.0Q403 125 403 98Q403 87 406.5 76.5Q410 66 419 66Q429 66 445.0 77.5Q461 89 480 108L497 92Q468 60 428.5 30.5Q389 1 356 -15Q337 10 337 60Q337 92 340.0 121.5Q343 151 350 203H348Q299 103 242.0 44.0Q185 -15 129 -15ZM159 50Q181 50 207.5 69.5Q234 89 260.0 121.5Q286 154 308.0 193.5Q330 233 343.0 274.0Q356 315 356 350Q356 366 352.0 383.5Q348 401 336.0 413.0Q324 425 300 425Q262 425 228.0 396.5Q194 368 167.5 323.0Q141 278 125.5 228.0Q110 178 110 134Q110 95 121.0 72.5Q132 50 159 50Z" fill="#4A4946" transform="translate(257.505 37.000) scale(0.039000 -0.039000)"/>
  <path d="M165 -235Q122 -235 83.5 -223.5Q45 -212 21.0 -191.5Q-3 -171 -3 -143Q-3 -113 24.0 -89.5Q51 -66 82 -50L102 -60Q83 -79 75.0 -96.0Q67 -113 67 -124Q67 -143 85.0 -158.0Q103 -173 133.0 -182.0Q163 -191 197 -191Q230 -191 261.0 -183.5Q292 -176 312.0 -161.5Q332 -147 332 -128Q332 -115 312 -105L103 -6Q89 1 95 18L124 97Q95 105 72.5 128.5Q50 152 50 199Q50 242 70.0 287.0Q90 332 123.5 370.0Q157 408 198.5 431.5Q240 455 284 455Q308 455 332.5 446.0Q357 437 372 415Q406 425 418 515H438Q459 485 459 454Q459 424 438.0 410.0Q417 396 384 394Q391 374 391 349Q391 308 373.5 265.5Q356 223 325.5 185.5Q295 148 257.0 123.5Q219 99 177 94Q157 92 150.5 82.0Q144 72 144 63Q144 53 151.0 47.5Q158 42 171 36L367 -56Q378 -61 387.5 -70.0Q397 -79 397 -94Q397 -112 380.5 -136.0Q364 -160 333.0 -182.5Q302 -205 259.5 -220.0Q217 -235 165 -235ZM183 131Q215 131 241.0 149.5Q267 168 285.5 198.0Q304 228 313.5 262.0Q323 296 323 326Q323 364 307.5 390.0Q292 416 257 416Q226 416 200.5 398.0Q175 380 156.5 351.0Q138 322 128.0 288.0Q118 254 118 222Q118 183 133.5 157.0Q149 131 183 131Z" fill="#4A4946" transform="translate(286.443 37.000) scale(0.039000 -0.039000)"/>
  <path d="M160 -15Q133 -15 105.0 -1.0Q77 13 58.5 46.0Q40 79 40 134Q40 194 63.0 251.0Q86 308 124.0 354.5Q162 401 208.5 428.0Q255 455 301 455Q346 455 360.5 436.5Q375 418 375 393Q375 347 341.0 306.5Q307 266 247.0 225.0Q187 184 109 136Q116 93 138.5 71.5Q161 50 190 50Q230 50 267.5 74.0Q305 98 335 142L356 134Q334 95 301.5 61.0Q269 27 232.5 6.0Q196 -15 160 -15ZM107 166Q107 164 107 165Q300 285 300 378Q300 398 290.5 406.5Q281 415 266 415Q239 415 211.0 393.0Q183 371 159.5 334.5Q136 298 121.5 254.0Q107 210 107 166Z" fill="#4A4946" transform="translate(303.447 37.000) scale(0.039000 -0.039000)"/>
  <path d="M76 -15Q78 6 82.0 43.5Q86 81 90.0 126.0Q94 171 98.0 214.5Q102 258 104.5 292.0Q107 326 107 341Q107 361 98 361Q84 361 49 323L33 339Q59 371 92.5 403.5Q126 436 160 455Q166 442 169.0 421.5Q172 401 172 376Q172 337 167.0 298.0Q162 259 154 208H156Q195 278 237.0 331.0Q279 384 318.5 416.0Q358 448 389 455Q403 444 410.0 423.0Q417 402 417 376Q417 354 413.5 316.5Q410 279 405.0 237.5Q400 196 396.5 159.0Q393 122 393 99Q393 88 396.5 77.0Q400 66 410 66Q420 66 435.5 77.5Q451 89 470 108L487 92Q459 60 420.0 30.5Q381 1 348 -15Q328 11 328 64Q328 90 331.5 129.0Q335 168 340.0 210.0Q345 252 348.5 287.0Q352 322 352 341Q352 362 349.0 370.5Q346 379 338 379Q322 379 291.5 347.5Q261 316 226 264Q193 215 167.0 152.0Q141 89 141 0Q108 -3 76 -15Z" fill="#4A4946" transform="translate(318.930 37.000) scale(0.039000 -0.039000)"/>
  <path d="M160 -15Q133 -15 105.0 -1.0Q77 13 58.5 46.0Q40 79 40 134Q40 194 63.0 251.0Q86 308 124.0 354.5Q162 401 208.5 428.0Q255 455 301 455Q346 455 360.5 436.5Q375 418 375 393Q375 347 341.0 306.5Q307 266 247.0 225.0Q187 184 109 136Q116 93 138.5 71.5Q161 50 190 50Q230 50 267.5 74.0Q305 98 335 142L356 134Q334 95 301.5 61.0Q269 27 232.5 6.0Q196 -15 160 -15ZM107 166Q107 164 107 165Q300 285 300 378Q300 398 290.5 406.5Q281 415 266 415Q239 415 211.0 393.0Q183 371 159.5 334.5Q136 298 121.5 254.0Q107 210 107 166Z" fill="#4A4946" transform="translate(338.781 37.000) scale(0.039000 -0.039000)"/>
  <path d="M76 -15Q78 6 82.0 43.5Q86 81 90.0 126.0Q94 171 98.0 214.5Q102 258 104.5 292.0Q107 326 107 341Q107 361 98 361Q84 361 49 323L33 339Q59 371 92.5 403.5Q126 436 160 455Q166 442 169.0 421.5Q172 401 172 376Q172 346 169.0 317.0Q166 288 160 250H162Q204 331 245.0 385.0Q286 439 329 455Q347 440 350.5 412.0Q354 384 349.5 349.0Q345 314 337 278H314Q318 313 315.0 336.5Q312 360 293 360Q281 360 262.0 346.0Q243 332 212 279Q182 229 161.5 159.0Q141 89 141 0Q108 -3 76 -15Z" fill="#4A4946" transform="translate(354.264 37.000) scale(0.039000 -0.039000)"/>
  <path d="M129 -15Q82 -15 61.0 21.0Q40 57 40 106Q40 149 55.5 197.0Q71 245 98.0 290.5Q125 336 159.5 373.5Q194 411 232.0 433.0Q270 455 307 455Q329 455 344.0 447.0Q359 439 372 428L431 455Q415 307 409.0 216.0Q403 125 403 98Q403 87 406.5 76.5Q410 66 419 66Q429 66 445.0 77.5Q461 89 480 108L497 92Q468 60 428.5 30.5Q389 1 356 -15Q337 10 337 60Q337 92 340.0 121.5Q343 151 350 203H348Q299 103 242.0 44.0Q185 -15 129 -15ZM159 50Q181 50 207.5 69.5Q234 89 260.0 121.5Q286 154 308.0 193.5Q330 233 343.0 274.0Q356 315 356 350Q356 366 352.0 383.5Q348 401 336.0 413.0Q324 425 300 425Q262 425 228.0 396.5Q194 368 167.5 323.0Q141 278 125.5 228.0Q110 178 110 134Q110 95 121.0 72.5Q132 50 159 50Z" fill="#4A4946" transform="translate(368.187 37.000) scale(0.039000 -0.039000)"/>
  <path d="M97 -15Q77 11 77 64Q77 115 81.0 178.5Q85 242 91.5 310.5Q98 379 104.0 446.0Q110 513 114.0 572.5Q118 632 118 676Q118 696 109 696Q99 696 80.0 676.5Q61 657 35 628L18 644Q36 667 62.0 696.5Q88 726 117.0 752.0Q146 778 171 790Q177 777 180.0 756.5Q183 736 183 711Q183 664 179.0 603.0Q175 542 169.0 474.0Q163 406 156.5 338.0Q150 270 146.0 208.5Q142 147 142 99Q142 88 145.5 77.0Q149 66 159 66Q181 66 235 125L251 109Q234 87 207.0 62.5Q180 38 151.0 17.5Q122 -3 97 -15Z" fill="#4A4946" transform="translate(388.155 37.000) scale(0.039000 -0.039000)"/>
  <path d="M277 229 27 207 24 259 273 281Z" fill="#4A4946" transform="translate(398.451 37.000) scale(0.039000 -0.039000)"/>
  <path d="M59 -240Q65 -186 72.5 -110.5Q80 -35 87.0 47.0Q94 129 99.0 206.0Q104 283 104 341Q104 361 95 361Q81 361 46 323L30 339Q56 371 89.5 403.5Q123 436 157 455Q163 442 166.0 421.5Q169 401 169 376Q169 337 166 290H168Q206 361 259.0 408.0Q312 455 366 455Q412 455 439.5 419.5Q467 384 467 322Q467 267 446.0 208.0Q425 149 389.5 98.5Q354 48 310.0 16.5Q266 -15 220 -15Q199 -15 179.0 -7.5Q159 0 145 15Q138 -46 132.0 -111.5Q126 -177 124 -225Q90 -231 59 -240ZM226 15Q262 15 293.0 41.0Q324 67 347.5 109.5Q371 152 384.0 201.0Q397 250 397 295Q397 338 383.0 366.5Q369 395 337 395Q308 395 276.0 372.0Q244 349 216.5 310.0Q189 271 171.5 223.0Q154 175 154 124Q154 97 160.5 72.0Q167 47 183.0 31.0Q199 15 226 15Z" fill="#4A4946" transform="translate(410.190 37.000) scale(0.039000 -0.039000)"/>
  <path d="M118 -15Q83 11 83 64Q83 90 86.5 129.0Q90 168 95.0 210.0Q100 252 103.5 287.0Q107 322 107 341Q107 361 98 361Q84 361 49 323L33 339Q59 371 92.5 403.5Q126 436 160 455Q166 442 169.0 421.5Q172 401 172 376Q172 354 168.5 316.5Q165 279 160.0 237.5Q155 196 151.5 159.0Q148 122 148 99Q148 78 151.5 69.5Q155 61 162 61Q178 61 204.5 92.5Q231 124 265 176Q297 226 322.0 289.0Q347 352 347 440Q379 452 412 455Q410 434 406.0 396.5Q402 359 397.5 314.0Q393 269 389.5 225.5Q386 182 383.5 148.0Q381 114 381 99Q381 88 384.5 77.0Q388 66 398 66Q408 66 423.5 77.5Q439 89 458 108L475 92Q447 60 408.0 30.5Q369 1 336 -15Q316 11 316 64Q316 103 321.0 142.0Q326 181 334 233H332Q278 128 221.5 66.0Q165 4 118 -15Z" fill="#4A4946" transform="translate(429.924 37.000) scale(0.039000 -0.039000)"/>
  <path d="M76 -15Q78 6 82.0 43.5Q86 81 90.0 126.0Q94 171 98.0 214.5Q102 258 104.5 292.0Q107 326 107 341Q107 361 98 361Q84 361 49 323L33 339Q59 371 92.5 403.5Q126 436 160 455Q166 442 169.0 421.5Q172 401 172 376Q172 346 169.0 317.0Q166 288 160 250H162Q204 331 245.0 385.0Q286 439 329 455Q347 440 350.5 412.0Q354 384 349.5 349.0Q345 314 337 278H314Q318 313 315.0 336.5Q312 360 293 360Q281 360 262.0 346.0Q243 332 212 279Q182 229 161.5 159.0Q141 89 141 0Q108 -3 76 -15Z" fill="#4A4946" transform="translate(449.307 37.000) scale(0.039000 -0.039000)"/>
  <path d="M59 -240Q65 -186 72.5 -110.5Q80 -35 87.0 47.0Q94 129 99.0 206.0Q104 283 104 341Q104 361 95 361Q81 361 46 323L30 339Q56 371 89.5 403.5Q123 436 157 455Q163 442 166.0 421.5Q169 401 169 376Q169 337 166 290H168Q206 361 259.0 408.0Q312 455 366 455Q412 455 439.5 419.5Q467 384 467 322Q467 267 446.0 208.0Q425 149 389.5 98.5Q354 48 310.0 16.5Q266 -15 220 -15Q199 -15 179.0 -7.5Q159 0 145 15Q138 -46 132.0 -111.5Q126 -177 124 -225Q90 -231 59 -240ZM226 15Q262 15 293.0 41.0Q324 67 347.5 109.5Q371 152 384.0 201.0Q397 250 397 295Q397 338 383.0 366.5Q369 395 337 395Q308 395 276.0 372.0Q244 349 216.5 310.0Q189 271 171.5 223.0Q154 175 154 124Q154 97 160.5 72.0Q167 47 183.0 31.0Q199 15 226 15Z" fill="#4A4946" transform="translate(463.230 37.000) scale(0.039000 -0.039000)"/>
  <path d="M164 -15Q113 -15 76.5 22.5Q40 60 40 137Q40 197 63.0 254.0Q86 311 123.5 356.5Q161 402 207.0 428.5Q253 455 299 455Q352 455 388.0 417.0Q424 379 424 302Q424 241 400.5 184.0Q377 127 339.0 82.0Q301 37 255.0 11.0Q209 -15 164 -15ZM202 35Q243 35 278.0 66.5Q313 98 334.0 150.0Q355 202 354 263Q354 302 344.0 334.0Q334 366 314.0 385.5Q294 405 261 405Q220 405 185.5 373.0Q151 341 130.5 289.5Q110 238 110 177Q110 112 134.0 73.5Q158 35 202 35Z" fill="#4A4946" transform="translate(482.964 37.000) scale(0.039000 -0.039000)"/>
  <path d="M146 -15Q120 -15 91.5 -6.0Q63 3 44.0 21.0Q25 39 25 66Q25 92 44.0 111.5Q63 131 89 153L105 137Q90 123 84.5 113.0Q79 103 79 93Q79 69 102.5 52.0Q126 35 166 35Q213 35 244.0 59.0Q275 83 275 123Q275 149 255.0 167.0Q235 185 179 213Q151 227 125.5 242.0Q100 257 84.0 275.5Q68 294 68 317Q68 345 90.5 377.0Q113 409 150.0 432.0Q187 455 232 455Q267 455 298.0 441.0Q329 427 351 395L304 314L284 324Q301 357 292.5 378.5Q284 400 262.0 411.0Q240 422 215 422Q177 422 152.5 398.5Q128 375 128 340Q128 329 133.0 320.5Q138 312 156.5 300.5Q175 289 213 269Q259 246 283.0 231.0Q307 216 316.0 201.0Q325 186 325 163Q325 116 299.5 75.5Q274 35 233.0 10.0Q192 -15 146 -15Z" fill="#4A4946" transform="translate(501.060 37.000) scale(0.039000 -0.039000)"/>
  <path d="M160 -15Q133 -15 105.0 -1.0Q77 13 58.5 46.0Q40 79 40 134Q40 194 63.0 251.0Q86 308 124.0 354.5Q162 401 208.5 428.0Q255 455 301 455Q346 455 360.5 436.5Q375 418 375 393Q375 347 341.0 306.5Q307 266 247.0 225.0Q187 184 109 136Q116 93 138.5 71.5Q161 50 190 50Q230 50 267.5 74.0Q305 98 335 142L356 134Q334 95 301.5 61.0Q269 27 232.5 6.0Q196 -15 160 -15ZM107 166Q107 164 107 165Q300 285 300 378Q300 398 290.5 406.5Q281 415 266 415Q239 415 211.0 393.0Q183 371 159.5 334.5Q136 298 121.5 254.0Q107 210 107 166Z" fill="#4A4946" transform="translate(515.724 37.000) scale(0.039000 -0.039000)"/>
  <path d="M209 -15Q167 -15 126.5 -1.5Q86 12 59.5 37.0Q33 62 33 98Q33 114 42 130L89 210L109 201Q91 162 91 134Q91 104 113.0 81.5Q135 59 169.0 47.0Q203 35 239 35Q319 35 357.5 75.0Q396 115 396 181Q396 212 379.0 235.5Q362 259 328.5 283.0Q295 307 245 338Q179 380 142.5 408.5Q106 437 91.5 460.5Q77 484 77 510Q77 550 105.5 589.0Q134 628 185.5 654.0Q237 680 306 680Q346 680 387.0 672.0Q428 664 451 653L442 510H419Q419 570 389.0 607.5Q359 645 292 645Q247 645 211.5 629.0Q176 613 155.0 589.0Q134 565 134 539Q134 504 177.5 474.0Q221 444 288 402Q349 364 385.5 336.5Q422 309 438.5 281.5Q455 254 455 215Q455 150 424.5 97.5Q394 45 339.0 15.0Q284 -15 209 -15Z" fill="#4A4946" transform="translate(540.177 37.000) scale(0.039000 -0.039000)"/>
  <path d="M463 23 469 0Q450 -7 433.5 -11.0Q417 -15 397 -15Q362 -15 330.5 9.0Q299 33 258 73Q207 124 182.0 147.5Q157 171 139 171Q134 130 130.5 85.0Q127 40 127 0Q94 -3 62 -15Q67 36 73.5 107.5Q80 179 87.0 259.0Q94 339 100.0 418.0Q106 497 109.5 564.5Q113 632 113 676Q113 696 104 696Q94 696 75.0 676.5Q56 657 30 628L13 644Q31 667 57.0 696.5Q83 726 112.0 752.0Q141 778 166 790Q172 777 175.0 756.5Q178 736 178 711Q178 657 173.5 588.5Q169 520 162.0 444.0Q155 368 147 290H149Q174 330 205.0 368.0Q236 406 273.0 430.5Q310 455 351 455Q387 455 402.0 436.5Q417 418 417 389Q417 350 393.5 311.5Q370 273 327.5 241.0Q285 209 228 190V188L309 106Q351 64 375.0 45.0Q399 26 418.0 23.0Q437 20 463 23ZM317 405Q295 405 267.5 384.5Q240 364 213.5 331.5Q187 299 167.5 262.5Q148 226 141 194Q211 202 256.5 229.5Q302 257 324.5 293.5Q347 330 347 364Q347 382 340.5 393.5Q334 405 317 405Z" fill="#4A4946" transform="translate(560.184 37.000) scale(0.039000 -0.039000)"/>
  <path d="M121 -15Q101 11 101 64Q101 90 104.5 129.0Q108 168 113.0 210.0Q118 252 121.5 287.0Q125 322 125 341Q125 361 116 361Q106 361 79.0 340.0Q52 319 26 291L10 307Q28 329 58.0 359.0Q88 389 121.0 416.0Q154 443 178 455Q184 442 187.0 421.5Q190 401 190 376Q190 354 186.5 316.5Q183 279 178.0 237.5Q173 196 169.5 159.0Q166 122 166 99Q166 88 169.5 77.0Q173 66 183 66Q205 66 259 125L275 109Q258 87 231.0 62.5Q204 38 175.0 17.5Q146 -3 121 -15ZM163 560Q147 560 139.0 569.5Q131 579 131 593Q131 616 150.5 635.0Q170 654 193 654Q210 654 217.5 644.5Q225 635 225 621Q225 596 205.5 578.0Q186 560 163 560Z" fill="#4A4946" transform="translate(577.968 37.000) scale(0.039000 -0.039000)"/>
  <path d="M97 -15Q77 11 77 64Q77 115 81.0 178.5Q85 242 91.5 310.5Q98 379 104.0 446.0Q110 513 114.0 572.5Q118 632 118 676Q118 696 109 696Q99 696 80.0 676.5Q61 657 35 628L18 644Q36 667 62.0 696.5Q88 726 117.0 752.0Q146 778 171 790Q177 777 180.0 756.5Q183 736 183 711Q183 664 179.0 603.0Q175 542 169.0 474.0Q163 406 156.5 338.0Q150 270 146.0 208.5Q142 147 142 99Q142 88 145.5 77.0Q149 66 159 66Q181 66 235 125L251 109Q234 87 207.0 62.5Q180 38 151.0 17.5Q122 -3 97 -15Z" fill="#4A4946" transform="translate(589.200 37.000) scale(0.039000 -0.039000)"/>
  <path d="M97 -15Q77 11 77 64Q77 115 81.0 178.5Q85 242 91.5 310.5Q98 379 104.0 446.0Q110 513 114.0 572.5Q118 632 118 676Q118 696 109 696Q99 696 80.0 676.5Q61 657 35 628L18 644Q36 667 62.0 696.5Q88 726 117.0 752.0Q146 778 171 790Q177 777 180.0 756.5Q183 736 183 711Q183 664 179.0 603.0Q175 542 169.0 474.0Q163 406 156.5 338.0Q150 270 146.0 208.5Q142 147 142 99Q142 88 145.5 77.0Q149 66 159 66Q181 66 235 125L251 109Q234 87 207.0 62.5Q180 38 151.0 17.5Q122 -3 97 -15Z" fill="#4A4946" transform="translate(599.496 37.000) scale(0.039000 -0.039000)"/>
  <path d="M95 -15Q85 -2 81.0 17.5Q77 37 77 63Q77 98 81.0 155.0Q85 212 90.5 279.0Q96 346 100 410H17V440H102Q107 481 110.5 516.0Q114 551 115 575L184 590Q181 562 176.0 523.0Q171 484 166 440H286V410H192Q175 410 169.0 403.5Q163 397 161 378Q157 322 152.5 268.5Q148 215 145.0 171.5Q142 128 142 102Q142 88 146.0 77.0Q150 66 159 66Q181 66 235 125L251 109Q234 87 207.0 62.5Q180 38 150.5 17.5Q121 -3 95 -15Z" fill="#4A4946" transform="translate(618.762 37.000) scale(0.039000 -0.039000)"/>
  <path d="M62 -15Q67 36 73.5 107.5Q80 179 87.0 259.0Q94 339 100.0 418.0Q106 497 109.5 564.5Q113 632 113 676Q113 696 104 696Q94 696 75.0 676.5Q56 657 30 628L13 644Q31 667 57.0 696.5Q83 726 112.0 752.0Q141 778 166 790Q172 777 175.0 756.5Q178 736 178 711Q178 657 173.5 588.5Q169 520 162.0 444.0Q155 368 147 290H149Q174 333 212.5 370.5Q251 408 292.5 431.5Q334 455 366 455Q397 455 419.5 427.0Q442 399 442 322Q442 268 429.5 210.0Q417 152 392.5 101.5Q368 51 332.0 19.0Q296 -13 250 -15Q243 6 248.0 29.5Q253 53 271 64Q277 59 285.0 54.5Q293 50 301 50Q320 50 333.5 74.5Q347 99 355.5 137.0Q364 175 368.0 216.0Q372 257 372 291Q372 354 359.0 374.0Q346 394 325 394Q301 394 272.0 377.0Q243 360 216.0 331.0Q189 302 170 265Q143 213 136.0 151.0Q129 89 127 0Q94 -3 62 -15Z" fill="#4A4946" transform="translate(629.838 37.000) scale(0.039000 -0.039000)"/>
  <path d="M129 -15Q82 -15 61.0 21.0Q40 57 40 106Q40 149 55.5 197.0Q71 245 98.0 290.5Q125 336 159.5 373.5Q194 411 232.0 433.0Q270 455 307 455Q329 455 344.0 447.0Q359 439 372 428L431 455Q415 307 409.0 216.0Q403 125 403 98Q403 87 406.5 76.5Q410 66 419 66Q429 66 445.0 77.5Q461 89 480 108L497 92Q468 60 428.5 30.5Q389 1 356 -15Q337 10 337 60Q337 92 340.0 121.5Q343 151 350 203H348Q299 103 242.0 44.0Q185 -15 129 -15ZM159 50Q181 50 207.5 69.5Q234 89 260.0 121.5Q286 154 308.0 193.5Q330 233 343.0 274.0Q356 315 356 350Q356 366 352.0 383.5Q348 401 336.0 413.0Q324 425 300 425Q262 425 228.0 396.5Q194 368 167.5 323.0Q141 278 125.5 228.0Q110 178 110 134Q110 95 121.0 72.5Q132 50 159 50Z" fill="#4A4946" transform="translate(648.753 37.000) scale(0.039000 -0.039000)"/>
  <path d="M95 -15Q85 -2 81.0 17.5Q77 37 77 63Q77 98 81.0 155.0Q85 212 90.5 279.0Q96 346 100 410H17V440H102Q107 481 110.5 516.0Q114 551 115 575L184 590Q181 562 176.0 523.0Q171 484 166 440H286V410H192Q175 410 169.0 403.5Q163 397 161 378Q157 322 152.5 268.5Q148 215 145.0 171.5Q142 128 142 102Q142 88 146.0 77.0Q150 66 159 66Q181 66 235 125L251 109Q234 87 207.0 62.5Q180 38 150.5 17.5Q121 -3 95 -15Z" fill="#4A4946" transform="translate(668.721 37.000) scale(0.039000 -0.039000)"/>
  <path d="M129 -15Q82 -15 61.0 21.0Q40 57 40 106Q40 149 55.5 197.0Q71 245 98.0 290.5Q125 336 159.5 373.5Q194 411 232.0 433.0Q270 455 307 455Q329 455 344.0 447.0Q359 439 372 428L431 455Q415 307 409.0 216.0Q403 125 403 98Q403 87 406.5 76.5Q410 66 419 66Q429 66 445.0 77.5Q461 89 480 108L497 92Q468 60 428.5 30.5Q389 1 356 -15Q337 10 337 60Q337 92 340.0 121.5Q343 151 350 203H348Q299 103 242.0 44.0Q185 -15 129 -15ZM159 50Q181 50 207.5 69.5Q234 89 260.0 121.5Q286 154 308.0 193.5Q330 233 343.0 274.0Q356 315 356 350Q356 366 352.0 383.5Q348 401 336.0 413.0Q324 425 300 425Q262 425 228.0 396.5Q194 368 167.5 323.0Q141 278 125.5 228.0Q110 178 110 134Q110 95 121.0 72.5Q132 50 159 50Z" fill="#4A4946" transform="translate(688.767 37.000) scale(0.039000 -0.039000)"/>
  <path d="M118 -15Q83 11 83 64Q83 90 86.5 129.0Q90 168 95.0 210.0Q100 252 103.5 287.0Q107 322 107 341Q107 361 98 361Q84 361 49 323L33 339Q59 371 92.5 403.5Q126 436 160 455Q166 442 169.0 421.5Q172 401 172 376Q172 354 168.5 316.5Q165 279 160.0 237.5Q155 196 151.5 159.0Q148 122 148 99Q148 78 151.5 69.5Q155 61 162 61Q178 61 204.5 92.5Q231 124 265 176Q297 226 322.0 289.0Q347 352 347 440Q379 452 412 455Q410 434 406.0 396.5Q402 359 397.5 314.0Q393 269 389.5 225.5Q386 182 383.5 148.0Q381 114 381 99Q381 88 384.5 77.0Q388 66 398 66Q408 66 423.5 77.5Q439 89 458 108L475 92Q447 60 408.0 30.5Q369 1 336 -15Q316 11 316 64Q316 103 321.0 142.0Q326 181 334 233H332Q278 128 221.5 66.0Q165 4 118 -15Z" fill="#4A4946" transform="translate(708.735 37.000) scale(0.039000 -0.039000)"/>
  <path d="M95 -15Q85 -2 81.0 17.5Q77 37 77 63Q77 98 81.0 155.0Q85 212 90.5 279.0Q96 346 100 410H17V440H102Q107 481 110.5 516.0Q114 551 115 575L184 590Q181 562 176.0 523.0Q171 484 166 440H286V410H192Q175 410 169.0 403.5Q163 397 161 378Q157 322 152.5 268.5Q148 215 145.0 171.5Q142 128 142 102Q142 88 146.0 77.0Q150 66 159 66Q181 66 235 125L251 109Q234 87 207.0 62.5Q180 38 150.5 17.5Q121 -3 95 -15Z" fill="#4A4946" transform="translate(728.118 37.000) scale(0.039000 -0.039000)"/>
  <path d="M164 -15Q113 -15 76.5 22.5Q40 60 40 137Q40 197 63.0 254.0Q86 311 123.5 356.5Q161 402 207.0 428.5Q253 455 299 455Q352 455 388.0 417.0Q424 379 424 302Q424 241 400.5 184.0Q377 127 339.0 82.0Q301 37 255.0 11.0Q209 -15 164 -15ZM202 35Q243 35 278.0 66.5Q313 98 334.0 150.0Q355 202 354 263Q354 302 344.0 334.0Q334 366 314.0 385.5Q294 405 261 405Q220 405 185.5 373.0Q151 341 130.5 289.5Q110 238 110 177Q110 112 134.0 73.5Q158 35 202 35Z" fill="#4A4946" transform="translate(739.194 37.000) scale(0.039000 -0.039000)"/>
  <path d="M76 -15Q78 6 82.0 43.5Q86 81 90.0 126.0Q94 171 98.0 214.5Q102 258 104.5 292.0Q107 326 107 341Q107 361 98 361Q84 361 49 323L33 339Q59 371 92.5 403.5Q126 436 160 455Q166 442 169.0 421.5Q172 401 172 376Q172 337 167.0 298.0Q162 259 154 208H156Q209 317 269.5 380.5Q330 444 376 455Q390 444 397.0 423.0Q404 402 404 376Q404 337 399.0 298.0Q394 259 386 208H388Q441 317 502.0 380.5Q563 444 609 455Q623 444 630.0 423.0Q637 402 637 376Q637 354 633.5 316.5Q630 279 625.0 237.5Q620 196 616.5 159.0Q613 122 613 99Q613 88 616.5 77.0Q620 66 630 66Q640 66 655.5 77.5Q671 89 690 108L707 92Q679 60 640.0 30.5Q601 1 568 -15Q548 11 548 64Q548 90 551.5 129.0Q555 168 560.0 210.0Q565 252 568.5 287.0Q572 322 572 341Q572 362 569.0 370.5Q566 379 558 379Q542 379 514.5 348.0Q487 317 455 264Q425 215 399.0 152.0Q373 89 373 0Q340 -3 308 -15Q310 6 314.0 43.5Q318 81 322.5 126.0Q327 171 330.5 214.5Q334 258 336.5 292.0Q339 326 339 341Q339 362 336.0 370.5Q333 379 325 379Q309 379 281.5 348.0Q254 317 222 264Q192 215 166.5 152.0Q141 89 141 0Q108 -3 76 -15Z" fill="#4A4946" transform="translate(757.290 37.000) scale(0.039000 -0.039000)"/>
  <path d="M129 -15Q82 -15 61.0 21.0Q40 57 40 106Q40 149 55.5 197.0Q71 245 98.0 290.5Q125 336 159.5 373.5Q194 411 232.0 433.0Q270 455 307 455Q329 455 344.0 447.0Q359 439 372 428L431 455Q415 307 409.0 216.0Q403 125 403 98Q403 87 406.5 76.5Q410 66 419 66Q429 66 445.0 77.5Q461 89 480 108L497 92Q468 60 428.5 30.5Q389 1 356 -15Q337 10 337 60Q337 92 340.0 121.5Q343 151 350 203H348Q299 103 242.0 44.0Q185 -15 129 -15ZM159 50Q181 50 207.5 69.5Q234 89 260.0 121.5Q286 154 308.0 193.5Q330 233 343.0 274.0Q356 315 356 350Q356 366 352.0 383.5Q348 401 336.0 413.0Q324 425 300 425Q262 425 228.0 396.5Q194 368 167.5 323.0Q141 278 125.5 228.0Q110 178 110 134Q110 95 121.0 72.5Q132 50 159 50Z" fill="#4A4946" transform="translate(785.721 37.000) scale(0.039000 -0.039000)"/>
  <path d="M95 -15Q85 -2 81.0 17.5Q77 37 77 63Q77 98 81.0 155.0Q85 212 90.5 279.0Q96 346 100 410H17V440H102Q107 481 110.5 516.0Q114 551 115 575L184 590Q181 562 176.0 523.0Q171 484 166 440H286V410H192Q175 410 169.0 403.5Q163 397 161 378Q157 322 152.5 268.5Q148 215 145.0 171.5Q142 128 142 102Q142 88 146.0 77.0Q150 66 159 66Q181 66 235 125L251 109Q234 87 207.0 62.5Q180 38 150.5 17.5Q121 -3 95 -15Z" fill="#4A4946" transform="translate(805.689 37.000) scale(0.039000 -0.039000)"/>
  <path d="M121 -15Q101 11 101 64Q101 90 104.5 129.0Q108 168 113.0 210.0Q118 252 121.5 287.0Q125 322 125 341Q125 361 116 361Q106 361 79.0 340.0Q52 319 26 291L10 307Q28 329 58.0 359.0Q88 389 121.0 416.0Q154 443 178 455Q184 442 187.0 421.5Q190 401 190 376Q190 354 186.5 316.5Q183 279 178.0 237.5Q173 196 169.5 159.0Q166 122 166 99Q166 88 169.5 77.0Q173 66 183 66Q205 66 259 125L275 109Q258 87 231.0 62.5Q204 38 175.0 17.5Q146 -3 121 -15ZM163 560Q147 560 139.0 569.5Q131 579 131 593Q131 616 150.5 635.0Q170 654 193 654Q210 654 217.5 644.5Q225 635 225 621Q225 596 205.5 578.0Q186 560 163 560Z" fill="#4A4946" transform="translate(816.765 37.000) scale(0.039000 -0.039000)"/>
  <path d="M150 -15Q121 -15 95.5 -0.5Q70 14 54.5 46.0Q39 78 39 130Q39 193 61.5 251.0Q84 309 121.0 355.0Q158 401 202.5 428.0Q247 455 290 455Q321 455 343.0 441.5Q365 428 382 405L315 289L294 297Q316 343 316.5 370.0Q317 397 304.0 408.5Q291 420 270 420Q238 420 209.0 397.0Q180 374 157.5 336.0Q135 298 122.0 252.0Q109 206 109 161Q109 108 128.0 79.0Q147 50 183 50Q215 50 256.5 75.5Q298 101 340 160L361 152Q313 68 257.0 26.5Q201 -15 150 -15Z" fill="#4A4946" transform="translate(827.997 37.000) scale(0.039000 -0.039000)"/>
  <path d="M129 -15Q82 -15 61.0 21.0Q40 57 40 106Q40 149 55.5 197.0Q71 245 98.0 290.5Q125 336 159.5 373.5Q194 411 232.0 433.0Q270 455 307 455Q329 455 344.0 447.0Q359 439 372 428L431 455Q415 307 409.0 216.0Q403 125 403 98Q403 87 406.5 76.5Q410 66 419 66Q429 66 445.0 77.5Q461 89 480 108L497 92Q468 60 428.5 30.5Q389 1 356 -15Q337 10 337 60Q337 92 340.0 121.5Q343 151 350 203H348Q299 103 242.0 44.0Q185 -15 129 -15ZM159 50Q181 50 207.5 69.5Q234 89 260.0 121.5Q286 154 308.0 193.5Q330 233 343.0 274.0Q356 315 356 350Q356 366 352.0 383.5Q348 401 336.0 413.0Q324 425 300 425Q262 425 228.0 396.5Q194 368 167.5 323.0Q141 278 125.5 228.0Q110 178 110 134Q110 95 121.0 72.5Q132 50 159 50Z" fill="#4A4946" transform="translate(843.207 37.000) scale(0.039000 -0.039000)"/>
  <path d="M97 -15Q77 11 77 64Q77 115 81.0 178.5Q85 242 91.5 310.5Q98 379 104.0 446.0Q110 513 114.0 572.5Q118 632 118 676Q118 696 109 696Q99 696 80.0 676.5Q61 657 35 628L18 644Q36 667 62.0 696.5Q88 726 117.0 752.0Q146 778 171 790Q177 777 180.0 756.5Q183 736 183 711Q183 664 179.0 603.0Q175 542 169.0 474.0Q163 406 156.5 338.0Q150 270 146.0 208.5Q142 147 142 99Q142 88 145.5 77.0Q149 66 159 66Q181 66 235 125L251 109Q234 87 207.0 62.5Q180 38 151.0 17.5Q122 -3 97 -15Z" fill="#4A4946" transform="translate(863.175 37.000) scale(0.039000 -0.039000)"/>
  <path d="M97 -15Q77 11 77 64Q77 115 81.0 178.5Q85 242 91.5 310.5Q98 379 104.0 446.0Q110 513 114.0 572.5Q118 632 118 676Q118 696 109 696Q99 696 80.0 676.5Q61 657 35 628L18 644Q36 667 62.0 696.5Q88 726 117.0 752.0Q146 778 171 790Q177 777 180.0 756.5Q183 736 183 711Q183 664 179.0 603.0Q175 542 169.0 474.0Q163 406 156.5 338.0Q150 270 146.0 208.5Q142 147 142 99Q142 88 145.5 77.0Q149 66 159 66Q181 66 235 125L251 109Q234 87 207.0 62.5Q180 38 151.0 17.5Q122 -3 97 -15Z" fill="#4A4946" transform="translate(873.471 37.000) scale(0.039000 -0.039000)"/>
  <path d="M30 -235Q10 -235 4.0 -207.0Q-2 -179 1.5 -137.5Q5 -96 14 -58H37Q34 -103 37.5 -131.5Q41 -160 60 -160Q74 -160 93.5 -145.0Q113 -130 132.0 -104.0Q151 -78 164.0 -45.5Q177 -13 177 22Q177 51 170.0 94.0Q163 137 153 176Q141 225 127.0 264.5Q113 304 100.0 327.5Q87 351 76 351Q67 351 53.5 335.5Q40 320 28 297L9 308Q28 346 52.5 386.0Q77 426 105 455Q126 436 147.5 392.0Q169 348 187.0 291.5Q205 235 218.0 177.5Q231 120 235 75H237Q281 165 300.0 258.0Q319 351 297 439Q314 447 335.5 451.0Q357 455 375 455Q381 412 371.0 354.5Q361 297 338.5 231.5Q316 166 285.5 100.0Q255 34 220.5 -26.0Q186 -86 151.0 -133.0Q116 -180 84.5 -207.5Q53 -235 30 -235Z" fill="#4A4946" transform="translate(883.767 37.000) scale(0.039000 -0.039000)"/>
  <path d="M76 -15Q78 6 82.0 43.5Q86 81 90.0 126.0Q94 171 98.0 214.5Q102 258 104.5 292.0Q107 326 107 341Q107 361 98 361Q84 361 49 323L33 339Q59 371 92.5 403.5Q126 436 160 455Q166 442 169.0 421.5Q172 401 172 376Q172 346 169.0 317.0Q166 288 160 250H162Q204 331 245.0 385.0Q286 439 329 455Q347 440 350.5 412.0Q354 384 349.5 349.0Q345 314 337 278H314Q318 313 315.0 336.5Q312 360 293 360Q281 360 262.0 346.0Q243 332 212 279Q182 229 161.5 159.0Q141 89 141 0Q108 -3 76 -15Z" fill="#4A4946" transform="translate(24.020 76.000) scale(0.035000 -0.035000)"/>
  <path d="M164 -15Q113 -15 76.5 22.5Q40 60 40 137Q40 197 63.0 254.0Q86 311 123.5 356.5Q161 402 207.0 428.5Q253 455 299 455Q352 455 388.0 417.0Q424 379 424 302Q424 241 400.5 184.0Q377 127 339.0 82.0Q301 37 255.0 11.0Q209 -15 164 -15ZM202 35Q243 35 278.0 66.5Q313 98 334.0 150.0Q355 202 354 263Q354 302 344.0 334.0Q334 366 314.0 385.5Q294 405 261 405Q220 405 185.5 373.0Q151 341 130.5 289.5Q110 238 110 177Q110 112 134.0 73.5Q158 35 202 35Z" fill="#4A4946" transform="translate(36.515 76.000) scale(0.035000 -0.035000)"/>
  <path d="M118 -15Q83 11 83 64Q83 90 86.5 129.0Q90 168 95.0 210.0Q100 252 103.5 287.0Q107 322 107 341Q107 361 98 361Q84 361 49 323L33 339Q59 371 92.5 403.5Q126 436 160 455Q166 442 169.0 421.5Q172 401 172 376Q172 354 168.5 316.5Q165 279 160.0 237.5Q155 196 151.5 159.0Q148 122 148 99Q148 78 151.5 69.5Q155 61 162 61Q178 61 204.5 92.5Q231 124 265 176Q297 226 322.0 289.0Q347 352 347 440Q379 452 412 455Q410 434 406.0 396.5Q402 359 397.5 314.0Q393 269 389.5 225.5Q386 182 383.5 148.0Q381 114 381 99Q381 88 384.5 77.0Q388 66 398 66Q408 66 423.5 77.5Q439 89 458 108L475 92Q447 60 408.0 30.5Q369 1 336 -15Q316 11 316 64Q316 103 321.0 142.0Q326 181 334 233H332Q278 128 221.5 66.0Q165 4 118 -15Z" fill="#4A4946" transform="translate(52.755 76.000) scale(0.035000 -0.035000)"/>
  <path d="M95 -15Q85 -2 81.0 17.5Q77 37 77 63Q77 98 81.0 155.0Q85 212 90.5 279.0Q96 346 100 410H17V440H102Q107 481 110.5 516.0Q114 551 115 575L184 590Q181 562 176.0 523.0Q171 484 166 440H286V410H192Q175 410 169.0 403.5Q163 397 161 378Q157 322 152.5 268.5Q148 215 145.0 171.5Q142 128 142 102Q142 88 146.0 77.0Q150 66 159 66Q181 66 235 125L251 109Q234 87 207.0 62.5Q180 38 150.5 17.5Q121 -3 95 -15Z" fill="#4A4946" transform="translate(70.150 76.000) scale(0.035000 -0.035000)"/>
  <path d="M160 -15Q133 -15 105.0 -1.0Q77 13 58.5 46.0Q40 79 40 134Q40 194 63.0 251.0Q86 308 124.0 354.5Q162 401 208.5 428.0Q255 455 301 455Q346 455 360.5 436.5Q375 418 375 393Q375 347 341.0 306.5Q307 266 247.0 225.0Q187 184 109 136Q116 93 138.5 71.5Q161 50 190 50Q230 50 267.5 74.0Q305 98 335 142L356 134Q334 95 301.5 61.0Q269 27 232.5 6.0Q196 -15 160 -15ZM107 166Q107 164 107 165Q300 285 300 378Q300 398 290.5 406.5Q281 415 266 415Q239 415 211.0 393.0Q183 371 159.5 334.5Q136 298 121.5 254.0Q107 210 107 166Z" fill="#4A4946" transform="translate(80.090 76.000) scale(0.035000 -0.035000)"/>
  <path d="M146 -15Q120 -15 91.5 -6.0Q63 3 44.0 21.0Q25 39 25 66Q25 92 44.0 111.5Q63 131 89 153L105 137Q90 123 84.5 113.0Q79 103 79 93Q79 69 102.5 52.0Q126 35 166 35Q213 35 244.0 59.0Q275 83 275 123Q275 149 255.0 167.0Q235 185 179 213Q151 227 125.5 242.0Q100 257 84.0 275.5Q68 294 68 317Q68 345 90.5 377.0Q113 409 150.0 432.0Q187 455 232 455Q267 455 298.0 441.0Q329 427 351 395L304 314L284 324Q301 357 292.5 378.5Q284 400 262.0 411.0Q240 422 215 422Q177 422 152.5 398.5Q128 375 128 340Q128 329 133.0 320.5Q138 312 156.5 300.5Q175 289 213 269Q259 246 283.0 231.0Q307 216 316.0 201.0Q325 186 325 163Q325 116 299.5 75.5Q274 35 233.0 10.0Q192 -15 146 -15Z" fill="#4A4946" transform="translate(93.985 76.000) scale(0.035000 -0.035000)"/>
  <path d="M97 -15Q77 11 77 64Q77 115 81.0 178.5Q85 242 91.5 310.5Q98 379 104.0 446.0Q110 513 114.0 572.5Q118 632 118 676Q118 696 109 696Q99 696 80.0 676.5Q61 657 35 628L18 644Q36 667 62.0 696.5Q88 726 117.0 752.0Q146 778 171 790Q177 777 180.0 756.5Q183 736 183 711Q183 664 179.0 603.0Q175 542 169.0 474.0Q163 406 156.5 338.0Q150 270 146.0 208.5Q142 147 142 99Q142 88 145.5 77.0Q149 66 159 66Q181 66 235 125L251 109Q234 87 207.0 62.5Q180 38 151.0 17.5Q122 -3 97 -15Z" fill="#4A4946" transform="translate(115.195 76.000) scale(0.035000 -0.035000)"/>
  <path d="M164 -15Q113 -15 76.5 22.5Q40 60 40 137Q40 197 63.0 254.0Q86 311 123.5 356.5Q161 402 207.0 428.5Q253 455 299 455Q352 455 388.0 417.0Q424 379 424 302Q424 241 400.5 184.0Q377 127 339.0 82.0Q301 37 255.0 11.0Q209 -15 164 -15ZM202 35Q243 35 278.0 66.5Q313 98 334.0 150.0Q355 202 354 263Q354 302 344.0 334.0Q334 366 314.0 385.5Q294 405 261 405Q220 405 185.5 373.0Q151 341 130.5 289.5Q110 238 110 177Q110 112 134.0 73.5Q158 35 202 35Z" fill="#4A4946" transform="translate(124.435 76.000) scale(0.035000 -0.035000)"/>
  <path d="M150 -15Q121 -15 95.5 -0.5Q70 14 54.5 46.0Q39 78 39 130Q39 193 61.5 251.0Q84 309 121.0 355.0Q158 401 202.5 428.0Q247 455 290 455Q321 455 343.0 441.5Q365 428 382 405L315 289L294 297Q316 343 316.5 370.0Q317 397 304.0 408.5Q291 420 270 420Q238 420 209.0 397.0Q180 374 157.5 336.0Q135 298 122.0 252.0Q109 206 109 161Q109 108 128.0 79.0Q147 50 183 50Q215 50 256.5 75.5Q298 101 340 160L361 152Q313 68 257.0 26.5Q201 -15 150 -15Z" fill="#4A4946" transform="translate(140.675 76.000) scale(0.035000 -0.035000)"/>
  <path d="M129 -15Q82 -15 61.0 21.0Q40 57 40 106Q40 149 55.5 197.0Q71 245 98.0 290.5Q125 336 159.5 373.5Q194 411 232.0 433.0Q270 455 307 455Q329 455 344.0 447.0Q359 439 372 428L431 455Q415 307 409.0 216.0Q403 125 403 98Q403 87 406.5 76.5Q410 66 419 66Q429 66 445.0 77.5Q461 89 480 108L497 92Q468 60 428.5 30.5Q389 1 356 -15Q337 10 337 60Q337 92 340.0 121.5Q343 151 350 203H348Q299 103 242.0 44.0Q185 -15 129 -15ZM159 50Q181 50 207.5 69.5Q234 89 260.0 121.5Q286 154 308.0 193.5Q330 233 343.0 274.0Q356 315 356 350Q356 366 352.0 383.5Q348 401 336.0 413.0Q324 425 300 425Q262 425 228.0 396.5Q194 368 167.5 323.0Q141 278 125.5 228.0Q110 178 110 134Q110 95 121.0 72.5Q132 50 159 50Z" fill="#4A4946" transform="translate(154.325 76.000) scale(0.035000 -0.035000)"/>
  <path d="M97 -15Q77 11 77 64Q77 115 81.0 178.5Q85 242 91.5 310.5Q98 379 104.0 446.0Q110 513 114.0 572.5Q118 632 118 676Q118 696 109 696Q99 696 80.0 676.5Q61 657 35 628L18 644Q36 667 62.0 696.5Q88 726 117.0 752.0Q146 778 171 790Q177 777 180.0 756.5Q183 736 183 711Q183 664 179.0 603.0Q175 542 169.0 474.0Q163 406 156.5 338.0Q150 270 146.0 208.5Q142 147 142 99Q142 88 145.5 77.0Q149 66 159 66Q181 66 235 125L251 109Q234 87 207.0 62.5Q180 38 151.0 17.5Q122 -3 97 -15Z" fill="#4A4946" transform="translate(172.245 76.000) scale(0.035000 -0.035000)"/>
  <path d="M209 -15Q167 -15 126.5 -1.5Q86 12 59.5 37.0Q33 62 33 98Q33 114 42 130L89 210L109 201Q91 162 91 134Q91 104 113.0 81.5Q135 59 169.0 47.0Q203 35 239 35Q319 35 357.5 75.0Q396 115 396 181Q396 212 379.0 235.5Q362 259 328.5 283.0Q295 307 245 338Q179 380 142.5 408.5Q106 437 91.5 460.5Q77 484 77 510Q77 550 105.5 589.0Q134 628 185.5 654.0Q237 680 306 680Q346 680 387.0 672.0Q428 664 451 653L442 510H419Q419 570 389.0 607.5Q359 645 292 645Q247 645 211.5 629.0Q176 613 155.0 589.0Q134 565 134 539Q134 504 177.5 474.0Q221 444 288 402Q349 364 385.5 336.5Q422 309 438.5 281.5Q455 254 455 215Q455 150 424.5 97.5Q394 45 339.0 15.0Q284 -15 209 -15Z" fill="#4A4946" transform="translate(189.535 76.000) scale(0.035000 -0.035000)"/>
  <path d="M463 23 469 0Q450 -7 433.5 -11.0Q417 -15 397 -15Q362 -15 330.5 9.0Q299 33 258 73Q207 124 182.0 147.5Q157 171 139 171Q134 130 130.5 85.0Q127 40 127 0Q94 -3 62 -15Q67 36 73.5 107.5Q80 179 87.0 259.0Q94 339 100.0 418.0Q106 497 109.5 564.5Q113 632 113 676Q113 696 104 696Q94 696 75.0 676.5Q56 657 30 628L13 644Q31 667 57.0 696.5Q83 726 112.0 752.0Q141 778 166 790Q172 777 175.0 756.5Q178 736 178 711Q178 657 173.5 588.5Q169 520 162.0 444.0Q155 368 147 290H149Q174 330 205.0 368.0Q236 406 273.0 430.5Q310 455 351 455Q387 455 402.0 436.5Q417 418 417 389Q417 350 393.5 311.5Q370 273 327.5 241.0Q285 209 228 190V188L309 106Q351 64 375.0 45.0Q399 26 418.0 23.0Q437 20 463 23ZM317 405Q295 405 267.5 384.5Q240 364 213.5 331.5Q187 299 167.5 262.5Q148 226 141 194Q211 202 256.5 229.5Q302 257 324.5 293.5Q347 330 347 364Q347 382 340.5 393.5Q334 405 317 405Z" fill="#4A4946" transform="translate(207.490 76.000) scale(0.035000 -0.035000)"/>
  <path d="M121 -15Q101 11 101 64Q101 90 104.5 129.0Q108 168 113.0 210.0Q118 252 121.5 287.0Q125 322 125 341Q125 361 116 361Q106 361 79.0 340.0Q52 319 26 291L10 307Q28 329 58.0 359.0Q88 389 121.0 416.0Q154 443 178 455Q184 442 187.0 421.5Q190 401 190 376Q190 354 186.5 316.5Q183 279 178.0 237.5Q173 196 169.5 159.0Q166 122 166 99Q166 88 169.5 77.0Q173 66 183 66Q205 66 259 125L275 109Q258 87 231.0 62.5Q204 38 175.0 17.5Q146 -3 121 -15ZM163 560Q147 560 139.0 569.5Q131 579 131 593Q131 616 150.5 635.0Q170 654 193 654Q210 654 217.5 644.5Q225 635 225 621Q225 596 205.5 578.0Q186 560 163 560Z" fill="#4A4946" transform="translate(223.450 76.000) scale(0.035000 -0.035000)"/>
  <path d="M97 -15Q77 11 77 64Q77 115 81.0 178.5Q85 242 91.5 310.5Q98 379 104.0 446.0Q110 513 114.0 572.5Q118 632 118 676Q118 696 109 696Q99 696 80.0 676.5Q61 657 35 628L18 644Q36 667 62.0 696.5Q88 726 117.0 752.0Q146 778 171 790Q177 777 180.0 756.5Q183 736 183 711Q183 664 179.0 603.0Q175 542 169.0 474.0Q163 406 156.5 338.0Q150 270 146.0 208.5Q142 147 142 99Q142 88 145.5 77.0Q149 66 159 66Q181 66 235 125L251 109Q234 87 207.0 62.5Q180 38 151.0 17.5Q122 -3 97 -15Z" fill="#4A4946" transform="translate(233.530 76.000) scale(0.035000 -0.035000)"/>
  <path d="M97 -15Q77 11 77 64Q77 115 81.0 178.5Q85 242 91.5 310.5Q98 379 104.0 446.0Q110 513 114.0 572.5Q118 632 118 676Q118 696 109 696Q99 696 80.0 676.5Q61 657 35 628L18 644Q36 667 62.0 696.5Q88 726 117.0 752.0Q146 778 171 790Q177 777 180.0 756.5Q183 736 183 711Q183 664 179.0 603.0Q175 542 169.0 474.0Q163 406 156.5 338.0Q150 270 146.0 208.5Q142 147 142 99Q142 88 145.5 77.0Q149 66 159 66Q181 66 235 125L251 109Q234 87 207.0 62.5Q180 38 151.0 17.5Q122 -3 97 -15Z" fill="#4A4946" transform="translate(242.770 76.000) scale(0.035000 -0.035000)"/>
  <path d="M146 -15Q120 -15 91.5 -6.0Q63 3 44.0 21.0Q25 39 25 66Q25 92 44.0 111.5Q63 131 89 153L105 137Q90 123 84.5 113.0Q79 103 79 93Q79 69 102.5 52.0Q126 35 166 35Q213 35 244.0 59.0Q275 83 275 123Q275 149 255.0 167.0Q235 185 179 213Q151 227 125.5 242.0Q100 257 84.0 275.5Q68 294 68 317Q68 345 90.5 377.0Q113 409 150.0 432.0Q187 455 232 455Q267 455 298.0 441.0Q329 427 351 395L304 314L284 324Q301 357 292.5 378.5Q284 400 262.0 411.0Q240 422 215 422Q177 422 152.5 398.5Q128 375 128 340Q128 329 133.0 320.5Q138 312 156.5 300.5Q175 289 213 269Q259 246 283.0 231.0Q307 216 316.0 201.0Q325 186 325 163Q325 116 299.5 75.5Q274 35 233.0 10.0Q192 -15 146 -15Z" fill="#4A4946" transform="translate(252.010 76.000) scale(0.035000 -0.035000)"/>
  <path d="M129 -15Q82 -15 61.0 21.0Q40 57 40 106Q40 149 55.5 197.0Q71 245 98.0 290.5Q125 336 159.5 373.5Q194 411 232.0 433.0Q270 455 307 455Q329 455 344.0 447.0Q359 439 372 428L431 455Q415 307 409.0 216.0Q403 125 403 98Q403 87 406.5 76.5Q410 66 419 66Q429 66 445.0 77.5Q461 89 480 108L497 92Q468 60 428.5 30.5Q389 1 356 -15Q337 10 337 60Q337 92 340.0 121.5Q343 151 350 203H348Q299 103 242.0 44.0Q185 -15 129 -15ZM159 50Q181 50 207.5 69.5Q234 89 260.0 121.5Q286 154 308.0 193.5Q330 233 343.0 274.0Q356 315 356 350Q356 366 352.0 383.5Q348 401 336.0 413.0Q324 425 300 425Q262 425 228.0 396.5Q194 368 167.5 323.0Q141 278 125.5 228.0Q110 178 110 134Q110 95 121.0 72.5Q132 50 159 50Z" fill="#4A4946" transform="translate(273.220 76.000) scale(0.035000 -0.035000)"/>
  <path d="M76 -15Q78 6 82.0 43.5Q86 81 90.0 126.0Q94 171 98.0 214.5Q102 258 104.5 292.0Q107 326 107 341Q107 361 98 361Q84 361 49 323L33 339Q59 371 92.5 403.5Q126 436 160 455Q166 442 169.0 421.5Q172 401 172 376Q172 337 167.0 298.0Q162 259 154 208H156Q195 278 237.0 331.0Q279 384 318.5 416.0Q358 448 389 455Q403 444 410.0 423.0Q417 402 417 376Q417 354 413.5 316.5Q410 279 405.0 237.5Q400 196 396.5 159.0Q393 122 393 99Q393 88 396.5 77.0Q400 66 410 66Q420 66 435.5 77.5Q451 89 470 108L487 92Q459 60 420.0 30.5Q381 1 348 -15Q328 11 328 64Q328 90 331.5 129.0Q335 168 340.0 210.0Q345 252 348.5 287.0Q352 322 352 341Q352 362 349.0 370.5Q346 379 338 379Q322 379 291.5 347.5Q261 316 226 264Q193 215 167.0 152.0Q141 89 141 0Q108 -3 76 -15Z" fill="#4A4946" transform="translate(291.140 76.000) scale(0.035000 -0.035000)"/>
  <path d="M139 -15Q93 -15 66.0 20.5Q39 56 39 118Q39 173 60.0 232.0Q81 291 116.5 341.5Q152 392 196.0 423.5Q240 455 286 455Q315 455 334.0 443.5Q353 432 364 420Q372 491 377.0 560.0Q382 629 382 676Q382 696 373 696Q363 696 344.0 676.5Q325 657 299 628L282 644Q300 667 326.0 696.5Q352 726 381.0 752.0Q410 778 435 790Q441 777 444.0 756.5Q447 736 447 711Q447 664 442.0 603.0Q437 542 430.0 474.0Q423 406 416.0 338.0Q409 270 404.0 208.5Q399 147 399 99Q399 88 402.5 77.0Q406 66 416 66Q426 66 441.5 77.5Q457 89 476 108L493 92Q465 60 426.0 30.5Q387 1 354 -15Q334 11 334 64Q334 84 335.5 106.0Q337 128 339 150H337Q299 79 246.0 32.0Q193 -15 139 -15ZM169 45Q198 45 230.0 68.0Q262 91 289.5 130.0Q317 169 334.5 217.0Q352 265 352 315Q352 343 345.0 368.0Q338 393 322.5 409.0Q307 425 279 425Q243 425 212.5 399.0Q182 373 158.5 331.0Q135 289 122.0 240.0Q109 191 109 145Q109 102 122.5 73.5Q136 45 169 45Z" fill="#4A4946" transform="translate(308.955 76.000) scale(0.035000 -0.035000)"/>
  <path d="M121 -15Q101 11 101 64Q101 90 104.5 129.0Q108 168 113.0 210.0Q118 252 121.5 287.0Q125 322 125 341Q125 361 116 361Q106 361 79.0 340.0Q52 319 26 291L10 307Q28 329 58.0 359.0Q88 389 121.0 416.0Q154 443 178 455Q184 442 187.0 421.5Q190 401 190 376Q190 354 186.5 316.5Q183 279 178.0 237.5Q173 196 169.5 159.0Q166 122 166 99Q166 88 169.5 77.0Q173 66 183 66Q205 66 259 125L275 109Q258 87 231.0 62.5Q204 38 175.0 17.5Q146 -3 121 -15ZM163 560Q147 560 139.0 569.5Q131 579 131 593Q131 616 150.5 635.0Q170 654 193 654Q210 654 217.5 644.5Q225 635 225 621Q225 596 205.5 578.0Q186 560 163 560Z" fill="#4A4946" transform="translate(334.750 76.000) scale(0.035000 -0.035000)"/>
  <path d="M76 -15Q78 6 82.0 43.5Q86 81 90.0 126.0Q94 171 98.0 214.5Q102 258 104.5 292.0Q107 326 107 341Q107 361 98 361Q84 361 49 323L33 339Q59 371 92.5 403.5Q126 436 160 455Q166 442 169.0 421.5Q172 401 172 376Q172 337 167.0 298.0Q162 259 154 208H156Q195 278 237.0 331.0Q279 384 318.5 416.0Q358 448 389 455Q403 444 410.0 423.0Q417 402 417 376Q417 354 413.5 316.5Q410 279 405.0 237.5Q400 196 396.5 159.0Q393 122 393 99Q393 88 396.5 77.0Q400 66 410 66Q420 66 435.5 77.5Q451 89 470 108L487 92Q459 60 420.0 30.5Q381 1 348 -15Q328 11 328 64Q328 90 331.5 129.0Q335 168 340.0 210.0Q345 252 348.5 287.0Q352 322 352 341Q352 362 349.0 370.5Q346 379 338 379Q322 379 291.5 347.5Q261 316 226 264Q193 215 167.0 152.0Q141 89 141 0Q108 -3 76 -15Z" fill="#4A4946" transform="translate(344.830 76.000) scale(0.035000 -0.035000)"/>
  <path d="M95 -15Q85 -2 81.0 17.5Q77 37 77 63Q77 98 81.0 155.0Q85 212 90.5 279.0Q96 346 100 410H17V440H102Q107 481 110.5 516.0Q114 551 115 575L184 590Q181 562 176.0 523.0Q171 484 166 440H286V410H192Q175 410 169.0 403.5Q163 397 161 378Q157 322 152.5 268.5Q148 215 145.0 171.5Q142 128 142 102Q142 88 146.0 77.0Q150 66 159 66Q181 66 235 125L251 109Q234 87 207.0 62.5Q180 38 150.5 17.5Q121 -3 95 -15Z" fill="#4A4946" transform="translate(362.645 76.000) scale(0.035000 -0.035000)"/>
  <path d="M160 -15Q133 -15 105.0 -1.0Q77 13 58.5 46.0Q40 79 40 134Q40 194 63.0 251.0Q86 308 124.0 354.5Q162 401 208.5 428.0Q255 455 301 455Q346 455 360.5 436.5Q375 418 375 393Q375 347 341.0 306.5Q307 266 247.0 225.0Q187 184 109 136Q116 93 138.5 71.5Q161 50 190 50Q230 50 267.5 74.0Q305 98 335 142L356 134Q334 95 301.5 61.0Q269 27 232.5 6.0Q196 -15 160 -15ZM107 166Q107 164 107 165Q300 285 300 378Q300 398 290.5 406.5Q281 415 266 415Q239 415 211.0 393.0Q183 371 159.5 334.5Q136 298 121.5 254.0Q107 210 107 166Z" fill="#4A4946" transform="translate(372.585 76.000) scale(0.035000 -0.035000)"/>
  <path d="M97 -15Q77 11 77 64Q77 115 81.0 178.5Q85 242 91.5 310.5Q98 379 104.0 446.0Q110 513 114.0 572.5Q118 632 118 676Q118 696 109 696Q99 696 80.0 676.5Q61 657 35 628L18 644Q36 667 62.0 696.5Q88 726 117.0 752.0Q146 778 171 790Q177 777 180.0 756.5Q183 736 183 711Q183 664 179.0 603.0Q175 542 169.0 474.0Q163 406 156.5 338.0Q150 270 146.0 208.5Q142 147 142 99Q142 88 145.5 77.0Q149 66 159 66Q181 66 235 125L251 109Q234 87 207.0 62.5Q180 38 151.0 17.5Q122 -3 97 -15Z" fill="#4A4946" transform="translate(386.480 76.000) scale(0.035000 -0.035000)"/>
  <path d="M97 -15Q77 11 77 64Q77 115 81.0 178.5Q85 242 91.5 310.5Q98 379 104.0 446.0Q110 513 114.0 572.5Q118 632 118 676Q118 696 109 696Q99 696 80.0 676.5Q61 657 35 628L18 644Q36 667 62.0 696.5Q88 726 117.0 752.0Q146 778 171 790Q177 777 180.0 756.5Q183 736 183 711Q183 664 179.0 603.0Q175 542 169.0 474.0Q163 406 156.5 338.0Q150 270 146.0 208.5Q142 147 142 99Q142 88 145.5 77.0Q149 66 159 66Q181 66 235 125L251 109Q234 87 207.0 62.5Q180 38 151.0 17.5Q122 -3 97 -15Z" fill="#4A4946" transform="translate(395.720 76.000) scale(0.035000 -0.035000)"/>
  <path d="M121 -15Q101 11 101 64Q101 90 104.5 129.0Q108 168 113.0 210.0Q118 252 121.5 287.0Q125 322 125 341Q125 361 116 361Q106 361 79.0 340.0Q52 319 26 291L10 307Q28 329 58.0 359.0Q88 389 121.0 416.0Q154 443 178 455Q184 442 187.0 421.5Q190 401 190 376Q190 354 186.5 316.5Q183 279 178.0 237.5Q173 196 169.5 159.0Q166 122 166 99Q166 88 169.5 77.0Q173 66 183 66Q205 66 259 125L275 109Q258 87 231.0 62.5Q204 38 175.0 17.5Q146 -3 121 -15ZM163 560Q147 560 139.0 569.5Q131 579 131 593Q131 616 150.5 635.0Q170 654 193 654Q210 654 217.5 644.5Q225 635 225 621Q225 596 205.5 578.0Q186 560 163 560Z" fill="#4A4946" transform="translate(404.960 76.000) scale(0.035000 -0.035000)"/>
  <path d="M165 -235Q122 -235 83.5 -223.5Q45 -212 21.0 -191.5Q-3 -171 -3 -143Q-3 -113 24.0 -89.5Q51 -66 82 -50L102 -60Q83 -79 75.0 -96.0Q67 -113 67 -124Q67 -143 85.0 -158.0Q103 -173 133.0 -182.0Q163 -191 197 -191Q230 -191 261.0 -183.5Q292 -176 312.0 -161.5Q332 -147 332 -128Q332 -115 312 -105L103 -6Q89 1 95 18L124 97Q95 105 72.5 128.5Q50 152 50 199Q50 242 70.0 287.0Q90 332 123.5 370.0Q157 408 198.5 431.5Q240 455 284 455Q308 455 332.5 446.0Q357 437 372 415Q406 425 418 515H438Q459 485 459 454Q459 424 438.0 410.0Q417 396 384 394Q391 374 391 349Q391 308 373.5 265.5Q356 223 325.5 185.5Q295 148 257.0 123.5Q219 99 177 94Q157 92 150.5 82.0Q144 72 144 63Q144 53 151.0 47.5Q158 42 171 36L367 -56Q378 -61 387.5 -70.0Q397 -79 397 -94Q397 -112 380.5 -136.0Q364 -160 333.0 -182.5Q302 -205 259.5 -220.0Q217 -235 165 -235ZM183 131Q215 131 241.0 149.5Q267 168 285.5 198.0Q304 228 313.5 262.0Q323 296 323 326Q323 364 307.5 390.0Q292 416 257 416Q226 416 200.5 398.0Q175 380 156.5 351.0Q138 322 128.0 288.0Q118 254 118 222Q118 183 133.5 157.0Q149 131 183 131Z" fill="#4A4946" transform="translate(415.040 76.000) scale(0.035000 -0.035000)"/>
  <path d="M160 -15Q133 -15 105.0 -1.0Q77 13 58.5 46.0Q40 79 40 134Q40 194 63.0 251.0Q86 308 124.0 354.5Q162 401 208.5 428.0Q255 455 301 455Q346 455 360.5 436.5Q375 418 375 393Q375 347 341.0 306.5Q307 266 247.0 225.0Q187 184 109 136Q116 93 138.5 71.5Q161 50 190 50Q230 50 267.5 74.0Q305 98 335 142L356 134Q334 95 301.5 61.0Q269 27 232.5 6.0Q196 -15 160 -15ZM107 166Q107 164 107 165Q300 285 300 378Q300 398 290.5 406.5Q281 415 266 415Q239 415 211.0 393.0Q183 371 159.5 334.5Q136 298 121.5 254.0Q107 210 107 166Z" fill="#4A4946" transform="translate(430.300 76.000) scale(0.035000 -0.035000)"/>
  <path d="M76 -15Q78 6 82.0 43.5Q86 81 90.0 126.0Q94 171 98.0 214.5Q102 258 104.5 292.0Q107 326 107 341Q107 361 98 361Q84 361 49 323L33 339Q59 371 92.5 403.5Q126 436 160 455Q166 442 169.0 421.5Q172 401 172 376Q172 337 167.0 298.0Q162 259 154 208H156Q195 278 237.0 331.0Q279 384 318.5 416.0Q358 448 389 455Q403 444 410.0 423.0Q417 402 417 376Q417 354 413.5 316.5Q410 279 405.0 237.5Q400 196 396.5 159.0Q393 122 393 99Q393 88 396.5 77.0Q400 66 410 66Q420 66 435.5 77.5Q451 89 470 108L487 92Q459 60 420.0 30.5Q381 1 348 -15Q328 11 328 64Q328 90 331.5 129.0Q335 168 340.0 210.0Q345 252 348.5 287.0Q352 322 352 341Q352 362 349.0 370.5Q346 379 338 379Q322 379 291.5 347.5Q261 316 226 264Q193 215 167.0 152.0Q141 89 141 0Q108 -3 76 -15Z" fill="#4A4946" transform="translate(444.195 76.000) scale(0.035000 -0.035000)"/>
  <path d="M95 -15Q85 -2 81.0 17.5Q77 37 77 63Q77 98 81.0 155.0Q85 212 90.5 279.0Q96 346 100 410H17V440H102Q107 481 110.5 516.0Q114 551 115 575L184 590Q181 562 176.0 523.0Q171 484 166 440H286V410H192Q175 410 169.0 403.5Q163 397 161 378Q157 322 152.5 268.5Q148 215 145.0 171.5Q142 128 142 102Q142 88 146.0 77.0Q150 66 159 66Q181 66 235 125L251 109Q234 87 207.0 62.5Q180 38 150.5 17.5Q121 -3 95 -15Z" fill="#4A4946" transform="translate(462.010 76.000) scale(0.035000 -0.035000)"/>
  <path d="M97 -15Q77 11 77 64Q77 115 81.0 178.5Q85 242 91.5 310.5Q98 379 104.0 446.0Q110 513 114.0 572.5Q118 632 118 676Q118 696 109 696Q99 696 80.0 676.5Q61 657 35 628L18 644Q36 667 62.0 696.5Q88 726 117.0 752.0Q146 778 171 790Q177 777 180.0 756.5Q183 736 183 711Q183 664 179.0 603.0Q175 542 169.0 474.0Q163 406 156.5 338.0Q150 270 146.0 208.5Q142 147 142 99Q142 88 145.5 77.0Q149 66 159 66Q181 66 235 125L251 109Q234 87 207.0 62.5Q180 38 151.0 17.5Q122 -3 97 -15Z" fill="#4A4946" transform="translate(471.950 76.000) scale(0.035000 -0.035000)"/>
  <path d="M30 -235Q10 -235 4.0 -207.0Q-2 -179 1.5 -137.5Q5 -96 14 -58H37Q34 -103 37.5 -131.5Q41 -160 60 -160Q74 -160 93.5 -145.0Q113 -130 132.0 -104.0Q151 -78 164.0 -45.5Q177 -13 177 22Q177 51 170.0 94.0Q163 137 153 176Q141 225 127.0 264.5Q113 304 100.0 327.5Q87 351 76 351Q67 351 53.5 335.5Q40 320 28 297L9 308Q28 346 52.5 386.0Q77 426 105 455Q126 436 147.5 392.0Q169 348 187.0 291.5Q205 235 218.0 177.5Q231 120 235 75H237Q281 165 300.0 258.0Q319 351 297 439Q314 447 335.5 451.0Q357 455 375 455Q381 412 371.0 354.5Q361 297 338.5 231.5Q316 166 285.5 100.0Q255 34 220.5 -26.0Q186 -86 151.0 -133.0Q116 -180 84.5 -207.5Q53 -235 30 -235Z" fill="#4A4946" transform="translate(481.190 76.000) scale(0.035000 -0.035000)"/>
  <path d="M164 -15Q113 -15 76.5 22.5Q40 60 40 137Q40 197 63.0 254.0Q86 311 123.5 356.5Q161 402 207.0 428.5Q253 455 299 455Q352 455 388.0 417.0Q424 379 424 302Q424 241 400.5 184.0Q377 127 339.0 82.0Q301 37 255.0 11.0Q209 -15 164 -15ZM202 35Q243 35 278.0 66.5Q313 98 334.0 150.0Q355 202 354 263Q354 302 344.0 334.0Q334 366 314.0 385.5Q294 405 261 405Q220 405 185.5 373.0Q151 341 130.5 289.5Q110 238 110 177Q110 112 134.0 73.5Q158 35 202 35Z" fill="#4A4946" transform="translate(503.065 76.000) scale(0.035000 -0.035000)"/>
  <path d="M76 -15Q78 6 82.0 43.5Q86 81 90.0 126.0Q94 171 98.0 214.5Q102 258 104.5 292.0Q107 326 107 341Q107 361 98 361Q84 361 49 323L33 339Q59 371 92.5 403.5Q126 436 160 455Q166 442 169.0 421.5Q172 401 172 376Q172 346 169.0 317.0Q166 288 160 250H162Q204 331 245.0 385.0Q286 439 329 455Q347 440 350.5 412.0Q354 384 349.5 349.0Q345 314 337 278H314Q318 313 315.0 336.5Q312 360 293 360Q281 360 262.0 346.0Q243 332 212 279Q182 229 161.5 159.0Q141 89 141 0Q108 -3 76 -15Z" fill="#4A4946" transform="translate(519.305 76.000) scale(0.035000 -0.035000)"/>
  <path d="M150 -15Q121 -15 95.5 -0.5Q70 14 54.5 46.0Q39 78 39 130Q39 193 61.5 251.0Q84 309 121.0 355.0Q158 401 202.5 428.0Q247 455 290 455Q321 455 343.0 441.5Q365 428 382 405L315 289L294 297Q316 343 316.5 370.0Q317 397 304.0 408.5Q291 420 270 420Q238 420 209.0 397.0Q180 374 157.5 336.0Q135 298 122.0 252.0Q109 206 109 161Q109 108 128.0 79.0Q147 50 183 50Q215 50 256.5 75.5Q298 101 340 160L361 152Q313 68 257.0 26.5Q201 -15 150 -15Z" fill="#4A4946" transform="translate(531.800 76.000) scale(0.035000 -0.035000)"/>
  <path d="M62 -15Q67 36 73.5 107.5Q80 179 87.0 259.0Q94 339 100.0 418.0Q106 497 109.5 564.5Q113 632 113 676Q113 696 104 696Q94 696 75.0 676.5Q56 657 30 628L13 644Q31 667 57.0 696.5Q83 726 112.0 752.0Q141 778 166 790Q172 777 175.0 756.5Q178 736 178 711Q178 657 173.5 588.5Q169 520 162.0 444.0Q155 368 147 290H149Q174 333 212.5 370.5Q251 408 292.5 431.5Q334 455 366 455Q397 455 419.5 427.0Q442 399 442 322Q442 268 429.5 210.0Q417 152 392.5 101.5Q368 51 332.0 19.0Q296 -13 250 -15Q243 6 248.0 29.5Q253 53 271 64Q277 59 285.0 54.5Q293 50 301 50Q320 50 333.5 74.5Q347 99 355.5 137.0Q364 175 368.0 216.0Q372 257 372 291Q372 354 359.0 374.0Q346 394 325 394Q301 394 272.0 377.0Q243 360 216.0 331.0Q189 302 170 265Q143 213 136.0 151.0Q129 89 127 0Q94 -3 62 -15Z" fill="#4A4946" transform="translate(545.450 76.000) scale(0.035000 -0.035000)"/>
  <path d="M160 -15Q133 -15 105.0 -1.0Q77 13 58.5 46.0Q40 79 40 134Q40 194 63.0 251.0Q86 308 124.0 354.5Q162 401 208.5 428.0Q255 455 301 455Q346 455 360.5 436.5Q375 418 375 393Q375 347 341.0 306.5Q307 266 247.0 225.0Q187 184 109 136Q116 93 138.5 71.5Q161 50 190 50Q230 50 267.5 74.0Q305 98 335 142L356 134Q334 95 301.5 61.0Q269 27 232.5 6.0Q196 -15 160 -15ZM107 166Q107 164 107 165Q300 285 300 378Q300 398 290.5 406.5Q281 415 266 415Q239 415 211.0 393.0Q183 371 159.5 334.5Q136 298 121.5 254.0Q107 210 107 166Z" fill="#4A4946" transform="translate(562.425 76.000) scale(0.035000 -0.035000)"/>
  <path d="M146 -15Q120 -15 91.5 -6.0Q63 3 44.0 21.0Q25 39 25 66Q25 92 44.0 111.5Q63 131 89 153L105 137Q90 123 84.5 113.0Q79 103 79 93Q79 69 102.5 52.0Q126 35 166 35Q213 35 244.0 59.0Q275 83 275 123Q275 149 255.0 167.0Q235 185 179 213Q151 227 125.5 242.0Q100 257 84.0 275.5Q68 294 68 317Q68 345 90.5 377.0Q113 409 150.0 432.0Q187 455 232 455Q267 455 298.0 441.0Q329 427 351 395L304 314L284 324Q301 357 292.5 378.5Q284 400 262.0 411.0Q240 422 215 422Q177 422 152.5 398.5Q128 375 128 340Q128 329 133.0 320.5Q138 312 156.5 300.5Q175 289 213 269Q259 246 283.0 231.0Q307 216 316.0 201.0Q325 186 325 163Q325 116 299.5 75.5Q274 35 233.0 10.0Q192 -15 146 -15Z" fill="#4A4946" transform="translate(576.320 76.000) scale(0.035000 -0.035000)"/>
  <path d="M95 -15Q85 -2 81.0 17.5Q77 37 77 63Q77 98 81.0 155.0Q85 212 90.5 279.0Q96 346 100 410H17V440H102Q107 481 110.5 516.0Q114 551 115 575L184 590Q181 562 176.0 523.0Q171 484 166 440H286V410H192Q175 410 169.0 403.5Q163 397 161 378Q157 322 152.5 268.5Q148 215 145.0 171.5Q142 128 142 102Q142 88 146.0 77.0Q150 66 159 66Q181 66 235 125L251 109Q234 87 207.0 62.5Q180 38 150.5 17.5Q121 -3 95 -15Z" fill="#4A4946" transform="translate(589.480 76.000) scale(0.035000 -0.035000)"/>
  <path d="M76 -15Q78 6 82.0 43.5Q86 81 90.0 126.0Q94 171 98.0 214.5Q102 258 104.5 292.0Q107 326 107 341Q107 361 98 361Q84 361 49 323L33 339Q59 371 92.5 403.5Q126 436 160 455Q166 442 169.0 421.5Q172 401 172 376Q172 346 169.0 317.0Q166 288 160 250H162Q204 331 245.0 385.0Q286 439 329 455Q347 440 350.5 412.0Q354 384 349.5 349.0Q345 314 337 278H314Q318 313 315.0 336.5Q312 360 293 360Q281 360 262.0 346.0Q243 332 212 279Q182 229 161.5 159.0Q141 89 141 0Q108 -3 76 -15Z" fill="#4A4946" transform="translate(599.420 76.000) scale(0.035000 -0.035000)"/>
  <path d="M129 -15Q82 -15 61.0 21.0Q40 57 40 106Q40 149 55.5 197.0Q71 245 98.0 290.5Q125 336 159.5 373.5Q194 411 232.0 433.0Q270 455 307 455Q329 455 344.0 447.0Q359 439 372 428L431 455Q415 307 409.0 216.0Q403 125 403 98Q403 87 406.5 76.5Q410 66 419 66Q429 66 445.0 77.5Q461 89 480 108L497 92Q468 60 428.5 30.5Q389 1 356 -15Q337 10 337 60Q337 92 340.0 121.5Q343 151 350 203H348Q299 103 242.0 44.0Q185 -15 129 -15ZM159 50Q181 50 207.5 69.5Q234 89 260.0 121.5Q286 154 308.0 193.5Q330 233 343.0 274.0Q356 315 356 350Q356 366 352.0 383.5Q348 401 336.0 413.0Q324 425 300 425Q262 425 228.0 396.5Q194 368 167.5 323.0Q141 278 125.5 228.0Q110 178 110 134Q110 95 121.0 72.5Q132 50 159 50Z" fill="#4A4946" transform="translate(611.915 76.000) scale(0.035000 -0.035000)"/>
  <path d="M95 -15Q85 -2 81.0 17.5Q77 37 77 63Q77 98 81.0 155.0Q85 212 90.5 279.0Q96 346 100 410H17V440H102Q107 481 110.5 516.0Q114 551 115 575L184 590Q181 562 176.0 523.0Q171 484 166 440H286V410H192Q175 410 169.0 403.5Q163 397 161 378Q157 322 152.5 268.5Q148 215 145.0 171.5Q142 128 142 102Q142 88 146.0 77.0Q150 66 159 66Q181 66 235 125L251 109Q234 87 207.0 62.5Q180 38 150.5 17.5Q121 -3 95 -15Z" fill="#4A4946" transform="translate(629.835 76.000) scale(0.035000 -0.035000)"/>
  <path d="M160 -15Q133 -15 105.0 -1.0Q77 13 58.5 46.0Q40 79 40 134Q40 194 63.0 251.0Q86 308 124.0 354.5Q162 401 208.5 428.0Q255 455 301 455Q346 455 360.5 436.5Q375 418 375 393Q375 347 341.0 306.5Q307 266 247.0 225.0Q187 184 109 136Q116 93 138.5 71.5Q161 50 190 50Q230 50 267.5 74.0Q305 98 335 142L356 134Q334 95 301.5 61.0Q269 27 232.5 6.0Q196 -15 160 -15ZM107 166Q107 164 107 165Q300 285 300 378Q300 398 290.5 406.5Q281 415 266 415Q239 415 211.0 393.0Q183 371 159.5 334.5Q136 298 121.5 254.0Q107 210 107 166Z" fill="#4A4946" transform="translate(639.775 76.000) scale(0.035000 -0.035000)"/>
  <path d="M146 -15Q120 -15 91.5 -6.0Q63 3 44.0 21.0Q25 39 25 66Q25 92 44.0 111.5Q63 131 89 153L105 137Q90 123 84.5 113.0Q79 103 79 93Q79 69 102.5 52.0Q126 35 166 35Q213 35 244.0 59.0Q275 83 275 123Q275 149 255.0 167.0Q235 185 179 213Q151 227 125.5 242.0Q100 257 84.0 275.5Q68 294 68 317Q68 345 90.5 377.0Q113 409 150.0 432.0Q187 455 232 455Q267 455 298.0 441.0Q329 427 351 395L304 314L284 324Q301 357 292.5 378.5Q284 400 262.0 411.0Q240 422 215 422Q177 422 152.5 398.5Q128 375 128 340Q128 329 133.0 320.5Q138 312 156.5 300.5Q175 289 213 269Q259 246 283.0 231.0Q307 216 316.0 201.0Q325 186 325 163Q325 116 299.5 75.5Q274 35 233.0 10.0Q192 -15 146 -15Z" fill="#4A4946" transform="translate(653.670 76.000) scale(0.035000 -0.035000)"/>
  <path d="M62 -15Q67 36 73.5 107.5Q80 179 87.0 259.0Q94 339 100.0 418.0Q106 497 109.5 564.5Q113 632 113 676Q113 696 104 696Q94 696 75.0 676.5Q56 657 30 628L13 644Q31 667 57.0 696.5Q83 726 112.0 752.0Q141 778 166 790Q172 777 175.0 756.5Q178 736 178 711Q178 657 173.5 588.5Q169 520 162.0 444.0Q155 368 147 290H149Q174 333 212.5 370.5Q251 408 292.5 431.5Q334 455 366 455Q397 455 419.5 427.0Q442 399 442 322Q442 268 429.5 210.0Q417 152 392.5 101.5Q368 51 332.0 19.0Q296 -13 250 -15Q243 6 248.0 29.5Q253 53 271 64Q277 59 285.0 54.5Q293 50 301 50Q320 50 333.5 74.5Q347 99 355.5 137.0Q364 175 368.0 216.0Q372 257 372 291Q372 354 359.0 374.0Q346 394 325 394Q301 394 272.0 377.0Q243 360 216.0 331.0Q189 302 170 265Q143 213 136.0 151.0Q129 89 127 0Q94 -3 62 -15Z" fill="#4A4946" transform="translate(674.880 76.000) scale(0.035000 -0.035000)"/>
  <path d="M129 -15Q82 -15 61.0 21.0Q40 57 40 106Q40 149 55.5 197.0Q71 245 98.0 290.5Q125 336 159.5 373.5Q194 411 232.0 433.0Q270 455 307 455Q329 455 344.0 447.0Q359 439 372 428L431 455Q415 307 409.0 216.0Q403 125 403 98Q403 87 406.5 76.5Q410 66 419 66Q429 66 445.0 77.5Q461 89 480 108L497 92Q468 60 428.5 30.5Q389 1 356 -15Q337 10 337 60Q337 92 340.0 121.5Q343 151 350 203H348Q299 103 242.0 44.0Q185 -15 129 -15ZM159 50Q181 50 207.5 69.5Q234 89 260.0 121.5Q286 154 308.0 193.5Q330 233 343.0 274.0Q356 315 356 350Q356 366 352.0 383.5Q348 401 336.0 413.0Q324 425 300 425Q262 425 228.0 396.5Q194 368 167.5 323.0Q141 278 125.5 228.0Q110 178 110 134Q110 95 121.0 72.5Q132 50 159 50Z" fill="#4A4946" transform="translate(691.855 76.000) scale(0.035000 -0.035000)"/>
  <path d="M76 -15Q78 6 82.0 43.5Q86 81 90.0 126.0Q94 171 98.0 214.5Q102 258 104.5 292.0Q107 326 107 341Q107 361 98 361Q84 361 49 323L33 339Q59 371 92.5 403.5Q126 436 160 455Q166 442 169.0 421.5Q172 401 172 376Q172 346 169.0 317.0Q166 288 160 250H162Q204 331 245.0 385.0Q286 439 329 455Q347 440 350.5 412.0Q354 384 349.5 349.0Q345 314 337 278H314Q318 313 315.0 336.5Q312 360 293 360Q281 360 262.0 346.0Q243 332 212 279Q182 229 161.5 159.0Q141 89 141 0Q108 -3 76 -15Z" fill="#4A4946" transform="translate(709.775 76.000) scale(0.035000 -0.035000)"/>
  <path d="M76 -15Q78 6 82.0 43.5Q86 81 90.0 126.0Q94 171 98.0 214.5Q102 258 104.5 292.0Q107 326 107 341Q107 361 98 361Q84 361 49 323L33 339Q59 371 92.5 403.5Q126 436 160 455Q166 442 169.0 421.5Q172 401 172 376Q172 337 167.0 298.0Q162 259 154 208H156Q195 278 237.0 331.0Q279 384 318.5 416.0Q358 448 389 455Q403 444 410.0 423.0Q417 402 417 376Q417 354 413.5 316.5Q410 279 405.0 237.5Q400 196 396.5 159.0Q393 122 393 99Q393 88 396.5 77.0Q400 66 410 66Q420 66 435.5 77.5Q451 89 470 108L487 92Q459 60 420.0 30.5Q381 1 348 -15Q328 11 328 64Q328 90 331.5 129.0Q335 168 340.0 210.0Q345 252 348.5 287.0Q352 322 352 341Q352 362 349.0 370.5Q346 379 338 379Q322 379 291.5 347.5Q261 316 226 264Q193 215 167.0 152.0Q141 89 141 0Q108 -3 76 -15Z" fill="#4A4946" transform="translate(722.270 76.000) scale(0.035000 -0.035000)"/>
  <path d="M160 -15Q133 -15 105.0 -1.0Q77 13 58.5 46.0Q40 79 40 134Q40 194 63.0 251.0Q86 308 124.0 354.5Q162 401 208.5 428.0Q255 455 301 455Q346 455 360.5 436.5Q375 418 375 393Q375 347 341.0 306.5Q307 266 247.0 225.0Q187 184 109 136Q116 93 138.5 71.5Q161 50 190 50Q230 50 267.5 74.0Q305 98 335 142L356 134Q334 95 301.5 61.0Q269 27 232.5 6.0Q196 -15 160 -15ZM107 166Q107 164 107 165Q300 285 300 378Q300 398 290.5 406.5Q281 415 266 415Q239 415 211.0 393.0Q183 371 159.5 334.5Q136 298 121.5 254.0Q107 210 107 166Z" fill="#4A4946" transform="translate(740.085 76.000) scale(0.035000 -0.035000)"/>
  <path d="M146 -15Q120 -15 91.5 -6.0Q63 3 44.0 21.0Q25 39 25 66Q25 92 44.0 111.5Q63 131 89 153L105 137Q90 123 84.5 113.0Q79 103 79 93Q79 69 102.5 52.0Q126 35 166 35Q213 35 244.0 59.0Q275 83 275 123Q275 149 255.0 167.0Q235 185 179 213Q151 227 125.5 242.0Q100 257 84.0 275.5Q68 294 68 317Q68 345 90.5 377.0Q113 409 150.0 432.0Q187 455 232 455Q267 455 298.0 441.0Q329 427 351 395L304 314L284 324Q301 357 292.5 378.5Q284 400 262.0 411.0Q240 422 215 422Q177 422 152.5 398.5Q128 375 128 340Q128 329 133.0 320.5Q138 312 156.5 300.5Q175 289 213 269Q259 246 283.0 231.0Q307 216 316.0 201.0Q325 186 325 163Q325 116 299.5 75.5Q274 35 233.0 10.0Q192 -15 146 -15Z" fill="#4A4946" transform="translate(753.980 76.000) scale(0.035000 -0.035000)"/>
  <path d="M146 -15Q120 -15 91.5 -6.0Q63 3 44.0 21.0Q25 39 25 66Q25 92 44.0 111.5Q63 131 89 153L105 137Q90 123 84.5 113.0Q79 103 79 93Q79 69 102.5 52.0Q126 35 166 35Q213 35 244.0 59.0Q275 83 275 123Q275 149 255.0 167.0Q235 185 179 213Q151 227 125.5 242.0Q100 257 84.0 275.5Q68 294 68 317Q68 345 90.5 377.0Q113 409 150.0 432.0Q187 455 232 455Q267 455 298.0 441.0Q329 427 351 395L304 314L284 324Q301 357 292.5 378.5Q284 400 262.0 411.0Q240 422 215 422Q177 422 152.5 398.5Q128 375 128 340Q128 329 133.0 320.5Q138 312 156.5 300.5Q175 289 213 269Q259 246 283.0 231.0Q307 216 316.0 201.0Q325 186 325 163Q325 116 299.5 75.5Q274 35 233.0 10.0Q192 -15 146 -15Z" fill="#4A4946" transform="translate(767.140 76.000) scale(0.035000 -0.035000)"/>
  <path d="M118 -15Q83 11 83 64Q83 90 86.5 129.0Q90 168 95.0 210.0Q100 252 103.5 287.0Q107 322 107 341Q107 361 98 361Q84 361 49 323L33 339Q59 371 92.5 403.5Q126 436 160 455Q166 442 169.0 421.5Q172 401 172 376Q172 354 168.5 316.5Q165 279 160.0 237.5Q155 196 151.5 159.0Q148 122 148 99Q148 78 151.5 69.5Q155 61 162 61Q173 61 207.5 91.0Q242 121 276 176Q306 225 326.5 291.5Q347 358 347 440Q379 452 412 455Q405 412 400.5 370.5Q396 329 396 291Q396 248 401.0 205.0Q406 162 415.5 126.5Q425 91 438.5 69.5Q452 48 470 48Q490 48 511.0 74.0Q532 100 551.0 142.0Q570 184 581.5 233.5Q593 283 593 331Q593 352 588.0 375.0Q583 398 565 398Q549 398 527.0 380.5Q505 363 485 345L469 361Q491 386 518.5 411.0Q546 436 571.5 453.0Q597 470 612 470Q632 470 640.0 440.5Q648 411 648 378Q648 325 634.0 269.5Q620 214 596.5 163.0Q573 112 546.0 72.0Q519 32 492.5 8.5Q466 -15 445 -15Q424 -15 405.5 7.0Q387 29 372.0 65.0Q357 101 347.5 142.0Q338 183 336 222H334Q308 163 269.0 113.5Q230 64 189.5 30.5Q149 -3 118 -15Z" fill="#4A4946" transform="translate(788.350 76.000) scale(0.035000 -0.035000)"/>
  <path d="M164 -15Q113 -15 76.5 22.5Q40 60 40 137Q40 197 63.0 254.0Q86 311 123.5 356.5Q161 402 207.0 428.5Q253 455 299 455Q352 455 388.0 417.0Q424 379 424 302Q424 241 400.5 184.0Q377 127 339.0 82.0Q301 37 255.0 11.0Q209 -15 164 -15ZM202 35Q243 35 278.0 66.5Q313 98 334.0 150.0Q355 202 354 263Q354 302 344.0 334.0Q334 366 314.0 385.5Q294 405 261 405Q220 405 185.5 373.0Q151 341 130.5 289.5Q110 238 110 177Q110 112 134.0 73.5Q158 35 202 35Z" fill="#4A4946" transform="translate(812.255 76.000) scale(0.035000 -0.035000)"/>
  <path d="M76 -15Q78 6 82.0 43.5Q86 81 90.0 126.0Q94 171 98.0 214.5Q102 258 104.5 292.0Q107 326 107 341Q107 361 98 361Q84 361 49 323L33 339Q59 371 92.5 403.5Q126 436 160 455Q166 442 169.0 421.5Q172 401 172 376Q172 346 169.0 317.0Q166 288 160 250H162Q204 331 245.0 385.0Q286 439 329 455Q347 440 350.5 412.0Q354 384 349.5 349.0Q345 314 337 278H314Q318 313 315.0 336.5Q312 360 293 360Q281 360 262.0 346.0Q243 332 212 279Q182 229 161.5 159.0Q141 89 141 0Q108 -3 76 -15Z" fill="#4A4946" transform="translate(828.495 76.000) scale(0.035000 -0.035000)"/>
  <path d="M463 23 469 0Q450 -7 433.5 -11.0Q417 -15 397 -15Q362 -15 330.5 9.0Q299 33 258 73Q207 124 182.0 147.5Q157 171 139 171Q134 130 130.5 85.0Q127 40 127 0Q94 -3 62 -15Q67 36 73.5 107.5Q80 179 87.0 259.0Q94 339 100.0 418.0Q106 497 109.5 564.5Q113 632 113 676Q113 696 104 696Q94 696 75.0 676.5Q56 657 30 628L13 644Q31 667 57.0 696.5Q83 726 112.0 752.0Q141 778 166 790Q172 777 175.0 756.5Q178 736 178 711Q178 657 173.5 588.5Q169 520 162.0 444.0Q155 368 147 290H149Q174 330 205.0 368.0Q236 406 273.0 430.5Q310 455 351 455Q387 455 402.0 436.5Q417 418 417 389Q417 350 393.5 311.5Q370 273 327.5 241.0Q285 209 228 190V188L309 106Q351 64 375.0 45.0Q399 26 418.0 23.0Q437 20 463 23ZM317 405Q295 405 267.5 384.5Q240 364 213.5 331.5Q187 299 167.5 262.5Q148 226 141 194Q211 202 256.5 229.5Q302 257 324.5 293.5Q347 330 347 364Q347 382 340.5 393.5Q334 405 317 405Z" fill="#4A4946" transform="translate(840.990 76.000) scale(0.035000 -0.035000)"/>
  <path d="M23 -235V-212Q58 -198 69.5 -148.5Q81 -99 88 0L116 410H46V440H118Q129 596 172.0 681.5Q215 767 265 790Q288 771 295.0 736.5Q302 702 297.5 664.0Q293 626 283 593H261Q265 626 262.0 654.5Q259 683 252.0 700.5Q245 718 233 718Q223 718 214.5 694.0Q206 670 198.5 609.5Q191 549 183 440H298V410H208Q192 410 186.0 403.5Q180 397 178 378L151 -15Q144 -127 106.5 -180.0Q69 -233 23 -235Z" fill="#4A4946" transform="translate(856.950 76.000) scale(0.035000 -0.035000)"/>
  <path d="M97 -15Q77 11 77 64Q77 115 81.0 178.5Q85 242 91.5 310.5Q98 379 104.0 446.0Q110 513 114.0 572.5Q118 632 118 676Q118 696 109 696Q99 696 80.0 676.5Q61 657 35 628L18 644Q36 667 62.0 696.5Q88 726 117.0 752.0Q146 778 171 790Q177 777 180.0 756.5Q183 736 183 711Q183 664 179.0 603.0Q175 542 169.0 474.0Q163 406 156.5 338.0Q150 270 146.0 208.5Q142 147 142 99Q142 88 145.5 77.0Q149 66 159 66Q181 66 235 125L251 109Q234 87 207.0 62.5Q180 38 151.0 17.5Q122 -3 97 -15Z" fill="#4A4946" transform="translate(866.785 76.000) scale(0.035000 -0.035000)"/>
  <path d="M164 -15Q113 -15 76.5 22.5Q40 60 40 137Q40 197 63.0 254.0Q86 311 123.5 356.5Q161 402 207.0 428.5Q253 455 299 455Q352 455 388.0 417.0Q424 379 424 302Q424 241 400.5 184.0Q377 127 339.0 82.0Q301 37 255.0 11.0Q209 -15 164 -15ZM202 35Q243 35 278.0 66.5Q313 98 334.0 150.0Q355 202 354 263Q354 302 344.0 334.0Q334 366 314.0 385.5Q294 405 261 405Q220 405 185.5 373.0Q151 341 130.5 289.5Q110 238 110 177Q110 112 134.0 73.5Q158 35 202 35Z" fill="#4A4946" transform="translate(876.025 76.000) scale(0.035000 -0.035000)"/>
  <path d="M118 -15Q83 11 83 64Q83 90 86.5 129.0Q90 168 95.0 210.0Q100 252 103.5 287.0Q107 322 107 341Q107 361 98 361Q84 361 49 323L33 339Q59 371 92.5 403.5Q126 436 160 455Q166 442 169.0 421.5Q172 401 172 376Q172 354 168.5 316.5Q165 279 160.0 237.5Q155 196 151.5 159.0Q148 122 148 99Q148 78 151.5 69.5Q155 61 162 61Q173 61 207.5 91.0Q242 121 276 176Q306 225 326.5 291.5Q347 358 347 440Q379 452 412 455Q405 412 400.5 370.5Q396 329 396 291Q396 248 401.0 205.0Q406 162 415.5 126.5Q425 91 438.5 69.5Q452 48 470 48Q490 48 511.0 74.0Q532 100 551.0 142.0Q570 184 581.5 233.5Q593 283 593 331Q593 352 588.0 375.0Q583 398 565 398Q549 398 527.0 380.5Q505 363 485 345L469 361Q491 386 518.5 411.0Q546 436 571.5 453.0Q597 470 612 470Q632 470 640.0 440.5Q648 411 648 378Q648 325 634.0 269.5Q620 214 596.5 163.0Q573 112 546.0 72.0Q519 32 492.5 8.5Q466 -15 445 -15Q424 -15 405.5 7.0Q387 29 372.0 65.0Q357 101 347.5 142.0Q338 183 336 222H334Q308 163 269.0 113.5Q230 64 189.5 30.5Q149 -3 118 -15Z" fill="#4A4946" transform="translate(892.265 76.000) scale(0.035000 -0.035000)"/>
  <path d="M146 -15Q120 -15 91.5 -6.0Q63 3 44.0 21.0Q25 39 25 66Q25 92 44.0 111.5Q63 131 89 153L105 137Q90 123 84.5 113.0Q79 103 79 93Q79 69 102.5 52.0Q126 35 166 35Q213 35 244.0 59.0Q275 83 275 123Q275 149 255.0 167.0Q235 185 179 213Q151 227 125.5 242.0Q100 257 84.0 275.5Q68 294 68 317Q68 345 90.5 377.0Q113 409 150.0 432.0Q187 455 232 455Q267 455 298.0 441.0Q329 427 351 395L304 314L284 324Q301 357 292.5 378.5Q284 400 262.0 411.0Q240 422 215 422Q177 422 152.5 398.5Q128 375 128 340Q128 329 133.0 320.5Q138 312 156.5 300.5Q175 289 213 269Q259 246 283.0 231.0Q307 216 316.0 201.0Q325 186 325 163Q325 116 299.5 75.5Q274 35 233.0 10.0Q192 -15 146 -15Z" fill="#4A4946" transform="translate(916.170 76.000) scale(0.035000 -0.035000)"/>
  <path d="M80 -15Q64 -15 56.0 -5.5Q48 4 48 18Q48 41 67.5 60.0Q87 79 110 79Q127 79 134.5 69.5Q142 60 142 46Q142 21 122.5 3.0Q103 -15 80 -15Z" fill="#4A4946" transform="translate(929.330 76.000) scale(0.035000 -0.035000)"/>
</svg>
