<svg xmlns="http://www.w3.org/2000/svg" viewBox="0 0 960 136" role="img" aria-labelledby="title">
  <title id="title">使用 VibeSkills</title>
  <metadata>Lettering derived from Noto Serif SC and Bodoni Moda, licensed under SIL Open Font License 1.1.</metadata>
  <path d="M1531.0840170299125 1500V1475.3413292414866H1352.681189509989L814.2792503002141 -29.409752264042474H709.1719666161496L186.89102883592102 1475.3413292414866H39.05390986378551V1500H731.0522008794105V1475.3413292414866H518.6532243597493L901.9149200630648 292.43132866657527L1324.2254201088174 1475.3413292414866H1079.4068414048213V1500Z" fill="#8A7448" transform="translate(471.365 21.000) scale(0.011000 -0.011000)"/>
  <path d="M135 34 H420" fill="none" stroke="#4A4946" stroke-width="0.75"/>
  <path d="M135.00 34.00 L137.97 35.19 L140.94 36.19 L143.91 36.86 L146.88 37.10 L149.84 36.86 L152.81 36.19 L155.78 35.19 L158.75 34.00 L161.72 32.81 L164.69 31.81 L167.66 31.14 L170.62 30.90 L173.59 31.14 L176.56 31.81 L179.53 32.81 L182.50 34.00 L185.47 35.19 L188.44 36.19 L191.41 36.86 L194.38 37.10 L197.34 36.86 L200.31 36.19 L203.28 35.19 L206.25 34.00 L209.22 32.81 L212.19 31.81 L215.16 31.14 L218.12 30.90 L221.09 31.14 L224.06 31.81 L227.03 32.81 L230.00 34.00 L232.97 35.19 L235.94 36.19 L238.91 36.86 L241.88 37.10 L244.84 36.86 L247.81 36.19 L250.78 35.19 L253.75 34.00 L256.72 32.81 L259.69 31.81 L262.66 31.14 L265.62 30.90 L268.59 31.14 L271.56 31.81 L274.53 32.81 L277.50 34.00 L280.47 35.19 L283.44 36.19 L286.41 36.86 L289.38 37.10 L292.34 36.86 L295.31 36.19 L298.28 35.19 L301.25 34.00 L304.22 32.81 L307.19 31.81 L310.16 31.14 L313.12 30.90 L316.09 31.14 L319.06 31.81 L322.03 32.81 L325.00 34.00 L327.97 35.19 L330.94 36.19 L333.91 36.86 L336.88 37.10 L339.84 36.86 L342.81 36.19 L345.78 35.19 L348.75 34.00 L351.72 32.81 L354.69 31.81 L357.66 31.14 L360.62 30.90 L363.59 31.14 L366.56 31.81 L369.53 32.81 L372.50 34.00 L375.47 35.19 L378.44 36.19 L381.41 36.86 L384.38 37.10 L387.34 36.86 L390.31 36.19 L393.28 35.19 L396.25 34.00 L399.22 32.81 L402.19 31.81 L405.16 31.14 L408.12 30.90 L411.09 31.14 L414.06 31.81 L417.03 32.81 L420.00 34.00" fill="none" stroke="#8A7448" stroke-opacity="0.86" stroke-width="0.72"/>
  <path d="M135.00 34.00 L137.97 32.81 L140.94 31.81 L143.91 31.14 L146.88 30.90 L149.84 31.14 L152.81 31.81 L155.78 32.81 L158.75 34.00 L161.72 35.19 L164.69 36.19 L167.66 36.86 L170.62 37.10 L173.59 36.86 L176.56 36.19 L179.53 35.19 L182.50 34.00 L185.47 32.81 L188.44 31.81 L191.41 31.14 L194.38 30.90 L197.34 31.14 L200.31 31.81 L203.28 32.81 L206.25 34.00 L209.22 35.19 L212.19 36.19 L215.16 36.86 L218.12 37.10 L221.09 36.86 L224.06 36.19 L227.03 35.19 L230.00 34.00 L232.97 32.81 L235.94 31.81 L238.91 31.14 L241.88 30.90 L244.84 31.14 L247.81 31.81 L250.78 32.81 L253.75 34.00 L256.72 35.19 L259.69 36.19 L262.66 36.86 L265.62 37.10 L268.59 36.86 L271.56 36.19 L274.53 35.19 L277.50 34.00 L280.47 32.81 L283.44 31.81 L286.41 31.14 L289.38 30.90 L292.34 31.14 L295.31 31.81 L298.28 32.81 L301.25 34.00 L304.22 35.19 L307.19 36.19 L310.16 36.86 L313.12 37.10 L316.09 36.86 L319.06 36.19 L322.03 35.19 L325.00 34.00 L327.97 32.81 L330.94 31.81 L333.91 31.14 L336.88 30.90 L339.84 31.14 L342.81 31.81 L345.78 32.81 L348.75 34.00 L351.72 35.19 L354.69 36.19 L357.66 36.86 L360.62 37.10 L363.59 36.86 L366.56 36.19 L369.53 35.19 L372.50 34.00 L375.47 32.81 L378.44 31.81 L381.41 31.14 L384.38 30.90 L387.34 31.14 L390.31 31.81 L393.28 32.81 L396.25 34.00 L399.22 35.19 L402.19 36.19 L405.16 36.86 L408.12 37.10 L411.09 36.86 L414.06 36.19 L417.03 35.19 L420.00 34.00" fill="none" stroke="#5A3037" stroke-opacity="0.72" stroke-width="0.62"/>
  <path d="M163 40 H392" fill="none" stroke="#4A4946" stroke-opacity="0.58" stroke-width="0.55"/>
  <path d="M540 34 H825" fill="none" stroke="#4A4946" stroke-width="0.75"/>
  <path d="M540.00 34.00 L542.97 35.19 L545.94 36.19 L548.91 36.86 L551.88 37.10 L554.84 36.86 L557.81 36.19 L560.78 35.19 L563.75 34.00 L566.72 32.81 L569.69 31.81 L572.66 31.14 L575.62 30.90 L578.59 31.14 L581.56 31.81 L584.53 32.81 L587.50 34.00 L590.47 35.19 L593.44 36.19 L596.41 36.86 L599.38 37.10 L602.34 36.86 L605.31 36.19 L608.28 35.19 L611.25 34.00 L614.22 32.81 L617.19 31.81 L620.16 31.14 L623.12 30.90 L626.09 31.14 L629.06 31.81 L632.03 32.81 L635.00 34.00 L637.97 35.19 L640.94 36.19 L643.91 36.86 L646.88 37.10 L649.84 36.86 L652.81 36.19 L655.78 35.19 L658.75 34.00 L661.72 32.81 L664.69 31.81 L667.66 31.14 L670.62 30.90 L673.59 31.14 L676.56 31.81 L679.53 32.81 L682.50 34.00 L685.47 35.19 L688.44 36.19 L691.41 36.86 L694.38 37.10 L697.34 36.86 L700.31 36.19 L703.28 35.19 L706.25 34.00 L709.22 32.81 L712.19 31.81 L715.16 31.14 L718.12 30.90 L721.09 31.14 L724.06 31.81 L727.03 32.81 L730.00 34.00 L732.97 35.19 L735.94 36.19 L738.91 36.86 L741.88 37.10 L744.84 36.86 L747.81 36.19 L750.78 35.19 L753.75 34.00 L756.72 32.81 L759.69 31.81 L762.66 31.14 L765.62 30.90 L768.59 31.14 L771.56 31.81 L774.53 32.81 L777.50 34.00 L780.47 35.19 L783.44 36.19 L786.41 36.86 L789.38 37.10 L792.34 36.86 L795.31 36.19 L798.28 35.19 L801.25 34.00 L804.22 32.81 L807.19 31.81 L810.16 31.14 L813.12 30.90 L816.09 31.14 L819.06 31.81 L822.03 32.81 L825.00 34.00" fill="none" stroke="#8A7448" stroke-opacity="0.86" stroke-width="0.72"/>
  <path d="M540.00 34.00 L542.97 32.81 L545.94 31.81 L548.91 31.14 L551.88 30.90 L554.84 31.14 L557.81 31.81 L560.78 32.81 L563.75 34.00 L566.72 35.19 L569.69 36.19 L572.66 36.86 L575.62 37.10 L578.59 36.86 L581.56 36.19 L584.53 35.19 L587.50 34.00 L590.47 32.81 L593.44 31.81 L596.41 31.14 L599.38 30.90 L602.34 31.14 L605.31 31.81 L608.28 32.81 L611.25 34.00 L614.22 35.19 L617.19 36.19 L620.16 36.86 L623.12 37.10 L626.09 36.86 L629.06 36.19 L632.03 35.19 L635.00 34.00 L637.97 32.81 L640.94 31.81 L643.91 31.14 L646.88 30.90 L649.84 31.14 L652.81 31.81 L655.78 32.81 L658.75 34.00 L661.72 35.19 L664.69 36.19 L667.66 36.86 L670.62 37.10 L673.59 36.86 L676.56 36.19 L679.53 35.19 L682.50 34.00 L685.47 32.81 L688.44 31.81 L691.41 31.14 L694.38 30.90 L697.34 31.14 L700.31 31.81 L703.28 32.81 L706.25 34.00 L709.22 35.19 L712.19 36.19 L715.16 36.86 L718.12 37.10 L721.09 36.86 L724.06 36.19 L727.03 35.19 L730.00 34.00 L732.97 32.81 L735.94 31.81 L738.91 31.14 L741.88 30.90 L744.84 31.14 L747.81 31.81 L750.78 32.81 L753.75 34.00 L756.72 35.19 L759.69 36.19 L762.66 36.86 L765.62 37.10 L768.59 36.86 L771.56 36.19 L774.53 35.19 L777.50 34.00 L780.47 32.81 L783.44 31.81 L786.41 31.14 L789.38 30.90 L792.34 31.14 L795.31 31.81 L798.28 32.81 L801.25 34.00 L804.22 35.19 L807.19 36.19 L810.16 36.86 L813.12 37.10 L816.09 36.86 L819.06 36.19 L822.03 35.19 L825.00 34.00" fill="none" stroke="#5A3037" stroke-opacity="0.72" stroke-width="0.62"/>
  <path d="M568 40 H797" fill="none" stroke="#4A4946" stroke-opacity="0.58" stroke-width="0.55"/>
  <path d="M316.29991946800914 697H817.0005856872064L868.8003221279635 762.999633945496Q868.8003221279635 762.999633945496 878.250274540878 755.4996705509465Q887.7002269537925 747.9997071563969 902.7001537428916 735.7497620645725Q917.7000805319909 723.499816972748 934.0 709.9498792020137Q950.2999194680091 696.3999414312793 963.6998608992885 684.2999926789099Q961.6998608992885 676.2999926789099 954.7498718809236 672.2999926789099Q947.7998828625588 668.2999926789099 936.7998828625588 668.2999926789099H324.29991946800914ZM399.1996046611357 347.2999926789099H855.3003587334139V317.89997803672975H399.1996046611357ZM824.8003953388643 559.599912146919H814.8003953388643L854.4001610639817 602.3996485876762L940.399721798577 536.8999780367297Q935.699714477487 530.8999780367297 924.2996998353068 525.2499816972747Q912.8996851931266 519.5999853578198 898.2996998353068 516.2999926789099V289.99985357819844Q898.2996998353068 286.6998608992885 887.6997876883877 280.99989018364886Q877.0998755414687 275.29991946800914 863.0500109816351 270.74994509182443Q849.0001464218016 266.19997071563967 836.2002635592429 266.19997071563967H824.8003953388643ZM350.4001610639817 559.599912146919V592.8996851931266L427.5994728815143 559.599912146919H848.0005124763055V530.1998975047389H422.2994802026044V284.39986822037855Q422.2994802026044 281.1998975047389 413.19956805568535 275.54993777073435Q404.0996559087663 269.89997803672975 390.0497913489328 265.40001464218017Q375.9999267890992 260.90005124763053 361.0000732109008 260.90005124763053H350.4001610639817ZM421.1998975047389 259.7000073210901Q454.89990482582897 199.39994143127936 509.2498718809236 154.1998608992885Q563.5998389360183 108.99978036729763 634.7497986700228 77.09969251421668Q705.8997584040274 45.19960466113574 791.1997510829373 27.499524129144866Q876.4997437618472 9.799443597153996 972.7998096516579 5.199385028433362L972.499816972748 -5.400600329386478Q949 -11.400527118485691 931.4501354401664 -30.850333109598598Q913.9002708803329 -50.300139100711505 908.7003001646932 -78.6998608992885Q779.9002708803329 -60.499890183648816 682.550194008887 -20.699897504738892Q585.2001171374412 19.100095174171027 516.7500183027252 86.0000732109008Q448.29991946800914 152.90005124763056 406.29984625710836 251.1999707156397ZM588.4003074857833 837.9998535781984 697.0995826978655 827.2999194680091Q696.0995826978655 817.2999194680091 688.5995826978655 809.7999194680091Q681.0995826978655 802.2999194680091 661.7995900189555 799.2999194680091V379.200556402846Q660.7995900189555 292.9005637239361 640.8496376060411 221.60053443957577Q620.8996851931266 150.30050515521546 575.3497474223923 93.4004539075849Q529.7998096516579 36.50040265995435 453.2498718809236 -6.849674211491482Q376.6999341101893 -50.19975108293731 262.4999633945496 -79.59983893601826L254.69993411018928 -63.29977304620755Q380.00014642180156 -18.899758404027395 452.8502232932474 42.65028918305812Q525.7003001646932 104.20033677014364 557.0503038252382 187.20040998104443Q588.4003074857833 270.20048319194524 588.4003074857833 378.50054908175593ZM166.9004173021345 540.8001757061619 199.70022695379245 583.599912146919 269.9997071563968 557.8001024952611Q267.6997144774869 550.8001024952611 260.34971081694187 546.150106155806Q252.99970715639685 541.5001098163511 240.09972911966707 539.2001171374412V-55.70000732109008Q240.09972911966707 -58.59998535781984 230.79980965165794 -64.2499450918244Q221.4998901836488 -69.89990482582897 208.2500183027252 -74.74987188092362Q195.0001464218016 -79.59983893601826 180.3002855225131 -79.59983893601826H166.9004173021345ZM250.50054908175593 839.8998316149282 364.0997291196671 805.3000658898108Q360.79973644075716 796.0000732109008 351.49974376184724 790.0000732109008Q342.1997510829373 784.0000732109008 325.1997510829373 785.0000732109008Q291.79980965165794 692.500183027252 247.94987920201368 607.9501720456169Q204.09994875236944 523.4001610639817 153.40005124763056 452.15010615580616Q102.70015374289166 380.90005124763053 45.400307485783316 326.40001464218017L30.900270880332926 336.2000439265405Q73.70030016469323 396.7000073210901 115.05034043068868 477.8499670550946Q156.40038069668412 558.9999267890992 191.4504282837696 651.9998901836489Q226.50047587085513 744.9998535781984 250.50054908175593 839.8998316149282Z" fill="#173F42" transform="translate(331.087 103.000) scale(0.041000 -0.041000)"/>
  <path d="M164.70030016469323 766.6999341101892V776.6999341101892V802.7997364407571L252.0995094869647 766.6999341101892H238.79959001895557V462Q238.79959001895557 394.10002196327025 233.49959734004565 322.0000366054504Q228.19960466113574 249.90005124763056 210.0996559087663 178.95006222926568Q191.99970715639685 108.0000732109008 154.04982795438315 42.500073210900794Q116.09994875236944 -22.99992678909921 50.800175706161895 -77.39994143127937L36.20011713744127 -67.59991214691905Q93.8001757061619 7.300065889810711 121.15021597215733 93.35004026599545Q148.50025623815276 179.40001464218017 156.600278201423 272.5Q164.70030016469323 365.59998535781983 164.70030016469323 461ZM205.09987554146866 532.9999267890992H817.2002635592429V503.59991214691905H205.09987554146866ZM205.09987554146866 766.6999341101892H827.000366054504V737.9999267890992H205.09987554146866ZM198.79980965165794 293.4999633945496H817.2002635592429V264.09994875236947H198.79980965165794ZM788.3005051552154 766.6999341101892H777.3005051552154L816.7002269537925 815.3996485876762L909.3997950094778 743.7000073210901Q904.0998023305679 736.7000073210901 891.8497840278426 730.5500109816351Q879.5997657251174 724.4000146421802 862.5997657251174 721.1000219632703V27.69949484478455Q862.5997657251174 -0.8003221279634758 855.2998096516579 -22.10020499052221Q847.9998535781984 -43.40008785308095 823.5999853578198 -56.80002928436031Q799.2001171374412 -70.19997071563968 747.700373375594 -75.79995607345953Q746.4003806966841 -57.900124458531344 741.200373375594 -43.90023427488253Q736.000366054504 -29.900344091233713 725.700373375594 -21.200409981044423Q714.000366054504 -12.200483191945214 693.5003294490535 -5.400527118485689Q673.0002928436031 1.3994289549738355 637.1003148068734 6.299406991703599V22.099436276063916Q637.1003148068734 22.099436276063916 653.3503331095985 20.749432615518877Q669.6003514123238 19.399428954973835 692.4003806966841 17.69942163388376Q715.2004099810445 15.999414312793679 735.4504282837696 14.649410652248639Q755.7004465864948 13.299406991703599 763.4004539075848 13.299406991703599Q778.2004831919452 13.299406991703599 783.2504941735804 18.7994069917036Q788.3005051552154 24.2994069917036 788.3005051552154 36.09943627606391ZM466.9004173021345 763.7000073210901H540.2996998353068V-46.90005124763055Q540.2996998353068 -51.10002196327024 523.9498425965633 -60.64995973400457Q507.59998535781983 -70.1998975047389 478.9002708803329 -70.1998975047389H466.9004173021345Z" fill="#173F42" transform="translate(372.486 103.000) scale(0.041000 -0.041000)"/>
  <path d="M333.3001391007115 -6.200043926540474 75.60020499052222 730.1998242938381H179.19938502843337L396.39957537677543 78.49937770734329H378.2995534135052L382.5995460924151 93.19938502843337L587.9997071563969 730.1998242938381H633.6995680556853L385.399721798577 -6.200043926540474ZM5.299992678909921 699.6998608992885V730.1998242938381H304.69942163388373V699.8998316149282L162.59961930331588 688.1998975047389H139.89975840402738ZM464.59969251421666 699.8998316149282V730.1998242938381H709.8996851931266V700.8998316149282L602.4996705509465 688.1998975047389H586.0996559087663Z" fill="#173F42" transform="translate(424.741 103.000) scale(0.041000 -0.041000)"/>
  <path d="M42.600058568720634 0V28.199970715639683L151.80010249526111 38.89997803672976H188.49967055094643L294.6996412665861 28.199970715639683V0ZM123.40023427488254 0Q124.40023427488254 24.599985357819843 125.25023793542758 65.69997071563968Q126.1002415959726 106.79995607345953 126.6002415959726 151.3999414312794Q127.1002415959726 195.99992678909922 127.1002415959726 229.59991214691905V292.0997291196671Q127.1002415959726 342.79973644075716 126.25023793542758 382.9498059911129Q125.40023427488254 423.09987554146863 123.40023427488254 460.1998975047389L36.10009517417103 464.6998608992885V490.09987554146863L207.99948752369448 531.8996851931266L220.2994802026044 523.5996925142167L217.69949484478454 381.4998901836488V229.59991214691905Q217.69949484478454 195.99992678909922 218.19949484478454 151.3999414312794Q218.69949484478454 106.79995607345953 219.34949118423953 65.69997071563968Q219.99948752369448 24.599985357819843 220.99948752369448 0ZM164.8998316149282 655Q139.69993411018928 655 121.90001464218015 671.3499304496443Q104.10009517417103 687.6998608992885 104.10009517417103 714.1997510829373Q104.10009517417103 740.0996559087663 121.90001464218015 756.7995900189555Q139.69993411018928 773.4995241291449 164.8998316149282 773.4995241291449Q189.6997144774869 773.4995241291449 208.04964492713117 756.7995900189555Q226.39957537677543 740.0996559087663 226.39957537677543 714.1997510829373Q226.39957537677543 687.6998608992885 208.04964492713117 671.3499304496443Q189.6997144774869 655 164.8998316149282 655Z" fill="#173F42" transform="translate(453.350 103.000) scale(0.041000 -0.041000)"/>
  <path d="M41.600058568720634 0V28.199970715639683L123.00021963270237 35.29999267890992Q124.00021963270237 63.89997803672976 124.00021963270237 98.49996339454961Q124.00021963270237 133.09994875236944 124.50021963270237 167.6999341101893Q125.00021963270237 202.29991946800914 125.00021963270237 229.59991214691905V744.0999487523694L38.70008053199087 748.9999267890992V775.9999267890992L202.59947288151432 807.7998096516579L217.69949484478454 798.7998096516579L214.69949484478454 642.6998608992885V441.8996119822258L216.2994802026044 431.8996119822258V80.80002928436032V79.50003660545039L202.89961198222582 -10.099948752369446ZM375.899538771325 -14.899978036729763Q328.8996119822258 -14.899978036729763 282.54960832168075 8.599985357819843Q236.19960466113574 32.09994875236945 198.39957537677543 86.79995607345953H187.39957537677543L201.39950216587462 110.30006588981071Q238.29962662440596 69.69993411018929 272.79973644075716 52.39986822037858Q307.29984625710836 35.09980233056787 345.4999633945496 35.09980233056787Q386.80002928436033 35.09980233056787 421.8500768714458 56.9498425965633Q456.90012445853137 78.79988286255873 478.20015374289164 129.19989750473889Q499.500183027252 179.59991214691905 499.500183027252 264.29984625710836Q499.500183027252 377.09980233056785 456.9001244585313 431.3498572387434Q414.3000658898107 485.59991214691905 347.7999560734595 485.59991214691905Q324.59991214691905 485.59991214691905 299.99985357819844 478.7998828625588Q275.39979500947777 471.99985357819844 248.84974742239228 453.14981331220304Q222.29969983530677 434.2997730462076 190.19967787203652 398.49974376184724L178.99970715639685 427.49974376184724H192.89961198222582Q234.19960466113574 483.79973644075716 284.4995973400457 509.04971813803195Q334.7995900189556 534.2996998353068 386.49952412914485 534.2996998353068Q448.09950948696473 534.2996998353068 495.2994802026044 501.6497034958518Q542.4994509182441 468.9997071563968 569.8994289549738 408.4997437618472Q597.2994069917036 347.9997803672976 597.2994069917036 264.4998901836488Q597.2994069917036 183.19989750473889 569.3994289549738 119.9999267890992Q541.4994509182441 56.799956073459526 491.7994802026044 20.94998901836488Q442.09950948696473 -14.899978036729763 375.899538771325 -14.899978036729763Z" fill="#173F42" transform="translate(467.485 103.000) scale(0.041000 -0.041000)"/>
  <path d="M305.499816972748 -14.899978036729763Q230.59991214691905 -14.899978036729763 171.89997803672975 15.599985357819843Q113.20004392654047 46.09994875236945 80.0500841925359 107.39990482582897Q46.900124458531344 168.6998608992885 46.900124458531344 258.8998316149282Q46.900124458531344 344.1997510829373 81.65006955035575 405.899721798577Q116.40001464218015 467.59969251421666 173.54993777073432 500.9496961747617Q230.6998608992885 534.2996998353068 297.39979500947777 534.2996998353068Q364.19967787203655 534.2996998353068 411.0996193033159 506.59972911966713Q457.99956073459526 478.8997584040274 482.74954243187005 431.59980233056785Q507.49952412914485 384.29984625710836 507.49952412914485 324.4998901836488Q507.49952412914485 288.39986822037855 501.19953145023493 264.1998975047389H88.59983893601826V295.99985357819844H373.2003367701436Q400.50025623815276 295.99985357819844 410.2002269537925 310.59980233056785Q419.90019766943215 325.1997510829373 419.90019766943215 357.1996046611357Q419.90019766943215 421.39957537677543 386.85011347689624 461.74965224822125Q353.80002928436033 502.0997291196671 294.5998389360183 502.0997291196671Q252.59969251421668 502.0997291196671 218.09958269786551 475.2996998353068Q183.59947288151432 448.49967055094646 163.29940699170362 396.8496742114915Q142.9993411018929 345.19967787203655 142.9993411018929 271.09980233056785Q142.9993411018929 190.1998242938381 167.24935940461808 138.04982795438315Q191.49937770734329 85.89983161492819 234.14941065224863 61.54982795438315Q276.799443597154 37.199824293838105 331.69949484478457 37.199824293838105Q384.69949484478457 37.199824293838105 423.54953511077997 56.09980233056787Q462.39957537677543 74.99978036729763 492.29962662440596 110.69978768838772L508.4995973400456 96.99978036729763Q476.0995826978655 44.59991214691905 425.24965224822125 14.849967055094645Q374.399721798577 -14.899978036729763 305.499816972748 -14.899978036729763Z" fill="#173F42" transform="translate(494.370 103.000) scale(0.041000 -0.041000)"/>
  <path d="M266.499816972748 -16.499963394549606Q204.79980965165794 -16.499963394549606 147.59987554146866 0.400051247630552Q90.39994143127937 17.30006588981071 53.10002196327024 41.40001464218016L58.70000732109008 193.79980965165794H101.99985357819843L136.39957537677543 24.700153742891658L88.09980233056787 47.40008785308095L81.79988286255873 80.40001464218015Q130.39986822037858 45 168.59987554146866 32.59998535781984Q206.79988286255875 20.199970715639683 259.29991946800914 20.199970715639683Q339.59998535781983 20.199970715639683 388.20008053199086 56.5Q436.8001757061619 92.80002928436032 436.8001757061619 163.40016106398173Q436.8001757061619 199.50018302725198 423.85015008234666 225.95020865106727Q410.90012445853137 252.40023427488254 380.4000512476306 274.20026355924284Q349.89997803672975 296.0002928436032 296.5998389360183 317.50032944905354L253.4998901836488 335.70030016469326Q163.29999267890992 374.0002196327024 116.40005124763056 425.1001683850718Q69.50010981635118 476.2001171374413 69.50010981635118 554.2999926789099Q69.50010981635118 618.0999487523694 101.20008053199086 660.899904825829Q132.90005124763056 703.6998608992885 186.69997071563967 725.5498279543831Q240.4998901836488 747.3997950094778 306.79973644075716 747.3997950094778Q364.399721798577 747.3997950094778 408.3496376060411 733.0998023305679Q452.2995534135052 718.7998096516579 490.19953145023493 692.499816972748L484.99956073459526 548.1000219632703H440.29969983530674L406.7999560734595 709.9997071563969L456.89968519312663 686.6997876883877L460.5996193033159 653.1998975047389Q421.49967055094646 684.6998608992885 389.1996412665861 697.4998535781984Q356.8996119822258 710.2998462571084 313.7995900189556 710.2998462571084Q244.5995460924151 710.2998462571084 199.69949484478454 677.0498279543831Q154.79944359715398 643.7998096516579 154.79944359715398 579.399721798577Q154.79944359715398 523.1996778720365 187.69949484478454 489.3996485876762Q220.5995460924151 455.5996193033159 278.4995973400456 430.8996119822258L324.899538771325 411.7996632298564Q400.5995460924151 380.19967787203655 444.19953145023493 348.2996998353068Q487.79951680805476 316.399721798577 506.04949850532955 278.54975474348237Q524.2994802026044 240.69978768838772 524.2994802026044 188.59983893601827Q524.2994802026044 126.09987554146866 492.54949850532955 79.79991946800914Q460.79951680805476 33.4999633945496 402.94958635841056 8.499999999999998Q345.0996559087663 -16.499963394549606 266.499816972748 -16.499963394549606Z" fill="#173F42" transform="translate(517.279 103.000) scale(0.041000 -0.041000)"/>
  <path d="M39.90005124763055 0V28.199970715639683L148.80010249526111 38.89997803672976H186.79966322985638L296.6996412665861 28.199970715639683V0ZM122.00021963270237 0Q123.00021963270237 19.800029284360317 123.50021963270237 48.2500183027252Q124.00021963270237 76.70000732109008 124.50021963270237 108.89997803672976Q125.00021963270237 141.09994875236944 125.00021963270237 172.49992678909922Q125.00021963270237 203.89990482582897 125.00021963270237 229.59991214691905V744.3999414312793L38.70008053199087 748.9999267890992V775.9999267890992L204.59947288151432 807.7998096516579L219.59947288151432 798.7998096516579L216.2994802026044 642.6998608992885V232.6998608992885Q216.2994802026044 206.09987554146866 216.2994802026044 173.89990482582897Q216.2994802026044 141.69993411018928 216.7994802026044 109.19997071563968Q217.2994802026044 76.70000732109008 217.94947654205936 48.2500183027252Q218.59947288151432 19.800029284360317 219.59947288151432 0ZM170.79988286255875 175.59998535781983V218.89997803672975H174.9998535781984L324.49967055094646 368.99985357819844L475.2994802026044 519.399721798577H526.3993557440731ZM455.5000366054504 0 283.8997584040274 299.59998535781983 347.89924592772184 360.2995534135052 535.299260569902 34.89997803672976 611.4993777073432 28.199970715639683V0ZM338.2995534135052 490.0997291196671V519.399721798577H585.6994216338837V490.0997291196671L468.9994143127937 480.1997510829373L449.799443597154 477.1997510829373Z" fill="#173F42" transform="translate(541.050 103.000) scale(0.041000 -0.041000)"/>
  <path d="M42.600058568720634 0V28.199970715639683L151.80010249526111 38.89997803672976H188.49967055094643L294.6996412665861 28.199970715639683V0ZM123.40023427488254 0Q124.40023427488254 24.599985357819843 125.25023793542758 65.69997071563968Q126.1002415959726 106.79995607345953 126.6002415959726 151.3999414312794Q127.1002415959726 195.99992678909922 127.1002415959726 229.59991214691905V292.0997291196671Q127.1002415959726 342.79973644075716 126.25023793542758 382.9498059911129Q125.40023427488254 423.09987554146863 123.40023427488254 460.1998975047389L36.10009517417103 464.6998608992885V490.09987554146863L207.99948752369448 531.8996851931266L220.2994802026044 523.5996925142167L217.69949484478454 381.4998901836488V229.59991214691905Q217.69949484478454 195.99992678909922 218.19949484478454 151.3999414312794Q218.69949484478454 106.79995607345953 219.34949118423953 65.69997071563968Q219.99948752369448 24.599985357819843 220.99948752369448 0ZM164.8998316149282 655Q139.69993411018928 655 121.90001464218015 671.3499304496443Q104.10009517417103 687.6998608992885 104.10009517417103 714.1997510829373Q104.10009517417103 740.0996559087663 121.90001464218015 756.7995900189555Q139.69993411018928 773.4995241291449 164.8998316149282 773.4995241291449Q189.6997144774869 773.4995241291449 208.04964492713117 756.7995900189555Q226.39957537677543 740.0996559087663 226.39957537677543 714.1997510829373Q226.39957537677543 687.6998608992885 208.04964492713117 671.3499304496443Q189.6997144774869 655 164.8998316149282 655Z" fill="#173F42" transform="translate(566.664 103.000) scale(0.041000 -0.041000)"/>
  <path d="M34.40001464218016 0V28.199970715639683L150.40008785308095 38.89997803672976H187.3996485876762L304.7996632298564 28.199970715639683V0ZM122.00021963270237 0Q123.00021963270237 32.09994875236945 123.50021963270237 71.54993777073433Q124.00021963270237 110.9999267890992 124.50021963270237 152.34993044964423Q125.00021963270237 193.69993411018928 125.00021963270237 229.59991214691905V744.3999414312793L38.70008053199087 748.9999267890992V775.9999267890992L204.59947288151432 807.7998096516579L219.59947288151432 798.7998096516579L216.2994802026044 642.6998608992885V229.59991214691905Q216.2994802026044 193.69993411018928 216.7994802026044 152.34993044964423Q217.2994802026044 110.9999267890992 217.94947654205936 71.54993777073433Q218.59947288151432 32.09994875236945 219.59947288151432 0Z" fill="#173F42" transform="translate(580.800 103.000) scale(0.041000 -0.041000)"/>
  <path d="M34.40001464218016 0V28.199970715639683L150.40008785308095 38.89997803672976H187.3996485876762L304.7996632298564 28.199970715639683V0ZM122.00021963270237 0Q123.00021963270237 32.09994875236945 123.50021963270237 71.54993777073433Q124.00021963270237 110.9999267890992 124.50021963270237 152.34993044964423Q125.00021963270237 193.69993411018928 125.00021963270237 229.59991214691905V744.3999414312793L38.70008053199087 748.9999267890992V775.9999267890992L204.59947288151432 807.7998096516579L219.59947288151432 798.7998096516579L216.2994802026044 642.6998608992885V229.59991214691905Q216.2994802026044 193.69993411018928 216.7994802026044 152.34993044964423Q217.2994802026044 110.9999267890992 217.94947654205936 71.54993777073433Q218.59947288151432 32.09994875236945 219.59947288151432 0Z" fill="#173F42" transform="translate(595.058 103.000) scale(0.041000 -0.041000)"/>
  <path d="M223.29984625710833 -14.899978036729763Q173.69993411018928 -14.899978036729763 133.75001830272518 -4.5Q93.8001024952611 5.899978036729763 52.60013177962142 25.99992678909921L53.600058568720634 146.59976572511746H99.39986822037858L124.29977304620755 18.499963394549606L85.69993411018929 21.29991946800913V57.29991946800913Q114.79988286255873 38.09994875236945 145.4998901836488 27.949952412914488Q176.19989750473889 17.799956073459526 219.39994143127936 17.799956073459526Q284.80002928436033 17.799956073459526 318.10005856872067 43.90001464218016Q351.40008785308095 70.0000732109008 351.40008785308095 112.40008785308095Q351.40008785308095 148.60013177962142 329.10005856872067 171.95013544016646Q306.80002928436033 195.3001391007115 245.40001464218017 214.40016106398173L193.00007321090078 233.40016106398173Q131.60013177962142 254.8001757061619 95.70015374289166 289.9001244585313Q59.800175706161895 325.0000732109008 59.800175706161895 382Q59.800175706161895 446.99985357819844 109.5000732109008 490.6497767067526Q159.1999707156397 534.2996998353068 251.69978768838772 534.2996998353068Q297.49974376184724 534.2996998353068 333.39968519312663 523.4997071563969Q369.29962662440596 512.699714477487 407.69956805568535 489.9997071563968L403.4995973400456 380.7998828625587H361.8997584040274L335.4999633945496 499.99963394549604L368.79980965165794 493.1997510829373V461.0997291196671Q338.09980233056785 482.49974376184724 310.89975840402735 491.8497474223923Q283.6997144774869 501.1997510829373 252.19975108293733 501.1997510829373Q196.3996485876762 501.1997510829373 167.34963760604109 476.54971813803195Q138.29962662440596 451.89968519312663 138.29962662440596 412.49967055094646Q138.29962662440596 377.0995826978655 161.79966322985638 354.5995826978655Q185.29969983530677 332.0995826978655 240.49967055094643 313.69956805568535L291.7995900189556 295.69956805568535Q367.99956073459526 269.5995460924151 400.4995241291449 232.99959734004565Q432.9994875236945 196.3996485876762 432.9994875236945 142.79973644075716Q432.9994875236945 98.09987554146866 409.0995460924151 62.19993411018929Q385.1996046611357 26.29999267890992 338.7496888536716 5.700007321090078Q292.2997730462076 -14.899978036729763 223.29984625710833 -14.899978036729763Z" fill="#173F42" transform="translate(609.315 103.000) scale(0.041000 -0.041000)"/>
</svg>
