<svg xmlns="http://www.w3.org/2000/svg" viewBox="0 0 960 136" role="img" aria-labelledby="title">
  <title id="title">VibeSkills 如何把任务推进到可交付</title>
  <metadata>Lettering derived from Noto Serif SC and Bodoni Moda, licensed under SIL Open Font License 1.1.</metadata>
  <path d="M42.81775333683253 0V24.65867075851346H262.75252166307246V1475.3413292414866H42.81775333683253V1500H789.0523839848793V1475.3413292414866H549.1129003189178V24.65867075851346H789.0523839848793V0Z" fill="#B49A64" transform="translate(470.109 21.000) scale(0.011000 -0.011000)"/>
  <path d="M42.81775333683253 0V24.65867075851346H262.75252166307246V1475.3413292414866H42.81775333683253V1500H789.0523839848793V1475.3413292414866H549.1129003189178V24.65867075851346H789.0523839848793V0Z" fill="#B49A64" transform="translate(480.750 21.000) scale(0.011000 -0.011000)"/>
  <path d="M135 34 H420" fill="none" stroke="#8B8A83" stroke-width="0.75"/>
  <path d="M135.00 34.00 L137.97 35.19 L140.94 36.19 L143.91 36.86 L146.88 37.10 L149.84 36.86 L152.81 36.19 L155.78 35.19 L158.75 34.00 L161.72 32.81 L164.69 31.81 L167.66 31.14 L170.62 30.90 L173.59 31.14 L176.56 31.81 L179.53 32.81 L182.50 34.00 L185.47 35.19 L188.44 36.19 L191.41 36.86 L194.38 37.10 L197.34 36.86 L200.31 36.19 L203.28 35.19 L206.25 34.00 L209.22 32.81 L212.19 31.81 L215.16 31.14 L218.12 30.90 L221.09 31.14 L224.06 31.81 L227.03 32.81 L230.00 34.00 L232.97 35.19 L235.94 36.19 L238.91 36.86 L241.88 37.10 L244.84 36.86 L247.81 36.19 L250.78 35.19 L253.75 34.00 L256.72 32.81 L259.69 31.81 L262.66 31.14 L265.62 30.90 L268.59 31.14 L271.56 31.81 L274.53 32.81 L277.50 34.00 L280.47 35.19 L283.44 36.19 L286.41 36.86 L289.38 37.10 L292.34 36.86 L295.31 36.19 L298.28 35.19 L301.25 34.00 L304.22 32.81 L307.19 31.81 L310.16 31.14 L313.12 30.90 L316.09 31.14 L319.06 31.81 L322.03 32.81 L325.00 34.00 L327.97 35.19 L330.94 36.19 L333.91 36.86 L336.88 37.10 L339.84 36.86 L342.81 36.19 L345.78 35.19 L348.75 34.00 L351.72 32.81 L354.69 31.81 L357.66 31.14 L360.62 30.90 L363.59 31.14 L366.56 31.81 L369.53 32.81 L372.50 34.00 L375.47 35.19 L378.44 36.19 L381.41 36.86 L384.38 37.10 L387.34 36.86 L390.31 36.19 L393.28 35.19 L396.25 34.00 L399.22 32.81 L402.19 31.81 L405.16 31.14 L408.12 30.90 L411.09 31.14 L414.06 31.81 L417.03 32.81 L420.00 34.00" fill="none" stroke="#B49A64" stroke-opacity="0.86" stroke-width="0.72"/>
  <path d="M135.00 34.00 L137.97 32.81 L140.94 31.81 L143.91 31.14 L146.88 30.90 L149.84 31.14 L152.81 31.81 L155.78 32.81 L158.75 34.00 L161.72 35.19 L164.69 36.19 L167.66 36.86 L170.62 37.10 L173.59 36.86 L176.56 36.19 L179.53 35.19 L182.50 34.00 L185.47 32.81 L188.44 31.81 L191.41 31.14 L194.38 30.90 L197.34 31.14 L200.31 31.81 L203.28 32.81 L206.25 34.00 L209.22 35.19 L212.19 36.19 L215.16 36.86 L218.12 37.10 L221.09 36.86 L224.06 36.19 L227.03 35.19 L230.00 34.00 L232.97 32.81 L235.94 31.81 L238.91 31.14 L241.88 30.90 L244.84 31.14 L247.81 31.81 L250.78 32.81 L253.75 34.00 L256.72 35.19 L259.69 36.19 L262.66 36.86 L265.62 37.10 L268.59 36.86 L271.56 36.19 L274.53 35.19 L277.50 34.00 L280.47 32.81 L283.44 31.81 L286.41 31.14 L289.38 30.90 L292.34 31.14 L295.31 31.81 L298.28 32.81 L301.25 34.00 L304.22 35.19 L307.19 36.19 L310.16 36.86 L313.12 37.10 L316.09 36.86 L319.06 36.19 L322.03 35.19 L325.00 34.00 L327.97 32.81 L330.94 31.81 L333.91 31.14 L336.88 30.90 L339.84 31.14 L342.81 31.81 L345.78 32.81 L348.75 34.00 L351.72 35.19 L354.69 36.19 L357.66 36.86 L360.62 37.10 L363.59 36.86 L366.56 36.19 L369.53 35.19 L372.50 34.00 L375.47 32.81 L378.44 31.81 L381.41 31.14 L384.38 30.90 L387.34 31.14 L390.31 31.81 L393.28 32.81 L396.25 34.00 L399.22 35.19 L402.19 36.19 L405.16 36.86 L408.12 37.10 L411.09 36.86 L414.06 36.19 L417.03 35.19 L420.00 34.00" fill="none" stroke="#82545C" stroke-opacity="0.72" stroke-width="0.62"/>
  <path d="M163 40 H392" fill="none" stroke="#8B8A83" stroke-opacity="0.58" stroke-width="0.55"/>
  <path d="M540 34 H825" fill="none" stroke="#8B8A83" stroke-width="0.75"/>
  <path d="M540.00 34.00 L542.97 35.19 L545.94 36.19 L548.91 36.86 L551.88 37.10 L554.84 36.86 L557.81 36.19 L560.78 35.19 L563.75 34.00 L566.72 32.81 L569.69 31.81 L572.66 31.14 L575.62 30.90 L578.59 31.14 L581.56 31.81 L584.53 32.81 L587.50 34.00 L590.47 35.19 L593.44 36.19 L596.41 36.86 L599.38 37.10 L602.34 36.86 L605.31 36.19 L608.28 35.19 L611.25 34.00 L614.22 32.81 L617.19 31.81 L620.16 31.14 L623.12 30.90 L626.09 31.14 L629.06 31.81 L632.03 32.81 L635.00 34.00 L637.97 35.19 L640.94 36.19 L643.91 36.86 L646.88 37.10 L649.84 36.86 L652.81 36.19 L655.78 35.19 L658.75 34.00 L661.72 32.81 L664.69 31.81 L667.66 31.14 L670.62 30.90 L673.59 31.14 L676.56 31.81 L679.53 32.81 L682.50 34.00 L685.47 35.19 L688.44 36.19 L691.41 36.86 L694.38 37.10 L697.34 36.86 L700.31 36.19 L703.28 35.19 L706.25 34.00 L709.22 32.81 L712.19 31.81 L715.16 31.14 L718.12 30.90 L721.09 31.14 L724.06 31.81 L727.03 32.81 L730.00 34.00 L732.97 35.19 L735.94 36.19 L738.91 36.86 L741.88 37.10 L744.84 36.86 L747.81 36.19 L750.78 35.19 L753.75 34.00 L756.72 32.81 L759.69 31.81 L762.66 31.14 L765.62 30.90 L768.59 31.14 L771.56 31.81 L774.53 32.81 L777.50 34.00 L780.47 35.19 L783.44 36.19 L786.41 36.86 L789.38 37.10 L792.34 36.86 L795.31 36.19 L798.28 35.19 L801.25 34.00 L804.22 32.81 L807.19 31.81 L810.16 31.14 L813.12 30.90 L816.09 31.14 L819.06 31.81 L822.03 32.81 L825.00 34.00" fill="none" stroke="#B49A64" stroke-opacity="0.86" stroke-width="0.72"/>
  <path d="M540.00 34.00 L542.97 32.81 L545.94 31.81 L548.91 31.14 L551.88 30.90 L554.84 31.14 L557.81 31.81 L560.78 32.81 L563.75 34.00 L566.72 35.19 L569.69 36.19 L572.66 36.86 L575.62 37.10 L578.59 36.86 L581.56 36.19 L584.53 35.19 L587.50 34.00 L590.47 32.81 L593.44 31.81 L596.41 31.14 L599.38 30.90 L602.34 31.14 L605.31 31.81 L608.28 32.81 L611.25 34.00 L614.22 35.19 L617.19 36.19 L620.16 36.86 L623.12 37.10 L626.09 36.86 L629.06 36.19 L632.03 35.19 L635.00 34.00 L637.97 32.81 L640.94 31.81 L643.91 31.14 L646.88 30.90 L649.84 31.14 L652.81 31.81 L655.78 32.81 L658.75 34.00 L661.72 35.19 L664.69 36.19 L667.66 36.86 L670.62 37.10 L673.59 36.86 L676.56 36.19 L679.53 35.19 L682.50 34.00 L685.47 32.81 L688.44 31.81 L691.41 31.14 L694.38 30.90 L697.34 31.14 L700.31 31.81 L703.28 32.81 L706.25 34.00 L709.22 35.19 L712.19 36.19 L715.16 36.86 L718.12 37.10 L721.09 36.86 L724.06 36.19 L727.03 35.19 L730.00 34.00 L732.97 32.81 L735.94 31.81 L738.91 31.14 L741.88 30.90 L744.84 31.14 L747.81 31.81 L750.78 32.81 L753.75 34.00 L756.72 35.19 L759.69 36.19 L762.66 36.86 L765.62 37.10 L768.59 36.86 L771.56 36.19 L774.53 35.19 L777.50 34.00 L780.47 32.81 L783.44 31.81 L786.41 31.14 L789.38 30.90 L792.34 31.14 L795.31 31.81 L798.28 32.81 L801.25 34.00 L804.22 35.19 L807.19 36.19 L810.16 36.86 L813.12 37.10 L816.09 36.86 L819.06 36.19 L822.03 35.19 L825.00 34.00" fill="none" stroke="#82545C" stroke-opacity="0.72" stroke-width="0.62"/>
  <path d="M568 40 H797" fill="none" stroke="#8B8A83" stroke-opacity="0.58" stroke-width="0.55"/>
  <path d="M333.3001391007115 -6.200043926540474 75.60020499052222 730.1998242938381H179.19938502843337L396.39957537677543 78.49937770734329H378.2995534135052L382.5995460924151 93.19938502843337L587.9997071563969 730.1998242938381H633.6995680556853L385.399721798577 -6.200043926540474ZM5.299992678909921 699.6998608992885V730.1998242938381H304.69942163388373V699.8998316149282L162.59961930331588 688.1998975047389H139.89975840402738ZM464.59969251421666 699.8998316149282V730.1998242938381H709.8996851931266V700.8998316149282L602.4996705509465 688.1998975047389H586.0996559087663Z" fill="#E7E0D3" transform="translate(144.786 103.000) scale(0.041000 -0.041000)"/>
  <path d="M42.600058568720634 0V28.199970715639683L151.80010249526111 38.89997803672976H188.49967055094643L294.6996412665861 28.199970715639683V0ZM123.40023427488254 0Q124.40023427488254 24.599985357819843 125.25023793542758 65.69997071563968Q126.1002415959726 106.79995607345953 126.6002415959726 151.3999414312794Q127.1002415959726 195.99992678909922 127.1002415959726 229.59991214691905V292.0997291196671Q127.1002415959726 342.79973644075716 126.25023793542758 382.9498059911129Q125.40023427488254 423.09987554146863 123.40023427488254 460.1998975047389L36.10009517417103 464.6998608992885V490.09987554146863L207.99948752369448 531.8996851931266L220.2994802026044 523.5996925142167L217.69949484478454 381.4998901836488V229.59991214691905Q217.69949484478454 195.99992678909922 218.19949484478454 151.3999414312794Q218.69949484478454 106.79995607345953 219.34949118423953 65.69997071563968Q219.99948752369448 24.599985357819843 220.99948752369448 0ZM164.8998316149282 655Q139.69993411018928 655 121.90001464218015 671.3499304496443Q104.10009517417103 687.6998608992885 104.10009517417103 714.1997510829373Q104.10009517417103 740.0996559087663 121.90001464218015 756.7995900189555Q139.69993411018928 773.4995241291449 164.8998316149282 773.4995241291449Q189.6997144774869 773.4995241291449 208.04964492713117 756.7995900189555Q226.39957537677543 740.0996559087663 226.39957537677543 714.1997510829373Q226.39957537677543 687.6998608992885 208.04964492713117 671.3499304496443Q189.6997144774869 655 164.8998316149282 655Z" fill="#E7E0D3" transform="translate(173.394 103.000) scale(0.041000 -0.041000)"/>
  <path d="M41.600058568720634 0V28.199970715639683L123.00021963270237 35.29999267890992Q124.00021963270237 63.89997803672976 124.00021963270237 98.49996339454961Q124.00021963270237 133.09994875236944 124.50021963270237 167.6999341101893Q125.00021963270237 202.29991946800914 125.00021963270237 229.59991214691905V744.0999487523694L38.70008053199087 748.9999267890992V775.9999267890992L202.59947288151432 807.7998096516579L217.69949484478454 798.7998096516579L214.69949484478454 642.6998608992885V441.8996119822258L216.2994802026044 431.8996119822258V80.80002928436032V79.50003660545039L202.89961198222582 -10.099948752369446ZM375.899538771325 -14.899978036729763Q328.8996119822258 -14.899978036729763 282.54960832168075 8.599985357819843Q236.19960466113574 32.09994875236945 198.39957537677543 86.79995607345953H187.39957537677543L201.39950216587462 110.30006588981071Q238.29962662440596 69.69993411018929 272.79973644075716 52.39986822037858Q307.29984625710836 35.09980233056787 345.4999633945496 35.09980233056787Q386.80002928436033 35.09980233056787 421.8500768714458 56.9498425965633Q456.90012445853137 78.79988286255873 478.20015374289164 129.19989750473889Q499.500183027252 179.59991214691905 499.500183027252 264.29984625710836Q499.500183027252 377.09980233056785 456.9001244585313 431.3498572387434Q414.3000658898107 485.59991214691905 347.7999560734595 485.59991214691905Q324.59991214691905 485.59991214691905 299.99985357819844 478.7998828625588Q275.39979500947777 471.99985357819844 248.84974742239228 453.14981331220304Q222.29969983530677 434.2997730462076 190.19967787203652 398.49974376184724L178.99970715639685 427.49974376184724H192.89961198222582Q234.19960466113574 483.79973644075716 284.4995973400457 509.04971813803195Q334.7995900189556 534.2996998353068 386.49952412914485 534.2996998353068Q448.09950948696473 534.2996998353068 495.2994802026044 501.6497034958518Q542.4994509182441 468.9997071563968 569.8994289549738 408.4997437618472Q597.2994069917036 347.9997803672976 597.2994069917036 264.4998901836488Q597.2994069917036 183.19989750473889 569.3994289549738 119.9999267890992Q541.4994509182441 56.799956073459526 491.7994802026044 20.94998901836488Q442.09950948696473 -14.899978036729763 375.899538771325 -14.899978036729763Z" fill="#E7E0D3" transform="translate(187.530 103.000) scale(0.041000 -0.041000)"/>
  <path d="M305.499816972748 -14.899978036729763Q230.59991214691905 -14.899978036729763 171.89997803672975 15.599985357819843Q113.20004392654047 46.09994875236945 80.0500841925359 107.39990482582897Q46.900124458531344 168.6998608992885 46.900124458531344 258.8998316149282Q46.900124458531344 344.1997510829373 81.65006955035575 405.899721798577Q116.40001464218015 467.59969251421666 173.54993777073432 500.9496961747617Q230.6998608992885 534.2996998353068 297.39979500947777 534.2996998353068Q364.19967787203655 534.2996998353068 411.0996193033159 506.59972911966713Q457.99956073459526 478.8997584040274 482.74954243187005 431.59980233056785Q507.49952412914485 384.29984625710836 507.49952412914485 324.4998901836488Q507.49952412914485 288.39986822037855 501.19953145023493 264.1998975047389H88.59983893601826V295.99985357819844H373.2003367701436Q400.50025623815276 295.99985357819844 410.2002269537925 310.59980233056785Q419.90019766943215 325.1997510829373 419.90019766943215 357.1996046611357Q419.90019766943215 421.39957537677543 386.85011347689624 461.74965224822125Q353.80002928436033 502.0997291196671 294.5998389360183 502.0997291196671Q252.59969251421668 502.0997291196671 218.09958269786551 475.2996998353068Q183.59947288151432 448.49967055094646 163.29940699170362 396.8496742114915Q142.9993411018929 345.19967787203655 142.9993411018929 271.09980233056785Q142.9993411018929 190.1998242938381 167.24935940461808 138.04982795438315Q191.49937770734329 85.89983161492819 234.14941065224863 61.54982795438315Q276.799443597154 37.199824293838105 331.69949484478457 37.199824293838105Q384.69949484478457 37.199824293838105 423.54953511077997 56.09980233056787Q462.39957537677543 74.99978036729763 492.29962662440596 110.69978768838772L508.4995973400456 96.99978036729763Q476.0995826978655 44.59991214691905 425.24965224822125 14.849967055094645Q374.399721798577 -14.899978036729763 305.499816972748 -14.899978036729763Z" fill="#E7E0D3" transform="translate(214.415 103.000) scale(0.041000 -0.041000)"/>
  <path d="M266.499816972748 -16.499963394549606Q204.79980965165794 -16.499963394549606 147.59987554146866 0.400051247630552Q90.39994143127937 17.30006588981071 53.10002196327024 41.40001464218016L58.70000732109008 193.79980965165794H101.99985357819843L136.39957537677543 24.700153742891658L88.09980233056787 47.40008785308095L81.79988286255873 80.40001464218015Q130.39986822037858 45 168.59987554146866 32.59998535781984Q206.79988286255875 20.199970715639683 259.29991946800914 20.199970715639683Q339.59998535781983 20.199970715639683 388.20008053199086 56.5Q436.8001757061619 92.80002928436032 436.8001757061619 163.40016106398173Q436.8001757061619 199.50018302725198 423.85015008234666 225.95020865106727Q410.90012445853137 252.40023427488254 380.4000512476306 274.20026355924284Q349.89997803672975 296.0002928436032 296.5998389360183 317.50032944905354L253.4998901836488 335.70030016469326Q163.29999267890992 374.0002196327024 116.40005124763056 425.1001683850718Q69.50010981635118 476.2001171374413 69.50010981635118 554.2999926789099Q69.50010981635118 618.0999487523694 101.20008053199086 660.899904825829Q132.90005124763056 703.6998608992885 186.69997071563967 725.5498279543831Q240.4998901836488 747.3997950094778 306.79973644075716 747.3997950094778Q364.399721798577 747.3997950094778 408.3496376060411 733.0998023305679Q452.2995534135052 718.7998096516579 490.19953145023493 692.499816972748L484.99956073459526 548.1000219632703H440.29969983530674L406.7999560734595 709.9997071563969L456.89968519312663 686.6997876883877L460.5996193033159 653.1998975047389Q421.49967055094646 684.6998608992885 389.1996412665861 697.4998535781984Q356.8996119822258 710.2998462571084 313.7995900189556 710.2998462571084Q244.5995460924151 710.2998462571084 199.69949484478454 677.0498279543831Q154.79944359715398 643.7998096516579 154.79944359715398 579.399721798577Q154.79944359715398 523.1996778720365 187.69949484478454 489.3996485876762Q220.5995460924151 455.5996193033159 278.4995973400456 430.8996119822258L324.899538771325 411.7996632298564Q400.5995460924151 380.19967787203655 444.19953145023493 348.2996998353068Q487.79951680805476 316.399721798577 506.04949850532955 278.54975474348237Q524.2994802026044 240.69978768838772 524.2994802026044 188.59983893601827Q524.2994802026044 126.09987554146866 492.54949850532955 79.79991946800914Q460.79951680805476 33.4999633945496 402.94958635841056 8.499999999999998Q345.0996559087663 -16.499963394549606 266.499816972748 -16.499963394549606Z" fill="#E7E0D3" transform="translate(237.324 103.000) scale(0.041000 -0.041000)"/>
  <path d="M39.90005124763055 0V28.199970715639683L148.80010249526111 38.89997803672976H186.79966322985638L296.6996412665861 28.199970715639683V0ZM122.00021963270237 0Q123.00021963270237 19.800029284360317 123.50021963270237 48.2500183027252Q124.00021963270237 76.70000732109008 124.50021963270237 108.89997803672976Q125.00021963270237 141.09994875236944 125.00021963270237 172.49992678909922Q125.00021963270237 203.89990482582897 125.00021963270237 229.59991214691905V744.3999414312793L38.70008053199087 748.9999267890992V775.9999267890992L204.59947288151432 807.7998096516579L219.59947288151432 798.7998096516579L216.2994802026044 642.6998608992885V232.6998608992885Q216.2994802026044 206.09987554146866 216.2994802026044 173.89990482582897Q216.2994802026044 141.69993411018928 216.7994802026044 109.19997071563968Q217.2994802026044 76.70000732109008 217.94947654205936 48.2500183027252Q218.59947288151432 19.800029284360317 219.59947288151432 0ZM170.79988286255875 175.59998535781983V218.89997803672975H174.9998535781984L324.49967055094646 368.99985357819844L475.2994802026044 519.399721798577H526.3993557440731ZM455.5000366054504 0 283.8997584040274 299.59998535781983 347.89924592772184 360.2995534135052 535.299260569902 34.89997803672976 611.4993777073432 28.199970715639683V0ZM338.2995534135052 490.0997291196671V519.399721798577H585.6994216338837V490.0997291196671L468.9994143127937 480.1997510829373L449.799443597154 477.1997510829373Z" fill="#E7E0D3" transform="translate(261.094 103.000) scale(0.041000 -0.041000)"/>
  <path d="M42.600058568720634 0V28.199970715639683L151.80010249526111 38.89997803672976H188.49967055094643L294.6996412665861 28.199970715639683V0ZM123.40023427488254 0Q124.40023427488254 24.599985357819843 125.25023793542758 65.69997071563968Q126.1002415959726 106.79995607345953 126.6002415959726 151.3999414312794Q127.1002415959726 195.99992678909922 127.1002415959726 229.59991214691905V292.0997291196671Q127.1002415959726 342.79973644075716 126.25023793542758 382.9498059911129Q125.40023427488254 423.09987554146863 123.40023427488254 460.1998975047389L36.10009517417103 464.6998608992885V490.09987554146863L207.99948752369448 531.8996851931266L220.2994802026044 523.5996925142167L217.69949484478454 381.4998901836488V229.59991214691905Q217.69949484478454 195.99992678909922 218.19949484478454 151.3999414312794Q218.69949484478454 106.79995607345953 219.34949118423953 65.69997071563968Q219.99948752369448 24.599985357819843 220.99948752369448 0ZM164.8998316149282 655Q139.69993411018928 655 121.90001464218015 671.3499304496443Q104.10009517417103 687.6998608992885 104.10009517417103 714.1997510829373Q104.10009517417103 740.0996559087663 121.90001464218015 756.7995900189555Q139.69993411018928 773.4995241291449 164.8998316149282 773.4995241291449Q189.6997144774869 773.4995241291449 208.04964492713117 756.7995900189555Q226.39957537677543 740.0996559087663 226.39957537677543 714.1997510829373Q226.39957537677543 687.6998608992885 208.04964492713117 671.3499304496443Q189.6997144774869 655 164.8998316149282 655Z" fill="#E7E0D3" transform="translate(286.709 103.000) scale(0.041000 -0.041000)"/>
  <path d="M34.40001464218016 0V28.199970715639683L150.40008785308095 38.89997803672976H187.3996485876762L304.7996632298564 28.199970715639683V0ZM122.00021963270237 0Q123.00021963270237 32.09994875236945 123.50021963270237 71.54993777073433Q124.00021963270237 110.9999267890992 124.50021963270237 152.34993044964423Q125.00021963270237 193.69993411018928 125.00021963270237 229.59991214691905V744.3999414312793L38.70008053199087 748.9999267890992V775.9999267890992L204.59947288151432 807.7998096516579L219.59947288151432 798.7998096516579L216.2994802026044 642.6998608992885V229.59991214691905Q216.2994802026044 193.69993411018928 216.7994802026044 152.34993044964423Q217.2994802026044 110.9999267890992 217.94947654205936 71.54993777073433Q218.59947288151432 32.09994875236945 219.59947288151432 0Z" fill="#E7E0D3" transform="translate(300.844 103.000) scale(0.041000 -0.041000)"/>
  <path d="M34.40001464218016 0V28.199970715639683L150.40008785308095 38.89997803672976H187.3996485876762L304.7996632298564 28.199970715639683V0ZM122.00021963270237 0Q123.00021963270237 32.09994875236945 123.50021963270237 71.54993777073433Q124.00021963270237 110.9999267890992 124.50021963270237 152.34993044964423Q125.00021963270237 193.69993411018928 125.00021963270237 229.59991214691905V744.3999414312793L38.70008053199087 748.9999267890992V775.9999267890992L204.59947288151432 807.7998096516579L219.59947288151432 798.7998096516579L216.2994802026044 642.6998608992885V229.59991214691905Q216.2994802026044 193.69993411018928 216.7994802026044 152.34993044964423Q217.2994802026044 110.9999267890992 217.94947654205936 71.54993777073433Q218.59947288151432 32.09994875236945 219.59947288151432 0Z" fill="#E7E0D3" transform="translate(315.103 103.000) scale(0.041000 -0.041000)"/>
  <path d="M223.29984625710833 -14.899978036729763Q173.69993411018928 -14.899978036729763 133.75001830272518 -4.5Q93.8001024952611 5.899978036729763 52.60013177962142 25.99992678909921L53.600058568720634 146.59976572511746H99.39986822037858L124.29977304620755 18.499963394549606L85.69993411018929 21.29991946800913V57.29991946800913Q114.79988286255873 38.09994875236945 145.4998901836488 27.949952412914488Q176.19989750473889 17.799956073459526 219.39994143127936 17.799956073459526Q284.80002928436033 17.799956073459526 318.10005856872067 43.90001464218016Q351.40008785308095 70.0000732109008 351.40008785308095 112.40008785308095Q351.40008785308095 148.60013177962142 329.10005856872067 171.95013544016646Q306.80002928436033 195.3001391007115 245.40001464218017 214.40016106398173L193.00007321090078 233.40016106398173Q131.60013177962142 254.8001757061619 95.70015374289166 289.9001244585313Q59.800175706161895 325.0000732109008 59.800175706161895 382Q59.800175706161895 446.99985357819844 109.5000732109008 490.6497767067526Q159.1999707156397 534.2996998353068 251.69978768838772 534.2996998353068Q297.49974376184724 534.2996998353068 333.39968519312663 523.4997071563969Q369.29962662440596 512.699714477487 407.69956805568535 489.9997071563968L403.4995973400456 380.7998828625587H361.8997584040274L335.4999633945496 499.99963394549604L368.79980965165794 493.1997510829373V461.0997291196671Q338.09980233056785 482.49974376184724 310.89975840402735 491.8497474223923Q283.6997144774869 501.1997510829373 252.19975108293733 501.1997510829373Q196.3996485876762 501.1997510829373 167.34963760604109 476.54971813803195Q138.29962662440596 451.89968519312663 138.29962662440596 412.49967055094646Q138.29962662440596 377.0995826978655 161.79966322985638 354.5995826978655Q185.29969983530677 332.0995826978655 240.49967055094643 313.69956805568535L291.7995900189556 295.69956805568535Q367.99956073459526 269.5995460924151 400.4995241291449 232.99959734004565Q432.9994875236945 196.3996485876762 432.9994875236945 142.79973644075716Q432.9994875236945 98.09987554146866 409.0995460924151 62.19993411018929Q385.1996046611357 26.29999267890992 338.7496888536716 5.700007321090078Q292.2997730462076 -14.899978036729763 223.29984625710833 -14.899978036729763Z" fill="#E7E0D3" transform="translate(329.361 103.000) scale(0.041000 -0.041000)"/>
  <path d="M602.4993777073432 -18.800102495261108Q602.4993777073432 -23.30006588981071 594.3994655604242 -29.70000732109008Q586.2995534135052 -36.09994875236945 573.0996925142167 -41.24990848637401Q559.8998316149282 -46.39986822037858 542.8999780367297 -46.39986822037858H529.7000805319909V683.1999707156397V719.7997364407571L607.1993850284333 683.1999707156397H844.500183027252V653.7999560734595H602.4993777073432ZM803.7003001646932 683.1999707156397 845.5000366054504 730.2996998353068 935.299626624406 659.8000292843603Q930.299626624406 652.8000292843603 917.9995973400456 647.3000292843603Q905.6995680556853 641.8000292843603 889.2995534135052 638.5000366054504V5.99985357819842Q888.9995607345952 2.0998755414686565 878.7496522482212 -4.1500695503557505Q868.4997437618472 -10.400014642180158 854.1498865231038 -15.849967055094645Q839.8000292843603 -21.29991946800913 825.8001757061619 -21.29991946800913H814.4003074857833V683.1999707156397ZM850.5999853578198 117V87.59998535781985H570.4995241291449V117ZM87.30028552251308 292.2999926789099Q186.59991214691905 256.59991214691905 254.99970715639685 221.69989750473889Q323.39950216587465 186.79988286255875 365.949439936609 154.04990116528393Q408.4993777073433 121.29991946800914 429.69942163388373 93.49996339454961Q450.89946556042423 65.70000732109008 455.19956805568535 44.050047587085515Q459.49967055094646 22.400087853080947 451.44980599111295 9.350113476896224Q443.3999414312794 -3.699860899288499 428.00007321090084 -6.249871880923617Q412.60020499052223 -8.799882862558736 394.3002855225131 0.9000512476305529Q372.10031480687337 36.40001464218016 334.4003074857833 74.5Q296.70030016469326 112.59998535781985 251.15028918305813 149.94998901836487Q205.600278201423 187.29999267890992 158.45028186196805 220.20000732109008Q111.30028552251308 253.10002196327025 69.80032212796348 277.5000366054504ZM69.80032212796348 277.5000366054504Q83.80032212796348 317 100.45031846741844 373.6499597340046Q117.1003148068734 430.29991946800914 134.30032212796348 495.14988652310376Q151.50032944905357 559.9998535781984 166.70033677014362 624.7498352754733Q181.9003440912337 689.499816972748 193.45035507286883 745.8498206332931Q205.00036605450396 802.1998242938381 211.10038801777418 841.3998682203786L321.399721798577 821.0998755414687Q318.6997144774869 811.0998755414687 309.04971813803195 803.9998901836489Q299.399721798577 796.899904825829 271.5997657251175 796.9999267890992L285.0997291196671 812.2999194680091Q278.0997291196671 775.1998975047389 265.5997291196671 723.249908486374Q253.09972911966707 671.2999194680091 237.59972911966707 611.4499524129144Q222.09972911966707 551.5999853578198 204.59972911966707 489.30002928436033Q187.09972911966707 427.0000732109008 168.59972911966707 368.7001171374412Q150.09972911966707 310.4001610639817 132.79973644075716 261.20019034834206ZM356.6003514123238 623.6001317796214 399.10009517417103 668.2998462571084 477.3996485876762 597.6002049905222Q472.6996412665861 590.7002269537925 464.04964492713117 588.1002415959726Q455.3996485876762 585.5002562381528 439.7996632298564 583.2002635592429Q429.89968519312663 477.7002269537924 409.89972179857705 379.8002123116123Q389.8997584040274 281.90019766943215 347.999816972748 196.0501940088871Q306.09987554146863 110.20019034834206 231.59994875236944 40.85018668779702Q157.10002196327025 -28.499816972748025 39.500109816351184 -77.89983161492819L29.400087853080947 -64.09980233056787Q128.6002049905222 -9.899831614928182 191.8502598986978 62.45013544016646Q255.1003148068734 134.80010249526111 291.00032944905354 222.70008053199086Q326.9003440912337 310.6000585687206 343.7003367701436 411.65006955035574Q360.50032944905354 512.7000805319909 366.50032944905354 623.6001317796214ZM408.40001464218017 623.6001317796214V594.2001171374412H43.900124458531344L34.900124458531344 623.6001317796214Z" fill="#E7E0D3" transform="translate(360.213 103.000) scale(0.041000 -0.041000)"/>
  <path d="M328.2999926789099 725.8001024952611H825.5006222926568L877.9003440912337 793.7996632298564Q877.9003440912337 793.7996632298564 887.5002928436031 785.9997071563969Q897.1002415959726 778.1997510829373 911.9001610639818 765.8498206332931Q926.7000805319909 753.4998901836489 943.0 739.4999633945497Q959.2999194680091 725.5000366054504 972.6998608992885 712.400087853081Q968.6998608992885 696.400087853081 946.4998901836489 696.400087853081H336.2999926789099ZM793.1006076504766 721.6000585687207H868.2998462571084V26.499450918244072Q868.2998462571084 -0.9003440912337144 859.8498938441938 -23.700190348342055Q851.3999414312793 -46.5000366054504 825.250091513626 -61.09994875236944Q799.1002415959726 -75.6998608992885 744.1005344395758 -80.29984625710834Q742.4005271184857 -63.600058568720634 736.8005417606659 -49.700190348342055Q731.200556402846 -35.800322127963476 719.0005856872064 -27.500402659954347Q705.0005856872064 -18.200483191945214 681.1005710450262 -11.450538100120808Q657.200556402846 -4.700593008296401 615.2006296137467 -0.2006296137467949V14.599399670613522Q615.2006296137467 14.599399670613522 634.5006222926568 13.249396010068482Q653.8006149715667 11.899392349523442 680.5505966688415 10.399392349523442Q707.3005783661163 8.899392349523442 731.7505673844812 7.549388688978402Q756.200556402846 6.199385028433362 765.5005490817559 6.199385028433362Q781.7005930082964 6.199385028433362 787.4006003293865 12.049388688978402Q793.1006076504766 17.899392349523442 793.1006076504766 29.399428954973835ZM397.399721798577 254.39986822037858H621.2001903483421V225.6998608992885H397.399721798577ZM363.20019034834206 541.3998682203786V574.4996705509465L437.7995900189556 541.3998682203786H627.8003953388643V511.99985357819844H433.0995826978655V160.29969983530677Q433.0995826978655 157.09972911966707 424.44965956931134 151.4497693856625Q415.79973644075716 145.79980965165794 402.6998608992885 141.29984625710836Q389.59998535781983 136.79988286255875 374.5001098163512 136.79988286255875H363.20019034834206ZM592.5005490817559 541.3998682203786H581.5005490817559L620.1003148068734 585.299626624406L707.6999341101892 517.9999267890992Q702.9999267890992 511.9999267890992 690.9499158074641 506.1999341101893Q678.899904825829 500.3999414312794 662.599912146919 497.09994875236947V173.99970715639685Q661.899904825829 172.09972911966707 651.9499890183649 167.4497693856625Q642.0000732109008 162.79980965165794 628.550194008887 159.29984625710836Q615.1003148068734 155.79988286255875 603.3004319443147 155.79988286255875H592.5005490817559ZM161.20026355924284 540.8001757061619 191.40008785308095 579.3999414312793 265.79951680805476 552.0001464218016Q263.79951680805476 545.0001464218016 256.79951680805476 540.3501500823465Q249.7995168080548 535.7001537428916 236.19953145023493 533.4001610639817V-55.40001464218016Q235.899538771325 -58.29999267890992 226.44962296386092 -64.09994875236944Q216.99970715639685 -69.89990482582897 203.44984259656331 -74.74987188092362Q189.89997803672975 -79.59983893601826 174.90012445853134 -79.59983893601826H161.20026355924284ZM250.10053443957577 839.8998316149282 363.6997144774869 804.6000585687207Q359.6997144774869 796.0000732109008 350.399721798577 790.0000732109008Q341.0997291196671 784.0000732109008 324.0997291196671 785.0000732109008Q289.9997803672976 691.8001757061619 245.09983893601824 606.9001610639817Q200.19989750473889 522.0001464218016 147.7499816972748 451.10009517417103Q95.30006588981071 380.2000439265405 36.600204990522215 326.40001464218017L23.500183027251975 336.2000439265405Q67.00021963270237 396.7000073210901 109.40027088033293 477.4999633945496Q151.80032212796348 558.2999194680091 188.6003880177742 651.2998828625587Q225.4004539075849 744.2998462571084 250.10053443957577 839.8998316149282Z" fill="#E7E0D3" transform="translate(401.613 103.000) scale(0.041000 -0.041000)"/>
  <path d="M413.59998535781983 743.1999707156397V776.1997510829373V778.1997510829373L497.7992971753524 743.1999707156397H485.4993044964425V60.79951680805479Q485.4993044964425 38.39950216587462 499.04931547807763 29.149483863149428Q512.5993264597128 19.899465560424233 558.5994728815143 19.899465560424233H705.9997803672976Q757.1000219632703 19.899465560424233 793.0001464218016 20.74946922096927Q828.9002708803329 21.59947288151431 845.0002928436031 23.29948020260439Q856.300285522513 24.29948020260439 863.1502525776077 27.79948020260439Q870.0002196327024 31.29948020260439 874.2001903483421 38.59947288151431Q881.7001537428916 51.89946556042423 891.9500988347161 90.14952046859983Q902.2000439265405 128.39957537677543 913.5999853578198 180.99963394549604H926.4000146421802L929 33.19945823933415Q950.4998901836489 26.799516808054786 958.2998462571084 19.099582697865497Q966.0998023305679 11.399648587676207 966.0998023305679 0.39972179857699786Q966.0998023305679 -13.800175706161896 954.999816972748 -23.800102495261104Q943.8998316149282 -33.80002928436031 915.4998535781984 -39.34996705509464Q887.0998755414687 -44.89990482582897 835.6498865231038 -47.599875541468656Q784.1998975047389 -50.29984625710834 702.7998828625588 -50.29984625710834H551.4995973400456Q499.399721798577 -50.29984625710834 468.9498059911129 -42.39986822037858Q438.4998901836488 -34.499890183648816 426.04993777073435 -13.899978036729763Q413.59998535781983 6.699934110189289 413.59998535781983 44.19975108293731ZM452.2995534135052 743.1999707156397H832.9005637239361L866.8003221279635 786.3996485876762L952.8998316149282 720.8999780367297Q948.5998389360183 714.8999780367297 939.0998389360183 710.0999853578198Q929.5998389360183 705.2999926789099 914.2998462571084 703.2999926789099V327.09994875236947Q914.2998462571084 322.19997071563967 897.0999853578198 313.10002196327025Q879.9001244585313 304.0000732109008 853.6004246232246 304.0000732109008H841.5005490817559V713.7999560734595H452.2995534135052ZM630.5002562381528 743.1999707156397H700.999633945496V392.3001391007115H630.5002562381528ZM451.7995900189556 408.60013177962145H870.1002415959726V379.2001171374413H451.7995900189556ZM38.70015374289166 622.8999780367297H292.90019766943215L335.6000585687206 682.3996485876762Q335.6000585687206 682.3996485876762 343.6500329449053 675.5496815325816Q351.7000073210901 668.699714477487 364.04997437618476 657.4497693856625Q376.3999414312794 646.1998242938381 389.749908486374 633.5998755414687Q403.09987554146863 620.9999267890992 413.6998608992885 609.4999633945496Q410.39986822037855 593.4999633945496 388.09987554146863 593.4999633945496H46.70015374289166ZM190.4004539075849 839.8998316149282 298.6997876883877 828.7998828625588Q296.9997803672976 818.4998901836489 288.4997803672976 810.9998901836489Q279.9997803672976 803.4998901836489 261.6997876883877 801.1998975047389V22.29962662440597Q261.6997876883877 -6.200190348342055 255.04982795438315 -27.35007687144583Q248.39986822037858 -48.4999633945496 226.29999267890992 -61.39990482582897Q204.20011713744125 -74.29984625710834 158.00036605450396 -79.59983893601826Q157.00036605450396 -62.29999267890992 152.65036239395891 -48.45009883471607Q148.30035873341387 -34.600204990522215 139.00036605450396 -25.600278201423002Q129.30035873341387 -16.200336770143636 111.70033677014364 -10.25038435722915Q94.1003148068734 -4.3004319443146635 64.90034409123372 -0.10046122867497687V15.699568055685337Q64.90034409123372 15.699568055685337 78.30035873341387 14.699568055685337Q91.70037337559403 13.699568055685337 110.10038801777418 12.499560734595258Q128.50040265995435 11.29955341350518 145.55041364158944 10.29955341350518Q162.60042462322457 9.29955341350518 168.9004173021345 9.29955341350518Q182.00043926540474 9.29955341350518 186.20044658649482 13.499560734595258Q190.4004539075849 17.699568055685337 190.4004539075849 28.499597340045653ZM31.90019766943213 330.2993337808028Q64.20019034834206 337.0993630651631 122.2501281190764 351.34941797333875Q180.30006588981072 365.5994728815143 254.29999267890992 385.74954243187005Q328.29991946800914 405.8996119822258 406.09987554146863 427.19967787203655L410.1998975047389 413.29962662440596Q356.5998389360183 386.29969983530674 278.3498572387435 347.149813312203Q200.09987554146866 307.9999267890992 95.29999267890992 260.70008053199086Q90.10002196327024 242.20011713744125 73.0000732109008 235.80010249526111Z" fill="#E7E0D3" transform="translate(443.013 103.000) scale(0.041000 -0.041000)"/>
  <path d="M290.29984625710836 393.7000073210901H822.6004978341253L874.5002562381528 459.8996119822258Q874.5002562381528 459.8996119822258 883.8002123116123 452.2496522482212Q893.1001683850718 444.59969251421666 907.4500988347161 432.54975474348237Q921.8000292843603 420.499816972748 937.7999560734595 406.7998828625588Q953.7998828625588 393.09994875236947 967.1998242938381 380.2999926789099Q965.8998316149282 372.2999926789099 958.5998389360183 368.64999633945496Q951.2998462571084 365 940.9998535781984 365H298.29984625710836ZM311.09987554146863 -7.799882862558736H797.8005417606659L849.600278201423 58.99970715639684Q849.600278201423 58.99970715639684 859.0502306143375 51.34974742239227Q868.500183027252 43.69978768838771 883.3501134768962 31.49985357819842Q898.2000439265405 19.29991946800913 914.1999707156397 5.5999853578198415Q930.1998975047389 -8.099948752369446 943.5998389360183 -21.199897504738892Q941.8998316149282 -28.499890183648816 934.7998462571084 -32.499890183648816Q927.6998608992885 -36.499890183648816 916.6998608992885 -36.499890183648816H319.09987554146863ZM809.1003880177742 817.5997657251174 898.5996925142167 738.3004319443147Q891.399721798577 731.7004465864948 877.6497767067526 731.4004539075848Q863.8998316149282 731.1004612286749 843.2999194680091 738.3004319443147Q778.2999194680091 719.8003953388643 692.3499304496443 701.5003294490537Q606.3999414312793 683.2002635592429 512.0999487523694 668.8501866877971Q417.7999560734595 654.5001098163511 327.09994875236947 646.2000439265405L322.9999267890992 663.2001171374412Q386.59998535781983 676.0000732109008 455.40005124763053 694.3000292843603Q524.2001171374412 712.5999853578198 589.9501720456169 733.6999341101894Q655.7002269537925 754.7998828625588 712.3002855225131 776.4498425965633Q768.9003440912337 798.0998023305679 809.1003880177742 817.5997657251174ZM167.50032944905357 540.8001757061619 200.90012445853134 584.1998975047389 272.0995826978655 558.100095174171Q270.0995826978655 551.100095174171 262.7495790373205 546.4500988347161Q255.39957537677543 541.8001024952611 242.49959734004565 539.5001098163511V-55.40001464218016Q242.19960466113574 -58.29999267890992 232.74968885367164 -64.09994875236944Q223.29977304620755 -69.89990482582897 209.749908486374 -74.74987188092362Q196.20004392654047 -79.59983893601826 181.20019034834206 -79.59983893601826H167.50032944905357ZM251.9004905130353 839.8998316149282 365.49967055094646 804.6000585687207Q362.19967787203655 796.0000732109008 352.89968519312663 790.0000732109008Q343.59969251421666 784.0000732109008 326.59969251421666 785.0000732109008Q292.49974376184724 692.500183027252 248.64981331220298 607.9501720456169Q204.79988286255875 523.4001610639817 153.39997803672978 451.8001024952611Q102.0000732109008 380.2000439265405 44.70022695379245 326.40001464218017L30.90019766943213 336.2000439265405Q73.70022695379245 396.7000073210901 115.40027088033293 477.8499670550946Q157.1003148068734 558.9999267890992 192.50036605450396 651.9998901836489Q227.9004173021345 744.9998535781984 251.9004905130353 839.8998316149282ZM571.3003587334139 718.100095174171H647.7995900189555V-24.29991946800913Q647.4995973400456 -24.29991946800913 630.8497474223923 -24.29991946800913Q614.1998975047389 -24.29991946800913 584.6002049905222 -24.29991946800913H571.3003587334139Z" fill="#E7E0D3" transform="translate(484.413 103.000) scale(0.041000 -0.041000)"/>
  <path d="M559.999633945496 398.40008785308095Q557.5996193033159 385.70008053199086 547.8996119822258 380.10009517417103Q538.1996046611357 374.5001098163512 522.6996412665861 373.5001098163512Q513.3996485876762 295.60013177962145 487.99967055094646 226.0001464218016Q462.59969251421666 156.40016106398173 411.8497474223923 98.10016838507181Q361.09980233056785 39.800175706161895 275.84989384419384 -5.549827954383144Q190.59998535781983 -50.89983161492818 60.900124458531344 -80.99985357819843L53.80010249526111 -67.1998242938381Q168.90012445853134 -30.199897504738892 242.6001683850718 20.500036605450394Q316.3002123116123 71.19997071563968 358.20026355924284 133.04993777073432Q400.10031480687337 194.89990482582897 418.35036971504894 266.1499231285542Q436.60042462322457 337.3999414312794 439.80046854976507 415.10002196327025ZM724.9003440912337 279.80002928436033 767.5000366054504 322.9997803672976 848.4995973400456 255.3001391007115Q843.8996119822258 250.0001464218016 834.0496083216808 246.05015740343669Q824.1996046611357 242.1001683850718 808.8996119822258 240.8001757061619Q800.999633945496 130.00021963270237 782.2496522482213 56.60016838507182Q763.4996705509465 -16.799882862558736 730.8997584040274 -41.39986822037858Q711.8998316149282 -55.99985357819842 684.1998975047388 -63.79984625710834Q656.4999633945496 -71.59983893601826 621.500183027252 -71.59983893601826Q621.8001757061619 -55.89997803672976 617.8501866877971 -42.050084192535905Q613.9001976694321 -28.200190348342055 601.4002342748826 -18.500256238152765Q589.300285522513 -10.200336770143634 560.0503038252382 -2.450391678319227Q530.8003221279635 5.29955341350518 499.9004173021345 9.799516808054786V26.099582697865497Q523.700373375594 24.099582697865497 554.2003367701436 21.74957903732046Q584.7003001646932 19.399575376775417 610.600278201423 17.549571716230375Q636.5002562381528 15.699568055685337 646.8002489170627 15.699568055685337Q672.0002928436031 15.699568055685337 683.0002928436031 25.099582697865497Q701.4003074857833 40.59961930331589 715.0003294490535 108.84974742239228Q728.6003514123238 177.09987554146866 735.6003514123238 279.80002928436033ZM775.5002562381528 279.80002928436033V250.40001464218017H122.20004392654047L113.20004392654047 279.80002928436033ZM690.7005197973956 729.4999633945496 746.1001683850718 775.3996485876762 826.1996778720365 698.2001171374412Q819.4996705509465 691.3001391007115 809.4996705509465 689.3501500823465Q799.4996705509465 687.4001610639817 779.4996705509465 686.1001683850718Q706.4997437618472 588.6002049905222 598.6498499176533 517.1001683850718Q490.7999560734595 445.60013177962145 351.5500475870855 400.4000512476306Q212.3001391007115 355.19997071563967 44.50018302725198 333.99985357819844L38.40016106398174 350.1998975047389Q188.80024891706267 382.1998975047389 318.5503038252383 434.34989384419384Q448.3003587334139 486.4998901836488 547.1503989994094 560.249908486374Q646.0004392654048 633.9999267890992 702.9004905130353 729.4999633945496ZM308.89990482582897 700.1998242938381Q351.4998901836488 635.3997950094778 419.49985357819844 588.4497327802121Q487.499816972748 541.4996705509465 574.4997803672976 509.7495790373205Q661.4997437618472 477.9994875236945 761.9997437618472 459.9494033311586Q862.4997437618472 441.8993191386227 969.7998096516579 433.89924592772184L969.0998023305679 422.299260569902Q944.1000219632703 416.69934842298295 927.9001244585313 398.54953511077997Q911.7002269537925 380.399721798577 905.2002635592429 351.89997803672975Q764.500183027252 372.89997803672975 646.0001098163511 412.7499816972748Q527.5000366054504 452.59998535781983 438.19997071563967 519.5999487523694Q348.89990482582897 586.599912146919 293.99985357819844 688.6997876883877ZM468.69942163388373 812.5999853578198Q465.69942163388373 805.2999926789099 457.69942163388373 802.0Q449.69942163388373 798.7000073210901 430.0994362760639 801.1000219632703Q393.49952412914485 740.400087853081 339.4496229638609 679.100095174171Q285.399721798577 617.8001024952611 220.24983527547323 565.5000732109008Q155.09994875236944 513.2000439265405 84.70008053199086 478L73.50003660545039 489.90005124763053Q131.00007321090078 531.2000439265405 184.35011347689624 589.9000146421802Q237.70015374289167 648.5999853578198 281.5501940088871 715.0499377707343Q325.4002342748825 781.4998901836489 351.600278201423 845.2998462571084ZM729.4003074857833 729.4999633945496V700.0999487523694H303.3000658898107L329.0000732109008 729.4999633945496Z" fill="#E7E0D3" transform="translate(525.813 103.000) scale(0.041000 -0.041000)"/>
  <path d="M628.4000146421802 845.2998462571084Q678.2997730462075 824.3997950094778 706.7996632298564 799.7998096516579Q735.2995534135052 775.1998242938381 746.4495497529601 750.5998755414687Q757.5995460924152 725.9999267890992 755.7496156427709 705.5499743761848Q753.8996851931266 685.1000219632703 742.7497986700228 672.7000439265405Q731.599912146919 660.3000658898108 715.2000439265405 660.0000366054504Q698.8001757061619 659.7000073210901 682.0002928436031 675.4998901836489Q682.2002635592429 703.3998682203786 672.9502086510672 733.1998608992885Q663.7001537428916 762.9998535781984 648.750091513626 790.6498499176535Q633.8000292843603 818.2998462571084 616.8999780367297 838.499816972748ZM614.5995460924152 798.7999560734595Q611.199531450235 790.7999560734595 603.34952778969 786.5499743761848Q595.4995241291449 782.2999926789099 576.4995241291449 783.1000219632703Q556.0995826978655 729.0001464218016 523.6496668904014 664.600278201423Q491.1997510829373 600.2004099810445 447.0498645598335 537.7005197973956Q402.89997803672975 475.2006296137468 348.00014642180156 425.5006955035575L336.90012445853137 435.60071746682775Q366.90012445853137 478.10060765047655 392.6501427612566 529.3504795314002Q418.4001610639817 580.6003514123238 439.350186687797 634.3502232932474Q460.3002123116123 688.100095174171 476.10024159597265 740.0999853578198Q491.9002708803329 792.0998755414687 500.70030016469326 835.3997950094778ZM505.899538771325 -54.59998535781984Q505.899538771325 -58.09994875236945 489.99967055094646 -67.64988652310377Q474.09980233056785 -77.1998242938381 448.3000658898107 -77.1998242938381H436.60020499052223V604.1003880177742L467.89990482582897 665.1998975047389L518.4995241291449 644.4000146421802H505.899538771325ZM730.199531450235 644.4000146421802V4.400087853080948H661.0001464218016V644.4000146421802ZM888.9001976694321 85.39972179857699Q888.9001976694321 85.39972179857699 897.5501574034367 78.39975840402738Q906.2001171374412 71.39979500947778 919.6000585687207 60.29984625710834Q933 49.19989750473889 947.6999341101894 35.949952412914485Q962.3998682203786 22.70000732109008 974.499816972748 10.900051247630554Q971.1998242938381 -5.099948752369447 949.2998462571084 -5.099948752369447H464.9997803672976V24.30006588981071H841.9004173021345ZM846.400087853081 297.2997730462076Q846.400087853081 297.2997730462076 860.5000366054504 285.6998242938381Q874.5999853578198 274.09987554146863 893.7999194680092 257.24994509182443Q912.9998535781984 240.40001464218017 928.7998096516579 224.60005856872064Q924.7998096516579 208.60005856872064 902.1998242938381 208.60005856872064H468.9997803672976V238.00007321090078H802.2002635592429ZM846.400087853081 498.9997071563968Q846.400087853081 498.9997071563968 860.5000366054504 487.39975840402735Q874.5999853578198 475.79980965165794 893.7999194680092 458.9498792020137Q912.9998535781984 442.09994875236947 928.7998096516579 426.2999926789099Q924.7998096516579 410.2999926789099 902.1998242938381 410.2999926789099H468.9997803672976V439.7000073210901H802.2002635592429ZM872.6001317796214 704.2996998353068Q872.6001317796214 704.2996998353068 881.100095174171 697.4497327802121Q889.6000585687207 690.5997657251174 903.0 679.6498133122029Q916.3999414312793 668.6998608992885 931.1498865231038 655.599912146919Q945.8998316149282 642.4999633945496 957.6997876883877 631Q953.6997876883877 615 931.0998023305679 615H462.1998242938381V644.4000146421802H825.8003221279635ZM33.40016106398174 317.89939234952345Q61.00014642180158 327.2994069917036 113.30010249526111 347.3994289549738Q165.60005856872064 367.49945091824407 231.55001098163513 394.7994802026044Q297.4999633945496 422.09950948696473 366.6999341101893 450.899538771325L371.7999560734595 437.69949484478457Q325.09987554146863 406.39957537677543 256.3498572387434 359.34971081694187Q187.59983893601827 312.29984625710836 96.49989018364882 256.5000366054504Q93.59991214691905 237.40008785308095 77.09994875236944 229.00007321090078ZM293.499816972748 827.7998828625588Q291.79980965165794 817.4998901836489 283.29980965165794 810.349893844194Q274.79980965165794 803.1998975047389 256.499816972748 800.899904825829V27.69949484478455Q256.499816972748 -1.700300164693239 249.6998608992885 -24.100168385071818Q242.89990482582897 -46.5000366054504 220.15003294490535 -59.99996339454961Q197.40016106398173 -73.49989018364882 148.60042462322457 -78.6998608992885Q146.60042462322457 -60.30006588981071 141.60042462322457 -45.700190348342055Q136.60042462322457 -31.1003148068734 127.00043926540474 -21.500402659954347Q116.00043926540474 -11.200483191945214 96.95042828376961 -4.4505381001208075Q77.9004173021345 2.2994069917035986 44.70044658649482 7.199385028433362V23.2994069917036Q44.70044658649482 23.2994069917036 59.9004539075849 22.2994069917036Q75.10046122867497 21.2994069917036 95.95046488922002 19.599399670613522Q116.80046854976506 17.899392349523442 135.80046854976507 16.899392349523442Q154.80046854976507 15.899392349523442 162.100461228675 15.899392349523442Q175.2004831919452 15.899392349523442 179.9004905130353 20.399392349523442Q184.60049783412538 24.899392349523442 184.60049783412538 35.69942163388376V839.5998389360183ZM323.80002928436033 668.5996925142167Q323.80002928436033 668.5996925142167 337.0 657.1497401013022Q350.19997071563967 645.6997876883877 368.19993411018925 629.6498499176533Q386.1998975047389 613.599912146919 400.09987554146863 598.0999487523694Q396.7998828625587 582.0999487523694 374.7998828625587 582.0999487523694H47.40016106398174L39.40016106398174 611.4999633945496H281.60013177962145Z" fill="#E7E0D3" transform="translate(567.213 103.000) scale(0.041000 -0.041000)"/>
  <path d="M566.2995534135052 824.6998608992885Q564.2995534135052 814.6998608992885 556.9495497529601 807.5498645598336Q549.5995460924152 800.3998682203786 530.5995460924152 798.3998682203786V437.399721798577Q530.2995534135052 358.49974376184724 515.2995900189555 290.94976938566253Q500.29962662440596 223.3997950094778 462.7996998353068 167.59980233056785Q425.2997730462076 111.79980965165794 357.09987554146863 66.29977304620755L344.1998242938381 76.39979500947778Q412.80002928436033 147.09972911966707 436.35011347689624 235.29969983530677Q459.90019766943215 323.49967055094646 459.90019766943215 437.399721798577V836.499816972748ZM802.4997437618472 823.9998535781984Q800.7997364407571 813.9998535781984 793.2997364407571 806.8498572387434Q785.7997364407571 799.6998608992885 766.4997437618472 796.6998608992885V73.8996119822258Q766.4997437618472 69.29962662440597 758.0498279543831 62.94965956931133Q749.599912146919 56.599692514216684 736.8000292843603 52.099729119667074Q724.0001464218016 47.59976572511747 710.2002635592429 47.59976572511747H696.700373375594V835.7998096516579ZM884.7000805319909 448.2994802026044Q884.7000805319909 448.2994802026044 893.5500475870856 440.7995168080548Q902.4000146421802 433.2995534135052 916.0499743761848 421.6996046611357Q929.6999341101892 410.0996559087663 944.6498865231038 396.69971447748696Q959.5998389360183 383.2997730462076 971.7998096516579 370.79980965165794Q968.499816972748 354.79980965165794 945.1998242938381 354.79980965165794H307.6999341101893L299.6999341101893 384.1998242938381H837.5002562381528ZM852.8999780367297 690.7997364407571Q852.8999780367297 690.7997364407571 861.5999487523694 683.4497693856624Q870.2999194680091 676.0998023305679 883.7998828625587 664.6498499176535Q897.2998462571084 653.1998975047389 911.949805991113 640.0999487523695Q926.5997657251174 627 938.7997364407571 614.5000366054504Q934.7997364407571 598.5000366054504 912.4997437618472 598.5000366054504H338.89997803672975L330.89997803672975 627.9000512476306H806.6001317796214ZM223.6998608992885 153.29984625710833Q236.8998316149282 153.29984625710833 244.04982795438315 150.4998535781984Q251.1998242938381 147.6998608992885 259.09980233056785 136.9998535781984Q287.79980965165794 96.79973644075716 321.7497986700228 73.79969983530677Q355.6997876883877 50.799663229856364 400.94976938566253 39.799663229856364Q446.1997510829373 28.799663229856364 506.39972179857705 25.549681532581562Q566.5996925142167 22.29969983530676 646.0996559087663 22.29969983530676Q729.9997071563969 22.59969251421668 804.6997510829374 23.3996851931266Q879.3997950094778 24.199677872036524 965.3998682203786 27.799663229856364V15.399648587676207Q940.5000366054504 9.99970715639684 926.9501354401665 -7.150106155806145Q913.4002342748826 -24.29991946800913 909.8002489170627 -48.69971447748692Q866.400087853081 -48.69971447748692 819.8500768714459 -48.69971447748692Q773.3000658898108 -48.69971447748692 724.2500549081756 -48.69971447748692Q675.2000439265405 -48.69971447748692 622.4998901836489 -48.69971447748692Q541.3998682203786 -48.69971447748692 482.1498499176534 -42.24976206457244Q422.8998316149282 -35.799809651657945 379.84982063329306 -19.099875541468656Q336.79980965165794 -2.399941431279368 304.09980233056785 28.90001464218016Q271.39979500947777 60.19997071563969 242.69978768838772 109.59998535781985Q234.79980965165794 121.9999267890992 226.84982063329306 120.9999267890992Q218.8998316149282 119.9999267890992 210.29984625710833 109.59998535781985Q198.8998316149282 93.70000732109008 178.29980965165794 66.70004392654047Q157.69978768838772 39.70008053199087 135.4497693856625 9.950135440166463Q113.19975108293731 -19.799809651657945 95.8997584040274 -45.499743761847235Q100.99978036729763 -59.099729119667074 89.1998242938381 -68.79973644075716L26.3001391007115 15.899611982225812Q50.40008785308095 32.99963394549605 80.50003660545039 55.99967055094645Q110.59998535781985 78.99970715639684 139.59994875236944 101.34974742239228Q168.59991214691905 123.69978768838772 191.4998901836488 138.49981697274802Q214.39986822037858 153.29984625710833 223.6998608992885 153.29984625710833ZM101.70015374289166 822.899904825829Q162.59991214691905 794.9997803672976 199.84978402784267 764.5997657251174Q237.0996559087663 734.1997510829373 255.149630284951 705.2497986700228Q273.1996046611357 676.2998462571084 275.7496522482212 652.4499158074641Q278.29969983530674 628.5999853578198 269.59980233056785 613.3500402659954Q260.89990482582897 598.100095174171 245.0000366054504 595.750091513626Q229.1001683850718 593.400087853081 209.40030748578332 607.5999853578198Q201.00029284360315 640.6999341101892 181.15025257760772 678.6499231285541Q161.30021231161228 716.599912146919 136.95017204561685 752.599912146919Q112.60013177962142 788.599912146919 90.20011713744127 816.4998901836489ZM249.69964126658613 142.70000732109008 180.40030748578332 111.10002196327024V471.8001024952611H42.20011713744127L36.20011713744127 500.5001098163512H165.80032212796348L207.00007321090078 555.6997876883877L298.4995973400456 480.3001391007115Q293.5996193033159 474.70015374289164 281.9496229638609 469.4001610639817Q270.29962662440596 464.1001683850718 249.69964126658613 460.8001757061619Z" fill="#E7E0D3" transform="translate(608.613 103.000) scale(0.041000 -0.041000)"/>
  <path d="M371.09980233056785 683.5998389360183Q367.39979500947777 673.9998535781984 353.1997876883877 668.7498718809236Q338.9997803672976 663.4998901836489 313.79980965165794 671.9999267890992L343.49974376184724 679.599912146919Q319.09980233056785 647.9999267890992 280.4498792020137 609.9998901836489Q241.79995607345953 571.9998535781984 198.05001098163513 535.9997803672976Q154.30006588981072 499.9997071563968 114.0000732109008 474.29962662440596L113.30006588981071 485.99963394549604H155.1998242938381Q152.1998242938381 450.5998389360183 141.39986822037858 428.9499890183649Q130.59991214691905 407.3001391007115 116.70000732109008 400.8001757061619L72.60020499052222 498.1996046611357Q72.60020499052222 498.1996046611357 83.45017204561685 500.29959001895554Q94.3001391007115 502.39957537677543 99.20011713744127 504.99956073459526Q122.50018302725198 521.5996193033159 147.1002415959726 549.1496668904015Q171.70030016469323 576.699714477487 194.80035873341387 608.4997437618472Q217.9004173021345 640.2997730462075 236.50047587085515 670.3997950094778Q255.10053443957577 700.499816972748 266.0005856872063 722.8998316149282ZM98.8001024952611 489.69956805568535Q135.90012445853134 491.0995826978655 201.3501500823466 495.1996046611357Q266.8001757061619 499.29962662440596 350.1502159721573 506.0996559087663Q433.50025623815276 512.8996851931266 523.1003148068734 519.9997071563969L524.8003221279635 503.7996632298564Q455.70015374289164 488.79973644075716 349.30002928436033 465.3998682203786Q242.89990482582897 442 119.09987554146866 419.4001610639817ZM949.8997584040274 811.0998023305679Q948.1997510829373 800.7998096516579 939.8497474223923 793.6498133122029Q931.4997437618472 786.499816972748 913.1997510829373 784.1998242938381V21.199604661135734Q913.1997510829373 -7.300212311612292 906.2497986700228 -28.75009151362599Q899.2998462571084 -50.19997071563969 875.9499890183649 -63.59991214691905Q852.6001317796214 -76.99985357819843 803.2004099810445 -81.89983161492819Q800.9004173021345 -64.29999267890992 796.1004246232246 -50.8001024952611Q791.3004319443147 -37.30021231161229 780.4004539075848 -27.600278201423002Q769.5004758708551 -18.600351412323793 749.3504795314002 -11.650398999409306Q729.2004831919452 -4.70044658649482 695.9005637239361 -0.5004758708551371V14.5995460924151Q695.9005637239361 14.5995460924151 711.6505454212108 13.5995460924151Q727.4005271184857 12.5995460924151 749.4505014946703 10.749542431870061Q771.5004758708551 8.899538771325023 791.0504502470399 7.899538771325023Q810.6004246232246 6.899538771325023 818.2004099810445 6.899538771325023Q831.6004246232246 6.899538771325023 836.4504282837697 11.749542431870061Q841.3004319443147 16.5995460924151 841.3004319443147 28.399575376775417V822.8997584040274ZM759.2999194680091 734.4997437618472Q757.599912146919 724.4997437618472 749.749908486374 717.3497474223923Q741.899904825829 710.1997510829373 722.599912146919 707.8997584040274V157.4998901836488Q722.599912146919 153.19989750473889 714.1499963394549 147.49992678909922Q705.7000805319909 141.79995607345953 692.9001976694321 137.7499816972748Q680.1003148068734 133.70000732109008 666.3004319443147 133.70000732109008H652.8005417606659V745.9997071563969ZM41.00007321090079 35.7993703862532Q77.40008785308095 40.19938502843336 136.30010249526111 49.34941797333872Q195.20011713744125 58.49945091824407 269.95013544016643 71.54949850532958Q344.70015374289164 84.5995460924151 430.3001757061619 99.99959734004565Q515.9001976694321 115.39964858767621 605.1002415959726 131.59969251421668L608.5002562381528 115.69964126658613Q522.6000585687207 85.69971447748692 400.34993044964426 47.349820633293064Q278.09980233056785 8.99992678909921 109.29977304620755 -38.59991214691905Q101.79980965165794 -57.19989750473889 84.59983893601826 -62.19989750473889ZM397.0002196327024 645.5998389360183Q458.90005124763053 620.5997657251174 496.74998169727473 591.0997657251174Q534.599912146919 561.5997657251174 552.7999194680091 532.449805991113Q570.9999267890992 503.29984625710836 573.7999926789099 478.69989750473894Q576.6000585687207 454.09994875236947 568.2501647245267 438.09998535781983Q559.9002708803329 422.10002196327025 544.4503916783192 419.35000366054504Q529.0005124763055 416.59998535781983 510.2006296137468 431.09987554146863Q505.7005930082964 466.29984625710836 486.1505088157605 504.4498425965633Q466.60042462322457 542.5998389360183 439.8503331095986 577.5998389360183Q413.1002415959726 612.5998389360183 385.90019766943215 637.499816972748ZM384.499816972748 425.7998828625587Q382.79980965165794 415.09987554146863 375.0497913489328 408.2498718809236Q367.2997730462076 401.39986822037855 348.2997730462076 399.09987554146863V61.39964858767621L275.50047587085515 45.09980233056787V435.99985357819844ZM490.6003514123238 356.1996046611357Q490.6003514123238 356.1996046611357 499.45031846741847 348.8496376060411Q508.3002855225131 341.49967055094646 522.2502379354275 329.89972179857705Q536.2001903483421 318.2997730462076 551.1501427612566 305.1998242938381Q566.100095174171 292.09987554146863 577.9000512476306 279.59991214691905Q574.6000585687207 263.59991214691905 552.0000732109008 263.59991214691905H74.90019766943213L66.90019766943213 292.9999267890992H442.4005271184857ZM518.8005417606659 811.9995607345952Q518.8005417606659 811.9995607345952 527.8005051552154 804.6495936795006Q536.800468549765 797.299626624406 550.9004173021344 785.8496742114914Q565.000366054504 774.399721798577 580.2503111463284 761.2997730462075Q595.5002562381528 748.1998242938381 608.3002123116123 735.6998608992885Q605.0002196327024 719.6998608992885 581.4002342748826 719.6998608992885H56.30006588981071L48.30006588981071 749.0998755414687H470.0007321090079Z" fill="#E7E0D3" transform="translate(650.014 103.000) scale(0.041000 -0.041000)"/>
  <path d="M39.10016838507182 761.4999633945496H806.1005344395758L860.9002708803329 829.5996193033159Q860.9002708803329 829.5996193033159 870.8502232932474 821.7496522482213Q880.8001757061619 813.8996851931266 896.8001024952612 801.6497401013022Q912.8000292843603 789.3997950094778 929.7499450918244 775.1498499176535Q946.6998608992885 760.899904825829 961.3997950094778 748.0999487523694Q958.0998023305679 732.0999487523694 934.1998242938381 732.0999487523694H47.800175706161895ZM729.5004758708551 755.5001098163511H804.699714477487V31.499524129144863Q804.699714477487 3.399721798576998 796.1497767067526 -19.950135440166463Q787.5998389360183 -43.29999267890992 759.7000073210901 -58.949915807464095Q731.8001757061619 -74.59983893601826 674.3005051552154 -79.59983893601826Q673.0005124763055 -61.40001464218016 665.6005344395758 -47.15014276125655Q658.200556402846 -32.900270880332926 644.5006222926568 -23.900344091233713Q629.0006588981071 -14.200409981044423 602.9506845219223 -7.100461228674977Q576.9007101457377 -0.0005124763055306403 530.2008492464491 5.799443597153996V20.59947288151431Q530.2008492464491 20.59947288151431 545.0508163015438 19.59947288151431Q559.9007833566385 18.59947288151431 582.1507284484628 17.09947288151431Q604.4006735402872 15.599472881514309 628.8006149715666 14.099472881514309Q653.200556402846 12.599472881514309 673.1505088157605 11.599472881514309Q693.1004612286749 10.599472881514309 701.0004392654048 10.599472881514309Q717.800468549765 10.599472881514309 723.65047221031 16.59947288151431Q729.5004758708551 22.59947288151431 729.5004758708551 35.39950216587462ZM156.90019766943215 559.7998828625588V593.3996485876762L233.0995094869647 559.7998828625588H499.3002855225131V530.3998682203786H228.0995094869647V142.79980965165794Q228.0995094869647 139.59983893601827 219.49959734004565 133.6498865231038Q210.8996851931266 127.69993411018929 197.34982063329306 123.04997437618472Q183.79995607345953 118.40001464218015 167.80010249526111 118.40001464218015H156.90019766943215ZM460.10053443957577 559.7998828625588H450.10053443957577L489.0002928436032 602.5996193033159L574.9998535781984 537.0999487523694Q570.6998608992885 531.0999487523694 559.4498425965633 525.4499524129144Q548.1998242938381 519.7999560734595 532.8998316149282 516.7999560734595V179.79988286255875Q532.8998316149282 177.19989750473889 522.1499231285542 171.79991946800914Q511.40001464218017 166.39994143127936 497.35015008234666 161.99996339454958Q483.3002855225131 157.59998535781983 471.5004026599544 157.59998535781983H460.10053443957577ZM191.09987554146866 264.29991946800914H496.70015374289164V235.59991214691905H191.09987554146866Z" fill="#E7E0D3" transform="translate(691.413 103.000) scale(0.041000 -0.041000)"/>
  <path d="M864.7003001646932 733.4995973400456Q864.7003001646932 733.4995973400456 874.1502525776077 724.999633945496Q883.6002049905222 716.4996705509465 898.4501354401665 703.099729119667Q913.3000658898108 689.6997876883877 929.4499890183649 674.6498499176533Q945.599912146919 659.599912146919 958.2998462571084 646.4999633945496Q954.9998535781984 630.4999633945496 931.3998682203786 630.4999633945496H58.80010249526111L50.10009517417103 659.8999780367297H812.200556402846ZM389.0002928436032 841.9998535781984Q448.5000366054504 830.4997437618472 484.5499011652839 810.4497327802121Q520.5997657251174 790.399721798577 537.749725459122 767.2997730462075Q554.8996851931266 744.1998242938381 557.399721798577 723.0499011652839Q559.8997584040274 701.8999780367297 550.4998535781983 687.3500402659954Q541.0999487523694 672.8001024952611 524.5500841925359 669.5001098163511Q508.0002196327024 666.2001171374412 487.3003587334139 678.8000292843603Q481.00036605450396 706.5999853578198 463.75034775177875 735.4499524129144Q446.50032944905354 764.2999194680091 424.0503038252383 790.1498865231038Q401.600278201423 815.9998535781984 379.20026355924284 834.1998242938381ZM612.0002196327024 597.1998242938381Q698.1999707156397 572.4996705509465 754.3998316149282 541.5996559087663Q810.5996925142167 510.6996412665861 841.8996485876762 478.7996998353068Q873.1996046611357 446.8997584040274 884.3496376060411 418.8498572387434Q895.4996705509465 390.7999560734595 890.5997657251175 371.0000366054504Q885.6998608992885 351.2001171374413 868.7999926789099 345.1501427612566Q851.9001244585313 339.1001683850718 828.300285522513 351.40008785308095Q814.7003001646932 381.10002196327025 789.600278201423 413.54997437618476Q764.5002562381528 445.9999267890992 732.5502306143376 477.84989384419384Q700.6002049905222 509.6998608992885 666.8501866877971 537.9498425965633Q633.1001683850718 566.1998242938381 602.2001903483421 587.3997950094778ZM319.80002928436033 427.40001464218017Q358 337 422.89994143127933 265.84993044964426Q487.7998828625587 194.6998608992885 573.5498279543831 141.6497767067526Q659.2997730462075 88.59969251421668 760.7997730462075 52.899611982225814Q862.2997730462075 17.199531450234943 972.6998608992885 -2.7005197973956108L970.6998608992885 -14.70051979739561Q944.8001024952611 -18.4004539075849 926.0502306143375 -35.100278201423Q907.3003587334139 -51.80010249526111 898.6004246232246 -79.59983893601826Q755.7003001646932 -42.39986822037858 638.8002123116123 22.10013177962142Q521.9001244585313 86.60013177962142 436.65006955035574 184.0001098163512Q351.40001464218017 281.40008785308095 303.59998535781983 415.89997803672975ZM415.8996119822258 556.7000805319909Q412.1996046611357 549.7000805319909 404.04960832168075 546.250091513626Q395.8996119822258 542.8001024952611 378.5996193033159 545.2001171374412Q349.29969983530674 505.500183027252 305.1497767067526 463.6502159721573Q260.99985357819844 421.8002489170627 206.1499597340046 384.3002489170627Q151.30006588981072 346.8002489170627 89.30021231161228 320.7002269537924L80.50018302725198 334.20026355924284Q130.40016106398173 369.500183027252 175.00018302725198 416.3500768714458Q219.6002049905222 463.19997071563967 254.95024525651763 513.5998755414687Q290.3002855225131 563.9997803672976 310.10031480687337 608.9997071563969ZM754.5996925142167 397.3002123116123Q750.5996925142167 389.3002123116123 741.5996925142167 385.8502232932474Q732.5996925142167 382.4002342748825 713.8996851931266 384.8002489170627Q663.4997437618472 275.50025623815276 573.4497693856624 181.8502598986978Q483.39979500947777 88.20026355924284 351.89986822037855 20.450245256517647Q220.39994143127936 -47.29977304620755 43.900124458531344 -79.59983893601826L37.500109816351184 -64.79980965165794Q198.00007321090078 -20.499890183648816 319.2501281190764 54.5000366054504Q440.500183027252 129.4999633945496 522.3502598986978 228.64992312855418Q604.2003367701436 327.7998828625587 647.1003880177742 443.1998975047389Z" fill="#E7E0D3" transform="translate(732.813 103.000) scale(0.041000 -0.041000)"/>
  <path d="M311.9999267890992 580.7999560734595H833.8001757061619L882.7000073210901 647.0995826978655Q882.7000073210901 647.0995826978655 891.5499743761848 639.449622963861Q900.3999414312793 631.7996632298564 913.8498938441938 619.549718138032Q927.2998462571084 607.2997730462075 942.3997950094778 593.7498352754733Q957.4997437618472 580.1998975047389 969.699714477487 567.3999414312793Q966.399721798577 552.0999487523694 943.0997291196671 552.0999487523694H319.9999267890992ZM712.700373375594 827.6998608992885 826.1996046611357 815.599912146919Q824.4995973400456 804.599912146919 816.4995973400456 797.599912146919Q808.4995973400456 790.599912146919 789.4995973400456 788.2999194680091V34.599546092415096Q789.4995973400456 4.899758404027393 781.0496449271311 -18.350113476896222Q772.5996925142167 -41.59998535781984 743.7498352754733 -56.649923128554164Q714.8999780367297 -71.6998608992885 654.5002562381528 -78.29984625710834Q650.5002562381528 -58.5000366054504 643.7002635592428 -44.40016106398174Q636.9002708803329 -30.300285522513082 622.7003001646932 -20.300358733413873Q607.1003148068734 -11.00043926540474 579.100278201423 -3.0504868524902538Q551.1002415959726 4.8994655604242325 504.0002928436032 11.399428954973835V26.899465560424233Q504.0002928436032 26.899465560424233 519.3502965041482 25.899465560424233Q534.7003001646932 24.899465560424233 558.2003001646932 23.199458239334152Q581.7003001646932 21.499450918244072 607.0503038252382 19.799443597153996Q632.4003074857833 18.099436276063916 652.9003074857833 17.099436276063916Q673.4003074857833 16.099436276063916 682.4003074857833 16.099436276063916Q700.6003514123238 16.099436276063916 706.6503623939589 21.999450918244072Q712.700373375594 27.899465560424233 712.700373375594 41.39950216587462ZM386.2000439265405 451.1997510829373Q451.29984625710836 419.0996559087663 491.3997584040274 384.3996485876762Q531.4996705509465 349.6996412665861 550.9996705509465 317.39968519312663Q570.4996705509465 285.0997291196671 574.099729119667 258.89979500947777Q577.6997876883877 232.6998608992885 569.1998975047388 216.39990482582897Q560.7000073210901 200.09994875236944 544.3001391007115 197.1999341101893Q527.9002708803329 194.29991946800914 507.8003953388643 209.79980965165794Q500.00036605450396 247.59976572511746 478.0002928436032 289.8997584040274Q456.0002196327024 332.1997510829373 428.3001391007115 372.6997510829373Q400.6000585687206 413.1997510829373 374.40001464218017 444.0997291196671ZM172.80032212796348 536.1000219632703 202.00021963270237 573.7998828625588 277.39957537677543 546.2001171374412Q275.39957537677543 539.2001171374412 268.0495717162304 534.5501207979862Q260.69956805568535 529.9001244585313 247.79959001895557 527.6001317796214V-55.29999267890992Q247.49959734004565 -58.19997071563969 238.04968153258156 -64.19993411018929Q228.59976572511746 -70.1998975047389 215.04990116528393 -75.04986455983354Q201.5000366054504 -79.89983161492819 186.50018302725198 -79.89983161492819H172.80032212796348ZM259.50047587085515 839.8998316149282 373.7996632298564 804.6000585687207Q370.49967055094646 795.3000658898108 361.19967787203655 789.3000658898108Q351.89968519312663 783.3000658898108 334.89968519312663 784.3000658898108Q300.0997291196671 689.7001537428916 255.1997876883877 604.1001317796214Q210.29984625710833 518.5001098163511 157.49992678909922 446.5500475870855Q104.70000732109008 374.59998535781983 45.300139100711505 319.3999414312794L31.500109816351184 329.19997071563967Q75.70015374289166 390.3999414312794 118.80021231161228 472.5999121469191Q161.90027088033293 554.7998828625588 198.35033310959858 648.8498572387434Q234.80039533886426 742.8998316149282 259.50047587085515 839.8998316149282Z" fill="#E7E0D3" transform="translate(774.213 103.000) scale(0.041000 -0.041000)"/>
</svg>
