<svg xmlns="http://www.w3.org/2000/svg" viewBox="0 0 960 94" role="img" aria-labelledby="title">
  <title id="title">Organize the right local Skills and carry complex tasks through to delivery.</title>
  <metadata>Lettering derived from Bona Nova Italic, licensed under SIL Open Font License 1.1.</metadata>
  <path d="M403 680Q462 680 515.5 659.0Q569 638 611.0 597.0Q653 556 677.0 497.0Q701 438 701 362Q701 275 670.0 205.5Q639 136 587.0 87.0Q535 38 471.0 11.5Q407 -15 341 -15Q282 -15 228.5 6.0Q175 27 133.0 68.0Q91 109 67.0 168.0Q43 227 43 303Q43 390 74.0 459.5Q105 529 157.0 578.0Q209 627 273.0 653.5Q337 680 403 680ZM345 18Q422 18 484.5 60.0Q547 102 584.0 180.0Q621 258 621 364Q621 499 560.5 573.0Q500 647 399 647Q323 647 260.0 605.0Q197 563 160.0 485.5Q123 408 123 301Q123 166 183.5 92.0Q244 18 345 18Z" fill="#D8D0C2" transform="translate(251.207 37.000) scale(0.039000 -0.039000)"/>
  <path d="M76 -15Q78 6 82.0 43.5Q86 81 90.0 126.0Q94 171 98.0 214.5Q102 258 104.5 292.0Q107 326 107 341Q107 361 98 361Q84 361 49 323L33 339Q59 371 92.5 403.5Q126 436 160 455Q166 442 169.0 421.5Q172 401 172 376Q172 346 169.0 317.0Q166 288 160 250H162Q204 331 245.0 385.0Q286 439 329 455Q347 440 350.5 412.0Q354 384 349.5 349.0Q345 314 337 278H314Q318 313 315.0 336.5Q312 360 293 360Q281 360 262.0 346.0Q243 332 212 279Q182 229 161.5 159.0Q141 89 141 0Q108 -3 76 -15Z" fill="#D8D0C2" transform="translate(280.223 37.000) scale(0.039000 -0.039000)"/>
  <path d="M165 -235Q122 -235 83.5 -223.5Q45 -212 21.0 -191.5Q-3 -171 -3 -143Q-3 -113 24.0 -89.5Q51 -66 82 -50L102 -60Q83 -79 75.0 -96.0Q67 -113 67 -124Q67 -143 85.0 -158.0Q103 -173 133.0 -182.0Q163 -191 197 -191Q230 -191 261.0 -183.5Q292 -176 312.0 -161.5Q332 -147 332 -128Q332 -115 312 -105L103 -6Q89 1 95 18L124 97Q95 105 72.5 128.5Q50 152 50 199Q50 242 70.0 287.0Q90 332 123.5 370.0Q157 408 198.5 431.5Q240 455 284 455Q308 455 332.5 446.0Q357 437 372 415Q406 425 418 515H438Q459 485 459 454Q459 424 438.0 410.0Q417 396 384 394Q391 374 391 349Q391 308 373.5 265.5Q356 223 325.5 185.5Q295 148 257.0 123.5Q219 99 177 94Q157 92 150.5 82.0Q144 72 144 63Q144 53 151.0 47.5Q158 42 171 36L367 -56Q378 -61 387.5 -70.0Q397 -79 397 -94Q397 -112 380.5 -136.0Q364 -160 333.0 -182.5Q302 -205 259.5 -220.0Q217 -235 165 -235ZM183 131Q215 131 241.0 149.5Q267 168 285.5 198.0Q304 228 313.5 262.0Q323 296 323 326Q323 364 307.5 390.0Q292 416 257 416Q226 416 200.5 398.0Q175 380 156.5 351.0Q138 322 128.0 288.0Q118 254 118 222Q118 183 133.5 157.0Q149 131 183 131Z" fill="#D8D0C2" transform="translate(294.146 37.000) scale(0.039000 -0.039000)"/>
  <path d="M129 -15Q82 -15 61.0 21.0Q40 57 40 106Q40 149 55.5 197.0Q71 245 98.0 290.5Q125 336 159.5 373.5Q194 411 232.0 433.0Q270 455 307 455Q329 455 344.0 447.0Q359 439 372 428L431 455Q415 307 409.0 216.0Q403 125 403 98Q403 87 406.5 76.5Q410 66 419 66Q429 66 445.0 77.5Q461 89 480 108L497 92Q468 60 428.5 30.5Q389 1 356 -15Q337 10 337 60Q337 92 340.0 121.5Q343 151 350 203H348Q299 103 242.0 44.0Q185 -15 129 -15ZM159 50Q181 50 207.5 69.5Q234 89 260.0 121.5Q286 154 308.0 193.5Q330 233 343.0 274.0Q356 315 356 350Q356 366 352.0 383.5Q348 401 336.0 413.0Q324 425 300 425Q262 425 228.0 396.5Q194 368 167.5 323.0Q141 278 125.5 228.0Q110 178 110 134Q110 95 121.0 72.5Q132 50 159 50Z" fill="#D8D0C2" transform="translate(311.149 37.000) scale(0.039000 -0.039000)"/>
  <path d="M76 -15Q78 6 82.0 43.5Q86 81 90.0 126.0Q94 171 98.0 214.5Q102 258 104.5 292.0Q107 326 107 341Q107 361 98 361Q84 361 49 323L33 339Q59 371 92.5 403.5Q126 436 160 455Q166 442 169.0 421.5Q172 401 172 376Q172 337 167.0 298.0Q162 259 154 208H156Q195 278 237.0 331.0Q279 384 318.5 416.0Q358 448 389 455Q403 444 410.0 423.0Q417 402 417 376Q417 354 413.5 316.5Q410 279 405.0 237.5Q400 196 396.5 159.0Q393 122 393 99Q393 88 396.5 77.0Q400 66 410 66Q420 66 435.5 77.5Q451 89 470 108L487 92Q459 60 420.0 30.5Q381 1 348 -15Q328 11 328 64Q328 90 331.5 129.0Q335 168 340.0 210.0Q345 252 348.5 287.0Q352 322 352 341Q352 362 349.0 370.5Q346 379 338 379Q322 379 291.5 347.5Q261 316 226 264Q193 215 167.0 152.0Q141 89 141 0Q108 -3 76 -15Z" fill="#D8D0C2" transform="translate(331.118 37.000) scale(0.039000 -0.039000)"/>
  <path d="M121 -15Q101 11 101 64Q101 90 104.5 129.0Q108 168 113.0 210.0Q118 252 121.5 287.0Q125 322 125 341Q125 361 116 361Q106 361 79.0 340.0Q52 319 26 291L10 307Q28 329 58.0 359.0Q88 389 121.0 416.0Q154 443 178 455Q184 442 187.0 421.5Q190 401 190 376Q190 354 186.5 316.5Q183 279 178.0 237.5Q173 196 169.5 159.0Q166 122 166 99Q166 88 169.5 77.0Q173 66 183 66Q205 66 259 125L275 109Q258 87 231.0 62.5Q204 38 175.0 17.5Q146 -3 121 -15ZM163 560Q147 560 139.0 569.5Q131 579 131 593Q131 616 150.5 635.0Q170 654 193 654Q210 654 217.5 644.5Q225 635 225 621Q225 596 205.5 578.0Q186 560 163 560Z" fill="#D8D0C2" transform="translate(350.969 37.000) scale(0.039000 -0.039000)"/>
  <path d="M296 -15Q266 -15 235.5 -6.0Q205 3 177.5 15.5Q150 28 127.0 37.0Q104 46 88 46Q63 46 50.5 31.5Q38 17 35 0H10Q18 45 49.5 91.5Q81 138 124.5 185.0Q168 232 212.0 279.0Q256 326 288 373V375Q278 371 267.5 369.5Q257 368 247 368Q216 368 187.0 376.5Q158 385 132 385Q116 385 104.5 373.0Q93 361 72 329L51 337Q68 375 84.0 405.5Q100 436 116 455Q140 455 169.5 448.0Q199 441 229.5 433.5Q260 426 287 426Q316 426 329.0 435.0Q342 444 347 455H370Q361 412 328.5 367.0Q296 322 252.5 276.0Q209 230 166.0 183.5Q123 137 94 92V90Q100 92 109.5 93.0Q119 94 125 94Q152 94 180.5 84.5Q209 75 235.0 65.0Q261 55 281 55Q305 55 313.5 74.5Q322 94 317 120H340Q344 104 346.5 87.0Q349 70 349 53Q349 25 338.5 5.0Q328 -15 296 -15Z" fill="#D8D0C2" transform="translate(362.201 37.000) scale(0.039000 -0.039000)"/>
  <path d="M160 -15Q133 -15 105.0 -1.0Q77 13 58.5 46.0Q40 79 40 134Q40 194 63.0 251.0Q86 308 124.0 354.5Q162 401 208.5 428.0Q255 455 301 455Q346 455 360.5 436.5Q375 418 375 393Q375 347 341.0 306.5Q307 266 247.0 225.0Q187 184 109 136Q116 93 138.5 71.5Q161 50 190 50Q230 50 267.5 74.0Q305 98 335 142L356 134Q334 95 301.5 61.0Q269 27 232.5 6.0Q196 -15 160 -15ZM107 166Q107 164 107 165Q300 285 300 378Q300 398 290.5 406.5Q281 415 266 415Q239 415 211.0 393.0Q183 371 159.5 334.5Q136 298 121.5 254.0Q107 210 107 166Z" fill="#D8D0C2" transform="translate(377.137 37.000) scale(0.039000 -0.039000)"/>
  <path d="M95 -15Q85 -2 81.0 17.5Q77 37 77 63Q77 98 81.0 155.0Q85 212 90.5 279.0Q96 346 100 410H17V440H102Q107 481 110.5 516.0Q114 551 115 575L184 590Q181 562 176.0 523.0Q171 484 166 440H286V410H192Q175 410 169.0 403.5Q163 397 161 378Q157 322 152.5 268.5Q148 215 145.0 171.5Q142 128 142 102Q142 88 146.0 77.0Q150 66 159 66Q181 66 235 125L251 109Q234 87 207.0 62.5Q180 38 150.5 17.5Q121 -3 95 -15Z" fill="#D8D0C2" transform="translate(401.591 37.000) scale(0.039000 -0.039000)"/>
  <path d="M62 -15Q67 36 73.5 107.5Q80 179 87.0 259.0Q94 339 100.0 418.0Q106 497 109.5 564.5Q113 632 113 676Q113 696 104 696Q94 696 75.0 676.5Q56 657 30 628L13 644Q31 667 57.0 696.5Q83 726 112.0 752.0Q141 778 166 790Q172 777 175.0 756.5Q178 736 178 711Q178 657 173.5 588.5Q169 520 162.0 444.0Q155 368 147 290H149Q174 333 212.5 370.5Q251 408 292.5 431.5Q334 455 366 455Q397 455 419.5 427.0Q442 399 442 322Q442 268 429.5 210.0Q417 152 392.5 101.5Q368 51 332.0 19.0Q296 -13 250 -15Q243 6 248.0 29.5Q253 53 271 64Q277 59 285.0 54.5Q293 50 301 50Q320 50 333.5 74.5Q347 99 355.5 137.0Q364 175 368.0 216.0Q372 257 372 291Q372 354 359.0 374.0Q346 394 325 394Q301 394 272.0 377.0Q243 360 216.0 331.0Q189 302 170 265Q143 213 136.0 151.0Q129 89 127 0Q94 -3 62 -15Z" fill="#D8D0C2" transform="translate(412.667 37.000) scale(0.039000 -0.039000)"/>
  <path d="M160 -15Q133 -15 105.0 -1.0Q77 13 58.5 46.0Q40 79 40 134Q40 194 63.0 251.0Q86 308 124.0 354.5Q162 401 208.5 428.0Q255 455 301 455Q346 455 360.5 436.5Q375 418 375 393Q375 347 341.0 306.5Q307 266 247.0 225.0Q187 184 109 136Q116 93 138.5 71.5Q161 50 190 50Q230 50 267.5 74.0Q305 98 335 142L356 134Q334 95 301.5 61.0Q269 27 232.5 6.0Q196 -15 160 -15ZM107 166Q107 164 107 165Q300 285 300 378Q300 398 290.5 406.5Q281 415 266 415Q239 415 211.0 393.0Q183 371 159.5 334.5Q136 298 121.5 254.0Q107 210 107 166Z" fill="#D8D0C2" transform="translate(431.582 37.000) scale(0.039000 -0.039000)"/>
  <path d="M76 -15Q78 6 82.0 43.5Q86 81 90.0 126.0Q94 171 98.0 214.5Q102 258 104.5 292.0Q107 326 107 341Q107 361 98 361Q84 361 49 323L33 339Q59 371 92.5 403.5Q126 436 160 455Q166 442 169.0 421.5Q172 401 172 376Q172 346 169.0 317.0Q166 288 160 250H162Q204 331 245.0 385.0Q286 439 329 455Q347 440 350.5 412.0Q354 384 349.5 349.0Q345 314 337 278H314Q318 313 315.0 336.5Q312 360 293 360Q281 360 262.0 346.0Q243 332 212 279Q182 229 161.5 159.0Q141 89 141 0Q108 -3 76 -15Z" fill="#D8D0C2" transform="translate(456.034 37.000) scale(0.039000 -0.039000)"/>
  <path d="M121 -15Q101 11 101 64Q101 90 104.5 129.0Q108 168 113.0 210.0Q118 252 121.5 287.0Q125 322 125 341Q125 361 116 361Q106 361 79.0 340.0Q52 319 26 291L10 307Q28 329 58.0 359.0Q88 389 121.0 416.0Q154 443 178 455Q184 442 187.0 421.5Q190 401 190 376Q190 354 186.5 316.5Q183 279 178.0 237.5Q173 196 169.5 159.0Q166 122 166 99Q166 88 169.5 77.0Q173 66 183 66Q205 66 259 125L275 109Q258 87 231.0 62.5Q204 38 175.0 17.5Q146 -3 121 -15ZM163 560Q147 560 139.0 569.5Q131 579 131 593Q131 616 150.5 635.0Q170 654 193 654Q210 654 217.5 644.5Q225 635 225 621Q225 596 205.5 578.0Q186 560 163 560Z" fill="#D8D0C2" transform="translate(469.957 37.000) scale(0.039000 -0.039000)"/>
  <path d="M165 -235Q122 -235 83.5 -223.5Q45 -212 21.0 -191.5Q-3 -171 -3 -143Q-3 -113 24.0 -89.5Q51 -66 82 -50L102 -60Q83 -79 75.0 -96.0Q67 -113 67 -124Q67 -143 85.0 -158.0Q103 -173 133.0 -182.0Q163 -191 197 -191Q230 -191 261.0 -183.5Q292 -176 312.0 -161.5Q332 -147 332 -128Q332 -115 312 -105L103 -6Q89 1 95 18L124 97Q95 105 72.5 128.5Q50 152 50 199Q50 242 70.0 287.0Q90 332 123.5 370.0Q157 408 198.5 431.5Q240 455 284 455Q308 455 332.5 446.0Q357 437 372 415Q406 425 418 515H438Q459 485 459 454Q459 424 438.0 410.0Q417 396 384 394Q391 374 391 349Q391 308 373.5 265.5Q356 223 325.5 185.5Q295 148 257.0 123.5Q219 99 177 94Q157 92 150.5 82.0Q144 72 144 63Q144 53 151.0 47.5Q158 42 171 36L367 -56Q378 -61 387.5 -70.0Q397 -79 397 -94Q397 -112 380.5 -136.0Q364 -160 333.0 -182.5Q302 -205 259.5 -220.0Q217 -235 165 -235ZM183 131Q215 131 241.0 149.5Q267 168 285.5 198.0Q304 228 313.5 262.0Q323 296 323 326Q323 364 307.5 390.0Q292 416 257 416Q226 416 200.5 398.0Q175 380 156.5 351.0Q138 322 128.0 288.0Q118 254 118 222Q118 183 133.5 157.0Q149 131 183 131Z" fill="#D8D0C2" transform="translate(481.190 37.000) scale(0.039000 -0.039000)"/>
  <path d="M62 -15Q67 36 73.5 107.5Q80 179 87.0 259.0Q94 339 100.0 418.0Q106 497 109.5 564.5Q113 632 113 676Q113 696 104 696Q94 696 75.0 676.5Q56 657 30 628L13 644Q31 667 57.0 696.5Q83 726 112.0 752.0Q141 778 166 790Q172 777 175.0 756.5Q178 736 178 711Q178 657 173.5 588.5Q169 520 162.0 444.0Q155 368 147 290H149Q174 333 212.5 370.5Q251 408 292.5 431.5Q334 455 366 455Q397 455 419.5 427.0Q442 399 442 322Q442 268 429.5 210.0Q417 152 392.5 101.5Q368 51 332.0 19.0Q296 -13 250 -15Q243 6 248.0 29.5Q253 53 271 64Q277 59 285.0 54.5Q293 50 301 50Q320 50 333.5 74.5Q347 99 355.5 137.0Q364 175 368.0 216.0Q372 257 372 291Q372 354 359.0 374.0Q346 394 325 394Q301 394 272.0 377.0Q243 360 216.0 331.0Q189 302 170 265Q143 213 136.0 151.0Q129 89 127 0Q94 -3 62 -15Z" fill="#D8D0C2" transform="translate(498.193 37.000) scale(0.039000 -0.039000)"/>
  <path d="M95 -15Q85 -2 81.0 17.5Q77 37 77 63Q77 98 81.0 155.0Q85 212 90.5 279.0Q96 346 100 410H17V440H102Q107 481 110.5 516.0Q114 551 115 575L184 590Q181 562 176.0 523.0Q171 484 166 440H286V410H192Q175 410 169.0 403.5Q163 397 161 378Q157 322 152.5 268.5Q148 215 145.0 171.5Q142 128 142 102Q142 88 146.0 77.0Q150 66 159 66Q181 66 235 125L251 109Q234 87 207.0 62.5Q180 38 150.5 17.5Q121 -3 95 -15Z" fill="#D8D0C2" transform="translate(517.109 37.000) scale(0.039000 -0.039000)"/>
  <path d="M97 -15Q77 11 77 64Q77 115 81.0 178.5Q85 242 91.5 310.5Q98 379 104.0 446.0Q110 513 114.0 572.5Q118 632 118 676Q118 696 109 696Q99 696 80.0 676.5Q61 657 35 628L18 644Q36 667 62.0 696.5Q88 726 117.0 752.0Q146 778 171 790Q177 777 180.0 756.5Q183 736 183 711Q183 664 179.0 603.0Q175 542 169.0 474.0Q163 406 156.5 338.0Q150 270 146.0 208.5Q142 147 142 99Q142 88 145.5 77.0Q149 66 159 66Q181 66 235 125L251 109Q234 87 207.0 62.5Q180 38 151.0 17.5Q122 -3 97 -15Z" fill="#D8D0C2" transform="translate(537.154 37.000) scale(0.039000 -0.039000)"/>
  <path d="M164 -15Q113 -15 76.5 22.5Q40 60 40 137Q40 197 63.0 254.0Q86 311 123.5 356.5Q161 402 207.0 428.5Q253 455 299 455Q352 455 388.0 417.0Q424 379 424 302Q424 241 400.5 184.0Q377 127 339.0 82.0Q301 37 255.0 11.0Q209 -15 164 -15ZM202 35Q243 35 278.0 66.5Q313 98 334.0 150.0Q355 202 354 263Q354 302 344.0 334.0Q334 366 314.0 385.5Q294 405 261 405Q220 405 185.5 373.0Q151 341 130.5 289.5Q110 238 110 177Q110 112 134.0 73.5Q158 35 202 35Z" fill="#D8D0C2" transform="translate(547.450 37.000) scale(0.039000 -0.039000)"/>
  <path d="M150 -15Q121 -15 95.5 -0.5Q70 14 54.5 46.0Q39 78 39 130Q39 193 61.5 251.0Q84 309 121.0 355.0Q158 401 202.5 428.0Q247 455 290 455Q321 455 343.0 441.5Q365 428 382 405L315 289L294 297Q316 343 316.5 370.0Q317 397 304.0 408.5Q291 420 270 420Q238 420 209.0 397.0Q180 374 157.5 336.0Q135 298 122.0 252.0Q109 206 109 161Q109 108 128.0 79.0Q147 50 183 50Q215 50 256.5 75.5Q298 101 340 160L361 152Q313 68 257.0 26.5Q201 -15 150 -15Z" fill="#D8D0C2" transform="translate(565.546 37.000) scale(0.039000 -0.039000)"/>
  <path d="M129 -15Q82 -15 61.0 21.0Q40 57 40 106Q40 149 55.5 197.0Q71 245 98.0 290.5Q125 336 159.5 373.5Q194 411 232.0 433.0Q270 455 307 455Q329 455 344.0 447.0Q359 439 372 428L431 455Q415 307 409.0 216.0Q403 125 403 98Q403 87 406.5 76.5Q410 66 419 66Q429 66 445.0 77.5Q461 89 480 108L497 92Q468 60 428.5 30.5Q389 1 356 -15Q337 10 337 60Q337 92 340.0 121.5Q343 151 350 203H348Q299 103 242.0 44.0Q185 -15 129 -15ZM159 50Q181 50 207.5 69.5Q234 89 260.0 121.5Q286 154 308.0 193.5Q330 233 343.0 274.0Q356 315 356 350Q356 366 352.0 383.5Q348 401 336.0 413.0Q324 425 300 425Q262 425 228.0 396.5Q194 368 167.5 323.0Q141 278 125.5 228.0Q110 178 110 134Q110 95 121.0 72.5Q132 50 159 50Z" fill="#D8D0C2" transform="translate(580.756 37.000) scale(0.039000 -0.039000)"/>
  <path d="M97 -15Q77 11 77 64Q77 115 81.0 178.5Q85 242 91.5 310.5Q98 379 104.0 446.0Q110 513 114.0 572.5Q118 632 118 676Q118 696 109 696Q99 696 80.0 676.5Q61 657 35 628L18 644Q36 667 62.0 696.5Q88 726 117.0 752.0Q146 778 171 790Q177 777 180.0 756.5Q183 736 183 711Q183 664 179.0 603.0Q175 542 169.0 474.0Q163 406 156.5 338.0Q150 270 146.0 208.5Q142 147 142 99Q142 88 145.5 77.0Q149 66 159 66Q181 66 235 125L251 109Q234 87 207.0 62.5Q180 38 151.0 17.5Q122 -3 97 -15Z" fill="#D8D0C2" transform="translate(600.725 37.000) scale(0.039000 -0.039000)"/>
  <path d="M209 -15Q167 -15 126.5 -1.5Q86 12 59.5 37.0Q33 62 33 98Q33 114 42 130L89 210L109 201Q91 162 91 134Q91 104 113.0 81.5Q135 59 169.0 47.0Q203 35 239 35Q319 35 357.5 75.0Q396 115 396 181Q396 212 379.0 235.5Q362 259 328.5 283.0Q295 307 245 338Q179 380 142.5 408.5Q106 437 91.5 460.5Q77 484 77 510Q77 550 105.5 589.0Q134 628 185.5 654.0Q237 680 306 680Q346 680 387.0 672.0Q428 664 451 653L442 510H419Q419 570 389.0 607.5Q359 645 292 645Q247 645 211.5 629.0Q176 613 155.0 589.0Q134 565 134 539Q134 504 177.5 474.0Q221 444 288 402Q349 364 385.5 336.5Q422 309 438.5 281.5Q455 254 455 215Q455 150 424.5 97.5Q394 45 339.0 15.0Q284 -15 209 -15Z" fill="#D8D0C2" transform="translate(619.990 37.000) scale(0.039000 -0.039000)"/>
  <path d="M463 23 469 0Q450 -7 433.5 -11.0Q417 -15 397 -15Q362 -15 330.5 9.0Q299 33 258 73Q207 124 182.0 147.5Q157 171 139 171Q134 130 130.5 85.0Q127 40 127 0Q94 -3 62 -15Q67 36 73.5 107.5Q80 179 87.0 259.0Q94 339 100.0 418.0Q106 497 109.5 564.5Q113 632 113 676Q113 696 104 696Q94 696 75.0 676.5Q56 657 30 628L13 644Q31 667 57.0 696.5Q83 726 112.0 752.0Q141 778 166 790Q172 777 175.0 756.5Q178 736 178 711Q178 657 173.5 588.5Q169 520 162.0 444.0Q155 368 147 290H149Q174 330 205.0 368.0Q236 406 273.0 430.5Q310 455 351 455Q387 455 402.0 436.5Q417 418 417 389Q417 350 393.5 311.5Q370 273 327.5 241.0Q285 209 228 190V188L309 106Q351 64 375.0 45.0Q399 26 418.0 23.0Q437 20 463 23ZM317 405Q295 405 267.5 384.5Q240 364 213.5 331.5Q187 299 167.5 262.5Q148 226 141 194Q211 202 256.5 229.5Q302 257 324.5 293.5Q347 330 347 364Q347 382 340.5 393.5Q334 405 317 405Z" fill="#D8D0C2" transform="translate(639.997 37.000) scale(0.039000 -0.039000)"/>
  <path d="M121 -15Q101 11 101 64Q101 90 104.5 129.0Q108 168 113.0 210.0Q118 252 121.5 287.0Q125 322 125 341Q125 361 116 361Q106 361 79.0 340.0Q52 319 26 291L10 307Q28 329 58.0 359.0Q88 389 121.0 416.0Q154 443 178 455Q184 442 187.0 421.5Q190 401 190 376Q190 354 186.5 316.5Q183 279 178.0 237.5Q173 196 169.5 159.0Q166 122 166 99Q166 88 169.5 77.0Q173 66 183 66Q205 66 259 125L275 109Q258 87 231.0 62.5Q204 38 175.0 17.5Q146 -3 121 -15ZM163 560Q147 560 139.0 569.5Q131 579 131 593Q131 616 150.5 635.0Q170 654 193 654Q210 654 217.5 644.5Q225 635 225 621Q225 596 205.5 578.0Q186 560 163 560Z" fill="#D8D0C2" transform="translate(657.782 37.000) scale(0.039000 -0.039000)"/>
  <path d="M97 -15Q77 11 77 64Q77 115 81.0 178.5Q85 242 91.5 310.5Q98 379 104.0 446.0Q110 513 114.0 572.5Q118 632 118 676Q118 696 109 696Q99 696 80.0 676.5Q61 657 35 628L18 644Q36 667 62.0 696.5Q88 726 117.0 752.0Q146 778 171 790Q177 777 180.0 756.5Q183 736 183 711Q183 664 179.0 603.0Q175 542 169.0 474.0Q163 406 156.5 338.0Q150 270 146.0 208.5Q142 147 142 99Q142 88 145.5 77.0Q149 66 159 66Q181 66 235 125L251 109Q234 87 207.0 62.5Q180 38 151.0 17.5Q122 -3 97 -15Z" fill="#D8D0C2" transform="translate(669.014 37.000) scale(0.039000 -0.039000)"/>
  <path d="M97 -15Q77 11 77 64Q77 115 81.0 178.5Q85 242 91.5 310.5Q98 379 104.0 446.0Q110 513 114.0 572.5Q118 632 118 676Q118 696 109 696Q99 696 80.0 676.5Q61 657 35 628L18 644Q36 667 62.0 696.5Q88 726 117.0 752.0Q146 778 171 790Q177 777 180.0 756.5Q183 736 183 711Q183 664 179.0 603.0Q175 542 169.0 474.0Q163 406 156.5 338.0Q150 270 146.0 208.5Q142 147 142 99Q142 88 145.5 77.0Q149 66 159 66Q181 66 235 125L251 109Q234 87 207.0 62.5Q180 38 151.0 17.5Q122 -3 97 -15Z" fill="#D8D0C2" transform="translate(679.310 37.000) scale(0.039000 -0.039000)"/>
  <path d="M146 -15Q120 -15 91.5 -6.0Q63 3 44.0 21.0Q25 39 25 66Q25 92 44.0 111.5Q63 131 89 153L105 137Q90 123 84.5 113.0Q79 103 79 93Q79 69 102.5 52.0Q126 35 166 35Q213 35 244.0 59.0Q275 83 275 123Q275 149 255.0 167.0Q235 185 179 213Q151 227 125.5 242.0Q100 257 84.0 275.5Q68 294 68 317Q68 345 90.5 377.0Q113 409 150.0 432.0Q187 455 232 455Q267 455 298.0 441.0Q329 427 351 395L304 314L284 324Q301 357 292.5 378.5Q284 400 262.0 411.0Q240 422 215 422Q177 422 152.5 398.5Q128 375 128 340Q128 329 133.0 320.5Q138 312 156.5 300.5Q175 289 213 269Q259 246 283.0 231.0Q307 216 316.0 201.0Q325 186 325 163Q325 116 299.5 75.5Q274 35 233.0 10.0Q192 -15 146 -15Z" fill="#D8D0C2" transform="translate(689.606 37.000) scale(0.039000 -0.039000)"/>
  <path d="M15 -152V-129Q37 -112 50.0 -76.0Q63 -40 63 -6Q63 7 61.0 22.0Q59 37 52 50Q60 62 78.0 74.5Q96 87 115 90Q122 74 124.0 58.0Q126 42 126 29Q126 -19 108.5 -59.0Q91 -99 65.5 -123.5Q40 -148 15 -152Z" fill="#D8D0C2" transform="translate(701.929 37.000) scale(0.039000 -0.039000)"/>
  <path d="M129 -15Q82 -15 61.0 21.0Q40 57 40 106Q40 149 55.5 197.0Q71 245 98.0 290.5Q125 336 159.5 373.5Q194 411 232.0 433.0Q270 455 307 455Q329 455 344.0 447.0Q359 439 372 428L431 455Q415 307 409.0 216.0Q403 125 403 98Q403 87 406.5 76.5Q410 66 419 66Q429 66 445.0 77.5Q461 89 480 108L497 92Q468 60 428.5 30.5Q389 1 356 -15Q337 10 337 60Q337 92 340.0 121.5Q343 151 350 203H348Q299 103 242.0 44.0Q185 -15 129 -15ZM159 50Q181 50 207.5 69.5Q234 89 260.0 121.5Q286 154 308.0 193.5Q330 233 343.0 274.0Q356 315 356 350Q356 366 352.0 383.5Q348 401 336.0 413.0Q324 425 300 425Q262 425 228.0 396.5Q194 368 167.5 323.0Q141 278 125.5 228.0Q110 178 110 134Q110 95 121.0 72.5Q132 50 159 50Z" fill="#D8D0C2" transform="translate(181.782 76.000) scale(0.035000 -0.035000)"/>
  <path d="M76 -15Q78 6 82.0 43.5Q86 81 90.0 126.0Q94 171 98.0 214.5Q102 258 104.5 292.0Q107 326 107 341Q107 361 98 361Q84 361 49 323L33 339Q59 371 92.5 403.5Q126 436 160 455Q166 442 169.0 421.5Q172 401 172 376Q172 337 167.0 298.0Q162 259 154 208H156Q195 278 237.0 331.0Q279 384 318.5 416.0Q358 448 389 455Q403 444 410.0 423.0Q417 402 417 376Q417 354 413.5 316.5Q410 279 405.0 237.5Q400 196 396.5 159.0Q393 122 393 99Q393 88 396.5 77.0Q400 66 410 66Q420 66 435.5 77.5Q451 89 470 108L487 92Q459 60 420.0 30.5Q381 1 348 -15Q328 11 328 64Q328 90 331.5 129.0Q335 168 340.0 210.0Q345 252 348.5 287.0Q352 322 352 341Q352 362 349.0 370.5Q346 379 338 379Q322 379 291.5 347.5Q261 316 226 264Q193 215 167.0 152.0Q141 89 141 0Q108 -3 76 -15Z" fill="#D8D0C2" transform="translate(199.702 76.000) scale(0.035000 -0.035000)"/>
  <path d="M139 -15Q93 -15 66.0 20.5Q39 56 39 118Q39 173 60.0 232.0Q81 291 116.5 341.5Q152 392 196.0 423.5Q240 455 286 455Q315 455 334.0 443.5Q353 432 364 420Q372 491 377.0 560.0Q382 629 382 676Q382 696 373 696Q363 696 344.0 676.5Q325 657 299 628L282 644Q300 667 326.0 696.5Q352 726 381.0 752.0Q410 778 435 790Q441 777 444.0 756.5Q447 736 447 711Q447 664 442.0 603.0Q437 542 430.0 474.0Q423 406 416.0 338.0Q409 270 404.0 208.5Q399 147 399 99Q399 88 402.5 77.0Q406 66 416 66Q426 66 441.5 77.5Q457 89 476 108L493 92Q465 60 426.0 30.5Q387 1 354 -15Q334 11 334 64Q334 84 335.5 106.0Q337 128 339 150H337Q299 79 246.0 32.0Q193 -15 139 -15ZM169 45Q198 45 230.0 68.0Q262 91 289.5 130.0Q317 169 334.5 217.0Q352 265 352 315Q352 343 345.0 368.0Q338 393 322.5 409.0Q307 425 279 425Q243 425 212.5 399.0Q182 373 158.5 331.0Q135 289 122.0 240.0Q109 191 109 145Q109 102 122.5 73.5Q136 45 169 45Z" fill="#D8D0C2" transform="translate(217.517 76.000) scale(0.035000 -0.035000)"/>
  <path d="M150 -15Q121 -15 95.5 -0.5Q70 14 54.5 46.0Q39 78 39 130Q39 193 61.5 251.0Q84 309 121.0 355.0Q158 401 202.5 428.0Q247 455 290 455Q321 455 343.0 441.5Q365 428 382 405L315 289L294 297Q316 343 316.5 370.0Q317 397 304.0 408.5Q291 420 270 420Q238 420 209.0 397.0Q180 374 157.5 336.0Q135 298 122.0 252.0Q109 206 109 161Q109 108 128.0 79.0Q147 50 183 50Q215 50 256.5 75.5Q298 101 340 160L361 152Q313 68 257.0 26.5Q201 -15 150 -15Z" fill="#D8D0C2" transform="translate(243.312 76.000) scale(0.035000 -0.035000)"/>
  <path d="M129 -15Q82 -15 61.0 21.0Q40 57 40 106Q40 149 55.5 197.0Q71 245 98.0 290.5Q125 336 159.5 373.5Q194 411 232.0 433.0Q270 455 307 455Q329 455 344.0 447.0Q359 439 372 428L431 455Q415 307 409.0 216.0Q403 125 403 98Q403 87 406.5 76.5Q410 66 419 66Q429 66 445.0 77.5Q461 89 480 108L497 92Q468 60 428.5 30.5Q389 1 356 -15Q337 10 337 60Q337 92 340.0 121.5Q343 151 350 203H348Q299 103 242.0 44.0Q185 -15 129 -15ZM159 50Q181 50 207.5 69.5Q234 89 260.0 121.5Q286 154 308.0 193.5Q330 233 343.0 274.0Q356 315 356 350Q356 366 352.0 383.5Q348 401 336.0 413.0Q324 425 300 425Q262 425 228.0 396.5Q194 368 167.5 323.0Q141 278 125.5 228.0Q110 178 110 134Q110 95 121.0 72.5Q132 50 159 50Z" fill="#D8D0C2" transform="translate(256.962 76.000) scale(0.035000 -0.035000)"/>
  <path d="M76 -15Q78 6 82.0 43.5Q86 81 90.0 126.0Q94 171 98.0 214.5Q102 258 104.5 292.0Q107 326 107 341Q107 361 98 361Q84 361 49 323L33 339Q59 371 92.5 403.5Q126 436 160 455Q166 442 169.0 421.5Q172 401 172 376Q172 346 169.0 317.0Q166 288 160 250H162Q204 331 245.0 385.0Q286 439 329 455Q347 440 350.5 412.0Q354 384 349.5 349.0Q345 314 337 278H314Q318 313 315.0 336.5Q312 360 293 360Q281 360 262.0 346.0Q243 332 212 279Q182 229 161.5 159.0Q141 89 141 0Q108 -3 76 -15Z" fill="#D8D0C2" transform="translate(274.882 76.000) scale(0.035000 -0.035000)"/>
  <path d="M76 -15Q78 6 82.0 43.5Q86 81 90.0 126.0Q94 171 98.0 214.5Q102 258 104.5 292.0Q107 326 107 341Q107 361 98 361Q84 361 49 323L33 339Q59 371 92.5 403.5Q126 436 160 455Q166 442 169.0 421.5Q172 401 172 376Q172 346 169.0 317.0Q166 288 160 250H162Q204 331 245.0 385.0Q286 439 329 455Q347 440 350.5 412.0Q354 384 349.5 349.0Q345 314 337 278H314Q318 313 315.0 336.5Q312 360 293 360Q281 360 262.0 346.0Q243 332 212 279Q182 229 161.5 159.0Q141 89 141 0Q108 -3 76 -15Z" fill="#D8D0C2" transform="translate(287.377 76.000) scale(0.035000 -0.035000)"/>
  <path d="M30 -235Q10 -235 4.0 -207.0Q-2 -179 1.5 -137.5Q5 -96 14 -58H37Q34 -103 37.5 -131.5Q41 -160 60 -160Q74 -160 93.5 -145.0Q113 -130 132.0 -104.0Q151 -78 164.0 -45.5Q177 -13 177 22Q177 51 170.0 94.0Q163 137 153 176Q141 225 127.0 264.5Q113 304 100.0 327.5Q87 351 76 351Q67 351 53.5 335.5Q40 320 28 297L9 308Q28 346 52.5 386.0Q77 426 105 455Q126 436 147.5 392.0Q169 348 187.0 291.5Q205 235 218.0 177.5Q231 120 235 75H237Q281 165 300.0 258.0Q319 351 297 439Q314 447 335.5 451.0Q357 455 375 455Q381 412 371.0 354.5Q361 297 338.5 231.5Q316 166 285.5 100.0Q255 34 220.5 -26.0Q186 -86 151.0 -133.0Q116 -180 84.5 -207.5Q53 -235 30 -235Z" fill="#D8D0C2" transform="translate(299.873 76.000) scale(0.035000 -0.035000)"/>
  <path d="M150 -15Q121 -15 95.5 -0.5Q70 14 54.5 46.0Q39 78 39 130Q39 193 61.5 251.0Q84 309 121.0 355.0Q158 401 202.5 428.0Q247 455 290 455Q321 455 343.0 441.5Q365 428 382 405L315 289L294 297Q316 343 316.5 370.0Q317 397 304.0 408.5Q291 420 270 420Q238 420 209.0 397.0Q180 374 157.5 336.0Q135 298 122.0 252.0Q109 206 109 161Q109 108 128.0 79.0Q147 50 183 50Q215 50 256.5 75.5Q298 101 340 160L361 152Q313 68 257.0 26.5Q201 -15 150 -15Z" fill="#D8D0C2" transform="translate(321.747 76.000) scale(0.035000 -0.035000)"/>
  <path d="M164 -15Q113 -15 76.5 22.5Q40 60 40 137Q40 197 63.0 254.0Q86 311 123.5 356.5Q161 402 207.0 428.5Q253 455 299 455Q352 455 388.0 417.0Q424 379 424 302Q424 241 400.5 184.0Q377 127 339.0 82.0Q301 37 255.0 11.0Q209 -15 164 -15ZM202 35Q243 35 278.0 66.5Q313 98 334.0 150.0Q355 202 354 263Q354 302 344.0 334.0Q334 366 314.0 385.5Q294 405 261 405Q220 405 185.5 373.0Q151 341 130.5 289.5Q110 238 110 177Q110 112 134.0 73.5Q158 35 202 35Z" fill="#D8D0C2" transform="translate(335.397 76.000) scale(0.035000 -0.035000)"/>
  <path d="M76 -15Q78 6 82.0 43.5Q86 81 90.0 126.0Q94 171 98.0 214.5Q102 258 104.5 292.0Q107 326 107 341Q107 361 98 361Q84 361 49 323L33 339Q59 371 92.5 403.5Q126 436 160 455Q166 442 169.0 421.5Q172 401 172 376Q172 337 167.0 298.0Q162 259 154 208H156Q209 317 269.5 380.5Q330 444 376 455Q390 444 397.0 423.0Q404 402 404 376Q404 337 399.0 298.0Q394 259 386 208H388Q441 317 502.0 380.5Q563 444 609 455Q623 444 630.0 423.0Q637 402 637 376Q637 354 633.5 316.5Q630 279 625.0 237.5Q620 196 616.5 159.0Q613 122 613 99Q613 88 616.5 77.0Q620 66 630 66Q640 66 655.5 77.5Q671 89 690 108L707 92Q679 60 640.0 30.5Q601 1 568 -15Q548 11 548 64Q548 90 551.5 129.0Q555 168 560.0 210.0Q565 252 568.5 287.0Q572 322 572 341Q572 362 569.0 370.5Q566 379 558 379Q542 379 514.5 348.0Q487 317 455 264Q425 215 399.0 152.0Q373 89 373 0Q340 -3 308 -15Q310 6 314.0 43.5Q318 81 322.5 126.0Q327 171 330.5 214.5Q334 258 336.5 292.0Q339 326 339 341Q339 362 336.0 370.5Q333 379 325 379Q309 379 281.5 348.0Q254 317 222 264Q192 215 166.5 152.0Q141 89 141 0Q108 -3 76 -15Z" fill="#D8D0C2" transform="translate(351.637 76.000) scale(0.035000 -0.035000)"/>
  <path d="M59 -240Q65 -186 72.5 -110.5Q80 -35 87.0 47.0Q94 129 99.0 206.0Q104 283 104 341Q104 361 95 361Q81 361 46 323L30 339Q56 371 89.5 403.5Q123 436 157 455Q163 442 166.0 421.5Q169 401 169 376Q169 337 166 290H168Q206 361 259.0 408.0Q312 455 366 455Q412 455 439.5 419.5Q467 384 467 322Q467 267 446.0 208.0Q425 149 389.5 98.5Q354 48 310.0 16.5Q266 -15 220 -15Q199 -15 179.0 -7.5Q159 0 145 15Q138 -46 132.0 -111.5Q126 -177 124 -225Q90 -231 59 -240ZM226 15Q262 15 293.0 41.0Q324 67 347.5 109.5Q371 152 384.0 201.0Q397 250 397 295Q397 338 383.0 366.5Q369 395 337 395Q308 395 276.0 372.0Q244 349 216.5 310.0Q189 271 171.5 223.0Q154 175 154 124Q154 97 160.5 72.0Q167 47 183.0 31.0Q199 15 226 15Z" fill="#D8D0C2" transform="translate(377.152 76.000) scale(0.035000 -0.035000)"/>
  <path d="M97 -15Q77 11 77 64Q77 115 81.0 178.5Q85 242 91.5 310.5Q98 379 104.0 446.0Q110 513 114.0 572.5Q118 632 118 676Q118 696 109 696Q99 696 80.0 676.5Q61 657 35 628L18 644Q36 667 62.0 696.5Q88 726 117.0 752.0Q146 778 171 790Q177 777 180.0 756.5Q183 736 183 711Q183 664 179.0 603.0Q175 542 169.0 474.0Q163 406 156.5 338.0Q150 270 146.0 208.5Q142 147 142 99Q142 88 145.5 77.0Q149 66 159 66Q181 66 235 125L251 109Q234 87 207.0 62.5Q180 38 151.0 17.5Q122 -3 97 -15Z" fill="#D8D0C2" transform="translate(394.862 76.000) scale(0.035000 -0.035000)"/>
  <path d="M160 -15Q133 -15 105.0 -1.0Q77 13 58.5 46.0Q40 79 40 134Q40 194 63.0 251.0Q86 308 124.0 354.5Q162 401 208.5 428.0Q255 455 301 455Q346 455 360.5 436.5Q375 418 375 393Q375 347 341.0 306.5Q307 266 247.0 225.0Q187 184 109 136Q116 93 138.5 71.5Q161 50 190 50Q230 50 267.5 74.0Q305 98 335 142L356 134Q334 95 301.5 61.0Q269 27 232.5 6.0Q196 -15 160 -15ZM107 166Q107 164 107 165Q300 285 300 378Q300 398 290.5 406.5Q281 415 266 415Q239 415 211.0 393.0Q183 371 159.5 334.5Q136 298 121.5 254.0Q107 210 107 166Z" fill="#D8D0C2" transform="translate(404.102 76.000) scale(0.035000 -0.035000)"/>
  <path d="M55 -15Q42 -15 35.5 0.5Q29 16 28.0 40.5Q27 65 30.0 93.0Q33 121 37 145H60Q60 111 63.0 85.5Q66 60 80 60Q97 60 116.0 80.5Q135 101 155.0 132.5Q175 164 194 198Q172 289 158.5 329.0Q145 369 126 369Q114 369 98.0 356.0Q82 343 63 323L47 339Q73 371 107.0 403.5Q141 436 175 455Q186 444 197.5 415.5Q209 387 219.5 350.0Q230 313 239 275Q254 301 273.0 332.0Q292 363 312.5 391.0Q333 419 353.0 437.0Q373 455 390 455Q403 455 407.0 439.5Q411 424 409.0 400.5Q407 377 402.0 351.5Q397 326 392 305H369Q371 340 368.5 353.5Q366 367 355 367Q337 367 308.0 328.5Q279 290 249 236Q262 183 273.5 141.0Q285 99 298.0 75.0Q311 51 328 51Q338 51 353.0 61.5Q368 72 395 97L411 81Q383 49 350.0 23.5Q317 -2 285 -15Q259 -2 239.0 47.0Q219 96 203 156Q188 131 169.5 101.0Q151 71 131.0 45.0Q111 19 91.5 2.0Q72 -15 55 -15Z" fill="#D8D0C2" transform="translate(417.998 76.000) scale(0.035000 -0.035000)"/>
  <path d="M95 -15Q85 -2 81.0 17.5Q77 37 77 63Q77 98 81.0 155.0Q85 212 90.5 279.0Q96 346 100 410H17V440H102Q107 481 110.5 516.0Q114 551 115 575L184 590Q181 562 176.0 523.0Q171 484 166 440H286V410H192Q175 410 169.0 403.5Q163 397 161 378Q157 322 152.5 268.5Q148 215 145.0 171.5Q142 128 142 102Q142 88 146.0 77.0Q150 66 159 66Q181 66 235 125L251 109Q234 87 207.0 62.5Q180 38 150.5 17.5Q121 -3 95 -15Z" fill="#D8D0C2" transform="translate(441.413 76.000) scale(0.035000 -0.035000)"/>
  <path d="M129 -15Q82 -15 61.0 21.0Q40 57 40 106Q40 149 55.5 197.0Q71 245 98.0 290.5Q125 336 159.5 373.5Q194 411 232.0 433.0Q270 455 307 455Q329 455 344.0 447.0Q359 439 372 428L431 455Q415 307 409.0 216.0Q403 125 403 98Q403 87 406.5 76.5Q410 66 419 66Q429 66 445.0 77.5Q461 89 480 108L497 92Q468 60 428.5 30.5Q389 1 356 -15Q337 10 337 60Q337 92 340.0 121.5Q343 151 350 203H348Q299 103 242.0 44.0Q185 -15 129 -15ZM159 50Q181 50 207.5 69.5Q234 89 260.0 121.5Q286 154 308.0 193.5Q330 233 343.0 274.0Q356 315 356 350Q356 366 352.0 383.5Q348 401 336.0 413.0Q324 425 300 425Q262 425 228.0 396.5Q194 368 167.5 323.0Q141 278 125.5 228.0Q110 178 110 134Q110 95 121.0 72.5Q132 50 159 50Z" fill="#D8D0C2" transform="translate(451.353 76.000) scale(0.035000 -0.035000)"/>
  <path d="M146 -15Q120 -15 91.5 -6.0Q63 3 44.0 21.0Q25 39 25 66Q25 92 44.0 111.5Q63 131 89 153L105 137Q90 123 84.5 113.0Q79 103 79 93Q79 69 102.5 52.0Q126 35 166 35Q213 35 244.0 59.0Q275 83 275 123Q275 149 255.0 167.0Q235 185 179 213Q151 227 125.5 242.0Q100 257 84.0 275.5Q68 294 68 317Q68 345 90.5 377.0Q113 409 150.0 432.0Q187 455 232 455Q267 455 298.0 441.0Q329 427 351 395L304 314L284 324Q301 357 292.5 378.5Q284 400 262.0 411.0Q240 422 215 422Q177 422 152.5 398.5Q128 375 128 340Q128 329 133.0 320.5Q138 312 156.5 300.5Q175 289 213 269Q259 246 283.0 231.0Q307 216 316.0 201.0Q325 186 325 163Q325 116 299.5 75.5Q274 35 233.0 10.0Q192 -15 146 -15Z" fill="#D8D0C2" transform="translate(469.272 76.000) scale(0.035000 -0.035000)"/>
  <path d="M463 23 469 0Q450 -7 433.5 -11.0Q417 -15 397 -15Q362 -15 330.5 9.0Q299 33 258 73Q207 124 182.0 147.5Q157 171 139 171Q134 130 130.5 85.0Q127 40 127 0Q94 -3 62 -15Q67 36 73.5 107.5Q80 179 87.0 259.0Q94 339 100.0 418.0Q106 497 109.5 564.5Q113 632 113 676Q113 696 104 696Q94 696 75.0 676.5Q56 657 30 628L13 644Q31 667 57.0 696.5Q83 726 112.0 752.0Q141 778 166 790Q172 777 175.0 756.5Q178 736 178 711Q178 657 173.5 588.5Q169 520 162.0 444.0Q155 368 147 290H149Q174 330 205.0 368.0Q236 406 273.0 430.5Q310 455 351 455Q387 455 402.0 436.5Q417 418 417 389Q417 350 393.5 311.5Q370 273 327.5 241.0Q285 209 228 190V188L309 106Q351 64 375.0 45.0Q399 26 418.0 23.0Q437 20 463 23ZM317 405Q295 405 267.5 384.5Q240 364 213.5 331.5Q187 299 167.5 262.5Q148 226 141 194Q211 202 256.5 229.5Q302 257 324.5 293.5Q347 330 347 364Q347 382 340.5 393.5Q334 405 317 405Z" fill="#D8D0C2" transform="translate(482.433 76.000) scale(0.035000 -0.035000)"/>
  <path d="M146 -15Q120 -15 91.5 -6.0Q63 3 44.0 21.0Q25 39 25 66Q25 92 44.0 111.5Q63 131 89 153L105 137Q90 123 84.5 113.0Q79 103 79 93Q79 69 102.5 52.0Q126 35 166 35Q213 35 244.0 59.0Q275 83 275 123Q275 149 255.0 167.0Q235 185 179 213Q151 227 125.5 242.0Q100 257 84.0 275.5Q68 294 68 317Q68 345 90.5 377.0Q113 409 150.0 432.0Q187 455 232 455Q267 455 298.0 441.0Q329 427 351 395L304 314L284 324Q301 357 292.5 378.5Q284 400 262.0 411.0Q240 422 215 422Q177 422 152.5 398.5Q128 375 128 340Q128 329 133.0 320.5Q138 312 156.5 300.5Q175 289 213 269Q259 246 283.0 231.0Q307 216 316.0 201.0Q325 186 325 163Q325 116 299.5 75.5Q274 35 233.0 10.0Q192 -15 146 -15Z" fill="#D8D0C2" transform="translate(498.392 76.000) scale(0.035000 -0.035000)"/>
  <path d="M95 -15Q85 -2 81.0 17.5Q77 37 77 63Q77 98 81.0 155.0Q85 212 90.5 279.0Q96 346 100 410H17V440H102Q107 481 110.5 516.0Q114 551 115 575L184 590Q181 562 176.0 523.0Q171 484 166 440H286V410H192Q175 410 169.0 403.5Q163 397 161 378Q157 322 152.5 268.5Q148 215 145.0 171.5Q142 128 142 102Q142 88 146.0 77.0Q150 66 159 66Q181 66 235 125L251 109Q234 87 207.0 62.5Q180 38 150.5 17.5Q121 -3 95 -15Z" fill="#D8D0C2" transform="translate(519.602 76.000) scale(0.035000 -0.035000)"/>
  <path d="M62 -15Q67 36 73.5 107.5Q80 179 87.0 259.0Q94 339 100.0 418.0Q106 497 109.5 564.5Q113 632 113 676Q113 696 104 696Q94 696 75.0 676.5Q56 657 30 628L13 644Q31 667 57.0 696.5Q83 726 112.0 752.0Q141 778 166 790Q172 777 175.0 756.5Q178 736 178 711Q178 657 173.5 588.5Q169 520 162.0 444.0Q155 368 147 290H149Q174 333 212.5 370.5Q251 408 292.5 431.5Q334 455 366 455Q397 455 419.5 427.0Q442 399 442 322Q442 268 429.5 210.0Q417 152 392.5 101.5Q368 51 332.0 19.0Q296 -13 250 -15Q243 6 248.0 29.5Q253 53 271 64Q277 59 285.0 54.5Q293 50 301 50Q320 50 333.5 74.5Q347 99 355.5 137.0Q364 175 368.0 216.0Q372 257 372 291Q372 354 359.0 374.0Q346 394 325 394Q301 394 272.0 377.0Q243 360 216.0 331.0Q189 302 170 265Q143 213 136.0 151.0Q129 89 127 0Q94 -3 62 -15Z" fill="#D8D0C2" transform="translate(529.543 76.000) scale(0.035000 -0.035000)"/>
  <path d="M76 -15Q78 6 82.0 43.5Q86 81 90.0 126.0Q94 171 98.0 214.5Q102 258 104.5 292.0Q107 326 107 341Q107 361 98 361Q84 361 49 323L33 339Q59 371 92.5 403.5Q126 436 160 455Q166 442 169.0 421.5Q172 401 172 376Q172 346 169.0 317.0Q166 288 160 250H162Q204 331 245.0 385.0Q286 439 329 455Q347 440 350.5 412.0Q354 384 349.5 349.0Q345 314 337 278H314Q318 313 315.0 336.5Q312 360 293 360Q281 360 262.0 346.0Q243 332 212 279Q182 229 161.5 159.0Q141 89 141 0Q108 -3 76 -15Z" fill="#D8D0C2" transform="translate(546.517 76.000) scale(0.035000 -0.035000)"/>
  <path d="M164 -15Q113 -15 76.5 22.5Q40 60 40 137Q40 197 63.0 254.0Q86 311 123.5 356.5Q161 402 207.0 428.5Q253 455 299 455Q352 455 388.0 417.0Q424 379 424 302Q424 241 400.5 184.0Q377 127 339.0 82.0Q301 37 255.0 11.0Q209 -15 164 -15ZM202 35Q243 35 278.0 66.5Q313 98 334.0 150.0Q355 202 354 263Q354 302 344.0 334.0Q334 366 314.0 385.5Q294 405 261 405Q220 405 185.5 373.0Q151 341 130.5 289.5Q110 238 110 177Q110 112 134.0 73.5Q158 35 202 35Z" fill="#D8D0C2" transform="translate(559.013 76.000) scale(0.035000 -0.035000)"/>
  <path d="M118 -15Q83 11 83 64Q83 90 86.5 129.0Q90 168 95.0 210.0Q100 252 103.5 287.0Q107 322 107 341Q107 361 98 361Q84 361 49 323L33 339Q59 371 92.5 403.5Q126 436 160 455Q166 442 169.0 421.5Q172 401 172 376Q172 354 168.5 316.5Q165 279 160.0 237.5Q155 196 151.5 159.0Q148 122 148 99Q148 78 151.5 69.5Q155 61 162 61Q178 61 204.5 92.5Q231 124 265 176Q297 226 322.0 289.0Q347 352 347 440Q379 452 412 455Q410 434 406.0 396.5Q402 359 397.5 314.0Q393 269 389.5 225.5Q386 182 383.5 148.0Q381 114 381 99Q381 88 384.5 77.0Q388 66 398 66Q408 66 423.5 77.5Q439 89 458 108L475 92Q447 60 408.0 30.5Q369 1 336 -15Q316 11 316 64Q316 103 321.0 142.0Q326 181 334 233H332Q278 128 221.5 66.0Q165 4 118 -15Z" fill="#D8D0C2" transform="translate(575.253 76.000) scale(0.035000 -0.035000)"/>
  <path d="M165 -235Q122 -235 83.5 -223.5Q45 -212 21.0 -191.5Q-3 -171 -3 -143Q-3 -113 24.0 -89.5Q51 -66 82 -50L102 -60Q83 -79 75.0 -96.0Q67 -113 67 -124Q67 -143 85.0 -158.0Q103 -173 133.0 -182.0Q163 -191 197 -191Q230 -191 261.0 -183.5Q292 -176 312.0 -161.5Q332 -147 332 -128Q332 -115 312 -105L103 -6Q89 1 95 18L124 97Q95 105 72.5 128.5Q50 152 50 199Q50 242 70.0 287.0Q90 332 123.5 370.0Q157 408 198.5 431.5Q240 455 284 455Q308 455 332.5 446.0Q357 437 372 415Q406 425 418 515H438Q459 485 459 454Q459 424 438.0 410.0Q417 396 384 394Q391 374 391 349Q391 308 373.5 265.5Q356 223 325.5 185.5Q295 148 257.0 123.5Q219 99 177 94Q157 92 150.5 82.0Q144 72 144 63Q144 53 151.0 47.5Q158 42 171 36L367 -56Q378 -61 387.5 -70.0Q397 -79 397 -94Q397 -112 380.5 -136.0Q364 -160 333.0 -182.5Q302 -205 259.5 -220.0Q217 -235 165 -235ZM183 131Q215 131 241.0 149.5Q267 168 285.5 198.0Q304 228 313.5 262.0Q323 296 323 326Q323 364 307.5 390.0Q292 416 257 416Q226 416 200.5 398.0Q175 380 156.5 351.0Q138 322 128.0 288.0Q118 254 118 222Q118 183 133.5 157.0Q149 131 183 131Z" fill="#D8D0C2" transform="translate(592.648 76.000) scale(0.035000 -0.035000)"/>
  <path d="M62 -15Q67 36 73.5 107.5Q80 179 87.0 259.0Q94 339 100.0 418.0Q106 497 109.5 564.5Q113 632 113 676Q113 696 104 696Q94 696 75.0 676.5Q56 657 30 628L13 644Q31 667 57.0 696.5Q83 726 112.0 752.0Q141 778 166 790Q172 777 175.0 756.5Q178 736 178 711Q178 657 173.5 588.5Q169 520 162.0 444.0Q155 368 147 290H149Q174 333 212.5 370.5Q251 408 292.5 431.5Q334 455 366 455Q397 455 419.5 427.0Q442 399 442 322Q442 268 429.5 210.0Q417 152 392.5 101.5Q368 51 332.0 19.0Q296 -13 250 -15Q243 6 248.0 29.5Q253 53 271 64Q277 59 285.0 54.5Q293 50 301 50Q320 50 333.5 74.5Q347 99 355.5 137.0Q364 175 368.0 216.0Q372 257 372 291Q372 354 359.0 374.0Q346 394 325 394Q301 394 272.0 377.0Q243 360 216.0 331.0Q189 302 170 265Q143 213 136.0 151.0Q129 89 127 0Q94 -3 62 -15Z" fill="#D8D0C2" transform="translate(607.908 76.000) scale(0.035000 -0.035000)"/>
  <path d="M95 -15Q85 -2 81.0 17.5Q77 37 77 63Q77 98 81.0 155.0Q85 212 90.5 279.0Q96 346 100 410H17V440H102Q107 481 110.5 516.0Q114 551 115 575L184 590Q181 562 176.0 523.0Q171 484 166 440H286V410H192Q175 410 169.0 403.5Q163 397 161 378Q157 322 152.5 268.5Q148 215 145.0 171.5Q142 128 142 102Q142 88 146.0 77.0Q150 66 159 66Q181 66 235 125L251 109Q234 87 207.0 62.5Q180 38 150.5 17.5Q121 -3 95 -15Z" fill="#D8D0C2" transform="translate(632.933 76.000) scale(0.035000 -0.035000)"/>
  <path d="M164 -15Q113 -15 76.5 22.5Q40 60 40 137Q40 197 63.0 254.0Q86 311 123.5 356.5Q161 402 207.0 428.5Q253 455 299 455Q352 455 388.0 417.0Q424 379 424 302Q424 241 400.5 184.0Q377 127 339.0 82.0Q301 37 255.0 11.0Q209 -15 164 -15ZM202 35Q243 35 278.0 66.5Q313 98 334.0 150.0Q355 202 354 263Q354 302 344.0 334.0Q334 366 314.0 385.5Q294 405 261 405Q220 405 185.5 373.0Q151 341 130.5 289.5Q110 238 110 177Q110 112 134.0 73.5Q158 35 202 35Z" fill="#D8D0C2" transform="translate(642.872 76.000) scale(0.035000 -0.035000)"/>
  <path d="M139 -15Q93 -15 66.0 20.5Q39 56 39 118Q39 173 60.0 232.0Q81 291 116.5 341.5Q152 392 196.0 423.5Q240 455 286 455Q315 455 334.0 443.5Q353 432 364 420Q372 491 377.0 560.0Q382 629 382 676Q382 696 373 696Q363 696 344.0 676.5Q325 657 299 628L282 644Q300 667 326.0 696.5Q352 726 381.0 752.0Q410 778 435 790Q441 777 444.0 756.5Q447 736 447 711Q447 664 442.0 603.0Q437 542 430.0 474.0Q423 406 416.0 338.0Q409 270 404.0 208.5Q399 147 399 99Q399 88 402.5 77.0Q406 66 416 66Q426 66 441.5 77.5Q457 89 476 108L493 92Q465 60 426.0 30.5Q387 1 354 -15Q334 11 334 64Q334 84 335.5 106.0Q337 128 339 150H337Q299 79 246.0 32.0Q193 -15 139 -15ZM169 45Q198 45 230.0 68.0Q262 91 289.5 130.0Q317 169 334.5 217.0Q352 265 352 315Q352 343 345.0 368.0Q338 393 322.5 409.0Q307 425 279 425Q243 425 212.5 399.0Q182 373 158.5 331.0Q135 289 122.0 240.0Q109 191 109 145Q109 102 122.5 73.5Q136 45 169 45Z" fill="#D8D0C2" transform="translate(667.163 76.000) scale(0.035000 -0.035000)"/>
  <path d="M160 -15Q133 -15 105.0 -1.0Q77 13 58.5 46.0Q40 79 40 134Q40 194 63.0 251.0Q86 308 124.0 354.5Q162 401 208.5 428.0Q255 455 301 455Q346 455 360.5 436.5Q375 418 375 393Q375 347 341.0 306.5Q307 266 247.0 225.0Q187 184 109 136Q116 93 138.5 71.5Q161 50 190 50Q230 50 267.5 74.0Q305 98 335 142L356 134Q334 95 301.5 61.0Q269 27 232.5 6.0Q196 -15 160 -15ZM107 166Q107 164 107 165Q300 285 300 378Q300 398 290.5 406.5Q281 415 266 415Q239 415 211.0 393.0Q183 371 159.5 334.5Q136 298 121.5 254.0Q107 210 107 166Z" fill="#D8D0C2" transform="translate(684.908 76.000) scale(0.035000 -0.035000)"/>
  <path d="M97 -15Q77 11 77 64Q77 115 81.0 178.5Q85 242 91.5 310.5Q98 379 104.0 446.0Q110 513 114.0 572.5Q118 632 118 676Q118 696 109 696Q99 696 80.0 676.5Q61 657 35 628L18 644Q36 667 62.0 696.5Q88 726 117.0 752.0Q146 778 171 790Q177 777 180.0 756.5Q183 736 183 711Q183 664 179.0 603.0Q175 542 169.0 474.0Q163 406 156.5 338.0Q150 270 146.0 208.5Q142 147 142 99Q142 88 145.5 77.0Q149 66 159 66Q181 66 235 125L251 109Q234 87 207.0 62.5Q180 38 151.0 17.5Q122 -3 97 -15Z" fill="#D8D0C2" transform="translate(698.803 76.000) scale(0.035000 -0.035000)"/>
  <path d="M121 -15Q101 11 101 64Q101 90 104.5 129.0Q108 168 113.0 210.0Q118 252 121.5 287.0Q125 322 125 341Q125 361 116 361Q106 361 79.0 340.0Q52 319 26 291L10 307Q28 329 58.0 359.0Q88 389 121.0 416.0Q154 443 178 455Q184 442 187.0 421.5Q190 401 190 376Q190 354 186.5 316.5Q183 279 178.0 237.5Q173 196 169.5 159.0Q166 122 166 99Q166 88 169.5 77.0Q173 66 183 66Q205 66 259 125L275 109Q258 87 231.0 62.5Q204 38 175.0 17.5Q146 -3 121 -15ZM163 560Q147 560 139.0 569.5Q131 579 131 593Q131 616 150.5 635.0Q170 654 193 654Q210 654 217.5 644.5Q225 635 225 621Q225 596 205.5 578.0Q186 560 163 560Z" fill="#D8D0C2" transform="translate(708.043 76.000) scale(0.035000 -0.035000)"/>
  <path d="M137 -15Q102 -15 92.5 9.0Q83 33 83 64Q83 90 86.5 129.0Q90 168 95.0 210.0Q100 252 103.5 287.0Q107 322 107 341Q107 361 98 361Q84 361 49 323L33 339Q59 371 92.5 403.5Q126 436 160 455Q166 442 169.0 421.5Q172 401 172 376Q172 354 168.5 316.5Q165 279 160.0 237.5Q155 196 151.5 159.0Q148 122 148 99Q148 70 155.5 60.0Q163 50 177 50Q210 50 245.0 85.0Q280 120 305 175Q334 234 339.5 304.5Q345 375 325 439Q342 447 363.0 451.0Q384 455 402 455Q410 395 397.0 329.5Q384 264 356.5 203.0Q329 142 292.5 92.5Q256 43 215.5 14.0Q175 -15 137 -15Z" fill="#D8D0C2" transform="translate(718.122 76.000) scale(0.035000 -0.035000)"/>
  <path d="M160 -15Q133 -15 105.0 -1.0Q77 13 58.5 46.0Q40 79 40 134Q40 194 63.0 251.0Q86 308 124.0 354.5Q162 401 208.5 428.0Q255 455 301 455Q346 455 360.5 436.5Q375 418 375 393Q375 347 341.0 306.5Q307 266 247.0 225.0Q187 184 109 136Q116 93 138.5 71.5Q161 50 190 50Q230 50 267.5 74.0Q305 98 335 142L356 134Q334 95 301.5 61.0Q269 27 232.5 6.0Q196 -15 160 -15ZM107 166Q107 164 107 165Q300 285 300 378Q300 398 290.5 406.5Q281 415 266 415Q239 415 211.0 393.0Q183 371 159.5 334.5Q136 298 121.5 254.0Q107 210 107 166Z" fill="#D8D0C2" transform="translate(733.453 76.000) scale(0.035000 -0.035000)"/>
  <path d="M76 -15Q78 6 82.0 43.5Q86 81 90.0 126.0Q94 171 98.0 214.5Q102 258 104.5 292.0Q107 326 107 341Q107 361 98 361Q84 361 49 323L33 339Q59 371 92.5 403.5Q126 436 160 455Q166 442 169.0 421.5Q172 401 172 376Q172 346 169.0 317.0Q166 288 160 250H162Q204 331 245.0 385.0Q286 439 329 455Q347 440 350.5 412.0Q354 384 349.5 349.0Q345 314 337 278H314Q318 313 315.0 336.5Q312 360 293 360Q281 360 262.0 346.0Q243 332 212 279Q182 229 161.5 159.0Q141 89 141 0Q108 -3 76 -15Z" fill="#D8D0C2" transform="translate(747.348 76.000) scale(0.035000 -0.035000)"/>
  <path d="M30 -235Q10 -235 4.0 -207.0Q-2 -179 1.5 -137.5Q5 -96 14 -58H37Q34 -103 37.5 -131.5Q41 -160 60 -160Q74 -160 93.5 -145.0Q113 -130 132.0 -104.0Q151 -78 164.0 -45.5Q177 -13 177 22Q177 51 170.0 94.0Q163 137 153 176Q141 225 127.0 264.5Q113 304 100.0 327.5Q87 351 76 351Q67 351 53.5 335.5Q40 320 28 297L9 308Q28 346 52.5 386.0Q77 426 105 455Q126 436 147.5 392.0Q169 348 187.0 291.5Q205 235 218.0 177.5Q231 120 235 75H237Q281 165 300.0 258.0Q319 351 297 439Q314 447 335.5 451.0Q357 455 375 455Q381 412 371.0 354.5Q361 297 338.5 231.5Q316 166 285.5 100.0Q255 34 220.5 -26.0Q186 -86 151.0 -133.0Q116 -180 84.5 -207.5Q53 -235 30 -235Z" fill="#D8D0C2" transform="translate(759.842 76.000) scale(0.035000 -0.035000)"/>
  <path d="M80 -15Q64 -15 56.0 -5.5Q48 4 48 18Q48 41 67.5 60.0Q87 79 110 79Q127 79 134.5 69.5Q142 60 142 46Q142 21 122.5 3.0Q103 -15 80 -15Z" fill="#D8D0C2" transform="translate(771.568 76.000) scale(0.035000 -0.035000)"/>
</svg>
