<svg xmlns="http://www.w3.org/2000/svg" viewBox="0 0 960 94" role="img" aria-labelledby="title">
  <title id="title">组织合适的本地 Skills，把复杂任务做完整。</title>
  <metadata>Lettering derived from Noto Serif SC, licensed under SIL Open Font License 1.1.</metadata>
  <path d="M903.2749862964212 52.844984469277286Q903.2749862964212 52.844984469277286 915.8449844692773 41.49249040749479Q928.4149826421334 30.1399963457123 945.4849808149895 13.860003654287697Q962.5549789878457 -2.419989037136907 975.2699799014176 -17.844984469277286Q971.5549789878457 -33.844984469277286 949.5549789878457 -33.844984469277286H321.9799744199861L313.9799744199861 -4.414982642133436H864.2799926914246ZM442.8750228392981 799.4049698521264 527.0999451856845 763.9949936049966H763.190060295747L801.8850356293051 813.5399598028354L895.40997624713 742.2799926914246Q886.1249771607019 729.4249954321403 850.1249771607019 724.1399963457123V-17.55497898784574H774.6200621228909V734.5649917778527H515.9549424449688V-17.55497898784574H442.8750228392981V763.9949936049966ZM809.3250502464558 257.5699981728562V228.1399963457123H486.09994518568453V257.5699981728562ZM807.895048419312 518.4300018271439V489H484.6699433585407V518.4300018271439ZM422.9749680249827 604.8750228392981Q417.5449661978388 596.59002375287 402.40246665462473 593.1625251232279Q387.25996711141073 589.7350264935858 364.8349716792703 601.5950301478736L393.5449661978388 607.8800292343016Q370.68996893855456 572.4500274071577 334.62247396320015 527.875022839298Q298.55497898784574 483.3000182714385 255.20248492606325 436.58001096286307Q211.84999086428076 389.8600036542877 165.8524940617825 346.6374931482106Q119.85499725928423 303.41498264213345 76.56999817285615 269.4049698521265L74.85499725928423 280.68996893855456H117.25996711141072Q112.54496619783879 244.42499543214038 100.26247030891246 224.15251233322098Q87.97997441998612 203.8800292343016 72.84498446927728 198.17003471573312L34.87001644429464 294.399963457123Q34.87001644429464 294.399963457123 46.937511419649056 297.32746208676514Q59.00500639500347 300.25496071640725 64.43000182714385 305.1099579756915Q98.86501004929117 334.4049698521265 137.2275169010806 379.40997624713Q175.59002375287002 424.41498264213345 212.23752969108756 476.27498629642116Q248.88503562930507 528.1349899507088 278.67504111073663 577.8499908642807Q308.46504659216816 627.5649917778527 325.47005298717164 664.8499908642808ZM329.3799378771091 786.8650100492912Q325.3799378771091 777.5800109628631 310.8799378771091 772.7225105060771Q296.3799378771091 767.8650100492912 272.52494061782494 777.010012790007L300.8049333092495 784.010012790007Q283.09493879068106 755.4400146171508 257.2449479264003 721.3675132467929Q231.39495706211954 687.2950118764351 200.68746574105285 652.0775077653614Q169.97997441998612 616.8600036542877 137.91498264213345 584.4974968024983Q105.84999086428076 552.1349899507088 75.42499543214038 527.6999817285615L73.99499360499652 538.2699799014176H116.6849625435511Q112.6849625435511 503.0050063950035 100.54496619783879 482.2325232960841Q88.4049698521265 461.4600401971647 73.98498081498958 455.0350447650243L35.29501187643502 550.9799744199861Q35.29501187643502 550.9799744199861 46.2200073085754 553.9074730496282Q57.145002740715775 556.8349716792703 62.28499908642807 560.4049698521264Q84.8600036542877 581.8399780742739 109.22000730857539 616.3424812717756Q133.5800109628631 650.8449844692773 156.44001461715078 690.3449844692773Q179.3000182714385 729.8449844692773 197.30252146894023 767.6299835557054Q215.30502466644197 805.4149826421334 225.8800292343016 833.9849808149896ZM42.58501735786656 71.96996162997917Q76.30001827143849 79.11496437069495 133.3675132467929 93.47496802498264Q190.43500822214733 107.83497167927034 261.21500091357194 127.052475790344Q331.9949936049965 146.26997990141766 404.704988123565 167.12998355570537L408.5649917778527 154.1249771607019Q356.98498081498957 124.27498629642113 283.1974785310598 85.4325050246456Q209.40997624712998 46.59002375287004 110.27498629642113 0.6100493328839178Q105.13498995070883 -18.099945185684536 88.1399963457123 -24.81494609925646ZM51.28499908642807 289.399963457123Q81.85499725928423 292.11496437069496 134.63749314821058 298.75996711141073Q187.4199890371369 305.4049698521265 253.2724830989194 315.40747304962827Q319.1249771607019 325.40997624713 388.54997259284227 335.55497898784574L390.9799744199861 320.2649735064142Q344.11997076569844 302.8449844692773 262.7624703089125 273.0725013703579Q181.4049698521265 243.3000182714385 84.98498081498958 213.03003837002083ZM49.29000548143155 543.8349716792703Q73.71500091357193 543.8349716792703 114.34999086428076 545.3349716792703Q154.9849808149896 546.8349716792703 205.11746756819667 548.9774712224844Q255.24995432140378 551.1199707656984 307.52494061782494 554.4049698521264L308.95494244496876 539.1149643706949Q287.09994518568453 531.2649735064142 250.7449479264003 519.1324867532071Q214.38995066711607 507 170.46745843247743 493.1550155307227Q126.54496619783879 479.31003106144544 78.98498081498958 465.895048419312Z" fill="#D8D0C2" transform="translate(310.678 36.000) scale(0.031000 -0.031000)"/>
  <path d="M725.7300200985824 256.11997076569844Q802.5649917778527 210.39495706211954 850.8399780742739 164.8249588892634Q899.1149643706949 119.25496071640725 924.042463000337 78.04746939534053Q948.9699616299791 36.839978074273816 955.6199707656983 4.27748949392287Q962.2699799014176 -28.284999086428076 954.9249954321403 -48.20749132106672Q947.5800109628631 -68.12998355570537 930.7375296910875 -72.05998538284922Q913.895048419312 -75.98998720999306 892.6250685178943 -58.860003654287695Q885.4800657771785 -22.580010962863092 866.9025580118172 18.202484926063246Q848.3250502464558 58.984980814989584 822.5325415675226 100.55497898784574Q796.7400328885893 142.1249771607019 768.162525123228 180.19497533355803Q739.5850173578666 218.26497350641418 713.1550155307227 248.68996893855456ZM643.3799378771091 219.27498629642113Q639.3799378771091 211.704988123565 629.2374383338952 207.06248858035093Q619.0949387906811 202.4199890371369 602.5249406178249 205.13498995070884Q546.5349534078318 113.29501187643501 474.68996893855456 39.437511419649056Q402.8449844692773 -34.41998903713691 328.4400146171508 -82.84999086428076L315.8650100492912 -71.27498629642113Q354.15000913571924 -32.70999451856845 394.795011876435 21.424995432140378Q435.4400146171508 75.5599853828492 472.7300200985824 139.33747487677206Q510.0200255800139 203.11496437069493 539.1700347157331 268.81995249425995ZM837.2749862964212 367.1349899507088V337.704988123565H499.95494244496876V367.1349899507088ZM455.87001644429466 795.5399598028354 539.3699250871022 760.7049881235649H799.18004750574L836.2900054814315 805.6699433585406L916.0999451856845 743.4199890371369Q911.8149460992564 737.1349899507088 902.8149460992564 732.7074913210668Q893.8149460992564 728.2799926914246 877.2449479264003 725.9949936049966V307.2649735064142Q877.2449479264003 303.69497533355803 859.2599671114108 294.6999817285615Q841.2749862964212 285.704988123565 815.4500274071577 285.704988123565H802.7500456785962V731.2749862964212H527.6549241735303V294.55497898784574Q527.6549241735303 290.41498264213345 511.66994335854065 281.562488580351Q495.6849625435511 272.70999451856846 467.5699981728562 272.70999451856846H455.87001644429466V760.7049881235649ZM444.2499543214038 619.7300200985824Q439.2499543214038 610.4450210121543 424.2499543214038 607.1600219257261Q409.2499543214038 603.8750228392981 386.8249588892634 615.3050246664419L414.53495340783184 622.0200255800139Q391.6799561485476 585.3050246664419 355.25496071640725 540.0875205553683Q318.82996528426685 494.87001644429466 274.76247030891244 446.8650100492912Q230.69497533355803 398.8600036542877 184.41247944463169 354.70999451856846Q138.12998355570537 310.5599853828492 94.12998355570537 276.2649735064142L92.41498264213344 286.8349716792703H134.24995432140378Q129.53495340783186 251.1399963457123 117.39495706211956 231.3675132467929Q105.25496071640725 211.5950301478735 90.11997076569841 205.4550338021612L52.71500091357193 300.5449661978388Q52.71500091357193 300.5449661978388 64.42499543214038 303.4724648274809Q76.13498995070883 306.399963457123 82.27498629642113 311.25496071640725Q117.70999451856845 340.8349716792703 156.7150009135719 387.4824776174878Q195.7200073085754 434.12998355570534 233.01001279000695 486.4174858396351Q270.3000182714385 538.7049881235649 300.59002375287 589.347487666779Q330.88002923430156 639.989987209993 348.17003471573315 678.2749862964212ZM327.2449479264003 789.4300018271439Q323.2449479264003 780.1450027407158 308.7449479264003 775.0025031975017Q294.2449479264003 769.8600036542877 269.6749497535442 779.0050063950034L297.95494244496876 786.0050063950034Q276.38995066711607 748.1500091357192 241.1124611731932 700.3625068517895Q205.83497167927035 652.5750045678597 165.4849808149896 607.0699981728562Q125.13498995070883 561.5649917778527 87.42499543214038 527.9849808149896L85.70999451856845 539.2699799014176H127.11496437069495Q123.39996345712302 504.29000548143154 111.40246665462476 483.5875205553683Q99.4049698521265 462.88503562930504 84.98498081498958 457.1750411107366L47.86501004929117 551.6949753335581Q47.86501004929117 551.6949753335581 58.14750593821751 554.2649735064142Q68.43000182714385 556.8349716792703 72.56999817285615 561.4049698521264Q93.8600036542877 582.40997624713 116.65000913571924 616.9124794446317Q139.44001461715078 651.4149826421334 160.15751872822443 690.9149826421334Q180.8750228392981 730.4149826421334 197.45002740715773 768.1999817285615Q214.02503197501736 805.9849808149896 223.60003654287698 834.5549789878457ZM52.160021925726184 71.96996162997917Q86.16002192572618 79.6849625435511 143.94001461715078 95.25746391390899Q201.7200073085754 110.82996528426688 272.5699981728562 131.75996711141073Q343.41998903713693 152.68996893855456 415.98498081498957 175.4049698521265L420.12998355570534 162.11496437069493Q368.69497533355803 131.69497533355803 294.69497533355803 91.0674949753544Q220.69497533355803 50.440014617150794 121.4199890371369 3.320043851452372Q115.84999086428076 -16.81995249425993 99.85499725928423 -22.104951580688006ZM66.70498812356499 291.9699616299792Q96.27498629642113 294.399963457123 147.7724830989194 300.90246665462473Q199.26997990141766 307.4049698521265 263.90997624713 316.62247396320015Q328.54997259284227 325.8399780742738 396.4049698521265 335.6999817285615L398.8349716792703 320.40997624713Q352.9749680249827 303.98998720999305 272.8299652842669 274.4300018271438Q192.6849625435511 244.87001644429463 98.11997076569841 216.17003471573312ZM62.56999817285615 545.4049698521264Q87.42499543214038 545.4049698521264 128.77748949392287 546.7624703089125Q170.12998355570537 548.1199707656984 221.05247579034403 550.6199707656984Q271.9749680249827 553.1199707656984 324.5399598028353 556.1199707656984L325.5399598028353 540.8299652842669Q302.5399598028353 533.2649735064142 265.5399598028353 521.2749862964212Q228.5399598028353 509.28499908642806 183.89996345712302 495.72501370357884Q139.25996711141073 482.1650283207297 91.40997624712996 469.0350447650243Z" fill="#D8D0C2" transform="translate(341.678 36.000) scale(0.031000 -0.031000)"/>
  <path d="M211.8800292343016 292.295011876435V327.55497898784574L292.79992691424604 292.295011876435H763.8499908642808V262.8650100492912H286.9449296549618V-54.150009135719245Q286.9449296549618 -57.57500456785962 277.8124429017547 -63.21249771607019Q268.6799561485476 -68.84999086428076 254.05247579034398 -73.5599853828492Q239.42499543214038 -78.26997990141766 223.87001644429463 -78.26997990141766H211.8800292343016ZM713.7600584686031 292.295011876435H703.4750593821751L744.3050246664419 336.54997259284227L832.5399598028354 269.1600219257262Q827.5399598028354 263.1600219257262 816.1099579756915 257.37502283929814Q804.6799561485476 251.59002375287002 789.1099579756915 248.30502466644197V-48.139996345712305Q789.1099579756915 -51.139996345712305 778.1924721360563 -56.27999269142461Q767.2749862964212 -61.41998903713691 752.7900054814315 -65.77498629642113Q738.3050246664419 -70.12998355570537 725.4600401971646 -70.12998355570537H713.7600584686031ZM240.1399963457123 26.290005481431546H760.9849808149896V-3.1399963457123024H240.1399963457123ZM264.2799926914246 476.88002923430156H601.5050977521959L651.7650648636067 538.5549789878457Q651.7650648636067 538.5549789878457 660.7600584686031 531.4874840124913Q669.7550520735997 524.4199890371369 684.1050429378804 512.9974968024983Q698.4550338021612 501.5750045678596 714.09002375287 488.51001279000695Q729.7250137035788 475.44502101215426 743.0050063950034 463.45002740715773Q739.0050063950034 447.45002740715773 716.1500091357192 447.45002740715773H272.2799926914246ZM520.6899689385546 783.5850173578666Q486.11997076569844 728.8750228392981 433.62247396320015 672.7325232960841Q381.1249771607019 616.59002375287 317.2724830989194 563.9450210121543Q253.4199890371369 511.3000182714385 182.78249588892635 466.72501370357884Q112.14500274071577 422.15000913571924 39.86501004929117 390.14500274071577L33.150009135719245 404.7200073085754Q96.72000730857539 440.71500091357194 163.01001279000695 493.4974968024983Q229.3000182714385 546.2799926914246 288.2350264935858 607.2774894939229Q347.17003471573315 668.2749862964212 391.3200438514524 730.0599853828492Q435.47005298717164 791.8449844692773 454.90506120931894 845.5599853828492L580.8249588892634 815.2950118764351Q578.2549607164073 806.7250137035788 568.5424630003371 802.5125159875087Q558.8299652842669 798.3000182714385 539.2649735064142 796.3000182714385Q572.5499725928423 749.1550155307227 619.4049698521264 706.8600036542878Q666.2599671114107 664.5649917778527 722.5449661978388 627.3374748767721Q778.8299652842669 590.1099579756915 841.4049698521264 558.8799378771091Q903.9799744199861 527.6499177785269 968.7049881235649 502.3498995070883L967.2749862964212 487.77990133423214Q951.2900054814315 484.49990864280755 937.7275169010807 475.22742554388816Q924.1650283207297 465.95494244496876 915.3125342589472 453.32746208676514Q906.4600401971646 440.6999817285615 902.8900420243085 427.28499908642806Q822.0250319750173 467.5750045678596 747.6575187282244 522.7250137035788Q673.2900054814315 577.8750228392981 614.5649917778527 644.0200255800139Q555.8399780742739 710.1650283207297 520.6899689385546 783.5850173578666Z" fill="#D8D0C2" transform="translate(372.678 36.000) scale(0.031000 -0.031000)"/>
  <path d="M478.5099214328145 87.81995249425992Q478.5099214328145 84.67995614854763 469.6624337660355 79.18496254355111Q460.8149460992565 73.68996893855457 447.11496437069496 69.12247396320015Q433.41498264213345 64.55497898784574 418 64.55497898784574H407.295011876435V386.5599853828492V420.39495706211954L483.79492051924257 386.5599853828492H835.8449844692773V357.12998355570534H478.5099214328145ZM669.3799378771091 371.704988123565Q669.0949387906811 371.704988123565 652.7524575189055 371.704988123565Q636.40997624713 371.704988123565 608.010012790007 371.704988123565H595.7400328885893V746.4400146171508L669.3799378771091 756.7150009135719ZM781.4650465921682 386.5599853828492 821.1550155307227 429.81995249425995 907.1099579756915 363.9949936049965Q902.1099579756915 357.9949936049965 890.8224556917617 352.5674949753544Q879.5349534078318 347.1399963457123 864.2499543214038 344.1399963457123V95.24995432140378Q864.2499543214038 91.9649552349757 853.9024666546247 86.53995980283533Q843.5549789878457 81.11496437069495 829.6399963457122 76.61746756819667Q815.7250137035788 72.11997076569841 803.1650283207297 72.11997076569841H791.7500456785962V386.5599853828492ZM904.2499543214038 761.0300383700209Q897.1099579756915 754.7450392835927 883.257463913909 754.7450392835927Q869.4049698521264 754.7450392835927 850.5549789878457 762.600036542877Q788.4149826421334 748.3100310614454 706.9199890371369 734.805024666442Q625.4249954321403 721.3000182714385 535.8575004567859 711.4375114196491Q446.29000548143154 701.5750045678597 360.7200073085754 697.2849990864281L356.5750045678596 714.5750045678597Q417.15000913571924 724.2849990864281 482.79501187643507 738.4949936049966Q548.4400146171508 752.7049881235649 611.5125159875088 770.1299835557054Q674.5850173578666 787.5549789878457 728.8000182714385 805.3374748767721Q783.0150191850104 823.1199707656984 821.4450210121543 839.2599671114107ZM878.0200255800139 636.6799561485476Q878.0200255800139 636.6799561485476 887.4450210121543 628.8974602596213Q896.8700164442946 621.1149643706949 911.5075095925051 609.2624703089125Q926.1450027407158 597.40997624713 942.2824958889264 583.7724830989193Q958.4199890371369 570.1349899507088 971.4149826421334 557.4249954321403Q967.4149826421334 541.4249954321403 944.5599853828492 541.4249954321403H327.1349899507088L319.1349899507088 570.8549972592842H827.7550520735997ZM834.1450027407158 158.54997259284227V129.1199707656984H444.1249771607019V158.54997259284227ZM223.12998355570537 152.9849808149896Q235.9849808149896 152.9849808149896 242.91247944463169 150.1999817285615Q249.8399780742738 147.41498264213342 258.40997624713 138.41498264213342Q303.27498629642116 91.4049698521265 356.562488580351 66.32996528426688Q409.84999086428076 41.254960716407254 479.55748218534745 32.39746025962129Q549.2649735064142 23.539959802835327 643.104951580688 23.539959802835327Q726.6799561485476 23.539959802835327 800.5399598028353 24.46745843247744Q874.399963457123 25.394957062119552 959.8349716792703 28.964955234975704V16.249954321403777Q935.9949936049966 11.25496071640725 922.5050063950034 -5.512515987508676Q909.0150191850104 -22.279992691424603 905.4450210121543 -46.5449661978388Q861.7150009135719 -46.5449661978388 815.142499543214 -46.5449661978388Q768.5699981728561 -46.5449661978388 720.2124977160702 -46.5449661978388Q671.8549972592842 -46.5449661978388 619.9849808149896 -46.5449661978388Q525.4249954321403 -46.5449661978388 458.2124977160702 -31.90747304962823Q391 -17.269979901417663 340.4949936049965 16.937511419649056Q289.98998720999305 51.145002740715775 244.1249771607019 109.85499725928423Q234.1249771607019 121.13498995070883 226.91247944463169 120.49249040749478Q219.6999817285615 119.84999086428076 211.41498264213342 109.56999817285615Q201.6999817285615 93.71500091357193 182.76997990141766 67.07500456785962Q163.8399780742738 40.43500822214732 143.40997624712998 11.440014617150789Q122.97997441998612 -17.55497898784574 107.69497533355803 -42.4049698521265Q111.12497716070189 -48.68996893855457 109.26997990141766 -54.68996893855457Q107.41498264213344 -60.68996893855457 102.12998355570537 -65.4049698521265L39.160021925726184 16.244947926400307Q62.155015530722714 32.38995066711608 89.79250867893329 55.53745660533359Q117.43000182714385 78.6849625435511 144.99749680249826 100.97496802498264Q172.56499177785267 123.2649735064142 193.34748766677902 138.1249771607019Q214.12998355570537 152.9849808149896 223.12998355570537 152.9849808149896ZM102.01501918501042 822.7049881235649Q162.704988123565 794.5499725928423 199.69247213605632 764.1199707656984Q236.67995614854763 733.6899689385546 254.96245203747395 704.694975333558Q273.2449479264003 675.6999817285615 275.8924538646178 651.8499908642807Q278.5399598028353 628 270.19247213605627 612.8625068517895Q261.8449844692773 597.7250137035788 246.07250137035788 595.2250137035788Q230.3000182714385 592.7250137035788 210.88503562930507 606.7150009135719Q202.4550338021612 639.9949936049966 182.3800292343016 678.0649917778527Q162.30502466644197 716.1349899507088 137.73002009858234 752.2774894939229Q113.15501553072272 788.4199890371369 90.4400146171508 816.2749862964212ZM248.1099579756915 142.7150009135719 180.1750411107366 111.14500274071577V472.01001279000695H41.58501735786656L35.58501735786656 500.72501370357884H165.60504293788046L206.295011876435 555.2649735064142L296.81995249425995 480.58501735786655Q291.9649552349757 475.01501918501043 280.32245569176166 469.7300200985824Q268.6799561485476 464.44502101215426 248.1099579756915 461.1600219257262Z" fill="#D8D0C2" transform="translate(403.678 36.000) scale(0.031000 -0.031000)"/>
  <path d="M155.95994883997224 -22.30001827143849Q155.95994883997224 -26.44001461715079 148.46745843247743 -32.43500822214732Q140.97496802498264 -38.43000182714385 128.12998355570537 -42.99749680249826Q115.28499908642807 -47.56499177785268 99.87001644429463 -47.56499177785268H87.45002740715773V660.0050063950034V694.9849808149896L160.67494975354415 660.0050063950034H389.18004750574005V630.5750045678597H155.95994883997224ZM339.0849260006741 811.8650100492912Q332.79992691424604 790.4400146171508 301.0899323956776 790.4400146171508Q289.09493879068106 767.5800109628631 273.10244838318624 740.1500091357193Q257.1099579756915 712.7200073085754 240.90246665462476 685.7900054814315Q224.69497533355803 658.8600036542877 211.41498264213342 638.1450027407158H185.70999451856846Q191.56999817285615 663 199.07500456785962 698.3549972592842Q206.5800109628631 733.7099945185685 213.7275169010806 770.8499908642807Q220.8750228392981 807.989987209993 226.16502832072965 838.5599853828492ZM831.4750593821751 661.1450027407158 875.0150191850104 708.5449661978388 958.1199707656984 637.7250137035788Q952.1199707656984 631.4400146171508 942.3349716792704 627.3700164442946Q932.5499725928423 623.3000182714385 915.2649735064142 621.7300200985824Q912.2649735064142 481.1750411107366 907.5499725928423 370.24754248109446Q902.8349716792703 259.3200438514524 894.6924721360563 177.88503562930507Q886.5499725928423 96.45002740715773 873.9799744199861 44.80001827143849Q861.40997624713 -6.849990864280755 842.9849808149896 -28.419989037136908Q821.8499908642808 -54.559985382849206 791.5 -66.2724830989194Q761.1500091357192 -77.98498081498958 723.0250319750173 -77.98498081498958Q723.0250319750173 -60.145002740715775 719.0975333453753 -45.51251598750868Q715.1700347157331 -30.88002923430158 703.3150374564489 -22.3150374564489Q691.4600401971646 -12.465046592168145 663.2450392835927 -3.7550520735996917Q635.0300383700209 4.954942444968761 603.18004750574 10.094938790681063L604.18004750574 27.099945185684536Q627.4650465921682 25.099945185684536 655.8225470489541 22.384944272112612Q684.18004750574 19.669943358540685 709.0375479625261 17.95494244496876Q733.895048419312 16.239941531396838 745.4650465921682 16.239941531396838Q760.6100493328839 16.239941531396838 768.3950484193119 18.882441074610874Q776.18004750574 21.524940617824914 783.895048419312 29.95494244496876Q803.6100493328839 49.09994518568453 814.8975516168138 130.5399598028353Q826.1850539007436 211.97997441998612 832.9725561846733 347.06248858035093Q839.7600584686031 482.14500274071577 842.7600584686031 661.1450027407158ZM346.895048419312 660.0050063950034 386.01501918501043 703.2649735064142 469.68996893855456 637.7250137035788Q465.4049698521265 631.4400146171508 453.6174675681967 626.2975150739368Q441.82996528426685 621.1550155307227 426.82996528426685 617.8700164442946V6.844984469277285Q426.82996528426685 3.5599853828492094 416.90997624713 -2.222510506077131Q406.98998720999305 -8.005006395003472 393.5025031975017 -13.002503197501735Q380.01501918501043 -18 367.4550338021612 -18H356.895048419312V660.0050063950034ZM543.1600219257261 455.28499908642806Q605 429.41998903713693 642.5649917778527 399.062488580351Q680.1299835557054 368.704988123565 697.9174858396352 339.2799926914246Q715.7049881235649 309.85499725928423 717.7124977160702 285.5025031975017Q719.7200073085754 261.15000913571924 710.3025214689403 245.65251233322098Q700.8850356293051 230.15501553072272 684.3975516168138 227.65251233322098Q667.9100676043224 225.15000913571924 648.3500822214731 240.70999451856846Q643.0600767400416 275.2799926914246 624.7650648636065 312.9949936049965Q606.4700529871716 350.70999451856846 581.6025397403787 386.13999634571235Q556.7350264935858 421.5699981728562 532.3000182714385 448.1399963457123ZM890.0200255800139 661.1450027407158V631.7150009135719H571.8600036542877L584.5750045678597 661.1450027407158ZM710.5249406178249 805.8650100492912Q707.5249406178249 798.010012790007 698.5974419881827 791.795011876435Q689.6699433585406 785.5800109628631 672.6699433585406 786.2950118764351Q634.6799561485476 676.3000182714385 579.4749680249827 580.937511419649Q524.2699799014176 485.5750045678596 457.1399963457123 420.71500091357194L443.2799926914246 430.5750045678596Q475.4300018271438 480.71500091357194 505.00750959250524 546.0674949753544Q534.5850173578666 611.4199890371369 559.447524209656 686.5599853828492Q584.3100310614454 761.6999817285615 600.3150374564489 838.4149826421334ZM400.31003106144544 381.14500274071577V351.71500091357194H124.27498629642113V381.14500274071577ZM400.31003106144544 87.56999817285615V58.139996345712305H124.27498629642113V87.56999817285615Z" fill="#D8D0C2" transform="translate(434.678 36.000) scale(0.031000 -0.031000)"/>
  <path d="M542.5399598028354 617.7099945185685Q574.399963457123 543.9949936049966 620.5449661978388 476.1324867532071Q666.6899689385546 408.2699799014177 722.2624703089125 349.2624703089125Q777.8349716792703 290.25496071640725 838.5499725928423 244.104951580688Q899.2649735064142 197.95494244496876 960.2649735064142 167.66493696353723L957.9799744199861 157.37993787710914Q934.2849990864281 154.81494609925647 914.5850173578666 138.33246848176861Q894.8850356293051 121.84999086428076 885.0350447650243 95.30502466644197Q809.0350447650243 147.3000182714385 740.9500274071577 224.01251598750866Q672.8650100492912 300.72501370357884 618.0624885803509 398.6500091357192Q563.2599671114107 496.5750045678596 526.81995249426 610.1349899507088ZM501.5449661978388 601.7099945185685Q441.5399598028353 436.295011876435 325.4049698521265 296.72501370357884Q209.26997990141766 157.15501553072272 44.58501735786656 61.150009135719245L32.72501370357887 74.15501553072272Q122.87502283929811 141.72501370357887 197.17003471573315 230.2925086789333Q271.46504659216816 318.8600036542877 327.54756075253295 418.4274986296422Q383.6300749128978 517.9949936049966 416.3550886164767 617.7099945185685H501.5449661978388ZM573.5299470128284 828.7049881235649Q571.8149460992564 817.8499908642808 563.8874474696142 810.4224922346386Q555.9599488399722 802.9949936049966 534.9649552349757 799.7099945185685V-52.71500091357193Q534.9649552349757 -57.28499908642807 526.4024666546247 -63.567494975354414Q517.8399780742739 -69.84999086428076 504.28249588892635 -74.1324867532071Q490.72501370357884 -78.41498264213344 475.4550338021612 -78.41498264213344H461.04005116002776V841.2699799014176ZM667.6050429378804 238.24995432140378Q667.6050429378804 238.24995432140378 676.5300383700207 230.8249588892634Q685.4550338021612 223.39996345712302 699.4500274071577 211.1199707656984Q713.4450210121543 198.8399780742738 728.9400146171508 185.05998538284922Q744.4350082221473 171.2799926914246 756.8600036542877 158.56999817285615Q752.8600036542877 142.56999817285615 731.0050063950034 142.56999817285615H254.7200073085754L246.7200073085754 172H617.4800657771785ZM835.1700347157331 687.3849442721126Q835.1700347157331 687.3849442721126 845.3800292343016 679.3174492967582Q855.59002375287 671.2499543214038 870.7975150739367 658.8274620867651Q886.0050063950034 646.4049698521264 902.8549972592841 631.8399780742739Q919.7049881235649 617.2749862964212 933.6999817285615 604.2799926914246Q929.6999817285615 588.2799926914246 907.5599853828492 588.2799926914246H78.15000913571924L69.43500822214732 617.7099945185685H781.1950666907505Z" fill="#D8D0C2" transform="translate(465.678 36.000) scale(0.031000 -0.031000)"/>
  <path d="M617.6050429378804 837.4149826421334 722.2549607164073 826.4199890371369Q721.2549607164073 816.4199890371369 713.3974602596213 808.9199890371369Q705.5399598028354 801.4199890371369 686.9699616299791 798.4199890371369V125.53495340783185Q686.9699616299791 121.67995614854763 678.3349716792703 115.75496071640725Q669.6999817285615 109.82996528426688 656.8549972592842 105.18996893855457Q644.010012790007 100.54997259284227 630.1650283207297 100.54997259284227H617.6050429378804ZM419.46504659216816 761.2799926914246 525.5399598028354 749Q524.5399598028354 739 516.1824593460494 731.5Q507.8249588892634 724 490.25496071640725 721V64.37993787710914Q490.25496071640725 41.664936963537215 503.8974602596213 32.23493513639337Q517.5399598028354 22.804933309249517 562.9799744199861 22.804933309249517H709.5699981728561Q760.3050246664419 22.804933309249517 795.8150374564489 23.804933309249517Q831.3250502464558 24.804933309249517 847.3250502464558 26.51993422282144Q868.3200438514524 29.234935136393368 876.8850356293051 41.51993422282144Q883.5950301478736 55.80493330924952 894.2325232960841 96.23994153139684Q904.8700164442946 136.67494975354415 916.7200073085754 190.67995614854763H929.5800109628631L932.1500091357192 37.08993239567759Q953.4249954321403 30.094938790681063 960.9199890371369 22.67244655604242Q968.4149826421334 15.249954321403779 968.4149826421334 4.114964370694947Q968.4149826421334 -10.160021925726186 957.5599853828492 -19.65251233322098Q946.7049881235649 -29.145002740715775 918.7799926914246 -34.78249588892634Q890.8549972592842 -40.41998903713691 839.4300018271438 -42.91748583963518Q788.0050063950034 -45.41498264213344 706.5800109628631 -45.41498264213344H556.989987209993Q505.0050063950035 -45.41498264213344 475.0150191850104 -37.559985382849206Q445.0250319750173 -29.70498812356498 432.24503928359275 -9.427498629642113Q419.46504659216816 10.849990864280755 419.46504659216816 48.25996711141072ZM39.58001096286309 535.4249954321403H263.01001279000695L305.5699981728562 597.6749497535442Q305.5699981728562 597.6749497535442 313.78249588892635 590.2499543214037Q321.9949936049965 582.8249588892634 334.49249040749476 571.5449661978388Q346.98998720999305 560.2649735064142 360.3449844692773 546.9849808149895Q373.6999817285615 533.7049881235649 383.98498081498957 521.9949936049966Q380.6999817285615 505.9949936049965 358.6999817285615 505.9949936049965H47.58001096286309ZM162.46504659216814 818.8449844692773 269.399963457123 807.4199890371369Q267.6849625435511 797.4199890371369 259.82746208676514 789.9199890371369Q251.96996162997917 782.4199890371369 233.11496437069493 779.8499908642808V157.5449661978388L162.46504659216814 134.99499360499652ZM31.160021925726184 115.2449479264003Q60.87001644429464 124.67494975354415 115.79501187643501 145.67995614854763Q170.7200073085754 166.6849625435511 239.79000548143154 195.83497167927035Q308.8600036542877 224.9849808149896 380.0050063950035 256.41998903713693L385.8650100492912 243.41498264213342Q334.85499725928423 208.56499177785267 261.704988123565 158.7875022839298Q188.55497898784574 109.01001279000694 93.26997990141766 50.16502832072966Q89.12998355570537 31.455033802161203 73.4199890371369 22.74003288858928ZM814.3300566414594 622.5750045678597 840.3300566414594 631.5750045678597 851.0450575550312 604.1450027407158 300.14500274071577 398.11997076569844 280.71500091357194 422.54997259284227ZM832.6150557278874 625.5750045678597H822.3300566414594L862.0150191850104 666.9799744199861L940.8349716792703 602.8700164442946Q935.8349716792703 596.8700164442946 926.3349716792703 592.9425178146525Q916.8349716792703 589.0150191850104 902.5499725928423 587.0150191850104Q901.5499725928423 488.44502101215426 898.6924721360563 419.2975150739368Q895.8349716792703 350.15000913571924 890.1924721360563 305.2150009135719Q884.5499725928423 260.2799926914246 875.4799744199861 234.1324867532071Q866.40997624713 207.9849808149896 853.4149826421334 194.6999817285615Q837.1349899507088 178.12998355570537 814.7124977160702 170.70248492606325Q792.2900054814315 163.27498629642113 767.7300200985824 163.27498629642113Q767.7300200985824 178.82996528426688 765.8725196417963 191.6774529510459Q764.0150191850104 204.5249406178249 756.3000182714385 212.51993422282143Q749.3000182714385 220.08492600067413 735.652512333221 225.72492234638645Q722.0050063950034 231.36491869209874 704.8650100492912 234.7899141242391V251.79492051924257Q721.4450210121543 250.79492051924257 743.0950301478736 248.86491869209874Q764.7450392835927 246.9349168649549 776.4600401971646 246.9349168649549Q795.0350447650243 246.9349168649549 803.7500456785962 256.36491869209874Q813.18004750574 266.5099214328145 818.9675497896699 306.3049333092495Q824.7550520735997 346.09994518568453 828.1850539007435 424.25746391390896Q831.6150557278874 502.41498264213345 832.6150557278874 625.5750045678597Z" fill="#D8D0C2" transform="translate(496.678 36.000) scale(0.031000 -0.031000)"/>
  <path d="M266.1249771607019 -16.424995432140378Q204.40997624712998 -16.424995432140378 147.34498446927728 0.5050063950034716Q90.27999269142461 17.43500822214732 53.145002740715775 41.43000182714385L58.71500091357193 193.40997624712998H101.69998172856151L135.5299470128284 25.015019185010413L87.69497533355803 47.58001096286309L81.5599853828492 80.43000182714385Q130.12998355570537 45 168.34498446927728 32.56999817285615Q206.55998538284922 20.1399963457123 259.1349899507088 20.1399963457123Q339.5699981728562 20.1399963457123 388.3650100492912 56.5Q437.1600219257262 92.8600036542877 437.1600219257262 163.73002009858234Q437.1600219257262 199.8750228392981 424.15751872822443 226.37752603679985Q411.1550155307227 252.8800292343016 380.5050063950035 274.74003288858927Q349.85499725928423 296.600036542877 296.2699799014177 318.1750411107366L253.27498629642113 336.3150374564489Q163.2849990864281 374.45002740715773 116.50500639500348 425.44502101215426Q69.72501370357887 476.4400146171508 69.72501370357887 554.2849990864281Q69.72501370357887 617.9949936049966 101.36501004929117 660.704988123565Q133.00500639500348 703.4149826421334 186.6399963457123 725.1974785310597Q240.27498629642113 746.9799744199861 306.25996711141073 746.9799744199861Q363.82996528426685 746.9799744199861 407.6074547781897 732.694975333558Q451.3849442721126 718.40997624713 489.2399415313968 692.1249771607019L484.09994518568453 548.1450027407158H439.6849625435511L406.70999451856846 709.399963457123L456.25496071640725 686.2649735064142L459.81995249425995 652.989987209993Q420.8249588892634 684.4149826421334 388.4649552349757 697.1999817285615Q356.104951580688 709.9849808149896 312.95994883997224 709.9849808149896Q243.66994335854068 709.9849808149896 198.66493696353723 676.6974785310598Q153.65993056853375 643.40997624713 153.65993056853375 578.8299652842669Q153.65993056853375 522.5399598028354 186.66493696353723 488.67995614854766Q219.66994335854068 454.81995249425995 277.6749497535442 430.104951580688L323.95494244496876 411.1099579756915Q399.6699433585407 379.5399598028353 443.2399415313969 347.6849625435511Q486.809939704253 315.82996528426685 505.0224374203232 278.0474693953405Q523.2349351363933 240.26497350641418 523.2349351363933 188.26997990141766Q523.2349351363933 125.84498446927728 491.5224374203232 79.63498995070883Q459.809939704253 33.42499543214038 402.10244838318624 8.5Q344.39495706211954 -16.424995432140378 266.1249771607019 -16.424995432140378Z" fill="#D8D0C2" transform="translate(535.614 36.000) scale(0.031000 -0.031000)"/>
  <path d="M40.00500639500347 0V28.1399963457123L149.01001279000695 38.854997259284225H186.1099579756915L295.9649552349757 28.1399963457123V0ZM122.45002740715773 0Q123.45002740715773 19.8600036542877 123.95002740715773 48.28750228392981Q124.45002740715773 76.71500091357193 124.95002740715773 108.85499725928423Q125.45002740715773 140.99499360499652 125.45002740715773 172.34999086428076Q125.45002740715773 203.704988123565 125.45002740715773 229.4199890371369V744.2799926914246L38.86501004929117 748.8499908642808V775.8499908642808L203.51993422282143 807.40997624713L218.51993422282143 798.40997624713L215.23493513639337 642.4149826421334V232.41498264213342Q215.23493513639337 205.84498446927728 215.23493513639337 173.704988123565Q215.23493513639337 141.56499177785267 215.73493513639337 109.13999634571229Q216.23493513639337 76.71500091357193 216.8774346796074 48.28750228392981Q217.51993422282143 19.8600036542877 218.51993422282143 0ZM170.55998538284922 175.56999817285615V218.85499725928423H174.6999817285615L323.8249588892634 368.6999817285615L474.23493513639335 518.8299652842669H525.0799196056706ZM455.5750045678596 0 283.4049698521265 299.5699981728562 346.3549059020918 359.3849442721126 533.7849077292357 34.854997259284225 610.2249223463864 28.1399963457123V0ZM337.3849442721126 489.5449661978388V518.8299652842669H584.5149278278179V489.5449661978388L467.79992691424604 479.68996893855456L448.65993056853375 476.68996893855456Z" fill="#D8D0C2" transform="translate(553.253 36.000) scale(0.031000 -0.031000)"/>
  <path d="M42.7200073085754 0V28.1399963457123L152.01001279000695 38.854997259284225H187.8249588892634L293.9649552349757 28.1399963457123V0ZM123.88002923430159 0Q124.88002923430159 24.569998172856153 125.73752969108754 65.6399963457123Q126.5950301478735 106.70999451856845 127.0950301478735 151.2799926914246Q127.5950301478735 195.84999086428076 127.5950301478735 229.4199890371369V291.5449661978388Q127.5950301478735 342.25996711141073 126.73752969108754 382.55247579034403Q125.88002923430159 422.8449844692773 123.88002923430159 459.98998720999305L36.29501187643502 464.41498264213345V489.8449844692773L206.9499360499653 531.2549607164073L219.23493513639337 522.9699616299791L216.66493696353723 381.27498629642116V229.4199890371369Q216.66493696353723 195.84999086428076 217.16493696353723 151.2799926914246Q217.66493696353723 106.70999451856845 218.30743650675126 65.6399963457123Q218.9499360499653 24.569998172856153 219.9499360499653 0ZM164.55497898784574 655Q139.56499177785267 655 121.93000182714384 671.2074913210668Q104.29501187643501 687.4149826421334 104.29501187643501 713.6899689385546Q104.29501187643501 739.3949570621196 121.93000182714384 755.9599488399722Q139.56499177785267 772.5249406178249 164.55497898784574 772.5249406178249Q189.11496437069493 772.5249406178249 207.32245569176166 755.9599488399722Q225.5299470128284 739.3949570621196 225.5299470128284 713.6899689385546Q225.5299470128284 687.4149826421334 207.32245569176166 671.2074913210668Q189.11496437069493 655 164.55497898784574 655Z" fill="#D8D0C2" transform="translate(572.287 36.000) scale(0.031000 -0.031000)"/>
  <path d="M34.43000182714385 0V28.1399963457123L150.5800109628631 38.854997259284225H186.67995614854763L304.1099579756915 28.1399963457123V0ZM122.45002740715773 0Q123.45002740715773 31.99499360499653 123.95002740715773 71.42249223463864Q124.45002740715773 110.84999086428076 124.95002740715773 152.2074913210667Q125.45002740715773 193.56499177785267 125.45002740715773 229.4199890371369V744.2799926914246L38.86501004929117 748.8499908642808V775.8499908642808L203.51993422282143 807.40997624713L218.51993422282143 798.40997624713L215.23493513639337 642.4149826421334V229.4199890371369Q215.23493513639337 193.56499177785267 215.73493513639337 152.2074913210667Q216.23493513639337 110.84999086428076 216.8774346796074 71.42249223463864Q217.51993422282143 31.99499360499653 218.51993422282143 0Z" fill="#D8D0C2" transform="translate(582.641 36.000) scale(0.031000 -0.031000)"/>
  <path d="M34.43000182714385 0V28.1399963457123L150.5800109628631 38.854997259284225H186.67995614854763L304.1099579756915 28.1399963457123V0ZM122.45002740715773 0Q123.45002740715773 31.99499360499653 123.95002740715773 71.42249223463864Q124.45002740715773 110.84999086428076 124.95002740715773 152.2074913210667Q125.45002740715773 193.56499177785267 125.45002740715773 229.4199890371369V744.2799926914246L38.86501004929117 748.8499908642808V775.8499908642808L203.51993422282143 807.40997624713L218.51993422282143 798.40997624713L215.23493513639337 642.4149826421334V229.4199890371369Q215.23493513639337 193.56499177785267 215.73493513639337 152.2074913210667Q216.23493513639337 110.84999086428076 216.8774346796074 71.42249223463864Q217.51993422282143 31.99499360499653 218.51993422282143 0Z" fill="#D8D0C2" transform="translate(593.088 36.000) scale(0.031000 -0.031000)"/>
  <path d="M222.9849808149896 -14.854997259284227Q173.56499177785267 -14.854997259284227 133.7875022839298 -4.5Q94.01001279000694 5.854997259284227 52.87001644429464 25.849990864280755L53.7200073085754 146.1199707656984H99.12998355570537L123.83497167927034 18.424995432140378L85.56499177785268 21.13498995070883V57.13498995070883Q114.5599853828492 37.99499360499653 145.27498629642113 27.852494061782494Q175.98998720999305 17.709994518568454 219.2799926914246 17.709994518568454Q284.8600036542877 17.709994518568454 318.2200073085754 43.93000182714385Q351.58001096286307 70.15000913571924 351.58001096286307 112.5800109628631Q351.58001096286307 148.87001644429463 329.2200073085754 172.2275169010806Q306.8600036542877 195.58501735786658 245.43000182714385 214.73002009858234L193.15000913571924 233.73002009858234Q131.87001644429463 255.1600219257262 96.0150191850104 290.1550155307227Q60.160021925726184 325.15000913571924 60.160021925726184 382Q60.160021925726184 446.6999817285615 109.65000913571924 490.1924721360563Q159.1399963457123 533.6849625435511 251.26497350641418 533.6849625435511Q296.9749680249827 533.6849625435511 332.75496071640725 522.899963457123Q368.53495340783184 512.1149643706949 406.8149460992565 489.399963457123L402.6749497535442 380.5599853828492H361.4049698521265L335.4249954321404 499.2499543214038L368.40997624713 492.68996893855456V460.5449661978388Q337.69497533355803 481.9749680249827 310.4049698521265 491.3324684817686Q283.11496437069496 500.68996893855456 251.68996893855456 500.68996893855456Q195.67995614854763 500.68996893855456 166.60745477818975 475.9724648274809Q137.53495340783186 451.25496071640725 137.53495340783186 411.8249588892634Q137.53495340783186 376.2449479264003 161.1099579756915 353.7449479264003Q184.6849625435511 331.2449479264003 239.8249588892634 312.8149460992565L290.95994883997224 294.8149460992565Q367.09994518568453 268.6699433585407 399.5249406178249 232.17494975354418Q431.9499360499653 195.67995614854763 431.9499360499653 142.25996711141073Q431.9499360499653 97.84498446927728 408.16994335854065 62.064991777852676Q384.38995066711607 26.284999086428076 338.1124611731932 5.715000913571925Q291.8349716792703 -14.854997259284227 222.9849808149896 -14.854997259284227Z" fill="#D8D0C2" transform="translate(603.535 36.000) scale(0.031000 -0.031000)"/>
  <path d="M178.73002009858234 -28.25996711141072Q175.59002375287002 -60.39996345712302 152.95253060465944 -101.1849625435511Q130.3150374564489 -141.96996162997917 72.60504293788046 -173.6849625435511L88.1750411107366 -200.24995432140378Q142.02002558001388 -174.39495706211954 172.94001461715078 -136.25996711141073Q203.8600036542877 -98.12497716070189 216.85499725928423 -55.349990864280755Q229.84999086428076 -12.575004567859622 229.84999086428076 25.269979901417663Q229.84999086428076 67.96996162997917 209.3600036542877 94.96745843247743Q188.87001644429463 121.9649552349757 152.8750228392981 121.9649552349757Q120.60003654287698 121.9649552349757 103.03754796252603 102.54496619783879Q85.47505938217509 83.12497716070189 85.47505938217509 57.56499177785268Q85.47505938217509 31.290005481431546 99.82505024645585 14.94001461715079Q114.1750411107366 -1.4099762471299648 136.16753151823139 -11.192472136056304Q158.1600219257262 -20.974968024982644 178.73002009858234 -28.25996711141072Z" fill="#D8D0C2" transform="translate(618.322 36.000) scale(0.031000 -0.031000)"/>
  <path d="M413.5699981728562 743.1399963457123V775.6899689385546V777.6899689385546L496.35991229709526 743.1399963457123H484.0749132106672V59.80993970425299Q484.0749132106672 37.37993787710914 497.6474145810251 28.09243559317933Q511.219915951383 18.804933309249517 557.5199342228215 18.804933309249517H705.5499725928423Q757.1450027407158 18.804933309249517 793.3000182714385 19.662433766035477Q829.4550338021612 20.51993422282144 845.600036542877 22.234935136393368Q856.8850356293051 23.234935136393368 863.6675315182314 26.734935136393368Q870.4500274071577 30.234935136393368 874.59002375287 37.51993422282144Q882.0150191850104 50.80493330924952 892.152512333221 89.16744016103895Q902.2900054814315 127.52994701282839 913.5699981728561 180.24995432140378H926.4300018271439L929 32.08993239567759Q950.2749862964212 25.80993970425299 957.9849808149896 18.244947926400307Q965.6949753335581 10.679956148547628 965.6949753335581 -0.17003471573312723Q965.6949753335581 -14.160021925726186 954.624977160702 -24.01001279000694Q943.5549789878457 -33.860003654287695 915.1999817285615 -39.282495888926334Q886.8449844692773 -44.70498812356498 835.4174858396352 -47.34498446927728Q783.989987209993 -49.984980814989584 702.5599853828492 -49.984980814989584H550.6749497535442Q498.82996528426685 -49.984980814989584 468.55247579034403 -42.12998355570536Q438.27498629642116 -34.27498629642113 425.92249223463864 -13.854997259284227Q413.5699981728562 6.56499177785268 413.5699981728562 43.68996893855457ZM451.3849442721126 743.1399963457123H834.0550703450382L867.4600401971646 785.6799561485476L952.5549789878457 720.8549972592842Q948.2699799014176 714.8549972592842 938.7699799014176 710.0699981728562Q929.2699799014176 705.2849990864281 913.9849808149896 703.2849990864281V326.9949936049965Q913.9849808149896 322.1399963457123 897.0699981728562 313.14500274071577Q880.1550155307227 304.15000913571924 854.4700529871716 304.15000913571924H842.6250685178943V713.7099945185685H451.3849442721126ZM631.0250319750173 743.1399963457123H700.2499543214038V392.58501735786655H631.0250319750173ZM450.95994883997224 408.87001644429466H870.5950301478736V379.4400146171508H450.95994883997224ZM39.015019185010416 622.8549972592842H293.30502466644197L335.7200073085754 681.6799561485476Q335.7200073085754 681.6799561485476 343.7175041110737 674.8974602596213Q351.71500091357194 668.1149643706949 363.9974968024983 656.9774712224844Q376.2799926914246 645.8399780742739 389.56248858035093 633.3449844692773Q402.8449844692773 620.8499908642808 413.41498264213345 609.4249954321403Q410.12998355570534 593.4249954321403 387.8449844692773 593.4249954321403H47.015019185010416ZM191.33005664145932 839.5549789878457 298.2649735064142 828.5599853828492Q296.54997259284227 818.2749862964212 288.04997259284227 810.7749862964212Q279.54997259284227 803.2749862964212 261.2649735064142 800.989987209993V21.534953407831857Q261.2649735064142 -6.590023752870035 254.6974785310598 -27.507509592505208Q248.12998355570537 -48.42499543214038 226.28499908642806 -61.20498812356498Q204.44001461715078 -73.98498081498958 158.75004567859622 -79.26997990141766Q157.75004567859622 -62.28499908642807 153.39254522181025 -48.65251233322098Q149.03504476502428 -35.020025580013886 139.75004567859622 -26.170034715733127Q130.03504476502428 -16.89004202430852 112.39004202430851 -11.03754796252603Q94.74503928359275 -5.18505390074354 65.60504293788046 -1.0450575550312386V14.81494609925646Q65.60504293788046 14.81494609925646 79.03504476502431 13.81494609925646Q92.46504659216815 12.81494609925646 110.89504841931199 11.599945185684536Q129.32505024645585 10.384944272112612 146.39755161681373 9.384944272112612Q163.4700529871716 8.384944272112612 169.7550520735997 8.384944272112612Q182.90005481431547 8.384944272112612 187.1150557278874 12.599945185684536Q191.33005664145932 16.81494609925646 191.33005664145932 27.674949753544155ZM32.30502466644196 328.93491686495486Q64.59002375287004 335.79492051924257 122.51251598750869 350.157427371032Q180.43500822214733 364.51993422282146 254.28499908642806 384.8124429017547Q328.1349899507088 405.104951580688 405.8449844692773 426.5399598028353L409.98998720999305 412.53495340783184Q356.2699799014177 385.6849625435511 278.05748218534745 346.7674767039159Q199.84498446927728 307.84999086428076 95.28499908642807 260.8650100492912Q90.14500274071577 242.44001461715078 73.15000913571924 236.01001279000695Z" fill="#D8D0C2" transform="translate(331.500 75.000) scale(0.033000 -0.033000)"/>
  <path d="M374.104951580688 794.1500091357192Q370.104951580688 785.8650100492912 360.31995249425995 780.8650100492912Q350.53495340783184 775.8650100492912 334.2499543214038 778.5800109628631Q283.4049698521265 681.8800292343016 213.05998538284922 608.1675315182314Q142.7150009135719 534.4550338021612 64.59002375287004 489.3150374564489L52.73002009858234 501.60504293788046Q93.30502466644197 539.0250319750173 133.52252877751562 591.5150191850104Q173.74003288858927 644.0050063950034 208.8150374564489 707.2099945185685Q243.8900420243085 770.4149826421334 268.18004750574005 839.2649735064142ZM803.7200073085754 785.809939704253Q803.7200073085754 785.809939704253 813.0725013703579 778.5274438153267Q822.4249954321403 771.2449479264003 837.274986296421 759.8924538646179Q852.1249771607019 748.5399598028354 868.2599671114108 735.4024666546247Q884.3949570621196 722.2649735064142 897.9599488399722 709.5549789878457Q893.9599488399722 693.5549789878457 871.81995249426 693.5549789878457H249.25996711141073V722.9849808149896H753.8900420243085ZM327.1349899507088 238.00500639500348Q367.5599853828492 177.42499543214038 430.90997624713 134.98748401249134Q494.25996711141073 92.54997259284227 575.8974602596213 65.11246117319321Q657.5349534078318 37.674949753544155 753.1074547781898 22.66744016103895Q848.6799561485476 7.6599305685337455 953.1199707656984 1.9399232599583485L952.4049698521264 -10.345075826469728Q927.8549972592842 -15.765064863606632 912.0075095925051 -33.46004019716467Q896.1600219257261 -51.155015530722714 890.4500274071577 -78.69998172856151Q753.8650100492912 -60.844984469277286 642.0725013703579 -25.917485839635173Q530.2799926914246 9.010012790006941 447.41998903713693 70.22251050607714Q364.5599853828492 131.43500822214733 312.41498264213345 227.14500274071577ZM676.8900420243085 256.4249954321404 729.5699981728561 300.1099579756915 804.6649369635372 226.44001461715078Q797.9499360499653 220.3000182714385 788.3074365067513 218.01501918501043Q778.6649369635372 215.73002009858234 758.6649369635372 215.1600219257262Q689.6749497535442 126.02503197501736 587.6899689385546 65.17003471573312Q485.704988123565 4.3150374564489 354.07750776536136 -31.117467568196684Q222.45002740715773 -66.54997259284227 63.1750411107366 -80.12998355570537L58.030038370020826 -62.839978074273816Q203.1750411107366 -38.69998172856151 326.74503928359275 2.367513246792903Q450.3150374564489 43.43500822214732 543.242536086091 106.50250319750174Q636.1700347157331 169.56999817285615 689.0300383700209 256.4249954321404ZM721.7200073085754 256.4249954321404V226.99499360499652H309.98498081498957L338.41498264213345 256.4249954321404ZM688.3350630364628 609.8399780742739 725.5950301478736 649.809939704253 805.399963457123 588.4199890371369Q801.399963457123 583.4199890371369 791.899963457123 578.3499908642807Q782.399963457123 573.2799926914246 769.9749680249827 571.7099945185685V343.8349716792703Q769.9749680249827 340.8349716792703 759.4849808149896 335.4799744199861Q748.9949936049966 330.1249771607019 734.9375114196491 325.9124794446317Q720.8800292343016 321.6999817285615 708.3200438514524 321.6999817285615H696.9050612093189V609.8399780742739ZM310.219915951383 337.399963457123Q310.219915951383 334.25996711141073 301.014927827818 328.40747304962827Q291.809939704253 322.55497898784574 278.1099579756915 318.1299835557054Q264.40997624713 313.704988123565 248.70999451856846 313.704988123565H238.00500639500348V609.8399780742739V643.9599488399722L315.7899141242391 609.8399780742739H739.4400146171508V580.40997624713H310.219915951383ZM443.53495340783184 309.87001644429466Q439.81995249425995 302.87001644429466 431.81995249425995 299.15751872822443Q423.81995249425995 295.44502101215426 406.53495340783184 297.8750228392981Q379.1099579756915 256.0200255800139 336.1124611731932 211.66252512322794Q293.11496437069496 167.30502466644197 239.61746756819667 127.6600219257262Q186.1199707656984 88.01501918501042 124.69497533355803 60.155015530722714L114.83497167927034 73.44502101215426Q165.12998355570537 108.5800109628631 209.71249771607017 156.07250137035788Q254.295011876435 203.56499177785267 289.5200255800139 255.20248492606322Q324.74503928359275 306.8399780742738 344.18004750574005 353.1249771607019ZM730.4550338021612 381.41498264213345V351.98498081498957H277.81995249425995V381.41498264213345ZM730.4550338021612 495.98498081498957V466.55497898784574H277.81995249425995V495.98498081498957Z" fill="#D8D0C2" transform="translate(364.500 75.000) scale(0.033000 -0.033000)"/>
  <path d="M571.9599488399722 447Q568.2449479264003 425.71500091357194 536.5299470128284 421.71500091357194V25.959948839972235Q536.5299470128284 -3.735026493585808 529.0349534078318 -25.72251050607713Q521.5399598028354 -47.70999451856845 496.4824776174879 -60.91748583963517Q471.4249954321404 -74.12497716070189 418.5950301478735 -79.69497533355803Q415.88002923430156 -61.56999817285615 410.5225287775156 -47.86751324679291Q405.1650283207297 -34.16502832072966 393.5950301478735 -25.74503928359275Q381.5950301478735 -15.895048419311994 359.87752603679985 -8.900054814315466Q338.1600219257262 -1.9050612093189372 300.7350264935858 2.9499360499652916V18.524940617824914Q300.7350264935858 18.524940617824914 318.3075278639437 17.167440161038954Q335.88002923430156 15.80993970425299 360.81003106144544 14.452439247467026Q385.74003288858927 13.094938790681063 407.6700347157331 11.737438333895101Q429.600036542877 10.379937877109139 437.600036542877 10.379937877109139Q451.8900420243085 10.379937877109139 456.9625433946664 14.952439247467026Q462.0350447650243 19.524940617824914 462.0350447650243 31.099945185684536V458.4249954321404ZM372.25996711141073 190.72501370357887Q368.25996711141073 183.72501370357887 360.11746756819673 180.29751507393675Q351.9749680249827 176.87001644429463 334.9749680249827 180.3000182714385Q306.55497898784574 143.8750228392981 263.91998903713693 103.23252329608408Q221.2849990864281 62.59002375287004 170.22251050607713 24.445021012154264Q119.16002192572618 -13.69998172856151 63.60003654287698 -42.559985382849206L52.74003288858928 -29.69998172856151Q98.02503197501736 6.865010049291168 141.0275351725191 54.28499908642808Q184.03003837002083 101.70498812356499 219.4625433946664 150.98247761748786Q254.895048419312 200.25996711141073 275.47005298717164 241.96996162997917ZM636.7200073085754 228.40997624712998Q720.5599853828492 199.39495706211954 775.552475790344 166.3924538646178Q830.5449661978388 133.38995066711607 861.4024666546247 101.75245751890552Q892.2599671114107 70.11496437069495 903.194975333558 42.97997441998612Q914.1299835557054 15.844984469277286 909.7124977160702 -2.0050063950034698Q905.2950118764351 -19.854997259284225 889.2375296910875 -24.924995432140378Q873.18004750574 -29.99499360499653 851.1950666907505 -18.290005481431546Q836.7650648636067 9.704988123564982 811.0450575550312 41.70248492606325Q785.3250502464558 73.69998172856151 753.4600401971647 106.12748035820363Q721.5950301478736 138.55497898784574 688.5875205553683 167.6249771607019Q655.5800109628631 196.69497533355803 625.8600036542877 218.83497167927035ZM844.1600219257261 387.52994701282836Q844.1600219257261 387.52994701282836 854.2275169010807 379.747451123902Q864.2950118764351 371.9649552349757 880.3600036542878 359.25496071640725Q896.4249954321403 346.5449661978388 913.989987209993 332.40747304962827Q931.5549789878457 318.2699799014177 946.2649735064142 304.8449844692773Q942.2649735064142 288.8449844692773 918.6949753335581 288.8449844692773H70.7350264935858L62.020025580013886 318.27498629642116H789.3250502464558ZM638.7400328885893 711.4199890371369 677.2849990864281 752.81995249426 752.6749497535442 687.5599853828492Q748.6749497535442 682.989987209993 740.1024483831864 679.347487666779Q731.5299470128284 675.7049881235649 718.0999451856845 673.7049881235649V497.65993056853375Q718.0999451856845 489.65993056853375 722.8874474696144 486.65993056853375Q727.6749497535442 483.65993056853375 746.1099579756915 483.65993056853375H811.989987209993Q831.2849990864281 483.65993056853375 847.9350082221474 484.01743102531975Q864.5850173578666 484.3749314821057 871.0150191850104 485.3749314821057Q882.5850173578666 485.3749314821057 886.7250137035788 494.9449296549618Q892.5800109628631 504.514927827818 899.9325050246456 533.5874291981759Q907.2849990864281 562.6599305685337 915.4199890371369 596.9399232599584H928.2799926914246L930.9949936049966 492.3749314821057Q947.1299835557054 486.3799378771091 951.8424812717756 479.59994518568453Q956.5549789878457 472.81995249425995 956.5549789878457 462.9699616299792Q956.5549789878457 447.9799744199861 944.2024849260633 438.9149826421334Q931.8499908642808 429.84999086428076 899.3549972592842 425.70999451856846Q866.8600036542877 421.5699981728562 806.5750045678597 421.5699981728562H728.1349899507088Q694.4350082221473 421.5699981728562 676.8700164442946 427.4949936049966Q659.3050246664419 433.41998903713693 653.5925269503717 447.33997807427386Q647.8800292343016 461.25996711141073 647.8800292343016 484.8149460992565V711.4199890371369ZM472.81995249425995 827.9849808149896Q471.81995249425995 818.6999817285615 464.1774529510459 812.0574821853475Q456.53495340783184 805.4149826421334 440.2499543214038 803.4149826421334Q436.9649552349757 750.7099945185685 431.0374566053336 699.5725013703579Q425.1099579756915 648.4350082221473 406.75496071640725 600.2225105060771Q388.399963457123 552.010012790007 349.18996893855456 507.93751141964907Q309.9799744199861 463.8650100492912 242.84498446927728 425.0050063950035Q175.70999451856846 386.14500274071577 69.86501004929117 353.5699981728562L58.57500456785962 370.14500274071577Q148.01001279000695 405.71500091357194 204.87251964179637 446.85750045678594Q261.7350264935858 488 293.6675315182314 533.2849990864281Q325.600036542877 578.5699981728561 339.6025397403787 627.7824958889264Q353.60504293788046 676.9949936049966 357.3925452218102 729.9199890371369Q361.18004750574005 782.8449844692773 362.18004750574005 838.6949753335581ZM699.5549789878457 711.4199890371369V681.989987209993H106.30001827143849L97.30001827143849 711.4199890371369Z" fill="#D8D0C2" transform="translate(397.500 75.000) scale(0.033000 -0.033000)"/>
  <path d="M289.98498081498957 393.71500091357194H823.6200621228909L875.0250319750173 459.104951580688Q875.0250319750173 459.104951580688 884.2350264935858 451.5374566053336Q893.4450210121543 443.9699616299792 907.652512333221 432.04746939534056Q921.8600036542877 420.1249771607019 937.7099945185685 406.5599853828492Q953.5599853828492 392.9949936049965 966.8399780742739 380.28499908642806Q965.5549789878457 372.28499908642806 958.2699799014176 368.64249954321406Q950.9849808149896 365 940.6999817285615 365H297.98498081498957ZM310.8449844692773 -7.559985382849209H798.9100676043224L850.1700347157331 58.39996345712302Q850.1700347157331 58.39996345712302 859.5225287775156 50.83246848176861Q868.8750228392981 43.264973506414194 883.5825141603648 31.19998172856151Q898.2900054814315 19.13498995070883 914.1399963457122 5.569998172856151Q929.989987209993 -7.994993604996529 943.2699799014176 -20.989987209993057Q941.5549789878457 -28.274986296421133 934.4849808149895 -32.27498629642113Q927.4149826421334 -36.27498629642113 916.4149826421334 -36.27498629642113H318.8449844692773ZM809.895048419312 817.1199707656984 897.9699616299791 739.1850539007436Q890.8299652842669 732.6150557278874 877.1924721360563 732.3300566414594Q863.5549789878457 732.0450575550312 843.1349899507088 739.1850539007436Q778.1349899507088 720.6100493328839 692.2074913210668 702.1750411107366Q606.2799926914246 683.7400328885893 511.9949936049965 669.2325232960841Q417.70999451856846 654.7250137035788 326.9949936049965 646.2900054814315L322.84999086428076 663.4400146171508Q386.5699981728562 676.1500091357192 455.50500639500353 694.3600036542877Q524.4400146171508 712.5699981728561 590.3025214689403 733.5649917778526Q656.1650283207297 754.5599853828492 712.8850356293051 776.1274803582037Q769.6050429378804 797.6949753335581 809.895048419312 817.1199707656984ZM168.1750411107366 541.1600219257261 201.15501553072272 583.989987209993 271.2449479264003 558.2950118764351Q269.2449479264003 551.2950118764351 261.88744746961436 546.652512333221Q254.5299470128284 542.010012790007 241.67494975354415 539.7250137035788V-55.43000182714385Q241.38995066711607 -58.28499908642807 232.1124611731932 -63.99499360499653Q222.83497167927035 -69.70498812356499 209.56248858035093 -74.48748401249132Q196.29000548143154 -79.26997990141766 181.59002375287002 -79.26997990141766H168.1750411107366ZM252.90506120931894 839.5549789878457 364.8249588892634 804.7200073085754Q361.5399598028353 796.1500091357192 352.25496071640725 790.1500091357192Q342.9699616299792 784.1500091357192 325.9699616299792 785.1500091357192Q291.9749680249827 692.8750228392981 248.26747670391595 608.3025214689403Q204.55998538284922 523.7300200985824 153.35499725928423 452.01001279000695Q102.15000913571924 380.29000548143154 45.16502832072966 326.4300018271438L31.30502466644196 336.29000548143154Q74.16502832072966 396.71500091357194 115.95503380216121 477.7824958889264Q157.74503928359275 558.8499908642808 193.25004567859622 651.7749862964212Q228.7550520735997 744.6999817285615 252.90506120931894 839.5549789878457ZM572.0350447650243 718.2950118764351H646.9599488399722V-24.13498995070883Q646.6749497535442 -24.13498995070883 630.3324684817686 -24.13498995070883Q613.989987209993 -24.13498995070883 585.0200255800139 -24.13498995070883H572.0350447650243Z" fill="#D8D0C2" transform="translate(430.500 75.000) scale(0.033000 -0.033000)"/>
  <path d="M559.2499543214038 398.58001096286307Q556.81995249426 385.8650100492912 547.1049515806881 380.295011876435Q537.3899506671161 374.72501370357884 521.9649552349757 373.72501370357884Q512.6799561485476 295.87001644429466 487.32495888926337 226.3000182714385Q461.9699616299792 156.73002009858234 411.3324684817686 98.44502101215426Q360.69497533355803 40.160021925726184 275.6324867532071 -5.197478531059776Q190.56999817285615 -50.554978987845736 61.155015530722714 -80.69998172856151L54.01001279000694 -66.83997807427382Q169.15501553072272 -29.989987209993057 242.94502101215426 20.575004567859622Q316.7350264935858 71.1399963457123 358.74003288858927 132.92249223463864Q400.74503928359275 194.704988123565 419.1075461353822 265.99249040749476Q437.47005298717164 337.2799926914246 440.7600584686032 415.14500274071577ZM725.6050429378804 279.8600036542877 767.5750045678597 322.54997259284227 847.6749497535442 255.58501735786658Q843.104951580688 250.3000182714385 833.247451123902 246.37251964179637Q823.3899506671161 242.44502101215426 808.104951580688 241.1600219257262Q800.2499543214038 130.45002740715773 781.5374566053335 56.945021012154264Q762.8249588892634 -16.55998538284921 730.4049698521264 -41.12998355570536Q711.5549789878457 -55.69998172856151 683.989987209993 -63.484980814989584Q656.4249954321403 -71.26997990141766 621.8750228392981 -71.26997990141766Q622.1600219257261 -55.854997259284225 618.2325232960841 -42.22251050607713Q614.3050246664419 -28.590023752870035 601.8800292343016 -19.025031975017356Q589.8850356293051 -10.890042024308523 560.6725379132349 -3.252548876097955Q531.4600401971646 4.384944272112612 500.7550520735997 8.80993970425299V25.244947926400307Q524.4650465921682 23.244947926400307 554.8900420243085 20.887447469614344Q585.3150374564489 18.529947012828384 611.1700347157331 16.672446556042424Q637.0250319750173 14.81494609925646 647.3100310614454 14.81494609925646Q672.600036542877 14.81494609925646 683.600036542877 24.244947926400307Q702.0300383700209 39.81995249425993 715.6750411107366 108.3324684817686Q729.3200438514524 176.84498446927728 736.3200438514524 279.8600036542877ZM776.0250319750173 279.8600036542877V250.43000182714385H122.29000548143155L113.29000548143155 279.8600036542877ZM691.7650648636067 729.4249954321403 746.4450210121543 774.6799561485476 825.5399598028354 698.4400146171508Q818.8249588892634 691.5850173578666 808.8249588892634 689.6575187282244Q798.8249588892634 687.7300200985824 778.8249588892634 686.4450210121543Q705.9749680249827 589.0200255800139 598.3424812717756 517.4450210121543Q490.70999451856846 445.87001644429466 351.64750593821753 400.5050063950035Q212.58501735786658 355.1399963457123 44.87502283929811 333.6999817285615L38.73002009858234 349.98998720999305Q189.31003106144544 381.98998720999305 319.17253791323486 434.1324867532071Q449.0350447650243 486.27498629642116 547.9675497896699 560.062488580351Q646.9000548143155 633.8499908642808 703.9050612093189 729.4249954321403ZM308.704988123565 699.8399780742739Q351.27498629642116 634.9799744199861 419.1999817285615 587.9024666546247Q487.1249771607019 540.8249588892634 574.0499725928423 508.88744746961436Q660.9749680249827 476.9499360499653 761.4749680249827 458.72742554388816Q861.9749680249827 440.50491503781103 969.40997624713 432.3549059020918L968.6949753335581 420.7849077292356Q944.1450027407158 415.36491869209874 928.1550155307227 397.5974419881828Q912.1650283207297 379.82996528426685 905.7400328885893 351.85499725928423Q764.8750228392981 372.85499725928423 646.225013703579 412.7124977160702Q527.5750045678597 452.5699981728562 438.13999634571235 519.4949936049966Q348.704988123565 586.4199890371369 293.6999817285615 688.2649735064142ZM467.514927827818 812.5699981728561Q464.514927827818 805.2849990864281 456.514927827818 802.0Q448.514927827818 798.7150009135719 428.9449296549618 801.1450027407158Q392.52494061782494 740.5800109628631 338.6774529510459 679.295011876435Q284.82996528426685 618.010012790007 219.91247944463169 565.6500091357193Q154.99499360499652 513.2900054814315 84.86501004929117 478L73.57500456785962 490.0050063950035Q131.15000913571924 531.2900054814315 184.58251416036484 589.9300018271438Q238.0150191850104 648.5699981728561 281.94752420965597 714.9224922346386Q325.88002923430156 781.2749862964212 352.17003471573315 844.9849808149896ZM730.0300383700209 729.4249954321403V699.9949936049966H303.4350082221473L329.15000913571924 729.4249954321403Z" fill="#D8D0C2" transform="translate(463.500 75.000) scale(0.033000 -0.033000)"/>
  <path d="M675.8600036542877 577.7099945185685Q691.8600036542877 450.28499908642806 725.6399963457122 338.2749862964211Q759.4199890371369 226.26497350641418 819.6999817285615 137.82245569176166Q879.9799744199861 49.37993787710914 972.9799744199861 -8.48507217218203L969.6949753335581 -17.770071258610106Q944.5800109628631 -22.19006029574701 926.5925269503717 -36.67253791323486Q908.6050429378804 -51.155015530722714 900.3250502464558 -77.69998172856151Q820.3150374564489 -8.55497898784574 771.4500274071577 88.15751872822445Q722.5850173578666 184.87001644429463 697.5075095925052 302.7925086789333Q672.4300018271439 420.71500091357194 660.8549972592842 551.2749862964212ZM819.895048419312 622.9799744199861H897.2549607164073Q888.1099579756915 506.54997259284227 866.5374566053335 403.6274803582036Q844.9649552349757 300.704988123565 802.9674584324774 212.92749862964212Q760.9699616299791 125.15000913571924 692.5499725928423 52.227516901080605Q624.1299835557054 -20.69497533355804 520.5750045678597 -78.12497716070189L510.71500091357194 -65.54997259284227Q595.8600036542877 -1.6999817285615118 653.3650100492912 73.36250685178943Q710.8700164442946 148.42499543214038 745.7325232960841 234.41748583963516Q780.5950301478736 320.40997624713 797.600036542877 417.6924721360563Q814.6050429378804 514.9749680249827 819.895048419312 622.9799744199861ZM688.1700347157331 838.9849808149896 799.3849442721126 816.1450027407158Q797.0999451856845 806.8600036542877 788.3149460992565 800.5025031975017Q779.5299470128284 794.1450027407158 763.2449479264003 792.8600036542877Q738.3949570621196 670.7200073085754 694.1149643706949 565.7875022839298Q649.8349716792703 460.85499725928423 587.1299835557054 388.4249954321404L572.2699799014176 397.5699981728562Q601.2799926914246 453.5649917778527 624.6450027407158 524.7749862964212Q648.010012790007 595.9849808149896 664.4450210121543 676.1974785310598Q680.8800292343016 756.40997624713 688.1700347157331 838.9849808149896ZM315.8249588892634 97.57500456785962H550.2749862964212V68.14500274071577H315.8249588892634ZM395.44502101215426 831.9799744199861 498.3799378771091 821.5549789878457Q497.3799378771091 811.5549789878457 490.0224374203232 804.6974785310598Q482.66493696353723 797.8399780742739 465.3799378771091 795.5549789878457V351.8349716792703H395.44502101215426ZM239.13498995070884 608.4249954321403H523.5699981728561L568.1299835557054 666.9699616299791Q568.1299835557054 666.9699616299791 581.5549789878457 655.1174675681966Q594.9799744199861 643.2649735064142 613.8324684817686 626.8424812717756Q632.6849625435511 610.4199890371369 647.5399598028354 594.9949936049966Q645.8249588892634 586.9949936049966 639.3974602596213 582.9949936049966Q632.9699616299791 578.9949936049966 622.2549607164073 578.9949936049966H246.4199890371369ZM290.58001096286307 369.6999817285615V401.1099579756915L361.2399415313968 369.6999817285615H553.4350082221473V340.2699799014177H356.52494061782494V-5.010012790006941Q356.52494061782494 -8.150009135719245 348.31744929675824 -13.575004567859622Q340.1099579756915 -19 327.6924721360563 -23.28249588892634Q315.27498629642116 -27.56499177785268 301.4300018271438 -27.56499177785268H290.58001096286307ZM134.75004567859622 541.1600219257261 165.02002558001388 581.4249954321403 233.82996528426688 556.3000182714385Q231.5449661978388 549.3000182714385 224.0449661978388 544.6575187282244Q216.5449661978388 540.0150191850104 203.25996711141073 538.0150191850104V-57.139996345712305Q203.25996711141073 -59.70999451856845 194.26747670391592 -64.99249040749478Q185.27498629642113 -70.27498629642113 172.71500091357194 -74.7724830989194Q160.15501553072272 -79.26997990141766 147.31003106144544 -79.26997990141766H134.75004567859622ZM193.33506303646277 839.2699799014176 301.40997624713 807.8650100492912Q296.1249771607019 786.8650100492912 263.55497898784574 786.8650100492912Q238.41498264213342 700.1600219257261 204.704988123565 617.0175223825122Q170.99499360499652 533.8750228392981 130.28750228392983 461.51501918501043Q89.5800109628631 389.1550155307227 42.735026493585806 332.72501370357884L28.590023752870035 341.87001644429466Q62.16502832072966 404.58001096286307 92.95503380216121 485.71750411107365Q123.74503928359275 566.8549972592842 149.96504659216814 657.8499908642807Q176.18505390074353 748.8449844692773 193.33506303646277 839.2699799014176ZM689.8499908642808 623.6949753335581H843.1700347157331L890.010012790007 685.6599305685337Q890.010012790007 685.6599305685337 898.2925086789332 678.2349351363933Q906.5750045678597 670.809939704253 919.5699981728562 659.6724465560424Q932.5649917778527 648.5349534078318 946.9174858396352 635.2549607164073Q961.2699799014176 621.9749680249827 972.6949753335581 610.2649735064142Q968.9799744199861 594.2649735064142 947.1249771607019 594.2649735064142H689.8499908642808ZM506.59002375287 369.6999817285615H511.58001096286307L544.7049881235649 406.39495706211954L609.81995249426 345.9949936049965Q598.5349534078318 332.70999451856846 573.81995249426 328.2799926914246V30.709994518568454Q573.104951580688 28.424995432140378 565.1824593460493 23.284999086428076Q557.2599671114107 18.145002740715775 545.1274803582037 13.64750593821751Q532.9949936049966 9.150009135719245 519.5800109628631 9.150009135719245H506.59002375287Z" fill="#D8D0C2" transform="translate(496.500 75.000) scale(0.033000 -0.033000)"/>
  <path d="M830.0500639500347 680 877.0250319750173 726.9749680249827 960.9849808149896 646.4400146171508Q955.6999817285615 641.5850173578666 946.4849808149895 639.8000182714385Q937.2699799014176 638.0150191850104 921.9849808149896 637.0150191850104Q899.8499908642808 610.5850173578666 864.0025031975017 578.7975150739368Q828.1550155307227 547.010012790007 797.4500274071577 525.1500091357192L784.7300200985824 532.5800109628631Q794.7350264935858 553.4350082221473 805.6700347157331 580.1475059382175Q816.6050429378804 606.8600036542877 826.1825507032418 633.7875022839298Q835.7600584686031 660.7150009135719 841.0500639500347 680ZM169.56999817285615 733.7049881235649Q187.55998538284922 677.1399963457123 184.48247761748786 634.1475059382176Q181.4049698521265 591.1550155307227 165.68996893855456 562.805024666442Q149.97496802498264 534.4550338021612 128.69497533355803 520.3150374564489Q115.41498264213344 511.1750411107366 98.99499360499652 508.600036542877Q82.57500456785962 506.0250319750173 68.9400146171508 511.7300200985823Q55.30502466644196 517.4350082221473 48.735026493585806 531.2799926914246Q42.31003106144543 550.6899689385546 51.73002009858234 566.9649552349757Q61.150009135719245 583.2399415313969 79.27999269142461 592.9499360499653Q98.85499725928423 603.809939704253 116.71249771607019 624.6724465560424Q134.56999817285615 645.5349534078318 144.92499543214038 673.757463913909Q155.2799926914246 701.9799744199861 152.84999086428076 732.989987209993ZM864.4500274071577 680V650.5699981728561H157.70999451856846V680ZM433.46504659216816 840.5599853828492Q486.5750045678596 831.2599671114107 517.6299835557054 813.472464827481Q548.6849625435511 795.6849625435511 561.8949570621196 774.7624703089125Q575.104951580688 753.8399780742739 574.4674584324774 734.9199890371369Q573.8299652842669 716 563.1274803582037 703.2925086789332Q552.4249954321403 690.5850173578666 535.5125159875087 688.7275169010807Q518.600036542877 686.8700164442946 499.04505755503124 700.7150009135719Q495.04005116002776 735.5649917778527 472.67754430823834 773.0624885803509Q450.3150374564489 810.5599853828492 423.4600401971647 833.4149826421334ZM630.6699433585406 342.85499725928423Q630.6699433585406 334.1399963457123 630.6699433585406 325.78499908642806Q630.6699433585406 317.4300018271438 630.6699433585406 311.14500274071577V35.37993787710914Q630.6699433585406 23.94993604996529 637.5999451856845 19.44993604996529Q644.5299470128284 14.949936049965292 673.2549607164073 14.949936049965292H774.5649917778527Q808.010012790007 14.949936049965292 833.1625251232279 15.449936049965292Q858.3150374564489 15.949936049965292 869.0300383700209 16.664936963537215Q878.3150374564489 17.664936963537215 882.3850356293051 20.664936963537215Q886.4550338021612 23.664936963537215 889.5950301478736 30.94993604996529Q896.0200255800139 44.23493513639337 904.7300200985824 81.38244107461088Q913.4400146171508 118.52994701282839 923.1450027407158 164.09994518568453H935.7200073085754L938.0050063950034 25.664936963537215Q955.9949936049966 19.669943358540685 961.9924904074949 12.462452037473968Q967.989987209993 5.2549607164072505 967.989987209993 -6.1650283207296575Q967.989987209993 -22.010012790006943 953.0649917778527 -32.072501370357884Q938.1399963457123 -42.13498995070883 895.7875022839298 -46.98748401249132Q853.4350082221473 -51.839978074273816 771.5800109628631 -51.839978074273816H660.4199890371369Q618.4350082221473 -51.839978074273816 596.4425178146525 -45.41498264213344Q574.4500274071577 -38.98998720999306 566.3100310614454 -23.14249954321404Q558.1700347157331 -7.295011876435018 558.1700347157331 20.11496437069495V342.85499725928423ZM422.8349716792703 343.28499908642806Q417.11997076569844 287.0050063950035 407.2624703089125 236.15251233322098Q397.4049698521265 185.3000182714385 375.69247213605627 139.1600219257262Q353.9799744199861 93.02002558001388 314.1274803582036 53.235026493585806Q274.27498629642116 13.450027407157732 209.63999634571232 -20.337474876772077Q145.00500639500348 -54.12497716070189 47.87502283929811 -81.41498264213344L38.015019185010416 -66.55497898784574Q136.02002558001388 -26.12998355570536 194.74003288858927 20.367513246792907Q253.4600401971647 66.86501004929117 283.8225470489541 118.93500822214733Q314.1850539007435 171.00500639500348 325.6175589253891 227.21750411107365Q337.0500639500347 283.4300018271438 341.1950666907505 343.28499908642806ZM692.3200438514524 573.8349716792703Q692.3200438514524 573.8349716792703 707.600036542877 562.6249771607019Q722.8800292343016 551.4149826421334 743.6575187282244 535.3499908642807Q764.4350082221473 519.2849990864281 781.7150009135719 503.5750045678596Q778.4300018271439 487.5750045678596 755.1450027407158 487.5750045678596H224.85499725928423L216.85499725928423 517.0050063950034H643.9100676043224ZM839.8700164442946 409.11496437069496Q839.8700164442946 409.11496437069496 849.295011876435 402.11746756819673Q858.7200073085754 395.11997076569844 873.2150009135719 384.2674767039159Q887.7099945185685 373.41498264213345 903.489987209993 360.704988123565Q919.2699799014176 347.9949936049965 932.9799744199861 335.85499725928423Q929.6949753335581 319.85499725928423 907.1249771607019 319.85499725928423H91.30502466644197L82.59002375287004 349.28499908642806H789.4600401971646Z" fill="#D8D0C2" transform="translate(529.500 75.000) scale(0.033000 -0.033000)"/>
  <path d="M43.72501370357887 -24.70498812356498H816.9000548143155L865.8800292343016 36.839978074273816Q865.8800292343016 36.839978074273816 874.805024666442 29.84248127177555Q883.7300200985824 22.844984469277286 898.010012790007 11.27748949392287Q912.2900054814315 -0.2900054814315465 927.7124977160702 -13.142499543214038Q943.1349899507088 -25.99499360499653 956.1299835557054 -37.41998903713691Q952.1299835557054 -53.41998903713691 929.2749862964212 -53.41998903713691H52.440014617150794ZM47.58001096286309 753.9949936049966H409.1650283207297L452.8650100492912 807.4049698521264Q452.8650100492912 807.4049698521264 466.57500456785965 796.7649735064142Q480.28499908642806 786.1249771607019 499.42249223463864 770.5574821853475Q518.5599853828492 754.989987209993 533.5549789878457 740.5649917778527Q529.5549789878457 724.5649917778527 507.2699799014177 724.5649917778527H55.58001096286309ZM109.87502283929811 261.1399963457123H751.3300566414594L798.1700347157331 318.9749680249827Q798.1700347157331 318.9749680249827 812.8075278639437 307.5499725928423Q827.4450210121543 296.1249771607019 848.010012790007 279.6299835557054Q868.5750045678597 263.1349899507088 884.8549972592842 247.70999451856846Q880.8549972592842 232.42499543214038 858.2849990864281 232.42499543214038H118.59002375287004ZM464.0350447650243 257.9949936049965H535.3949570621196V-40.69998172856151H464.0350447650243ZM505.12998355570534 128.00500639500348H704.0250319750173L752.1500091357192 186.97997441998612Q752.1500091357192 186.97997441998612 760.9325050246455 179.98247761748786Q769.7150009135719 172.9849808149896 782.9949936049966 162.41748583963516Q796.2749862964212 151.84999086428076 811.4124794446318 139.28249588892635Q826.5499725928423 126.71500091357193 838.5449661978388 114.57500456785962Q836.6899689385546 99.29000548143155 812.6899689385546 99.29000548143155H505.12998355570534ZM241.04505755503124 172.55998538284922 344.54997259284227 162.4199890371369Q343.54997259284227 152.4199890371369 336.3349716792703 145.9199890371369Q329.11997076569844 139.4199890371369 311.54997259284227 136.4199890371369V-39.27498629642113H241.04505755503124ZM123.1399963457123 542.8499908642808H446.4600401971647V513.4199890371369H123.1399963457123ZM240.03504476502428 539.2749862964212H313.4049698521265V523.2749862964212Q270.54997259284227 449.9949936049965 199.98998720999305 391.9949936049965Q129.43000182714385 333.9949936049965 39.73002009858234 293.2799926914246L30.30001827143849 309.4249954321404Q99.59002375287004 353.70999451856846 153.81003106144544 413.4924904074948Q208.03003837002083 473.27498629642116 240.03504476502428 539.2749862964212ZM803.4750593821751 696.8600036542877H885.1199707656984Q846.2599671114107 546 745.1974785310597 450.7150009135719Q644.1349899507088 355.4300018271438 469.29000548143154 303.4249954321404L462.4300018271438 317.28499908642806Q611.0150191850104 380.1399963457123 693.7400328885892 473.6374931482105Q776.4650465921682 567.1349899507088 803.4750593821751 696.8600036542877ZM247.4600401971647 843.4149826421334 349.2649735064142 832.989987209993Q348.2649735064142 823.2749862964212 340.3349716792703 816.4174858396352Q332.4049698521265 809.5599853828492 313.9749680249827 806.8449844692773V314.98998720999305Q313.9749680249827 310.704988123565 305.98247761748786 305.5649917778527Q297.98998720999305 300.4249954321404 285.7150009135719 296.5699981728562Q273.4400146171508 292.71500091357194 261.1650283207297 292.71500091357194H247.4600401971647ZM314.9699616299792 482.84999086428076Q370.38995066711607 477.98498081498957 406.60244838318624 464.4124794446317Q442.8149460992565 450.8399780742738 462.1749497535442 433.6999817285615Q481.53495340783184 416.5599853828492 487.32746208676514 399.70749132106675Q493.11997076569844 382.85499725928423 488.05748218534745 370.5725013703579Q482.9949936049965 358.29000548143154 469.6475059382175 353.79000548143154Q456.3000182714385 349.29000548143154 438.5950301478735 357.1399963457123Q427.59002375287 377.9949936049965 405.295011876435 399.5649917778527Q383 421.1349899507088 356.77498629642116 440.56248858035093Q330.54997259284227 459.98998720999305 306.25496071640725 472.5599853828492ZM615.2849990864281 678.010012790007Q644.8600036542877 603.5699981728561 691.142499543214 542.9124794446317Q737.4249954321403 482.25496071640725 806.9924904074948 438.0974419881828Q876.5599853828492 393.93992325995833 973.5599853828492 367.7849077292356L971.1299835557054 356.7849077292356Q950.4350082221473 351.5099214328145 936.9400146171508 336.8124429017547Q923.4450210121543 322.11496437069496 918.4450210121543 297.1399963457123Q829.0150191850104 333.14500274071577 768.5825141603648 385.79000548143154Q708.1500091357192 438.4350082221473 668.8600036542877 507.07750776536136Q629.5699981728561 575.7200073085754 602.7099945185685 657.2900054814315ZM88.74003288858928 662.2749862964212V692.2599671114107L156.54997259284227 662.2749862964212H447.1750411107366V633.5599853828492H151.54997259284227V501.2649735064142Q151.54997259284227 498.69497533355803 143.48498081498957 493.55497898784574Q135.4199890371369 488.41498264213345 123.21500091357191 484.9174858396352Q111.01001279000694 481.41998903713693 98.02002558001388 481.41998903713693H88.74003288858928ZM413.74003288858927 662.2749862964212H405.74003288858927L438.01001279000695 696.2599671114107L508.40997624713 642.5649917778527Q505.40997624713 638.5649917778527 496.62247396320015 634.2074913210668Q487.8349716792703 629.8499908642808 476.8349716792703 627.8499908642808V508.82996528426685Q476.8349716792703 505.5449661978388 467.55497898784574 500.18996893855456Q458.27498629642116 494.8349716792703 446.2124977160702 490.83747487677203Q434.15000913571924 486.8399780742738 423.7300200985823 486.8399780742738H413.74003288858927ZM630.1750411107366 838.4149826421334 734.9699616299791 807.4300018271439Q731.2549607164073 798.8600036542877 722.4699616299793 793.0025031975017Q713.6849625435511 787.1450027407158 698.1149643706949 787.5750045678597Q665.6899689385546 705.5750045678597 619.694975333558 638.4949936049966Q573.6999817285615 571.4149826421334 517.8499908642808 527.9799744199861L503.704988123565 538.1249771607019Q544 591.9799744199861 578.0825141603648 671.552475790344Q612.1650283207297 751.1249771607019 630.1750411107366 838.4149826421334ZM610.4300018271439 696.8600036542877H837.6200621228909L883.7450392835927 757.4049698521264Q883.7450392835927 757.4049698521264 898.3825324318034 745.552475790344Q913.0200255800139 733.6999817285615 932.8700164442946 716.7774894939229Q952.7200073085754 699.8549972592842 968.7150009135719 684.1450027407158Q964.7150009135719 668.1450027407158 942.8600036542877 668.1450027407158H610.4300018271439Z" fill="#D8D0C2" transform="translate(562.500 75.000) scale(0.033000 -0.033000)"/>
  <path d="M183 -81.85499725928423Q144.7150009135719 -81.85499725928423 112.57250137035788 -62.71249771607019Q80.43000182714385 -43.56999817285615 61.28750228392981 -11.427498629642114Q42.145002740715775 20.715000913571924 42.145002740715775 59Q42.145002740715775 98.28499908642807 61.28750228392981 129.92749862964212Q80.43000182714385 161.56999817285615 112.57250137035788 180.21249771607017Q144.7150009135719 198.85499725928423 183 198.85499725928423Q222.2849990864281 198.85499725928423 253.92749862964212 180.21249771607017Q285.5699981728562 161.56999817285615 304.2124977160702 129.92749862964212Q322.85499725928423 98.28499908642807 322.85499725928423 59Q322.85499725928423 20.715000913571924 304.2124977160702 -11.427498629642114Q285.5699981728562 -43.56999817285615 253.92749862964212 -62.71249771607019Q222.2849990864281 -81.85499725928423 183 -81.85499725928423ZM183 -48.145002740715775Q226.7150009135719 -48.145002740715775 257.9300018271438 -16.430001827143847Q289.14500274071577 15.284999086428076 289.14500274071577 59Q289.14500274071577 102.71500091357193 257.9300018271438 133.93000182714385Q226.7150009135719 165.14500274071577 183 165.14500274071577Q138.56999817285615 165.14500274071577 107.21249771607019 133.93000182714385Q75.85499725928423 102.71500091357193 75.85499725928423 59Q75.85499725928423 15.284999086428076 107.21249771607019 -16.430001827143847Q138.56999817285615 -48.145002740715775 183 -48.145002740715775Z" fill="#D8D0C2" transform="translate(595.500 75.000) scale(0.033000 -0.033000)"/>
</svg>
