<svg xmlns="http://www.w3.org/2000/svg" viewBox="0 0 960 166" role="img" aria-labelledby="title">
  <title id="title">任务中断后怎样继续，完成后怎样复查</title>
  <metadata>Lettering derived from Source Han Serif CN SemiBold and Cormorant Garamond Italic, licensed under SIL Open Font License 1.1.</metadata>
  <path d="M318.4599609375 -12.385009765625Q231.385009765625 -12.385009765625 176.3475341796875 17.114990234375Q121.31005859375 46.614990234375 93.5025634765625 95.0Q65.695068359375 143.385009765625 59.3875732421875 200.9625244140625Q53.080078125 258.5400390625 63.080078125 315.31005859375Q76.695068359375 390 112.81005859375 449.22998046875Q148.925048828125 508.4599609375 200.5400390625 550.1524658203125Q252.155029296875 591.844970703125 312.5775146484375 613.9224853515625Q373 636 434.844970703125 636Q475.844970703125 636 517.3824462890625 627.114990234375Q558.919921875 618.22998046875 581.919921875 603.919921875Q588.919921875 599.534912109375 589.919921875 595.534912109375Q590.919921875 591.534912109375 589.919921875 580.534912109375L577 457.7001953125Q576.614990234375 454.315185546875 571.614990234375 454.315185546875Q566.614990234375 454.315185546875 566 457.7001953125Q553.6201171875 534.395263671875 508.35009765625 572.8526611328125Q463.080078125 611.31005859375 395.385009765625 611.31005859375Q334.534912109375 611.31005859375 284.56982421875 579.0400390625Q234.604736328125 546.77001953125 201.40966796875 487.5Q168.214599609375 428.22998046875 155.444580078125 346Q144.28955078125 276.4599609375 151.2520751953125 214.68994140625Q158.214599609375 152.919921875 180.524658203125 105.7274169921875Q202.834716796875 58.534912109375 239.414794921875 31.534912109375Q275.994873046875 4.534912109375 324.4599609375 4.534912109375Q377.5400390625 4.534912109375 430.695068359375 41.534912109375Q483.85009765625 78.534912109375 534.919921875 155.764892578125Q537.534912109375 159.3798828125 542.2274169921875 157.0723876953125Q546.919921875 154.764892578125 545.534912109375 152.3798828125L517.3798828125 40.844970703125Q513.994873046875 28.4599609375 511.1873779296875 24.1524658203125Q508.3798828125 19.844970703125 499.3798828125 17.4599609375Q450.534912109375 1.22998046875 403.804931640625 -5.5775146484375Q357.074951171875 -12.385009765625 318.4599609375 -12.385009765625Z" fill="#8F5667" transform="translate(408.548 25.000) scale(0.023000 -0.023000)"/>
  <path d="M12.22998046875 0Q9.22998046875 0 9.22998046875 6.0Q9.22998046875 12 12.22998046875 12Q41.155029296875 12 56.5025634765625 17.0Q71.85009765625 22 79.5426025390625 37.0Q87.235107421875 52 92.235107421875 81L174.235107421875 544Q182.235107421875 586.385009765625 171.6575927734375 599.6925048828125Q161.080078125 613 119.22998046875 613Q117.22998046875 613 117.22998046875 619.0Q117.22998046875 625 119.22998046875 625Q141.074951171875 625 167.419921875 623.5Q193.764892578125 622 223.60986328125 622Q254.454833984375 622 282.7998046875 623.5Q311.144775390625 625 331.98974609375 625Q333.98974609375 625 333.98974609375 619.0Q333.98974609375 613 331.98974609375 613Q303.064697265625 613 287.7171630859375 607.0Q272.36962890625 601 265.1771240234375 585.6925048828125Q257.984619140625 570.385009765625 252.599609375 542L170.599609375 81Q162.984619140625 38 172.86962890625 25.0Q182.754638671875 12 224.98974609375 12Q227.98974609375 12 227.98974609375 6.0Q227.98974609375 0 224.98974609375 0Q203.759765625 0 175.914794921875 1.0Q148.06982421875 2 116.60986328125 2Q86.764892578125 2 59.919921875 1.0Q33.074951171875 0 12.22998046875 0ZM162.844970703125 312.925048828125 166.22998046875 337.4599609375H548.844970703125L546.22998046875 312.925048828125ZM382.085205078125 0Q380.085205078125 0 380.085205078125 6.0Q380.085205078125 12 382.085205078125 12Q412.01025390625 12 426.8577880859375 17.0Q441.705322265625 22 449.09033203125 37.0Q456.475341796875 52 461.475341796875 81L542.475341796875 542Q549.8603515625 584.385009765625 540.59033203125 598.6925048828125Q531.3203125 613 489.085205078125 613Q486.085205078125 613 486.085205078125 619.0Q486.085205078125 625 489.085205078125 625Q509.93017578125 625 537.275146484375 623.5Q564.6201171875 622 594.465087890625 622Q623.925048828125 622 651.9625244140625 623.5Q680 625 700.844970703125 625Q703.22998046875 625 703.22998046875 619.0Q703.22998046875 613 700.844970703125 613Q672.919921875 613 657.5723876953125 607.5Q642.224853515625 602 634.83984375 587.1925048828125Q627.454833984375 572.385009765625 621.83984375 544L539.83984375 81Q532.83984375 38 543.4173583984375 25.0Q553.994873046875 12 595.22998046875 12Q598.22998046875 12 598.22998046875 6.0Q598.22998046875 0 595.22998046875 0Q576.22998046875 0 548.5775146484375 1.0Q520.925048828125 2 490.465087890625 2Q460.005126953125 2 431.9676513671875 1.0Q403.93017578125 0 382.085205078125 0Z" fill="#8F5667" transform="translate(424.548 25.000) scale(0.023000 -0.023000)"/>
  <path d="M-34 0Q-38 0 -38.0 6.0Q-38 12 -34 12Q-8 12 27.8824462890625 38.7274169921875Q63.764892578125 65.454833984375 99.534912109375 129.83984375L382 634.385009765625Q384 638.385009765625 391.5 637.1925048828125Q399 636 400 633L498.98974609375 84Q503.604736328125 57 509.1822509765625 41.0Q514.759765625 25 527.914794921875 18.5Q541.06982421875 12 568.3798828125 12Q572.3798828125 12 572.3798828125 6.0Q572.3798828125 0 568.3798828125 0Q543.534912109375 0 517.9974365234375 2.0Q492.4599609375 4 462 4Q432.155029296875 4 408.81005859375 2.0Q385.465087890625 0 360.235107421875 0Q356.6201171875 0 356.6201171875 6.0Q356.6201171875 12 360.235107421875 12Q402.47021484375 12 414.1627197265625 27.0Q425.855224609375 42 418.01025390625 84L337.63037109375 530.025634765625L378.614990234375 583.925048828125L129.614990234375 130.5400390625Q104.304931640625 84.919921875 101.6124267578125 58.919921875Q98.919921875 32.919921875 117.14990234375 22.4599609375Q135.3798828125 12 172.144775390625 12Q176.144775390625 12 176.144775390625 6.0Q176.144775390625 0 171.144775390625 0Q149.684814453125 0 118.6873779296875 2.0Q87.68994140625 4 58 4Q29 4 10.5 2.0Q-8 0 -34 0ZM181.7802734375 251.33056640625 196.7802734375 275.48046875H413.855224609375L415.855224609375 251.33056640625Z" fill="#8F5667" transform="translate(442.528 25.000) scale(0.023000 -0.023000)"/>
  <path d="M13.844970703125 0Q11.4599609375 0 11.4599609375 6.0Q11.4599609375 12 13.844970703125 12Q42.77001953125 12 58.425048828125 17.0Q74.080078125 22 81.6575927734375 37.0Q89.235107421875 52 94.235107421875 81L175.85009765625 544Q183.85009765625 587.614990234375 173.7725830078125 600.3074951171875Q163.695068359375 613 121.4599609375 613Q118.844970703125 613 118.844970703125 619.0Q118.844970703125 625 121.4599609375 625Q142.68994140625 625 169.034912109375 623.5Q195.3798828125 622 225.83984375 622Q246.994873046875 622 280.83984375 625.0Q314.684814453125 628 347.3798828125 628Q404.759765625 628 448.1422119140625 609.1925048828125Q491.524658203125 590.385009765625 512.9471435546875 551.5775146484375Q534.36962890625 512.77001953125 522.984619140625 453Q513.984619140625 402.385009765625 487.1771240234375 366.1925048828125Q460.36962890625 330 424.36962890625 307.0Q388.36962890625 284 349.36962890625 273.0Q310.36962890625 262 276.36962890625 262Q264.984619140625 262 255.1771240234375 263.0Q245.36962890625 264 235.36962890625 267Q232.984619140625 268 234.984619140625 276.6524658203125Q236.984619140625 285.304931640625 240.599609375 284.304931640625Q247.984619140625 282.304931640625 255.484619140625 281.304931640625Q262.984619140625 280.304931640625 269.984619140625 280.304931640625Q305.064697265625 280.304931640625 338.7998046875 296.3824462890625Q372.534912109375 312.4599609375 398.1925048828125 346.0374755859375Q423.85009765625 379.614990234375 432.6201171875 433Q442.39013671875 489.77001953125 429.235107421875 529.0400390625Q416.080078125 568.31005859375 388.6925048828125 589.195068359375Q361.304931640625 610.080078125 327.224853515625 610.080078125Q301.98974609375 610.080078125 288.064697265625 605.6575927734375Q274.1396484375 601.235107421875 266.86962890625 586.85009765625Q259.599609375 572.465087890625 253.214599609375 542L172.214599609375 81Q165.214599609375 38 175.2921142578125 25.0Q185.36962890625 12 226.98974609375 12Q229.604736328125 12 229.604736328125 6.0Q229.604736328125 0 226.98974609375 0Q205.759765625 0 177.914794921875 1.0Q150.06982421875 2 118.224853515625 2Q88.764892578125 2 61.7274169921875 1.0Q34.68994140625 0 13.844970703125 0Z" fill="#8F5667" transform="translate(458.897 25.000) scale(0.023000 -0.023000)"/>
  <path d="M126.8603515625 0Q124.475341796875 0 124.475341796875 6.0Q124.475341796875 12 126.8603515625 12Q161.3203125 12 179.55029296875 17.0Q197.7802734375 22 206.7027587890625 37.0Q215.625244140625 52 220.625244140625 81L302.01025390625 544Q309.01025390625 581.31005859375 301.1627197265625 593.0025634765625Q293.315185546875 604.695068359375 261.385009765625 604.695068359375H243.60986328125Q207.759765625 604.695068359375 176.954833984375 586.4676513671875Q146.14990234375 568.240234375 122.9224853515625 534.9727783203125Q99.695068359375 501.705322265625 85.925048828125 454.855224609375Q84.925048828125 451.855224609375 79.2325439453125 453.0477294921875Q73.5400390625 454.240234375 74.5400390625 456.855224609375Q78.5400390625 470.085205078125 84.8475341796875 494.6226806640625Q91.155029296875 519.16015625 97.9625244140625 547.8126220703125Q104.77001953125 576.465087890625 110.885009765625 603.1175537109375Q117 629.77001953125 120 647Q122 650 127.5 649.5Q133 649 132 646Q130 631 145.0 628.0Q160 625 171 625Q208 624 257.5 623.0Q307 622 354 622Q414 622 455.0 623.5Q496 625 530 625Q558 625 573.5 629.5Q589 634 596 650Q598 653 603.0 652.5Q608 652 607 648Q603 632.77001953125 596.385009765625 606.1175537109375Q589.77001953125 579.465087890625 583.4625244140625 549.8126220703125Q577.155029296875 520.16015625 572.3475341796875 494.815185546875Q567.5400390625 469.47021484375 565.5400390625 456.855224609375Q564.5400390625 453.240234375 558.7325439453125 453.740234375Q552.925048828125 454.240234375 553.925048828125 458.240234375Q562.31005859375 504.09033203125 553.6976318359375 536.665283203125Q545.085205078125 569.240234375 521.0477294921875 586.9676513671875Q497.01025390625 604.695068359375 457.545166015625 604.695068359375H440.385009765625Q407.60986328125 604.695068359375 397.4923095703125 591.81005859375Q387.374755859375 578.925048828125 380.98974609375 542L299.98974609375 81Q294.98974609375 52 297.98974609375 37.0Q300.98974609375 22 318.0272216796875 17.0Q335.064697265625 12 370.524658203125 12Q372.524658203125 12 372.524658203125 6.0Q372.524658203125 0 370.524658203125 0Q345.604736328125 0 315.3773193359375 1.0Q285.14990234375 2 248 2Q214.465087890625 2 183.1226806640625 1.0Q151.7802734375 0 126.8603515625 0Z" fill="#8F5667" transform="translate(473.310 25.000) scale(0.023000 -0.023000)"/>
  <path d="M18.074951171875 0Q15.4599609375 0 15.4599609375 6.0Q15.4599609375 12 18.074951171875 12Q47.385009765625 12 62.5400390625 17.0Q77.695068359375 22 85.080078125 37.0Q92.465087890625 52 97.465087890625 81L178.85009765625 544Q186.85009765625 587 176.580078125 600.0Q166.31005859375 613 124.4599609375 613Q122.074951171875 613 122.074951171875 619.0Q122.074951171875 625 124.4599609375 625H512.83984375Q520.83984375 625 518.83984375 616Q515.83984375 597.385009765625 512.0323486328125 572.5400390625Q508.224853515625 547.695068359375 504.9173583984375 524.465087890625Q501.60986328125 501.235107421875 498.60986328125 486.6201171875Q497.60986328125 482.6201171875 491.9173583984375 483.9276123046875Q486.224853515625 485.235107421875 486.60986328125 487.6201171875Q487.614990234375 542.080078125 459.7376708984375 574.3875732421875Q431.8603515625 606.695068359375 383.405517578125 606.695068359375H334.2197265625Q305.064697265625 606.695068359375 290.2171630859375 602.0025634765625Q275.36962890625 597.31005859375 269.099609375 583.7325439453125Q262.82958984375 570.155029296875 257.82958984375 543L176.82958984375 85Q169.82958984375 44.22998046875 179.599609375 32.0374755859375Q189.36962890625 19.844970703125 230.2197265625 19.844970703125H296.645751953125Q345.635498046875 19.844970703125 391.51025390625 56.7674560546875Q437.385009765625 93.68994140625 466.2998046875 154.3798828125Q467.914794921875 157.3798828125 473.6072998046875 156.0723876953125Q479.2998046875 154.764892578125 477.2998046875 152.3798828125Q468.684814453125 124.534912109375 459.8773193359375 86.18994140625Q451.06982421875 47.844970703125 444.83984375 15Q441.83984375 0 428.83984375 0ZM422.834716796875 226.6201171875Q421.834716796875 222.6201171875 415.834716796875 223.1201171875Q409.834716796875 223.6201171875 410.834716796875 227.6201171875Q418.834716796875 272.005126953125 400.9923095703125 292.465087890625Q383.14990234375 312.925048828125 340.919921875 312.925048828125H180.83984375L184.454833984375 337.4599609375H347.919921875Q390.224853515625 337.4599609375 412.144775390625 354.18994140625Q434.064697265625 370.919921875 441.90966796875 410.764892578125Q442.90966796875 415.3798828125 448.90966796875 414.8798828125Q454.90966796875 414.3798828125 453.90966796875 409.3798828125Q449.294677734375 378.919921875 445.294677734375 361.574951171875Q441.294677734375 344.22998046875 438.064697265625 325Q434.064697265625 301.155029296875 430.94970703125 277.81005859375Q427.834716796875 254.465087890625 422.834716796875 226.6201171875Z" fill="#8F5667" transform="translate(488.529 25.000) scale(0.023000 -0.023000)"/>
  <path d="M17.074951171875 0Q13.074951171875 0 13.074951171875 6.0Q13.074951171875 12 17.074951171875 12Q48 12 65.155029296875 17.3074951171875Q82.31005859375 22.614990234375 90.8875732421875 37.614990234375Q99.465087890625 52.614990234375 104.465087890625 81L185.85009765625 544Q191.465087890625 573 189.080078125 587.5Q186.695068359375 602 172.7325439453125 607.5Q158.77001953125 613 128.074951171875 613Q124.074951171875 613 124.074951171875 619.0Q124.074951171875 625 128.074951171875 625Q150.304931640625 625 178.64990234375 623.5Q206.994873046875 622 237.83984375 622Q260.83984375 622 292.83984375 625.0Q324.83984375 628 344.83984375 628Q437.36962890625 628 475.4820556640625 593.0Q513.594482421875 558 501.20947265625 491Q491.20947265625 435.31005859375 453.01953125 393.31005859375Q414.82958984375 351.31005859375 359.794677734375 328.0400390625Q304.759765625 304.77001953125 244.224853515625 304.77001953125Q238.2998046875 304.77001953125 228.0672607421875 305.4625244140625Q217.834716796875 306.155029296875 213.90966796875 307.155029296875L218.36962890625 335.4599609375Q227.44970703125 332.844970703125 240.98974609375 331.5374755859375Q254.52978515625 330.22998046875 263.83984375 330.22998046875Q331.14990234375 330.22998046875 366.534912109375 361.2674560546875Q401.919921875 392.304931640625 414.4599609375 464.3798828125Q425 518.844970703125 415.5374755859375 550.885009765625Q406.074951171875 582.925048828125 383.3798828125 596.5025634765625Q360.684814453125 610.080078125 330.064697265625 610.080078125Q308.064697265625 610.080078125 296.1021728515625 606.8875732421875Q284.1396484375 603.695068359375 277.484619140625 589.6175537109375Q270.82958984375 575.5400390625 264.82958984375 542L182.82958984375 81Q177.82958984375 52.614990234375 179.82958984375 37.614990234375Q181.82958984375 22.614990234375 195.6771240234375 17.3074951171875Q209.524658203125 12 239.2197265625 12Q243.2197265625 12 243.2197265625 6.0Q243.2197265625 0 240.2197265625 0Q216.98974609375 0 189.644775390625 1.0Q162.2998046875 2 129.454833984375 2Q98.3798828125 2 68.8424072265625 1.0Q39.304931640625 0 17.074951171875 0ZM469.625244140625 0Q455.47021484375 0 430.3526611328125 34.695068359375Q405.235107421875 69.39013671875 371.8475341796875 140.9676513671875Q338.4599609375 212.545166015625 299.60986328125 322L364.824462890625 344.3798828125Q417.28955078125 220.304931640625 456.5220947265625 147.574951171875Q495.754638671875 74.844970703125 530.024658203125 43.4224853515625Q564.294677734375 12 599.834716796875 12Q603.2197265625 12 603.2197265625 6.0Q603.2197265625 0 599.834716796875 0Q548.074951171875 0 516.695068359375 0.0Q485.315185546875 0 469.625244140625 0Z" fill="#8F5667" transform="translate(503.058 25.000) scale(0.023000 -0.023000)"/>
  <path d="M22.68994140625 0Q19.68994140625 0 19.68994140625 6.0Q19.68994140625 12 22.68994140625 12Q51.614990234375 12 66.4625244140625 17.0Q81.31005859375 22 88.84149460565476 37.0Q96.37293061755952 52 101.080078125 81L183.080078125 544Q191.080078125 587 180.15631103515625 600.0Q169.2325439453125 613 127.68994140625 613Q124.68994140625 613 124.68994140625 619.0Q124.68994140625 625 127.68994140625 625Q149.27134486607142 625 176.24809919084822 623.5Q203.224853515625 622 232.93131290470157 622Q266.8815522065034 622 293.93564915012666 623.5Q320.98974609375 625 341.834716796875 625Q344.44970703125 625 344.44970703125 619.0Q344.44970703125 613 341.834716796875 613Q313.189208984375 613 297.9712829589844 607.0Q282.75335693359375 601 275.59197998046875 586.0Q268.43060302734375 571 263.0595703125 542L181.0595703125 81Q173.444580078125 38 183.56939358181424 25.0Q193.69420708550348 12 236.834716796875 12Q238.834716796875 12 238.834716796875 6.0Q238.834716796875 0 236.834716796875 0Q215.46807183159723 0 188.759765625 1.0Q162.05145941840277 2 128.93315972222223 2Q99.01985677083333 2 71.77738444010416 1.0Q44.534912109375 0 22.68994140625 0Z" fill="#8F5667" transform="translate(527.816 25.000) scale(0.023000 -0.023000)"/>
  <path d="M260.614990234375 1 136.16015625 542Q127.315185546875 581 114.045166015625 597.0Q100.775146484375 613 74.775146484375 613Q72.16015625 613 72.16015625 619.0Q72.16015625 625 74.775146484375 625Q94.85009765625 625 117.8475341796875 623.5Q140.844970703125 622 160.919921875 622Q198.2998046875 622 224.98974609375 623.5Q251.6796875 625 273.754638671875 625Q277.1396484375 625 277.1396484375 619.0Q277.1396484375 613 273.754638671875 613Q242.36962890625 613 226.0621337890625 600.5Q209.754638671875 588 217.984619140625 552L324.1396484375 91.054443359375L269.155029296875 18.85009765625L528.625244140625 524.785400390625Q551.16015625 568.625244140625 537.0477294921875 590.8126220703125Q522.935302734375 613 478.395263671875 613Q475.395263671875 613 475.395263671875 619.0Q475.395263671875 625 478.395263671875 625Q502.315185546875 625 524.9276123046875 623.5Q547.5400390625 622 583.919921875 622Q609.764892578125 622 626.60986328125 623.5Q643.454833984375 625 667.2998046875 625Q671.2998046875 625 671.2998046875 619.0Q671.2998046875 613 667.2998046875 613Q649.06982421875 613 630.9173583984375 606.5775146484375Q612.764892578125 600.155029296875 594.3824462890625 580.735107421875Q576 561.315185546875 554.85009765625 520.63037109375L284.919921875 1Q281.919921875 -3.614990234375 271.7674560546875 -3.3074951171875Q261.614990234375 -3 260.614990234375 1Z" fill="#8F5667" transform="translate(537.745 25.000) scale(0.023000 -0.023000)"/>
  <path d="M238 49 C312 33 378 63 451 49" fill="none" stroke="#4F7E83" stroke-linecap="round" stroke-width="1.5"/>
  <path d="M509 49 C582 35 648 65 722 49" fill="none" stroke="#4F7E83" stroke-linecap="round" stroke-width="1.5"/>
  <path d="M330 57 C376 51 414 56 451 51" fill="none" stroke="#966071" stroke-linecap="round" stroke-width="1.1"/>
  <path d="M509 51 C546 56 584 51 630 57" fill="none" stroke="#966071" stroke-linecap="round" stroke-width="1.1"/>
  <path d="M480 42 L487 49 L480 56 L473 49 Z" fill="#A98342"/>
  <circle cx="457" cy="49" r="2.2" fill="#966071"/>
  <circle cx="503" cy="49" r="2.2" fill="#966071"/>
  <path d="M798 824C695 770 491 697 325 660L329 645C404 650 484 659 561 670V393H295L303 365H561V-11H315L323 -40H921C935 -40 946 -35 948 -24C908 14 842 67 842 67L782 -11H660V365H945C959 365 970 370 972 381C933 418 867 471 867 471L808 393H660V686C730 698 794 712 846 726C876 715 897 716 907 726ZM238 845C194 653 109 458 25 335L38 326C81 362 121 405 158 454V-84H176C213 -84 253 -63 254 -55V536C272 539 281 546 284 555L237 572C274 637 307 707 335 783C358 782 370 791 375 803Z" fill="#123F47" transform="translate(72.000 118.000) scale(0.048000 -0.048000)"/>
  <path d="M571 396 426 414C425 368 420 322 411 279H112L121 250H403C365 117 269 3 51 -72L57 -85C343 -23 459 97 508 250H724C714 135 696 55 675 37C666 30 657 28 640 28C619 28 538 34 488 38V24C533 16 576 3 595 -11C612 -26 617 -50 616 -76C671 -76 709 -66 738 -45C784 -12 809 86 820 236C841 238 853 244 860 251L766 329L715 279H516C524 308 529 339 533 370C555 371 568 379 571 396ZM485 813 344 850C293 719 184 570 72 488L82 478C170 518 254 579 324 649C359 593 403 547 455 509C337 439 192 387 34 353L39 338C225 357 388 400 522 467C626 409 753 374 898 353C907 401 933 432 975 444V456C844 463 716 480 605 514C678 560 739 616 789 681C815 683 827 685 835 695L741 785L676 731H397C415 754 432 777 446 800C473 798 481 803 485 813ZM514 547C445 578 386 617 342 667L373 702H671C631 644 578 593 514 547Z" fill="#123F47" transform="translate(120.000 118.000) scale(0.048000 -0.048000)"/>
  <path d="M801 333H548V600H801ZM585 830 447 844V629H204L97 673V207H112C153 207 196 230 196 240V304H447V-85H467C505 -85 548 -60 548 -48V304H801V221H818C850 221 900 240 901 247V582C922 586 936 595 943 603L840 682L792 629H548V802C575 806 582 816 585 830ZM196 333V600H447V333Z" fill="#123F47" transform="translate(168.000 118.000) scale(0.048000 -0.048000)"/>
  <path d="M549 699 447 735C434 666 418 586 403 536L420 528C452 570 486 629 512 680C533 679 545 688 549 699ZM193 727 179 722C199 673 217 599 212 541C267 481 341 607 193 727ZM882 573 828 503H657V708C744 718 840 737 901 754C928 745 948 746 958 755L853 844C812 813 734 767 664 735L569 767V423C569 283 561 143 504 22C472 53 424 91 424 91L379 32H156V775C179 779 188 787 190 801L73 814V39C62 33 50 24 43 16L135 -42L163 3H481C487 3 492 4 495 6C481 -22 463 -49 442 -75L456 -86C642 47 657 248 657 422V474H767V-85H782C828 -85 855 -65 855 -59V474H952C966 474 976 479 979 490C942 524 882 573 882 573ZM479 552 436 493H384V783C410 787 418 797 421 811L307 823V493H166L174 464H283C259 352 220 238 162 150L174 137C228 188 272 247 307 312V75H322C352 75 384 93 384 103V398C415 350 448 286 452 233C522 172 593 320 384 424V464H532C546 464 556 469 558 480C528 510 479 552 479 552Z" fill="#123F47" transform="translate(216.000 118.000) scale(0.048000 -0.048000)"/>
  <path d="M770 846C659 801 457 746 276 713L278 715L158 754V472C158 292 145 95 31 -63L43 -74C238 72 254 298 254 469V505H939C953 505 964 510 967 521C924 558 856 609 856 609L795 534H254V686C450 694 665 721 810 750C840 739 861 739 871 749ZM319 333V-86H335C382 -86 411 -68 411 -61V4H755V-76H772C819 -76 851 -58 851 -53V298C872 301 883 307 889 316L798 386L752 333H421L319 374ZM411 33V304H755V33Z" fill="#123F47" transform="translate(264.000 118.000) scale(0.048000 -0.048000)"/>
  <path d="M405 268 278 279V33C278 -36 302 -52 408 -52H545C746 -52 790 -38 790 5C790 22 782 34 751 44L748 167H736C719 109 706 66 695 48C689 38 684 35 667 34C650 33 606 32 554 32H422C379 32 374 36 374 52V243C394 246 403 255 405 268ZM192 237H177C175 164 129 97 89 72C63 55 47 28 60 1C76 -30 122 -30 150 -6C192 30 229 114 192 237ZM747 253 737 246C793 189 855 99 870 22C970 -53 1048 160 747 253ZM468 265 458 259C493 221 528 158 535 105C621 40 703 213 468 265ZM404 792 268 846C232 704 151 529 62 430L73 422C163 484 244 578 303 672H427V278H444C494 278 524 297 524 302V387H890C904 387 914 392 917 403C877 438 813 487 813 487L755 416H524V528H851C865 528 875 533 878 544C840 578 778 625 778 625L724 557H524V672H925C940 672 950 677 953 688C910 727 845 774 845 774L785 701H321C338 729 353 757 365 784C389 778 398 781 404 792Z" fill="#123F47" transform="translate(312.000 118.000) scale(0.048000 -0.048000)"/>
  <path d="M457 839 447 833C479 786 516 716 524 657C608 586 695 756 457 839ZM343 674 293 606H278V804C305 808 312 818 314 833L188 845V606H45L53 577H173C146 424 96 267 17 152L30 139C95 201 147 272 188 350V-83H207C240 -83 278 -63 278 -53V468C307 426 335 371 340 325C414 262 489 410 278 493V577H404C418 577 428 582 430 593C398 627 343 674 343 674ZM851 695 799 626H715C767 676 821 737 856 780C877 777 890 784 895 796L758 845C741 783 713 692 689 626H423L431 597H609V434H444L452 405H609V216H374L382 187H609V-87H625C673 -87 702 -67 702 -61V187H949C963 187 973 192 976 203C938 238 877 287 877 287L823 216H702V405H892C906 405 916 410 919 421C883 456 823 504 823 504L771 434H702V597H922C936 597 946 602 949 613C913 648 851 695 851 695Z" fill="#123F47" transform="translate(360.000 118.000) scale(0.048000 -0.048000)"/>
  <path d="M36 85 86 -28C96 -25 105 -14 109 -1C224 62 307 117 364 156L361 168C231 130 95 96 36 85ZM934 705 820 747C810 692 783 579 761 507L772 502C821 561 873 641 898 687C919 685 931 695 934 705ZM522 737 509 732C534 674 561 588 560 522C622 456 697 600 522 737ZM306 787 181 836C163 755 101 604 53 548C45 542 25 537 25 537L70 426C80 430 89 439 97 452L197 487C156 415 107 344 66 306C58 299 35 294 35 294L84 185C93 188 101 197 108 210C209 247 301 286 350 308L348 322C260 312 172 302 112 296C202 375 301 494 353 578C373 574 386 582 391 591L278 655C266 620 245 576 221 530H88C153 595 228 695 271 770C291 769 302 777 306 787ZM869 68 814 -1H480V772C504 776 513 785 515 799L393 812V6C381 -1 370 -10 363 -18L457 -77L487 -30H942C956 -30 966 -25 968 -14C931 20 869 68 869 68ZM834 523 786 455H740V785C764 789 772 798 774 812L657 824V455H499L507 426H617C591 308 549 189 485 99L497 86C563 147 617 218 657 298V30H674C704 30 740 50 740 60V366C780 305 825 223 837 158C918 91 986 262 740 391V426H897C910 426 920 431 923 442C890 475 834 523 834 523Z" fill="#123F47" transform="translate(408.000 118.000) scale(0.048000 -0.048000)"/>
  <path d="M381 351 373 342C412 318 461 270 477 230C557 190 599 344 381 351ZM441 467 433 458C472 435 519 390 536 352C616 314 655 468 441 467ZM673 135 665 125C738 79 838 -4 879 -72C985 -118 1018 87 673 135ZM26 81 70 -39C81 -36 91 -27 96 -14C215 45 302 96 361 131L358 143C225 114 85 89 26 81ZM309 794 185 841C166 760 104 608 56 551C49 545 28 540 28 540L73 433C81 436 88 442 94 450C134 465 172 480 206 494C159 418 105 343 60 303C51 296 27 291 27 291L72 181C79 184 86 189 92 197C201 238 296 282 348 306L346 319C257 308 169 298 106 291C203 374 313 499 369 586C389 582 402 590 407 599L293 664C280 630 259 587 234 542L95 538C160 604 233 703 274 777C294 776 305 784 309 794ZM822 765 769 696H673V804C697 808 706 817 707 830L581 842V696H395L403 667H581V555H366L375 526H836C828 483 815 428 805 392L816 385C855 417 905 470 933 508C952 510 963 512 971 519L880 606L829 555H673V667H894C908 667 918 672 920 683C884 717 822 765 822 765ZM865 276 811 206H682C711 276 727 357 736 453C763 452 771 458 774 469L635 491C635 379 624 285 595 206H328L336 177H583C532 60 439 -20 285 -74L291 -87C491 -38 606 46 669 177H938C953 177 963 182 965 193C928 228 865 276 865 276Z" fill="#123F47" transform="translate(456.000 118.000) scale(0.048000 -0.048000)"/>
  <path d="M172 -34C129 -19 72 2 72 60C72 99 102 133 148 133C198 133 231 94 231 33C231 -50 190 -158 79 -211L64 -182C140 -141 167 -80 172 -34Z" fill="#123F47" transform="translate(504.000 118.000) scale(0.048000 -0.048000)"/>
  <path d="M422 844 414 838C451 806 481 750 485 700C582 629 675 823 422 844ZM682 581 627 515H218L226 486H754C768 486 779 491 781 502C743 536 682 581 682 581ZM170 737 155 736C159 679 117 628 81 609C51 594 32 566 42 533C56 497 105 490 135 511C168 533 194 581 189 651H818C809 612 793 563 780 530L791 523C835 550 894 597 927 632C947 633 958 635 966 643L869 735L814 680H185C182 698 177 717 170 737ZM836 418 780 350H77L85 321H324C313 168 278 34 33 -72L42 -86C365 -3 410 139 428 321H550V29C550 -39 569 -57 663 -57H769C934 -57 971 -39 971 1C971 19 965 31 936 41L934 178H922C906 116 892 64 882 47C877 36 872 33 860 32C846 32 814 31 777 31H683C649 31 645 36 645 51V321H913C927 321 937 326 939 337C900 371 836 418 836 418Z" fill="#123F47" transform="translate(552.000 118.000) scale(0.048000 -0.048000)"/>
  <path d="M679 820 671 811C714 786 765 738 784 696C872 655 914 821 679 820ZM132 641V426C132 257 123 70 25 -79L36 -89C214 51 228 264 228 422H378C373 257 363 177 345 160C339 153 331 151 317 151C300 151 255 154 231 157L230 142C258 136 282 126 294 114C305 100 308 78 308 52C349 52 383 62 407 83C448 117 462 201 467 409C487 412 499 417 506 425L417 499L369 450H228V612H528C541 453 571 309 631 189C562 89 471 0 353 -65L361 -77C489 -29 590 41 669 123C704 68 748 19 801 -22C848 -61 923 -96 959 -58C972 -44 968 -20 934 29L954 189L943 192C927 150 902 98 888 73C878 54 871 54 854 68C804 102 764 146 732 197C796 281 841 373 873 464C900 463 909 469 913 482L778 525C759 444 730 362 688 283C649 380 629 494 620 612H935C949 612 960 617 962 628C922 663 857 714 857 714L799 641H618C615 694 614 748 615 801C640 805 649 817 651 830L519 843C519 774 521 706 526 641H243L132 683Z" fill="#123F47" transform="translate(600.000 118.000) scale(0.048000 -0.048000)"/>
  <path d="M770 846C659 801 457 746 276 713L278 715L158 754V472C158 292 145 95 31 -63L43 -74C238 72 254 298 254 469V505H939C953 505 964 510 967 521C924 558 856 609 856 609L795 534H254V686C450 694 665 721 810 750C840 739 861 739 871 749ZM319 333V-86H335C382 -86 411 -68 411 -61V4H755V-76H772C819 -76 851 -58 851 -53V298C872 301 883 307 889 316L798 386L752 333H421L319 374ZM411 33V304H755V33Z" fill="#123F47" transform="translate(648.000 118.000) scale(0.048000 -0.048000)"/>
  <path d="M405 268 278 279V33C278 -36 302 -52 408 -52H545C746 -52 790 -38 790 5C790 22 782 34 751 44L748 167H736C719 109 706 66 695 48C689 38 684 35 667 34C650 33 606 32 554 32H422C379 32 374 36 374 52V243C394 246 403 255 405 268ZM192 237H177C175 164 129 97 89 72C63 55 47 28 60 1C76 -30 122 -30 150 -6C192 30 229 114 192 237ZM747 253 737 246C793 189 855 99 870 22C970 -53 1048 160 747 253ZM468 265 458 259C493 221 528 158 535 105C621 40 703 213 468 265ZM404 792 268 846C232 704 151 529 62 430L73 422C163 484 244 578 303 672H427V278H444C494 278 524 297 524 302V387H890C904 387 914 392 917 403C877 438 813 487 813 487L755 416H524V528H851C865 528 875 533 878 544C840 578 778 625 778 625L724 557H524V672H925C940 672 950 677 953 688C910 727 845 774 845 774L785 701H321C338 729 353 757 365 784C389 778 398 781 404 792Z" fill="#123F47" transform="translate(696.000 118.000) scale(0.048000 -0.048000)"/>
  <path d="M457 839 447 833C479 786 516 716 524 657C608 586 695 756 457 839ZM343 674 293 606H278V804C305 808 312 818 314 833L188 845V606H45L53 577H173C146 424 96 267 17 152L30 139C95 201 147 272 188 350V-83H207C240 -83 278 -63 278 -53V468C307 426 335 371 340 325C414 262 489 410 278 493V577H404C418 577 428 582 430 593C398 627 343 674 343 674ZM851 695 799 626H715C767 676 821 737 856 780C877 777 890 784 895 796L758 845C741 783 713 692 689 626H423L431 597H609V434H444L452 405H609V216H374L382 187H609V-87H625C673 -87 702 -67 702 -61V187H949C963 187 973 192 976 203C938 238 877 287 877 287L823 216H702V405H892C906 405 916 410 919 421C883 456 823 504 823 504L771 434H702V597H922C936 597 946 602 949 613C913 648 851 695 851 695Z" fill="#123F47" transform="translate(744.000 118.000) scale(0.048000 -0.048000)"/>
  <path d="M455 306 337 357H682V326H698C729 326 777 344 778 351V573C796 576 809 584 814 591L718 665L673 615H337L259 647C273 664 286 681 298 699H884C898 699 908 704 911 715C869 751 802 801 802 801L744 728H318L346 776C368 772 381 780 386 792L256 846C210 703 127 570 48 491L59 480C123 515 182 562 236 621V317H250C279 317 310 328 323 337C285 247 209 137 122 68L131 56C209 90 279 140 335 194C368 141 410 97 460 61C346 0 205 -41 49 -68L53 -84C235 -72 394 -39 524 20C623 -33 744 -64 884 -83C893 -36 918 -3 960 8V21C837 26 717 39 612 67C676 106 730 154 774 210C801 211 812 213 820 223L730 310L667 258H393L418 292C442 290 450 296 455 306ZM521 97C452 125 394 162 351 210L368 229H661C625 179 578 135 521 97ZM682 586V501H331V586ZM682 386H331V472H682Z" fill="#123F47" transform="translate(792.000 118.000) scale(0.048000 -0.048000)"/>
  <path d="M860 60 802 -11H34L43 -39H939C954 -39 964 -34 966 -23C926 12 860 60 860 60ZM680 346V248H319V346ZM319 52V88H680V30H696C729 30 774 54 775 62V333C793 336 806 344 812 351L717 424L670 375H326L225 416V22H239C278 22 319 44 319 52ZM319 117V219H680V117ZM850 761 793 688H545V799C572 803 580 813 582 826L450 839V688H50L59 659H377C300 550 176 442 35 371L43 356C207 412 351 494 450 599V405H467C504 405 545 422 545 431V659H557C625 527 755 428 890 364C901 408 927 438 964 445L966 456C831 491 669 563 583 659H926C941 659 951 664 954 675C914 711 850 761 850 761Z" fill="#123F47" transform="translate(840.000 118.000) scale(0.048000 -0.048000)"/>
</svg>
