<svg xmlns="http://www.w3.org/2000/svg" viewBox="0 0 960 136" role="img" aria-labelledby="title">
  <title id="title">How Local Skills Take Part</title>
  <metadata>Lettering derived from Bodoni Moda, licensed under SIL Open Font License 1.1.</metadata>
  <path d="M42.81775333683253 0V24.65867075851346H262.75252166307246V1475.3413292414866H42.81775333683253V1500H789.0523839848793V1475.3413292414866H549.1129003189178V24.65867075851346H789.0523839848793V0Z" fill="#B49A64" transform="translate(464.788 21.000) scale(0.011000 -0.011000)"/>
  <path d="M42.81775333683253 0V24.65867075851346H262.75252166307246V1475.3413292414866H42.81775333683253V1500H789.0523839848793V1475.3413292414866H549.1129003189178V24.65867075851346H789.0523839848793V0Z" fill="#B49A64" transform="translate(475.430 21.000) scale(0.011000 -0.011000)"/>
  <path d="M42.81775333683253 0V24.65867075851346H262.75252166307246V1475.3413292414866H42.81775333683253V1500H789.0523839848793V1475.3413292414866H549.1129003189178V24.65867075851346H789.0523839848793V0Z" fill="#B49A64" transform="translate(486.070 21.000) scale(0.011000 -0.011000)"/>
  <path d="M135 34 H420" fill="none" stroke="#8B8A83" stroke-width="0.75"/>
  <path d="M135.00 34.00 L137.97 35.19 L140.94 36.19 L143.91 36.86 L146.88 37.10 L149.84 36.86 L152.81 36.19 L155.78 35.19 L158.75 34.00 L161.72 32.81 L164.69 31.81 L167.66 31.14 L170.62 30.90 L173.59 31.14 L176.56 31.81 L179.53 32.81 L182.50 34.00 L185.47 35.19 L188.44 36.19 L191.41 36.86 L194.38 37.10 L197.34 36.86 L200.31 36.19 L203.28 35.19 L206.25 34.00 L209.22 32.81 L212.19 31.81 L215.16 31.14 L218.12 30.90 L221.09 31.14 L224.06 31.81 L227.03 32.81 L230.00 34.00 L232.97 35.19 L235.94 36.19 L238.91 36.86 L241.88 37.10 L244.84 36.86 L247.81 36.19 L250.78 35.19 L253.75 34.00 L256.72 32.81 L259.69 31.81 L262.66 31.14 L265.62 30.90 L268.59 31.14 L271.56 31.81 L274.53 32.81 L277.50 34.00 L280.47 35.19 L283.44 36.19 L286.41 36.86 L289.38 37.10 L292.34 36.86 L295.31 36.19 L298.28 35.19 L301.25 34.00 L304.22 32.81 L307.19 31.81 L310.16 31.14 L313.12 30.90 L316.09 31.14 L319.06 31.81 L322.03 32.81 L325.00 34.00 L327.97 35.19 L330.94 36.19 L333.91 36.86 L336.88 37.10 L339.84 36.86 L342.81 36.19 L345.78 35.19 L348.75 34.00 L351.72 32.81 L354.69 31.81 L357.66 31.14 L360.62 30.90 L363.59 31.14 L366.56 31.81 L369.53 32.81 L372.50 34.00 L375.47 35.19 L378.44 36.19 L381.41 36.86 L384.38 37.10 L387.34 36.86 L390.31 36.19 L393.28 35.19 L396.25 34.00 L399.22 32.81 L402.19 31.81 L405.16 31.14 L408.12 30.90 L411.09 31.14 L414.06 31.81 L417.03 32.81 L420.00 34.00" fill="none" stroke="#B49A64" stroke-opacity="0.86" stroke-width="0.72"/>
  <path d="M135.00 34.00 L137.97 32.81 L140.94 31.81 L143.91 31.14 L146.88 30.90 L149.84 31.14 L152.81 31.81 L155.78 32.81 L158.75 34.00 L161.72 35.19 L164.69 36.19 L167.66 36.86 L170.62 37.10 L173.59 36.86 L176.56 36.19 L179.53 35.19 L182.50 34.00 L185.47 32.81 L188.44 31.81 L191.41 31.14 L194.38 30.90 L197.34 31.14 L200.31 31.81 L203.28 32.81 L206.25 34.00 L209.22 35.19 L212.19 36.19 L215.16 36.86 L218.12 37.10 L221.09 36.86 L224.06 36.19 L227.03 35.19 L230.00 34.00 L232.97 32.81 L235.94 31.81 L238.91 31.14 L241.88 30.90 L244.84 31.14 L247.81 31.81 L250.78 32.81 L253.75 34.00 L256.72 35.19 L259.69 36.19 L262.66 36.86 L265.62 37.10 L268.59 36.86 L271.56 36.19 L274.53 35.19 L277.50 34.00 L280.47 32.81 L283.44 31.81 L286.41 31.14 L289.38 30.90 L292.34 31.14 L295.31 31.81 L298.28 32.81 L301.25 34.00 L304.22 35.19 L307.19 36.19 L310.16 36.86 L313.12 37.10 L316.09 36.86 L319.06 36.19 L322.03 35.19 L325.00 34.00 L327.97 32.81 L330.94 31.81 L333.91 31.14 L336.88 30.90 L339.84 31.14 L342.81 31.81 L345.78 32.81 L348.75 34.00 L351.72 35.19 L354.69 36.19 L357.66 36.86 L360.62 37.10 L363.59 36.86 L366.56 36.19 L369.53 35.19 L372.50 34.00 L375.47 32.81 L378.44 31.81 L381.41 31.14 L384.38 30.90 L387.34 31.14 L390.31 31.81 L393.28 32.81 L396.25 34.00 L399.22 35.19 L402.19 36.19 L405.16 36.86 L408.12 37.10 L411.09 36.86 L414.06 36.19 L417.03 35.19 L420.00 34.00" fill="none" stroke="#82545C" stroke-opacity="0.72" stroke-width="0.62"/>
  <path d="M163 40 H392" fill="none" stroke="#8B8A83" stroke-opacity="0.58" stroke-width="0.55"/>
  <path d="M540 34 H825" fill="none" stroke="#8B8A83" stroke-width="0.75"/>
  <path d="M540.00 34.00 L542.97 35.19 L545.94 36.19 L548.91 36.86 L551.88 37.10 L554.84 36.86 L557.81 36.19 L560.78 35.19 L563.75 34.00 L566.72 32.81 L569.69 31.81 L572.66 31.14 L575.62 30.90 L578.59 31.14 L581.56 31.81 L584.53 32.81 L587.50 34.00 L590.47 35.19 L593.44 36.19 L596.41 36.86 L599.38 37.10 L602.34 36.86 L605.31 36.19 L608.28 35.19 L611.25 34.00 L614.22 32.81 L617.19 31.81 L620.16 31.14 L623.12 30.90 L626.09 31.14 L629.06 31.81 L632.03 32.81 L635.00 34.00 L637.97 35.19 L640.94 36.19 L643.91 36.86 L646.88 37.10 L649.84 36.86 L652.81 36.19 L655.78 35.19 L658.75 34.00 L661.72 32.81 L664.69 31.81 L667.66 31.14 L670.62 30.90 L673.59 31.14 L676.56 31.81 L679.53 32.81 L682.50 34.00 L685.47 35.19 L688.44 36.19 L691.41 36.86 L694.38 37.10 L697.34 36.86 L700.31 36.19 L703.28 35.19 L706.25 34.00 L709.22 32.81 L712.19 31.81 L715.16 31.14 L718.12 30.90 L721.09 31.14 L724.06 31.81 L727.03 32.81 L730.00 34.00 L732.97 35.19 L735.94 36.19 L738.91 36.86 L741.88 37.10 L744.84 36.86 L747.81 36.19 L750.78 35.19 L753.75 34.00 L756.72 32.81 L759.69 31.81 L762.66 31.14 L765.62 30.90 L768.59 31.14 L771.56 31.81 L774.53 32.81 L777.50 34.00 L780.47 35.19 L783.44 36.19 L786.41 36.86 L789.38 37.10 L792.34 36.86 L795.31 36.19 L798.28 35.19 L801.25 34.00 L804.22 32.81 L807.19 31.81 L810.16 31.14 L813.12 30.90 L816.09 31.14 L819.06 31.81 L822.03 32.81 L825.00 34.00" fill="none" stroke="#B49A64" stroke-opacity="0.86" stroke-width="0.72"/>
  <path d="M540.00 34.00 L542.97 32.81 L545.94 31.81 L548.91 31.14 L551.88 30.90 L554.84 31.14 L557.81 31.81 L560.78 32.81 L563.75 34.00 L566.72 35.19 L569.69 36.19 L572.66 36.86 L575.62 37.10 L578.59 36.86 L581.56 36.19 L584.53 35.19 L587.50 34.00 L590.47 32.81 L593.44 31.81 L596.41 31.14 L599.38 30.90 L602.34 31.14 L605.31 31.81 L608.28 32.81 L611.25 34.00 L614.22 35.19 L617.19 36.19 L620.16 36.86 L623.12 37.10 L626.09 36.86 L629.06 36.19 L632.03 35.19 L635.00 34.00 L637.97 32.81 L640.94 31.81 L643.91 31.14 L646.88 30.90 L649.84 31.14 L652.81 31.81 L655.78 32.81 L658.75 34.00 L661.72 35.19 L664.69 36.19 L667.66 36.86 L670.62 37.10 L673.59 36.86 L676.56 36.19 L679.53 35.19 L682.50 34.00 L685.47 32.81 L688.44 31.81 L691.41 31.14 L694.38 30.90 L697.34 31.14 L700.31 31.81 L703.28 32.81 L706.25 34.00 L709.22 35.19 L712.19 36.19 L715.16 36.86 L718.12 37.10 L721.09 36.86 L724.06 36.19 L727.03 35.19 L730.00 34.00 L732.97 32.81 L735.94 31.81 L738.91 31.14 L741.88 30.90 L744.84 31.14 L747.81 31.81 L750.78 32.81 L753.75 34.00 L756.72 35.19 L759.69 36.19 L762.66 36.86 L765.62 37.10 L768.59 36.86 L771.56 36.19 L774.53 35.19 L777.50 34.00 L780.47 32.81 L783.44 31.81 L786.41 31.14 L789.38 30.90 L792.34 31.14 L795.31 31.81 L798.28 32.81 L801.25 34.00 L804.22 35.19 L807.19 36.19 L810.16 36.86 L813.12 37.10 L816.09 36.86 L819.06 36.19 L822.03 35.19 L825.00 34.00" fill="none" stroke="#82545C" stroke-opacity="0.72" stroke-width="0.62"/>
  <path d="M568 40 H797" fill="none" stroke="#8B8A83" stroke-opacity="0.58" stroke-width="0.55"/>
  <path d="M1496.423407514632 1500V1494.6669640238756H1315.7038764398546V5.3330359761244H1496.423407514632V0H876.0275571453441V5.319906941209304H1065.9483870714866V737.3240357096489H466.36459253760955V5.3330359761244H656.4524857943685V0H35.93879000268797V5.3330359761244H215.22885599670937V1494.6669640238756H35.93879000268797V1500H656.4524857943685V1494.6797382200093H466.36459253760955V742.6759642903511H1065.9483870714866V1494.6669640238756H876.0275571453441V1500Z" fill="#E7E0D3" transform="translate(171.360 101.000) scale(0.024500 -0.024500)"/>
  <path d="M557.0840811820773 -20Q411.336870443545 -20 305.2747185577316 46.0Q199.21256667191824 112 141.5747015349164 221.0Q83.93683639791453 330 83.93683639791453 460Q83.93683639791453 590 141.5747015349164 699.0Q199.21256667191824 808 305.2747185577316 873.9857551633118Q411.336870443545 939.9715103266236 557.0840811820773 939.9715103266236Q703.4168855298257 939.9715103266236 809.5317613117313 873.9857551633118Q915.6466370936371 808 972.9104918565622 699.0Q1030.1743466194873 590 1030.1743466194873 460Q1030.1743466194873 330 972.9104918565622 221.0Q915.6466370936371 112 809.5317613117313 46.0Q703.4168855298257 -20 557.0840811820773 -20ZM557.0840811820773 -14.6669640238756Q625.7006911608396 -14.6669640238756 668.6634754495203 28.726637528634324Q711.6262597382012 72.12023908114425 734.6531602334944 142.7172960438207Q757.6800607287876 213.31435300649719 766.3345400280873 296.9274959517421Q774.9890193273869 380.54063889698705 774.9890193273869 460.05833605083524Q774.9890193273869 540.3232323183182 766.3345400280873 623.5044396559106Q757.6800607287876 706.6856469935028 734.6531602334944 777.2827039561793Q711.6262597382012 847.8797609188557 668.6634754495203 891.2733624713657Q625.7006911608396 934.6669640238756 557.0840811820773 934.6669640238756Q488.4674712033151 934.6669640238756 445.50468691463425 891.2733624713657Q402.54190262595347 847.8797609188557 379.51500213066026 777.2827039561793Q356.4881016353671 706.6856469935028 347.8336223360674 623.4463173977306Q339.1791430367677 540.2069878019585 339.1791430367677 459.94228995641714Q339.1791430367677 380.4247884298353 347.8336223360674 296.86957071816624Q356.4881016353671 213.31435300649719 379.51500213066026 142.7172960438207Q402.54190262595347 72.12023908114425 445.50468691463425 28.726637528634324Q488.4674712033151 -14.6669640238756 557.0840811820773 -14.6669640238756Z" fill="#E7E0D3" transform="translate(209.070 101.000) scale(0.024500 -0.024500)"/>
  <path d="M1565.8015695639904 920V914.6669640238756H1378.4885435228575L1065.2071607496023 -20H1024.064279804888L771.4287195161697 671.355125434819L477.33027468509954 -20H436.10192472025585L132.61077571285176 914.6669640238756H15.689112497609228V920H542.4344967965189V914.6669640238756H374.85165113267084L580.2095802332524 237.7113609907752L879.0472428860331 939.9715103266236H951.3572668442222L1157.766221259286 277.6005806534359L1371.0319517844289 914.6669640238756H1168.4346413245444V920Z" fill="#E7E0D3" transform="translate(236.514 101.000) scale(0.024500 -0.024500)"/>
  <path d="M35.93879000268797 0V5.3330359761244H215.22885599670937V1494.6669640238756H35.93879000268797V1500H645.7038764398548V1494.6669640238756H466.4518971880084V5.3330359761244H722.6346804513262Q836.8453946048312 5.3330359761244 914.2588439041564 38.64260226524948Q991.6722932034816 71.95216855437457 1038.972377535339 132.1855613591497Q1086.2724618671966 192.4189541639248 1109.4783154860033 273.7094770819624Q1132.68416910481 355 1138.227712645432 450H1143.5892382949328V0Z" fill="#E7E0D3" transform="translate(288.266 101.000) scale(0.024500 -0.024500)"/>
  <path d="M557.0840811820773 -20Q411.336870443545 -20 305.2747185577316 46.0Q199.21256667191824 112 141.5747015349164 221.0Q83.93683639791453 330 83.93683639791453 460Q83.93683639791453 590 141.5747015349164 699.0Q199.21256667191824 808 305.2747185577316 873.9857551633118Q411.336870443545 939.9715103266236 557.0840811820773 939.9715103266236Q703.4168855298257 939.9715103266236 809.5317613117313 873.9857551633118Q915.6466370936371 808 972.9104918565622 699.0Q1030.1743466194873 590 1030.1743466194873 460Q1030.1743466194873 330 972.9104918565622 221.0Q915.6466370936371 112 809.5317613117313 46.0Q703.4168855298257 -20 557.0840811820773 -20ZM557.0840811820773 -14.6669640238756Q625.7006911608396 -14.6669640238756 668.6634754495203 28.726637528634324Q711.6262597382012 72.12023908114425 734.6531602334944 142.7172960438207Q757.6800607287876 213.31435300649719 766.3345400280873 296.9274959517421Q774.9890193273869 380.54063889698705 774.9890193273869 460.05833605083524Q774.9890193273869 540.3232323183182 766.3345400280873 623.5044396559106Q757.6800607287876 706.6856469935028 734.6531602334944 777.2827039561793Q711.6262597382012 847.8797609188557 668.6634754495203 891.2733624713657Q625.7006911608396 934.6669640238756 557.0840811820773 934.6669640238756Q488.4674712033151 934.6669640238756 445.50468691463425 891.2733624713657Q402.54190262595347 847.8797609188557 379.51500213066026 777.2827039561793Q356.4881016353671 706.6856469935028 347.8336223360674 623.4463173977306Q339.1791430367677 540.2069878019585 339.1791430367677 459.94228995641714Q339.1791430367677 380.4247884298353 347.8336223360674 296.86957071816624Q356.4881016353671 213.31435300649719 379.51500213066026 142.7172960438207Q402.54190262595347 72.12023908114425 445.50468691463425 28.726637528634324Q488.4674712033151 -14.6669640238756 557.0840811820773 -14.6669640238756Z" fill="#E7E0D3" transform="translate(317.474 101.000) scale(0.024500 -0.024500)"/>
  <path d="M554.8400189376166 -20Q421.3202264191523 -20 314.6665272673789 34.85421785561239Q208.01282811560552 89.70843571122478 146.10082188268325 196.7044772075319Q84.18881564976097 303.700518703839 84.18881564976097 460Q84.18881564976097 596.2994812961609 139.64655230051503 704.7955227924681Q195.1042889512691 813.2915642887752 301.6333933214704 876.5197925184643Q408.1624976916717 939.7480207481535 561.8739113605617 939.7480207481535Q671.5627283685603 939.7480207481535 752.6181474202606 903.3985415437603Q833.673566471961 867.0490623393672 877.8494274678083 805.4498177873984Q922.0252884636557 743.8505732354296 922.0252884636557 667.9610427300914Q922.0252884636557 604.6378104117732 883.0879420304927 568.5903083674586Q844.1505955973299 532.5428063231441 788.8273632790117 532.5428063231441Q757.5278819828508 532.5428063231441 725.2323591903826 546.6885884675316Q692.9368363979145 560.8343706119193 671.2831372461411 590.2479660229249Q649.6294380943677 619.6615614339305 649.6294380943677 665.9610427300914Q649.6294380943677 728.2842750484097 691.5667845275307 761.8317770927242Q733.5041309606935 795.3792791370388 788.8273632790117 795.3792791370388Q841.1505955973299 795.3792791370388 880.5879420304927 762.8317770927242Q920.0252884636557 730.2842750484097 920.0252884636557 667.9610427300914H916.6541657453563Q916.6541657453563 729.8976632900233 888.7469533920041 778.3818122395899Q860.8397410386519 826.8659611891566 814.8693077377445 860.5109126124962Q768.8988744368372 894.1558640358357 713.4991268216838 911.6811490077255Q658.0993792065303 929.2064339796151 602.4136702127288 929.2064339796151Q521.5624752919442 929.2064339796151 472.13450850594234 883.3912291253844Q422.70654171994045 837.5760242711536 397.09401678317914 765.1032169898076Q371.48149184641784 692.6304097084615 362.8388880581968 611.8152048542307Q354.19628426997576 531 354.19628426997576 460Q354.19628426997576 374 364.23506027634755 291.2316389260364Q374.2738362827194 208.46327785207276 400.05271602985897 142.00402614321808Q425.8315957769986 75.54477443436339 473.4156310403834 35.77641336039979Q520.9996663037682 -3.9919477135638077 595.8382055659479 -3.9919477135638077Q682.7657030471008 -3.9919477135638077 747.6868680137807 32.73961894845984Q812.6080329804604 69.47118561048349 857.6169454095495 134.84824219353402Q902.6258578386387 200.22529877658457 928.8411288767038 285.5397374174349H934.2788280105548Q895.2788280105548 152.77239345566576 805.5506833663194 66.38619672783288Q715.822538722084 -20 554.8400189376166 -20Z" fill="#E7E0D3" transform="translate(344.918 101.000) scale(0.024500 -0.024500)"/>
  <path d="M862.8748033230274 -20Q807.0555295084021 -20 760.2131582808377 -5.370207291722636Q713.3707870532733 9.259585416554728 684.9261772219429 47.05825768215874Q656.4815673906126 84.85692994776275 656.4815673906126 152.6622408853467V609Q656.4815673906126 681 644.6789366213156 754.2191479680869Q632.8763058520187 827.4382959361739 594.0879199194101 876.2928798324729Q555.2995339868014 925.147463728772 475.2995339868014 925.147463728772Q423.16942112618824 925.147463728772 368.0486131413545 912.2789364984621Q312.9278051565207 899.4104092681522 265.6027063856432 874.4548191848005Q218.27760761476569 849.4992291014488 188.98328161437396 812.6731395333554Q159.68895561398224 775.8470499652619 159.68895561398224 726.9604149630712H155.97505221610803Q155.97505221610803 783.7559377555393 196.40448164188513 817.9175539146984Q236.8339110676622 852.0791700738575 288.1729774007519 852.0791700738575Q342.5120437338417 852.0791700738575 384.9414731596188 820.799481296161Q427.37090258539587 789.5197925184644 427.37090258539587 730.9604149630712Q427.37090258539587 665.4168714224495 383.9414731596188 633.6292656373672Q340.5120437338417 601.8416598522849 288.1729774007519 601.8416598522849Q230.8339110676622 601.8416598522849 192.40448164188513 634.6292656373672Q153.97505221610803 667.4168714224495 153.97505221610803 726.9604149630712Q153.97505221610803 778.4960414963072 185.01541740056314 817.5079170073858Q216.05578258501822 856.5197925184644 268.6001062731662 882.767813266618Q321.1444299613142 909.0158340147715 386.670550309081 922.5079170073857Q452.1966706568479 936 520.1966706568479 936Q665.756048212241 936 745.2535523483234 890.6457821443876Q824.7510564844057 845.2915642887752 855.7430129387119 770.7955227924681Q886.7349693930181 696.2994812961609 886.7349693930181 609V92.45337006196345Q886.7349693930181 58.01232631797739 902.2498172654028 33.2211141054013Q917.7646651377876 8.429901892825207 958.8394694034023 8.429901892825207Q990.5593113208569 8.429901892825207 1033.061512844295 38.7644609608209Q1075.5637143677332 69.0990200288166 1101.7804930102104 126.53120809503586L1105.718636687245 123.92256167195121Q1077.7315938788688 57.57326727504964 1012.5925489854525 18.78663363752482Q947.4535040920362 -20 862.8748033230274 -20ZM368.975052216108 -20Q238.97505221610803 -20 161.47505221610803 46.5Q83.97505221610803 113 83.97505221610803 227Q83.97505221610803 361 197.8061726587814 432.6904337108749Q311.63729310145476 504.3808674217498 524.6372931014547 504.3808674217498H749.4815673906126V499.23826515650035H559.0720769852302Q477.37155828139123 499.23826515650035 429.43682070655825 456.8773534308988Q381.50208313172527 414.51644170529727 360.55631007652005 355.39722289854683Q339.6105370213148 296.27800409179633 339.6105370213148 243.7977966102607Q339.6105370213148 195.05769286949288 350.83792056546844 145.85398649982892Q362.06530410962205 96.65028013016499 389.6260313103782 63.81662563088493Q417.18675851113437 30.982971131604877 464.099188130213 30.982971131604877Q516.6586369955634 30.982971131604877 560.3235843945174 65.40010840175326Q603.9885317934713 99.81724567190165 630.235049592042 172.6720113348597Q656.4815673906126 245.52677699781773 656.4815673906126 361.14244836688226H661.2436037671313Q661.2436037671313 244.661044123612 630.428865146575 158.88453370208197Q599.6141265260188 73.10802328055195 535.2945893710635 26.554011640275974Q470.975052216108 -20 368.975052216108 -20Z" fill="#E7E0D3" transform="translate(370.353 101.000) scale(0.024500 -0.024500)"/>
  <path d="M448.93763746311873 1500V5.3330359761244H614.2621192338121V0H53.20770825433892V5.3330359761244H219.2898078419844V1494.6669640238756H53.20770825433892V1500Z" fill="#E7E0D3" transform="translate(397.576 101.000) scale(0.024500 -0.024500)"/>
  <path d="M597.339072414755 -29.961913257825017Q473.5779033986601 -29.961913257825017 386.29032649660843 9.451717808159145Q299.00274959455675 48.86534887414331 239.87919383225235 116.01116667350952L91.86780129128509 -20H86.69640781964006V420.2659998949492H92.52380523065881Q115.52362346399984 331.2902249071261 154.27452103530086 251.3761725721044Q193.0254186066019 171.46212023708264 251.95913903889868 109.60505190364302Q310.8928594711955 47.747983570203395 392.9707775246258 12.30757389240495Q475.04869557805614 -23.132835785393496 585.2177904095599 -23.132835785393496Q686.1590112350341 -23.132835785393496 760.5682361829676 15.363356447081514Q834.977461130901 53.859548679556525 875.8939138220235 125.20927415827627Q916.8103665131459 196.55899963699602 916.8103665131459 295.1661416229783Q916.8103665131459 379.89041134897457 872.8388561865224 437.85241549012903Q828.8673458598988 495.81441963128356 756.8815906965871 538.2803822761309Q684.8958355332753 580.7463449209783 598.43857004334 618.191734899835Q511.9813045534047 655.6371248786917 425.5240390634694 697.482645579392Q339.0667735735341 739.3281662800923 267.0810184102223 796.4375417437177Q195.09526324691052 853.5469172073431 151.12375292028696 935.4383507742747Q107.15224259366343 1017.3297843412063 107.15224259366343 1134.8812448892136Q107.15224259366343 1252.4691121179833 167.25529022798634 1339.1046079293756Q227.35833786230927 1425.7401037407678 325.0262818507709 1472.870051870384Q422.6942258392325 1520 536.2994873778263 1520Q632.6704748170752 1520 711.3116401937225 1489.5309188821661Q789.9528055703698 1459.0618377643323 848.0478716592978 1396.2249785635654L992.8391347446205 1520H997.943650267695V1089.80357311011H992.1447425300528Q962.0655724561951 1228.551129177902 901.2562524717382 1322.5522443659656Q840.4469324872814 1416.5533595540294 751.8898886328609 1464.0902783871586Q663.3328447784404 1511.6271972202878 551.3273833555063 1511.6271972202878Q418.7333276371665 1511.6271972202878 350.63831209141864 1441.1554453045087Q282.5432965456708 1370.6836933887294 282.5432965456708 1259.5093766063285Q282.5432965456708 1183.7755098115335 325.78103096082896 1130.562366449239Q369.0187653759872 1077.3492230869444 439.5227238796801 1036.3895882713996Q510.026682383373 995.4299534558546 595.0163960503776 957.6026360955354Q680.0061097173823 919.7753187352162 764.9910248499878 875.2063084560459Q849.9759399825931 830.6372981768757 920.479898486286 769.9383397680892Q990.9838569899788 709.2393813593028 1034.221591405137 623.2844851949772Q1077.4593258202951 537.3295890306514 1077.4593258202951 415.11875511078637Q1077.4593258202951 280.07917007385754 1016.4197407833664 180.1822487083299Q955.3801557464376 80.28532734280223 846.8596140805963 25.161707042488608Q738.339072414755 -29.961913257825017 597.339072414755 -29.961913257825017Z" fill="#E7E0D3" transform="translate(426.568 101.000) scale(0.024500 -0.024500)"/>
  <path d="M53.20770825433892 0V5.3330359761244H219.2898078419844V1494.6669640238756H53.20770825433892V1500H448.93763746311873V5.3330359761244H573.8188823523324V0ZM692.0951765456297 0V5.3330359761244H829.74346380291L413.66976643043944 527.1535437304345L930.6334019423649 914.6669640238756H696.2886739217319V920H1112.9376374631186V914.6669640238756H937.7996169047781L590.9107379825643 649.7993805393676L1116.7289905383989 5.3330359761244H1196.8044133220585V0Z" fill="#E7E0D3" transform="translate(455.090 101.000) scale(0.024500 -0.024500)"/>
  <path d="M304.37319700306176 1229.4332115904533Q244.14866669353856 1229.4332115904533 201.71923726776149 1272.0225760292165Q159.2898078419844 1314.6119404679796 159.2898078419844 1374.5450904249074Q159.2898078419844 1435.9986927815637 201.71923726776149 1477.9281222073407Q244.14866669353856 1519.8575516331177 304.37319700306176 1519.8575516331177Q365.8267993597181 1519.8575516331177 407.7562287854952 1477.9281222073407Q449.68565821127225 1435.9986927815637 449.68565821127225 1374.5450904249074Q449.68565821127225 1314.320560115384 407.7562287854952 1271.8768858529188Q365.8267993597181 1229.4332115904533 304.37319700306176 1229.4332115904533ZM418.93763746311873 920V5.3330359761244H544.2906089071886V0H63.21730532313744V5.3330359761244H188.54178709383083V914.6669640238756H63.21730532313744V920Z" fill="#E7E0D3" transform="translate(485.400 101.000) scale(0.024500 -0.024500)"/>
  <path d="M448.93763746311873 1500V5.3330359761244H614.2621192338121V0H53.20770825433892V5.3330359761244H219.2898078419844V1494.6669640238756H53.20770825433892V1500Z" fill="#E7E0D3" transform="translate(500.300 101.000) scale(0.024500 -0.024500)"/>
  <path d="M448.93763746311873 1500V5.3330359761244H614.2621192338121V0H53.20770825433892V5.3330359761244H219.2898078419844V1494.6669640238756H53.20770825433892V1500Z" fill="#E7E0D3" transform="translate(516.866 101.000) scale(0.024500 -0.024500)"/>
  <path d="M95.11931903007998 -20V275.4606311913039H100.49044174837937Q114.10510927945431 191.92715870950045 166.0367665739898 126.51568634977792Q217.9684238685253 61.104213990055406 295.4783962876689 23.990487636730215Q372.9883687068125 -13.123238716594976 463.0017564467908 -13.123238716594976Q525.3116195837641 -13.123238716594976 578.2295153412895 4.9547655653356415Q631.1474110988147 23.03276984726626 663.3666499805728 61.216286627288056Q695.5858888623309 99.39980340730985 695.5858888623309 159.94067051075976Q695.5858888623309 220.05571550929855 653.9107723590312 254.2867606789551Q612.2356558557316 288.51780584861166 546.2537946581034 311.0271013843911Q480.2719334604753 333.5363969201705 406.1736797057224 356.2035917612552Q332.0754259509696 378.87078660233993 266.09356475334147 413.3819728492217Q200.11170355571335 447.89315909610355 158.4365870524137 506.34652596552604Q116.76147054911404 564.7998928349485 116.76147054911404 660.1487473131541Q116.76147054911404 731.7081248685473 150.99842481674594 795.0409899106427Q185.23537908437785 858.373854952738 250.97713188640898 898.186927476369Q316.71888468844014 938 411.68079794626516 938Q483.5304325719971 938 542.0638762011115 914.5609378504457Q600.597319830226 891.1218757008916 643.597319830226 853.1771749862318L749.299102310836 939.9715103266236H754.4701942494621V660H749.1086685999611Q735.6784993668073 727.9800303393641 691.1852149576291 790.3900689423422Q646.691930548451 852.8001075453201 576.1333480591272 892.6906505080235Q505.5747655698034 932.581193470727 413.1864365113708 932.581193470727Q355.6533760192882 932.581193470727 311.9987366438206 915.3904536023456Q268.34409726835304 898.199713733964 243.57024836545168 866.3346065096598Q218.79639946255028 834.4694992853555 218.79639946255028 791.1743837974374Q218.79639946255028 733.9134012331723 262.5650574147038 699.2640173464617Q306.33371536685735 664.6146334597513 375.18082990047014 640.0165950095172Q444.0279444340829 615.4185565592832 520.9916022913299 591.1485247335652Q597.9552601485769 566.8784929078472 666.8023746821898 530.997405557091Q735.6494892158025 495.1163182063349 779.418147167956 437.65266500391704Q823.1868051201096 380.18901180149913 823.1868051201096 288.8401573232935Q823.1868051201096 192.28077976790036 774.6970315699249 123.19356614834896Q726.2072580197402 54.10635252879756 646.035200106247 17.05317626439878Q565.8631421927537 -20 471.4684037313475 -20Q394.1559559339041 -20 327.29840430078644 5.097499952546757Q260.44085266766876 30.194999905093514 209.48031793823736 74.4075138863713L100.26192129532946 -20Z" fill="#E7E0D3" transform="translate(533.408 101.000) scale(0.024500 -0.024500)"/>
  <path d="M311.39312648195755 0V5.3330359761244H531.3931264819576V1494.6669640238756H366.40775877514784Q281.9289643763915 1494.6669640238756 222.87423727821368 1459.0895844681327Q163.8195101800359 1423.5122049123895 125.54546499658733 1360.255061085457Q87.27141981313875 1296.9979172585247 67.23362322820435 1213.4395810738692Q47.19582664326995 1129.8812448892136 41.40030385080185 1034.8812448892136H35.93879000268797V1500H1277.3128863355741V1034.8812448892136H1271.1729027596389Q1265.6293592190173 1129.8812448892136 1245.4648445371176 1213.4395810738692Q1225.300329855218 1296.9979172585247 1187.016079538132 1360.255061085457Q1148.731829221046 1423.5122049123895 1089.3302554327993 1459.0895844681327Q1029.9286816445529 1494.6669640238756 946.0118854309391 1494.6669640238756H781.8681469251029V5.3330359761244H1001.868146925103V0Z" fill="#E7E0D3" transform="translate(568.010 101.000) scale(0.024500 -0.024500)"/>
  <path d="M862.8748033230274 -20Q807.0555295084021 -20 760.2131582808377 -5.370207291722636Q713.3707870532733 9.259585416554728 684.9261772219429 47.05825768215874Q656.4815673906126 84.85692994776275 656.4815673906126 152.6622408853467V609Q656.4815673906126 681 644.6789366213156 754.2191479680869Q632.8763058520187 827.4382959361739 594.0879199194101 876.2928798324729Q555.2995339868014 925.147463728772 475.2995339868014 925.147463728772Q423.16942112618824 925.147463728772 368.0486131413545 912.2789364984621Q312.9278051565207 899.4104092681522 265.6027063856432 874.4548191848005Q218.27760761476569 849.4992291014488 188.98328161437396 812.6731395333554Q159.68895561398224 775.8470499652619 159.68895561398224 726.9604149630712H155.97505221610803Q155.97505221610803 783.7559377555393 196.40448164188513 817.9175539146984Q236.8339110676622 852.0791700738575 288.1729774007519 852.0791700738575Q342.5120437338417 852.0791700738575 384.9414731596188 820.799481296161Q427.37090258539587 789.5197925184644 427.37090258539587 730.9604149630712Q427.37090258539587 665.4168714224495 383.9414731596188 633.6292656373672Q340.5120437338417 601.8416598522849 288.1729774007519 601.8416598522849Q230.8339110676622 601.8416598522849 192.40448164188513 634.6292656373672Q153.97505221610803 667.4168714224495 153.97505221610803 726.9604149630712Q153.97505221610803 778.4960414963072 185.01541740056314 817.5079170073858Q216.05578258501822 856.5197925184644 268.6001062731662 882.767813266618Q321.1444299613142 909.0158340147715 386.670550309081 922.5079170073857Q452.1966706568479 936 520.1966706568479 936Q665.756048212241 936 745.2535523483234 890.6457821443876Q824.7510564844057 845.2915642887752 855.7430129387119 770.7955227924681Q886.7349693930181 696.2994812961609 886.7349693930181 609V92.45337006196345Q886.7349693930181 58.01232631797739 902.2498172654028 33.2211141054013Q917.7646651377876 8.429901892825207 958.8394694034023 8.429901892825207Q990.5593113208569 8.429901892825207 1033.061512844295 38.7644609608209Q1075.5637143677332 69.0990200288166 1101.7804930102104 126.53120809503586L1105.718636687245 123.92256167195121Q1077.7315938788688 57.57326727504964 1012.5925489854525 18.78663363752482Q947.4535040920362 -20 862.8748033230274 -20ZM368.975052216108 -20Q238.97505221610803 -20 161.47505221610803 46.5Q83.97505221610803 113 83.97505221610803 227Q83.97505221610803 361 197.8061726587814 432.6904337108749Q311.63729310145476 504.3808674217498 524.6372931014547 504.3808674217498H749.4815673906126V499.23826515650035H559.0720769852302Q477.37155828139123 499.23826515650035 429.43682070655825 456.8773534308988Q381.50208313172527 414.51644170529727 360.55631007652005 355.39722289854683Q339.6105370213148 296.27800409179633 339.6105370213148 243.7977966102607Q339.6105370213148 195.05769286949288 350.83792056546844 145.85398649982892Q362.06530410962205 96.65028013016499 389.6260313103782 63.81662563088493Q417.18675851113437 30.982971131604877 464.099188130213 30.982971131604877Q516.6586369955634 30.982971131604877 560.3235843945174 65.40010840175326Q603.9885317934713 99.81724567190165 630.235049592042 172.6720113348597Q656.4815673906126 245.52677699781773 656.4815673906126 361.14244836688226H661.2436037671313Q661.2436037671313 244.661044123612 630.428865146575 158.88453370208197Q599.6141265260188 73.10802328055195 535.2945893710635 26.554011640275974Q470.975052216108 -20 368.975052216108 -20Z" fill="#E7E0D3" transform="translate(596.532 101.000) scale(0.024500 -0.024500)"/>
  <path d="M53.20770825433892 0V5.3330359761244H219.2898078419844V1494.6669640238756H53.20770825433892V1500H448.93763746311873V5.3330359761244H573.8188823523324V0ZM692.0951765456297 0V5.3330359761244H829.74346380291L413.66976643043944 527.1535437304345L930.6334019423649 914.6669640238756H696.2886739217319V920H1112.9376374631186V914.6669640238756H937.7996169047781L590.9107379825643 649.7993805393676L1116.7289905383989 5.3330359761244H1196.8044133220585V0Z" fill="#E7E0D3" transform="translate(623.755 101.000) scale(0.024500 -0.024500)"/>
  <path d="M562.1939229097189 -20Q426.26829656629604 -20 318.06774897942637 36.49208299261424Q209.86720139255667 92.98416598522849 146.90201889523559 200.23218673338204Q83.93683639791453 307.4802074815356 83.93683639791453 460Q83.93683639791453 612.5197925184644 145.34503954848267 719.7535684299298Q206.75324269905082 826.9873443413951 313.4110557758558 883.4794273340094Q420.0688688526608 939.9715103266236 556.0229848694602 939.9715103266236Q704.9090261759544 939.9715103266236 798.9305632938408 880.5044970013803Q892.9521004117271 821.0374836761368 937.5163720396781 725.0752688852926Q982.0806436676293 629.1130540944486 982.0806436676293 520.1130540944486H217.9557290024925V525.4556871393714H727.2441708537347Q727.7117226766653 587.9309835126874 722.0143534459622 658.4876489455885Q716.3169842152591 729.0443143784896 699.1781835093923 792.0556653260269Q682.0393828035253 855.0670162735641 647.6865987046575 894.8669901487199Q613.3338146057897 934.6669640238756 556.0229848694602 934.6669640238756Q493.4190305493029 934.6669640238756 452.29765303629074 894.8835180825174Q411.17627552327866 855.1000721411591 387.4099558965853 787.8873118855547Q363.64363626989194 720.6745516299504 353.9359807061935 638.376860851904Q344.22832514249507 556.0791700738575 344.22832514249507 470.07917007385754Q344.22832514249507 379.255157608013 354.7204081351093 293.2102262293393Q365.2124911277236 207.1652948506656 392.4113896533299 139.30507238926089Q419.6102881789362 71.44484992785617 468.27362005448674 31.1716903194933Q516.9369519300373 -9.101469288869568 593.0274704440632 -9.101469288869568Q742.2476278286829 -9.101469288869568 842.0973316169116 76.0910936814308Q941.9470354051402 161.28365665173118 978.9470354051402 285.28775816558846H984.4510094215234Q945.4510094215234 155.5441652259766 841.0451755965648 67.7720826129883Q736.6393417716064 -20 562.1939229097189 -20Z" fill="#E7E0D3" transform="translate(652.228 101.000) scale(0.024500 -0.024500)"/>
  <path d="M675.850525172309 1500Q861.664291402926 1500 979.9677029389114 1448.9099005184567Q1098.2711144748969 1397.8198010369135 1154.8670535132287 1303.714819039692Q1211.4629925515608 1209.6098370424706 1211.4629925515608 1079.6121013236755Q1211.4629925515608 949.6143656048803 1154.8533655473095 859.9255778522656Q1098.2437385430583 770.2367900996511 980.1241559064408 723.566288054798Q862.0045732698233 676.8957860099447 675.6247063659972 676.8957860099447H466.4518971880084V5.3330359761244H645.7038764398548V0H35.93879000268797V5.3330359761244H215.22885599670937V1494.6669640238756H35.93879000268797V1500ZM466.4518971880084 682.2288219860691H655.4663662182821Q723.5913139587306 682.2288219860691 775.2151139556572 718.6336051306316Q826.8389139525838 755.0383882751942 861.0734700115754 814.4573906592799Q895.3080260705669 873.8763930433656 912.7882335521026 943.3000379532473Q930.2684410336382 1012.7236828631289 930.2684410336382 1079.7235026025885Q930.2684410336382 1146.723322342048 912.7882335521026 1219.0284775602477Q895.3080260705669 1291.3336327784475 861.0734700115754 1354.1384005331734Q826.8389139525838 1416.943168287899 775.404342793262 1455.8050661558873Q723.9697716339404 1494.6669640238756 655.4663662182821 1494.6669640238756H466.4518971880084Z" fill="#E7E0D3" transform="translate(690.824 101.000) scale(0.024500 -0.024500)"/>
  <path d="M862.8748033230274 -20Q807.0555295084021 -20 760.2131582808377 -5.370207291722636Q713.3707870532733 9.259585416554728 684.9261772219429 47.05825768215874Q656.4815673906126 84.85692994776275 656.4815673906126 152.6622408853467V609Q656.4815673906126 681 644.6789366213156 754.2191479680869Q632.8763058520187 827.4382959361739 594.0879199194101 876.2928798324729Q555.2995339868014 925.147463728772 475.2995339868014 925.147463728772Q423.16942112618824 925.147463728772 368.0486131413545 912.2789364984621Q312.9278051565207 899.4104092681522 265.6027063856432 874.4548191848005Q218.27760761476569 849.4992291014488 188.98328161437396 812.6731395333554Q159.68895561398224 775.8470499652619 159.68895561398224 726.9604149630712H155.97505221610803Q155.97505221610803 783.7559377555393 196.40448164188513 817.9175539146984Q236.8339110676622 852.0791700738575 288.1729774007519 852.0791700738575Q342.5120437338417 852.0791700738575 384.9414731596188 820.799481296161Q427.37090258539587 789.5197925184644 427.37090258539587 730.9604149630712Q427.37090258539587 665.4168714224495 383.9414731596188 633.6292656373672Q340.5120437338417 601.8416598522849 288.1729774007519 601.8416598522849Q230.8339110676622 601.8416598522849 192.40448164188513 634.6292656373672Q153.97505221610803 667.4168714224495 153.97505221610803 726.9604149630712Q153.97505221610803 778.4960414963072 185.01541740056314 817.5079170073858Q216.05578258501822 856.5197925184644 268.6001062731662 882.767813266618Q321.1444299613142 909.0158340147715 386.670550309081 922.5079170073857Q452.1966706568479 936 520.1966706568479 936Q665.756048212241 936 745.2535523483234 890.6457821443876Q824.7510564844057 845.2915642887752 855.7430129387119 770.7955227924681Q886.7349693930181 696.2994812961609 886.7349693930181 609V92.45337006196345Q886.7349693930181 58.01232631797739 902.2498172654028 33.2211141054013Q917.7646651377876 8.429901892825207 958.8394694034023 8.429901892825207Q990.5593113208569 8.429901892825207 1033.061512844295 38.7644609608209Q1075.5637143677332 69.0990200288166 1101.7804930102104 126.53120809503586L1105.718636687245 123.92256167195121Q1077.7315938788688 57.57326727504964 1012.5925489854525 18.78663363752482Q947.4535040920362 -20 862.8748033230274 -20ZM368.975052216108 -20Q238.97505221610803 -20 161.47505221610803 46.5Q83.97505221610803 113 83.97505221610803 227Q83.97505221610803 361 197.8061726587814 432.6904337108749Q311.63729310145476 504.3808674217498 524.6372931014547 504.3808674217498H749.4815673906126V499.23826515650035H559.0720769852302Q477.37155828139123 499.23826515650035 429.43682070655825 456.8773534308988Q381.50208313172527 414.51644170529727 360.55631007652005 355.39722289854683Q339.6105370213148 296.27800409179633 339.6105370213148 243.7977966102607Q339.6105370213148 195.05769286949288 350.83792056546844 145.85398649982892Q362.06530410962205 96.65028013016499 389.6260313103782 63.81662563088493Q417.18675851113437 30.982971131604877 464.099188130213 30.982971131604877Q516.6586369955634 30.982971131604877 560.3235843945174 65.40010840175326Q603.9885317934713 99.81724567190165 630.235049592042 172.6720113348597Q656.4815673906126 245.52677699781773 656.4815673906126 361.14244836688226H661.2436037671313Q661.2436037671313 244.661044123612 630.428865146575 158.88453370208197Q599.6141265260188 73.10802328055195 535.2945893710635 26.554011640275974Q470.975052216108 -20 368.975052216108 -20Z" fill="#E7E0D3" transform="translate(721.551 101.000) scale(0.024500 -0.024500)"/>
  <path d="M404.1000306682882 442.8807182085535Q404.1000306682882 541.497385953377 416.088835111748 630.6884226999484Q428.0776395552078 719.87945944652 457.5109892919887 789.5379834780128Q486.94433902876966 859.1965075095056 539.277974908733 899.5792103836653Q591.6116107886963 939.961913257825 671.7860380277991 939.961913257825Q734.1047134615571 939.961913257825 778.3370199612993 913.3517886468228Q822.5693264610416 886.7416640358205 846.2714033428144 844.0316102634818Q869.9734802245873 801.321556491143 869.9734802245873 752.4244198210964Q869.9734802245873 692.1011875027782 831.9141026691941 649.023606607004Q793.8547251138009 605.9460257112297 728.8325343866964 605.9460257112297Q662.6232607618839 605.9460257112297 623.5638832064908 644.5886583824814Q584.5045056510976 683.2312910537331 584.5045056510976 737.5545233720513Q584.5045056510976 804.0284319073152 627.36576948324 842.4175560318172Q670.2270333153823 880.8066801563192 727.1242804421304 880.8066801563192Q767.8786579026172 880.8066801563192 800.0149028613863 862.7242051879871Q832.1511478201554 844.6417302196548 850.4220795597599 815.6503674913869Q868.6930112993645 786.6590047631189 868.6930112993645 752.4244198210964H864.564270764113Q864.564270764113 799.8125671128702 841.419474762112 841.3200746682455Q818.2746787601112 882.8275822236209 775.2947346189056 908.7091863815733Q732.3147904777001 934.5907905395256 671.6240939903007 934.5907905395256Q592.3398250842396 934.5907905395256 541.099273729114 894.0530006755406Q489.85872237398837 853.5152108115556 460.9348189394964 783.9973043493644Q432.01091550500445 714.4793978871731 420.41729713730865 626.1380726851755Q408.82367876961285 537.7967474831779 408.82367876961285 442.8807182085535ZM408.82367876961285 920V5.3330359761244H543.0093458396102V0H53.20770825433892V5.3330359761244H179.2898078419844V914.6669640238756H53.20770825433892V920Z" fill="#E7E0D3" transform="translate(748.774 101.000) scale(0.024500 -0.024500)"/>
  <path d="M386.41523050778136 -14Q296.8558529523882 -14 252.60085076571391 20.124400447839935Q208.34584857903963 54.24880089567987 193.61063891082978 109.37874902529596Q178.8754292426199 164.50869715491206 178.8754292426199 227.06807471030524V1120Q235.21449557570966 1120 301.5591095905756 1137.1101556111516Q367.90372360544154 1154.2203112223035 409.24278993853125 1180V155.87868087753805Q409.24278993853125 80.87868087753805 427.237991404132 52.37877176086754Q445.23319286973276 23.878862644197028 485.3282589586607 23.878862644197028Q538.2540763784009 23.878862644197028 592.7216973638283 75.13017125116338Q647.1893183492558 126.38147985812972 678.8005246104618 203.6785241891559L683.9434284087305 202.9458820850709Q647.8294697152246 107.37322718571784 570.7244621769609 46.68661359285892Q493.6194546386971 -14 386.41523050778136 -14ZM33.21730532313744 914.6669640238756V920H623.2427899385312V914.6669640238756Z" fill="#E7E0D3" transform="translate(771.294 101.000) scale(0.024500 -0.024500)"/>
</svg>
