<svg xmlns="http://www.w3.org/2000/svg" viewBox="0 0 960 140" role="img" aria-labelledby="title">
  <title id="title">使用 VibeSkills</title>
  <metadata>Lettering derived from Noto Serif SC and Bona Nova, licensed under SIL Open Font License 1.1.</metadata>
  <path d="M295 -8Q288 18 283.5 35.5Q279 53 268 79L75 565Q62 599 52.0 615.0Q42 631 31.5 636.0Q21 641 5 642V665H287V642Q247 640 241.5 618.5Q236 597 249 565L382 224H384L508 565Q521 599 506.0 619.5Q491 640 447 642V665H630V642Q610 640 592.5 619.5Q575 599 562 565L386 79Q376 52 372.0 35.0Q368 18 363 -8Z" fill="#80683D" transform="translate(472.571 22.000) scale(0.023000 -0.023000)"/>
  <path d="M81.3 38 H333.3 C370.7 38 388 42.2 410.7 47.8 C432 53.1 454 50.6 469.3 42.9 C451.3 43.6 442 48.5 447.3 53.4 C455.3 60.1 480 55.9 494.7 46.1 C513.3 33.8 539.3 38 566.7 38 H878.7" fill="none" stroke="#80683D" stroke-width="2.4" stroke-linecap="square"/>
  <path d="M102.7 42.9 H328.7 C365.3 42.9 384.7 46.8 406.7 51.7" fill="none" stroke="#5A3037" stroke-width="1.4"/>
  <path d="M857.3 42.9 H582 C546.7 42.9 526.7 46.8 504.7 51.7" fill="none" stroke="#5A3037" stroke-width="1.4"/>
  <path d="M316.9596375372103 697H812.2026360930158L866.1614498511587 765.9983524418651Q866.1614498511587 765.9983524418651 876.0012356686011 758.1985171976786Q885.8410214860436 750.3986819534921 901.4406919744166 737.6989290872123Q917.0403624627896 724.9991762209326 934.0 710.9394563058155Q950.9596375372104 696.8797363906984 964.8393739279087 684.3599670488373Q962.8393739279087 676.3599670488373 955.7994233546528 672.3599670488373Q948.7594727813969 668.3599670488373 937.7594727813969 668.3599670488373H324.9596375372103ZM402.43822063721433 347.3599670488373H852.3616146069721V318.07990114651193H402.43822063721433ZM821.5617793627857 560.3196045860476H811.5617793627857L853.0807249255794 605.2784183441905L942.6787478558175 537.0799011465119Q938.0387149046547 531.0799011465119 926.7586490023293 525.3999176220932Q915.478583100004 519.7199340976746 900.7586490023294 516.3599670488373V291.19934097674604Q900.7586490023294 287.83937392790875 889.4390444162818 281.89950573255953Q878.1194398302341 275.9596375372103 862.960049426744 271.19975286627977Q847.800659023254 266.4398681953492 834.0411862418571 266.4398681953492H821.5617793627857ZM349.0807249255794 560.3196045860476V595.478583100004L431.9176275162858 560.3196045860476H843.8023065813888V531.0395386837222H426.5576604674485V285.47940687907146Q426.5576604674485 282.03953868372224 416.7380558814009 276.05971991511706Q406.91845129535324 270.07990114651193 391.7590608918631 265.2800659023254Q376.599670488373 260.4802306581389 360.400329511627 260.4802306581389H349.0807249255794ZM422.03953868372224 259.6400329511627Q455.67957163488495 199.8797363906984 510.2994233546528 155.33937392790875Q564.9192750744206 110.79901146511907 636.3990938430259 79.6186160511667Q707.878912611631 48.43822063721433 793.2388796604682 31.397858174424655Q878.5988467093056 14.357495711634982 974.3591432697699 10.237232102333401L973.9991762209326 -0.48270199534120195Q949 -7.082372483714227 930.3406095965099 -28.121499277902743Q911.6812191930198 -49.160626072091254 906.2413509976706 -79.83937392790875Q777.6812191930198 -61.39950573255953 680.9608732058115 -21.53953868372223Q584.2405272186031 18.32042836511507 516.6000823779067 85.40032951162698Q448.9596375372103 152.48023065813888 407.55930802558333 251.43986819534922ZM585.8813839488333 839.199340976746 700.5181217837262 827.9596375372104Q699.5181217837262 817.9596375372104 692.0181217837262 810.4596375372104Q684.5181217837262 802.9596375372104 665.158154734889 799.9596375372104V374.642504288365Q664.158154734889 288.2825372395277 643.8183689174465 217.22240543487692Q623.478583100004 146.16227363022614 577.418863184887 89.68204297208726Q531.3591432697699 33.201812313948366 454.29942335465284 -9.51853367325996Q377.23970343953573 -52.238879660468285 262.7998352441865 -80.91927507442065L255.23970343953573 -65.15897851395637Q378.80065902325396 -20.87891261163098 451.02100501046226 40.28130157092655Q523.2413509976706 101.44151575348408 554.561367473252 183.84184526511103Q585.8813839488333 266.242174776738 585.8813839488333 374.00247133720234ZM163.48187821627377 539.3607908279048 197.84102148604362 584.3196045860476 272.3986819534921 556.9604613162778Q270.0387149046548 549.9604613162778 262.71869842907347 545.2804777918591Q255.3986819534921 540.6004942674405 242.3187808069802 538.2405272186031V-55.640032951162695Q242.3187808069802 -58.7199340976746 232.35914326976985 -64.69975286627977Q222.39950573255953 -70.67957163488494 208.10008237790674 -75.79942335465279Q193.80065902325396 -80.91927507442065 177.9612850953452 -80.91927507442065H163.48187821627377ZM246.0024713372023 841.279242123258 366.3187808069802 804.7602965604643Q362.95881375814287 795.400329511627 353.5988467093056 789.400329511627Q344.2388796604683 783.400329511627 327.2388796604683 784.400329511627Q293.35914326976985 691.0008237790674 248.9394563058155 606.5407743523234Q204.51976934186112 522.0807249255794 152.98023065813888 451.28047779185914Q101.44069197441665 380.4802306581389 42.8813839488333 326.2800659023254L28.68121919301981 335.8401977069762Q71.2413509976706 396.6400329511627 112.26153222906544 478.1198517197679Q153.28171346046028 559.599670488373 187.94192764301783 652.8995057325595Q222.60214182557536 746.199340976746 246.0024713372023 841.279242123258Z" fill="#173F42" transform="translate(326.904 106.000) scale(0.042000 -0.042000)"/>
  <path d="M162.2413509976706 767.2397034395357V777.2397034395357V804.9588137581429L256.1177922720993 767.2397034395357H242.15815473488894V462Q242.15815473488894 393.92009885348807 236.79818768605162 321.7001647558135Q231.43822063721433 249.48023065813888 212.9184512953532 178.44028008488294Q194.3986819534921 107.40032951162698 155.4592256476766 41.90032951162698Q116.51976934186112 -23.599670488373025 49.360790827904744 -77.87973639069843L35.24052721860316 -68.31960458604763Q92.36079082790474 6.760296560464278 119.38097205929958 93.02018123139483Q146.40115329069442 179.2800659023254 154.3212521441825 272.5Q162.2413509976706 365.7199340976746 162.2413509976706 461ZM206.11943983023414 533.599670488373H815.0411862418571V504.3196045860476H206.11943983023414ZM206.11943983023414 767.2397034395357H824.0016475581349V738.599670488373H206.11943983023414ZM200.35914326976987 293.7998352441865H815.0411862418571V264.5197693418611H200.35914326976987ZM784.1622736302261 767.2397034395357H773.1622736302261L814.8410214860436 818.2784183441905L911.0790773674445 743.6400329511627Q905.7191103186071 736.6400329511627 893.6190279407003 730.460049426744Q881.5189455627936 724.2800659023254 864.5189455627936 720.9200988534881V31.837726369773865Q864.5189455627936 1.8385501488413052 856.8591432697699 -20.42092263255553Q849.199340976746 -42.68039541395237 823.7199340976746 -56.56013180465079Q798.2405272186031 -70.4398681953492 744.6416805092975 -76.15980229302382Q743.2817134604603 -56.88056016976586 738.1416805092977 -41.981054437206325Q733.0016475581349 -27.08154870464679 722.6416805092975 -17.841845265111065Q711.0016475581349 -8.24217477673804 690.8014828023214 -1.0823724837142255Q670.6013180465079 6.077429809309589 634.521416899996 11.157330955821497V26.717462760472284Q634.521416899996 26.717462760472284 650.6214992779028 25.397446284890936Q666.7215816558095 24.07742980930959 689.2817134604602 22.43739685814689Q711.841845265111 20.79736390698419 731.9419276430178 19.477347431402844Q752.0420100209245 18.157330955821497 759.6820429720873 18.157330955821497Q774.242174776738 18.157330955821497 779.202224203482 23.657330955821497Q784.1622736302261 29.157330955821497 784.1622736302261 40.71746276047229ZM463.48187821627374 763.6400329511627H542.7586490023294V-46.480230658138886Q542.7586490023294 -50.92009885348809 525.239291550002 -60.979818768605156Q507.7199340976746 -71.03953868372223 476.6812191930198 -71.03953868372223H463.48187821627374Z" fill="#173F42" transform="translate(369.304 106.000) scale(0.042000 -0.042000)"/>
  <path d="M332.16062607209125 -5.840197706976186 73.92092263255553 731.6392091720952H184.2372321023334L399.87808883256355 83.59719915117071H381.9579899790754L386.31795702791277 98.2372321023334L590.3986819534921 731.6392091720952H637.2380558814009L387.6787478558175 -5.840197706976186ZM5.359967048837302 700.8393739279087V731.6392091720952H309.4373968581469V701.279242123258L165.71828653953972 689.0395386837222H141.878912611631ZM467.1186160511667 701.279242123258V731.6392091720952H712.478583100004V702.279242123258L605.1985171976786 689.0395386837222H588.9184512953532Z" fill="#173F42" transform="translate(422.814 106.000) scale(0.042000 -0.042000)"/>
  <path d="M42.12026360930158 0V28.43986819534921L150.96046131627776 39.07990114651191H191.1985171976786L297.6383853930278 28.43986819534921V0ZM121.48105443720632 0Q122.48105443720632 24.719934097674606 123.30107091278768 65.9398681953492Q124.12108738836902 107.15980229302382 124.62108738836902 151.8797363906984Q125.12108738836902 196.59967048837302 125.12108738836902 230.31960458604763V294.3187808069802Q125.12108738836902 344.95881375814287 124.30107091278768 384.5391267941885Q123.48105443720632 424.1194398302341 121.48105443720632 461.03953868372224L35.32042836511507 465.83937392790875V491.1194398302341L212.19769341861118 534.478583100004L224.55766046744847 526.1186160511667L221.83772636977386 382.39950573255953V230.31960458604763Q221.83772636977386 196.59967048837302 222.33772636977386 151.8797363906984Q222.83772636977386 107.15980229302382 223.51770989419254 65.9398681953492Q224.19769341861118 24.719934097674606 225.19769341861118 0ZM166.27924212325794 655Q140.23970343953573 655 121.78006590232539 671.9196869639543Q103.32042836511506 688.8393739279087 103.32042836511506 716.2388796604682Q103.32042836511506 742.9184512953532 121.78006590232539 760.158154734889Q140.23970343953573 777.3978581744246 166.27924212325794 777.3978581744246Q192.0387149046548 777.3978581744246 210.95840186860917 760.158154734889Q229.87808883256355 742.9184512953532 229.87808883256355 716.2388796604682Q229.87808883256355 688.8393739279087 210.95840186860917 671.9196869639543Q192.0387149046548 655 166.27924212325794 655Z" fill="#173F42" transform="translate(452.194 106.000) scale(0.042000 -0.042000)"/>
  <path d="M41.12026360930158 0V28.43986819534921L121.20098853488093 35.359967048837305Q122.20098853488093 64.0799011465119 122.20098853488093 98.79983524418651Q122.20098853488093 133.51976934186112 122.70098853488093 168.23970343953573Q123.20098853488093 202.9596375372103 123.20098853488093 230.31960458604763V744.5197693418611L38.04036246278967 749.599670488373V776.599670488373L206.91762751628576 809.3591432697699L221.83772636977386 800.3591432697699L218.83772636977386 643.8393739279087V445.07825358837704L220.55766046744847 435.07825358837704V80.5601318046508V79.20016475581349L206.07825358837704 -10.519769341861117ZM379.67792407675006 -15.079901146511908Q332.07825358837704 -15.079901146511908 285.75823711279565 8.719934097674603Q239.43822063721433 32.519769341861114 201.87808883256355 87.15980229302382H190.87808883256355L205.47775932093657 109.76029656046428Q241.35831949070243 70.23970343953572 274.95881375814287 53.47940687907144Q308.55930802558333 36.719110318607164 345.7998352441865 36.719110318607164Q386.5601318046508 36.719110318607164 421.22034598720836 58.239291550002Q455.8805601697659 79.75947278139684 476.94069197441667 130.03953868372224Q498.00082377906745 180.31960458604763 498.00082377906745 265.55930802558333Q498.00082377906745 378.71911031860714 455.8805601697659 432.51935745232737Q413.76029656046427 486.3196045860476 348.1598022930238 486.3196045860476Q325.3196045860476 486.3196045860476 301.19934097674604 479.7594727813968Q277.0790773674445 473.19934097674604 250.91886318488696 454.67915974535117Q224.7586490023294 436.15897851395636 192.8385501488413 400.5988467093056L181.3986819534921 429.5988467093056H196.07825358837704Q237.43822063721433 485.95881375814287 287.7981876860516 511.3587313802361Q338.1581547348889 536.7586490023294 390.39785817442464 536.7586490023294Q452.1177922720993 536.7586490023294 499.5576604674485 504.07866547791076Q546.9975286627977 471.3986819534921 574.5774298093096 410.5988467093056Q602.1573309558215 349.79901146511907 602.1573309558215 265.39950573255953Q602.1573309558215 184.03953868372224 574.0774298093096 120.59967048837302Q545.9975286627977 57.159802293023816 496.0576604674485 21.039950573255954Q446.1177922720993 -15.079901146511908 379.67792407675006 -15.079901146511908Z" fill="#173F42" transform="translate(466.748 106.000) scale(0.042000 -0.042000)"/>
  <path d="M306.99917622093255 -15.079901146511908Q231.31960458604763 -15.079901146511908 172.0799011465119 15.719934097674603Q112.84019770697618 46.519769341861114 79.36037893837101 108.17957163488494Q45.88056016976586 169.83937392790875 45.88056016976586 260.279242123258Q45.88056016976586 346.2388796604683 81.08031303604562 408.1787478558175Q116.28006590232539 470.1186160511667 174.05971991511706 503.43863252674805Q231.83937392790875 536.7586490023294 299.0790773674445 536.7586490023294Q366.8385501488413 536.7586490023294 414.2182865395397 508.8187808069802Q461.59802293023813 480.878912611631 486.4979405523314 433.21911031860714Q511.39785817442464 385.55930802558333 511.39785817442464 325.39950573255953Q511.39785817442464 289.47940687907146 505.03789112558735 265.03953868372224H89.91927507442065V297.19934097674604H370.4415157534841Q398.4011532906944 297.19934097674604 408.34102148604364 312.21911031860714Q418.28088968139286 327.2388796604683 418.28088968139286 360.43822063721433Q418.28088968139286 424.87808883256355 385.92051074302185 464.5984348197719Q353.5601318046508 504.3187808069802 295.9192750744206 504.3187808069802Q255.1186160511667 504.3187808069802 221.51812178372623 477.75864900232943Q187.91762751628576 451.1985171976786 168.1573309558215 399.51853367326Q148.39703439535722 347.8385501488413 148.39703439535722 272.71911031860714Q148.39703439535722 191.63920917209526 172.49711677326397 139.45922564767662Q196.5971991511707 87.27924212325796 238.97734743140285 62.959225647676604Q281.357495711635 38.639209172095256 335.83772636977386 38.639209172095256Q388.83772636977386 38.639209172095256 427.3579076011687 57.719110318607164Q465.87808883256355 76.79901146511907 495.3583194907024 112.43904441628177L511.7981876860516 98.79901146511907Q479.51812178372626 45.31960458604763 428.0984348197719 15.119851719767862Q376.6787478558175 -15.079901146511908 306.99917622093255 -15.079901146511908Z" fill="#173F42" transform="translate(494.490 106.000) scale(0.042000 -0.042000)"/>
  <path d="M267.99917622093255 -16.79983524418651Q206.35914326976987 -16.79983524418651 148.61943983023414 -0.019769341861115564Q90.87973639069843 16.76029656046428 52.92009885348809 41.2800659023254L58.640032951162695 195.35914326976987H103.19934097674604L139.87808883256355 23.44069197441665L89.71911031860716 46.68039541395237L82.75947278139684 80.28006590232539Q131.47940687907143 45 169.61943983023414 32.7199340976746Q207.75947278139685 20.43986819534921 259.9596375372103 20.43986819534921Q339.7199340976746 20.43986819534921 387.54036246278963 56.5Q435.36079082790474 92.5601318046508 435.36079082790474 162.08072492557935Q435.36079082790474 198.00082377906745 422.62067549883534 224.2409391081369Q409.8805601697659 250.48105443720632 379.9802306581389 272.04118624185713Q350.07990114651193 293.6013180465079 297.9192750744206 314.8014828023214L254.39950573255953 333.2413509976706Q163.3599670488373 372.20098853488093 115.98023065813888 423.720757876742Q68.60049426744047 475.2405272186032 68.60049426744047 554.3599670488373Q68.60049426744047 618.5197693418611 100.54036246278967 661.679571634885Q132.48023065813888 704.8393739279087 186.93986819534922 726.9592256476766Q241.39950573255953 749.0790773674445 308.95881375814287 749.0790773674445Q366.6787478558175 749.0790773674445 411.3183689174465 734.7191103186071Q455.9579899790754 720.3591432697699 494.03789112558735 693.9991762209326L488.59802293023813 547.9200988534881H442.7586490023294L407.1598022930238 712.3986819534921L459.478583100004 688.4390444162817L463.71828653953975 654.0395386837222Q424.1985171976786 685.8393739279087 392.1383853930278 698.699340976746Q360.07825358837704 711.5593080255834 317.1581547348889 711.5593080255834Q248.31795702791274 711.5593080255834 203.83772636977386 678.4592256476767Q159.35749571163498 645.3591432697699 159.35749571163498 581.6787478558175Q159.35749571163498 525.8385501488413 191.83772636977386 492.2784183441905Q224.31795702791274 458.71828653953975 281.7981876860516 434.07825358837704L328.67792407675006 414.5584842465159Q404.31795702791277 382.8385501488413 448.0378911255874 350.75864900232943Q491.757825223262 318.6787478558175 510.15774284535524 280.5588961360496Q528.5576604674485 242.43904441628177 528.5576604674485 189.91927507442065Q528.5576604674485 127.11943983023414 496.65774284535524 80.45963753721033Q464.757825223262 33.79983524418651 406.3381382593076 8.5Q347.91845129535324 -16.79983524418651 267.99917622093255 -16.79983524418651Z" fill="#173F42" transform="translate(518.032 106.000) scale(0.042000 -0.042000)"/>
  <path d="M39.480230658138886 0V28.43986819534921L147.96046131627776 39.07990114651191H189.55848424651592L299.6383853930278 28.43986819534921V0ZM120.20098853488093 0Q121.20098853488093 19.56013180465079 121.70098853488093 48.100082377906745Q122.20098853488093 76.6400329511627 122.70098853488093 109.0799011465119Q123.20098853488093 141.51976934186112 123.20098853488093 173.09967048837302Q123.20098853488093 204.67957163488492 123.20098853488093 230.31960458604763V744.8797363906984L38.04036246278967 749.599670488373V776.599670488373L208.91762751628576 809.3591432697699L223.91762751628576 800.3591432697699L220.55766046744847 643.8393739279087V233.83937392790875Q220.55766046744847 207.11943983023414 220.55766046744847 174.67957163488495Q220.55766046744847 142.23970343953573 221.05766046744847 109.43986819534922Q221.55766046744847 76.6400329511627 222.23764399186712 48.100082377906745Q222.91762751628576 19.56013180465079 223.91762751628576 0ZM171.75947278139685 175.7199340976746V219.0799011465119H176.19934097674604L327.1985171976786 370.19934097674604L479.5576604674485 521.6787478558175H531.6771002976826ZM455.2001647558135 0 285.878912611631 299.7199340976746 354.07660603024215 363.9579899790754 541.3566719325676 35.07990114651191 616.5971991511707 28.43986819534921V0ZM341.9579899790754 492.3187808069802V521.6787478558175H590.4373968581469V492.3187808069802L473.7973639069842 482.2388796604683L454.357495711635 479.2388796604683Z" fill="#173F42" transform="translate(542.540 106.000) scale(0.042000 -0.042000)"/>
  <path d="M42.12026360930158 0V28.43986819534921L150.96046131627776 39.07990114651191H191.1985171976786L297.6383853930278 28.43986819534921V0ZM121.48105443720632 0Q122.48105443720632 24.719934097674606 123.30107091278768 65.9398681953492Q124.12108738836902 107.15980229302382 124.62108738836902 151.8797363906984Q125.12108738836902 196.59967048837302 125.12108738836902 230.31960458604763V294.3187808069802Q125.12108738836902 344.95881375814287 124.30107091278768 384.5391267941885Q123.48105443720632 424.1194398302341 121.48105443720632 461.03953868372224L35.32042836511507 465.83937392790875V491.1194398302341L212.19769341861118 534.478583100004L224.55766046744847 526.1186160511667L221.83772636977386 382.39950573255953V230.31960458604763Q221.83772636977386 196.59967048837302 222.33772636977386 151.8797363906984Q222.83772636977386 107.15980229302382 223.51770989419254 65.9398681953492Q224.19769341861118 24.719934097674606 225.19769341861118 0ZM166.27924212325794 655Q140.23970343953573 655 121.78006590232539 671.9196869639543Q103.32042836511506 688.8393739279087 103.32042836511506 716.2388796604682Q103.32042836511506 742.9184512953532 121.78006590232539 760.158154734889Q140.23970343953573 777.3978581744246 166.27924212325794 777.3978581744246Q192.0387149046548 777.3978581744246 210.95840186860917 760.158154734889Q229.87808883256355 742.9184512953532 229.87808883256355 716.2388796604682Q229.87808883256355 688.8393739279087 210.95840186860917 671.9196869639543Q192.0387149046548 655 166.27924212325794 655Z" fill="#173F42" transform="translate(568.980 106.000) scale(0.042000 -0.042000)"/>
  <path d="M34.2800659023254 0V28.43986819534921L149.68039541395237 39.07990114651191H190.27841834419053L307.5584842465159 28.43986819534921V0ZM120.20098853488093 0Q121.20098853488093 32.519769341861114 121.70098853488093 72.05971991511707Q122.20098853488093 111.59967048837302 122.70098853488093 152.91968696395438Q123.20098853488093 194.23970343953573 123.20098853488093 230.31960458604763V744.8797363906984L38.04036246278967 749.599670488373V776.599670488373L208.91762751628576 809.3591432697699L223.91762751628576 800.3591432697699L220.55766046744847 643.8393739279087V230.31960458604763Q220.55766046744847 194.23970343953573 221.05766046744847 152.91968696395438Q221.55766046744847 111.59967048837302 222.23764399186712 72.05971991511707Q222.91762751628576 32.519769341861114 223.91762751628576 0Z" fill="#173F42" transform="translate(583.534 106.000) scale(0.042000 -0.042000)"/>
  <path d="M34.2800659023254 0V28.43986819534921L149.68039541395237 39.07990114651191H190.27841834419053L307.5584842465159 28.43986819534921V0ZM120.20098853488093 0Q121.20098853488093 32.519769341861114 121.70098853488093 72.05971991511707Q122.20098853488093 111.59967048837302 122.70098853488093 152.91968696395438Q123.20098853488093 194.23970343953573 123.20098853488093 230.31960458604763V744.8797363906984L38.04036246278967 749.599670488373V776.599670488373L208.91762751628576 809.3591432697699L223.91762751628576 800.3591432697699L220.55766046744847 643.8393739279087V230.31960458604763Q220.55766046744847 194.23970343953573 221.05766046744847 152.91968696395438Q221.55766046744847 111.59967048837302 222.23764399186712 72.05971991511707Q222.91762751628576 32.519769341861114 223.91762751628576 0Z" fill="#173F42" transform="translate(598.214 106.000) scale(0.042000 -0.042000)"/>
  <path d="M224.55930802558336 -15.079901146511908Q174.23970343953573 -15.079901146511908 133.60008237790674 -4.5Q92.96046131627777 6.079901146511907 51.52059312092856 26.599670488373025L53.12026360930158 148.51894556279368H100.47940687907145L126.15897851395637 18.79983524418651L86.23970343953572 21.959637537210327V57.95963753721033Q115.75947278139684 38.519769341861114 146.39950573255953 28.339785817442465Q177.03953868372224 18.159802293023816 219.8797363906984 18.159802293023816Q284.5601318046508 18.159802293023816 317.62026360930156 43.7800659023254Q350.6803954139524 69.40032951162698 350.6803954139524 111.68039541395237Q350.6803954139524 147.52059312092857 328.62026360930156 170.84060959650992Q306.5601318046508 194.16062607209125 245.2800659023254 213.08072492557935L192.40032951162698 232.08072492557935Q130.52059312092857 253.36079082790474 94.44069197441665 288.8805601697659Q58.360790827904744 324.400329511627 58.360790827904744 382Q58.360790827904744 448.19934097674604 108.90032951162698 492.47899498953774Q159.43986819534922 536.7586490023294 253.43904441628177 536.7586490023294Q299.5988467093056 536.7586490023294 335.978583100004 525.8986819534921Q372.3583194907024 515.0387149046547 411.23805588140084 492.3986819534921L406.7981876860516 381.7594727813968H363.878912611631L335.7998352441865 502.9983524418651L370.35914326976985 495.2388796604683V463.3187808069802Q339.71911031860714 484.5988467093056 312.878912611631 493.91886318488696Q286.0387149046548 503.2388796604683 254.23887966046829 503.2388796604683Q199.27841834419053 503.2388796604683 170.3183689174465 478.8587313802361Q141.35831949070243 454.478583100004 141.35831949070243 415.1985171976786Q141.35831949070243 380.51812178372626 164.55848424651592 358.01812178372626Q187.7586490023294 335.51812178372626 243.1985171976786 317.23805588140084L295.1581547348889 299.23805588140084Q371.59802293023813 273.31795702791277 404.39785817442464 236.29818768605165Q437.19769341861115 199.27841834419053 437.19769341861115 144.9588137581429Q437.19769341861115 99.11943983023414 412.8179570279127 62.739703439535724Q388.43822063721433 26.3599670488373 341.29859957558534 5.640032951162697Q294.15897851395636 -15.079901146511908 224.55930802558336 -15.079901146511908Z" fill="#173F42" transform="translate(612.894 106.000) scale(0.042000 -0.042000)"/>
</svg>
