<svg xmlns="http://www.w3.org/2000/svg" viewBox="0 0 960 94" role="img" aria-labelledby="title">
  <title id="title">组织合适的本地 Skills，把复杂任务做完整。</title>
  <metadata>Lettering derived from Noto Serif SC, licensed under SIL Open Font License 1.1.</metadata>
  <path d="M902.8251785219658 52.335202324894546Q902.8251785219658 52.335202324894546 915.3352023248946 41.17762496537604Q927.8452261278234 30.02004760585754 944.855249930752 13.97995239414246Q961.8652737336809 -2.060142817572619 974.6102618322165 -17.335202324894542Q970.8652737336809 -33.335202324894546 948.8652737336809 -33.335202324894546H321.1403332410028L313.1403332410028 -3.845226127823313H864.0400952117151ZM443.62470246339035 798.4153927483247 525.3007140878631 763.7850833102507H765.1692145033506L803.054535842889 812.2205236644329L894.630309438074 742.0400952117151Q885.3752975366097 729.2750595073219 849.3752975366097 724.0200476058575V-16.86527373368085H776.6591907004218V734.2951071131795H514.0657497922563V-16.86527373368085H443.62470246339035V763.7850833102507ZM810.9743454194588 257.51002380292874V228.02004760585754H484.30071408786307V257.51002380292874ZM809.4843692223876 518.4899761970712V489H482.81073789079187V518.4899761970712ZM421.9254165512535 605.6247024633903Q416.4354403541822 597.369690561926 401.3079344034501 593.9871727097294Q386.1804284527179 590.6046548575329 363.90536894539594 602.5846072516753L392.4354403541822 608.8396191531397Q369.6704046497891 573.3496429560685 333.767839191735 528.6247024633903Q297.86527373368085 483.8997619707123 254.70769637416237 436.9398571824274Q211.55011901464385 389.97995239414246 165.6575773595185 346.4125892609829Q119.76503570439316 302.8452261278233 76.51002380292877 268.4153927483247L74.76503570439316 279.6704046497891H116.18042845271786Q111.43544035418225 244.2750595073219 99.2878867975925 224.5573393302308Q87.14033324100278 204.8396191531397 72.33520232489454 199.30954774435338L35.40978577364107 293.2004760585754Q35.40978577364107 293.2004760585754 47.31235123169519 296.08299391077196Q59.21491668974931 298.96551176296856 64.48997619707123 303.7305474673617Q99.19486908389176 333.4153927483247 137.7822798229089 378.630309438074Q176.369690561926 423.8452261278233 213.2121132024075 475.82517852196577Q250.05453584288898 527.8051309161083 280.0244644341027 577.5501190146439Q309.99439302531636 627.2951071131795 327.2093097150657 664.5501190146439ZM327.34080929957815 787.1948690838917Q323.34080929957815 777.9398571824274 308.84080929957815 773.0673631331596Q294.34080929957815 768.1948690838917 270.575773595185 777.4298333794986L298.6158688069001 784.4298333794986Q281.0857973981138 755.9198095765698 255.53567838346996 721.8023274287664Q229.9855593688261 687.684845280963 199.56294630491442 652.3323988375528Q169.14033324100276 616.9799523941425 137.3452261278233 584.3925416551253Q105.55011901464385 551.8051309161083 75.27505950732193 527.1002380292877L73.7850833102507 537.6102618322165H115.45548796003978Q111.45548796003978 503.2149166897493 99.43544035418225 482.9971965126582Q87.4153927483247 462.77947633556704 73.35524993075208 456.50441682824516L35.684845280962996 550.1403332410027Q35.684845280962996 550.1403332410027 46.459904788284916 553.0228510931993Q57.234964295606844 555.9053689453959 62.255011901464385 559.4153927483247Q84.97995239414246 581.1202856351453 109.45990478828492 615.7277439800199Q133.93985718242737 650.3352023248946 156.91980957656983 689.8352023248946Q179.8997619707123 729.3352023248946 198.00722031558695 767.090214226359Q216.1146786604616 804.8452261278234 226.8396191531397 833.355249930752ZM43.15477387217669 70.71049986150416Q76.8997619707123 77.94546415711102 133.80232742876643 92.42541655125348Q190.70489288682055 106.90536894539594 261.2449880985356 126.25781538880621Q331.7850833102507 145.61026183221648 404.315154719037 166.59021422635894L408.2951071131795 153.37529753660962Q356.3552499307521 123.82517852196577 282.49277968441305 85.59743454194589Q208.630309438074 47.36969056192599 109.82517852196577 2.2293573209232154Q104.80513091610824 -16.300714087863092 88.02004760585754 -23.04570218639871ZM51.255011901464385 288.2004760585754Q81.76503570439316 290.945464157111 134.41258926098288 297.6804284527178Q187.06014281757263 304.4153927483247 252.71772017709114 314.52285109319934Q318.37529753660965 324.630309438074 387.65035704393154 334.86527373368085L390.1403332410028 319.39534514246714Q343.16038084686033 302.33520232489457 261.78788679759253 273.11748214780346Q180.4153927483247 243.8997619707123 84.35524993075208 214.28950013849584ZM49.46992859121369 542.9053689453959Q73.74498809853561 542.9053689453959 114.05011901464385 544.4053689453959Q154.35524993075208 545.9053689453959 204.05292250198568 548.0328748961281Q253.75059507321924 550.1603808468603 305.575773595185 553.4153927483247L307.06574979225627 537.945464157111Q285.30071408786307 530.3953451424671 249.03567838346993 518.6976725712336Q212.7706426790768 507 169.1030415166295 493.66479767510543Q125.43544035418225 480.3295953502109 78.35524993075208 467.4843692223876Z" fill="#4A4946" transform="translate(310.817 36.000) scale(0.031000 -0.031000)"/>
  <path d="M726.3897381677835 255.1603808468603Q802.2951071131795 208.9855593688261 850.1202856351453 163.47553556589733Q897.945464157111 117.96551176296855 922.8279820093076 77.04289869905689Q947.7104998615042 36.12028563514524 954.6603808468603 3.9326368668404257Q961.6102618322165 -28.255011901464385 954.7750595073219 -47.922613063911655Q947.9398571824274 -67.59021422635892 931.7121132024075 -71.58019042343015Q915.4843692223876 -75.57016662050138 894.8741073901712 -58.97995239414246Q887.6391430945642 -22.93985718242738 868.8067442570116 17.70769637416235Q849.9743454194588 58.35524993075208 823.8969584833706 99.86527373368085Q797.8195715472822 141.37529753660962 768.9871727097294 179.3853213395384Q740.1547738721766 217.39534514246716 713.6647976751054 247.67040464978908ZM641.3408092995782 218.82517852196577Q637.3408092995782 211.315154719037 627.213303348846 206.68764876830483Q617.0857973981138 202.06014281757263 600.5757735951851 204.80513091610823Q545.0056069746836 113.684845280963 473.6704046497891 39.81235123169519Q402.33520232489457 -34.06014281757262 328.91980957656983 -82.55011901464385L316.1948690838918 -70.82517852196577Q354.4498809853562 -32.53007140878631 395.18484528096303 21.27505950732192Q435.91980957656983 75.08019042343015 473.38973816778355 138.5128272902706Q510.8596667589972 201.94546415711102 540.3095477443534 267.260618876148ZM836.8251785219658 366.8051309161082V337.315154719037H498.06574979225627V366.8051309161082ZM456.4097857736411 794.2205236644329 536.9109759200795 760.315154719037H800.739381123852L836.4699285912137 803.8107378907919L914.3007140878631 743.0601428175726Q910.0457021863987 736.8051309161083 901.0457021863987 732.4226130639117Q892.0457021863987 728.0400952117151 875.53567838347 725.7850833102507V306.39534514246714Q875.53567838347 302.8853213395384 858.1804284527179 294.1002380292877Q840.8251785219658 285.315154719037 816.3496429560685 285.315154719037H804.2494049267807V730.8251785219658H525.1659878215439V293.86527373368085Q525.1659878215439 289.8452261278233 509.81073789079187 281.1876487683048Q494.45548796003976 272.5300714087863 467.51002380292874 272.5300714087863H456.4097857736411V760.315154719037ZM442.75059507321924 620.3897381677835Q437.75059507321924 611.1347262663191 422.75059507321924 607.8797143648547Q407.75059507321924 604.6247024633903 385.4755355658973 616.1146786604617L413.00560697468364 622.8596667589973Q390.2405712702905 586.1146786604617 353.96551176296856 540.7622322170514Q317.6904522556466 495.4097857736411 273.7878867975925 447.1948690838918Q229.8853213395384 398.97995239414246 183.73776778294865 354.5300714087863Q137.59021422635894 310.08019042343017 93.59021422635892 275.39534514246714L91.84522612782331 285.90536894539594H132.75059507321924Q128.00560697468364 251.02004760585754 115.9855593688261 231.80232742876643Q103.96551176296855 212.5846072516753 89.16038084686032 206.56455964581775L52.744988098535615 299.4354403541822Q52.744988098535615 299.4354403541822 64.27505950732193 302.3179582063788Q75.80513091610824 305.2004760585754 81.82517852196577 309.96551176296856Q117.53007140878631 339.90536894539594 156.7449880985356 386.7477915858774Q195.95990478828492 433.5902142263589 233.4298333794986 485.9526844726979Q270.8997619707123 538.315154719037 301.36969056192595 588.9426606697691Q331.83961915313967 639.5701666205014 349.3095477443534 677.8251785219658ZM325.53567838346993 789.4899761970712Q321.53567838346993 780.2349642956068 307.03567838346993 775.1074583448747Q292.53567838346993 769.9799523941425 268.0256545805412 779.2149166897493L296.06574979225627 786.2149166897493Q274.7706426790768 748.4498809853561 239.83800581223636 700.5874107390171Q204.90536894539594 652.7249404926781 164.85524993075208 607.0100238029288Q124.80513091610824 561.2951071131795 87.27505950732193 527.355249930752L85.53007140878631 538.6102618322165H125.94546415711102Q122.20047605857539 504.4699285912137 110.30793440345005 484.26223221705135Q98.4153927483247 464.054535842889 84.35524993075208 458.5244644341027L48.19486908389177 550.8853213395383Q48.19486908389177 550.8853213395383 58.3424226404815 553.3953451424671Q68.48997619707123 555.9053689453959 72.51002380292877 560.4153927483247Q93.97995239414246 581.630309438074 116.94988098535615 616.2377677829487Q139.91980957656983 650.8452261278234 160.7722560199801 690.3452261278234Q181.62470246339038 729.8452261278234 198.34964295606846 767.6002380292878Q215.07458344874652 805.355249930752 224.7995239414246 833.8652737336809ZM52.87971436485476 70.71049986150416Q86.87971436485476 78.45548796003978 144.41980957656983 94.07297010784319Q201.95990478828492 109.69045225564662 272.5100238029288 130.68042845271785Q343.0601428175726 151.67040464978908 415.3552499307521 174.4153927483247L419.5902142263589 160.94546415711102Q367.8853213395384 130.8853213395384 293.8853213395384 90.90256545805411Q219.8853213395384 50.91980957656984 121.06014281757263 4.759428729709525Q115.55011901464385 -15.260618876148015 99.76503570439316 -20.5156307776124ZM66.315154719037 290.71049986150416Q95.82517852196577 293.2004760585754 147.2177201770911 299.8079344034501Q198.61026183221648 306.4153927483247 263.130309438074 315.767839191735Q327.65035704393154 325.12028563514525 395.4153927483247 335.1002380292877L397.90536894539594 319.630309438074Q351.9254165512535 303.57016662050137 271.6904522556466 274.4899761970712Q191.4554879600398 245.40978577364106 97.16038084686032 217.30954774435338ZM62.51002380292877 544.4153927483247Q87.27505950732193 544.4153927483247 128.43263686684043 545.7878867975926Q169.59021422635894 547.1603808468603 220.2578153888062 549.6603808468603Q270.9254165512535 552.1603808468603 323.22052366443296 555.1603808468603L324.22052366443296 539.6904522556466Q301.22052366443296 532.3953451424671 264.22052366443296 520.8251785219658Q227.22052366443293 509.2550119014644 182.7004760585754 496.17482147803423Q138.18042845271785 483.09463105460406 90.63030943807401 470.50441682824516Z" fill="#4A4946" transform="translate(341.817 36.000) scale(0.031000 -0.031000)"/>
  <path d="M212.8396191531397 292.684845280963V326.86527373368085L290.4009521171508 292.684845280963H763.5501190146439V263.1948690838918H284.63591641275764V-54.44988098535615Q284.63591641275764 -57.72494049267807 275.93824384152407 -63.137529753660964Q267.2405712702905 -68.55011901464385 253.2578153888062 -73.08019042343017Q239.2750595073219 -77.61026183221647 224.40978577364106 -77.61026183221647H212.8396191531397ZM715.6792383062793 292.684845280963H705.4242264048149L745.1146786604617 335.65035704393154L831.2205236644329 269.87971436485475Q826.2205236644329 263.87971436485475 814.7305474673617 258.12470246339035Q803.2405712702905 252.369690561926 787.7305474673617 249.1146786604616V-48.02004760585754Q787.7305474673617 -51.02004760585754 777.2778629946638 -56.040095211715084Q766.8251785219658 -61.06014281757262 752.9699285912137 -65.32517852196577Q739.1146786604617 -69.59021422635892 726.7794763355671 -69.59021422635892H715.6792383062793ZM240.02004760585754 26.46992859121369H760.355249930752V-3.0200476058575396H240.02004760585754ZM264.0400952117151 477.83961915313967H604.7137265433108L653.8941549960286 537.8652737336809Q653.8941549960286 537.8652737336809 662.6792383062793 530.9627082756267Q671.46432161653 524.0601428175726 685.5144406311739 512.8925416551253Q699.5645596458178 501.72494049267806 714.8696905619261 488.92983337949863Q730.1748214780342 476.13472626631915 743.2149166897493 464.34964295606846Q739.2149166897493 448.34964295606846 716.4498809853561 448.34964295606846H272.0400952117151ZM519.6704046497891 784.1547738721766Q485.16038084686033 729.6247024633903 432.767839191735 673.4971965126581Q380.37529753660965 617.369690561926 316.7177201770911 564.6347262663191Q253.06014281757263 511.8997619707123 182.64755355658974 467.17482147803423Q112.23496429560684 422.4498809853562 40.19486908389177 390.23496429560686L33.44988098535615 404.9599047882849Q96.95990478828492 440.7449880985356 163.4298333794986 493.39254165512534Q229.8997619707123 546.0400952117151 289.10465485753286 606.9326368668404Q348.3095477443534 667.8251785219658 392.7594287297095 729.5801904234302Q437.2093097150657 791.3352023248946 456.9142026018862 845.0801904234302L579.4755355658973 815.684845280963Q576.9655117629685 807.1748214780342 567.3279820093076 803.0372917243733Q557.6904522556466 798.8997619707123 538.3953451424671 796.8997619707123Q571.6503570439315 749.6647976751054 618.4153927483246 706.9799523941424Q665.1804284527178 664.2951071131795 721.4354403541822 626.5128272902706Q777.6904522556466 588.7305474673617 840.4153927483246 556.8408092995782Q903.1403332410027 524.9510711317946 968.315154719037 499.0513091610823L966.8251785219658 484.5412853581536Q951.4699285912137 481.5011901464385 938.2822798229089 472.7834699693474Q925.0946310546041 464.06574979225627 916.4370536950855 452.08299391077196Q907.7794763355671 440.1002380292877 904.2694525326383 427.2550119014644Q823.0745834487466 467.72494049267806 748.2722560199802 523.1748214780342Q673.4699285912137 578.6247024633903 614.2951071131795 644.8596667589973Q555.1202856351453 711.0946310546041 519.6704046497891 784.1547738721766Z" fill="#4A4946" transform="translate(372.817 36.000) scale(0.031000 -0.031000)"/>
  <path d="M475.9310235259371 86.26061887614802Q475.9310235259371 83.24057127029047 467.4883628561679 77.95548796003979Q459.0457021863987 72.67040464978909 445.945464157111 68.26783919173496Q432.8452261278233 63.86527373368085 418 63.86527373368085H407.684845280963V386.08019042343017V418.9855593688261L481.18603542740146 386.08019042343017H835.3352023248946V356.5902142263589H475.9310235259371ZM667.3408092995782 371.315154719037Q667.0857973981138 371.315154719037 651.358053418094 371.315154719037Q635.630309438074 371.315154719037 608.4298333794986 371.315154719037H596.8195715472822V746.9198095765698L667.3408092995782 756.7449880985356ZM782.9943930253164 386.08019042343017 821.6647976751054 428.260618876148 905.7305474673617 363.7850833102507Q900.7305474673617 357.7850833102507 889.3680772210226 352.40256545805414Q878.0056069746836 347.02004760585754 862.7505950732193 344.02004760585754V93.75059507321924Q862.7505950732193 90.49558317175486 852.8079344034501 85.22052366443293Q842.8652737336809 79.94546415711102 829.5200476058576 75.55292250198568Q816.1748214780342 71.16038084686032 804.0946310546041 71.16038084686032H793.2494049267807V386.08019042343017ZM902.7505950732193 762.2895001384958Q895.7305474673617 756.0344882370315 882.0729701078433 756.0344882370315Q868.4153927483247 756.0344882370315 849.8652737336809 763.7995239414246Q787.8452261278234 749.3295953502109 706.5601428175726 735.6146786604615Q625.2750595073219 721.8997619707123 535.8724940492677 711.8123512316952Q446.4699285912137 701.7249404926781 360.9599047882849 697.2550119014644L356.72494049267806 714.7249404926781Q417.4498809853562 724.2550119014644 483.18484528096303 738.2850833102507Q548.9198095765698 752.315154719037 612.0372917243733 769.590214226359Q675.1547738721766 786.8652737336809 729.3997619707122 804.5128272902706Q783.644750069248 822.1603808468603 822.1347262663191 838.1804284527178ZM878.8596667589973 635.2405712702905Q878.8596667589973 635.2405712702905 888.1347262663191 627.5930177137008Q897.409785773641 619.945464157111 911.822375034624 608.2878867975926Q926.2349642956068 596.630309438074 942.1475535565896 583.2177201770912Q958.0601428175726 569.8051309161083 970.8452261278234 557.2750595073219Q966.8452261278234 541.2750595073219 944.0801904234302 541.2750595073219H326.8051309161082L318.8051309161082 570.7650357043932H829.46432161653ZM834.2349642956068 157.65035704393154V128.1603808468603H443.37529753660965V157.65035704393154ZM222.59021422635894 152.35524993075208Q235.35524993075208 152.35524993075208 242.23776778294865 149.6002380292877Q249.12028563514525 146.8452261278233 257.630309438074 137.8452261278233Q302.82517852196577 90.4153927483247 356.1876487683048 65.19045225564663Q409.5501190146438 39.96551176296855 478.9727320785555 31.093017713700746Q548.3953451424671 22.220523664432935 641.5156307776124 22.220523664432935Q725.2405712702905 22.220523664432935 799.2205236644329 23.10304151662951Q873.2004760585754 23.985559368826088 958.9053689453959 27.49558317175486V14.750595073219245Q935.7850833102507 9.965511762968552 922.7149166897493 -6.037291724373264Q909.644750069248 -22.04009521171508 906.1347262663191 -45.43544035418224Q861.7449880985356 -45.43544035418224 815.1275059507323 -45.43544035418224Q768.5100238029288 -45.43544035418224 720.137529753661 -45.43544035418224Q671.7650357043932 -45.43544035418224 619.355249930752 -45.43544035418224Q525.2750595073219 -45.43544035418224 458.13752975366094 -31.022851093199353Q391 -16.610261832216466 340.2850833102507 17.31235123169519Q289.57016662050137 51.234964295606844 243.37529753660962 109.76503570439316Q233.37529753660962 120.80513091610824 226.23776778294865 120.17762496537605Q219.1002380292877 119.55011901464385 210.8452261278233 109.51002380292877Q201.1002380292877 93.74498809853561 182.11026183221648 67.22494049267807Q163.12028563514525 40.70489288682054 142.63030943807402 11.919809576569843Q122.14033324100278 -16.86527373368085 106.8853213395384 -41.415392748324706Q110.37529753660962 -47.670404649789084 108.61026183221647 -53.670404649789084Q106.84522612782331 -59.670404649789084 101.59021422635892 -64.4153927483247L39.87971436485476 14.53567838346994Q62.664797675105454 30.770642679076786 90.07738693608835 54.11306531955828Q117.48997619707123 77.45548796003978 144.89254165512534 99.92541655125348Q172.29510711317945 122.39534514246716 192.9426606697692 137.37529753660962Q213.59021422635894 152.35524993075208 222.59021422635894 152.35524993075208ZM102.64475006924792 822.315154719037Q162.315154719037 793.6503570439315 198.77786299466374 763.1603808468603Q235.24057127029047 732.6704046497891 253.3881248268802 703.8853213395385Q271.53567838346993 675.1002380292877 274.37810102395144 651.5501190146438Q277.22052366443296 628 269.2778629946638 613.0874107390171Q261.33520232489457 598.1748214780342 246.11748214780343 595.6748214780342Q230.8997619707123 593.1748214780342 212.05453584288898 606.7449880985356Q203.56455964581775 639.7850833102507 183.33961915313967 677.7951071131795Q163.1146786604616 715.8051309161083 138.38973816778355 751.9326368668404Q113.66479767510546 788.0601428175726 90.91980957656985 815.8251785219658ZM246.7305474673617 142.74498809853563 181.52446443410267 111.23496429560684V472.42983337949863H42.15477387217669L36.15477387217669 501.17482147803423H167.0144406311739L206.684845280963 554.3953451424671L295.260618876148 481.1547738721767Q290.49558317175484 475.6447500692479 278.86807722102265 470.38973816778355Q267.2405712702905 465.13472626631915 246.7305474673617 461.87971436485475Z" fill="#4A4946" transform="translate(403.817 36.000) scale(0.031000 -0.031000)"/>
  <path d="M154.28066648200556 -22.8997619707123Q154.28066648200556 -26.91980957656984 147.1030415166295 -32.70489288682053Q139.92541655125348 -38.48997619707123 127.59021422635894 -42.89254165512534Q115.25501190146439 -47.29510711317946 100.40978577364108 -47.29510711317946H88.34964295606845V660.2149166897493V694.355249930752L159.02565458054116 660.2149166897493H390.739381123852V630.7249404926781H154.28066648200556ZM336.6559640186152 812.1948690838917Q330.4009521171508 790.9198095765698 298.8708807083645 790.9198095765698Q287.0857973981138 767.9398571824274 271.40817243273773 740.4498809853562Q255.7305474673617 712.9599047882849 239.80793440345005 685.9699285912137Q223.8853213395384 658.9799523941425 210.8452261278233 638.2349642956068H185.5300714087863Q191.51002380292877 663 199.22494049267806 698.2650357043931Q206.93985718242737 733.5300714087863 214.2822798229089 770.5501190146438Q221.62470246339038 807.5701666205014 227.09463105460406 838.0801904234302ZM833.4242264048149 661.2349642956068 875.644750069248 707.4354403541822 957.1603808468603 638.1748214780342Q951.1603808468603 631.9198095765698 941.4053689453959 627.909785773641Q931.6503570439315 623.8997619707123 914.3953451424671 622.3897381677835Q911.3953451424671 482.5244644341027 906.6503570439315 371.6419465819061Q901.9053689453959 260.7594287297095 893.7778629946638 179.05453584288898Q885.6503570439315 97.34964295606845 873.1403332410027 45.3997619707123Q860.630309438074 -6.550119014643849 842.355249930752 -28.06014281757262Q821.5501190146439 -54.08019042343016 791.5 -65.71772017709112Q761.4498809853561 -77.35524993075208 724.0745834487466 -77.35524993075208Q724.0745834487466 -60.234964295606844 720.19206559655 -46.03729172437326Q716.3095477443534 -31.839619153139683 704.5445120399602 -23.544512039960217Q692.7794763355671 -13.99439302531637 664.5344882370314 -5.464321616530061Q636.2895001384958 3.0657497922562484 604.739381123852 8.08579739811379L605.739381123852 25.300714087863092Q628.9943930253164 23.300714087863092 657.3668870745842 20.555725989327478Q685.739381123852 17.810737890791863 710.6118751731199 16.06574979225625Q735.4843692223876 14.320761693720634 746.9943930253164 14.320761693720634Q762.2293573209232 14.320761693720634 769.9843692223876 16.948267644452827Q777.739381123852 19.57577359518502 785.4843692223876 28.06574979225625Q805.2293573209232 47.30071408786309 816.5918275672623 129.22052366443293Q827.9542978136013 211.14033324100276 834.8167680599404 346.6876487683048Q841.6792383062793 482.23496429560686 844.6792383062793 661.2349642956068ZM348.4843692223876 660.2149166897493 386.6447500692479 702.3953451424671 468.6704046497891 638.1748214780342Q464.4153927483247 631.9198095765698 452.5529225019857 626.7923036258376Q440.6904522556466 621.6647976751054 425.6904522556466 618.409785773641V6.335202324894543Q425.6904522556466 3.0801904234301585 416.130309438074 -2.5673631331595734Q406.57016662050137 -8.214916689749305 393.60745834487466 -13.107458344874653Q380.6447500692479 -18 368.5645596458178 -18H358.4843692223876V660.2149166897493ZM543.8797143648547 455.2550119014644Q605 429.0601428175726 642.2951071131795 398.6876487683048Q679.590214226359 368.315154719037 697.4526844726979 339.0400952117151Q715.315154719037 309.76503570439314 717.6375297536609 285.60745834487466Q719.9599047882849 261.4498809853562 711.0072203155869 246.05733933023083Q702.054535842889 230.66479767510546 686.0918275672623 228.0573393302308Q670.1291192916356 225.44988098535615 651.0489288682054 240.5300714087863Q645.5790002769917 275.0400952117151 626.8941549960286 312.7850833102507Q608.2093097150657 350.5300714087863 582.9069822862994 386.0200476058575Q557.6046548575329 421.51002380292874 532.8997619707123 448.02004760585754ZM890.8596667589973 661.2349642956068V631.7449880985356H571.9799523941425L584.7249404926781 661.2349642956068ZM708.5757735951851 806.1948690838917Q705.5757735951851 798.4298333794986 696.6932557429884 792.184845280963Q687.8107378907919 785.9398571824274 670.8107378907919 786.684845280963Q633.2405712702905 676.8997619707123 578.4254165512534 581.3123512316952Q523.6102618322165 485.72494049267806 457.02004760585754 420.7449880985356L443.0400952117151 430.72494049267806Q475.48997619707126 480.7449880985356 505.322375034624 545.9025654580541Q535.1547738721766 611.0601428175726 560.2421846111938 686.0801904234302Q585.3295953502109 761.1002380292877 601.5445120399602 837.8452261278234ZM401.3295953502109 381.23496429560686V351.7449880985356H123.82517852196577V381.23496429560686ZM401.3295953502109 87.51002380292877V58.02004760585754H123.82517852196577V87.51002380292877Z" fill="#4A4946" transform="translate(434.817 36.000) scale(0.031000 -0.031000)"/>
  <path d="M541.2205236644329 617.5300714087863Q573.2004760585754 543.7850833102507 619.4354403541822 475.69767257123357Q665.6704046497891 407.61026183221645 721.2878867975926 348.2878867975925Q776.9053689453959 288.96551176296856 837.6503570439315 242.5156307776124Q898.3953451424671 196.06574979225624 959.3953451424671 165.59582120104255L957.1403332410027 155.34080929957818Q934.2550119014644 153.0457021863987 915.1547738721767 137.29791060052128Q896.054535842889 121.55011901464385 886.5044168282451 96.1146786604616Q810.5044168282451 147.8997619707123 741.8496429560685 224.53729172437326Q673.1948690838917 301.17482147803423 617.6876487683048 398.9498809853561Q562.1804284527178 496.72494049267806 525.260618876148 609.8051309161083ZM500.4354403541822 601.5300714087863Q440.22052366443296 436.684845280963 324.41539274832473 297.17482147803423Q208.61026183221648 157.66479767510546 45.15477387217669 61.44988098535615L33.174821478034225 74.66479767510546Q123.62470246339038 142.17482147803423 198.30954774435338 230.57738693608835Q272.99439302531636 318.97995239414246 329.5417085526184 418.38251785219654Q386.0890240799204 517.7850833102507 419.26384555795465 617.5300714087863H500.4354403541822ZM571.7906902849343 828.315154719037Q570.0457021863987 817.5501190146439 562.1631843342021 810.1676011624472Q554.2806664820056 802.7850833102507 533.4955831717549 799.5300714087863V-52.744988098535615Q533.4955831717549 -57.255011901464385 525.3079344034501 -63.40256545805412Q517.1202856351453 -69.55011901464385 504.14755355658974 -73.69767257123358Q491.17482147803423 -77.84522612782331 476.5645596458178 -77.84522612782331H462.71933351799447V840.6102618322165ZM669.0144406311739 236.75059507321924Q669.0144406311739 236.75059507321924 677.7895001384959 229.4755355658973Q686.5645596458178 222.2004760585754 700.3496429560685 210.16038084686033Q714.1347262663191 198.12028563514525 729.4198095765698 184.58019042343017Q744.7048928868205 171.04009521171508 756.9799523941425 158.51002380292877Q752.9799523941425 142.51002380292877 731.2149166897493 142.51002380292877H254.95990478828492L246.95990478828492 172H619.6391430945642ZM836.3095477443534 685.5557259893275Q836.3095477443534 685.5557259893275 846.3396191531397 677.6531605312734Q856.369690561926 669.7505950732193 871.2923036258376 657.5829939107721Q886.2149166897493 645.4153927483247 902.7650357043931 631.1202856351453Q919.315154719037 616.8251785219658 933.1002380292877 604.0400952117151Q929.1002380292877 588.0400952117151 907.0801904234302 588.0400952117151H78.44988098535615L69.70489288682053 617.5300714087863H783.3841311930998Z" fill="#4A4946" transform="translate(465.817 36.000) scale(0.031000 -0.031000)"/>
  <path d="M619.0144406311739 836.8452261278234 720.9655117629685 826.0601428175726Q719.9655117629685 816.0601428175726 712.0930177137006 808.5601428175726Q704.2205236644329 801.0601428175726 685.7104998615042 798.0601428175726V124.00560697468363Q685.7104998615042 120.24057127029047 677.4053689453959 114.46551176296855Q669.1002380292877 108.69045225564662 656.7650357043931 104.17040464978908Q644.4298333794986 99.65035704393155 631.0946310546041 99.65035704393155H619.0144406311739ZM420.99439302531636 761.0400952117151 524.2205236644329 749Q523.2205236644329 739 514.8480296151652 731.5Q506.4755355658973 724 488.96551176296856 721V62.34080929957817Q488.96551176296856 39.595821201042554 502.59301771370076 30.105845003971325Q516.2205236644329 20.6158688069001 562.1403332410027 20.6158688069001H709.5100238029288Q761.1146786604617 20.6158688069001 797.0445120399602 21.6158688069001Q832.9743454194588 22.6158688069001 848.9743454194588 24.360856905435714Q869.7594287297095 27.10584500397133 878.054535842889 39.36085690543571Q884.5846072516753 53.615868806900096 894.9971965126581 94.32076169372063Q905.409785773641 135.02565458054116 916.9599047882849 189.24057127029047H929.9398571824274L932.4498809853561 34.87088070836448Q953.2750595073219 28.08579739811379 960.5601428175726 20.918196235666517Q967.8452261278234 13.750595073219245 967.8452261278234 2.9454641571110116Q967.8452261278234 -10.879714364854763 957.0801904234302 -20.057339330230803Q946.315154719037 -29.234964295606844 918.5400952117151 -34.64755355658973Q890.7650357043932 -40.06014281757262 839.4899761970712 -42.45268447269797Q788.2149166897493 -44.84522612782331 706.9398571824274 -44.84522612782331H556.5701666205014Q505.2149166897493 -44.84522612782331 475.64475006924795 -37.08019042343015Q446.0745834487465 -29.315154719037004 433.53448823703144 -9.382517852196578Q420.99439302531636 10.55011901464385 420.99439302531636 47.180428452717855ZM39.93985718242738 535.2750595073219H263.42983337949863L305.51002380292874 596.0256545805412Q305.51002380292874 596.0256545805412 313.64755355658974 588.7505950732193Q321.7850833102507 581.4755355658973 334.177624965376 570.4354403541822Q346.57016662050137 559.3953451424671 359.83520232489457 546.355249930752Q373.1002380292877 533.315154719037 383.3552499307521 521.7850833102507Q380.1002380292877 505.7850833102507 358.1002380292877 505.7850833102507H47.93985718242738ZM163.99439302531636 818.3352023248946 268.2004760585754 807.0601428175726Q266.45548796003976 797.0601428175726 258.58299391077196 789.5601428175726Q250.71049986150416 782.0601428175726 231.94546415711102 779.5501190146439V156.43544035418225L163.99439302531636 134.78508331025068ZM31.879714364854763 113.53567838346994Q61.40978577364107 123.02565458054117 116.18484528096299 144.24057127029047Q170.95990478828492 165.4554879600398 239.9699285912137 194.90536894539594Q308.97995239414246 224.35524993075208 380.2149166897493 256.0601428175726L386.1948690838918 242.8452261278233Q334.76503570439314 208.29510711317945 261.31515471903697 158.86247024633903Q187.86527373368085 109.42983337949862 92.61026183221647 51.094631054604065Q88.59021422635892 32.56455964581776 73.06014281757263 23.819571547282145ZM816.1892621092081 622.7249404926781 842.1892621092081 631.7249404926781 852.9342502077437 604.2349642956068 300.23496429560686 397.16038084686033 280.7449880985356 421.65035704393154ZM834.4442740106725 625.7249404926781H824.1892621092081L862.644750069248 666.1403332410027L939.9053689453959 603.409785773641Q934.9053689453959 597.409785773641 925.4053689453959 593.5272679214445Q915.9053689453959 589.644750069248 901.6503570439315 587.644750069248Q900.6503570439315 489.13472626631915 897.7778629946638 419.7923036258377Q894.9053689453959 350.4498809853562 889.2778629946638 305.2449880985356Q883.6503570439315 260.0400952117151 874.6403332410027 233.69767257123357Q865.630309438074 207.35524993075208 852.8452261278234 194.1002380292877Q836.8051309161083 177.59021422635894 814.637529753661 170.20769637416237Q792.4699285912137 162.82517852196577 768.3897381677835 162.82517852196577Q768.3897381677835 177.69045225564662 766.5172441185157 190.13311292541582Q764.644750069248 202.575773595185 756.8997619707123 210.36085690543572Q749.8997619707123 217.65596401861518 736.0573393302309 223.17601162447272Q722.2149166897493 228.69605923033026 705.1948690838917 231.97111873765218V249.1860354274015Q722.1347262663191 248.1860354274015 744.0846072516754 246.19605923033026Q766.0344882370315 244.20608303325903 777.7794763355671 244.20608303325903Q796.5044168282451 244.20608303325903 805.2494049267807 253.69605923033026Q814.739381123852 263.9310235259371 820.6018513701911 304.1158688069001Q826.46432161653 344.30071408786307 829.9542978136012 423.07297010784316Q833.4442740106725 501.8452261278233 834.4442740106725 625.7249404926781Z" fill="#4A4946" transform="translate(496.817 36.000) scale(0.031000 -0.031000)"/>
  <path d="M265.37529753660965 -16.275059507321924Q203.630309438074 -16.275059507321924 146.83520232489454 0.7149166897493053Q90.04009521171508 17.704892886820534 53.234964295606844 41.48997619707123L58.744988098535615 192.630309438074H101.1002380292877L133.79069028493433 25.644750069247916L86.8853213395384 47.93985718242738L81.08019042343015 80.48997619707123Q129.59021422635894 45 167.83520232489457 32.51002380292877Q206.08019042343017 20.02004760585754 258.8051309161082 20.02004760585754Q339.51002380292874 20.02004760585754 388.6948690838917 56.5Q437.87971436485475 92.97995239414246 437.87971436485475 164.38973816778352Q437.87971436485475 200.62470246339038 424.7722560199801 227.23216080826504Q411.66479767510543 253.8396191531397 380.7149166897493 275.8195715472821Q349.76503570439314 297.7995239414246 295.61026183221645 319.5244644341027L252.82517852196577 337.54451203996024Q163.25501190146437 375.34964295606846 116.7149166897493 426.13472626631915Q70.17482147803423 476.91980957656983 70.17482147803423 554.2550119014644Q70.17482147803423 617.7850833102507 101.69486908389177 660.3151547190371Q133.21491668974932 702.8452261278234 186.52004760585754 724.4927796844131Q239.82517852196577 746.1403332410027 305.1804284527179 746.1403332410027Q362.6904522556466 746.1403332410027 406.12308912248704 731.8853213395385Q449.55572598932747 717.630309438074 487.3207616937206 691.3752975366097L482.30071408786307 548.2349642956068H438.45548796003976L406.5300714087863 708.2004760585754L454.96551176296856 685.3953451424671L458.260618876148 652.5701666205014Q419.4755355658973 683.8452261278234 386.99558317175484 696.6002380292878Q354.5156307776124 709.355249930752 311.28066648200553 709.355249930752Q241.81073789079187 709.355249930752 196.59582120104255 675.9927796844131Q151.38090451129324 642.630309438074 151.38090451129324 577.6904522556466Q151.38090451129324 521.2205236644329 184.59582120104255 487.24057127029045Q217.81073789079187 453.260618876148 276.0256545805412 428.5156307776124L322.06574979225627 409.7305474673617Q397.81073789079187 378.22052366443296 441.32076169372067 346.4554879600398Q484.8307854966494 314.6904522556466 502.9683152503104 277.0428986990569Q521.1058450039714 239.39534514246716 521.1058450039714 187.61026183221648Q521.1058450039714 125.33520232489454 489.4683152503104 79.30513091610823Q457.8307854966494 33.27505950732193 400.40817243273773 8.500000000000002Q342.9855593688261 -16.275059507321924 265.37529753660965 -16.275059507321924Z" fill="#4A4946" transform="translate(535.754 36.000) scale(0.031000 -0.031000)"/>
  <path d="M40.21491668974931 0V28.02004760585754L149.4298333794986 38.765035704393156H184.7305474673617L294.49558317175484 28.02004760585754V0ZM123.34964295606845 0Q124.34964295606845 19.97995239414246 124.84964295606845 48.362470246339036Q125.34964295606845 76.74498809853561 125.84964295606845 108.76503570439314Q126.34964295606845 140.78508331025068 126.34964295606845 172.05011901464383Q126.34964295606845 203.315154719037 126.34964295606845 229.06014281757263V744.0400952117151L39.19486908389177 748.5501190146439V775.5501190146439L201.36085690543572 806.630309438074L216.36085690543572 797.630309438074L213.10584500397133 641.8452261278234V231.8452261278233Q213.10584500397133 205.33520232489454 213.10584500397133 173.315154719037Q213.10584500397133 141.29510711317945 213.60584500397133 109.02004760585754Q214.10584500397133 76.74498809853561 214.73335095470352 48.362470246339036Q215.36085690543572 19.97995239414246 216.36085690543572 0ZM170.08019042343017 175.51002380292877V218.76503570439314H174.1002380292877L322.4755355658973 368.1002380292877L472.10584500397135 517.6904522556466H522.4410473288659ZM455.72494049267806 0 282.4153927483247 299.51002380292874 343.26622585083163 357.55572598932747 530.7562020479029 34.765035704393156 607.6760116244727 28.02004760585754V0ZM335.55572598932747 488.4354403541822V517.6904522556466H582.1459402156864V488.4354403541822L465.4009521171508 478.6704046497891L446.38090451129324 475.6704046497891Z" fill="#4A4946" transform="translate(553.361 36.000) scale(0.031000 -0.031000)"/>
  <path d="M42.95990478828492 0V28.02004760585754L152.4298333794986 38.765035704393156H186.47553556589733L292.49558317175484 28.02004760585754V0ZM124.83961915313968 0Q125.83961915313968 24.51002380292877 126.7121132024075 65.52004760585754Q127.5846072516753 106.53007140878631 128.0846072516753 151.04009521171508Q128.5846072516753 195.55011901464385 128.5846072516753 229.06014281757263V290.4354403541822Q128.5846072516753 341.1804284527179 127.7121132024075 381.7578153888062Q126.83961915313968 422.33520232489457 124.83961915313968 459.57016662050137L36.684845280962996 463.8452261278233V489.33520232489457L204.85083310250695 529.9655117629685L217.10584500397133 521.7104998615042L214.59582120104255 380.82517852196577V229.06014281757263Q214.59582120104255 195.55011901464385 215.09582120104255 151.04009521171508Q215.59582120104255 106.53007140878631 216.22332715177475 65.52004760585754Q216.85083310250695 24.51002380292877 217.85083310250695 0ZM163.86527373368085 655Q139.29510711317945 655 121.98997619707123 670.9226130639117Q104.684845280963 686.8452261278234 104.684845280963 712.6704046497891Q104.684845280963 737.9855593688261 121.98997619707123 754.2806664820056Q139.29510711317945 770.5757735951851 163.86527373368085 770.5757735951851Q187.94546415711102 770.5757735951851 205.86807722102267 754.2806664820056Q223.79069028493433 737.9855593688261 223.79069028493433 712.6704046497891Q223.79069028493433 686.8452261278234 205.86807722102267 670.9226130639117Q187.94546415711102 655 163.86527373368085 655Z" fill="#4A4946" transform="translate(572.303 36.000) scale(0.031000 -0.031000)"/>
  <path d="M34.48997619707123 0V28.02004760585754L150.93985718242737 38.765035704393156H185.24057127029047L302.7305474673617 28.02004760585754V0ZM123.34964295606845 0Q124.34964295606845 31.785083310250695 124.84964295606845 71.16760116244727Q125.34964295606845 110.55011901464385 125.84964295606845 151.92261306391165Q126.34964295606845 193.29510711317945 126.34964295606845 229.06014281757263V744.0400952117151L39.19486908389177 748.5501190146439V775.5501190146439L201.36085690543572 806.630309438074L216.36085690543572 797.630309438074L213.10584500397133 641.8452261278234V229.06014281757263Q213.10584500397133 193.29510711317945 213.60584500397133 151.92261306391165Q214.10584500397133 110.55011901464385 214.73335095470352 71.16760116244727Q215.36085690543572 31.785083310250695 216.36085690543572 0Z" fill="#4A4946" transform="translate(582.625 36.000) scale(0.031000 -0.031000)"/>
  <path d="M34.48997619707123 0V28.02004760585754L150.93985718242737 38.765035704393156H185.24057127029047L302.7305474673617 28.02004760585754V0ZM123.34964295606845 0Q124.34964295606845 31.785083310250695 124.84964295606845 71.16760116244727Q125.34964295606845 110.55011901464385 125.84964295606845 151.92261306391165Q126.34964295606845 193.29510711317945 126.34964295606845 229.06014281757263V744.0400952117151L39.19486908389177 748.5501190146439V775.5501190146439L201.36085690543572 806.630309438074L216.36085690543572 797.630309438074L213.10584500397133 641.8452261278234V229.06014281757263Q213.10584500397133 193.29510711317945 213.60584500397133 151.92261306391165Q214.10584500397133 110.55011901464385 214.73335095470352 71.16760116244727Q215.36085690543572 31.785083310250695 216.36085690543572 0Z" fill="#4A4946" transform="translate(593.042 36.000) scale(0.031000 -0.031000)"/>
  <path d="M222.35524993075208 -14.765035704393155Q173.29510711317945 -14.765035704393155 133.86247024633903 -4.5Q94.42983337949862 5.765035704393155 53.40978577364107 25.550119014643847L53.95990478828492 145.1603808468603H98.59021422635892L122.90536894539594 18.275059507321924L85.29510711317947 20.805130916108233V56.80513091610823Q114.08019042343015 37.78508331025069 144.82517852196577 27.6575773595185Q175.5701666205014 17.53007140878631 219.04009521171508 17.53007140878631Q284.97995239414246 17.53007140878631 318.4599047882849 43.98997619707123Q351.9398571824274 70.44988098535615 351.9398571824274 112.93985718242737Q351.9398571824274 149.40978577364106 329.4599047882849 172.7822798229089Q306.97995239414246 196.1547738721767 245.48997619707123 215.38973816778352L193.44988098535615 234.38973816778352Q132.40978577364106 255.87971436485475 96.64475006924792 290.66479767510543Q60.87971436485476 325.4498809853562 60.87971436485476 382Q60.87971436485476 446.1002380292877 109.94988098535615 489.2778629946638Q159.02004760585754 532.4554879600398 250.39534514246716 532.4554879600398Q295.9254165512535 532.4554879600398 331.46551176296856 521.7004760585754Q367.00560697468364 510.945464157111 405.0457021863987 488.2004760585754L401.0256545805412 380.08019042343017H360.4153927483247L335.27505950732194 497.75059507321924L367.630309438074 491.6704046497891V459.4354403541822Q336.8853213395384 480.9254165512535 309.41539274832473 490.2979106005213Q281.945464157111 499.6704046497891 250.67040464978908 499.6704046497891Q194.24057127029047 499.6704046497891 165.12308912248704 474.8179582063788Q136.00560697468364 449.96551176296856 136.00560697468364 410.4755355658973Q136.00560697468364 374.53567838346993 159.7305474673617 352.03567838346993Q183.4554879600398 329.53567838346993 238.47553556589733 311.0457021863987L289.28066648200553 293.0457021863987Q365.30071408786307 266.81073789079187 397.575773595185 230.5256545805412Q429.85083310250695 194.24057127029047 429.85083310250695 141.18042845271785Q429.85083310250695 97.33520232489454 406.31073789079187 61.79510711317946Q382.7706426790768 26.255011901464385 336.83800581223636 5.744988098535615Q290.90536894539594 -14.765035704393155 222.35524993075208 -14.765035704393155Z" fill="#4A4946" transform="translate(603.457 36.000) scale(0.031000 -0.031000)"/>
  <path d="M179.38973816778352 -27.180428452717855Q176.369690561926 -59.2004760585754 153.95710130094312 -99.95548796003978Q131.5445120399602 -140.71049986150416 74.01444063117391 -172.4554879600398L89.52446443410268 -198.75059507321924Q142.85966675899724 -172.9855593688261 173.41980957656983 -135.18042845271788Q203.97995239414246 -97.37529753660962 216.76503570439314 -55.05011901464385Q229.55011901464385 -12.724940492678076 229.55011901464385 24.610261832216466Q229.55011901464385 66.71049986150416 209.47995239414246 93.6030415166295Q189.40978577364106 120.49558317175486 153.62470246339038 120.49558317175486Q121.79952394142461 120.49558317175486 104.6118751731198 101.43544035418225Q87.42422640481499 82.37529753660962 87.42422640481499 57.29510711317946Q87.42422640481499 31.46992859121369 101.47434541945884 15.419809576569842Q115.52446443410268 -0.6303094380740077 137.20208939947872 -10.277862994663739Q158.87971436485475 -19.92541655125347 179.38973816778352 -27.180428452717855Z" fill="#4A4946" transform="translate(618.183 36.000) scale(0.031000 -0.031000)"/>
  <path d="M413.51002380292874 743.0200476058575V774.6704046497891V776.6704046497891L493.48114254058095 743.0200476058575H481.22613063911655V57.830785496649405Q481.22613063911655 35.34080929957817 494.84361278691995 25.978339053239132Q508.4610949347234 16.6158688069001 555.3608569054358 16.6158688069001H704.6503570439315Q757.2349642956068 16.6158688069001 793.8997619707122 17.488362856167907Q830.5645596458178 18.360856905435714 846.7995239414246 20.10584500397133Q858.054535842889 21.10584500397133 864.7020893994787 24.60584500397133Q871.3496429560685 28.10584500397133 875.369690561926 35.36085690543571Q882.644750069248 48.615868806900096 892.5573393302309 87.20327954591721Q902.4699285912137 125.79069028493433 913.5100238029288 178.75059507321924H926.4899761970712L929 29.87088070836448Q949.8251785219658 23.830785496649405 957.355249930752 16.53567838346994Q964.8853213395383 9.240571270290475 964.8853213395383 -1.3095477443533738Q964.8853213395383 -14.879714364854763 953.8752975366097 -24.42983337949861Q942.8652737336809 -33.97995239414246 914.6002380292878 -39.14755355658973Q886.3352023248946 -44.315154719037004 834.9526844726979 -46.83520232489454Q783.5701666205014 -49.35524993075208 702.0801904234302 -49.35524993075208H549.0256545805412Q497.6904522556466 -49.35524993075208 467.7578153888062 -41.590214226358924Q437.82517852196577 -33.825178521965775 425.6676011624472 -13.765035704393156Q413.51002380292874 6.295107113179464 413.51002380292874 42.670404649789084ZM449.55572598932747 743.0200476058575H836.3640835872424L868.7794763355671 784.2405712702905L951.8652737336809 720.7650357043932Q947.6102618322165 714.7650357043932 938.1102618322165 710.0100238029288Q928.6102618322165 705.2550119014644 913.355249930752 703.2550119014644V326.7850833102507Q913.355249930752 322.02004760585754 897.0100238029288 313.23496429560686Q880.6647976751054 304.4498809853562 856.2093097150657 304.4498809853562H844.8741073901712V713.5300714087863H449.55572598932747ZM632.0745834487466 743.0200476058575H698.7505950732193V393.1547738721767H632.0745834487466ZM449.28066648200553 409.4097857736411H871.5846072516753V379.91980957656983H449.28066648200553ZM39.64475006924792 622.7650357043932H294.1146786604616L335.9599047882849 680.2405712702905Q335.9599047882849 680.2405712702905 343.85244644341026 673.5930177137008Q351.7449880985356 666.945464157111 363.89254165512534 656.0328748961281Q376.0400952117151 645.1202856351453 389.1876487683048 632.8352023248946Q402.33520232489457 620.5501190146439 412.8452261278233 609.2750595073219Q409.5902142263589 593.2750595073219 387.33520232489457 593.2750595073219H47.64475006924792ZM193.18926210920813 838.8652737336809 297.39534514246714 828.0801904234302Q295.65035704393154 817.8251785219658 287.15035704393154 810.3251785219658Q278.65035704393154 802.8251785219658 260.39534514246714 800.5701666205014V20.00560697468363Q260.39534514246714 -7.369690561925992 253.99277968441305 -27.82237503462396Q247.59021422635894 -48.27505950732193 226.2550119014644 -60.815154719037004Q204.91980957656983 -73.35524993075208 160.24940492678076 -78.61026183221647Q159.24940492678076 -62.255011901464385 154.87691087751296 -49.0573393302308Q150.50441682824513 -35.85966675899722 141.24940492678076 -27.309547744353374Q131.50441682824513 -18.269452532638294 113.7694525326383 -12.611875173119792Q96.03448823703145 -6.95429781360129 67.01444063117391 -2.9342502077437516V13.04570218639871Q67.01444063117391 13.04570218639871 80.50441682824514 12.04570218639871Q93.99439302531637 11.04570218639871 112.48436922238761 9.800714087863096Q130.97434541945884 8.55572598932748 148.09182756726227 7.555725989327479Q165.20930971506567 6.555725989327479 171.46432161653007 6.555725989327479Q184.6992859121369 6.555725989327479 188.94427401067253 10.800714087863096Q193.18926210920813 15.04570218639871 193.18926210920813 26.025654580541172ZM33.11467866046161 326.206083033259Q65.36969056192599 333.18603542740146 123.03729172437326 347.7734461664186Q180.70489288682055 362.3608569054357 254.2550119014644 382.938243841524Q327.8051309161082 403.5156307776124 405.33520232489457 425.22052366443296L409.57016662050137 411.00560697468364Q355.61026183221645 384.45548796003976 277.4727320785555 346.0028034873418Q199.33520232489454 307.5501190146438 95.25501190146439 261.1948690838918Q90.23496429560684 242.91980957656983 73.44988098535615 236.4298333794986Z" fill="#4A4946" transform="translate(331.500 75.000) scale(0.033000 -0.033000)"/>
  <path d="M372.5156307776124 794.4498809853561Q368.5156307776124 786.1948690838917 358.760618876148 781.1948690838917Q349.00560697468364 776.1948690838917 332.75059507321924 778.9398571824274Q282.4153927483247 682.8396191531397 212.58019042343017 609.2020893994787Q142.74498809853563 535.5645596458178 65.36969056192599 490.54451203996024L53.389738167783534 503.0144406311739Q94.1146786604616 540.0745834487466 134.46712510387187 592.144750069248Q174.81957154728215 644.2149166897493 210.04451203996024 707.0300714087864Q245.2694525326383 769.8452261278234 269.739381123852 838.3953451424671ZM803.9599047882849 783.8307854966494Q803.9599047882849 783.8307854966494 813.1174821478035 776.6832319400596Q822.2750595073219 769.53567838347 836.8251785219658 758.3781010239514Q851.3752975366097 747.2205236644329 867.1804284527179 734.30793440345Q882.9855593688261 721.3953451424671 896.2806664820056 708.8652737336809Q892.2806664820056 692.8652737336809 870.260618876148 692.8652737336809H248.18042845271785V722.355249930752H755.2694525326383ZM326.8051309161082 238.21491668974932Q367.08019042343017 177.2750595073219 430.13030943807405 134.46270827562674Q493.1804284527179 91.65035704393155 574.5930177137008 63.83800581223636Q656.0056069746836 36.02565458054117 751.623089122487 20.703279545917212Q847.2405712702905 5.380904511293252 952.1603808468603 -0.5790002769916676L951.4153927483247 -12.834012178456053Q927.7650357043932 -17.89415499602867 912.322375034624 -34.77947633556706Q896.8797143648547 -51.664797675105454 891.3496429560685 -78.1002380292877Q754.1948690838917 -60.335202324894546 642.1174821478035 -25.452684472697968Q530.0400952117151 9.42983337949861 447.0601428175726 70.56736313315957Q364.08019042343017 131.70489288682055 311.8452261278233 227.23496429560686ZM678.2694525326383 256.27505950732194 729.5100238029288 298.7305474673617 802.5958212010426 226.91980957656983Q795.850833102507 220.8997619707123 786.2233271517748 218.6447500692479Q776.5958212010426 216.38973816778352 756.5958212010426 215.87971436485475Q688.0256545805412 127.07458344874652 586.6704046497891 66.30954774435337Q485.315154719037 5.544512039960219 354.3323988375528 -30.052922501985666Q223.34964295606846 -65.65035704393155 64.52446443410268 -79.59021422635892L59.28950013849583 -62.12028563514524Q204.52446443410267 -38.100238029287695 328.03448823703144 2.8023274287664215Q451.54451203996024 43.70489288682054 544.4270298921568 106.60745834487466Q637.3095477443534 169.51002380292877 690.2895001384958 256.27505950732194ZM721.9599047882849 256.27505950732194V226.78508331025068H309.3552499307521L337.8452261278233 256.27505950732194ZM690.4041787989574 609.1202856351453 726.5846072516753 647.8307854966494 804.2004760585754 588.0601428175726Q800.2004760585754 583.0601428175726 790.7004760585754 578.0501190146438Q781.2004760585754 573.0400952117151 768.9254165512534 571.5300714087863V342.90536894539594Q768.9254165512534 339.90536894539594 758.855249930752 334.6403332410028Q748.7850833102507 329.37529753660965 735.3123512316952 325.2377677829487Q721.8396191531397 321.1002380292877 709.7594287297095 321.1002380292877H698.9142026018862V609.1202856351453ZM307.4610949347234 336.2004760585754Q307.4610949347234 333.1804284527179 298.64594021568644 327.5228510931994Q289.8307854966494 321.86527373368085 276.7305474673617 317.59021422635897Q263.630309438074 313.315154719037 248.5300714087863 313.315154719037H238.21491668974932V609.1202856351453V642.2806664820056L312.9711187376522 609.1202856351453H739.9198095765698V579.630309438074H307.4610949347234ZM442.00560697468364 310.4097857736411Q438.260618876148 303.4097857736411 430.260618876148 299.7722560199801Q422.260618876148 296.13472626631915 405.00560697468364 298.62470246339035Q377.7305474673617 256.8596667589972 334.83800581223636 212.4871727097294Q291.945464157111 168.1146786604616 238.55292250198568 128.37971436485475Q185.1603808468603 88.64475006924792 123.8853213395384 60.664797675105454L113.90536894539594 74.13472626631915Q164.59021422635894 108.93985718242737 209.63752975366097 156.1174821478034Q254.684845280963 203.29510711317945 290.3596667589972 254.70769637416237Q326.03448823703144 306.12028563514525 345.739381123852 352.37529753660965ZM731.5645596458178 380.8452261278233V351.3552499307521H276.260618876148V380.8452261278233ZM731.5645596458178 495.3552499307521V465.86527373368085H276.260618876148V495.3552499307521Z" fill="#4A4946" transform="translate(364.500 75.000) scale(0.033000 -0.033000)"/>
  <path d="M570.2806664820056 447Q566.53567838347 425.7449880985356 534.7906902849343 421.7449880985356V24.280666482005554Q534.7906902849343 -4.604654857532838 527.5056069746836 -26.067363133159574Q520.2205236644329 -47.53007140878631 495.7477915858774 -60.45268447269797Q471.27505950732194 -73.37529753660962 419.5846072516753 -78.8853213395384Q416.83961915313967 -61.51002380292877 411.46712510387187 -48.30232742876642Q406.09463105460406 -35.094631054604065 394.5846072516753 -27.034488237031447Q382.5846072516753 -17.4843692223876 360.732160808265 -10.699285912136904Q338.87971436485475 -3.9142026018862097 301.60465485753286 0.8508331025069431V16.57577359518502Q301.60465485753286 16.57577359518502 319.22213700533626 15.203279545917212Q336.83961915313967 13.830785496649405 361.82959535021087 12.458291447381598Q386.8195715472821 11.08579739811379 408.8095477443534 9.713303348845981Q430.7995239414246 8.340809299578172 438.7995239414246 8.340809299578172Q453.2694525326383 8.340809299578172 458.38693468044175 12.958291447381596Q463.50441682824516 17.57577359518502 463.50441682824516 29.300714087863092V458.27505950732194ZM371.1804284527179 191.17482147803423Q367.1804284527179 184.17482147803423 359.0529225019857 180.79230362583763Q350.9254165512535 177.40978577364106 333.9254165512535 180.8997619707123Q305.86527373368085 144.62470246339038 263.5601428175726 103.99719651265818Q221.25501190146437 63.36969056192599 170.56736313315957 25.13472626631915Q119.87971436485476 -13.100238029287699 64.79952394142461 -42.08019042343016L53.819571547282145 -29.1002380292877Q99.07458344874652 7.194869083891766 142.18204179362118 54.25501190146438Q185.28950013849584 101.315154719037 220.88693468044173 150.24779158587742Q256.4843692223876 199.18042845271785 277.2093097150657 240.71049986150416ZM636.9599047882849 227.630309438074Q720.0801904234302 197.9855593688261 774.7578153888062 164.87810102395144Q829.4354403541822 131.7706426790768 860.30793440345 100.3580534180939Q891.1804284527178 68.94546415711102 902.3853213395385 42.14033324100278Q913.590214226359 15.335202324894542 909.637529753661 -2.214916689749307Q905.684845280963 -19.765035704393156 890.2121132024075 -24.775059507321927Q874.739381123852 -29.785083310250695 853.3841311930998 -18.46992859121369Q838.8941549960286 9.315154719037004 812.9342502077437 41.20769637416235Q786.9743454194588 73.1002380292877 754.7794763355671 105.48275588148428Q722.5846072516753 137.86527373368085 689.2622322170514 166.87529753660962Q655.9398571824274 195.8853213395384 625.9799523941425 217.90536894539594ZM844.8797143648547 385.7906902849343Q844.8797143648547 385.7906902849343 854.7822798229089 378.1431367283446Q864.684845280963 370.49558317175484 880.4799523941424 357.9655117629685Q896.2750595073219 345.4354403541822 913.5701666205014 331.52285109319934Q930.8652737336809 317.61026183221645 945.3953451424671 304.33520232489457Q941.3953451424671 288.33520232489457 917.8853213395383 288.33520232489457H71.60465485753284L62.85966675899722 317.82517852196577H790.9743454194588ZM639.8195715472822 711.0601428175726 677.2550119014644 751.260618876148 751.0256545805412 687.0801904234302Q747.0256545805412 682.5701666205014 738.4081724327377 678.9426606697691Q729.7906902849343 675.315154719037 716.3007140878631 673.315154719037V495.38090451129324Q716.3007140878631 487.38090451129324 721.1631843342021 484.38090451129324Q726.0256545805412 481.38090451129324 744.7305474673617 481.38090451129324H811.5701666205014Q831.2550119014644 481.38090451129324 848.2048928868205 481.75339856056104Q865.1547738721766 482.12589260982884 871.644750069248 483.12589260982884Q883.1547738721766 483.12589260982884 887.1748214780342 492.63591641275764Q892.9398571824274 502.14594021568644 900.0974345419459 531.2634223634898Q907.2550119014644 560.3809045112932 915.0601428175726 594.4209997230083H928.0400952117151L930.7850833102507 490.12589260982884Q946.590214226359 484.34080929957815 951.2277439800199 477.80071408786307Q955.8652737336809 471.260618876148 955.8652737336809 461.71049986150416Q955.8652737336809 447.1403332410028 943.7076963741624 438.3452261278233Q931.5501190146439 429.5501190146438 899.2650357043932 425.5300714087863Q866.9799523941425 421.51002380292874 806.7249404926781 421.51002380292874H727.8051309161083Q694.7048928868205 421.51002380292874 677.409785773641 427.2850833102507Q660.1146786604617 433.0601428175726 654.4771489068007 446.62028563514525Q648.8396191531397 460.1804284527179 648.8396191531397 483.0457021863987V711.0601428175726ZM471.260618876148 827.355249930752Q470.260618876148 818.1002380292877 462.63311292541584 811.4727320785555Q455.00560697468364 804.8452261278234 438.75059507321924 802.8452261278234Q435.49558317175484 750.5300714087863 429.61306531955825 699.6174821478035Q423.7305474673617 648.7048928868205 405.46551176296856 600.5673631331596Q387.2004760585754 552.4298333794986 348.17040464978913 508.3123512316952Q309.1403332410028 464.1948690838918 242.33520232489457 425.2149166897493Q175.5300714087863 386.23496429560686 70.19486908389176 353.51002380292874L58.72494049267807 370.23496429560686Q148.4298333794986 405.7449880985356 205.51724411851575 446.8724940492678Q262.60465485753286 488 294.7020893994787 533.2550119014644Q326.7995239414246 578.5100238029288 340.90698228629924 627.6475535565897Q355.0144406311739 676.7850833102507 358.87691087751296 729.5601428175726Q362.739381123852 782.3352023248946 363.739381123852 837.8853213395383ZM698.8652737336809 711.0601428175726V681.5701666205014H106.8997619707123L97.8997619707123 711.0601428175726Z" fill="#4A4946" transform="translate(397.500 75.000) scale(0.033000 -0.033000)"/>
  <path d="M289.3552499307521 393.7449880985356H825.6591907004218L876.0745834487466 457.5156307776124Q876.0745834487466 457.5156307776124 885.1046548575329 450.11306531955825Q894.1347262663191 442.71049986150416 908.0573393302309 431.0428986990569Q921.9799523941425 419.37529753660965 937.5300714087864 406.08019042343017Q953.0801904234302 392.7850833102507 966.1202856351453 380.2550119014644Q964.8652737336809 372.2550119014644 957.6102618322165 368.6275059507322Q950.355249930752 365 940.1002380292877 365H297.3552499307521ZM310.33520232489457 -7.0801904234301585H801.1291192916356L851.3095477443534 57.2004760585754Q851.3095477443534 57.2004760585754 860.4671251038719 49.79791060052128Q869.6247024633903 42.395345142467164 884.0473155273021 30.6002380292877Q898.4699285912137 18.805130916108233 914.0200476058576 5.510023802928769Q929.5701666205014 -7.785083310250695 942.6102618322165 -20.57016662050139Q940.8652737336809 -27.825178521965775 933.855249930752 -31.825178521965775Q926.8452261278234 -35.825178521965775 915.8452261278234 -35.825178521965775H318.33520232489457ZM811.4843692223876 816.1603808468603 896.7104998615042 740.9542978136013Q889.6904522556466 734.4442740106725 876.2778629946638 734.1892621092081Q862.8652737336809 733.9342502077437 842.8051309161083 740.9542978136013Q777.8051309161083 722.2293573209232 691.9226130639117 703.5244644341027Q606.0400952117151 684.8195715472822 511.7850833102507 669.9971965126582Q417.5300714087863 655.1748214780342 326.7850833102507 646.4699285912137L322.5501190146438 663.9198095765698Q386.51002380292874 676.4498809853561 455.7149166897493 694.4799523941424Q524.9198095765698 712.5100238029288 591.0072203155869 733.2951071131795Q657.0946310546041 754.0801904234302 714.054535842889 775.4827558814843Q771.0144406311739 796.8853213395383 811.4843692223876 816.1603808468603ZM169.52446443410267 541.8797143648547 201.66479767510546 583.5701666205014 269.53567838346993 558.684845280963Q267.53567838346993 551.684845280963 260.1631843342021 547.0573393302309Q252.79069028493433 542.4298333794986 240.02565458054116 540.1748214780342V-55.48997619707123Q239.7706426790768 -58.255011901464385 230.83800581223636 -63.78508331025069Q221.90536894539594 -69.315154719037 209.18764876830483 -73.96270827562674Q196.4699285912137 -78.61026183221647 182.369690561926 -78.61026183221647H169.52446443410267ZM254.91420260188622 838.8652737336809 363.4755355658973 804.9599047882849Q360.22052366443296 796.4498809853561 350.96551176296856 790.4498809853561Q341.71049986150416 784.4498809853561 324.71049986150416 785.4498809853561Q290.9254165512535 693.6247024633903 247.50280348734182 609.0072203155869Q204.08019042343017 524.3897381677835 153.26503570439314 452.42983337949863Q102.44988098535615 380.4699285912137 46.094631054604065 326.48997619707126L32.11467866046161 336.4699285912137Q75.09463105460406 396.7449880985356 117.06455964581775 477.64755355658974Q159.03448823703144 558.5501190146439 194.74940492678076 651.3251785219658Q230.46432161653007 744.1002380292877 254.91420260188622 838.8652737336809ZM573.5044168282451 718.684845280963H645.2806664820056V-23.805130916108233Q645.0256545805412 -23.805130916108233 629.2979106005213 -23.805130916108233Q613.5701666205014 -23.805130916108233 585.8596667589973 -23.805130916108233H573.5044168282451Z" fill="#4A4946" transform="translate(430.500 75.000) scale(0.033000 -0.033000)"/>
  <path d="M557.7505950732193 398.9398571824274Q555.260618876148 386.1948690838918 545.5156307776124 380.68484528096303Q535.7706426790768 375.17482147803423 520.4955831717549 374.17482147803423Q511.2405712702905 296.4097857736411 485.9755355658973 226.8997619707123Q460.71049986150416 157.38973816778352 410.2979106005213 99.13472626631915Q359.8853213395384 40.87971436485476 275.19767257123357 -4.492779684413044Q190.51002380292877 -49.86527373368085 61.664797675105454 -80.1002380292877L54.42983337949861 -66.12028563514524Q169.66479767510546 -29.57016662050139 243.63472626631915 20.724940492678076Q317.60465485753286 71.02004760585754 359.8195715472822 132.66760116244728Q402.03448823703144 194.315154719037 420.62189897604856 265.677624965376Q439.2093097150657 337.0400952117151 442.6792383062794 415.23496429560686ZM727.0144406311739 279.97995239414246 767.7249404926781 321.65035704393154 846.0256545805412 256.1547738721767Q841.5156307776124 250.8997619707123 831.6431367283446 247.01724411851572Q821.7706426790768 243.13472626631915 806.5156307776124 241.87971436485475Q798.7505950732193 131.34964295606846 780.1130653195582 57.63472626631915Q761.4755355658973 -16.08019042343016 729.4153927483247 -40.59021422635893Q710.8652737336809 -55.100238029287695 683.5701666205014 -62.85524993075208Q656.2750595073219 -70.61026183221647 622.6247024633903 -70.61026183221647Q622.8797143648547 -55.765035704393156 618.9971965126582 -42.567363133159574Q615.1146786604617 -29.369690561925992 602.8396191531397 -20.07458344874653Q591.054535842889 -12.269452532638294 561.917006089228 -4.856863271655407Q532.7794763355671 2.5557259893274793 502.46432161653007 6.830785496649405V23.53567838346994Q525.9943930253164 21.53567838346994 556.2694525326383 19.163184334202132Q586.5445120399602 16.790690284934325 612.3095477443534 14.918196235666517Q638.0745834487466 13.04570218639871 648.3295953502109 13.04570218639871Q673.7995239414246 13.04570218639871 684.7995239414246 22.53567838346994Q703.2895001384958 38.260618876148015 717.0244644341026 107.29791060052128Q730.7594287297095 176.33520232489454 737.7594287297095 279.97995239414246ZM777.0745834487466 279.97995239414246V250.48997619707123H122.46992859121369L113.46992859121369 279.97995239414246ZM693.8941549960286 729.2750595073219 747.1347262663191 773.2405712702905 824.2205236644329 698.9198095765698Q817.4755355658973 692.1547738721766 807.4755355658973 690.2722560199801Q797.4755355658973 688.3897381677835 777.4755355658973 687.1347262663191Q704.9254165512534 589.8596667589973 597.7277439800198 518.1347262663191Q490.5300714087863 446.4097857736411 351.84242264048146 400.7149166897493Q213.1547738721767 355.02004760585754 45.62470246339038 333.1002380292877L39.389738167783534 349.57016662050137Q190.32959535021092 381.57016662050137 320.41700608922804 433.69767257123357Q450.50441682824516 485.82517852196577 549.6018513701911 559.6876487683048Q648.6992859121369 633.5501190146439 705.9142026018862 729.2750595073219ZM308.315154719037 699.1202856351453Q350.82517852196577 634.1403332410027 418.6002380292877 586.80793440345Q486.37529753660965 539.4755355658973 573.1503570439315 507.1631843342021Q659.9254165512534 474.85083310250695 760.4254165512534 456.2834699693474Q860.9254165512534 437.7161068361878 968.630309438074 429.26622585083163L967.8853213395383 417.7562020479029Q944.2349642956068 412.69605923033026 928.6647976751054 395.6932557429884Q913.0946310546041 378.6904522556466 906.8195715472822 351.76503570439314Q765.6247024633903 372.76503570439314 646.6748214780342 412.63752975366094Q527.7249404926781 452.51002380292874 438.0200476058576 519.2850833102507Q348.315154719037 586.0601428175726 293.1002380292877 687.3953451424671ZM465.14594021568644 812.5100238029288Q462.14594021568644 805.2550119014644 454.14594021568644 802.0Q446.14594021568644 798.7449880985356 426.63591641275764 801.2349642956068Q390.575773595185 740.9398571824274 337.13311292541584 679.684845280963Q283.6904522556466 618.4298333794986 219.23776778294865 565.9498809853562Q154.78508331025068 513.4699285912137 85.19486908389176 478L73.72494049267807 490.2149166897493Q131.44988098535615 531.4699285912137 185.04731552730203 589.9899761970712Q238.64475006924792 648.5100238029288 282.7421846111938 714.6676011624472Q326.83961915313967 780.8251785219658 353.3095477443534 844.355249930752ZM731.2895001384958 729.2750595073219V699.7850833102507H303.7048928868205L329.4498809853562 729.2750595073219Z" fill="#4A4946" transform="translate(463.500 75.000) scale(0.033000 -0.033000)"/>
  <path d="M675.9799523941425 577.5300714087863Q691.9799523941425 450.2550119014644 725.5200476058576 337.82517852196577Q759.0601428175726 225.39534514246716 819.1002380292877 136.36807722102267Q879.1403332410027 47.34080929957817 972.1403332410027 -10.854059784313591L968.8853213395383 -20.109071685777977Q944.9398571824274 -24.169214503350595 927.4771489068007 -37.917006089228025Q910.0144406311739 -51.664797675105454 901.9743454194588 -77.1002380292877Q821.5445120399602 -7.865273733680853 772.3496429560685 88.7722560199801Q723.1547738721766 185.40978577364106 697.822375034624 303.0773869360883Q672.4899761970712 420.7449880985356 660.7650357043932 550.8251785219658ZM821.4843692223876 622.1403332410027H895.9655117629685Q886.7305474673617 505.65035704393154 865.1130653195582 402.9827558814843Q843.4955831717549 300.315154719037 801.6030415166296 212.8825178521966Q759.7104998615042 125.44988098535615 691.6503570439315 52.782279822908876Q623.590214226359 -19.885321339538393 520.7249404926781 -77.37529753660962L510.7449880985356 -64.65035704393155Q595.9799523941425 -1.1002380292876985 653.6948690838917 73.5874107390171Q711.409785773641 148.2750595073219 746.4971965126581 233.95268447269797Q781.5846072516753 319.630309438074 798.7995239414246 416.7778629946637Q816.0144406311739 513.9254165512534 821.4843692223876 622.1403332410027ZM689.3095477443534 838.355249930752 797.5557259893275 816.2349642956068Q795.3007140878631 806.9799523941425 786.5457021863987 800.6074583448747Q777.7906902849343 794.2349642956068 761.53567838347 792.9799523941425Q736.9855593688261 670.9599047882849 692.945464157111 565.8624702463391Q648.9053689453959 460.76503570439314 586.590214226359 388.27505950732194L571.6102618322165 397.51002380292874Q601.0400952117151 453.2951071131795 624.7349642956069 524.3251785219658Q648.4298333794986 595.355249930752 665.1347262663191 675.4927796844131Q681.8396191531397 755.630309438074 689.3095477443534 838.355249930752ZM314.4755355658973 97.72494049267807H549.8251785219658V68.23496429560684H314.4755355658973ZM396.13472626631915 831.1403332410027 496.34080929957815 820.8652737336809Q495.34080929957815 810.8652737336809 487.96831525031035 803.9927796844131Q480.59582120104255 797.1202856351453 463.34080929957815 794.8652737336809V350.90536894539594H396.13472626631915ZM238.80513091610823 608.2750595073219H523.5100238029288L567.590214226359 665.7104998615042Q567.590214226359 665.7104998615042 580.8652737336809 654.0529225019857Q594.1403332410027 642.3953451424671 612.7979106005213 626.2277439800198Q631.4554879600398 610.0601428175726 646.2205236644329 594.7850833102507Q644.4755355658973 586.7850833102507 638.0930177137008 582.7850833102507Q631.7104998615042 578.7850833102507 620.9655117629685 578.7850833102507H246.06014281757263ZM290.9398571824274 369.1002380292877V399.7305474673617L359.3207616937206 369.1002380292877H553.7048928868205V339.61026183221645H354.575773595185V-5.429833379498612Q354.575773595185 -8.44988098535615 346.65316053127333 -13.724940492678076Q338.7305474673617 -19 326.77786299466374 -23.147553556589735Q314.82517852196577 -27.295107113179466 301.48997619707126 -27.295107113179466H290.9398571824274ZM136.24940492678076 541.8797143648547 165.85966675899724 581.2750595073219 232.69045225564662 556.8997619707123Q230.43544035418225 549.8997619707123 222.93544035418225 545.2722560199802Q215.43544035418225 540.644750069248 202.18042845271785 538.644750069248V-57.02004760585754Q202.18042845271785 -59.53007140878631 193.5028034873418 -64.67762496537604Q184.82517852196577 -69.82517852196577 172.7449880985356 -74.21772017709111Q160.66479767510546 -78.61026183221647 148.32959535021092 -78.61026183221647H136.24940492678076ZM195.40417879895745 838.6102618322165 300.630309438074 808.1948690838917Q295.37529753660965 787.1948690838917 262.86527373368085 787.1948690838917Q237.8452261278233 700.8797143648547 204.315154719037 617.7522084141226Q170.78508331025068 534.6247024633903 130.36247024633903 462.1447500692479Q89.93985718242737 389.66479767510543 43.604654857532836 333.17482147803423L29.369690561925992 342.4097857736411Q63.094631054604065 404.9398571824274 94.06455964581775 485.85244644341026Q125.03448823703145 566.7650357043932 151.49439302531638 657.5501190146439Q177.9542978136013 748.3352023248946 195.40417879895745 838.6102618322165ZM689.5501190146439 622.8853213395383H844.3095477443534L890.4298333794986 683.3809045112932Q890.4298333794986 683.3809045112932 898.5773869360884 676.1058450039714Q906.7249404926781 668.8307854966494 919.5100238029288 657.9181962356665Q932.2951071131795 647.0056069746836 946.4526844726979 633.9655117629685Q960.6102618322165 620.9254165512534 971.8853213395383 609.3953451424671Q968.1403332410027 593.3953451424671 946.3752975366097 593.3953451424671H689.5501190146439ZM507.369690561926 369.1002380292877H511.9398571824274L544.315154719037 404.9855593688261L608.260618876148 345.7850833102507Q597.0056069746836 332.5300714087863 572.260618876148 328.0400952117151V30.53007140878631Q571.5156307776124 28.275059507321924 563.8480296151652 23.255011901464385Q556.1804284527178 18.234964295606844 544.4827558814843 13.842422640481498Q532.7850833102507 9.44988098535615 519.9398571824274 9.44988098535615H507.369690561926Z" fill="#4A4946" transform="translate(496.500 75.000) scale(0.033000 -0.033000)"/>
  <path d="M832.149166897493 680 878.0745834487466 725.9254165512534 960.355249930752 646.9198095765698Q955.1002380292877 642.1547738721766 945.855249930752 640.3997619707122Q936.6102618322165 638.644750069248 921.355249930752 637.644750069248Q899.5501190146439 611.1547738721766 864.1074583448747 579.2923036258376Q828.6647976751054 547.4298333794986 798.3496429560685 525.4498809853561L785.3897381677835 532.9398571824274Q795.6046548575329 553.7048928868205 806.8095477443534 580.3424226404816Q818.0144406311739 606.9799523941425 827.8468394687266 633.8624702463391Q837.6792383062793 660.7449880985356 843.149166897493 680ZM169.51002380292877 733.315154719037Q187.08019042343017 677.0200476058575 183.74779158587745 634.3424226404815Q180.4153927483247 591.6647976751054 164.67040464978908 563.6146786604615Q148.92541655125348 535.5645596458178 127.8853213395384 521.5445120399602Q114.84522612782331 512.5244644341027 98.78508331025068 509.7995239414246Q82.72494049267807 507.0745834487465 69.41980957656983 512.3897381677835Q56.11467866046161 517.7048928868205 49.604654857532836 531.0400952117151Q43.329595350210916 549.6704046497891 52.389738167783534 565.4955831717549Q61.44988098535615 581.3207616937207 79.04009521171508 590.850833102507Q98.76503570439316 601.8307854966494 116.63752975366097 622.9181962356665Q134.51002380292877 644.0056069746836 144.77505950732194 672.5729701078432Q155.04009521171508 701.1403332410027 152.55011901464385 732.5701666205014ZM865.3496429560685 680V650.5100238029288H157.5300714087863V680ZM434.99439302531636 840.0801904234302Q486.72494049267806 830.1804284527178 517.090214226359 812.3179582063788Q547.4554879600398 794.4554879600398 560.4855593688261 773.7878867975926Q573.5156307776124 753.1202856351453 573.1030415166294 734.5601428175726Q572.6904522556466 716 562.4827558814843 703.5773869360883Q552.2750595073219 691.1547738721766 536.0372917243733 689.2822798229088Q519.7995239414246 687.409785773641 500.93425020774373 700.7449880985356Q496.71933351799447 735.2951071131795 474.13192277897735 772.6876487683048Q451.54451203996024 810.0801904234302 424.77947633556704 832.8452261278234ZM628.8107378907919 342.76503570439314Q628.8107378907919 334.02004760585754 628.8107378907919 325.7550119014644Q628.8107378907919 317.48997619707126 628.8107378907919 311.23496429560686V33.34080929957817Q628.8107378907919 21.850833102506943 635.8007140878631 17.350833102506943Q642.7906902849343 12.850833102506943 671.9655117629685 12.850833102506943H774.2951071131795Q808.4298333794986 12.850833102506943 833.9871727097294 13.350833102506943Q859.5445120399602 13.850833102506943 870.2895001384958 14.595821201042558Q879.5445120399602 15.595821201042558 883.554535842889 18.595821201042558Q887.5645596458178 21.595821201042558 890.5846072516753 28.850833102506943Q896.8596667589973 42.105845003971325 905.3897381677835 79.44826764445283Q913.9198095765698 116.79069028493433 923.2349642956068 162.3007140878631H935.9599047882849L938.2149166897493 23.595821201042558Q955.7850833102507 17.810737890791863 961.677624965376 10.888124826880208Q967.5701666205014 3.9655117629685517 967.5701666205014 -7.094631054604068Q967.5701666205014 -22.42983337949861 952.7951071131795 -32.11748214780342Q938.0200476058575 -41.80513091610823 895.862470246339 -46.46270827562674Q853.7048928868205 -51.12028563514524 771.9398571824274 -51.12028563514524H660.0601428175726Q618.7048928868205 -51.12028563514524 597.0272679214445 -44.84522612782331Q575.3496429560685 -38.57016662050139 567.3295953502109 -23.127505950732193Q559.3095477443534 -7.684845280962996 559.3095477443534 18.94546415711101V342.76503570439314ZM421.90536894539594 343.2550119014644Q416.16038084686033 287.2149166897493 406.2878867975925 236.5573393302308Q396.4153927483247 185.8997619707123 374.77786299466374 139.87971436485475Q353.1403332410028 93.85966675899722 313.4827558814843 54.104654857532836Q273.82517852196577 14.349642956068454 209.52004760585754 -19.512827290270586Q145.21491668974932 -53.37529753660962 48.62470246339038 -80.84522612782331L38.64475006924792 -65.86527373368085Q136.85966675899724 -25.590214226358928 195.81957154728215 20.802327428766418Q254.77947633556707 67.19486908389176 285.36688707458416 119.20489288682055Q315.9542978136013 171.21491668974932 327.5517323555472 227.3524464434103Q339.14916689749305 283.48997619707126 343.3841311930999 343.2550119014644ZM693.7594287297095 572.9053689453959Q693.7594287297095 572.9053689453959 708.7995239414246 561.8752975366097Q723.8396191531397 550.8452261278234 744.2722560199801 535.0501190146439Q764.7048928868205 519.2550119014644 781.7449880985356 503.72494049267806Q778.4899761970712 487.72494049267806 755.2349642956068 487.72494049267806H224.76503570439314L216.76503570439314 517.2149166897493H646.1291192916356ZM840.409785773641 407.945464157111Q840.409785773641 407.945464157111 849.6848452809629 401.0529225019857Q858.9599047882849 394.16038084686033 873.2449880985356 383.5028034873418Q887.5300714087863 372.8452261278233 903.0701666205014 360.31515471903697Q918.6102618322165 347.7850833102507 932.1403332410027 335.76503570439314Q928.8853213395383 319.76503570439314 906.3752975366097 319.76503570439314H92.1146786604616L83.36969056192599 349.2550119014644H790.7794763355671Z" fill="#4A4946" transform="translate(529.500 75.000) scale(0.033000 -0.033000)"/>
  <path d="M44.174821478034225 -24.315154719037004H818.6992859121369L866.8396191531397 36.12028563514524Q866.8396191531397 36.12028563514524 875.6146786604615 29.227743980019888Q884.3897381677835 22.335202324894542 898.4298333794986 10.932636866840426Q912.4699285912137 -0.46992859121369057 927.637529753661 -13.127505950732193Q942.8051309161083 -25.785083310250695 955.590214226359 -37.06014281757262Q951.590214226359 -53.06014281757262 928.8251785219658 -53.06014281757262H52.91980957656984ZM47.93985718242738 753.7850833102507H410.09463105460406L453.1948690838918 806.4153927483247Q453.1948690838918 806.4153927483247 466.7249404926781 795.8953451424672Q480.2550119014644 785.3752975366097 499.1676011624473 769.9727320785555Q518.0801904234302 754.5701666205014 532.8652737336809 740.2951071131795Q528.8652737336809 724.2951071131795 506.61026183221645 724.2951071131795H55.93985718242738ZM110.62470246339038 261.02004760585754H753.1892621092081L799.3095477443534 317.9254165512535Q799.3095477443534 317.9254165512535 813.7221370053362 306.65035704393154Q828.1347262663191 295.37529753660965 848.4298333794986 279.09021422635897Q868.7249404926781 262.8051309161082 884.7650357043932 247.5300714087863Q880.7650357043932 232.2750595073219 858.2550119014644 232.2750595073219H119.36969056192599ZM465.50441682824516 257.7850833102507H533.9855593688261V-40.100238029287695H465.50441682824516ZM504.5902142263589 128.21491668974932H705.0745834487466L752.4498809853561 186.14033324100276Q752.4498809853561 186.14033324100276 761.0974345419459 179.24779158587742Q769.7449880985356 172.35524993075208 782.7850833102507 161.95268447269797Q795.8251785219658 151.55011901464385 810.7377677829486 139.14755355658974Q825.6503570439315 126.74498809853561 837.4354403541822 114.72494049267807Q835.6704046497891 99.46992859121369 811.6704046497891 99.46992859121369H504.5902142263589ZM242.93425020774376 172.08019042343017 343.65035704393154 162.06014281757263Q342.65035704393154 152.06014281757263 335.40536894539594 145.56014281757263Q328.16038084686033 139.06014281757263 310.65035704393154 136.06014281757263V-38.825178521965775H242.93425020774376ZM123.02004760585754 542.5501190146439H447.77947633556704V513.0601428175726H123.02004760585754ZM241.50441682824513 538.8251785219658H312.4153927483247V522.8251785219658Q269.65035704393154 449.7850833102507 199.57016662050137 391.7850833102507Q129.48997619707123 333.7850833102507 40.389738167783534 293.0400952117151L30.8997619707123 309.27505950732194Q100.36969056192599 353.5300714087863 154.82959535021092 413.177624965376Q209.28950013849584 472.82517852196577 241.50441682824513 538.8251785219658ZM805.4242264048149 696.9799523941425H884.1603808468603Q845.1804284527178 546 744.4927796844131 450.7449880985356Q643.8051309161083 355.48997619707126 469.4699285912137 303.27505950732194L462.48997619707126 317.2550119014644Q611.644750069248 380.02004760585754 694.8195715472822 473.41258926098294Q777.9943930253164 566.8051309161083 805.4242264048149 696.9799523941425ZM248.77947633556707 842.8452261278234 348.39534514246714 832.5701666205014Q347.39534514246714 822.8251785219658 339.40536894539594 815.9526844726979Q331.4153927483247 809.0801904234302 312.9254165512535 806.3352023248946V314.57016662050137Q312.9254165512535 310.315154719037 305.2477915858774 305.2951071131795Q297.57016662050137 300.27505950732194 285.7449880985356 296.5100238029288Q273.91980957656983 292.7449880985356 262.09463105460406 292.7449880985356H248.77947633556707ZM313.71049986150416 482.5501190146438Q368.7706426790768 477.3552499307521 404.90817243273773 463.7377677829487Q441.0457021863987 450.12028563514525 460.5256545805412 433.1002380292877Q480.00560697468364 416.08019042343017 486.08299391077196 399.4226130639116Q492.16038084686033 382.76503570439314 487.4727320785555 370.61748214780346Q482.7850833102507 358.4699285912137 469.84242264048146 353.9699285912137Q456.8997619707123 349.4699285912137 439.5846072516753 357.02004760585754Q428.369690561926 377.7850833102507 405.68484528096303 399.2951071131795Q383 420.8051309161082 356.32517852196577 440.1876487683048Q329.65035704393154 459.57016662050137 304.96551176296856 472.08019042343017ZM615.2550119014644 678.4298333794986Q644.9799523941425 603.5100238029288 691.1275059507323 542.2377677829487Q737.2750595073219 480.96551176296856 806.677624965376 436.1932557429884Q876.0801904234302 391.4209997230083 973.0801904234302 364.7562020479029L970.590214226359 353.7562020479029Q950.7048928868205 348.9310235259371 937.4198095765698 334.93824384152407Q924.1347262663191 320.945464157111 919.1347262663191 297.02004760585754Q829.644750069248 333.23496429560686 769.0473155273021 385.9699285912137Q708.4498809853561 438.7048928868205 668.9799523941424 507.3323988375527Q629.5100238029288 575.9599047882849 602.5300714087863 657.4699285912137ZM89.81957154728214 661.8251785219658V691.1804284527178L155.65035704393154 661.8251785219658H448.5244644341027V633.0801904234302H150.65035704393154V500.39534514246714Q150.65035704393154 497.8853213395384 142.85524993075208 492.86527373368085Q135.06014281757263 487.8452261278233 123.24498809853563 484.45268447269797Q111.42983337949862 481.0601428175726 98.85966675899722 481.0601428175726H89.81957154728214ZM414.8195715472821 661.8251785219658H406.8195715472821L438.42983337949863 695.1804284527178L507.630309438074 642.2951071131795Q504.630309438074 638.2951071131795 495.767839191735 633.9226130639117Q486.90536894539594 629.5501190146439 475.90536894539594 627.5501190146439V507.6904522556466Q475.90536894539594 504.4354403541822 466.86527373368085 499.1704046497891Q457.82517852196577 493.90536894539594 446.13752975366094 490.0128272902706Q434.4498809853562 486.12028563514525 424.38973816778355 486.12028563514525H414.8195715472821ZM631.5244644341027 837.8452261278234 733.7104998615042 807.4899761970712Q729.9655117629685 798.9799523941425 721.2104998615041 793.1074583448747Q712.4554879600398 787.2349642956068 696.945464157111 787.7249404926781Q664.6704046497891 705.7249404926781 618.8853213395385 638.2850833102507Q573.1002380292877 570.8452261278234 517.5501190146439 527.1403332410027L503.315154719037 537.3752975366097Q544 591.1403332410027 578.5473155273021 670.7578153888062Q613.0946310546041 750.3752975366097 631.5244644341027 837.8452261278234ZM610.4899761970712 696.9799523941425H839.6591907004218L885.0344882370315 756.4153927483247Q885.0344882370315 756.4153927483247 899.4470774980143 744.7578153888062Q913.8596667589973 733.1002380292877 933.409785773641 716.4326368668404Q952.9599047882849 699.7650357043932 968.7449880985356 684.2349642956068Q964.7449880985356 668.2349642956068 942.9799523941425 668.2349642956068H610.4899761970712Z" fill="#4A4946" transform="translate(562.500 75.000) scale(0.033000 -0.033000)"/>
  <path d="M183 -81.76503570439316Q144.74498809853563 -81.76503570439316 112.61748214780343 -62.637529753660964Q80.48997619707123 -43.51002380292877 61.362470246339036 -11.382517852196578Q42.234964295606844 20.744988098535615 42.234964295606844 59Q42.234964295606844 98.25501190146439 61.362470246339036 129.88251785219657Q80.48997619707123 161.51002380292877 112.61748214780343 180.13752975366094Q144.74498809853563 198.76503570439314 183 198.76503570439314Q222.25501190146437 198.76503570439314 253.88251785219654 180.13752975366094Q285.51002380292874 161.51002380292877 304.13752975366094 129.88251785219657Q322.76503570439314 98.25501190146439 322.76503570439314 59Q322.76503570439314 20.744988098535615 304.13752975366094 -11.382517852196578Q285.51002380292874 -43.51002380292877 253.88251785219654 -62.637529753660964Q222.25501190146437 -81.76503570439316 183 -81.76503570439316ZM183 -48.234964295606844Q226.74498809853563 -48.234964295606844 257.98997619707126 -16.48997619707123Q289.23496429560686 15.255011901464385 289.23496429560686 59Q289.23496429560686 102.74498809853561 257.98997619707126 133.98997619707123Q226.74498809853563 165.23496429560686 183 165.23496429560686Q138.51002380292877 165.23496429560686 107.13752975366097 133.98997619707123Q75.76503570439316 102.74498809853561 75.76503570439316 59Q75.76503570439316 15.255011901464385 107.13752975366097 -16.48997619707123Q138.51002380292877 -48.234964295606844 183 -48.234964295606844Z" fill="#4A4946" transform="translate(595.500 75.000) scale(0.033000 -0.033000)"/>
</svg>
