<svg xmlns="http://www.w3.org/2000/svg" viewBox="0 0 960 166" role="img" aria-labelledby="title">
  <title id="title">本地 Skills 如何参与任务</title>
  <metadata>Lettering derived from Source Han Serif CN SemiBold and Cormorant Garamond Italic, licensed under SIL Open Font License 1.1.</metadata>
  <path d="M318.4599609375 -12.385009765625Q231.385009765625 -12.385009765625 176.3475341796875 17.114990234375Q121.31005859375 46.614990234375 93.5025634765625 95.0Q65.695068359375 143.385009765625 59.3875732421875 200.9625244140625Q53.080078125 258.5400390625 63.080078125 315.31005859375Q76.695068359375 390 112.81005859375 449.22998046875Q148.925048828125 508.4599609375 200.5400390625 550.1524658203125Q252.155029296875 591.844970703125 312.5775146484375 613.9224853515625Q373 636 434.844970703125 636Q475.844970703125 636 517.3824462890625 627.114990234375Q558.919921875 618.22998046875 581.919921875 603.919921875Q588.919921875 599.534912109375 589.919921875 595.534912109375Q590.919921875 591.534912109375 589.919921875 580.534912109375L577 457.7001953125Q576.614990234375 454.315185546875 571.614990234375 454.315185546875Q566.614990234375 454.315185546875 566 457.7001953125Q553.6201171875 534.395263671875 508.35009765625 572.8526611328125Q463.080078125 611.31005859375 395.385009765625 611.31005859375Q334.534912109375 611.31005859375 284.56982421875 579.0400390625Q234.604736328125 546.77001953125 201.40966796875 487.5Q168.214599609375 428.22998046875 155.444580078125 346Q144.28955078125 276.4599609375 151.2520751953125 214.68994140625Q158.214599609375 152.919921875 180.524658203125 105.7274169921875Q202.834716796875 58.534912109375 239.414794921875 31.534912109375Q275.994873046875 4.534912109375 324.4599609375 4.534912109375Q377.5400390625 4.534912109375 430.695068359375 41.534912109375Q483.85009765625 78.534912109375 534.919921875 155.764892578125Q537.534912109375 159.3798828125 542.2274169921875 157.0723876953125Q546.919921875 154.764892578125 545.534912109375 152.3798828125L517.3798828125 40.844970703125Q513.994873046875 28.4599609375 511.1873779296875 24.1524658203125Q508.3798828125 19.844970703125 499.3798828125 17.4599609375Q450.534912109375 1.22998046875 403.804931640625 -5.5775146484375Q357.074951171875 -12.385009765625 318.4599609375 -12.385009765625Z" fill="#8F5667" transform="translate(406.722 25.000) scale(0.023000 -0.023000)"/>
  <path d="M12.22998046875 0Q9.22998046875 0 9.22998046875 6.0Q9.22998046875 12 12.22998046875 12Q41.155029296875 12 56.5025634765625 17.0Q71.85009765625 22 79.5426025390625 37.0Q87.235107421875 52 92.235107421875 81L174.235107421875 544Q182.235107421875 586.385009765625 171.6575927734375 599.6925048828125Q161.080078125 613 119.22998046875 613Q117.22998046875 613 117.22998046875 619.0Q117.22998046875 625 119.22998046875 625Q141.074951171875 625 167.419921875 623.5Q193.764892578125 622 223.60986328125 622Q254.454833984375 622 282.7998046875 623.5Q311.144775390625 625 331.98974609375 625Q333.98974609375 625 333.98974609375 619.0Q333.98974609375 613 331.98974609375 613Q303.064697265625 613 287.7171630859375 607.0Q272.36962890625 601 265.1771240234375 585.6925048828125Q257.984619140625 570.385009765625 252.599609375 542L170.599609375 81Q162.984619140625 38 172.86962890625 25.0Q182.754638671875 12 224.98974609375 12Q227.98974609375 12 227.98974609375 6.0Q227.98974609375 0 224.98974609375 0Q203.759765625 0 175.914794921875 1.0Q148.06982421875 2 116.60986328125 2Q86.764892578125 2 59.919921875 1.0Q33.074951171875 0 12.22998046875 0ZM162.844970703125 312.925048828125 166.22998046875 337.4599609375H548.844970703125L546.22998046875 312.925048828125ZM382.085205078125 0Q380.085205078125 0 380.085205078125 6.0Q380.085205078125 12 382.085205078125 12Q412.01025390625 12 426.8577880859375 17.0Q441.705322265625 22 449.09033203125 37.0Q456.475341796875 52 461.475341796875 81L542.475341796875 542Q549.8603515625 584.385009765625 540.59033203125 598.6925048828125Q531.3203125 613 489.085205078125 613Q486.085205078125 613 486.085205078125 619.0Q486.085205078125 625 489.085205078125 625Q509.93017578125 625 537.275146484375 623.5Q564.6201171875 622 594.465087890625 622Q623.925048828125 622 651.9625244140625 623.5Q680 625 700.844970703125 625Q703.22998046875 625 703.22998046875 619.0Q703.22998046875 613 700.844970703125 613Q672.919921875 613 657.5723876953125 607.5Q642.224853515625 602 634.83984375 587.1925048828125Q627.454833984375 572.385009765625 621.83984375 544L539.83984375 81Q532.83984375 38 543.4173583984375 25.0Q553.994873046875 12 595.22998046875 12Q598.22998046875 12 598.22998046875 6.0Q598.22998046875 0 595.22998046875 0Q576.22998046875 0 548.5775146484375 1.0Q520.925048828125 2 490.465087890625 2Q460.005126953125 2 431.9676513671875 1.0Q403.93017578125 0 382.085205078125 0Z" fill="#8F5667" transform="translate(422.723 25.000) scale(0.023000 -0.023000)"/>
  <path d="M-34 0Q-38 0 -38.0 6.0Q-38 12 -34 12Q-8 12 27.8824462890625 38.7274169921875Q63.764892578125 65.454833984375 99.534912109375 129.83984375L382 634.385009765625Q384 638.385009765625 391.5 637.1925048828125Q399 636 400 633L498.98974609375 84Q503.604736328125 57 509.1822509765625 41.0Q514.759765625 25 527.914794921875 18.5Q541.06982421875 12 568.3798828125 12Q572.3798828125 12 572.3798828125 6.0Q572.3798828125 0 568.3798828125 0Q543.534912109375 0 517.9974365234375 2.0Q492.4599609375 4 462 4Q432.155029296875 4 408.81005859375 2.0Q385.465087890625 0 360.235107421875 0Q356.6201171875 0 356.6201171875 6.0Q356.6201171875 12 360.235107421875 12Q402.47021484375 12 414.1627197265625 27.0Q425.855224609375 42 418.01025390625 84L337.63037109375 530.025634765625L378.614990234375 583.925048828125L129.614990234375 130.5400390625Q104.304931640625 84.919921875 101.6124267578125 58.919921875Q98.919921875 32.919921875 117.14990234375 22.4599609375Q135.3798828125 12 172.144775390625 12Q176.144775390625 12 176.144775390625 6.0Q176.144775390625 0 171.144775390625 0Q149.684814453125 0 118.6873779296875 2.0Q87.68994140625 4 58 4Q29 4 10.5 2.0Q-8 0 -34 0ZM181.7802734375 251.33056640625 196.7802734375 275.48046875H413.855224609375L415.855224609375 251.33056640625Z" fill="#8F5667" transform="translate(440.702 25.000) scale(0.023000 -0.023000)"/>
  <path d="M13.844970703125 0Q11.4599609375 0 11.4599609375 6.0Q11.4599609375 12 13.844970703125 12Q42.77001953125 12 58.425048828125 17.0Q74.080078125 22 81.6575927734375 37.0Q89.235107421875 52 94.235107421875 81L175.85009765625 544Q183.85009765625 587.614990234375 173.7725830078125 600.3074951171875Q163.695068359375 613 121.4599609375 613Q118.844970703125 613 118.844970703125 619.0Q118.844970703125 625 121.4599609375 625Q142.68994140625 625 169.034912109375 623.5Q195.3798828125 622 225.83984375 622Q246.994873046875 622 280.83984375 625.0Q314.684814453125 628 347.3798828125 628Q404.759765625 628 448.1422119140625 609.1925048828125Q491.524658203125 590.385009765625 512.9471435546875 551.5775146484375Q534.36962890625 512.77001953125 522.984619140625 453Q513.984619140625 402.385009765625 487.1771240234375 366.1925048828125Q460.36962890625 330 424.36962890625 307.0Q388.36962890625 284 349.36962890625 273.0Q310.36962890625 262 276.36962890625 262Q264.984619140625 262 255.1771240234375 263.0Q245.36962890625 264 235.36962890625 267Q232.984619140625 268 234.984619140625 276.6524658203125Q236.984619140625 285.304931640625 240.599609375 284.304931640625Q247.984619140625 282.304931640625 255.484619140625 281.304931640625Q262.984619140625 280.304931640625 269.984619140625 280.304931640625Q305.064697265625 280.304931640625 338.7998046875 296.3824462890625Q372.534912109375 312.4599609375 398.1925048828125 346.0374755859375Q423.85009765625 379.614990234375 432.6201171875 433Q442.39013671875 489.77001953125 429.235107421875 529.0400390625Q416.080078125 568.31005859375 388.6925048828125 589.195068359375Q361.304931640625 610.080078125 327.224853515625 610.080078125Q301.98974609375 610.080078125 288.064697265625 605.6575927734375Q274.1396484375 601.235107421875 266.86962890625 586.85009765625Q259.599609375 572.465087890625 253.214599609375 542L172.214599609375 81Q165.214599609375 38 175.2921142578125 25.0Q185.36962890625 12 226.98974609375 12Q229.604736328125 12 229.604736328125 6.0Q229.604736328125 0 226.98974609375 0Q205.759765625 0 177.914794921875 1.0Q150.06982421875 2 118.224853515625 2Q88.764892578125 2 61.7274169921875 1.0Q34.68994140625 0 13.844970703125 0Z" fill="#8F5667" transform="translate(457.071 25.000) scale(0.023000 -0.023000)"/>
  <path d="M126.8603515625 0Q124.475341796875 0 124.475341796875 6.0Q124.475341796875 12 126.8603515625 12Q161.3203125 12 179.55029296875 17.0Q197.7802734375 22 206.7027587890625 37.0Q215.625244140625 52 220.625244140625 81L302.01025390625 544Q309.01025390625 581.31005859375 301.1627197265625 593.0025634765625Q293.315185546875 604.695068359375 261.385009765625 604.695068359375H243.60986328125Q207.759765625 604.695068359375 176.954833984375 586.4676513671875Q146.14990234375 568.240234375 122.9224853515625 534.9727783203125Q99.695068359375 501.705322265625 85.925048828125 454.855224609375Q84.925048828125 451.855224609375 79.2325439453125 453.0477294921875Q73.5400390625 454.240234375 74.5400390625 456.855224609375Q78.5400390625 470.085205078125 84.8475341796875 494.6226806640625Q91.155029296875 519.16015625 97.9625244140625 547.8126220703125Q104.77001953125 576.465087890625 110.885009765625 603.1175537109375Q117 629.77001953125 120 647Q122 650 127.5 649.5Q133 649 132 646Q130 631 145.0 628.0Q160 625 171 625Q208 624 257.5 623.0Q307 622 354 622Q414 622 455.0 623.5Q496 625 530 625Q558 625 573.5 629.5Q589 634 596 650Q598 653 603.0 652.5Q608 652 607 648Q603 632.77001953125 596.385009765625 606.1175537109375Q589.77001953125 579.465087890625 583.4625244140625 549.8126220703125Q577.155029296875 520.16015625 572.3475341796875 494.815185546875Q567.5400390625 469.47021484375 565.5400390625 456.855224609375Q564.5400390625 453.240234375 558.7325439453125 453.740234375Q552.925048828125 454.240234375 553.925048828125 458.240234375Q562.31005859375 504.09033203125 553.6976318359375 536.665283203125Q545.085205078125 569.240234375 521.0477294921875 586.9676513671875Q497.01025390625 604.695068359375 457.545166015625 604.695068359375H440.385009765625Q407.60986328125 604.695068359375 397.4923095703125 591.81005859375Q387.374755859375 578.925048828125 380.98974609375 542L299.98974609375 81Q294.98974609375 52 297.98974609375 37.0Q300.98974609375 22 318.0272216796875 17.0Q335.064697265625 12 370.524658203125 12Q372.524658203125 12 372.524658203125 6.0Q372.524658203125 0 370.524658203125 0Q345.604736328125 0 315.3773193359375 1.0Q285.14990234375 2 248 2Q214.465087890625 2 183.1226806640625 1.0Q151.7802734375 0 126.8603515625 0Z" fill="#8F5667" transform="translate(471.485 25.000) scale(0.023000 -0.023000)"/>
  <path d="M18.074951171875 0Q15.4599609375 0 15.4599609375 6.0Q15.4599609375 12 18.074951171875 12Q47.385009765625 12 62.5400390625 17.0Q77.695068359375 22 85.080078125 37.0Q92.465087890625 52 97.465087890625 81L178.85009765625 544Q186.85009765625 587 176.580078125 600.0Q166.31005859375 613 124.4599609375 613Q122.074951171875 613 122.074951171875 619.0Q122.074951171875 625 124.4599609375 625H512.83984375Q520.83984375 625 518.83984375 616Q515.83984375 597.385009765625 512.0323486328125 572.5400390625Q508.224853515625 547.695068359375 504.9173583984375 524.465087890625Q501.60986328125 501.235107421875 498.60986328125 486.6201171875Q497.60986328125 482.6201171875 491.9173583984375 483.9276123046875Q486.224853515625 485.235107421875 486.60986328125 487.6201171875Q487.614990234375 542.080078125 459.7376708984375 574.3875732421875Q431.8603515625 606.695068359375 383.405517578125 606.695068359375H334.2197265625Q305.064697265625 606.695068359375 290.2171630859375 602.0025634765625Q275.36962890625 597.31005859375 269.099609375 583.7325439453125Q262.82958984375 570.155029296875 257.82958984375 543L176.82958984375 85Q169.82958984375 44.22998046875 179.599609375 32.0374755859375Q189.36962890625 19.844970703125 230.2197265625 19.844970703125H296.645751953125Q345.635498046875 19.844970703125 391.51025390625 56.7674560546875Q437.385009765625 93.68994140625 466.2998046875 154.3798828125Q467.914794921875 157.3798828125 473.6072998046875 156.0723876953125Q479.2998046875 154.764892578125 477.2998046875 152.3798828125Q468.684814453125 124.534912109375 459.8773193359375 86.18994140625Q451.06982421875 47.844970703125 444.83984375 15Q441.83984375 0 428.83984375 0ZM422.834716796875 226.6201171875Q421.834716796875 222.6201171875 415.834716796875 223.1201171875Q409.834716796875 223.6201171875 410.834716796875 227.6201171875Q418.834716796875 272.005126953125 400.9923095703125 292.465087890625Q383.14990234375 312.925048828125 340.919921875 312.925048828125H180.83984375L184.454833984375 337.4599609375H347.919921875Q390.224853515625 337.4599609375 412.144775390625 354.18994140625Q434.064697265625 370.919921875 441.90966796875 410.764892578125Q442.90966796875 415.3798828125 448.90966796875 414.8798828125Q454.90966796875 414.3798828125 453.90966796875 409.3798828125Q449.294677734375 378.919921875 445.294677734375 361.574951171875Q441.294677734375 344.22998046875 438.064697265625 325Q434.064697265625 301.155029296875 430.94970703125 277.81005859375Q427.834716796875 254.465087890625 422.834716796875 226.6201171875Z" fill="#8F5667" transform="translate(486.704 25.000) scale(0.023000 -0.023000)"/>
  <path d="M17.074951171875 0Q13.074951171875 0 13.074951171875 6.0Q13.074951171875 12 17.074951171875 12Q48 12 65.155029296875 17.3074951171875Q82.31005859375 22.614990234375 90.8875732421875 37.614990234375Q99.465087890625 52.614990234375 104.465087890625 81L185.85009765625 544Q191.465087890625 573 189.080078125 587.5Q186.695068359375 602 172.7325439453125 607.5Q158.77001953125 613 128.074951171875 613Q124.074951171875 613 124.074951171875 619.0Q124.074951171875 625 128.074951171875 625Q150.304931640625 625 178.64990234375 623.5Q206.994873046875 622 237.83984375 622Q260.83984375 622 292.83984375 625.0Q324.83984375 628 344.83984375 628Q437.36962890625 628 475.4820556640625 593.0Q513.594482421875 558 501.20947265625 491Q491.20947265625 435.31005859375 453.01953125 393.31005859375Q414.82958984375 351.31005859375 359.794677734375 328.0400390625Q304.759765625 304.77001953125 244.224853515625 304.77001953125Q238.2998046875 304.77001953125 228.0672607421875 305.4625244140625Q217.834716796875 306.155029296875 213.90966796875 307.155029296875L218.36962890625 335.4599609375Q227.44970703125 332.844970703125 240.98974609375 331.5374755859375Q254.52978515625 330.22998046875 263.83984375 330.22998046875Q331.14990234375 330.22998046875 366.534912109375 361.2674560546875Q401.919921875 392.304931640625 414.4599609375 464.3798828125Q425 518.844970703125 415.5374755859375 550.885009765625Q406.074951171875 582.925048828125 383.3798828125 596.5025634765625Q360.684814453125 610.080078125 330.064697265625 610.080078125Q308.064697265625 610.080078125 296.1021728515625 606.8875732421875Q284.1396484375 603.695068359375 277.484619140625 589.6175537109375Q270.82958984375 575.5400390625 264.82958984375 542L182.82958984375 81Q177.82958984375 52.614990234375 179.82958984375 37.614990234375Q181.82958984375 22.614990234375 195.6771240234375 17.3074951171875Q209.524658203125 12 239.2197265625 12Q243.2197265625 12 243.2197265625 6.0Q243.2197265625 0 240.2197265625 0Q216.98974609375 0 189.644775390625 1.0Q162.2998046875 2 129.454833984375 2Q98.3798828125 2 68.8424072265625 1.0Q39.304931640625 0 17.074951171875 0ZM469.625244140625 0Q455.47021484375 0 430.3526611328125 34.695068359375Q405.235107421875 69.39013671875 371.8475341796875 140.9676513671875Q338.4599609375 212.545166015625 299.60986328125 322L364.824462890625 344.3798828125Q417.28955078125 220.304931640625 456.5220947265625 147.574951171875Q495.754638671875 74.844970703125 530.024658203125 43.4224853515625Q564.294677734375 12 599.834716796875 12Q603.2197265625 12 603.2197265625 6.0Q603.2197265625 0 599.834716796875 0Q548.074951171875 0 516.695068359375 0.0Q485.315185546875 0 469.625244140625 0Z" fill="#8F5667" transform="translate(501.233 25.000) scale(0.023000 -0.023000)"/>
  <path d="M22.68994140625 0Q19.68994140625 0 19.68994140625 6.0Q19.68994140625 12 22.68994140625 12Q51.614990234375 12 66.4625244140625 17.0Q81.31005859375 22 88.84149460565476 37.0Q96.37293061755952 52 101.080078125 81L183.080078125 544Q191.080078125 587 180.15631103515625 600.0Q169.2325439453125 613 127.68994140625 613Q124.68994140625 613 124.68994140625 619.0Q124.68994140625 625 127.68994140625 625Q149.27134486607142 625 176.24809919084822 623.5Q203.224853515625 622 232.93131290470157 622Q266.8815522065034 622 293.93564915012666 623.5Q320.98974609375 625 341.834716796875 625Q344.44970703125 625 344.44970703125 619.0Q344.44970703125 613 341.834716796875 613Q313.189208984375 613 297.9712829589844 607.0Q282.75335693359375 601 275.59197998046875 586.0Q268.43060302734375 571 263.0595703125 542L181.0595703125 81Q173.444580078125 38 183.56939358181424 25.0Q193.69420708550348 12 236.834716796875 12Q238.834716796875 12 238.834716796875 6.0Q238.834716796875 0 236.834716796875 0Q215.46807183159723 0 188.759765625 1.0Q162.05145941840277 2 128.93315972222223 2Q99.01985677083333 2 71.77738444010416 1.0Q44.534912109375 0 22.68994140625 0Z" fill="#8F5667" transform="translate(525.990 25.000) scale(0.023000 -0.023000)"/>
  <path d="M22.68994140625 0Q19.68994140625 0 19.68994140625 6.0Q19.68994140625 12 22.68994140625 12Q51.614990234375 12 66.4625244140625 17.0Q81.31005859375 22 88.84149460565476 37.0Q96.37293061755952 52 101.080078125 81L183.080078125 544Q191.080078125 587 180.15631103515625 600.0Q169.2325439453125 613 127.68994140625 613Q124.68994140625 613 124.68994140625 619.0Q124.68994140625 625 127.68994140625 625Q149.27134486607142 625 176.24809919084822 623.5Q203.224853515625 622 232.93131290470157 622Q266.8815522065034 622 293.93564915012666 623.5Q320.98974609375 625 341.834716796875 625Q344.44970703125 625 344.44970703125 619.0Q344.44970703125 613 341.834716796875 613Q313.189208984375 613 297.9712829589844 607.0Q282.75335693359375 601 275.59197998046875 586.0Q268.43060302734375 571 263.0595703125 542L181.0595703125 81Q173.444580078125 38 183.56939358181424 25.0Q193.69420708550348 12 236.834716796875 12Q238.834716796875 12 238.834716796875 6.0Q238.834716796875 0 236.834716796875 0Q215.46807183159723 0 188.759765625 1.0Q162.05145941840277 2 128.93315972222223 2Q99.01985677083333 2 71.77738444010416 1.0Q44.534912109375 0 22.68994140625 0Z" fill="#8F5667" transform="translate(535.919 25.000) scale(0.023000 -0.023000)"/>
  <path d="M22.68994140625 0Q19.68994140625 0 19.68994140625 6.0Q19.68994140625 12 22.68994140625 12Q51.614990234375 12 66.4625244140625 17.0Q81.31005859375 22 88.84149460565476 37.0Q96.37293061755952 52 101.080078125 81L183.080078125 544Q191.080078125 587 180.15631103515625 600.0Q169.2325439453125 613 127.68994140625 613Q124.68994140625 613 124.68994140625 619.0Q124.68994140625 625 127.68994140625 625Q149.27134486607142 625 176.24809919084822 623.5Q203.224853515625 622 232.93131290470157 622Q266.8815522065034 622 293.93564915012666 623.5Q320.98974609375 625 341.834716796875 625Q344.44970703125 625 344.44970703125 619.0Q344.44970703125 613 341.834716796875 613Q313.189208984375 613 297.9712829589844 607.0Q282.75335693359375 601 275.59197998046875 586.0Q268.43060302734375 571 263.0595703125 542L181.0595703125 81Q173.444580078125 38 183.56939358181424 25.0Q193.69420708550348 12 236.834716796875 12Q238.834716796875 12 238.834716796875 6.0Q238.834716796875 0 236.834716796875 0Q215.46807183159723 0 188.759765625 1.0Q162.05145941840277 2 128.93315972222223 2Q99.01985677083333 2 71.77738444010416 1.0Q44.534912109375 0 22.68994140625 0Z" fill="#8F5667" transform="translate(545.848 25.000) scale(0.023000 -0.023000)"/>
  <path d="M238 49 C312 33 378 63 451 49" fill="none" stroke="#4F7E83" stroke-linecap="round" stroke-width="1.5"/>
  <path d="M509 49 C582 35 648 65 722 49" fill="none" stroke="#4F7E83" stroke-linecap="round" stroke-width="1.5"/>
  <path d="M330 57 C376 51 414 56 451 51" fill="none" stroke="#966071" stroke-linecap="round" stroke-width="1.1"/>
  <path d="M509 51 C546 56 584 51 630 57" fill="none" stroke="#966071" stroke-linecap="round" stroke-width="1.1"/>
  <path d="M480 42 L487 49 L480 56 L473 49 Z" fill="#A98342"/>
  <circle cx="457" cy="49" r="2.2" fill="#966071"/>
  <circle cx="503" cy="49" r="2.2" fill="#966071"/>
  <path d="M827 701 765 619H546V801C576 806 584 816 587 832L448 846V619H67L76 590H386C322 399 196 199 29 70L40 59C222 157 359 297 448 461V172H245L253 143H448V-83H467C507 -83 546 -63 546 -52V143H729C743 143 753 148 756 159C719 196 657 250 657 250L601 172H546V589C612 364 727 191 874 89C890 136 924 167 964 173L967 183C812 256 652 408 565 590H911C925 590 935 595 938 606C897 645 827 701 827 701Z" fill="#123F47" transform="translate(210.288 118.000) scale(0.048000 -0.048000)"/>
  <path d="M800 621 696 583V801C722 805 730 815 732 829L607 842V550L500 510V721C524 725 533 736 535 749L408 763V476L280 429L299 405L408 445V56C408 -30 447 -50 560 -50H704C924 -50 973 -34 973 13C973 31 963 42 930 54L927 201H915C896 131 879 77 868 58C861 48 851 44 835 43C813 40 769 39 710 39H569C513 39 500 50 500 80V479L607 518V107H623C658 107 696 127 696 137V551L819 596C816 381 809 294 793 276C787 270 781 267 767 267C751 267 721 269 702 271V256C726 250 742 241 752 229C761 216 763 194 763 167C800 167 834 177 858 199C896 235 906 318 909 582C929 585 941 591 948 599L857 673L809 624ZM26 128 76 15C87 20 95 30 98 43C226 126 319 198 383 248L378 259L242 204V508H363C377 508 386 513 389 524C360 558 306 610 306 610L260 537H242V782C268 786 276 796 278 810L151 823V537H37L45 508H151V170C98 150 53 136 26 128Z" fill="#123F47" transform="translate(258.288 118.000) scale(0.048000 -0.048000)"/>
  <path d="M272 -18C438 -18 539 65 539 193C539 299 489 357 338 421L290 442C215 475 171 514 171 587C171 670 235 715 326 715C360 715 386 709 414 695L449 547H498L504 698C453 733 392 753 314 753C172 753 66 684 66 555C66 446 132 381 257 327L301 308C399 267 432 229 432 159C432 70 366 21 262 21C215 21 181 27 143 45L106 199H58L52 41C105 6 189 -18 272 -18Z" fill="#123F47" transform="translate(318.432 118.000) scale(0.048000 -0.048000)"/>
  <path d="M351 498 449 486 334 373 231 271V647L235 804L220 813L36 778V751L119 746V232L117 37L38 29V0H307V29L233 36C232 91 231 172 231 230L296 291L454 0H629V29L557 36L374 365L505 489L602 498V527H351Z" fill="#123F47" transform="translate(346.176 118.000) scale(0.048000 -0.048000)"/>
  <path d="M170 655C207 655 239 682 239 721C239 759 207 787 170 787C132 787 101 759 101 721C101 682 132 655 170 655ZM117 0H305V29L234 36C233 93 232 177 232 232V385L235 532L223 541L33 494V469L117 463C119 414 120 367 120 300V232L118 37L41 29V0Z" fill="#123F47" transform="translate(376.512 118.000) scale(0.048000 -0.048000)"/>
  <path d="M116 0H314V29L234 37C232 98 231 172 231 232V647L235 804L220 813L36 778V751L119 746V232L117 37L34 29V0Z" fill="#123F47" transform="translate(392.928 118.000) scale(0.048000 -0.048000)"/>
  <path d="M116 0H314V29L234 37C232 98 231 172 231 232V647L235 804L220 813L36 778V751L119 746V232L117 37L34 29V0Z" fill="#123F47" transform="translate(409.536 118.000) scale(0.048000 -0.048000)"/>
  <path d="M228 -16C369 -16 448 52 448 150C448 225 406 274 304 308L250 326C175 350 149 378 149 422C149 473 189 508 259 508C290 508 316 502 343 488L369 384H415L420 498C366 528 320 543 258 543C127 543 55 474 55 382C55 303 106 257 191 229L245 210C326 185 349 156 349 110C349 53 305 19 221 19C183 19 154 25 127 38L103 153H52L49 28C105 0 158 -16 228 -16Z" fill="#123F47" transform="translate(426.144 118.000) scale(0.048000 -0.048000)"/>
  <path d="M290 800C319 802 326 813 329 825L200 845C193 792 176 709 155 620H31L40 591H148C120 473 86 350 61 276C119 243 186 198 246 148C197 61 127 -13 27 -70L36 -83C154 -35 237 28 297 103C333 68 365 33 386 -1C460 -42 542 60 348 180C411 296 435 432 449 576C471 579 481 582 487 592L396 673L347 620H247C265 689 280 753 290 800ZM806 655V117H620V655ZM620 -16V88H806V-24H821C856 -24 901 2 902 10V637C923 642 939 650 946 659L844 739L795 684H625L527 727V-50H544C585 -50 620 -27 620 -16ZM145 271C177 363 211 482 240 591H355C346 455 327 327 280 217C242 235 198 253 145 271Z" fill="#123F47" transform="translate(461.712 118.000) scale(0.048000 -0.048000)"/>
  <path d="M329 723 337 694H776V46C776 31 770 24 750 24C723 24 597 32 597 32V18C656 10 683 -1 702 -16C719 -31 726 -54 729 -85C855 -75 873 -25 873 42V694H950C964 694 974 699 977 710C936 748 868 803 868 803L808 723ZM358 545V140H371C408 140 445 160 445 169V230H577V159H591C620 159 664 177 665 182V499C687 503 703 512 710 520L611 596L566 545H450L358 584ZM445 258V516H577V258ZM235 845C189 652 103 458 18 335L31 326C75 363 116 406 154 456V-84H171C209 -84 248 -63 250 -55V529C268 532 277 538 280 548L229 566C268 632 303 705 332 783C354 781 367 791 372 803Z" fill="#123F47" transform="translate(509.712 118.000) scale(0.048000 -0.048000)"/>
  <path d="M863 111 771 196C638 76 362 -31 122 -69L126 -85C386 -78 675 5 825 111C843 103 856 104 863 111ZM734 242 642 314C540 215 329 107 151 55L158 39C354 69 580 154 698 239C715 232 727 234 734 242ZM617 369 521 434C443 337 282 227 139 168L146 153C309 193 489 281 582 365C600 359 612 360 617 369ZM612 758 603 749C638 725 678 691 712 654C534 649 364 645 252 644C344 681 442 734 502 778C524 774 537 783 541 792L422 845C378 789 261 684 172 650C162 646 142 643 142 643L192 537C200 540 207 547 212 556L398 581C383 553 364 524 344 496H44L52 467H322C247 374 146 287 29 228L37 215C207 267 346 364 438 467H618C680 357 783 275 901 227C911 272 937 301 973 309L974 320C859 342 725 396 646 467H934C948 467 958 472 961 483C921 519 857 569 857 569L800 496H463C476 513 489 530 500 547C524 543 534 548 540 559L473 592C575 607 662 621 731 634C749 612 764 591 774 571C867 527 904 711 612 758Z" fill="#123F47" transform="translate(557.712 118.000) scale(0.048000 -0.048000)"/>
  <path d="M585 323 527 248H40L48 219H666C680 219 690 224 693 235C653 272 585 323 585 323ZM828 732 767 657H329L348 796C372 795 382 806 386 818L256 846C251 760 223 570 200 464C187 458 173 450 164 442L259 381L298 426H763C746 229 715 69 676 38C663 28 653 25 632 25C606 25 513 33 456 38L455 23C507 14 558 -1 578 -18C596 -32 602 -57 602 -86C665 -86 708 -73 744 -43C804 7 843 179 861 411C883 413 896 419 904 427L808 509L754 455H296C305 504 315 567 325 628H911C925 628 936 633 939 644C897 681 828 732 828 732Z" fill="#123F47" transform="translate(605.712 118.000) scale(0.048000 -0.048000)"/>
  <path d="M798 824C695 770 491 697 325 660L329 645C404 650 484 659 561 670V393H295L303 365H561V-11H315L323 -40H921C935 -40 946 -35 948 -24C908 14 842 67 842 67L782 -11H660V365H945C959 365 970 370 972 381C933 418 867 471 867 471L808 393H660V686C730 698 794 712 846 726C876 715 897 716 907 726ZM238 845C194 653 109 458 25 335L38 326C81 362 121 405 158 454V-84H176C213 -84 253 -63 254 -55V536C272 539 281 546 284 555L237 572C274 637 307 707 335 783C358 782 370 791 375 803Z" fill="#123F47" transform="translate(653.712 118.000) scale(0.048000 -0.048000)"/>
  <path d="M571 396 426 414C425 368 420 322 411 279H112L121 250H403C365 117 269 3 51 -72L57 -85C343 -23 459 97 508 250H724C714 135 696 55 675 37C666 30 657 28 640 28C619 28 538 34 488 38V24C533 16 576 3 595 -11C612 -26 617 -50 616 -76C671 -76 709 -66 738 -45C784 -12 809 86 820 236C841 238 853 244 860 251L766 329L715 279H516C524 308 529 339 533 370C555 371 568 379 571 396ZM485 813 344 850C293 719 184 570 72 488L82 478C170 518 254 579 324 649C359 593 403 547 455 509C337 439 192 387 34 353L39 338C225 357 388 400 522 467C626 409 753 374 898 353C907 401 933 432 975 444V456C844 463 716 480 605 514C678 560 739 616 789 681C815 683 827 685 835 695L741 785L676 731H397C415 754 432 777 446 800C473 798 481 803 485 813ZM514 547C445 578 386 617 342 667L373 702H671C631 644 578 593 514 547Z" fill="#123F47" transform="translate(701.712 118.000) scale(0.048000 -0.048000)"/>
</svg>
