<svg xmlns="http://www.w3.org/2000/svg" viewBox="0 0 960 136" role="img" aria-labelledby="title">
  <title id="title">How a Task Can Continue and Be Reviewed</title>
  <metadata>Lettering derived from Bodoni Moda, licensed under SIL Open Font License 1.1.</metadata>
  <path d="M42.81775333683253 0V24.65867075851346H262.75252166307246V1475.3413292414866H42.81775333683253V1500H789.0523839848793V1475.3413292414866H549.1129003189178V24.65867075851346H789.0523839848793V0Z" fill="#B49A64" transform="translate(466.045 21.000) scale(0.011000 -0.011000)"/>
  <path d="M1531.0840170299125 1500V1475.3413292414866H1352.681189509989L814.2792503002141 -29.409752264042474H709.1719666161496L186.89102883592102 1475.3413292414866H39.05390986378551V1500H731.0522008794105V1475.3413292414866H518.6532243597493L901.9149200630648 292.43132866657527L1324.2254201088174 1475.3413292414866H1079.4068414048213V1500Z" fill="#B49A64" transform="translate(476.686 21.000) scale(0.011000 -0.011000)"/>
  <path d="M135 34 H420" fill="none" stroke="#8B8A83" stroke-width="0.75"/>
  <path d="M135.00 34.00 L137.97 35.19 L140.94 36.19 L143.91 36.86 L146.88 37.10 L149.84 36.86 L152.81 36.19 L155.78 35.19 L158.75 34.00 L161.72 32.81 L164.69 31.81 L167.66 31.14 L170.62 30.90 L173.59 31.14 L176.56 31.81 L179.53 32.81 L182.50 34.00 L185.47 35.19 L188.44 36.19 L191.41 36.86 L194.38 37.10 L197.34 36.86 L200.31 36.19 L203.28 35.19 L206.25 34.00 L209.22 32.81 L212.19 31.81 L215.16 31.14 L218.12 30.90 L221.09 31.14 L224.06 31.81 L227.03 32.81 L230.00 34.00 L232.97 35.19 L235.94 36.19 L238.91 36.86 L241.88 37.10 L244.84 36.86 L247.81 36.19 L250.78 35.19 L253.75 34.00 L256.72 32.81 L259.69 31.81 L262.66 31.14 L265.62 30.90 L268.59 31.14 L271.56 31.81 L274.53 32.81 L277.50 34.00 L280.47 35.19 L283.44 36.19 L286.41 36.86 L289.38 37.10 L292.34 36.86 L295.31 36.19 L298.28 35.19 L301.25 34.00 L304.22 32.81 L307.19 31.81 L310.16 31.14 L313.12 30.90 L316.09 31.14 L319.06 31.81 L322.03 32.81 L325.00 34.00 L327.97 35.19 L330.94 36.19 L333.91 36.86 L336.88 37.10 L339.84 36.86 L342.81 36.19 L345.78 35.19 L348.75 34.00 L351.72 32.81 L354.69 31.81 L357.66 31.14 L360.62 30.90 L363.59 31.14 L366.56 31.81 L369.53 32.81 L372.50 34.00 L375.47 35.19 L378.44 36.19 L381.41 36.86 L384.38 37.10 L387.34 36.86 L390.31 36.19 L393.28 35.19 L396.25 34.00 L399.22 32.81 L402.19 31.81 L405.16 31.14 L408.12 30.90 L411.09 31.14 L414.06 31.81 L417.03 32.81 L420.00 34.00" fill="none" stroke="#B49A64" stroke-opacity="0.86" stroke-width="0.72"/>
  <path d="M135.00 34.00 L137.97 32.81 L140.94 31.81 L143.91 31.14 L146.88 30.90 L149.84 31.14 L152.81 31.81 L155.78 32.81 L158.75 34.00 L161.72 35.19 L164.69 36.19 L167.66 36.86 L170.62 37.10 L173.59 36.86 L176.56 36.19 L179.53 35.19 L182.50 34.00 L185.47 32.81 L188.44 31.81 L191.41 31.14 L194.38 30.90 L197.34 31.14 L200.31 31.81 L203.28 32.81 L206.25 34.00 L209.22 35.19 L212.19 36.19 L215.16 36.86 L218.12 37.10 L221.09 36.86 L224.06 36.19 L227.03 35.19 L230.00 34.00 L232.97 32.81 L235.94 31.81 L238.91 31.14 L241.88 30.90 L244.84 31.14 L247.81 31.81 L250.78 32.81 L253.75 34.00 L256.72 35.19 L259.69 36.19 L262.66 36.86 L265.62 37.10 L268.59 36.86 L271.56 36.19 L274.53 35.19 L277.50 34.00 L280.47 32.81 L283.44 31.81 L286.41 31.14 L289.38 30.90 L292.34 31.14 L295.31 31.81 L298.28 32.81 L301.25 34.00 L304.22 35.19 L307.19 36.19 L310.16 36.86 L313.12 37.10 L316.09 36.86 L319.06 36.19 L322.03 35.19 L325.00 34.00 L327.97 32.81 L330.94 31.81 L333.91 31.14 L336.88 30.90 L339.84 31.14 L342.81 31.81 L345.78 32.81 L348.75 34.00 L351.72 35.19 L354.69 36.19 L357.66 36.86 L360.62 37.10 L363.59 36.86 L366.56 36.19 L369.53 35.19 L372.50 34.00 L375.47 32.81 L378.44 31.81 L381.41 31.14 L384.38 30.90 L387.34 31.14 L390.31 31.81 L393.28 32.81 L396.25 34.00 L399.22 35.19 L402.19 36.19 L405.16 36.86 L408.12 37.10 L411.09 36.86 L414.06 36.19 L417.03 35.19 L420.00 34.00" fill="none" stroke="#82545C" stroke-opacity="0.72" stroke-width="0.62"/>
  <path d="M163 40 H392" fill="none" stroke="#8B8A83" stroke-opacity="0.58" stroke-width="0.55"/>
  <path d="M540 34 H825" fill="none" stroke="#8B8A83" stroke-width="0.75"/>
  <path d="M540.00 34.00 L542.97 35.19 L545.94 36.19 L548.91 36.86 L551.88 37.10 L554.84 36.86 L557.81 36.19 L560.78 35.19 L563.75 34.00 L566.72 32.81 L569.69 31.81 L572.66 31.14 L575.62 30.90 L578.59 31.14 L581.56 31.81 L584.53 32.81 L587.50 34.00 L590.47 35.19 L593.44 36.19 L596.41 36.86 L599.38 37.10 L602.34 36.86 L605.31 36.19 L608.28 35.19 L611.25 34.00 L614.22 32.81 L617.19 31.81 L620.16 31.14 L623.12 30.90 L626.09 31.14 L629.06 31.81 L632.03 32.81 L635.00 34.00 L637.97 35.19 L640.94 36.19 L643.91 36.86 L646.88 37.10 L649.84 36.86 L652.81 36.19 L655.78 35.19 L658.75 34.00 L661.72 32.81 L664.69 31.81 L667.66 31.14 L670.62 30.90 L673.59 31.14 L676.56 31.81 L679.53 32.81 L682.50 34.00 L685.47 35.19 L688.44 36.19 L691.41 36.86 L694.38 37.10 L697.34 36.86 L700.31 36.19 L703.28 35.19 L706.25 34.00 L709.22 32.81 L712.19 31.81 L715.16 31.14 L718.12 30.90 L721.09 31.14 L724.06 31.81 L727.03 32.81 L730.00 34.00 L732.97 35.19 L735.94 36.19 L738.91 36.86 L741.88 37.10 L744.84 36.86 L747.81 36.19 L750.78 35.19 L753.75 34.00 L756.72 32.81 L759.69 31.81 L762.66 31.14 L765.62 30.90 L768.59 31.14 L771.56 31.81 L774.53 32.81 L777.50 34.00 L780.47 35.19 L783.44 36.19 L786.41 36.86 L789.38 37.10 L792.34 36.86 L795.31 36.19 L798.28 35.19 L801.25 34.00 L804.22 32.81 L807.19 31.81 L810.16 31.14 L813.12 30.90 L816.09 31.14 L819.06 31.81 L822.03 32.81 L825.00 34.00" fill="none" stroke="#B49A64" stroke-opacity="0.86" stroke-width="0.72"/>
  <path d="M540.00 34.00 L542.97 32.81 L545.94 31.81 L548.91 31.14 L551.88 30.90 L554.84 31.14 L557.81 31.81 L560.78 32.81 L563.75 34.00 L566.72 35.19 L569.69 36.19 L572.66 36.86 L575.62 37.10 L578.59 36.86 L581.56 36.19 L584.53 35.19 L587.50 34.00 L590.47 32.81 L593.44 31.81 L596.41 31.14 L599.38 30.90 L602.34 31.14 L605.31 31.81 L608.28 32.81 L611.25 34.00 L614.22 35.19 L617.19 36.19 L620.16 36.86 L623.12 37.10 L626.09 36.86 L629.06 36.19 L632.03 35.19 L635.00 34.00 L637.97 32.81 L640.94 31.81 L643.91 31.14 L646.88 30.90 L649.84 31.14 L652.81 31.81 L655.78 32.81 L658.75 34.00 L661.72 35.19 L664.69 36.19 L667.66 36.86 L670.62 37.10 L673.59 36.86 L676.56 36.19 L679.53 35.19 L682.50 34.00 L685.47 32.81 L688.44 31.81 L691.41 31.14 L694.38 30.90 L697.34 31.14 L700.31 31.81 L703.28 32.81 L706.25 34.00 L709.22 35.19 L712.19 36.19 L715.16 36.86 L718.12 37.10 L721.09 36.86 L724.06 36.19 L727.03 35.19 L730.00 34.00 L732.97 32.81 L735.94 31.81 L738.91 31.14 L741.88 30.90 L744.84 31.14 L747.81 31.81 L750.78 32.81 L753.75 34.00 L756.72 35.19 L759.69 36.19 L762.66 36.86 L765.62 37.10 L768.59 36.86 L771.56 36.19 L774.53 35.19 L777.50 34.00 L780.47 32.81 L783.44 31.81 L786.41 31.14 L789.38 30.90 L792.34 31.14 L795.31 31.81 L798.28 32.81 L801.25 34.00 L804.22 35.19 L807.19 36.19 L810.16 36.86 L813.12 37.10 L816.09 36.86 L819.06 36.19 L822.03 35.19 L825.00 34.00" fill="none" stroke="#82545C" stroke-opacity="0.72" stroke-width="0.62"/>
  <path d="M568 40 H797" fill="none" stroke="#8B8A83" stroke-opacity="0.58" stroke-width="0.55"/>
  <path d="M1496.423407514632 1500V1494.6669640238756H1315.7038764398546V5.3330359761244H1496.423407514632V0H876.0275571453441V5.319906941209304H1065.9483870714866V737.3240357096489H466.36459253760955V5.3330359761244H656.4524857943685V0H35.93879000268797V5.3330359761244H215.22885599670937V1494.6669640238756H35.93879000268797V1500H656.4524857943685V1494.6797382200093H466.36459253760955V742.6759642903511H1065.9483870714866V1494.6669640238756H876.0275571453441V1500Z" fill="#E7E0D3" transform="translate(69.322 101.000) scale(0.020131 -0.020131)"/>
  <path d="M557.0840811820773 -20Q411.336870443545 -20 305.2747185577316 46.0Q199.21256667191824 112 141.5747015349164 221.0Q83.93683639791453 330 83.93683639791453 460Q83.93683639791453 590 141.5747015349164 699.0Q199.21256667191824 808 305.2747185577316 873.9857551633118Q411.336870443545 939.9715103266236 557.0840811820773 939.9715103266236Q703.4168855298257 939.9715103266236 809.5317613117313 873.9857551633118Q915.6466370936371 808 972.9104918565622 699.0Q1030.1743466194873 590 1030.1743466194873 460Q1030.1743466194873 330 972.9104918565622 221.0Q915.6466370936371 112 809.5317613117313 46.0Q703.4168855298257 -20 557.0840811820773 -20ZM557.0840811820773 -14.6669640238756Q625.7006911608396 -14.6669640238756 668.6634754495203 28.726637528634324Q711.6262597382012 72.12023908114425 734.6531602334944 142.7172960438207Q757.6800607287876 213.31435300649719 766.3345400280873 296.9274959517421Q774.9890193273869 380.54063889698705 774.9890193273869 460.05833605083524Q774.9890193273869 540.3232323183182 766.3345400280873 623.5044396559106Q757.6800607287876 706.6856469935028 734.6531602334944 777.2827039561793Q711.6262597382012 847.8797609188557 668.6634754495203 891.2733624713657Q625.7006911608396 934.6669640238756 557.0840811820773 934.6669640238756Q488.4674712033151 934.6669640238756 445.50468691463425 891.2733624713657Q402.54190262595347 847.8797609188557 379.51500213066026 777.2827039561793Q356.4881016353671 706.6856469935028 347.8336223360674 623.4463173977306Q339.1791430367677 540.2069878019585 339.1791430367677 459.94228995641714Q339.1791430367677 380.4247884298353 347.8336223360674 296.86957071816624Q356.4881016353671 213.31435300649719 379.51500213066026 142.7172960438207Q402.54190262595347 72.12023908114425 445.50468691463425 28.726637528634324Q488.4674712033151 -14.6669640238756 557.0840811820773 -14.6669640238756Z" fill="#E7E0D3" transform="translate(100.343 101.000) scale(0.020131 -0.020131)"/>
  <path d="M1565.8015695639904 920V914.6669640238756H1378.4885435228575L1065.2071607496023 -20H1024.064279804888L771.4287195161697 671.355125434819L477.33027468509954 -20H436.10192472025585L132.61077571285176 914.6669640238756H15.689112497609228V920H542.4344967965189V914.6669640238756H374.85165113267084L580.2095802332524 237.7113609907752L879.0472428860331 939.9715103266236H951.3572668442222L1157.766221259286 277.6005806534359L1371.0319517844289 914.6669640238756H1168.4346413245444V920Z" fill="#E7E0D3" transform="translate(122.929 101.000) scale(0.020131 -0.020131)"/>
  <path d="M862.8748033230274 -20Q807.0555295084021 -20 760.2131582808377 -5.370207291722636Q713.3707870532733 9.259585416554728 684.9261772219429 47.05825768215874Q656.4815673906126 84.85692994776275 656.4815673906126 152.6622408853467V609Q656.4815673906126 681 644.6789366213156 754.2191479680869Q632.8763058520187 827.4382959361739 594.0879199194101 876.2928798324729Q555.2995339868014 925.147463728772 475.2995339868014 925.147463728772Q423.16942112618824 925.147463728772 368.0486131413545 912.2789364984621Q312.9278051565207 899.4104092681522 265.6027063856432 874.4548191848005Q218.27760761476569 849.4992291014488 188.98328161437396 812.6731395333554Q159.68895561398224 775.8470499652619 159.68895561398224 726.9604149630712H155.97505221610803Q155.97505221610803 783.7559377555393 196.40448164188513 817.9175539146984Q236.8339110676622 852.0791700738575 288.1729774007519 852.0791700738575Q342.5120437338417 852.0791700738575 384.9414731596188 820.799481296161Q427.37090258539587 789.5197925184644 427.37090258539587 730.9604149630712Q427.37090258539587 665.4168714224495 383.9414731596188 633.6292656373672Q340.5120437338417 601.8416598522849 288.1729774007519 601.8416598522849Q230.8339110676622 601.8416598522849 192.40448164188513 634.6292656373672Q153.97505221610803 667.4168714224495 153.97505221610803 726.9604149630712Q153.97505221610803 778.4960414963072 185.01541740056314 817.5079170073858Q216.05578258501822 856.5197925184644 268.6001062731662 882.767813266618Q321.1444299613142 909.0158340147715 386.670550309081 922.5079170073857Q452.1966706568479 936 520.1966706568479 936Q665.756048212241 936 745.2535523483234 890.6457821443876Q824.7510564844057 845.2915642887752 855.7430129387119 770.7955227924681Q886.7349693930181 696.2994812961609 886.7349693930181 609V92.45337006196345Q886.7349693930181 58.01232631797739 902.2498172654028 33.2211141054013Q917.7646651377876 8.429901892825207 958.8394694034023 8.429901892825207Q990.5593113208569 8.429901892825207 1033.061512844295 38.7644609608209Q1075.5637143677332 69.0990200288166 1101.7804930102104 126.53120809503586L1105.718636687245 123.92256167195121Q1077.7315938788688 57.57326727504964 1012.5925489854525 18.78663363752482Q947.4535040920362 -20 862.8748033230274 -20ZM368.975052216108 -20Q238.97505221610803 -20 161.47505221610803 46.5Q83.97505221610803 113 83.97505221610803 227Q83.97505221610803 361 197.8061726587814 432.6904337108749Q311.63729310145476 504.3808674217498 524.6372931014547 504.3808674217498H749.4815673906126V499.23826515650035H559.0720769852302Q477.37155828139123 499.23826515650035 429.43682070655825 456.8773534308988Q381.50208313172527 414.51644170529727 360.55631007652005 355.39722289854683Q339.6105370213148 296.27800409179633 339.6105370213148 243.7977966102607Q339.6105370213148 195.05769286949288 350.83792056546844 145.85398649982892Q362.06530410962205 96.65028013016499 389.6260313103782 63.81662563088493Q417.18675851113437 30.982971131604877 464.099188130213 30.982971131604877Q516.6586369955634 30.982971131604877 560.3235843945174 65.40010840175326Q603.9885317934713 99.81724567190165 630.235049592042 172.6720113348597Q656.4815673906126 245.52677699781773 656.4815673906126 361.14244836688226H661.2436037671313Q661.2436037671313 244.661044123612 630.428865146575 158.88453370208197Q599.6141265260188 73.10802328055195 535.2945893710635 26.554011640275974Q470.975052216108 -20 368.975052216108 -20Z" fill="#E7E0D3" transform="translate(165.523 101.000) scale(0.020131 -0.020131)"/>
  <path d="M311.39312648195755 0V5.3330359761244H531.3931264819576V1494.6669640238756H366.40775877514784Q281.9289643763915 1494.6669640238756 222.87423727821368 1459.0895844681327Q163.8195101800359 1423.5122049123895 125.54546499658733 1360.255061085457Q87.27141981313875 1296.9979172585247 67.23362322820435 1213.4395810738692Q47.19582664326995 1129.8812448892136 41.40030385080185 1034.8812448892136H35.93879000268797V1500H1277.3128863355741V1034.8812448892136H1271.1729027596389Q1265.6293592190173 1129.8812448892136 1245.4648445371176 1213.4395810738692Q1225.300329855218 1296.9979172585247 1187.016079538132 1360.255061085457Q1148.731829221046 1423.5122049123895 1089.3302554327993 1459.0895844681327Q1029.9286816445529 1494.6669640238756 946.0118854309391 1494.6669640238756H781.8681469251029V5.3330359761244H1001.868146925103V0Z" fill="#E7E0D3" transform="translate(198.193 101.000) scale(0.020131 -0.020131)"/>
  <path d="M862.8748033230274 -20Q807.0555295084021 -20 760.2131582808377 -5.370207291722636Q713.3707870532733 9.259585416554728 684.9261772219429 47.05825768215874Q656.4815673906126 84.85692994776275 656.4815673906126 152.6622408853467V609Q656.4815673906126 681 644.6789366213156 754.2191479680869Q632.8763058520187 827.4382959361739 594.0879199194101 876.2928798324729Q555.2995339868014 925.147463728772 475.2995339868014 925.147463728772Q423.16942112618824 925.147463728772 368.0486131413545 912.2789364984621Q312.9278051565207 899.4104092681522 265.6027063856432 874.4548191848005Q218.27760761476569 849.4992291014488 188.98328161437396 812.6731395333554Q159.68895561398224 775.8470499652619 159.68895561398224 726.9604149630712H155.97505221610803Q155.97505221610803 783.7559377555393 196.40448164188513 817.9175539146984Q236.8339110676622 852.0791700738575 288.1729774007519 852.0791700738575Q342.5120437338417 852.0791700738575 384.9414731596188 820.799481296161Q427.37090258539587 789.5197925184644 427.37090258539587 730.9604149630712Q427.37090258539587 665.4168714224495 383.9414731596188 633.6292656373672Q340.5120437338417 601.8416598522849 288.1729774007519 601.8416598522849Q230.8339110676622 601.8416598522849 192.40448164188513 634.6292656373672Q153.97505221610803 667.4168714224495 153.97505221610803 726.9604149630712Q153.97505221610803 778.4960414963072 185.01541740056314 817.5079170073858Q216.05578258501822 856.5197925184644 268.6001062731662 882.767813266618Q321.1444299613142 909.0158340147715 386.670550309081 922.5079170073857Q452.1966706568479 936 520.1966706568479 936Q665.756048212241 936 745.2535523483234 890.6457821443876Q824.7510564844057 845.2915642887752 855.7430129387119 770.7955227924681Q886.7349693930181 696.2994812961609 886.7349693930181 609V92.45337006196345Q886.7349693930181 58.01232631797739 902.2498172654028 33.2211141054013Q917.7646651377876 8.429901892825207 958.8394694034023 8.429901892825207Q990.5593113208569 8.429901892825207 1033.061512844295 38.7644609608209Q1075.5637143677332 69.0990200288166 1101.7804930102104 126.53120809503586L1105.718636687245 123.92256167195121Q1077.7315938788688 57.57326727504964 1012.5925489854525 18.78663363752482Q947.4535040920362 -20 862.8748033230274 -20ZM368.975052216108 -20Q238.97505221610803 -20 161.47505221610803 46.5Q83.97505221610803 113 83.97505221610803 227Q83.97505221610803 361 197.8061726587814 432.6904337108749Q311.63729310145476 504.3808674217498 524.6372931014547 504.3808674217498H749.4815673906126V499.23826515650035H559.0720769852302Q477.37155828139123 499.23826515650035 429.43682070655825 456.8773534308988Q381.50208313172527 414.51644170529727 360.55631007652005 355.39722289854683Q339.6105370213148 296.27800409179633 339.6105370213148 243.7977966102607Q339.6105370213148 195.05769286949288 350.83792056546844 145.85398649982892Q362.06530410962205 96.65028013016499 389.6260313103782 63.81662563088493Q417.18675851113437 30.982971131604877 464.099188130213 30.982971131604877Q516.6586369955634 30.982971131604877 560.3235843945174 65.40010840175326Q603.9885317934713 99.81724567190165 630.235049592042 172.6720113348597Q656.4815673906126 245.52677699781773 656.4815673906126 361.14244836688226H661.2436037671313Q661.2436037671313 244.661044123612 630.428865146575 158.88453370208197Q599.6141265260188 73.10802328055195 535.2945893710635 26.554011640275974Q470.975052216108 -20 368.975052216108 -20Z" fill="#E7E0D3" transform="translate(221.665 101.000) scale(0.020131 -0.020131)"/>
  <path d="M95.11931903007998 -20V275.4606311913039H100.49044174837937Q114.10510927945431 191.92715870950045 166.0367665739898 126.51568634977792Q217.9684238685253 61.104213990055406 295.4783962876689 23.990487636730215Q372.9883687068125 -13.123238716594976 463.0017564467908 -13.123238716594976Q525.3116195837641 -13.123238716594976 578.2295153412895 4.9547655653356415Q631.1474110988147 23.03276984726626 663.3666499805728 61.216286627288056Q695.5858888623309 99.39980340730985 695.5858888623309 159.94067051075976Q695.5858888623309 220.05571550929855 653.9107723590312 254.2867606789551Q612.2356558557316 288.51780584861166 546.2537946581034 311.0271013843911Q480.2719334604753 333.5363969201705 406.1736797057224 356.2035917612552Q332.0754259509696 378.87078660233993 266.09356475334147 413.3819728492217Q200.11170355571335 447.89315909610355 158.4365870524137 506.34652596552604Q116.76147054911404 564.7998928349485 116.76147054911404 660.1487473131541Q116.76147054911404 731.7081248685473 150.99842481674594 795.0409899106427Q185.23537908437785 858.373854952738 250.97713188640898 898.186927476369Q316.71888468844014 938 411.68079794626516 938Q483.5304325719971 938 542.0638762011115 914.5609378504457Q600.597319830226 891.1218757008916 643.597319830226 853.1771749862318L749.299102310836 939.9715103266236H754.4701942494621V660H749.1086685999611Q735.6784993668073 727.9800303393641 691.1852149576291 790.3900689423422Q646.691930548451 852.8001075453201 576.1333480591272 892.6906505080235Q505.5747655698034 932.581193470727 413.1864365113708 932.581193470727Q355.6533760192882 932.581193470727 311.9987366438206 915.3904536023456Q268.34409726835304 898.199713733964 243.57024836545168 866.3346065096598Q218.79639946255028 834.4694992853555 218.79639946255028 791.1743837974374Q218.79639946255028 733.9134012331723 262.5650574147038 699.2640173464617Q306.33371536685735 664.6146334597513 375.18082990047014 640.0165950095172Q444.0279444340829 615.4185565592832 520.9916022913299 591.1485247335652Q597.9552601485769 566.8784929078472 666.8023746821898 530.997405557091Q735.6494892158025 495.1163182063349 779.418147167956 437.65266500391704Q823.1868051201096 380.18901180149913 823.1868051201096 288.8401573232935Q823.1868051201096 192.28077976790036 774.6970315699249 123.19356614834896Q726.2072580197402 54.10635252879756 646.035200106247 17.05317626439878Q565.8631421927537 -20 471.4684037313475 -20Q394.1559559339041 -20 327.29840430078644 5.097499952546757Q260.44085266766876 30.194999905093514 209.48031793823736 74.4075138863713L100.26192129532946 -20Z" fill="#E7E0D3" transform="translate(244.069 101.000) scale(0.020131 -0.020131)"/>
  <path d="M53.20770825433892 0V5.3330359761244H219.2898078419844V1494.6669640238756H53.20770825433892V1500H448.93763746311873V5.3330359761244H573.8188823523324V0ZM692.0951765456297 0V5.3330359761244H829.74346380291L413.66976643043944 527.1535437304345L930.6334019423649 914.6669640238756H696.2886739217319V920H1112.9376374631186V914.6669640238756H937.7996169047781L590.9107379825643 649.7993805393676L1116.7289905383989 5.3330359761244H1196.8044133220585V0Z" fill="#E7E0D3" transform="translate(262.306 101.000) scale(0.020131 -0.020131)"/>
  <path d="M783.1716235733403 -20Q570.0924534994828 -20 412.9347958440165 79.51904337108749Q255.77713818855025 179.03808674217498 169.40945564377594 353.038086742175Q83.04177309900163 527.038086742175 83.04177309900163 750Q83.04177309900163 973 169.40945564377594 1146.9809566289125Q255.77713818855025 1320.961913257825 412.9347958440165 1420.4809566289125Q570.0924534994828 1520 783.1716235733403 1520Q880.3538480534687 1520 964.5955719724692 1485.932578898913Q1048.8372958914697 1451.865157797826 1111.916527965626 1390.6939089148896L1263.6321008662771 1500H1268.803192804903V1074.871647820415H1262.443347216815Q1245.3894977698255 1200.4513058184382 1179.2456925650406 1298.505446504391Q1113.1018873602557 1396.559587190344 1014.9011533822395 1452.5511961929385Q916.7004194042233 1508.542805195533 803.1716235733403 1508.542805195533Q682.4948558916585 1508.542805195533 599.5542334470517 1442.2618793462939Q516.6136110024449 1375.980953497055 467.27918566529695 1265.7571577610784Q417.9447603281489 1155.5333620251017 395.71653209845977 1021.2524361758626Q373.4883038687706 886.9715103266236 373.4883038687706 750Q373.4883038687706 614 395.71653209845977 479.23331898744914Q417.9447603281489 344.4666379748983 467.27918566529695 234.2428422389217Q516.6136110024449 124.01904650294512 599.5542334470517 57.73812065370604Q682.4948558916585 -8.542805195533033 803.1716235733403 -8.542805195533033Q906.2444462445231 -8.542805195533033 989.7661650987268 25.81276484315279Q1073.2878839529305 60.16833488183862 1135.246829473937 120.68942435502558Q1197.2057749949433 181.21051382821253 1234.6944069814026 259.37015770259814Q1272.1830389678619 337.52980157698374 1282.9377086517093 425.12835217958485H1288.8127898737016V0H1283.6225037974784L1145.0773949470665 119.42263437840285Q1080.5054814994287 54.80470787154576 988.2798332450388 17.40235393577288Q896.0541849906489 -20 783.1716235733403 -20Z" fill="#E7E0D3" transform="translate(297.513 101.000) scale(0.020131 -0.020131)"/>
  <path d="M862.8748033230274 -20Q807.0555295084021 -20 760.2131582808377 -5.370207291722636Q713.3707870532733 9.259585416554728 684.9261772219429 47.05825768215874Q656.4815673906126 84.85692994776275 656.4815673906126 152.6622408853467V609Q656.4815673906126 681 644.6789366213156 754.2191479680869Q632.8763058520187 827.4382959361739 594.0879199194101 876.2928798324729Q555.2995339868014 925.147463728772 475.2995339868014 925.147463728772Q423.16942112618824 925.147463728772 368.0486131413545 912.2789364984621Q312.9278051565207 899.4104092681522 265.6027063856432 874.4548191848005Q218.27760761476569 849.4992291014488 188.98328161437396 812.6731395333554Q159.68895561398224 775.8470499652619 159.68895561398224 726.9604149630712H155.97505221610803Q155.97505221610803 783.7559377555393 196.40448164188513 817.9175539146984Q236.8339110676622 852.0791700738575 288.1729774007519 852.0791700738575Q342.5120437338417 852.0791700738575 384.9414731596188 820.799481296161Q427.37090258539587 789.5197925184644 427.37090258539587 730.9604149630712Q427.37090258539587 665.4168714224495 383.9414731596188 633.6292656373672Q340.5120437338417 601.8416598522849 288.1729774007519 601.8416598522849Q230.8339110676622 601.8416598522849 192.40448164188513 634.6292656373672Q153.97505221610803 667.4168714224495 153.97505221610803 726.9604149630712Q153.97505221610803 778.4960414963072 185.01541740056314 817.5079170073858Q216.05578258501822 856.5197925184644 268.6001062731662 882.767813266618Q321.1444299613142 909.0158340147715 386.670550309081 922.5079170073857Q452.1966706568479 936 520.1966706568479 936Q665.756048212241 936 745.2535523483234 890.6457821443876Q824.7510564844057 845.2915642887752 855.7430129387119 770.7955227924681Q886.7349693930181 696.2994812961609 886.7349693930181 609V92.45337006196345Q886.7349693930181 58.01232631797739 902.2498172654028 33.2211141054013Q917.7646651377876 8.429901892825207 958.8394694034023 8.429901892825207Q990.5593113208569 8.429901892825207 1033.061512844295 38.7644609608209Q1075.5637143677332 69.0990200288166 1101.7804930102104 126.53120809503586L1105.718636687245 123.92256167195121Q1077.7315938788688 57.57326727504964 1012.5925489854525 18.78663363752482Q947.4535040920362 -20 862.8748033230274 -20ZM368.975052216108 -20Q238.97505221610803 -20 161.47505221610803 46.5Q83.97505221610803 113 83.97505221610803 227Q83.97505221610803 361 197.8061726587814 432.6904337108749Q311.63729310145476 504.3808674217498 524.6372931014547 504.3808674217498H749.4815673906126V499.23826515650035H559.0720769852302Q477.37155828139123 499.23826515650035 429.43682070655825 456.8773534308988Q381.50208313172527 414.51644170529727 360.55631007652005 355.39722289854683Q339.6105370213148 296.27800409179633 339.6105370213148 243.7977966102607Q339.6105370213148 195.05769286949288 350.83792056546844 145.85398649982892Q362.06530410962205 96.65028013016499 389.6260313103782 63.81662563088493Q417.18675851113437 30.982971131604877 464.099188130213 30.982971131604877Q516.6586369955634 30.982971131604877 560.3235843945174 65.40010840175326Q603.9885317934713 99.81724567190165 630.235049592042 172.6720113348597Q656.4815673906126 245.52677699781773 656.4815673906126 361.14244836688226H661.2436037671313Q661.2436037671313 244.661044123612 630.428865146575 158.88453370208197Q599.6141265260188 73.10802328055195 535.2945893710635 26.554011640275974Q470.975052216108 -20 368.975052216108 -20Z" fill="#E7E0D3" transform="translate(325.313 101.000) scale(0.020131 -0.020131)"/>
  <path d="M408.82367876961285 920V5.3330359761244H519.0009157561434V0H53.20770825433892V5.3330359761244H179.2898078419844V914.6669640238756H53.20770825433892V920ZM1019.5432098443898 638.038086742175V5.3330359761244H1144.8961812884597V0H679.0555915087009V5.3330359761244H788.5417870938309V625.5246508146771Q788.5417870938309 709.5246508146771 781.6535318830659 773.2239510662903Q774.7652766723007 836.9232513179036 751.7708243540769 872.6225515695169Q728.7763720358531 908.3218518211302 679.8602807609299 908.3218518211302Q590.0756343267217 908.3218518211302 535.8790694717463 862.0876788688288Q481.682504616771 815.8535059165273 454.1975677936746 744.0678367612398Q426.7126309705782 672.2821676059524 417.7681548700955 592.8005124031847Q408.82367876961285 513.318857200417 408.82367876961285 446.0758719513309L403.92788649595303 438.73811283667754Q403.92788649595303 511.1075399808739 413.24004514121 597.4245710081977Q422.552203786467 683.7416020355216 454.2764595479757 761.7242387258468Q486.0007153094844 839.7068754161721 553.1015707300274 889.8391928713979Q620.2024261505705 939.9715103266236 735.0887782997422 939.9715103266236Q849.5788843830956 939.9715103266236 911.1195557553989 900.9857551633118Q972.6602271277022 862 996.101718486046 793.5190433710875Q1019.5432098443898 725.038086742175 1019.5432098443898 638.038086742175Z" fill="#E7E0D3" transform="translate(347.717 101.000) scale(0.020131 -0.020131)"/>
  <path d="M783.1716235733403 -20Q570.0924534994828 -20 412.9347958440165 79.51904337108749Q255.77713818855025 179.03808674217498 169.40945564377594 353.038086742175Q83.04177309900163 527.038086742175 83.04177309900163 750Q83.04177309900163 973 169.40945564377594 1146.9809566289125Q255.77713818855025 1320.961913257825 412.9347958440165 1420.4809566289125Q570.0924534994828 1520 783.1716235733403 1520Q880.3538480534687 1520 964.5955719724692 1485.932578898913Q1048.8372958914697 1451.865157797826 1111.916527965626 1390.6939089148896L1263.6321008662771 1500H1268.803192804903V1074.871647820415H1262.443347216815Q1245.3894977698255 1200.4513058184382 1179.2456925650406 1298.505446504391Q1113.1018873602557 1396.559587190344 1014.9011533822395 1452.5511961929385Q916.7004194042233 1508.542805195533 803.1716235733403 1508.542805195533Q682.4948558916585 1508.542805195533 599.5542334470517 1442.2618793462939Q516.6136110024449 1375.980953497055 467.27918566529695 1265.7571577610784Q417.9447603281489 1155.5333620251017 395.71653209845977 1021.2524361758626Q373.4883038687706 886.9715103266236 373.4883038687706 750Q373.4883038687706 614 395.71653209845977 479.23331898744914Q417.9447603281489 344.4666379748983 467.27918566529695 234.2428422389217Q516.6136110024449 124.01904650294512 599.5542334470517 57.73812065370604Q682.4948558916585 -8.542805195533033 803.1716235733403 -8.542805195533033Q906.2444462445231 -8.542805195533033 989.7661650987268 25.81276484315279Q1073.2878839529305 60.16833488183862 1135.246829473937 120.68942435502558Q1197.2057749949433 181.21051382821253 1234.6944069814026 259.37015770259814Q1272.1830389678619 337.52980157698374 1282.9377086517093 425.12835217958485H1288.8127898737016V0H1283.6225037974784L1145.0773949470665 119.42263437840285Q1080.5054814994287 54.80470787154576 988.2798332450388 17.40235393577288Q896.0541849906489 -20 783.1716235733403 -20Z" fill="#E7E0D3" transform="translate(382.279 101.000) scale(0.020131 -0.020131)"/>
  <path d="M557.0840811820773 -20Q411.336870443545 -20 305.2747185577316 46.0Q199.21256667191824 112 141.5747015349164 221.0Q83.93683639791453 330 83.93683639791453 460Q83.93683639791453 590 141.5747015349164 699.0Q199.21256667191824 808 305.2747185577316 873.9857551633118Q411.336870443545 939.9715103266236 557.0840811820773 939.9715103266236Q703.4168855298257 939.9715103266236 809.5317613117313 873.9857551633118Q915.6466370936371 808 972.9104918565622 699.0Q1030.1743466194873 590 1030.1743466194873 460Q1030.1743466194873 330 972.9104918565622 221.0Q915.6466370936371 112 809.5317613117313 46.0Q703.4168855298257 -20 557.0840811820773 -20ZM557.0840811820773 -14.6669640238756Q625.7006911608396 -14.6669640238756 668.6634754495203 28.726637528634324Q711.6262597382012 72.12023908114425 734.6531602334944 142.7172960438207Q757.6800607287876 213.31435300649719 766.3345400280873 296.9274959517421Q774.9890193273869 380.54063889698705 774.9890193273869 460.05833605083524Q774.9890193273869 540.3232323183182 766.3345400280873 623.5044396559106Q757.6800607287876 706.6856469935028 734.6531602334944 777.2827039561793Q711.6262597382012 847.8797609188557 668.6634754495203 891.2733624713657Q625.7006911608396 934.6669640238756 557.0840811820773 934.6669640238756Q488.4674712033151 934.6669640238756 445.50468691463425 891.2733624713657Q402.54190262595347 847.8797609188557 379.51500213066026 777.2827039561793Q356.4881016353671 706.6856469935028 347.8336223360674 623.4463173977306Q339.1791430367677 540.2069878019585 339.1791430367677 459.94228995641714Q339.1791430367677 380.4247884298353 347.8336223360674 296.86957071816624Q356.4881016353671 213.31435300649719 379.51500213066026 142.7172960438207Q402.54190262595347 72.12023908114425 445.50468691463425 28.726637528634324Q488.4674712033151 -14.6669640238756 557.0840811820773 -14.6669640238756Z" fill="#E7E0D3" transform="translate(410.079 101.000) scale(0.020131 -0.020131)"/>
  <path d="M408.82367876961285 920V5.3330359761244H519.0009157561434V0H53.20770825433892V5.3330359761244H179.2898078419844V914.6669640238756H53.20770825433892V920ZM1019.5432098443898 638.038086742175V5.3330359761244H1144.8961812884597V0H679.0555915087009V5.3330359761244H788.5417870938309V625.5246508146771Q788.5417870938309 709.5246508146771 781.6535318830659 773.2239510662903Q774.7652766723007 836.9232513179036 751.7708243540769 872.6225515695169Q728.7763720358531 908.3218518211302 679.8602807609299 908.3218518211302Q590.0756343267217 908.3218518211302 535.8790694717463 862.0876788688288Q481.682504616771 815.8535059165273 454.1975677936746 744.0678367612398Q426.7126309705782 672.2821676059524 417.7681548700955 592.8005124031847Q408.82367876961285 513.318857200417 408.82367876961285 446.0758719513309L403.92788649595303 438.73811283667754Q403.92788649595303 511.1075399808739 413.24004514121 597.4245710081977Q422.552203786467 683.7416020355216 454.2764595479757 761.7242387258468Q486.0007153094844 839.7068754161721 553.1015707300274 889.8391928713979Q620.2024261505705 939.9715103266236 735.0887782997422 939.9715103266236Q849.5788843830956 939.9715103266236 911.1195557553989 900.9857551633118Q972.6602271277022 862 996.101718486046 793.5190433710875Q1019.5432098443898 725.038086742175 1019.5432098443898 638.038086742175Z" fill="#E7E0D3" transform="translate(432.665 101.000) scale(0.020131 -0.020131)"/>
  <path d="M386.41523050778136 -14Q296.8558529523882 -14 252.60085076571391 20.124400447839935Q208.34584857903963 54.24880089567987 193.61063891082978 109.37874902529596Q178.8754292426199 164.50869715491206 178.8754292426199 227.06807471030524V1120Q235.21449557570966 1120 301.5591095905756 1137.1101556111516Q367.90372360544154 1154.2203112223035 409.24278993853125 1180V155.87868087753805Q409.24278993853125 80.87868087753805 427.237991404132 52.37877176086754Q445.23319286973276 23.878862644197028 485.3282589586607 23.878862644197028Q538.2540763784009 23.878862644197028 592.7216973638283 75.13017125116338Q647.1893183492558 126.38147985812972 678.8005246104618 203.6785241891559L683.9434284087305 202.9458820850709Q647.8294697152246 107.37322718571784 570.7244621769609 46.68661359285892Q493.6194546386971 -14 386.41523050778136 -14ZM33.21730532313744 914.6669640238756V920H623.2427899385312V914.6669640238756Z" fill="#E7E0D3" transform="translate(456.961 101.000) scale(0.020131 -0.020131)"/>
  <path d="M304.37319700306176 1229.4332115904533Q244.14866669353856 1229.4332115904533 201.71923726776149 1272.0225760292165Q159.2898078419844 1314.6119404679796 159.2898078419844 1374.5450904249074Q159.2898078419844 1435.9986927815637 201.71923726776149 1477.9281222073407Q244.14866669353856 1519.8575516331177 304.37319700306176 1519.8575516331177Q365.8267993597181 1519.8575516331177 407.7562287854952 1477.9281222073407Q449.68565821127225 1435.9986927815637 449.68565821127225 1374.5450904249074Q449.68565821127225 1314.320560115384 407.7562287854952 1271.8768858529188Q365.8267993597181 1229.4332115904533 304.37319700306176 1229.4332115904533ZM418.93763746311873 920V5.3330359761244H544.2906089071886V0H63.21730532313744V5.3330359761244H188.54178709383083V914.6669640238756H63.21730532313744V920Z" fill="#E7E0D3" transform="translate(471.414 101.000) scale(0.020131 -0.020131)"/>
  <path d="M408.82367876961285 920V5.3330359761244H519.0009157561434V0H53.20770825433892V5.3330359761244H179.2898078419844V914.6669640238756H53.20770825433892V920ZM1019.5432098443898 638.038086742175V5.3330359761244H1144.8961812884597V0H679.0555915087009V5.3330359761244H788.5417870938309V625.5246508146771Q788.5417870938309 709.5246508146771 781.6535318830659 773.2239510662903Q774.7652766723007 836.9232513179036 751.7708243540769 872.6225515695169Q728.7763720358531 908.3218518211302 679.8602807609299 908.3218518211302Q590.0756343267217 908.3218518211302 535.8790694717463 862.0876788688288Q481.682504616771 815.8535059165273 454.1975677936746 744.0678367612398Q426.7126309705782 672.2821676059524 417.7681548700955 592.8005124031847Q408.82367876961285 513.318857200417 408.82367876961285 446.0758719513309L403.92788649595303 438.73811283667754Q403.92788649595303 511.1075399808739 413.24004514121 597.4245710081977Q422.552203786467 683.7416020355216 454.2764595479757 761.7242387258468Q486.0007153094844 839.7068754161721 553.1015707300274 889.8391928713979Q620.2024261505705 939.9715103266236 735.0887782997422 939.9715103266236Q849.5788843830956 939.9715103266236 911.1195557553989 900.9857551633118Q972.6602271277022 862 996.101718486046 793.5190433710875Q1019.5432098443898 725.038086742175 1019.5432098443898 638.038086742175Z" fill="#E7E0D3" transform="translate(483.693 101.000) scale(0.020131 -0.020131)"/>
  <path d="M463.1290699365623 -20Q348.6485609220076 -20 287.42012204262886 19.5Q226.19168316325008 59 202.74074550261724 127.0Q179.2898078419844 195 179.2898078419844 282V914.6669640238756H53.20770825433892V920H408.93763746311873V294.47534918532295Q408.93763746311873 210.47534918532293 415.84013751057194 146.77604893370966Q422.7426375580252 83.07674868209638 446.1111002503258 47.3774484304831Q469.47956294262644 11.678148178869824 518.3671645441732 11.678148178869824Q608.1614080471799 11.678148178869824 662.3437280654671 57.91232113117125Q716.5260480837542 104.14649408347267 743.6179311616863 175.93216323876013Q770.7098142396185 247.71783239404758 779.6258006667247 327.21373243350354Q788.5417870938309 406.70963247295947 788.5417870938309 473.9241280486691L794.1001310955148 481.26188716332246Q794.1001310955148 408.8924600191261 784.8449517970108 322.561184155114Q775.5897724985068 236.22990829110194 743.93194238604 158.24727160077666Q712.2741122735731 80.26463491045139 645.5330223904186 30.132317455225696Q578.791932507264 -20 463.1290699365623 -20ZM788.5417870938309 0V914.6669640238756H653.5813721307596V920H1019.6856582112722V5.3330359761244H1145.0101399819657V0Z" fill="#E7E0D3" transform="translate(507.990 101.000) scale(0.020131 -0.020131)"/>
  <path d="M562.1939229097189 -20Q426.26829656629604 -20 318.06774897942637 36.49208299261424Q209.86720139255667 92.98416598522849 146.90201889523559 200.23218673338204Q83.93683639791453 307.4802074815356 83.93683639791453 460Q83.93683639791453 612.5197925184644 145.34503954848267 719.7535684299298Q206.75324269905082 826.9873443413951 313.4110557758558 883.4794273340094Q420.0688688526608 939.9715103266236 556.0229848694602 939.9715103266236Q704.9090261759544 939.9715103266236 798.9305632938408 880.5044970013803Q892.9521004117271 821.0374836761368 937.5163720396781 725.0752688852926Q982.0806436676293 629.1130540944486 982.0806436676293 520.1130540944486H217.9557290024925V525.4556871393714H727.2441708537347Q727.7117226766653 587.9309835126874 722.0143534459622 658.4876489455885Q716.3169842152591 729.0443143784896 699.1781835093923 792.0556653260269Q682.0393828035253 855.0670162735641 647.6865987046575 894.8669901487199Q613.3338146057897 934.6669640238756 556.0229848694602 934.6669640238756Q493.4190305493029 934.6669640238756 452.29765303629074 894.8835180825174Q411.17627552327866 855.1000721411591 387.4099558965853 787.8873118855547Q363.64363626989194 720.6745516299504 353.9359807061935 638.376860851904Q344.22832514249507 556.0791700738575 344.22832514249507 470.07917007385754Q344.22832514249507 379.255157608013 354.7204081351093 293.2102262293393Q365.2124911277236 207.1652948506656 392.4113896533299 139.30507238926089Q419.6102881789362 71.44484992785617 468.27362005448674 31.1716903194933Q516.9369519300373 -9.101469288869568 593.0274704440632 -9.101469288869568Q742.2476278286829 -9.101469288869568 842.0973316169116 76.0910936814308Q941.9470354051402 161.28365665173118 978.9470354051402 285.28775816558846H984.4510094215234Q945.4510094215234 155.5441652259766 841.0451755965648 67.7720826129883Q736.6393417716064 -20 562.1939229097189 -20Z" fill="#E7E0D3" transform="translate(532.286 101.000) scale(0.020131 -0.020131)"/>
  <path d="M862.8748033230274 -20Q807.0555295084021 -20 760.2131582808377 -5.370207291722636Q713.3707870532733 9.259585416554728 684.9261772219429 47.05825768215874Q656.4815673906126 84.85692994776275 656.4815673906126 152.6622408853467V609Q656.4815673906126 681 644.6789366213156 754.2191479680869Q632.8763058520187 827.4382959361739 594.0879199194101 876.2928798324729Q555.2995339868014 925.147463728772 475.2995339868014 925.147463728772Q423.16942112618824 925.147463728772 368.0486131413545 912.2789364984621Q312.9278051565207 899.4104092681522 265.6027063856432 874.4548191848005Q218.27760761476569 849.4992291014488 188.98328161437396 812.6731395333554Q159.68895561398224 775.8470499652619 159.68895561398224 726.9604149630712H155.97505221610803Q155.97505221610803 783.7559377555393 196.40448164188513 817.9175539146984Q236.8339110676622 852.0791700738575 288.1729774007519 852.0791700738575Q342.5120437338417 852.0791700738575 384.9414731596188 820.799481296161Q427.37090258539587 789.5197925184644 427.37090258539587 730.9604149630712Q427.37090258539587 665.4168714224495 383.9414731596188 633.6292656373672Q340.5120437338417 601.8416598522849 288.1729774007519 601.8416598522849Q230.8339110676622 601.8416598522849 192.40448164188513 634.6292656373672Q153.97505221610803 667.4168714224495 153.97505221610803 726.9604149630712Q153.97505221610803 778.4960414963072 185.01541740056314 817.5079170073858Q216.05578258501822 856.5197925184644 268.6001062731662 882.767813266618Q321.1444299613142 909.0158340147715 386.670550309081 922.5079170073857Q452.1966706568479 936 520.1966706568479 936Q665.756048212241 936 745.2535523483234 890.6457821443876Q824.7510564844057 845.2915642887752 855.7430129387119 770.7955227924681Q886.7349693930181 696.2994812961609 886.7349693930181 609V92.45337006196345Q886.7349693930181 58.01232631797739 902.2498172654028 33.2211141054013Q917.7646651377876 8.429901892825207 958.8394694034023 8.429901892825207Q990.5593113208569 8.429901892825207 1033.061512844295 38.7644609608209Q1075.5637143677332 69.0990200288166 1101.7804930102104 126.53120809503586L1105.718636687245 123.92256167195121Q1077.7315938788688 57.57326727504964 1012.5925489854525 18.78663363752482Q947.4535040920362 -20 862.8748033230274 -20ZM368.975052216108 -20Q238.97505221610803 -20 161.47505221610803 46.5Q83.97505221610803 113 83.97505221610803 227Q83.97505221610803 361 197.8061726587814 432.6904337108749Q311.63729310145476 504.3808674217498 524.6372931014547 504.3808674217498H749.4815673906126V499.23826515650035H559.0720769852302Q477.37155828139123 499.23826515650035 429.43682070655825 456.8773534308988Q381.50208313172527 414.51644170529727 360.55631007652005 355.39722289854683Q339.6105370213148 296.27800409179633 339.6105370213148 243.7977966102607Q339.6105370213148 195.05769286949288 350.83792056546844 145.85398649982892Q362.06530410962205 96.65028013016499 389.6260313103782 63.81662563088493Q417.18675851113437 30.982971131604877 464.099188130213 30.982971131604877Q516.6586369955634 30.982971131604877 560.3235843945174 65.40010840175326Q603.9885317934713 99.81724567190165 630.235049592042 172.6720113348597Q656.4815673906126 245.52677699781773 656.4815673906126 361.14244836688226H661.2436037671313Q661.2436037671313 244.661044123612 630.428865146575 158.88453370208197Q599.6141265260188 73.10802328055195 535.2945893710635 26.554011640275974Q470.975052216108 -20 368.975052216108 -20Z" fill="#E7E0D3" transform="translate(564.071 101.000) scale(0.020131 -0.020131)"/>
  <path d="M408.82367876961285 920V5.3330359761244H519.0009157561434V0H53.20770825433892V5.3330359761244H179.2898078419844V914.6669640238756H53.20770825433892V920ZM1019.5432098443898 638.038086742175V5.3330359761244H1144.8961812884597V0H679.0555915087009V5.3330359761244H788.5417870938309V625.5246508146771Q788.5417870938309 709.5246508146771 781.6535318830659 773.2239510662903Q774.7652766723007 836.9232513179036 751.7708243540769 872.6225515695169Q728.7763720358531 908.3218518211302 679.8602807609299 908.3218518211302Q590.0756343267217 908.3218518211302 535.8790694717463 862.0876788688288Q481.682504616771 815.8535059165273 454.1975677936746 744.0678367612398Q426.7126309705782 672.2821676059524 417.7681548700955 592.8005124031847Q408.82367876961285 513.318857200417 408.82367876961285 446.0758719513309L403.92788649595303 438.73811283667754Q403.92788649595303 511.1075399808739 413.24004514121 597.4245710081977Q422.552203786467 683.7416020355216 454.2764595479757 761.7242387258468Q486.0007153094844 839.7068754161721 553.1015707300274 889.8391928713979Q620.2024261505705 939.9715103266236 735.0887782997422 939.9715103266236Q849.5788843830956 939.9715103266236 911.1195557553989 900.9857551633118Q972.6602271277022 862 996.101718486046 793.5190433710875Q1019.5432098443898 725.038086742175 1019.5432098443898 638.038086742175Z" fill="#E7E0D3" transform="translate(586.475 101.000) scale(0.020131 -0.020131)"/>
  <path d="M507.594960317397 -18.52285110827082Q398.7089190109029 -18.52285110827082 301.7943880310322 38.477148891729186Q204.8798570511616 95.47714889172919 144.40834672453806 202.4771488917292Q83.93683639791453 309.4771488917292 83.93683639791453 459.4771488917292Q83.93683639791453 609.4771488917291 144.40834672453806 716.9771488917291Q204.8798570511616 824.4771488917291 301.7943880310322 881.9771488917291Q398.7089190109029 939.4771488917291 507.594960317397 939.4771488917291Q642.565402897621 939.4771488917291 722.5154359895382 839.8275404515248Q802.4654690814555 740.1779320113205 819.0748569562552 557.8066679220843V1494.6669640238756H693.7218855121853V1500H1050.2187280736964V5.3330359761244H1175.5432098443898V0H819.0748569562552V360.905247678326Q802.4654690814555 178.80485544551436 722.7626167069855 80.14100216862177Q643.0597643325154 -18.52285110827082 507.594960317397 -18.52285110827082ZM552.9809256894464 1.5554392495614393Q623.7824552048256 1.5554392495614393 684.6181681870378 52.340560597503234Q745.45388116925 103.12568194544502 782.2643690627526 204.6680380036487Q819.0748569562552 306.21039406185236 819.0748569562552 459.4771488917292Q819.0748569562552 612.7630978592031 782.2643690627526 714.8196987540949Q745.45388116925 816.8762996489868 684.6181681870378 868.1423776258412Q623.7824552048256 919.4084556026955 552.9809256894464 919.4084556026955Q481.75082632202714 919.4084556026955 436.8027344843924 862.4294666037273Q391.8546426467576 805.450477604759 370.55647787869145 701.9644116291115Q349.2583131106253 598.4783456534639 349.2583131106253 459.4771488917292Q349.2583131106253 320.4759521299945 370.55647787869145 217.49468468874616Q391.8546426467576 114.51341724749784 436.8027344843924 58.03442824852964Q481.75082632202714 1.5554392495614393 552.9809256894464 1.5554392495614393Z" fill="#E7E0D3" transform="translate(610.772 101.000) scale(0.020131 -0.020131)"/>
  <path d="M35.93879000268797 0V5.3330359761244H665.586955926989Q748.9465736998177 5.3330359761244 817.0329782888122 59.49025529654955Q885.1193828778066 113.6474746169747 925.5734700115754 207.32373730848735Q966.0275571453441 301 966.0275571453441 420Q966.0275571453441 539 925.5734700115754 615.8428544969008Q885.1193828778066 692.6857089938015 817.1442616965637 730.0143186540141Q749.1691405153208 767.3429283142267 665.820034034698 767.3429283142267H436.26506736691675V772.1523469686999H706.6250999538114Q854.932104669544 772.1523469686999 977.3417415768565 737.7362913487552Q1099.7513784841692 703.3202357288106 1172.7672124989408 624.1403253459409Q1245.7830465137122 544.9604149630712 1245.7830465137122 409.92082992614246Q1245.7830465137122 188.700518703839 1102.8642840034665 94.3502593519195Q959.9455214932209 0 706.810650781529 0ZM215.22885599670937 2.5527100610659V1497.447289938934H466.4518971880084V2.5527100610659ZM436.26506736691675 767.8476530313001V772.6855613591497H646.1858972930593Q719.6661047745948 772.6855613591497 783.3927438262008 807.4951276482748Q847.1193828778066 842.3046939373999 886.5877148482637 916.6333035976124Q926.0560468187206 990.961913257825 926.0560468187206 1109.961913257825Q926.0560468187206 1228.961913257825 886.5877148482637 1315.1381759493377Q847.1193828778066 1401.3144386408503 783.2649766260067 1447.990701332363Q719.4105703742067 1494.6669640238756 646.1858972930593 1494.6669640238756H35.93879000268797V1500H666.3538345095728Q904.6833037738642 1500 1045.597739215576 1412.5Q1186.512174657288 1325 1186.512174657288 1130Q1186.512174657288 938.808178451073 1053.1025377499752 853.3279157411865Q919.6929008426625 767.8476530313001 666.3538345095728 767.8476530313001Z" fill="#E7E0D3" transform="translate(645.958 101.000) scale(0.020131 -0.020131)"/>
  <path d="M562.1939229097189 -20Q426.26829656629604 -20 318.06774897942637 36.49208299261424Q209.86720139255667 92.98416598522849 146.90201889523559 200.23218673338204Q83.93683639791453 307.4802074815356 83.93683639791453 460Q83.93683639791453 612.5197925184644 145.34503954848267 719.7535684299298Q206.75324269905082 826.9873443413951 313.4110557758558 883.4794273340094Q420.0688688526608 939.9715103266236 556.0229848694602 939.9715103266236Q704.9090261759544 939.9715103266236 798.9305632938408 880.5044970013803Q892.9521004117271 821.0374836761368 937.5163720396781 725.0752688852926Q982.0806436676293 629.1130540944486 982.0806436676293 520.1130540944486H217.9557290024925V525.4556871393714H727.2441708537347Q727.7117226766653 587.9309835126874 722.0143534459622 658.4876489455885Q716.3169842152591 729.0443143784896 699.1781835093923 792.0556653260269Q682.0393828035253 855.0670162735641 647.6865987046575 894.8669901487199Q613.3338146057897 934.6669640238756 556.0229848694602 934.6669640238756Q493.4190305493029 934.6669640238756 452.29765303629074 894.8835180825174Q411.17627552327866 855.1000721411591 387.4099558965853 787.8873118855547Q363.64363626989194 720.6745516299504 353.9359807061935 638.376860851904Q344.22832514249507 556.0791700738575 344.22832514249507 470.07917007385754Q344.22832514249507 379.255157608013 354.7204081351093 293.2102262293393Q365.2124911277236 207.1652948506656 392.4113896533299 139.30507238926089Q419.6102881789362 71.44484992785617 468.27362005448674 31.1716903194933Q516.9369519300373 -9.101469288869568 593.0274704440632 -9.101469288869568Q742.2476278286829 -9.101469288869568 842.0973316169116 76.0910936814308Q941.9470354051402 161.28365665173118 978.9470354051402 285.28775816558846H984.4510094215234Q945.4510094215234 155.5441652259766 841.0451755965648 67.7720826129883Q736.6393417716064 -20 562.1939229097189 -20Z" fill="#E7E0D3" transform="translate(672.912 101.000) scale(0.020131 -0.020131)"/>
  <path d="M395.95798414028496 767.5819504351325V772.3151956052558H690.9402980244453Q787.0279390397847 772.3151956052558 852.7227191146272 814.0067801591729Q918.4174991894698 855.6983647130899 952.1576029302375 935.5935945895776Q985.8977066710054 1015.4888244660652 985.8977066710054 1129.629634246106Q985.8977066710054 1243.6692192830346 952.1576029302375 1325.4269924909838Q918.4174991894698 1407.184765698933 852.5136376614107 1450.9258648614043Q786.6097761333516 1494.6669640238756 690.9088020345578 1494.6669640238756H35.93879000268797V1500H716.1946960423928Q874.7187456927278 1500 994.1218546594384 1461.4145309798705Q1113.524963626149 1422.8290619597412 1179.939399067861 1341.2293481029237Q1246.3538345095728 1259.629634246106 1246.3538345095728 1129.629634246106Q1246.3538345095728 999.6296342461061 1183.9441976022601 919.9599048925696Q1121.5345606949475 840.2901755390332 1003.0495208448353 803.9360629870828Q884.5644809947231 767.5819504351325 716.1067272192017 767.5819504351325ZM35.93879000268797 0V5.3330359761244H706.2935570402932V0ZM245.14968592285183 2.723648101324674V1497.1533992024092H496.3442374407743V2.723648101324674ZM1206.1067272192017 -12.519792518464392Q1111.5473496638085 -12.519792518464392 1058.1337542528029 20.195524542192647Q1004.7201588417973 52.910841602849686 979.9483870714865 108.6698367439391Q955.1766153011757 164.42883188502853 948.4167190419435 233.77088845434315Q941.6568227827113 303.1129450236578 940.7828124086345 377.11321875530774Q939.9088020345578 451.1134924869577 933.6647397900971 520.4555490562723Q927.4206775456364 589.7976056255869 904.4285945530221 645.6278289456295Q881.4365115604079 701.4580522656721 829.666319819828 734.2153074130024Q777.8961280792482 766.9725625603328 685.8503392479538 766.9725625603328H395.95798414028496V771.6200371773075H786.4234075146319Q930.1145126081384 771.6200371773075 1014.2493229642594 729.8506899609572Q1098.3841333203804 688.0813427446068 1139.6336833634373 619.7146463422192Q1180.8832334064941 551.3479499398317 1194.0345942328072 469.17381957891877Q1207.1859550591205 386.99968921800587 1207.4576669462513 304.825558857093Q1207.7293788333818 222.65142849618007 1209.7721133434466 154.2847320937925Q1211.8148478535113 85.91803569140495 1230.9265926427465 44.1486884750546Q1250.0383374319815 2.379341258704238 1302.952868411852 2.379341258704238Q1334.952868411852 2.379341258704238 1363.9390758443508 9.849860788111842Q1392.9252832768495 17.320380317519447 1413.896793603473 27.320380317519447L1416.3442374407744 23.97774727259653Q1392.3442374407744 10.977747272596531 1338.1875153541732 -0.7710226229339305Q1284.0307932675719 -12.519792518464392 1206.1067272192017 -12.519792518464392Z" fill="#E7E0D3" transform="translate(704.697 101.000) scale(0.020131 -0.020131)"/>
  <path d="M562.1939229097189 -20Q426.26829656629604 -20 318.06774897942637 36.49208299261424Q209.86720139255667 92.98416598522849 146.90201889523559 200.23218673338204Q83.93683639791453 307.4802074815356 83.93683639791453 460Q83.93683639791453 612.5197925184644 145.34503954848267 719.7535684299298Q206.75324269905082 826.9873443413951 313.4110557758558 883.4794273340094Q420.0688688526608 939.9715103266236 556.0229848694602 939.9715103266236Q704.9090261759544 939.9715103266236 798.9305632938408 880.5044970013803Q892.9521004117271 821.0374836761368 937.5163720396781 725.0752688852926Q982.0806436676293 629.1130540944486 982.0806436676293 520.1130540944486H217.9557290024925V525.4556871393714H727.2441708537347Q727.7117226766653 587.9309835126874 722.0143534459622 658.4876489455885Q716.3169842152591 729.0443143784896 699.1781835093923 792.0556653260269Q682.0393828035253 855.0670162735641 647.6865987046575 894.8669901487199Q613.3338146057897 934.6669640238756 556.0229848694602 934.6669640238756Q493.4190305493029 934.6669640238756 452.29765303629074 894.8835180825174Q411.17627552327866 855.1000721411591 387.4099558965853 787.8873118855547Q363.64363626989194 720.6745516299504 353.9359807061935 638.376860851904Q344.22832514249507 556.0791700738575 344.22832514249507 470.07917007385754Q344.22832514249507 379.255157608013 354.7204081351093 293.2102262293393Q365.2124911277236 207.1652948506656 392.4113896533299 139.30507238926089Q419.6102881789362 71.44484992785617 468.27362005448674 31.1716903194933Q516.9369519300373 -9.101469288869568 593.0274704440632 -9.101469288869568Q742.2476278286829 -9.101469288869568 842.0973316169116 76.0910936814308Q941.9470354051402 161.28365665173118 978.9470354051402 285.28775816558846H984.4510094215234Q945.4510094215234 155.5441652259766 841.0451755965648 67.7720826129883Q736.6393417716064 -20 562.1939229097189 -20Z" fill="#E7E0D3" transform="translate(733.885 101.000) scale(0.020131 -0.020131)"/>
  <path d="M1098.1906876286744 920V914.6669640238756H939.833648742071L556.0940003720061 -20H517.0493731820446L133.5825875724944 914.6669640238756H15.689112497609228V920H548.7190249215448V914.6669640238756H387.97033916773756L647.1030986284362 221.65744023382868L932.2912864504938 914.6669640238756H741.0019866698527V920Z" fill="#E7E0D3" transform="translate(755.404 101.000) scale(0.020131 -0.020131)"/>
  <path d="M304.37319700306176 1229.4332115904533Q244.14866669353856 1229.4332115904533 201.71923726776149 1272.0225760292165Q159.2898078419844 1314.6119404679796 159.2898078419844 1374.5450904249074Q159.2898078419844 1435.9986927815637 201.71923726776149 1477.9281222073407Q244.14866669353856 1519.8575516331177 304.37319700306176 1519.8575516331177Q365.8267993597181 1519.8575516331177 407.7562287854952 1477.9281222073407Q449.68565821127225 1435.9986927815637 449.68565821127225 1374.5450904249074Q449.68565821127225 1314.320560115384 407.7562287854952 1271.8768858529188Q365.8267993597181 1229.4332115904533 304.37319700306176 1229.4332115904533ZM418.93763746311873 920V5.3330359761244H544.2906089071886V0H63.21730532313744V5.3330359761244H188.54178709383083V914.6669640238756H63.21730532313744V920Z" fill="#E7E0D3" transform="translate(778.312 101.000) scale(0.020131 -0.020131)"/>
  <path d="M562.1939229097189 -20Q426.26829656629604 -20 318.06774897942637 36.49208299261424Q209.86720139255667 92.98416598522849 146.90201889523559 200.23218673338204Q83.93683639791453 307.4802074815356 83.93683639791453 460Q83.93683639791453 612.5197925184644 145.34503954848267 719.7535684299298Q206.75324269905082 826.9873443413951 313.4110557758558 883.4794273340094Q420.0688688526608 939.9715103266236 556.0229848694602 939.9715103266236Q704.9090261759544 939.9715103266236 798.9305632938408 880.5044970013803Q892.9521004117271 821.0374836761368 937.5163720396781 725.0752688852926Q982.0806436676293 629.1130540944486 982.0806436676293 520.1130540944486H217.9557290024925V525.4556871393714H727.2441708537347Q727.7117226766653 587.9309835126874 722.0143534459622 658.4876489455885Q716.3169842152591 729.0443143784896 699.1781835093923 792.0556653260269Q682.0393828035253 855.0670162735641 647.6865987046575 894.8669901487199Q613.3338146057897 934.6669640238756 556.0229848694602 934.6669640238756Q493.4190305493029 934.6669640238756 452.29765303629074 894.8835180825174Q411.17627552327866 855.1000721411591 387.4099558965853 787.8873118855547Q363.64363626989194 720.6745516299504 353.9359807061935 638.376860851904Q344.22832514249507 556.0791700738575 344.22832514249507 470.07917007385754Q344.22832514249507 379.255157608013 354.7204081351093 293.2102262293393Q365.2124911277236 207.1652948506656 392.4113896533299 139.30507238926089Q419.6102881789362 71.44484992785617 468.27362005448674 31.1716903194933Q516.9369519300373 -9.101469288869568 593.0274704440632 -9.101469288869568Q742.2476278286829 -9.101469288869568 842.0973316169116 76.0910936814308Q941.9470354051402 161.28365665173118 978.9470354051402 285.28775816558846H984.4510094215234Q945.4510094215234 155.5441652259766 841.0451755965648 67.7720826129883Q736.6393417716064 -20 562.1939229097189 -20Z" fill="#E7E0D3" transform="translate(790.590 101.000) scale(0.020131 -0.020131)"/>
  <path d="M1565.8015695639904 920V914.6669640238756H1378.4885435228575L1065.2071607496023 -20H1024.064279804888L771.4287195161697 671.355125434819L477.33027468509954 -20H436.10192472025585L132.61077571285176 914.6669640238756H15.689112497609228V920H542.4344967965189V914.6669640238756H374.85165113267084L580.2095802332524 237.7113609907752L879.0472428860331 939.9715103266236H951.3572668442222L1157.766221259286 277.6005806534359L1371.0319517844289 914.6669640238756H1168.4346413245444V920Z" fill="#E7E0D3" transform="translate(812.109 101.000) scale(0.020131 -0.020131)"/>
  <path d="M562.1939229097189 -20Q426.26829656629604 -20 318.06774897942637 36.49208299261424Q209.86720139255667 92.98416598522849 146.90201889523559 200.23218673338204Q83.93683639791453 307.4802074815356 83.93683639791453 460Q83.93683639791453 612.5197925184644 145.34503954848267 719.7535684299298Q206.75324269905082 826.9873443413951 313.4110557758558 883.4794273340094Q420.0688688526608 939.9715103266236 556.0229848694602 939.9715103266236Q704.9090261759544 939.9715103266236 798.9305632938408 880.5044970013803Q892.9521004117271 821.0374836761368 937.5163720396781 725.0752688852926Q982.0806436676293 629.1130540944486 982.0806436676293 520.1130540944486H217.9557290024925V525.4556871393714H727.2441708537347Q727.7117226766653 587.9309835126874 722.0143534459622 658.4876489455885Q716.3169842152591 729.0443143784896 699.1781835093923 792.0556653260269Q682.0393828035253 855.0670162735641 647.6865987046575 894.8669901487199Q613.3338146057897 934.6669640238756 556.0229848694602 934.6669640238756Q493.4190305493029 934.6669640238756 452.29765303629074 894.8835180825174Q411.17627552327866 855.1000721411591 387.4099558965853 787.8873118855547Q363.64363626989194 720.6745516299504 353.9359807061935 638.376860851904Q344.22832514249507 556.0791700738575 344.22832514249507 470.07917007385754Q344.22832514249507 379.255157608013 354.7204081351093 293.2102262293393Q365.2124911277236 207.1652948506656 392.4113896533299 139.30507238926089Q419.6102881789362 71.44484992785617 468.27362005448674 31.1716903194933Q516.9369519300373 -9.101469288869568 593.0274704440632 -9.101469288869568Q742.2476278286829 -9.101469288869568 842.0973316169116 76.0910936814308Q941.9470354051402 161.28365665173118 978.9470354051402 285.28775816558846H984.4510094215234Q945.4510094215234 155.5441652259766 841.0451755965648 67.7720826129883Q736.6393417716064 -20 562.1939229097189 -20Z" fill="#E7E0D3" transform="translate(844.438 101.000) scale(0.020131 -0.020131)"/>
  <path d="M507.594960317397 -18.52285110827082Q398.7089190109029 -18.52285110827082 301.7943880310322 38.477148891729186Q204.8798570511616 95.47714889172919 144.40834672453806 202.4771488917292Q83.93683639791453 309.4771488917292 83.93683639791453 459.4771488917292Q83.93683639791453 609.4771488917291 144.40834672453806 716.9771488917291Q204.8798570511616 824.4771488917291 301.7943880310322 881.9771488917291Q398.7089190109029 939.4771488917291 507.594960317397 939.4771488917291Q642.565402897621 939.4771488917291 722.5154359895382 839.8275404515248Q802.4654690814555 740.1779320113205 819.0748569562552 557.8066679220843V1494.6669640238756H693.7218855121853V1500H1050.2187280736964V5.3330359761244H1175.5432098443898V0H819.0748569562552V360.905247678326Q802.4654690814555 178.80485544551436 722.7626167069855 80.14100216862177Q643.0597643325154 -18.52285110827082 507.594960317397 -18.52285110827082ZM552.9809256894464 1.5554392495614393Q623.7824552048256 1.5554392495614393 684.6181681870378 52.340560597503234Q745.45388116925 103.12568194544502 782.2643690627526 204.6680380036487Q819.0748569562552 306.21039406185236 819.0748569562552 459.4771488917292Q819.0748569562552 612.7630978592031 782.2643690627526 714.8196987540949Q745.45388116925 816.8762996489868 684.6181681870378 868.1423776258412Q623.7824552048256 919.4084556026955 552.9809256894464 919.4084556026955Q481.75082632202714 919.4084556026955 436.8027344843924 862.4294666037273Q391.8546426467576 805.450477604759 370.55647787869145 701.9644116291115Q349.2583131106253 598.4783456534639 349.2583131106253 459.4771488917292Q349.2583131106253 320.4759521299945 370.55647787869145 217.49468468874616Q391.8546426467576 114.51341724749784 436.8027344843924 58.03442824852964Q481.75082632202714 1.5554392495614393 552.9809256894464 1.5554392495614393Z" fill="#E7E0D3" transform="translate(865.957 101.000) scale(0.020131 -0.020131)"/>
</svg>
