<svg xmlns="http://www.w3.org/2000/svg" viewBox="0 0 960 166" role="img" aria-labelledby="title">
  <title id="title">VibeSkills实践案例：完成一项机器学习实验</title>
  <metadata>Lettering derived from Source Han Serif CN SemiBold and Cormorant Garamond Italic, licensed under SIL Open Font License 1.1.</metadata>
  <path d="M318.4599609375 -12.385009765625Q231.385009765625 -12.385009765625 176.3475341796875 17.114990234375Q121.31005859375 46.614990234375 93.5025634765625 95.0Q65.695068359375 143.385009765625 59.3875732421875 200.9625244140625Q53.080078125 258.5400390625 63.080078125 315.31005859375Q76.695068359375 390 112.81005859375 449.22998046875Q148.925048828125 508.4599609375 200.5400390625 550.1524658203125Q252.155029296875 591.844970703125 312.5775146484375 613.9224853515625Q373 636 434.844970703125 636Q475.844970703125 636 517.3824462890625 627.114990234375Q558.919921875 618.22998046875 581.919921875 603.919921875Q588.919921875 599.534912109375 589.919921875 595.534912109375Q590.919921875 591.534912109375 589.919921875 580.534912109375L577 457.7001953125Q576.614990234375 454.315185546875 571.614990234375 454.315185546875Q566.614990234375 454.315185546875 566 457.7001953125Q553.6201171875 534.395263671875 508.35009765625 572.8526611328125Q463.080078125 611.31005859375 395.385009765625 611.31005859375Q334.534912109375 611.31005859375 284.56982421875 579.0400390625Q234.604736328125 546.77001953125 201.40966796875 487.5Q168.214599609375 428.22998046875 155.444580078125 346Q144.28955078125 276.4599609375 151.2520751953125 214.68994140625Q158.214599609375 152.919921875 180.524658203125 105.7274169921875Q202.834716796875 58.534912109375 239.414794921875 31.534912109375Q275.994873046875 4.534912109375 324.4599609375 4.534912109375Q377.5400390625 4.534912109375 430.695068359375 41.534912109375Q483.85009765625 78.534912109375 534.919921875 155.764892578125Q537.534912109375 159.3798828125 542.2274169921875 157.0723876953125Q546.919921875 154.764892578125 545.534912109375 152.3798828125L517.3798828125 40.844970703125Q513.994873046875 28.4599609375 511.1873779296875 24.1524658203125Q508.3798828125 19.844970703125 499.3798828125 17.4599609375Q450.534912109375 1.22998046875 403.804931640625 -5.5775146484375Q357.074951171875 -12.385009765625 318.4599609375 -12.385009765625Z" fill="#D19AA8" transform="translate(416.651 25.000) scale(0.023000 -0.023000)"/>
  <path d="M12.22998046875 0Q9.22998046875 0 9.22998046875 6.0Q9.22998046875 12 12.22998046875 12Q41.155029296875 12 56.5025634765625 17.0Q71.85009765625 22 79.5426025390625 37.0Q87.235107421875 52 92.235107421875 81L174.235107421875 544Q182.235107421875 586.385009765625 171.6575927734375 599.6925048828125Q161.080078125 613 119.22998046875 613Q117.22998046875 613 117.22998046875 619.0Q117.22998046875 625 119.22998046875 625Q141.074951171875 625 167.419921875 623.5Q193.764892578125 622 223.60986328125 622Q254.454833984375 622 282.7998046875 623.5Q311.144775390625 625 331.98974609375 625Q333.98974609375 625 333.98974609375 619.0Q333.98974609375 613 331.98974609375 613Q303.064697265625 613 287.7171630859375 607.0Q272.36962890625 601 265.1771240234375 585.6925048828125Q257.984619140625 570.385009765625 252.599609375 542L170.599609375 81Q162.984619140625 38 172.86962890625 25.0Q182.754638671875 12 224.98974609375 12Q227.98974609375 12 227.98974609375 6.0Q227.98974609375 0 224.98974609375 0Q203.759765625 0 175.914794921875 1.0Q148.06982421875 2 116.60986328125 2Q86.764892578125 2 59.919921875 1.0Q33.074951171875 0 12.22998046875 0ZM162.844970703125 312.925048828125 166.22998046875 337.4599609375H548.844970703125L546.22998046875 312.925048828125ZM382.085205078125 0Q380.085205078125 0 380.085205078125 6.0Q380.085205078125 12 382.085205078125 12Q412.01025390625 12 426.8577880859375 17.0Q441.705322265625 22 449.09033203125 37.0Q456.475341796875 52 461.475341796875 81L542.475341796875 542Q549.8603515625 584.385009765625 540.59033203125 598.6925048828125Q531.3203125 613 489.085205078125 613Q486.085205078125 613 486.085205078125 619.0Q486.085205078125 625 489.085205078125 625Q509.93017578125 625 537.275146484375 623.5Q564.6201171875 622 594.465087890625 622Q623.925048828125 622 651.9625244140625 623.5Q680 625 700.844970703125 625Q703.22998046875 625 703.22998046875 619.0Q703.22998046875 613 700.844970703125 613Q672.919921875 613 657.5723876953125 607.5Q642.224853515625 602 634.83984375 587.1925048828125Q627.454833984375 572.385009765625 621.83984375 544L539.83984375 81Q532.83984375 38 543.4173583984375 25.0Q553.994873046875 12 595.22998046875 12Q598.22998046875 12 598.22998046875 6.0Q598.22998046875 0 595.22998046875 0Q576.22998046875 0 548.5775146484375 1.0Q520.925048828125 2 490.465087890625 2Q460.005126953125 2 431.9676513671875 1.0Q403.93017578125 0 382.085205078125 0Z" fill="#D19AA8" transform="translate(432.652 25.000) scale(0.023000 -0.023000)"/>
  <path d="M-34 0Q-38 0 -38.0 6.0Q-38 12 -34 12Q-8 12 27.8824462890625 38.7274169921875Q63.764892578125 65.454833984375 99.534912109375 129.83984375L382 634.385009765625Q384 638.385009765625 391.5 637.1925048828125Q399 636 400 633L498.98974609375 84Q503.604736328125 57 509.1822509765625 41.0Q514.759765625 25 527.914794921875 18.5Q541.06982421875 12 568.3798828125 12Q572.3798828125 12 572.3798828125 6.0Q572.3798828125 0 568.3798828125 0Q543.534912109375 0 517.9974365234375 2.0Q492.4599609375 4 462 4Q432.155029296875 4 408.81005859375 2.0Q385.465087890625 0 360.235107421875 0Q356.6201171875 0 356.6201171875 6.0Q356.6201171875 12 360.235107421875 12Q402.47021484375 12 414.1627197265625 27.0Q425.855224609375 42 418.01025390625 84L337.63037109375 530.025634765625L378.614990234375 583.925048828125L129.614990234375 130.5400390625Q104.304931640625 84.919921875 101.6124267578125 58.919921875Q98.919921875 32.919921875 117.14990234375 22.4599609375Q135.3798828125 12 172.144775390625 12Q176.144775390625 12 176.144775390625 6.0Q176.144775390625 0 171.144775390625 0Q149.684814453125 0 118.6873779296875 2.0Q87.68994140625 4 58 4Q29 4 10.5 2.0Q-8 0 -34 0ZM181.7802734375 251.33056640625 196.7802734375 275.48046875H413.855224609375L415.855224609375 251.33056640625Z" fill="#D19AA8" transform="translate(450.632 25.000) scale(0.023000 -0.023000)"/>
  <path d="M13.844970703125 0Q11.4599609375 0 11.4599609375 6.0Q11.4599609375 12 13.844970703125 12Q42.77001953125 12 58.425048828125 17.0Q74.080078125 22 81.6575927734375 37.0Q89.235107421875 52 94.235107421875 81L175.85009765625 544Q183.85009765625 587.614990234375 173.7725830078125 600.3074951171875Q163.695068359375 613 121.4599609375 613Q118.844970703125 613 118.844970703125 619.0Q118.844970703125 625 121.4599609375 625Q142.68994140625 625 169.034912109375 623.5Q195.3798828125 622 225.83984375 622Q246.994873046875 622 280.83984375 625.0Q314.684814453125 628 347.3798828125 628Q404.759765625 628 448.1422119140625 609.1925048828125Q491.524658203125 590.385009765625 512.9471435546875 551.5775146484375Q534.36962890625 512.77001953125 522.984619140625 453Q513.984619140625 402.385009765625 487.1771240234375 366.1925048828125Q460.36962890625 330 424.36962890625 307.0Q388.36962890625 284 349.36962890625 273.0Q310.36962890625 262 276.36962890625 262Q264.984619140625 262 255.1771240234375 263.0Q245.36962890625 264 235.36962890625 267Q232.984619140625 268 234.984619140625 276.6524658203125Q236.984619140625 285.304931640625 240.599609375 284.304931640625Q247.984619140625 282.304931640625 255.484619140625 281.304931640625Q262.984619140625 280.304931640625 269.984619140625 280.304931640625Q305.064697265625 280.304931640625 338.7998046875 296.3824462890625Q372.534912109375 312.4599609375 398.1925048828125 346.0374755859375Q423.85009765625 379.614990234375 432.6201171875 433Q442.39013671875 489.77001953125 429.235107421875 529.0400390625Q416.080078125 568.31005859375 388.6925048828125 589.195068359375Q361.304931640625 610.080078125 327.224853515625 610.080078125Q301.98974609375 610.080078125 288.064697265625 605.6575927734375Q274.1396484375 601.235107421875 266.86962890625 586.85009765625Q259.599609375 572.465087890625 253.214599609375 542L172.214599609375 81Q165.214599609375 38 175.2921142578125 25.0Q185.36962890625 12 226.98974609375 12Q229.604736328125 12 229.604736328125 6.0Q229.604736328125 0 226.98974609375 0Q205.759765625 0 177.914794921875 1.0Q150.06982421875 2 118.224853515625 2Q88.764892578125 2 61.7274169921875 1.0Q34.68994140625 0 13.844970703125 0Z" fill="#D19AA8" transform="translate(467.000 25.000) scale(0.023000 -0.023000)"/>
  <path d="M126.8603515625 0Q124.475341796875 0 124.475341796875 6.0Q124.475341796875 12 126.8603515625 12Q161.3203125 12 179.55029296875 17.0Q197.7802734375 22 206.7027587890625 37.0Q215.625244140625 52 220.625244140625 81L302.01025390625 544Q309.01025390625 581.31005859375 301.1627197265625 593.0025634765625Q293.315185546875 604.695068359375 261.385009765625 604.695068359375H243.60986328125Q207.759765625 604.695068359375 176.954833984375 586.4676513671875Q146.14990234375 568.240234375 122.9224853515625 534.9727783203125Q99.695068359375 501.705322265625 85.925048828125 454.855224609375Q84.925048828125 451.855224609375 79.2325439453125 453.0477294921875Q73.5400390625 454.240234375 74.5400390625 456.855224609375Q78.5400390625 470.085205078125 84.8475341796875 494.6226806640625Q91.155029296875 519.16015625 97.9625244140625 547.8126220703125Q104.77001953125 576.465087890625 110.885009765625 603.1175537109375Q117 629.77001953125 120 647Q122 650 127.5 649.5Q133 649 132 646Q130 631 145.0 628.0Q160 625 171 625Q208 624 257.5 623.0Q307 622 354 622Q414 622 455.0 623.5Q496 625 530 625Q558 625 573.5 629.5Q589 634 596 650Q598 653 603.0 652.5Q608 652 607 648Q603 632.77001953125 596.385009765625 606.1175537109375Q589.77001953125 579.465087890625 583.4625244140625 549.8126220703125Q577.155029296875 520.16015625 572.3475341796875 494.815185546875Q567.5400390625 469.47021484375 565.5400390625 456.855224609375Q564.5400390625 453.240234375 558.7325439453125 453.740234375Q552.925048828125 454.240234375 553.925048828125 458.240234375Q562.31005859375 504.09033203125 553.6976318359375 536.665283203125Q545.085205078125 569.240234375 521.0477294921875 586.9676513671875Q497.01025390625 604.695068359375 457.545166015625 604.695068359375H440.385009765625Q407.60986328125 604.695068359375 397.4923095703125 591.81005859375Q387.374755859375 578.925048828125 380.98974609375 542L299.98974609375 81Q294.98974609375 52 297.98974609375 37.0Q300.98974609375 22 318.0272216796875 17.0Q335.064697265625 12 370.524658203125 12Q372.524658203125 12 372.524658203125 6.0Q372.524658203125 0 370.524658203125 0Q345.604736328125 0 315.3773193359375 1.0Q285.14990234375 2 248 2Q214.465087890625 2 183.1226806640625 1.0Q151.7802734375 0 126.8603515625 0Z" fill="#D19AA8" transform="translate(481.414 25.000) scale(0.023000 -0.023000)"/>
  <path d="M18.074951171875 0Q15.4599609375 0 15.4599609375 6.0Q15.4599609375 12 18.074951171875 12Q47.385009765625 12 62.5400390625 17.0Q77.695068359375 22 85.080078125 37.0Q92.465087890625 52 97.465087890625 81L178.85009765625 544Q186.85009765625 587 176.580078125 600.0Q166.31005859375 613 124.4599609375 613Q122.074951171875 613 122.074951171875 619.0Q122.074951171875 625 124.4599609375 625H512.83984375Q520.83984375 625 518.83984375 616Q515.83984375 597.385009765625 512.0323486328125 572.5400390625Q508.224853515625 547.695068359375 504.9173583984375 524.465087890625Q501.60986328125 501.235107421875 498.60986328125 486.6201171875Q497.60986328125 482.6201171875 491.9173583984375 483.9276123046875Q486.224853515625 485.235107421875 486.60986328125 487.6201171875Q487.614990234375 542.080078125 459.7376708984375 574.3875732421875Q431.8603515625 606.695068359375 383.405517578125 606.695068359375H334.2197265625Q305.064697265625 606.695068359375 290.2171630859375 602.0025634765625Q275.36962890625 597.31005859375 269.099609375 583.7325439453125Q262.82958984375 570.155029296875 257.82958984375 543L176.82958984375 85Q169.82958984375 44.22998046875 179.599609375 32.0374755859375Q189.36962890625 19.844970703125 230.2197265625 19.844970703125H296.645751953125Q345.635498046875 19.844970703125 391.51025390625 56.7674560546875Q437.385009765625 93.68994140625 466.2998046875 154.3798828125Q467.914794921875 157.3798828125 473.6072998046875 156.0723876953125Q479.2998046875 154.764892578125 477.2998046875 152.3798828125Q468.684814453125 124.534912109375 459.8773193359375 86.18994140625Q451.06982421875 47.844970703125 444.83984375 15Q441.83984375 0 428.83984375 0ZM422.834716796875 226.6201171875Q421.834716796875 222.6201171875 415.834716796875 223.1201171875Q409.834716796875 223.6201171875 410.834716796875 227.6201171875Q418.834716796875 272.005126953125 400.9923095703125 292.465087890625Q383.14990234375 312.925048828125 340.919921875 312.925048828125H180.83984375L184.454833984375 337.4599609375H347.919921875Q390.224853515625 337.4599609375 412.144775390625 354.18994140625Q434.064697265625 370.919921875 441.90966796875 410.764892578125Q442.90966796875 415.3798828125 448.90966796875 414.8798828125Q454.90966796875 414.3798828125 453.90966796875 409.3798828125Q449.294677734375 378.919921875 445.294677734375 361.574951171875Q441.294677734375 344.22998046875 438.064697265625 325Q434.064697265625 301.155029296875 430.94970703125 277.81005859375Q427.834716796875 254.465087890625 422.834716796875 226.6201171875Z" fill="#D19AA8" transform="translate(496.634 25.000) scale(0.023000 -0.023000)"/>
  <path d="M17.074951171875 0Q13.074951171875 0 13.074951171875 6.0Q13.074951171875 12 17.074951171875 12Q48 12 65.155029296875 17.3074951171875Q82.31005859375 22.614990234375 90.8875732421875 37.614990234375Q99.465087890625 52.614990234375 104.465087890625 81L185.85009765625 544Q191.465087890625 573 189.080078125 587.5Q186.695068359375 602 172.7325439453125 607.5Q158.77001953125 613 128.074951171875 613Q124.074951171875 613 124.074951171875 619.0Q124.074951171875 625 128.074951171875 625Q150.304931640625 625 178.64990234375 623.5Q206.994873046875 622 237.83984375 622Q260.83984375 622 292.83984375 625.0Q324.83984375 628 344.83984375 628Q437.36962890625 628 475.4820556640625 593.0Q513.594482421875 558 501.20947265625 491Q491.20947265625 435.31005859375 453.01953125 393.31005859375Q414.82958984375 351.31005859375 359.794677734375 328.0400390625Q304.759765625 304.77001953125 244.224853515625 304.77001953125Q238.2998046875 304.77001953125 228.0672607421875 305.4625244140625Q217.834716796875 306.155029296875 213.90966796875 307.155029296875L218.36962890625 335.4599609375Q227.44970703125 332.844970703125 240.98974609375 331.5374755859375Q254.52978515625 330.22998046875 263.83984375 330.22998046875Q331.14990234375 330.22998046875 366.534912109375 361.2674560546875Q401.919921875 392.304931640625 414.4599609375 464.3798828125Q425 518.844970703125 415.5374755859375 550.885009765625Q406.074951171875 582.925048828125 383.3798828125 596.5025634765625Q360.684814453125 610.080078125 330.064697265625 610.080078125Q308.064697265625 610.080078125 296.1021728515625 606.8875732421875Q284.1396484375 603.695068359375 277.484619140625 589.6175537109375Q270.82958984375 575.5400390625 264.82958984375 542L182.82958984375 81Q177.82958984375 52.614990234375 179.82958984375 37.614990234375Q181.82958984375 22.614990234375 195.6771240234375 17.3074951171875Q209.524658203125 12 239.2197265625 12Q243.2197265625 12 243.2197265625 6.0Q243.2197265625 0 240.2197265625 0Q216.98974609375 0 189.644775390625 1.0Q162.2998046875 2 129.454833984375 2Q98.3798828125 2 68.8424072265625 1.0Q39.304931640625 0 17.074951171875 0ZM469.625244140625 0Q455.47021484375 0 430.3526611328125 34.695068359375Q405.235107421875 69.39013671875 371.8475341796875 140.9676513671875Q338.4599609375 212.545166015625 299.60986328125 322L364.824462890625 344.3798828125Q417.28955078125 220.304931640625 456.5220947265625 147.574951171875Q495.754638671875 74.844970703125 530.024658203125 43.4224853515625Q564.294677734375 12 599.834716796875 12Q603.2197265625 12 603.2197265625 6.0Q603.2197265625 0 599.834716796875 0Q548.074951171875 0 516.695068359375 0.0Q485.315185546875 0 469.625244140625 0Z" fill="#D19AA8" transform="translate(511.163 25.000) scale(0.023000 -0.023000)"/>
  <path d="M22.68994140625 0Q19.68994140625 0 19.68994140625 6.0Q19.68994140625 12 22.68994140625 12Q51.614990234375 12 66.4625244140625 17.0Q81.31005859375 22 88.84149460565476 37.0Q96.37293061755952 52 101.080078125 81L183.080078125 544Q191.080078125 587 180.15631103515625 600.0Q169.2325439453125 613 127.68994140625 613Q124.68994140625 613 124.68994140625 619.0Q124.68994140625 625 127.68994140625 625Q149.27134486607142 625 176.24809919084822 623.5Q203.224853515625 622 232.93131290470157 622Q266.8815522065034 622 293.93564915012666 623.5Q320.98974609375 625 341.834716796875 625Q344.44970703125 625 344.44970703125 619.0Q344.44970703125 613 341.834716796875 613Q313.189208984375 613 297.9712829589844 607.0Q282.75335693359375 601 275.59197998046875 586.0Q268.43060302734375 571 263.0595703125 542L181.0595703125 81Q173.444580078125 38 183.56939358181424 25.0Q193.69420708550348 12 236.834716796875 12Q238.834716796875 12 238.834716796875 6.0Q238.834716796875 0 236.834716796875 0Q215.46807183159723 0 188.759765625 1.0Q162.05145941840277 2 128.93315972222223 2Q99.01985677083333 2 71.77738444010416 1.0Q44.534912109375 0 22.68994140625 0Z" fill="#D19AA8" transform="translate(535.919 25.000) scale(0.023000 -0.023000)"/>
  <path d="M238 49 C312 33 378 63 451 49" fill="none" stroke="#75BDB8" stroke-linecap="round" stroke-width="1.5"/>
  <path d="M509 49 C582 35 648 65 722 49" fill="none" stroke="#75BDB8" stroke-linecap="round" stroke-width="1.5"/>
  <path d="M330 57 C376 51 414 56 451 51" fill="none" stroke="#D19AA8" stroke-linecap="round" stroke-width="1.1"/>
  <path d="M509 51 C546 56 584 51 630 57" fill="none" stroke="#D19AA8" stroke-linecap="round" stroke-width="1.1"/>
  <path d="M480 42 L487 49 L480 56 L473 49 Z" fill="#D2B06A"/>
  <circle cx="457" cy="49" r="2.2" fill="#D19AA8"/>
  <circle cx="503" cy="49" r="2.2" fill="#D19AA8"/>
  <path d="M473 705 582 693 400 123 210 694 321 705V735H6V704L83 697L329 -5H393L632 694L719 706V735H473Z" fill="#A8DDD7" transform="translate(250.345 98.000) scale(0.046000 -0.046000)"/>
  <path d="M170 655C207 655 239 682 239 721C239 759 207 787 170 787C132 787 101 759 101 721C101 682 132 655 170 655ZM117 0H305V29L234 36C233 93 232 177 232 232V385L235 532L223 541L33 494V469L117 463C119 414 120 367 120 300V232L118 37L41 29V0Z" fill="#A8DDD7" transform="translate(282.131 98.000) scale(0.046000 -0.046000)"/>
  <path d="M389 -16C522 -16 614 104 614 268C614 441 523 543 400 543C339 543 280 519 229 465V647L232 804L218 813L36 778V751L119 746V232C119 177 118 93 117 36L40 29V0L214 -12L228 65C275 9 331 -16 389 -16ZM231 438C277 479 313 488 349 488C433 488 494 421 494 269C494 95 425 41 347 41C305 41 269 56 231 93Z" fill="#A8DDD7" transform="translate(297.863 98.000) scale(0.046000 -0.046000)"/>
  <path d="M311 -16C406 -16 477 28 520 103L503 117C465 69 417 42 346 42C241 42 165 110 162 267H515C519 284 521 303 521 328C521 449 443 543 303 543C165 543 43 439 43 264C43 81 154 -16 311 -16ZM163 300C168 440 227 510 299 510C370 510 414 455 414 369C414 320 403 300 364 300Z" fill="#A8DDD7" transform="translate(328.131 98.000) scale(0.046000 -0.046000)"/>
  <path d="M272 -18C438 -18 539 65 539 193C539 299 489 357 338 421L290 442C215 475 171 514 171 587C171 670 235 715 326 715C360 715 386 709 414 695L449 547H498L504 698C453 733 392 753 314 753C172 753 66 684 66 555C66 446 132 381 257 327L301 308C399 267 432 229 432 159C432 70 366 21 262 21C215 21 181 27 143 45L106 199H58L52 41C105 6 189 -18 272 -18Z" fill="#A8DDD7" transform="translate(353.983 98.000) scale(0.046000 -0.046000)"/>
  <path d="M351 498 449 486 334 373 231 271V647L235 804L220 813L36 778V751L119 746V232L117 37L38 29V0H307V29L233 36C232 91 231 172 231 230L296 291L454 0H629V29L557 36L374 365L505 489L602 498V527H351Z" fill="#A8DDD7" transform="translate(380.571 98.000) scale(0.046000 -0.046000)"/>
  <path d="M170 655C207 655 239 682 239 721C239 759 207 787 170 787C132 787 101 759 101 721C101 682 132 655 170 655ZM117 0H305V29L234 36C233 93 232 177 232 232V385L235 532L223 541L33 494V469L117 463C119 414 120 367 120 300V232L118 37L41 29V0Z" fill="#A8DDD7" transform="translate(409.643 98.000) scale(0.046000 -0.046000)"/>
  <path d="M116 0H314V29L234 37C232 98 231 172 231 232V647L235 804L220 813L36 778V751L119 746V232L117 37L34 29V0Z" fill="#A8DDD7" transform="translate(425.375 98.000) scale(0.046000 -0.046000)"/>
  <path d="M116 0H314V29L234 37C232 98 231 172 231 232V647L235 804L220 813L36 778V751L119 746V232L117 37L34 29V0Z" fill="#A8DDD7" transform="translate(441.291 98.000) scale(0.046000 -0.046000)"/>
  <path d="M228 -16C369 -16 448 52 448 150C448 225 406 274 304 308L250 326C175 350 149 378 149 422C149 473 189 508 259 508C290 508 316 502 343 488L369 384H415L420 498C366 528 320 543 258 543C127 543 55 474 55 382C55 303 106 257 191 229L245 210C326 185 349 156 349 110C349 53 305 19 221 19C183 19 154 25 127 38L103 153H52L49 28C105 0 158 -16 228 -16Z" fill="#A8DDD7" transform="translate(457.207 98.000) scale(0.046000 -0.046000)"/>
  <path d="M422 844 414 838C451 806 481 750 485 700C582 629 675 823 422 844ZM178 453 170 445C215 409 270 347 289 294C386 238 451 425 178 453ZM256 607 247 599C287 566 337 507 355 461C446 409 509 580 256 607ZM170 737 155 736C159 681 117 632 81 613C51 599 30 572 40 538C54 501 103 494 133 514C167 534 193 582 188 651H820C812 612 800 562 790 528L800 521C842 549 897 597 927 632C947 633 958 635 966 643L869 735L814 680H185C182 698 177 717 170 737ZM840 336 779 255H565C594 348 594 456 597 582C620 585 630 595 632 609L492 622C492 477 495 357 463 255H63L71 226H453C404 102 291 7 34 -69L41 -86C315 -29 452 52 521 159C670 88 780 -10 824 -70C928 -125 993 98 533 178C542 194 549 210 555 226H922C936 226 947 231 950 242C908 280 840 336 840 336Z" fill="#A8DDD7" transform="translate(479.655 98.000) scale(0.046000 -0.046000)"/>
  <path d="M704 817 696 810C729 783 770 735 783 696C868 648 928 807 704 817ZM168 541V744H313V541ZM181 378 79 388V58L27 50L79 -61C89 -58 99 -48 103 -35C270 25 388 82 476 131L473 143C413 128 350 113 291 100V293H425C439 293 448 298 450 309C422 341 370 387 370 387L325 322H291V510H313V476H327C354 476 397 492 398 497V730C418 734 432 742 438 749L345 819L303 773H181L84 820V462H98C141 462 168 481 168 487V510H206V82L154 72V357C172 359 180 367 181 378ZM671 822 539 837C539 749 541 664 546 585L412 571L423 543L548 556C552 504 557 453 565 406L409 385L421 358L570 378C587 286 612 204 651 133C555 55 438 -12 307 -58L314 -72C455 -41 580 14 684 80C718 31 760 -11 812 -44C862 -77 932 -105 963 -65C974 -50 971 -28 936 17L955 175L943 176C928 134 905 81 891 55C881 37 874 36 856 49C818 71 787 100 761 134C823 183 875 236 914 290C936 284 946 289 953 299L846 358C815 303 773 248 721 197C692 252 672 318 659 390L942 428C955 430 965 437 966 448C924 475 857 513 857 513L812 438L654 417C647 464 642 514 639 566L911 594C924 595 934 602 936 613C897 641 833 679 833 679L787 609L637 594C634 658 634 725 635 794C660 798 669 809 671 822Z" fill="#A8DDD7" transform="translate(525.655 98.000) scale(0.046000 -0.046000)"/>
  <path d="M167 787H151C155 747 125 709 95 695C68 684 50 662 58 633C68 603 107 596 134 609C162 623 183 658 182 709H811C798 682 782 651 769 630L779 623C795 629 812 636 830 645L781 584H439L484 643C516 638 526 647 531 657L401 706C386 678 357 631 324 584H89L98 555H303C274 514 243 474 220 449C312 439 398 425 476 409C378 358 243 329 70 306L73 290C228 298 350 313 447 339V243L47 244L56 215H379C300 115 173 16 29 -47L37 -61C199 -16 344 54 447 145V-83H465C505 -83 548 -65 548 -57V210C623 81 745 -10 897 -60C907 -12 937 21 975 30L977 42C829 64 665 126 573 215H929C943 215 953 220 956 231C918 266 857 314 857 314L803 244H548V311C574 314 583 324 585 338L479 348C514 359 546 372 575 387C660 365 732 341 785 316C873 285 973 392 657 443C692 474 720 511 743 555H902C916 555 926 560 928 571C895 602 842 641 835 647C864 661 893 678 913 693C933 694 944 696 952 703L862 788L812 738H528C584 750 601 851 429 852L421 844C450 825 475 785 477 750C486 743 495 739 504 738H180C178 753 173 770 167 787ZM343 468C366 494 392 525 416 555H630C610 517 583 484 549 457C490 462 422 466 343 468Z" fill="#A8DDD7" transform="translate(571.655 98.000) scale(0.046000 -0.046000)"/>
  <path d="M658 716V134H675C706 134 743 152 743 161V680C766 683 773 692 775 704ZM832 833V40C832 25 826 19 808 19C786 19 676 27 676 27V11C727 4 751 -6 767 -20C783 -35 789 -56 792 -85C906 -74 920 -34 920 32V792C944 796 954 805 957 820ZM277 755 285 726H374C353 557 310 388 227 261L239 249C283 293 320 341 351 392C376 360 400 319 407 283C431 264 456 265 472 277C431 143 364 23 251 -65L261 -78C511 60 581 292 612 528C634 530 643 534 650 543L562 621L514 570H431C447 620 459 672 468 726H649C663 726 674 731 676 742C638 777 577 825 577 825L523 755ZM367 420C388 458 406 499 421 541H522C515 471 505 401 488 335C479 365 443 398 367 420ZM178 844C147 660 87 465 23 338L36 329C68 364 97 403 124 447V-84H140C173 -84 210 -65 211 -58V533C229 536 239 543 242 552L190 571C221 638 247 709 269 784C291 784 304 793 307 805Z" fill="#A8DDD7" transform="translate(617.655 98.000) scale(0.046000 -0.046000)"/>
  <path d="M253 29C297 29 330 64 330 104C330 148 297 182 253 182C208 182 175 148 175 104C175 64 208 29 253 29ZM253 422C297 422 330 456 330 498C330 540 297 575 253 575C208 575 175 540 175 498C175 456 208 422 253 422Z" fill="#A8DDD7" transform="translate(663.655 98.000) scale(0.046000 -0.046000)"/>
  <path d="M422 844 414 838C451 806 481 750 485 700C582 629 675 823 422 844ZM682 581 627 515H218L226 486H754C768 486 779 491 781 502C743 536 682 581 682 581ZM170 737 155 736C159 679 117 628 81 609C51 594 32 566 42 533C56 497 105 490 135 511C168 533 194 581 189 651H818C809 612 793 563 780 530L791 523C835 550 894 597 927 632C947 633 958 635 966 643L869 735L814 680H185C182 698 177 717 170 737ZM836 418 780 350H77L85 321H324C313 168 278 34 33 -72L42 -86C365 -3 410 139 428 321H550V29C550 -39 569 -57 663 -57H769C934 -57 971 -39 971 1C971 19 965 31 936 41L934 178H922C906 116 892 64 882 47C877 36 872 33 860 32C846 32 814 31 777 31H683C649 31 645 36 645 51V321H913C927 321 937 326 939 337C900 371 836 418 836 418Z" fill="#D19AA8" transform="translate(260.000 140.000) scale(0.044000 -0.044000)"/>
  <path d="M679 820 671 811C714 786 765 738 784 696C872 655 914 821 679 820ZM132 641V426C132 257 123 70 25 -79L36 -89C214 51 228 264 228 422H378C373 257 363 177 345 160C339 153 331 151 317 151C300 151 255 154 231 157L230 142C258 136 282 126 294 114C305 100 308 78 308 52C349 52 383 62 407 83C448 117 462 201 467 409C487 412 499 417 506 425L417 499L369 450H228V612H528C541 453 571 309 631 189C562 89 471 0 353 -65L361 -77C489 -29 590 41 669 123C704 68 748 19 801 -22C848 -61 923 -96 959 -58C972 -44 968 -20 934 29L954 189L943 192C927 150 902 98 888 73C878 54 871 54 854 68C804 102 764 146 732 197C796 281 841 373 873 464C900 463 909 469 913 482L778 525C759 444 730 362 688 283C649 380 629 494 620 612H935C949 612 960 617 962 628C922 663 857 714 857 714L799 641H618C615 694 614 748 615 801C640 805 649 817 651 830L519 843C519 774 521 706 526 641H243L132 683Z" fill="#D19AA8" transform="translate(304.000 140.000) scale(0.044000 -0.044000)"/>
  <path d="M832 528 757 426H41L50 393H936C952 393 964 397 967 409C916 457 832 528 832 528Z" fill="#D19AA8" transform="translate(348.000 140.000) scale(0.044000 -0.044000)"/>
  <path d="M746 509 616 539C613 200 613 44 286 -72L296 -89C519 -38 618 38 663 149C741 94 838 2 879 -74C991 -126 1031 97 668 162C700 248 703 355 708 487C731 487 742 497 746 509ZM876 838 821 769H397L405 740H607C605 698 601 647 598 612H519L422 653V147H436C475 147 514 168 514 178V583H805V157H821C852 157 898 177 899 183V571C916 574 929 581 935 588L841 661L796 612H629C658 647 690 696 716 740H949C963 740 974 745 976 756C939 791 876 838 876 838ZM333 788 284 724H36L44 696H173V212C116 201 68 194 37 191L85 66C97 69 107 78 111 91C245 153 340 206 406 247L404 259L271 230V696H395C408 696 418 701 421 712C388 744 333 788 333 788Z" fill="#D19AA8" transform="translate(392.000 140.000) scale(0.044000 -0.044000)"/>
  <path d="M483 763V413C483 220 462 52 316 -77L328 -87C553 34 575 225 575 414V735H728V26C728 -32 740 -55 807 -55H852C943 -55 976 -39 976 -3C976 15 969 25 946 37L942 166H930C921 118 907 56 899 42C894 34 889 33 884 32C879 32 870 32 859 32H837C823 32 821 38 821 53V721C844 724 855 730 863 738L765 820L717 763H590L483 805ZM192 844V610H35L43 581H175C149 432 101 277 29 162L42 151C103 210 153 278 192 354V-85H211C245 -85 283 -66 283 -55V478C314 437 346 378 352 330C430 263 514 421 283 498V581H427C441 581 451 586 453 597C421 631 364 682 364 682L313 610H283V803C310 807 317 816 320 831Z" fill="#D19AA8" transform="translate(436.000 140.000) scale(0.044000 -0.044000)"/>
  <path d="M637 540V556H787V506H801C830 506 875 524 876 530V732C896 736 911 744 918 752L821 826L777 776H642L549 814V512H562C578 512 594 516 607 521C633 496 659 460 668 432C739 390 793 511 635 537ZM224 507V556H364V521H379C392 521 407 525 420 530C402 494 380 457 352 421H38L46 392H329C260 313 163 240 27 186L34 174C75 185 113 197 149 210V-89H161C198 -89 235 -69 235 -61V-15H369V-65H383C412 -65 455 -46 456 -38V187C475 191 490 199 496 206L403 277L359 230H240L219 239C313 283 385 336 438 392H583C630 331 686 281 768 240L759 230H631L539 269V-83H551C589 -83 627 -63 627 -55V-15H769V-70H783C812 -70 857 -52 858 -46V185C868 187 876 190 883 194L934 179C939 225 954 258 977 270L978 281C811 296 693 332 612 392H938C953 392 963 397 966 408C927 443 864 490 864 490L808 421H464C481 442 496 464 509 486C530 484 544 489 548 502L442 540C448 543 452 546 452 548V734C471 738 486 745 492 753L398 824L354 776H228L137 815V480H150C186 480 224 499 224 507ZM769 201V14H627V201ZM369 201V14H235V201ZM787 748V585H637V748ZM364 748V585H224V748Z" fill="#D19AA8" transform="translate(480.000 140.000) scale(0.044000 -0.044000)"/>
  <path d="M198 831 188 824C225 781 266 712 274 654C362 587 444 766 198 831ZM424 846 413 840C444 794 474 725 475 666C559 588 660 764 424 846ZM452 362V257H43L51 228H452V46C452 31 447 25 428 25C402 25 260 35 260 35V21C321 11 350 0 371 -16C390 -31 397 -54 402 -86C535 -74 552 -31 552 40V228H936C950 228 961 233 964 244C923 281 854 334 854 334L794 257H552V324C574 328 584 335 586 350L571 351C634 378 705 413 750 441C772 442 784 444 791 452L696 543L639 489H211L220 460H628C599 426 559 386 525 355ZM722 844C697 780 655 691 614 628H178C174 651 167 675 156 701L141 700C149 627 114 561 74 536C48 522 30 497 42 468C55 437 95 434 126 455C159 476 187 526 182 599H815C802 561 781 513 765 482L775 475C825 500 894 544 932 578C953 579 964 581 972 590L872 685L814 628H650C712 674 774 733 814 779C837 777 849 784 854 796Z" fill="#D19AA8" transform="translate(524.000 140.000) scale(0.044000 -0.044000)"/>
  <path d="M188 630 181 618C286 571 435 474 504 402C624 382 611 602 188 630ZM99 194 162 74C173 78 182 88 186 101C447 205 636 292 775 362C762 189 742 75 712 48C698 36 689 32 668 32C641 32 564 39 513 44L512 29C561 19 606 4 624 -13C639 -28 645 -53 645 -86C709 -86 755 -69 792 -29C852 38 877 280 890 697C913 700 927 706 935 715L838 803L781 743H109L118 714H792C788 593 784 483 777 390C489 300 212 220 99 194Z" fill="#D19AA8" transform="translate(568.000 140.000) scale(0.044000 -0.044000)"/>
  <path d="M422 844 414 838C451 806 481 750 485 700C582 629 675 823 422 844ZM178 453 170 445C215 409 270 347 289 294C386 238 451 425 178 453ZM256 607 247 599C287 566 337 507 355 461C446 409 509 580 256 607ZM170 737 155 736C159 681 117 632 81 613C51 599 30 572 40 538C54 501 103 494 133 514C167 534 193 582 188 651H820C812 612 800 562 790 528L800 521C842 549 897 597 927 632C947 633 958 635 966 643L869 735L814 680H185C182 698 177 717 170 737ZM840 336 779 255H565C594 348 594 456 597 582C620 585 630 595 632 609L492 622C492 477 495 357 463 255H63L71 226H453C404 102 291 7 34 -69L41 -86C315 -29 452 52 521 159C670 88 780 -10 824 -70C928 -125 993 98 533 178C542 194 549 210 555 226H922C936 226 947 231 950 242C908 280 840 336 840 336Z" fill="#D19AA8" transform="translate(612.000 140.000) scale(0.044000 -0.044000)"/>
  <path d="M580 390 565 386C592 309 620 200 618 113C692 36 769 214 580 390ZM440 357 426 353C453 275 482 165 480 78C554 0 632 179 440 357ZM738 515 694 459H456L464 430H792C806 430 816 435 818 446C788 476 738 515 738 515ZM31 179 81 71C91 74 100 84 104 97C185 150 243 194 282 223L279 235C178 210 75 187 31 179ZM226 635 116 659C115 595 103 465 92 387C79 381 66 373 56 366L137 311L170 349H310C302 141 285 39 260 16C252 9 244 7 229 7C211 7 167 10 140 13L139 -4C167 -9 191 -18 202 -30C214 -41 216 -61 216 -85C254 -85 289 -74 315 -51C358 -12 379 92 388 338C408 341 420 346 427 354L343 423C353 526 361 650 364 721C385 724 401 730 408 739L316 810L279 764H60L69 735H287C282 638 271 493 257 378H167C176 448 185 551 189 613C213 613 222 624 226 635ZM923 356 793 398C768 262 729 97 697 -12H363L371 -41H941C954 -41 964 -36 967 -25C931 9 870 56 870 56L817 -12H721C783 85 840 215 884 336C906 336 918 345 923 356ZM677 791C704 793 714 800 718 811L587 846C552 726 460 555 354 452L364 442C491 519 594 644 658 756C707 623 790 502 895 432C901 465 927 489 964 503L966 516C851 565 725 661 673 782Z" fill="#D19AA8" transform="translate(656.000 140.000) scale(0.044000 -0.044000)"/>
</svg>
