<svg xmlns="http://www.w3.org/2000/svg" viewBox="0 0 960 132" role="img" aria-labelledby="title">
  <title id="title">VibeSkills</title>
  <metadata>Lettering derived from Bona Nova Bold, licensed under SIL Open Font License 1.1.</metadata>
  <path d="M44 10 H319.6 C360.4 10 379.4 14.6 404.2 20.7 C427.5 26.4 451.6 23.7 468.3 15.3 C448.6 16.1 438.4 21.4 444.3 26.8 C453 34 480 29.4 496 18.8 C516.5 5.4 544.9 10 574.8 10 H916" fill="none" stroke="#B49A64" stroke-width="2.4" stroke-linecap="square"/>
  <path d="M67.3 15.3 H314.5 C354.6 15.3 375.7 19.5 399.8 24.9" fill="none" stroke="#82545C" stroke-width="1.4"/>
  <path d="M892.7 15.3 H591.6 C552.9 15.3 531 19.5 507 24.9" fill="none" stroke="#82545C" stroke-width="1.4"/>
  <path d="M295 -8Q288 18 283.5 35.5Q279 53 268 79L75 565Q62 599 52.0 615.0Q42 631 31.5 636.0Q21 641 5 642V665H287V642Q247 640 241.5 618.5Q236 597 249 565L382 224H384L508 565Q521 599 506.0 619.5Q491 640 447 642V665H630V642Q610 640 592.5 619.5Q575 599 562 565L386 79Q376 52 372.0 35.0Q368 18 363 -8Z" fill="#E7E0D3" transform="translate(215.556 126.000) scale(0.114000 -0.114000)"/>
  <path d="M233 110Q233 73 238.0 54.5Q243 36 256.0 30.0Q269 24 293 23V0H38V23Q55 24 65.0 30.0Q75 36 79.0 54.5Q83 73 83 110V340Q83 355 77.5 360.0Q72 365 61 365Q53 365 43.5 363.0Q34 361 23 357L13 380L231 481L237 475Q236 460 234.5 428.5Q233 397 233 349ZM163 530Q126 530 101.0 555.5Q76 581 76 616Q76 651 101.0 677.0Q126 703 163 703Q199 703 224.0 677.0Q249 651 249 616Q249 581 224.0 555.5Q199 530 163 530Z" fill="#E7E0D3" transform="translate(286.380 126.000) scale(0.114000 -0.114000)"/>
  <path d="M384 475Q432 475 473.5 447.5Q515 420 540.0 369.0Q565 318 565 246Q565 174 540.0 124.5Q515 75 474.5 44.0Q434 13 386.0 -1.0Q338 -15 292 -15Q240 -15 209.5 -8.0Q179 -1 155 9L75 -10V649Q75 664 69.5 669.0Q64 674 53 674Q45 674 35.5 672.0Q26 670 15 666L5 689L223 790L229 784Q228 769 226.5 737.5Q225 706 225 658V380Q245 421 286.0 448.0Q327 475 384 475ZM301 33Q345 33 375.0 79.5Q405 126 405 203Q405 290 375.0 332.5Q345 375 301 375Q282 375 262.0 367.5Q242 360 225 343V77Q253 33 301 33Z" fill="#E7E0D3" transform="translate(323.004 126.000) scale(0.114000 -0.114000)"/>
  <path d="M274 -15Q206 -15 150.5 14.0Q95 43 62.5 97.0Q30 151 30 225Q30 305 66.0 361.0Q102 417 161.5 446.0Q221 475 289 475Q381 475 428.5 425.5Q476 376 476 296L181 259Q187 174 231.0 137.0Q275 100 333 100Q362 100 399.0 110.5Q436 121 466 149L482 133Q454 66 405.5 25.5Q357 -15 274 -15ZM259 432Q225 432 204.0 396.5Q183 361 180 299L325 317Q323 364 308.5 398.0Q294 432 259 432Z" fill="#E7E0D3" transform="translate(391.434 126.000) scale(0.114000 -0.114000)"/>
  <path d="M276 -15Q225 -15 176.0 -2.5Q127 10 95.0 40.0Q63 70 63 120Q63 139 70.0 165.5Q77 192 98 220H121Q123 172 141.0 128.5Q159 85 194.0 57.5Q229 30 281 30Q322 30 346.0 46.5Q370 63 381.0 87.0Q392 111 392 135Q392 174 369.0 201.0Q346 228 310.5 249.0Q275 270 234.5 291.0Q194 312 158.0 337.5Q122 363 99.5 399.5Q77 436 77 489Q77 579 146.5 629.5Q216 680 331 680Q382 680 428.5 671.5Q475 663 503 653V495H480Q464 550 439.5 580.0Q415 610 385.5 622.5Q356 635 325 635Q287 635 264.5 621.5Q242 608 232.0 588.5Q222 569 222 549Q222 516 244.5 491.5Q267 467 303.0 447.0Q339 427 379.5 405.0Q420 383 455.5 355.0Q491 327 514.0 287.5Q537 248 537 191Q537 124 503.0 78.0Q469 32 410.0 8.5Q351 -15 276 -15Z" fill="#E7E0D3" transform="translate(449.490 126.000) scale(0.114000 -0.114000)"/>
  <path d="M232 110Q232 73 235.5 54.5Q239 36 249.0 30.0Q259 24 277 23V0H37V23Q54 24 64.0 30.0Q74 36 78.0 54.5Q82 73 82 110V649Q82 664 76.5 669.0Q71 674 60 674Q52 674 42.5 672.0Q33 670 22 666L12 689L230 790L236 784Q235 769 233.5 737.5Q232 706 232 658V231H234L360 361Q374 375 381.0 384.5Q388 394 388 404Q388 413 380.5 424.0Q373 435 343 437V460H545V437Q515 435 490.0 419.0Q465 403 446 384L388 324L501 103Q525 56 542.5 39.5Q560 23 577 23V0Q544 -15 498 -15Q447 -15 410.5 6.0Q374 27 356 62L279 212L232 164Z" fill="#E7E0D3" transform="translate(517.692 126.000) scale(0.114000 -0.114000)"/>
  <path d="M233 110Q233 73 238.0 54.5Q243 36 256.0 30.0Q269 24 293 23V0H38V23Q55 24 65.0 30.0Q75 36 79.0 54.5Q83 73 83 110V340Q83 355 77.5 360.0Q72 365 61 365Q53 365 43.5 363.0Q34 361 23 357L13 380L231 481L237 475Q236 460 234.5 428.5Q233 397 233 349ZM163 530Q126 530 101.0 555.5Q76 581 76 616Q76 651 101.0 677.0Q126 703 163 703Q199 703 224.0 677.0Q249 651 249 616Q249 581 224.0 555.5Q199 530 163 530Z" fill="#E7E0D3" transform="translate(584.640 126.000) scale(0.114000 -0.114000)"/>
  <path d="M232 110Q232 73 237.0 54.5Q242 36 255.0 30.0Q268 24 292 23V0H37V23Q54 24 64.0 30.0Q74 36 78.0 54.5Q82 73 82 110V649Q82 664 76.5 669.0Q71 674 60 674Q52 674 42.5 672.0Q33 670 22 666L12 689L230 790L236 784Q235 769 233.5 737.5Q232 706 232 658Z" fill="#E7E0D3" transform="translate(621.264 126.000) scale(0.114000 -0.114000)"/>
  <path d="M232 110Q232 73 237.0 54.5Q242 36 255.0 30.0Q268 24 292 23V0H37V23Q54 24 64.0 30.0Q74 36 78.0 54.5Q82 73 82 110V649Q82 664 76.5 669.0Q71 674 60 674Q52 674 42.5 672.0Q33 670 22 666L12 689L230 790L236 784Q235 769 233.5 737.5Q232 706 232 658Z" fill="#E7E0D3" transform="translate(657.774 126.000) scale(0.114000 -0.114000)"/>
  <path d="M202 -15Q126 -15 79.5 12.0Q33 39 33 88Q33 107 41.0 128.5Q49 150 70 170H93Q98 131 109.5 98.5Q121 66 144.5 47.0Q168 28 208 28Q240 28 261.5 42.5Q283 57 283 86Q283 113 265.5 131.0Q248 149 221.0 163.5Q194 178 163.0 192.0Q132 206 105.0 224.5Q78 243 60.5 269.0Q43 295 43 334Q43 399 95.5 437.0Q148 475 238 475Q272 475 312.5 469.0Q353 463 378 448V315H356Q349 366 318.0 399.0Q287 432 238 432Q205 432 189.0 417.5Q173 403 173 384Q173 362 190.5 346.5Q208 331 235.0 317.5Q262 304 292.5 289.0Q323 274 350.0 254.0Q377 234 394.5 205.5Q412 177 412 136Q412 87 385.0 53.5Q358 20 310.5 2.5Q263 -15 202 -15Z" fill="#E7E0D3" transform="translate(694.284 126.000) scale(0.114000 -0.114000)"/>
</svg>
