<svg xmlns="http://www.w3.org/2000/svg" viewBox="0 0 720 28" role="img" aria-label="">
  <path d="M72 10 H286 M434 10 H648" fill="none" stroke="#4A4946" stroke-width="0.75"/>
  <path d="M118 18 H286 M434 18 H602" fill="none" stroke="#4A4946" stroke-opacity="0.62" stroke-width="0.55"/>
  <path d="M278.00 14.00 L280.05 14.93 L282.10 15.76 L284.15 16.43 L286.20 16.85 L288.25 17.00 L290.30 16.85 L292.35 16.43 L294.40 15.76 L296.45 14.93 L298.50 14.00 L300.55 13.07 L302.60 12.24 L304.65 11.57 L306.70 11.15 L308.75 11.00 L310.80 11.15 L312.85 11.57 L314.90 12.24 L316.95 13.07 L319.00 14.00 L321.05 14.93 L323.10 15.76 L325.15 16.43 L327.20 16.85 L329.25 17.00 L331.30 16.85 L333.35 16.43 L335.40 15.76 L337.45 14.93 L339.50 14.00 L341.55 13.07 L343.60 12.24 L345.65 11.57 L347.70 11.15 L349.75 11.00 L351.80 11.15 L353.85 11.57 L355.90 12.24 L357.95 13.07 L360.00 14.00 L362.05 14.93 L364.10 15.76 L366.15 16.43 L368.20 16.85 L370.25 17.00 L372.30 16.85 L374.35 16.43 L376.40 15.76 L378.45 14.93 L380.50 14.00 L382.55 13.07 L384.60 12.24 L386.65 11.57 L388.70 11.15 L390.75 11.00 L392.80 11.15 L394.85 11.57 L396.90 12.24 L398.95 13.07 L401.00 14.00 L403.05 14.93 L405.10 15.76 L407.15 16.43 L409.20 16.85 L411.25 17.00 L413.30 16.85 L415.35 16.43 L417.40 15.76 L419.45 14.93 L421.50 14.00 L423.55 13.07 L425.60 12.24 L427.65 11.57 L429.70 11.15 L431.75 11.00 L433.80 11.15 L435.85 11.57 L437.90 12.24 L439.95 13.07 L442.00 14.00" fill="none" stroke="#8A7448" stroke-width="0.72"/>
  <path d="M278.00 14.00 L280.05 13.07 L282.10 12.24 L284.15 11.57 L286.20 11.15 L288.25 11.00 L290.30 11.15 L292.35 11.57 L294.40 12.24 L296.45 13.07 L298.50 14.00 L300.55 14.93 L302.60 15.76 L304.65 16.43 L306.70 16.85 L308.75 17.00 L310.80 16.85 L312.85 16.43 L314.90 15.76 L316.95 14.93 L319.00 14.00 L321.05 13.07 L323.10 12.24 L325.15 11.57 L327.20 11.15 L329.25 11.00 L331.30 11.15 L333.35 11.57 L335.40 12.24 L337.45 13.07 L339.50 14.00 L341.55 14.93 L343.60 15.76 L345.65 16.43 L347.70 16.85 L349.75 17.00 L351.80 16.85 L353.85 16.43 L355.90 15.76 L357.95 14.93 L360.00 14.00 L362.05 13.07 L364.10 12.24 L366.15 11.57 L368.20 11.15 L370.25 11.00 L372.30 11.15 L374.35 11.57 L376.40 12.24 L378.45 13.07 L380.50 14.00 L382.55 14.93 L384.60 15.76 L386.65 16.43 L388.70 16.85 L390.75 17.00 L392.80 16.85 L394.85 16.43 L396.90 15.76 L398.95 14.93 L401.00 14.00 L403.05 13.07 L405.10 12.24 L407.15 11.57 L409.20 11.15 L411.25 11.00 L413.30 11.15 L415.35 11.57 L417.40 12.24 L419.45 13.07 L421.50 14.00 L423.55 14.93 L425.60 15.76 L427.65 16.43 L429.70 16.85 L431.75 17.00 L433.80 16.85 L435.85 16.43 L437.90 15.76 L439.95 14.93 L442.00 14.00" fill="none" stroke="#5A3037" stroke-opacity="0.72" stroke-width="0.62"/>
</svg>
