<svg xmlns="http://www.w3.org/2000/svg" viewBox="0 0 720 32" role="img" aria-label="">
  <path d="M62 17 C132 3 208 5 269 17 C305 24 332 23 356 12 C337 9 324 16 329 24 C337 35 361 28 374 17" fill="none" stroke="#80683D" stroke-width="1.8" stroke-linecap="round"/>
  <path d="M658 17 C588 3 512 5 451 17 C415 24 388 23 364 12 C383 9 396 16 391 24 C383 35 359 28 346 17" fill="none" stroke="#80683D" stroke-width="1.8" stroke-linecap="round"/>
  <path d="M90 26 C174 17 244 29 318 21" fill="none" stroke="#5A3037" stroke-width="1.05"/>
  <path d="M630 26 C546 17 476 29 402 21" fill="none" stroke="#5A3037" stroke-width="1.05"/>
</svg>
