<svg xmlns="http://www.w3.org/2000/svg" width="1200" height="540" viewBox="0 0 1200 540" role="img" aria-labelledby="title desc">
  <title id="title">Matching task modules with local Skills</title>
  <desc id="desc">VibeSkills examines the parts of a task and connects only the local Skills that help; work that does not need a dedicated Skill stays with the current AI.</desc>

  <rect width="1200" height="540" fill="#FAFBF7"/>

  <g font-family="Segoe UI, Arial, sans-serif" text-anchor="middle" fill="#0F4C4E">
    <text x="200" y="61" font-size="19" font-weight="700">Parts of the task</text>
    <text x="600" y="61" font-size="19" font-weight="700">Match by actual need</text>
    <text x="1000" y="61" font-size="19" font-weight="700">Your local Skills</text>
    <text x="1000" y="84" font-size="12" fill="#557979">Actual names come from your local Skill folders</text>
  </g>

  <g font-family="Segoe UI, Arial, sans-serif" font-size="16" font-weight="700" text-anchor="middle" fill="#0F4C4E">
    <g transform="translate(70 105)">
      <rect width="260" height="62" rx="8" fill="#DDF8F8" stroke="#0F4C4E" stroke-width="2.5"/>
      <circle cx="28" cy="31" r="10" fill="#52C9CE" stroke="none"/>
      <text x="145" y="38">Scope / research</text>
    </g>
    <g transform="translate(70 190)">
      <rect width="260" height="62" rx="8" fill="#FBE5E1" stroke="#0F4C4E" stroke-width="2.5"/>
      <circle cx="28" cy="31" r="10" fill="#E88E7D" stroke="none"/>
      <text x="145" y="38">Build / change</text>
    </g>
    <g transform="translate(70 275)">
      <rect width="260" height="62" rx="8" fill="#E5F3EB" stroke="#0F4C4E" stroke-width="2.5"/>
      <circle cx="28" cy="31" r="10" fill="#75B89B" stroke="none"/>
      <text x="145" y="38">Test / review</text>
    </g>
    <g transform="translate(70 360)">
      <rect width="260" height="62" rx="8" fill="#FFF3D5" stroke="#0F4C4E" stroke-width="2.5"/>
      <circle cx="28" cy="31" r="10" fill="#E7B94F" stroke="none"/>
      <text x="145" y="38">Document / deliver</text>
    </g>
  </g>

  <g fill="none" stroke-width="4" stroke-linecap="round">
    <path d="M330 136 C500 136 700 134 880 134" stroke="#52C9CE"/>
    <path d="M330 221 C500 221 700 284 880 284" stroke="#E88E7D"/>
    <path d="M330 306 C500 306 700 209 880 209" stroke="#75B89B"/>
    <path d="M330 391 C415 391 452 411 520 411" stroke="#D2A233" stroke-dasharray="9 8"/>
  </g>

  <g fill="#FAFBF7" stroke-width="3">
    <circle cx="330" cy="136" r="6" stroke="#52C9CE"/>
    <circle cx="880" cy="134" r="6" stroke="#52C9CE"/>
    <circle cx="330" cy="221" r="6" stroke="#E88E7D"/>
    <circle cx="880" cy="284" r="6" stroke="#E88E7D"/>
    <circle cx="330" cy="306" r="6" stroke="#75B89B"/>
    <circle cx="880" cy="209" r="6" stroke="#75B89B"/>
    <circle cx="330" cy="391" r="6" stroke="#D2A233"/>
    <circle cx="520" cy="411" r="6" stroke="#D2A233"/>
  </g>

  <g font-family="Segoe UI, Arial, sans-serif" text-anchor="middle" fill="#0F4C4E">
    <g transform="translate(880 105)">
      <rect width="240" height="58" rx="8" fill="#A7EEF0" stroke="#0F4C4E" stroke-width="2.5"/>
      <text x="120" y="36" font-size="16" font-weight="700">Research Skill</text>
    </g>
    <g transform="translate(880 180)">
      <rect width="240" height="58" rx="8" fill="#B9DEC9" stroke="#0F4C4E" stroke-width="2.5"/>
      <text x="120" y="36" font-size="16" font-weight="700">Testing Skill</text>
    </g>
    <g transform="translate(880 255)">
      <rect width="240" height="58" rx="8" fill="#F2B2A5" stroke="#0F4C4E" stroke-width="2.5"/>
      <text x="120" y="36" font-size="16" font-weight="700">Build Skill</text>
    </g>
    <g transform="translate(880 330)">
      <rect width="240" height="58" rx="8" fill="#FFFFFF" stroke="#AFC3C0" stroke-width="2.5" stroke-dasharray="7 6"/>
      <text x="120" y="26" font-size="15" font-weight="700" fill="#557979">Writing Skill</text>
      <text x="120" y="45" font-size="12" fill="#789393">not used for this task</text>
    </g>
    <g transform="translate(880 405)">
      <rect width="240" height="58" rx="8" fill="#FFFFFF" stroke="#AFC3C0" stroke-width="2.5" stroke-dasharray="7 6"/>
      <text x="120" y="26" font-size="15" font-weight="700" fill="#557979">Other local Skill</text>
      <text x="120" y="45" font-size="12" fill="#789393">not used for this task</text>
    </g>
  </g>

  <g transform="translate(520 380)">
    <rect width="160" height="62" rx="8" fill="#FFF7DB" stroke="#D2A233" stroke-width="2.5"/>
    <text x="80" y="29" fill="#0F4C4E" font-family="Segoe UI, Arial, sans-serif" font-size="16" font-weight="700" text-anchor="middle">Current AI</text>
    <text x="80" y="49" fill="#6B7F74" font-family="Segoe UI, Arial, sans-serif" font-size="12" text-anchor="middle">handles this part</text>
  </g>

  <text x="600" y="506" fill="#0F4C4E" font-family="Segoe UI, Arial, sans-serif" font-size="15" font-weight="600" text-anchor="middle">Select only the Skills that help; the current AI handles the rest.</text>
</svg>
